G75*
G70*
%OFA0B0*%
%FSLAX24Y24*%
%IPPOS*%
%LPD*%
%AMOC8*
5,1,8,0,0,1.08239X$1,22.5*
%
%ADD10R,0.0470X0.0510*%
%ADD11R,0.0600X0.0600*%
%ADD12OC8,0.0600*%
%ADD13R,0.0640X0.0640*%
%ADD14OC8,0.0640*%
%ADD15R,0.0680X0.0680*%
%ADD16OC8,0.0680*%
%ADD17C,0.0634*%
%ADD18C,0.2380*%
%ADD19R,0.0710X0.0790*%
%ADD20R,0.0316X0.0474*%
%ADD21R,0.0510X0.0470*%
%ADD22OC8,0.0848*%
%ADD23OC8,0.0634*%
%ADD24R,0.0474X0.0316*%
%ADD25R,0.0946X0.0316*%
%ADD26R,0.0595X0.0595*%
%ADD27OC8,0.0595*%
%ADD28C,0.0600*%
%ADD29R,0.0277X0.0336*%
%ADD30OC8,0.0730*%
%ADD31C,0.0680*%
%ADD32R,0.0434X0.0356*%
%ADD33R,0.0789X0.1340*%
%ADD34C,0.1660*%
%ADD35OC8,0.0397*%
%ADD36OC8,0.0555*%
%ADD37C,0.0390*%
D10*
X011112Y007985D03*
X011761Y007985D03*
X016962Y006435D03*
X017611Y006435D03*
X022312Y016485D03*
X022961Y016485D03*
X022961Y018485D03*
X022312Y018485D03*
X030862Y021285D03*
X031511Y021285D03*
X019449Y027742D03*
X018800Y027742D03*
X037712Y012035D03*
X038361Y012035D03*
X039312Y011535D03*
X039961Y011535D03*
D11*
X040537Y014185D03*
X038387Y005085D03*
X029387Y005085D03*
X012387Y005085D03*
X003637Y006085D03*
X003637Y013835D03*
X003637Y021585D03*
X016137Y031335D03*
D12*
X017137Y031335D03*
X018137Y031335D03*
X019137Y031335D03*
X020137Y031335D03*
X021137Y031335D03*
X022137Y031335D03*
X023137Y031335D03*
X024137Y031335D03*
X025137Y031335D03*
X026137Y031335D03*
X027137Y031335D03*
X028137Y031335D03*
X029137Y031335D03*
X037537Y014185D03*
X038537Y014185D03*
X039537Y014185D03*
X037387Y005085D03*
X036387Y005085D03*
X035387Y005085D03*
X034387Y005085D03*
X033387Y005085D03*
X032387Y005085D03*
X031387Y005085D03*
X028387Y005085D03*
X027387Y005085D03*
X026387Y005085D03*
X025387Y005085D03*
X024387Y005085D03*
X023387Y005085D03*
X022387Y005085D03*
X021387Y005085D03*
X020387Y005085D03*
X019387Y005085D03*
X018387Y005085D03*
X017387Y005085D03*
X016387Y005085D03*
X015387Y005085D03*
X014387Y005085D03*
X011387Y005085D03*
X010387Y005085D03*
X009387Y005085D03*
X003637Y007085D03*
X003637Y008085D03*
X003637Y009085D03*
X003637Y010085D03*
X003637Y011085D03*
X003637Y014835D03*
X003637Y015835D03*
X003637Y016835D03*
X003637Y017835D03*
X003637Y018835D03*
X003637Y022585D03*
X003637Y023585D03*
X003637Y024585D03*
X003637Y025585D03*
X003637Y026585D03*
D13*
X009387Y003085D03*
X014387Y003085D03*
X031387Y003085D03*
D14*
X032387Y003085D03*
X033387Y003085D03*
X034387Y003085D03*
X035387Y003085D03*
X036387Y003085D03*
X037387Y003085D03*
X038387Y003085D03*
X038387Y002085D03*
X037387Y002085D03*
X036387Y002085D03*
X035387Y002085D03*
X034387Y002085D03*
X033387Y002085D03*
X032387Y002085D03*
X031387Y002085D03*
X029387Y002085D03*
X029387Y003085D03*
X028387Y003085D03*
X027387Y003085D03*
X026387Y003085D03*
X025387Y003085D03*
X024387Y003085D03*
X023387Y003085D03*
X022387Y003085D03*
X021387Y003085D03*
X021387Y002085D03*
X022387Y002085D03*
X023387Y002085D03*
X024387Y002085D03*
X025387Y002085D03*
X026387Y002085D03*
X027387Y002085D03*
X028387Y002085D03*
X020387Y002085D03*
X020387Y003085D03*
X019387Y003085D03*
X018387Y003085D03*
X017387Y003085D03*
X016387Y003085D03*
X015387Y003085D03*
X015387Y002085D03*
X016387Y002085D03*
X017387Y002085D03*
X018387Y002085D03*
X019387Y002085D03*
X014387Y002085D03*
X012387Y002085D03*
X012387Y003085D03*
X011387Y003085D03*
X010387Y003085D03*
X010387Y002085D03*
X011387Y002085D03*
X009387Y002085D03*
D15*
X009637Y025585D03*
X008637Y030585D03*
X038239Y031329D03*
D16*
X010637Y030585D03*
X009637Y030585D03*
X009637Y029585D03*
X010637Y029585D03*
X010637Y028585D03*
X009637Y028585D03*
X008637Y028585D03*
X008637Y029585D03*
X008637Y027585D03*
X009637Y027585D03*
X010637Y027585D03*
X010637Y026585D03*
X009637Y026585D03*
X008637Y026585D03*
X008637Y025585D03*
X010637Y025585D03*
D17*
X041337Y026985D03*
X043337Y026985D03*
D18*
X006137Y004085D03*
X006137Y029085D03*
X041637Y004085D03*
D19*
X015697Y010685D03*
X015697Y011485D03*
X014577Y011485D03*
X014577Y010685D03*
X014577Y015935D03*
X014577Y016735D03*
X015697Y016735D03*
X015697Y015935D03*
X015697Y021185D03*
X015697Y021985D03*
X014577Y021985D03*
X014577Y021185D03*
D20*
X026252Y022435D03*
X026921Y022435D03*
D21*
X024287Y022960D03*
X024287Y023609D03*
X023637Y018409D03*
X023637Y017760D03*
X023637Y017209D03*
X023637Y016560D03*
X021637Y016560D03*
X021637Y017209D03*
X021637Y017760D03*
X021637Y018409D03*
X033537Y014209D03*
X033537Y013560D03*
X036087Y010709D03*
X036087Y010060D03*
X034936Y026394D03*
X034936Y027043D03*
D22*
X044137Y018092D03*
X044137Y014077D03*
D23*
X041774Y015100D03*
X041774Y017069D03*
X042695Y021610D03*
X043679Y021610D03*
X043679Y023185D03*
X042695Y023185D03*
X042695Y024759D03*
X043679Y024759D03*
D24*
X039537Y015769D03*
X039537Y015100D03*
X037537Y015100D03*
X037537Y015769D03*
X035387Y010719D03*
X035387Y010050D03*
D25*
X037463Y009935D03*
X037463Y009435D03*
X037463Y010435D03*
X037463Y010935D03*
X040010Y010935D03*
X040010Y010435D03*
X040010Y009935D03*
X040010Y009435D03*
X021160Y009335D03*
X021160Y008835D03*
X021160Y009835D03*
X021160Y010335D03*
X021160Y010835D03*
X021160Y011335D03*
X021160Y011835D03*
X021160Y012335D03*
X019113Y012335D03*
X019113Y011835D03*
X019113Y011335D03*
X019113Y010835D03*
X019113Y010335D03*
X019113Y009835D03*
X019113Y009335D03*
X019113Y008835D03*
D26*
X036430Y015766D03*
D27*
X035643Y015766D03*
X035643Y014978D03*
X036430Y014978D03*
X036430Y014191D03*
X035643Y014191D03*
X035643Y013403D03*
X036430Y013403D03*
D28*
X015637Y012845D02*
X015637Y012325D01*
X014637Y012325D02*
X014637Y012845D01*
X013637Y012845D02*
X013637Y012325D01*
X012637Y012325D02*
X012637Y012845D01*
X011637Y012845D02*
X011637Y012325D01*
X010637Y012325D02*
X010637Y012845D01*
X009637Y012845D02*
X009637Y012325D01*
X008637Y012325D02*
X008637Y012845D01*
X007637Y012845D02*
X007637Y012325D01*
X006637Y012325D02*
X006637Y012845D01*
X006637Y014575D02*
X006637Y015095D01*
X007637Y015095D02*
X007637Y014575D01*
X008637Y014575D02*
X008637Y015095D01*
X009637Y015095D02*
X009637Y014575D01*
X010637Y014575D02*
X010637Y015095D01*
X011637Y015095D02*
X011637Y014575D01*
X012637Y014575D02*
X012637Y015095D01*
X013637Y015095D02*
X013637Y014575D01*
X014637Y014575D02*
X014637Y015095D01*
X015637Y015095D02*
X015637Y014575D01*
X015637Y017575D02*
X015637Y018095D01*
X014637Y018095D02*
X014637Y017575D01*
X013637Y017575D02*
X013637Y018095D01*
X012637Y018095D02*
X012637Y017575D01*
X011637Y017575D02*
X011637Y018095D01*
X010637Y018095D02*
X010637Y017575D01*
X009637Y017575D02*
X009637Y018095D01*
X008637Y018095D02*
X008637Y017575D01*
X007637Y017575D02*
X007637Y018095D01*
X006637Y018095D02*
X006637Y017575D01*
X006637Y019825D02*
X006637Y020345D01*
X007637Y020345D02*
X007637Y019825D01*
X008637Y019825D02*
X008637Y020345D01*
X009637Y020345D02*
X009637Y019825D01*
X010637Y019825D02*
X010637Y020345D01*
X011637Y020345D02*
X011637Y019825D01*
X012637Y019825D02*
X012637Y020345D01*
X013637Y020345D02*
X013637Y019825D01*
X014637Y019825D02*
X014637Y020345D01*
X015637Y020345D02*
X015637Y019825D01*
X015637Y022825D02*
X015637Y023345D01*
X014637Y023345D02*
X014637Y022825D01*
X013637Y022825D02*
X013637Y023345D01*
X012637Y023345D02*
X012637Y022825D01*
X011637Y022825D02*
X011637Y023345D01*
X010637Y023345D02*
X010637Y022825D01*
X009637Y022825D02*
X009637Y023345D01*
X008637Y023345D02*
X008637Y022825D01*
X007637Y022825D02*
X007637Y023345D01*
X006637Y023345D02*
X006637Y022825D01*
X006637Y009845D02*
X006637Y009325D01*
X007637Y009325D02*
X007637Y009845D01*
X008637Y009845D02*
X008637Y009325D01*
X009637Y009325D02*
X009637Y009845D01*
X010637Y009845D02*
X010637Y009325D01*
X011637Y009325D02*
X011637Y009845D01*
X012637Y009845D02*
X012637Y009325D01*
X013637Y009325D02*
X013637Y009845D01*
X014637Y009845D02*
X014637Y009325D01*
X015637Y009325D02*
X015637Y009845D01*
D29*
X015729Y004331D03*
X015414Y004331D03*
X015414Y003839D03*
X015729Y003839D03*
X016044Y003839D03*
X016359Y003839D03*
X016359Y004331D03*
X016044Y004331D03*
X019414Y004331D03*
X019729Y004331D03*
X020044Y004331D03*
X020359Y004331D03*
X020359Y003839D03*
X020044Y003839D03*
X019729Y003839D03*
X019414Y003839D03*
X023414Y003839D03*
X023729Y003839D03*
X024044Y003839D03*
X024359Y003839D03*
X024359Y004331D03*
X024044Y004331D03*
X023729Y004331D03*
X023414Y004331D03*
X027414Y004331D03*
X027729Y004331D03*
X028044Y004331D03*
X028359Y004331D03*
X028359Y003839D03*
X028044Y003839D03*
X027729Y003839D03*
X027414Y003839D03*
X032414Y003839D03*
X032729Y003839D03*
X033044Y003839D03*
X033359Y003839D03*
X033359Y004331D03*
X033044Y004331D03*
X032729Y004331D03*
X032414Y004331D03*
X036414Y004331D03*
X036729Y004331D03*
X037044Y004331D03*
X037359Y004331D03*
X037359Y003839D03*
X037044Y003839D03*
X036729Y003839D03*
X036414Y003839D03*
X011359Y003839D03*
X011044Y003839D03*
X010729Y003839D03*
X010414Y003839D03*
X010414Y004331D03*
X010729Y004331D03*
X011044Y004331D03*
X011359Y004331D03*
D30*
X042006Y020822D03*
X044368Y020822D03*
X044368Y025547D03*
X042006Y025547D03*
D31*
X037239Y031329D03*
X036239Y031329D03*
X035239Y031329D03*
X034239Y031329D03*
X033239Y031329D03*
X032239Y031329D03*
X031239Y031329D03*
D32*
X035534Y027045D03*
X035534Y026533D03*
X036593Y026592D03*
X036593Y026081D03*
D33*
X034897Y028443D03*
X032692Y028443D03*
D34*
X040535Y029344D03*
X041786Y030845D03*
X043397Y029354D03*
D35*
X040168Y028246D03*
X039385Y028814D03*
X038971Y029229D03*
X038553Y030561D03*
X037885Y030555D03*
X037023Y030555D03*
X036219Y030544D03*
X036271Y029359D03*
X037334Y029331D03*
X037294Y028067D03*
X036200Y028059D03*
X035566Y027754D03*
X036023Y027092D03*
X037211Y026632D03*
X037223Y025955D03*
X037237Y024785D03*
X036437Y024785D03*
X035137Y023835D03*
X034487Y023835D03*
X033062Y024384D03*
X032382Y024749D03*
X032546Y025953D03*
X034440Y025514D03*
X032692Y027537D03*
X031865Y028635D03*
X030475Y028635D03*
X029767Y029159D03*
X029339Y028634D03*
X028687Y028735D03*
X028751Y029635D03*
X029255Y030371D03*
X030237Y030585D03*
X030235Y031440D03*
X032747Y030460D03*
X028999Y027154D03*
X029940Y025470D03*
X030813Y024749D03*
X030837Y023935D03*
X031887Y023335D03*
X031587Y021785D03*
X031987Y021285D03*
X032437Y021285D03*
X032887Y021285D03*
X034537Y022135D03*
X035687Y022135D03*
X036787Y022135D03*
X037137Y020585D03*
X036237Y020585D03*
X036237Y019985D03*
X035137Y019985D03*
X035137Y020585D03*
X034487Y019535D03*
X034487Y019035D03*
X034487Y018535D03*
X035137Y018085D03*
X035487Y017535D03*
X036237Y018085D03*
X036237Y019035D03*
X038687Y018635D03*
X039487Y019435D03*
X039587Y020385D03*
X038737Y020385D03*
X040887Y020435D03*
X041437Y020435D03*
X041437Y019435D03*
X040887Y019435D03*
X040887Y018235D03*
X041437Y018235D03*
X040937Y017085D03*
X041337Y015685D03*
X041287Y014685D03*
X041637Y013635D03*
X042087Y013635D03*
X042487Y013235D03*
X042487Y012785D03*
X040087Y012335D03*
X039587Y012035D03*
X039287Y010835D03*
X038387Y010835D03*
X036787Y010635D03*
X036787Y009385D03*
X037187Y008235D03*
X039037Y009385D03*
X039487Y008235D03*
X039487Y006435D03*
X038287Y005785D03*
X037187Y006435D03*
X034987Y006435D03*
X034987Y008235D03*
X032687Y008235D03*
X032687Y006435D03*
X030137Y006835D03*
X029537Y006485D03*
X027887Y006885D03*
X026637Y006685D03*
X026437Y009085D03*
X026937Y009085D03*
X027487Y009085D03*
X027737Y009635D03*
X028137Y009685D03*
X028537Y009485D03*
X026837Y011085D03*
X027037Y011485D03*
X027537Y011485D03*
X028037Y011485D03*
X028537Y011485D03*
X029037Y011485D03*
X029637Y011485D03*
X028437Y012885D03*
X027037Y013685D03*
X026637Y013985D03*
X026337Y014385D03*
X027337Y014685D03*
X027737Y014385D03*
X028137Y014985D03*
X028137Y015485D03*
X028537Y015485D03*
X029137Y015285D03*
X028137Y016085D03*
X028137Y016985D03*
X028537Y017285D03*
X028137Y017685D03*
X028937Y017885D03*
X028637Y018285D03*
X029037Y018585D03*
X029487Y018585D03*
X030137Y017935D03*
X030087Y017235D03*
X031137Y017235D03*
X031637Y017585D03*
X031137Y017935D03*
X032437Y016985D03*
X032737Y017285D03*
X033037Y016985D03*
X032987Y016185D03*
X032687Y015885D03*
X032987Y015585D03*
X032687Y015285D03*
X032987Y014985D03*
X031937Y014985D03*
X031337Y015185D03*
X031537Y013685D03*
X031937Y013685D03*
X031637Y012885D03*
X032437Y011885D03*
X032837Y011685D03*
X033237Y011585D03*
X033537Y011285D03*
X033837Y011585D03*
X034137Y011285D03*
X034437Y011585D03*
X034737Y011285D03*
X035137Y011085D03*
X034737Y010785D03*
X035137Y011535D03*
X036637Y012035D03*
X037237Y012035D03*
X036337Y012885D03*
X035687Y012885D03*
X034837Y013285D03*
X034237Y014085D03*
X037237Y013635D03*
X040087Y015635D03*
X038687Y017435D03*
X043271Y018128D03*
X043538Y017655D03*
X043786Y020463D03*
X041437Y021635D03*
X040887Y021635D03*
X042589Y022285D03*
X040487Y024185D03*
X039787Y024385D03*
X039787Y023685D03*
X038537Y023385D03*
X038537Y022335D03*
X033187Y018935D03*
X032937Y018585D03*
X033187Y018235D03*
X032137Y019735D03*
X032487Y019985D03*
X031787Y019985D03*
X030737Y019985D03*
X030337Y019985D03*
X029937Y019535D03*
X029637Y019835D03*
X029187Y019985D03*
X028637Y019135D03*
X028187Y019135D03*
X027737Y020335D03*
X027437Y020735D03*
X027137Y020385D03*
X026837Y020685D03*
X026537Y020985D03*
X025337Y020585D03*
X024637Y019885D03*
X024137Y019885D03*
X023537Y019685D03*
X023037Y019685D03*
X022037Y019885D03*
X021437Y019285D03*
X021037Y019585D03*
X020237Y018985D03*
X020537Y018585D03*
X020837Y017785D03*
X020237Y016985D03*
X020537Y016185D03*
X021137Y016685D03*
X022137Y017185D03*
X022137Y017785D03*
X023137Y017185D03*
X023737Y016085D03*
X023737Y015485D03*
X024037Y015085D03*
X023037Y015085D03*
X022537Y015185D03*
X021737Y015435D03*
X021737Y015885D03*
X021387Y015085D03*
X020987Y015085D03*
X020387Y015235D03*
X019137Y013985D03*
X019187Y013135D03*
X019437Y012735D03*
X020587Y013885D03*
X021537Y013785D03*
X023237Y013285D03*
X023687Y013135D03*
X024037Y012535D03*
X024337Y012985D03*
X024837Y013485D03*
X025037Y013885D03*
X023387Y012435D03*
X022937Y012435D03*
X022487Y012435D03*
X023837Y012085D03*
X022237Y010985D03*
X021937Y010485D03*
X021837Y009785D03*
X021837Y009185D03*
X022237Y007585D03*
X022737Y007585D03*
X022937Y006985D03*
X021687Y006985D03*
X021387Y007535D03*
X020837Y007435D03*
X019387Y007485D03*
X018937Y007485D03*
X018487Y007485D03*
X018137Y007185D03*
X017337Y006985D03*
X015237Y007035D03*
X015237Y006585D03*
X013837Y006735D03*
X013837Y007135D03*
X013837Y007535D03*
X014137Y007985D03*
X016637Y009685D03*
X017137Y009585D03*
X017837Y009885D03*
X017837Y010785D03*
X016637Y012485D03*
X017137Y012585D03*
X017637Y013385D03*
X017637Y014135D03*
X017137Y014885D03*
X016637Y014985D03*
X017837Y016185D03*
X017137Y017885D03*
X016637Y017785D03*
X017637Y018785D03*
X018237Y018785D03*
X017937Y019385D03*
X017137Y020085D03*
X016637Y020185D03*
X017937Y020435D03*
X018137Y021435D03*
X017937Y021885D03*
X019187Y021985D03*
X019637Y021685D03*
X019937Y021385D03*
X021337Y021235D03*
X021737Y021235D03*
X022487Y021635D03*
X022987Y021185D03*
X023387Y021185D03*
X024287Y022435D03*
X025687Y022435D03*
X026587Y023035D03*
X026887Y023335D03*
X027187Y023035D03*
X026387Y023985D03*
X025787Y024335D03*
X026387Y024741D03*
X024737Y024435D03*
X024157Y024710D03*
X023049Y024678D03*
X022637Y024085D03*
X021037Y024085D03*
X020737Y024485D03*
X020137Y024085D03*
X019337Y024085D03*
X019237Y023385D03*
X019237Y022985D03*
X019637Y022985D03*
X020987Y022735D03*
X021537Y022835D03*
X025137Y023585D03*
X024733Y026149D03*
X025137Y026585D03*
X024787Y027185D03*
X025137Y027785D03*
X025137Y028785D03*
X026070Y029127D03*
X026687Y028585D03*
X026137Y030085D03*
X026137Y026585D03*
X028629Y024749D03*
X029387Y023335D03*
X029237Y021885D03*
X029687Y021685D03*
X030137Y021685D03*
X030137Y021235D03*
X026237Y019785D03*
X026437Y018585D03*
X025037Y018885D03*
X024737Y018485D03*
X024137Y018685D03*
X024137Y018185D03*
X024437Y016885D03*
X025037Y016885D03*
X024737Y016085D03*
X025037Y015385D03*
X018137Y018185D03*
X012337Y016385D03*
X007937Y016385D03*
X006637Y015835D03*
X008137Y013285D03*
X005837Y011085D03*
X004437Y012085D03*
X004837Y009085D03*
X005937Y005585D03*
X004437Y005085D03*
X011887Y005635D03*
X020887Y004085D03*
X024987Y009085D03*
X025437Y009085D03*
X025937Y009085D03*
X025437Y010285D03*
X025037Y010285D03*
X024637Y010285D03*
X024237Y010285D03*
X030137Y003885D03*
X040387Y002335D03*
X042637Y002335D03*
X042487Y008885D03*
X019794Y026113D03*
X020887Y026835D03*
X021637Y027285D03*
X020567Y027611D03*
X021637Y028285D03*
X021237Y028485D03*
X021787Y028785D03*
X021637Y029285D03*
X021087Y029635D03*
X021187Y030285D03*
X021637Y030285D03*
X020687Y030285D03*
X018787Y030035D03*
X018337Y030035D03*
X018587Y030535D03*
X016287Y028635D03*
X016887Y027835D03*
X018251Y027829D03*
X018137Y027235D03*
X018137Y026145D03*
X017537Y024385D03*
X017137Y023085D03*
X016637Y022985D03*
X010637Y021585D03*
X007037Y019385D03*
X004437Y020585D03*
X003237Y024085D03*
X007337Y025285D03*
X003337Y028185D03*
X012587Y029735D03*
X012587Y030435D03*
X014037Y030435D03*
X014037Y029735D03*
X013987Y028835D03*
X015337Y029735D03*
X015337Y030435D03*
X015337Y031435D03*
X044387Y026435D03*
D36*
X031235Y029640D03*
D37*
X011137Y023585D03*
M02*
