%
M48
M72
T01C0.0157
T02C0.0157
T03C0.0315
T04C0.0320
T05C0.0354
T06C0.0360
T07C0.0400
T08C0.0433
T09C0.0512
T10C0.0787
T11C0.0900
%
T01
X3641Y4010
X4492Y4790
X7922Y5151
X4837Y8601
X5837Y10601
X4437Y11601
X8137Y12801
X6637Y15351
X7937Y15901
X7037Y18901
X4437Y20101
X3237Y23601
X7337Y24801
X10637Y21101
X16637Y22501
X17137Y22601
X17537Y23901
X19337Y23601
X19237Y22901
X19237Y22501
X19637Y22501
X19187Y21501
X19637Y21201
X19937Y20901
X21337Y20751
X21737Y20751
X22487Y21151
X22987Y20701
X23387Y20701
X24137Y19401
X24637Y19401
X25337Y20101
X26237Y19301
X27137Y19901
X26837Y20201
X26537Y20501
X27437Y20251
X27737Y19851
X28187Y18651
X28637Y18651
X29037Y18101
X29487Y18101
X28937Y17401
X28637Y17801
X28137Y17201
X28537Y16801
X28137Y16501
X28137Y15601
X28137Y15001
X28537Y15001
X29137Y14801
X28137Y14501
X27737Y13901
X27337Y14201
X26637Y13501
X27037Y13201
X26337Y13901
X25037Y13401
X24837Y13001
X24337Y12501
X24037Y12051
X23387Y11951
X22937Y11951
X22487Y11951
X23687Y12651
X23237Y12801
X21537Y13301
X20587Y13401
X20987Y14601
X21387Y14601
X21737Y14951
X21737Y15401
X22537Y14701
X23037Y14601
X23737Y15001
X24037Y14601
X25037Y14901
X24737Y15601
X25037Y16401
X24437Y16401
X23737Y15601
X23137Y16701
X22137Y16701
X22137Y17301
X20837Y17301
X20537Y18101
X20237Y18501
X21037Y19101
X21437Y18801
X22037Y19401
X23037Y19201
X23537Y19201
X24137Y18201
X24137Y17701
X24737Y18001
X25037Y18401
X26437Y18101
X29187Y19501
X29637Y19351
X29937Y19051
X30337Y19501
X30737Y19501
X31787Y19501
X32137Y19251
X32487Y19501
X33187Y18451
X32937Y18101
X33187Y17751
X32737Y16801
X33037Y16501
X32437Y16501
X31637Y17101
X31137Y17451
X31137Y16751
X30087Y16751
X30137Y17451
X32687Y15401
X32987Y15701
X32987Y15101
X32687Y14801
X32987Y14501
X31937Y14501
X31337Y14701
X31537Y13201
X31937Y13201
X31637Y12401
X32437Y11401
X32837Y11201
X33237Y11101
X33537Y10801
X33837Y11101
X34137Y10801
X34437Y11101
X34737Y10801
X35137Y10601
X34737Y10301
X35137Y11051
X36637Y11551
X37237Y11551
X36337Y12401
X35687Y12401
X34837Y12801
X34237Y13601
X37237Y13151
X39587Y11551
X40087Y11851
X39287Y10351
X38387Y10351
X36787Y10151
X36787Y8901
X37187Y7751
X39037Y8901
X39487Y7751
X39487Y5951
X38287Y5301
X37187Y5951
X34987Y5951
X34987Y7751
X32687Y7751
X32687Y5951
X30137Y6351
X29537Y6001
X27887Y6401
X26637Y6201
X26437Y8601
X26937Y8601
X27487Y8601
X27737Y9151
X28137Y9201
X28537Y9001
X26837Y10601
X27037Y11001
X27537Y11001
X28037Y11001
X28537Y11001
X29037Y11001
X29637Y11001
X28437Y12401
X25437Y9801
X25037Y9801
X24637Y9801
X24237Y9801
X24987Y8601
X25437Y8601
X25937Y8601
X22737Y7101
X22237Y7101
X21387Y7051
X20837Y6951
X21687Y6501
X22937Y6501
X21837Y8701
X21837Y9301
X21937Y10001
X22237Y10501
X23837Y11601
X19437Y12251
X19187Y12651
X19137Y13501
X17637Y13651
X17637Y12901
X17137Y12101
X16637Y12001
X17837Y10301
X17837Y9401
X17137Y9101
X16637Y9201
X18487Y7001
X18937Y7001
X19387Y7001
X18137Y6701
X17337Y6501
X15237Y6551
X15237Y6101
X13837Y6251
X13837Y6651
X13837Y7051
X14137Y7501
X20887Y3601
X30137Y3401
X42487Y8401
X42487Y12301
X42487Y12751
X42087Y13151
X41637Y13151
X41287Y14201
X41337Y15201
X40087Y15151
X40937Y16601
X40887Y17751
X41437Y17751
X41437Y18951
X40887Y18951
X40887Y19951
X41437Y19951
X41437Y21151
X40887Y21151
X39587Y19901
X38737Y19901
X39487Y18951
X38687Y18151
X38687Y16951
X36237Y17601
X35487Y17051
X35137Y17601
X34487Y18051
X34487Y18551
X34487Y19051
X35137Y19501
X35137Y20101
X36237Y20101
X36237Y19501
X36237Y18551
X37137Y20101
X36787Y21651
X35687Y21651
X34537Y21651
X32887Y20801
X32437Y20801
X31987Y20801
X31587Y21301
X30137Y21201
X30137Y20751
X29687Y21201
X29237Y21401
X29387Y22851
X30837Y23451
X30813Y24265
X29940Y24809
X28713Y25267
X28629Y24265
X26887Y22851
X27187Y22551
X26587Y22551
X25687Y21951
X25137Y23101
X24737Y23951
X24157Y24226
X23049Y24194
X22637Y23601
X21037Y23601
X20737Y24001
X20137Y23601
X21537Y22351
X20987Y22251
X18137Y20951
X17937Y21401
X17937Y19951
X17137Y19601
X16637Y19701
X17937Y18901
X18237Y18301
X17637Y18301
X18137Y17701
X17137Y17401
X16637Y17301
X17837Y15701
X17137Y14401
X16637Y14501
X20387Y14751
X20537Y15701
X21137Y16201
X20237Y16501
X24287Y21951
X26387Y23501
X25787Y23851
X26387Y24257
X24733Y25665
X24787Y26701
X26508Y27551
X28673Y27551
X29767Y30093
X33004Y25307
X32382Y24265
X33062Y23900
X34487Y23351
X35137Y23351
X36437Y24301
X37237Y24301
X38537Y22901
X39787Y23201
X39787Y23901
X40487Y23701
X41757Y24785
X41975Y22270
X38537Y21851
X34440Y24818
X31887Y22851
X21787Y28301
X21165Y28048
X18251Y27345
X16287Y28151
X12337Y15901
X42633Y16172
X43271Y17644
X44353Y1756
T02
X43082Y20888
X42404Y23904
X43082Y26361
X41704Y27345
X44538Y28723
X34893Y28250
X32963Y28211
X32963Y26124
X30680Y26046
X26231Y25809
X25523Y27384
X25011Y28447
X26113Y28565
X26113Y29077
X22885Y26951
X20641Y26400
X20404Y27424
X18121Y26282
X15286Y28211
X15050Y29550
X13121Y29510
X13278Y27935
X13278Y25888
X14735Y25967
X18593Y29983
X7491Y30022
X6231Y27817
X6310Y26282
X6113Y25573
X7491Y25573
X3554Y28565
X5444Y21321
X5247Y17148
X5247Y14392
X5286Y12424
X30601Y31361
X34302Y31361
T03
X35643Y15282
X36430Y15282
X36430Y14494
X35643Y14494
X35643Y13707
X36430Y13707
X36430Y12920
X35643Y12920
T04
X37537Y13701
X38537Y13701
X39537Y13701
X40537Y13701
X40211Y4971
X41211Y4971
X42211Y4971
X43211Y4971
X43211Y1971
X42211Y1971
X41211Y1971
X40211Y1971
X38387Y4601
X37387Y4601
X36387Y4601
X35387Y4601
X34387Y4601
X33387Y4601
X32387Y4601
X31387Y4601
X29387Y4601
X28387Y4601
X27387Y4601
X26387Y4601
X25387Y4601
X24387Y4601
X23387Y4601
X22387Y4601
X21387Y4601
X20387Y4601
X19387Y4601
X18387Y4601
X17387Y4601
X16387Y4601
X15387Y4601
X14387Y4601
X12912Y4577
X11912Y4577
X10912Y4577
X9912Y4577
X8422Y4601
X7422Y4601
X6422Y4601
X5422Y4601
X3637Y5601
X3637Y6601
X3637Y7601
X3637Y8601
X3637Y9601
X3637Y10601
X6637Y12101
X7637Y12101
X8637Y12101
X9637Y12101
X10637Y12101
X11637Y12101
X12637Y12101
X13637Y12101
X14637Y12101
X15637Y12101
X15637Y14351
X14637Y14351
X13637Y14351
X12637Y14351
X11637Y14351
X10637Y14351
X9637Y14351
X8637Y14351
X7637Y14351
X6637Y14351
X3637Y14351
X3637Y15351
X3637Y16351
X3637Y17351
X3637Y18351
X6637Y17351
X7637Y17351
X8637Y17351
X9637Y17351
X10637Y17351
X11637Y17351
X12637Y17351
X13637Y17351
X14637Y17351
X15637Y17351
X15637Y19601
X14637Y19601
X13637Y19601
X12637Y19601
X11637Y19601
X10637Y19601
X9637Y19601
X8637Y19601
X7637Y19601
X6637Y19601
X3637Y21101
X3637Y22101
X3637Y23101
X3637Y24101
X3637Y25101
X3637Y26101
X6637Y22601
X7637Y22601
X8637Y22601
X9637Y22601
X10637Y22601
X11637Y22601
X12637Y22601
X13637Y22601
X14637Y22601
X15637Y22601
X16137Y30851
X17137Y30851
X18137Y30851
X19137Y30851
X20137Y30851
X21137Y30851
X22137Y30851
X23137Y30851
X24137Y30851
X25137Y30851
X26137Y30851
X27137Y30851
X28137Y30851
X29137Y30851
X3637Y13351
X6637Y9101
X7637Y9101
X8637Y9101
X9637Y9101
X10637Y9101
X11637Y9101
X12637Y9101
X13637Y9101
X14637Y9101
X15637Y9101
X12912Y1577
X11912Y1577
X10912Y1577
X9912Y1577
T05
X41774Y14617
X41774Y16585
T06
X38387Y2601
X37387Y2601
X36387Y2601
X35387Y2601
X34387Y2601
X33387Y2601
X32387Y2601
X31387Y2601
X31387Y1601
X32387Y1601
X33387Y1601
X34387Y1601
X35387Y1601
X36387Y1601
X37387Y1601
X38387Y1601
X29387Y1601
X28387Y1601
X27387Y1601
X26387Y1601
X25387Y1601
X24387Y1601
X23387Y1601
X22387Y1601
X21387Y1601
X21387Y2601
X22387Y2601
X23387Y2601
X24387Y2601
X25387Y2601
X26387Y2601
X27387Y2601
X28387Y2601
X29387Y2601
X20387Y2601
X19387Y2601
X18387Y2601
X17387Y2601
X16387Y2601
X15387Y2601
X14387Y2601
X14387Y1601
X15387Y1601
X16387Y1601
X17387Y1601
X18387Y1601
X19387Y1601
X20387Y1601
X8422Y1601
X7422Y1601
X6422Y1601
X5422Y1601
X5422Y2601
X6422Y2601
X7422Y2601
X8422Y2601
T07
X8637Y25101
X9637Y25101
X10637Y25101
X10637Y26101
X9637Y26101
X8637Y26101
X8637Y27101
X9637Y27101
X10637Y27101
X10637Y28101
X9637Y28101
X8637Y28101
X8637Y29101
X9637Y29101
X10637Y29101
X10637Y30101
X9637Y30101
X8637Y30101
X44243Y26388
X44243Y25388
X44243Y24388
X44243Y23388
X44243Y22388
X44243Y21388
X44243Y20388
X44243Y19388
T08
X40593Y26531
X38593Y27331
X39377Y28886
X43377Y28016
T09
X44137Y17609
X44137Y13593
T10
X35703Y26934
X33893Y26934
X32083Y26934
X32083Y29654
X33893Y29654
X35703Y29654
T11
X39007Y30115
X40589Y30136
X42633Y30132
X44286Y30124
M30
