%
M48
M72
T01C0.0157
T02C0.0157
T03C0.0315
T04C0.0320
T05C0.0354
T06C0.0360
T07C0.0400
T08C0.0433
T09C0.0512
T10C0.0787
T11C0.0900
%
T01
X3682Y4010
X4782Y5090
X7962Y5151
X4877Y8601
X5877Y10601
X4477Y11601
X8177Y12801
X6677Y15351
X7977Y15901
X7077Y18901
X4477Y20101
X3277Y23601
X7377Y24801
X10677Y21101
X16677Y22501
X17177Y22601
X17577Y23901
X19377Y23601
X19277Y22901
X19277Y22501
X19677Y22501
X19227Y21501
X19677Y21201
X19977Y20901
X21377Y20751
X21777Y20751
X22527Y21151
X23027Y20701
X23427Y20701
X24177Y19401
X24677Y19401
X25377Y20101
X26277Y19301
X27177Y19901
X26877Y20201
X26577Y20501
X27477Y20251
X27777Y19851
X28227Y18651
X28677Y18651
X29077Y18101
X29527Y18101
X28977Y17401
X28677Y17801
X28177Y17201
X28577Y16801
X28177Y16501
X28177Y15601
X28177Y15001
X28577Y15001
X29177Y14801
X28177Y14501
X27777Y13901
X27377Y14201
X26677Y13501
X26377Y13901
X27077Y13201
X28477Y12401
X28577Y11001
X28077Y11001
X27577Y11001
X27077Y11001
X26877Y10601
X25477Y9801
X25077Y9801
X24677Y9801
X24277Y9801
X25027Y8601
X25477Y8601
X25977Y8601
X26477Y8601
X26977Y8601
X27527Y8601
X27777Y9151
X28177Y9201
X28577Y9001
X29077Y11001
X29677Y11001
X31677Y12401
X31577Y13201
X31977Y13201
X31977Y14501
X31377Y14701
X32727Y14801
X33027Y15101
X32727Y15401
X33027Y15701
X33077Y16501
X32777Y16801
X32477Y16501
X31677Y17101
X31177Y17451
X31177Y16751
X30127Y16751
X30177Y17451
X29977Y19051
X29677Y19351
X29227Y19501
X30377Y19501
X30777Y19501
X31827Y19501
X32177Y19251
X32527Y19501
X33227Y18451
X32977Y18101
X33227Y17751
X34527Y18051
X34527Y18551
X34527Y19051
X35177Y19501
X35177Y20101
X36277Y20101
X36277Y19501
X36277Y18551
X36277Y17601
X35527Y17051
X35177Y17601
X37177Y20101
X38777Y19901
X39627Y19901
X39527Y18951
X38727Y18151
X38727Y16951
X40977Y16601
X40927Y17751
X41477Y17751
X41477Y18951
X40927Y18951
X40927Y19951
X41477Y19951
X41477Y21151
X40927Y21151
X42016Y22270
X40527Y23701
X39827Y23901
X39827Y23201
X38577Y22901
X38577Y21851
X36827Y21651
X35727Y21651
X34577Y21651
X32927Y20801
X32477Y20801
X32027Y20801
X31627Y21301
X30177Y21201
X29727Y21201
X29277Y21401
X30177Y20751
X29427Y22851
X30877Y23451
X30853Y24265
X29980Y24809
X28753Y25267
X28669Y24265
X26927Y22851
X26627Y22551
X27227Y22551
X26427Y23501
X25827Y23851
X26427Y24257
X24777Y23951
X24197Y24226
X23089Y24194
X22677Y23601
X21077Y23601
X20777Y24001
X20177Y23601
X21577Y22351
X21027Y22251
X18177Y20951
X17977Y21401
X17977Y19951
X17177Y19601
X16677Y19701
X17977Y18901
X17677Y18301
X18277Y18301
X18177Y17701
X17177Y17401
X16677Y17301
X17877Y15701
X17177Y14401
X16677Y14501
X17677Y13651
X17677Y12901
X17177Y12101
X16677Y12001
X17877Y10301
X17877Y9401
X17177Y9101
X16677Y9201
X18527Y7001
X18977Y7001
X19427Y7001
X18177Y6701
X17377Y6501
X15277Y6551
X15277Y6101
X13877Y6251
X13877Y6651
X13877Y7051
X14177Y7501
X20877Y6951
X21427Y7051
X22277Y7101
X22777Y7101
X22977Y6501
X21727Y6501
X21877Y8701
X21877Y9301
X21977Y10001
X22277Y10501
X22527Y11951
X22977Y11951
X23427Y11951
X23877Y11601
X24077Y12051
X24377Y12501
X24877Y13001
X25077Y13401
X23727Y12651
X23277Y12801
X21577Y13301
X20627Y13401
X21027Y14601
X21427Y14601
X21777Y14951
X21777Y15401
X22577Y14701
X23077Y14601
X23777Y15001
X24077Y14601
X25077Y14901
X24777Y15601
X24477Y16401
X25077Y16401
X23777Y15601
X23177Y16701
X22177Y16701
X22177Y17301
X20877Y17301
X20577Y18101
X20277Y18501
X21077Y19101
X21477Y18801
X22077Y19401
X23077Y19201
X23577Y19201
X24177Y18201
X24177Y17701
X24777Y18001
X25077Y18401
X26477Y18101
X21177Y16201
X20577Y15701
X20427Y14751
X19177Y13501
X19227Y12651
X19477Y12251
X20277Y16501
X24327Y21951
X25727Y21951
X25177Y23101
X24773Y25665
X24827Y26701
X26548Y27551
X28714Y27551
X29807Y30093
X33044Y25307
X32422Y24265
X33102Y23900
X34527Y23351
X35177Y23351
X36477Y24301
X37277Y24301
X34480Y24818
X31927Y22851
X41797Y24785
X43311Y17644
X42673Y16172
X41377Y15201
X41327Y14201
X41677Y13151
X42127Y13151
X42527Y12751
X42527Y12301
X40127Y11851
X39627Y11551
X39327Y10351
X38427Y10351
X36827Y10151
X35177Y10601
X34777Y10801
X34477Y11101
X34177Y10801
X33877Y11101
X33577Y10801
X33277Y11101
X32877Y11201
X32477Y11401
X34777Y10301
X35177Y11051
X36677Y11551
X37277Y11551
X36377Y12401
X35727Y12401
X34877Y12801
X34277Y13601
X33027Y14501
X37277Y13151
X40127Y15151
X39077Y8901
X39527Y7751
X39527Y5951
X38327Y5301
X37227Y5951
X37227Y7751
X36827Y8901
X35027Y7751
X35027Y5951
X32727Y5951
X32727Y7751
X30177Y6351
X29577Y6001
X27927Y6401
X26677Y6201
X30177Y3401
X20927Y3601
X12377Y15901
X18291Y27345
X16327Y28151
X21206Y28048
X21827Y28301
X42527Y8401
X44394Y1756
T02
X43122Y20888
X42445Y23904
X41744Y27345
X44122Y27361
X44579Y28723
X34933Y28250
X33004Y28211
X33004Y26124
X30720Y26046
X26271Y25809
X25563Y27384
X25051Y28447
X26153Y28565
X26153Y29077
X22925Y26951
X20681Y26400
X20445Y27424
X18161Y26282
X15327Y28211
X15090Y29550
X13161Y29510
X13319Y27935
X13319Y25888
X14775Y25967
X18634Y29983
X7531Y30022
X6271Y27817
X6350Y26282
X6153Y25573
X7531Y25573
X3594Y28565
X5484Y21321
X5287Y17148
X5287Y14392
X5327Y12424
X30642Y31361
X34342Y31361
T03
X35683Y15282
X36471Y15282
X36471Y14494
X35683Y14494
X35683Y13707
X36471Y13707
X36471Y12920
X35683Y12920
T04
X37577Y13701
X38577Y13701
X39577Y13701
X40577Y13701
X40252Y4971
X41252Y4971
X42252Y4971
X43252Y4971
X43252Y1971
X42252Y1971
X41252Y1971
X40252Y1971
X38427Y4601
X37427Y4601
X36427Y4601
X35427Y4601
X34427Y4601
X33427Y4601
X32427Y4601
X31427Y4601
X29427Y4601
X28427Y4601
X27427Y4601
X26427Y4601
X25427Y4601
X24427Y4601
X23427Y4601
X22427Y4601
X21427Y4601
X20427Y4601
X19427Y4601
X18427Y4601
X17427Y4601
X16427Y4601
X15427Y4601
X14427Y4601
X12703Y4577
X11703Y4577
X10703Y4577
X9703Y4577
X7962Y4601
X6962Y4601
X5962Y4601
X4962Y4601
X3677Y5601
X3677Y6601
X3677Y7601
X3677Y8601
X3677Y9601
X3677Y10601
X6677Y12101
X7677Y12101
X8677Y12101
X9677Y12101
X10677Y12101
X11677Y12101
X12677Y12101
X13677Y12101
X14677Y12101
X15677Y12101
X15677Y14351
X14677Y14351
X13677Y14351
X12677Y14351
X11677Y14351
X10677Y14351
X9677Y14351
X8677Y14351
X7677Y14351
X6677Y14351
X3677Y14351
X3677Y15351
X3677Y16351
X3677Y17351
X3677Y18351
X6677Y17351
X7677Y17351
X8677Y17351
X9677Y17351
X10677Y17351
X11677Y17351
X12677Y17351
X13677Y17351
X14677Y17351
X15677Y17351
X15677Y19601
X14677Y19601
X13677Y19601
X12677Y19601
X11677Y19601
X10677Y19601
X9677Y19601
X8677Y19601
X7677Y19601
X6677Y19601
X3677Y21101
X3677Y22101
X3677Y23101
X3677Y24101
X3677Y25101
X3677Y26101
X6677Y22601
X7677Y22601
X8677Y22601
X9677Y22601
X10677Y22601
X11677Y22601
X12677Y22601
X13677Y22601
X14677Y22601
X15677Y22601
X16177Y30851
X17177Y30851
X18177Y30851
X19177Y30851
X20177Y30851
X21177Y30851
X22177Y30851
X23177Y30851
X24177Y30851
X25177Y30851
X26177Y30851
X27177Y30851
X28177Y30851
X29177Y30851
X3677Y13351
X6677Y9101
X7677Y9101
X8677Y9101
X9677Y9101
X10677Y9101
X11677Y9101
X12677Y9101
X13677Y9101
X14677Y9101
X15677Y9101
X12703Y1577
X11703Y1577
X10703Y1577
X9703Y1577
T05
X41815Y14617
X41815Y16585
T06
X4962Y1601
X5962Y1601
X6962Y1601
X7962Y1601
X7962Y2601
X6962Y2601
X5962Y2601
X4962Y2601
X14427Y2601
X15427Y2601
X16427Y2601
X17427Y2601
X18427Y2601
X19427Y2601
X20427Y2601
X21427Y2601
X22427Y2601
X23427Y2601
X24427Y2601
X25427Y2601
X26427Y2601
X27427Y2601
X28427Y2601
X29427Y2601
X29427Y1601
X28427Y1601
X27427Y1601
X26427Y1601
X25427Y1601
X24427Y1601
X23427Y1601
X22427Y1601
X21427Y1601
X20427Y1601
X19427Y1601
X18427Y1601
X17427Y1601
X16427Y1601
X15427Y1601
X14427Y1601
X31427Y1601
X32427Y1601
X33427Y1601
X34427Y1601
X35427Y1601
X36427Y1601
X37427Y1601
X38427Y1601
X38427Y2601
X37427Y2601
X36427Y2601
X35427Y2601
X34427Y2601
X33427Y2601
X32427Y2601
X31427Y2601
T07
X44283Y19388
X44283Y20388
X44283Y21388
X44283Y22388
X44283Y23388
X44283Y24388
X44283Y25388
X44283Y26388
X10677Y26101
X9677Y26101
X8677Y26101
X8677Y27101
X9677Y27101
X10677Y27101
X10677Y28101
X9677Y28101
X8677Y28101
X8677Y29101
X8677Y30101
X9677Y30101
X10677Y30101
X10677Y29101
X9677Y29101
X9677Y25101
X8677Y25101
X10677Y25101
T08
X38634Y27331
X40634Y26531
X43417Y28016
X39417Y28886
T09
X44177Y17609
X44177Y13593
T10
X35743Y26934
X33933Y26934
X32123Y26934
X32123Y29654
X33933Y29654
X35743Y29654
T11
X39047Y30115
X40630Y30136
X42673Y30132
X44327Y30124
M30
