G75*
G70*
%OFA0B0*%
%FSLAX24Y24*%
%IPPOS*%
%LPD*%
%AMOC8*
5,1,8,0,0,1.08239X$1,22.5*
%
%ADD10R,0.0470X0.0510*%
%ADD11R,0.0600X0.0600*%
%ADD12OC8,0.0600*%
%ADD13R,0.0640X0.0640*%
%ADD14OC8,0.0640*%
%ADD15R,0.0680X0.0680*%
%ADD16OC8,0.0680*%
%ADD17R,0.0710X0.0790*%
%ADD18R,0.0316X0.0474*%
%ADD19R,0.0510X0.0470*%
%ADD20OC8,0.0848*%
%ADD21OC8,0.0634*%
%ADD22R,0.0474X0.0316*%
%ADD23R,0.0946X0.0316*%
%ADD24R,0.0595X0.0595*%
%ADD25OC8,0.0595*%
%ADD26C,0.0600*%
%ADD27R,0.0336X0.0277*%
%ADD28R,0.0277X0.0336*%
%ADD29C,0.0680*%
%ADD30OC8,0.1261*%
%ADD31OC8,0.0730*%
%ADD32OC8,0.0397*%
%ADD33OC8,0.1380*%
%ADD34OC8,0.0397*%
D10*
X011153Y007501D03*
X011801Y007501D03*
X017003Y005951D03*
X017651Y005951D03*
X022353Y016001D03*
X023001Y016001D03*
X023001Y018001D03*
X022353Y018001D03*
X030903Y020801D03*
X031551Y020801D03*
X019489Y027258D03*
X018840Y027258D03*
X037753Y011551D03*
X038401Y011551D03*
X039353Y011051D03*
X040001Y011051D03*
D11*
X040577Y013701D03*
X038427Y004601D03*
X029427Y004601D03*
X007962Y004601D03*
X003677Y005601D03*
X003677Y013351D03*
X003677Y021101D03*
X016177Y030851D03*
D12*
X017177Y030851D03*
X018177Y030851D03*
X019177Y030851D03*
X020177Y030851D03*
X021177Y030851D03*
X022177Y030851D03*
X023177Y030851D03*
X024177Y030851D03*
X025177Y030851D03*
X026177Y030851D03*
X027177Y030851D03*
X028177Y030851D03*
X029177Y030851D03*
X037577Y013701D03*
X038577Y013701D03*
X039577Y013701D03*
X037427Y004601D03*
X036427Y004601D03*
X035427Y004601D03*
X034427Y004601D03*
X033427Y004601D03*
X032427Y004601D03*
X031427Y004601D03*
X028427Y004601D03*
X027427Y004601D03*
X026427Y004601D03*
X025427Y004601D03*
X024427Y004601D03*
X023427Y004601D03*
X022427Y004601D03*
X021427Y004601D03*
X020427Y004601D03*
X019427Y004601D03*
X018427Y004601D03*
X017427Y004601D03*
X016427Y004601D03*
X015427Y004601D03*
X014427Y004601D03*
X006962Y004601D03*
X005962Y004601D03*
X004962Y004601D03*
X003677Y006601D03*
X003677Y007601D03*
X003677Y008601D03*
X003677Y009601D03*
X003677Y010601D03*
X003677Y014351D03*
X003677Y015351D03*
X003677Y016351D03*
X003677Y017351D03*
X003677Y018351D03*
X003677Y022101D03*
X003677Y023101D03*
X003677Y024101D03*
X003677Y025101D03*
X003677Y026101D03*
D13*
X004962Y002601D03*
X014427Y002601D03*
X031427Y002601D03*
D14*
X004962Y001601D03*
X005962Y001601D03*
X006962Y001601D03*
X007962Y001601D03*
X007962Y002601D03*
X006962Y002601D03*
X005962Y002601D03*
X014427Y001601D03*
X015427Y001601D03*
X016427Y001601D03*
X017427Y001601D03*
X018427Y001601D03*
X019427Y001601D03*
X019427Y002601D03*
X018427Y002601D03*
X017427Y002601D03*
X016427Y002601D03*
X015427Y002601D03*
X020427Y002601D03*
X021427Y002601D03*
X022427Y002601D03*
X023427Y002601D03*
X024427Y002601D03*
X025427Y002601D03*
X026427Y002601D03*
X027427Y002601D03*
X028427Y002601D03*
X029427Y002601D03*
X029427Y001601D03*
X028427Y001601D03*
X027427Y001601D03*
X026427Y001601D03*
X025427Y001601D03*
X024427Y001601D03*
X023427Y001601D03*
X022427Y001601D03*
X021427Y001601D03*
X020427Y001601D03*
X031427Y001601D03*
X032427Y001601D03*
X033427Y001601D03*
X034427Y001601D03*
X035427Y001601D03*
X036427Y001601D03*
X037427Y001601D03*
X038427Y001601D03*
X038427Y002601D03*
X037427Y002601D03*
X036427Y002601D03*
X035427Y002601D03*
X034427Y002601D03*
X033427Y002601D03*
X032427Y002601D03*
D15*
X044283Y019388D03*
X009677Y025101D03*
X008677Y030101D03*
D16*
X009677Y030101D03*
X010677Y030101D03*
X010677Y029101D03*
X009677Y029101D03*
X008677Y029101D03*
X008677Y028101D03*
X009677Y028101D03*
X010677Y028101D03*
X010677Y027101D03*
X009677Y027101D03*
X008677Y027101D03*
X008677Y026101D03*
X009677Y026101D03*
X010677Y026101D03*
X010677Y025101D03*
X008677Y025101D03*
D17*
X014617Y021501D03*
X014617Y020701D03*
X015737Y020701D03*
X015737Y021501D03*
X015737Y016290D03*
X015737Y015451D03*
X014617Y015451D03*
X014617Y016290D03*
X014617Y011001D03*
X014617Y010201D03*
X015737Y010201D03*
X015737Y011001D03*
D18*
X026292Y021951D03*
X026962Y021951D03*
D19*
X024327Y022476D03*
X024327Y023125D03*
X023677Y017925D03*
X023677Y017276D03*
X023677Y016725D03*
X023677Y016076D03*
X021677Y016076D03*
X021677Y016725D03*
X021677Y017276D03*
X021677Y017925D03*
X033577Y013725D03*
X033577Y013076D03*
X036127Y010225D03*
X036127Y009576D03*
D20*
X044177Y013593D03*
X044177Y017609D03*
D21*
X041815Y016585D03*
X041815Y014617D03*
D22*
X039577Y014616D03*
X039577Y015285D03*
X037577Y015285D03*
X037577Y014616D03*
X035427Y010235D03*
X035427Y009566D03*
D23*
X037503Y009451D03*
X037503Y008951D03*
X037503Y009951D03*
X037503Y010451D03*
X040051Y010451D03*
X040051Y009951D03*
X040051Y009451D03*
X040051Y008951D03*
X021201Y008851D03*
X021201Y008351D03*
X021201Y009351D03*
X021201Y009851D03*
X021201Y010351D03*
X021201Y010851D03*
X021201Y011351D03*
X021201Y011851D03*
X019153Y011851D03*
X019153Y011351D03*
X019153Y010851D03*
X019153Y010351D03*
X019153Y009851D03*
X019153Y009351D03*
X019153Y008851D03*
X019153Y008351D03*
D24*
X036471Y015282D03*
D25*
X035683Y015282D03*
X035683Y014494D03*
X036471Y014494D03*
X036471Y013707D03*
X035683Y013707D03*
X035683Y012920D03*
X036471Y012920D03*
D26*
X040252Y005231D02*
X040252Y004711D01*
X041252Y004711D02*
X041252Y005231D01*
X042252Y005231D02*
X042252Y004711D01*
X043252Y004711D02*
X043252Y005231D01*
X043252Y002231D02*
X043252Y001711D01*
X042252Y001711D02*
X042252Y002231D01*
X041252Y002231D02*
X041252Y001711D01*
X040252Y001711D02*
X040252Y002231D01*
X015677Y008841D02*
X015677Y009361D01*
X014677Y009361D02*
X014677Y008841D01*
X013677Y008841D02*
X013677Y009361D01*
X012677Y009361D02*
X012677Y008841D01*
X011677Y008841D02*
X011677Y009361D01*
X010677Y009361D02*
X010677Y008841D01*
X009677Y008841D02*
X009677Y009361D01*
X008677Y009361D02*
X008677Y008841D01*
X007677Y008841D02*
X007677Y009361D01*
X006677Y009361D02*
X006677Y008841D01*
X006677Y011841D02*
X006677Y012361D01*
X007677Y012361D02*
X007677Y011841D01*
X008677Y011841D02*
X008677Y012361D01*
X009677Y012361D02*
X009677Y011841D01*
X010677Y011841D02*
X010677Y012361D01*
X011677Y012361D02*
X011677Y011841D01*
X012677Y011841D02*
X012677Y012361D01*
X013677Y012361D02*
X013677Y011841D01*
X014677Y011841D02*
X014677Y012361D01*
X015677Y012361D02*
X015677Y011841D01*
X015677Y014091D02*
X015677Y014611D01*
X014677Y014611D02*
X014677Y014091D01*
X013677Y014091D02*
X013677Y014611D01*
X012677Y014611D02*
X012677Y014091D01*
X011677Y014091D02*
X011677Y014611D01*
X010677Y014611D02*
X010677Y014091D01*
X009677Y014091D02*
X009677Y014611D01*
X008677Y014611D02*
X008677Y014091D01*
X007677Y014091D02*
X007677Y014611D01*
X006677Y014611D02*
X006677Y014091D01*
X006677Y017091D02*
X006677Y017611D01*
X007677Y017611D02*
X007677Y017091D01*
X008677Y017091D02*
X008677Y017611D01*
X009677Y017611D02*
X009677Y017091D01*
X010677Y017091D02*
X010677Y017611D01*
X011677Y017611D02*
X011677Y017091D01*
X012677Y017091D02*
X012677Y017611D01*
X013677Y017611D02*
X013677Y017091D01*
X014677Y017091D02*
X014677Y017611D01*
X015677Y017611D02*
X015677Y017091D01*
X015677Y019341D02*
X015677Y019861D01*
X014677Y019861D02*
X014677Y019341D01*
X013677Y019341D02*
X013677Y019861D01*
X012677Y019861D02*
X012677Y019341D01*
X011677Y019341D02*
X011677Y019861D01*
X010677Y019861D02*
X010677Y019341D01*
X009677Y019341D02*
X009677Y019861D01*
X008677Y019861D02*
X008677Y019341D01*
X007677Y019341D02*
X007677Y019861D01*
X006677Y019861D02*
X006677Y019341D01*
X006677Y022341D02*
X006677Y022861D01*
X007677Y022861D02*
X007677Y022341D01*
X008677Y022341D02*
X008677Y022861D01*
X009677Y022861D02*
X009677Y022341D01*
X010677Y022341D02*
X010677Y022861D01*
X011677Y022861D02*
X011677Y022341D01*
X012677Y022341D02*
X012677Y022861D01*
X013677Y022861D02*
X013677Y022341D01*
X014677Y022341D02*
X014677Y022861D01*
X015677Y022861D02*
X015677Y022341D01*
X012703Y004837D02*
X012703Y004317D01*
X011703Y004317D02*
X011703Y004837D01*
X010703Y004837D02*
X010703Y004317D01*
X009703Y004317D02*
X009703Y004837D01*
X009703Y001837D02*
X009703Y001317D01*
X010703Y001317D02*
X010703Y001837D01*
X011703Y001837D02*
X011703Y001317D01*
X012703Y001317D02*
X012703Y001837D01*
D27*
X012943Y002622D03*
X012943Y002937D03*
X012943Y003252D03*
X012943Y003567D03*
X012451Y003567D03*
X012451Y003252D03*
X012451Y002937D03*
X012451Y002622D03*
X039758Y003000D03*
X039758Y003315D03*
X039758Y003630D03*
X039758Y003945D03*
X040250Y003945D03*
X040250Y003630D03*
X040250Y003315D03*
X040250Y003000D03*
D28*
X033399Y003355D03*
X033084Y003355D03*
X032770Y003355D03*
X032455Y003355D03*
X032455Y003847D03*
X032770Y003847D03*
X033084Y003847D03*
X033399Y003847D03*
X028399Y003847D03*
X028084Y003847D03*
X027770Y003847D03*
X027455Y003847D03*
X027455Y003355D03*
X027770Y003355D03*
X028084Y003355D03*
X028399Y003355D03*
X024399Y003355D03*
X024084Y003355D03*
X023770Y003355D03*
X023455Y003355D03*
X023455Y003847D03*
X023770Y003847D03*
X024084Y003847D03*
X024399Y003847D03*
X020399Y003847D03*
X020084Y003847D03*
X019770Y003847D03*
X019455Y003847D03*
X019455Y003355D03*
X019770Y003355D03*
X020084Y003355D03*
X020399Y003355D03*
X007435Y003355D03*
X007120Y003355D03*
X006805Y003355D03*
X006490Y003355D03*
X006490Y003847D03*
X006805Y003847D03*
X007120Y003847D03*
X007435Y003847D03*
D29*
X044283Y020388D03*
X044283Y021388D03*
X044283Y022388D03*
X044283Y023388D03*
X044283Y024388D03*
X044283Y025388D03*
X044283Y026388D03*
D30*
X035743Y026934D03*
X033933Y026934D03*
X032123Y026934D03*
X032123Y029654D03*
X033933Y029654D03*
X035743Y029654D03*
D31*
X038634Y027331D03*
X040634Y026531D03*
X043417Y028016D03*
X039417Y028886D03*
D32*
X041797Y024785D03*
X040527Y023701D03*
X039827Y023901D03*
X039827Y023201D03*
X038577Y022901D03*
X038577Y021851D03*
X036827Y021651D03*
X035727Y021651D03*
X034577Y021651D03*
X032927Y020801D03*
X032477Y020801D03*
X032027Y020801D03*
X031627Y021301D03*
X030177Y021201D03*
X029727Y021201D03*
X029277Y021401D03*
X030177Y020751D03*
X030377Y019501D03*
X030777Y019501D03*
X029977Y019051D03*
X029677Y019351D03*
X029227Y019501D03*
X028677Y018651D03*
X028227Y018651D03*
X029077Y018101D03*
X029527Y018101D03*
X028977Y017401D03*
X028677Y017801D03*
X028177Y017201D03*
X028577Y016801D03*
X028177Y016501D03*
X028177Y015601D03*
X028177Y015001D03*
X028577Y015001D03*
X029177Y014801D03*
X028177Y014501D03*
X027777Y013901D03*
X027377Y014201D03*
X026677Y013501D03*
X026377Y013901D03*
X027077Y013201D03*
X028477Y012401D03*
X028577Y011001D03*
X028077Y011001D03*
X027577Y011001D03*
X027077Y011001D03*
X026877Y010601D03*
X025477Y009801D03*
X025077Y009801D03*
X024677Y009801D03*
X024277Y009801D03*
X025027Y008601D03*
X025477Y008601D03*
X025977Y008601D03*
X026477Y008601D03*
X026977Y008601D03*
X027527Y008601D03*
X027777Y009151D03*
X028177Y009201D03*
X028577Y009001D03*
X029077Y011001D03*
X029677Y011001D03*
X031677Y012401D03*
X031577Y013201D03*
X031977Y013201D03*
X031977Y014501D03*
X031377Y014701D03*
X032727Y014801D03*
X033027Y015101D03*
X032727Y015401D03*
X033027Y015701D03*
X033077Y016501D03*
X032777Y016801D03*
X032477Y016501D03*
X031677Y017101D03*
X031177Y017451D03*
X031177Y016751D03*
X030127Y016751D03*
X030177Y017451D03*
X031827Y019501D03*
X032177Y019251D03*
X032527Y019501D03*
X033227Y018451D03*
X032977Y018101D03*
X033227Y017751D03*
X034527Y018051D03*
X034527Y018551D03*
X034527Y019051D03*
X035177Y019501D03*
X035177Y020101D03*
X036277Y020101D03*
X036277Y019501D03*
X036277Y018551D03*
X036277Y017601D03*
X035527Y017051D03*
X035177Y017601D03*
X037177Y020101D03*
X038777Y019901D03*
X039627Y019901D03*
X039527Y018951D03*
X038727Y018151D03*
X038727Y016951D03*
X040977Y016601D03*
X040927Y017751D03*
X041477Y017751D03*
X041477Y018951D03*
X040927Y018951D03*
X040927Y019951D03*
X041477Y019951D03*
X041477Y021151D03*
X040927Y021151D03*
X042016Y022270D03*
X037277Y024301D03*
X036477Y024301D03*
X035177Y023351D03*
X034527Y023351D03*
X033102Y023900D03*
X032422Y024265D03*
X033044Y025307D03*
X034480Y024818D03*
X031927Y022851D03*
X030877Y023451D03*
X030853Y024265D03*
X029980Y024809D03*
X028753Y025267D03*
X028669Y024265D03*
X029427Y022851D03*
X027227Y022551D03*
X026927Y022851D03*
X026627Y022551D03*
X025727Y021951D03*
X025177Y023101D03*
X024777Y023951D03*
X024197Y024226D03*
X023089Y024194D03*
X022677Y023601D03*
X021077Y023601D03*
X020777Y024001D03*
X020177Y023601D03*
X019377Y023601D03*
X019277Y022901D03*
X019277Y022501D03*
X019677Y022501D03*
X019227Y021501D03*
X019677Y021201D03*
X019977Y020901D03*
X021377Y020751D03*
X021777Y020751D03*
X022527Y021151D03*
X023027Y020701D03*
X023427Y020701D03*
X024177Y019401D03*
X024677Y019401D03*
X025377Y020101D03*
X026277Y019301D03*
X027177Y019901D03*
X026877Y020201D03*
X026577Y020501D03*
X027477Y020251D03*
X027777Y019851D03*
X026477Y018101D03*
X025077Y018401D03*
X024777Y018001D03*
X024177Y018201D03*
X024177Y017701D03*
X023177Y016701D03*
X022177Y016701D03*
X022177Y017301D03*
X020877Y017301D03*
X020577Y018101D03*
X020277Y018501D03*
X021077Y019101D03*
X021477Y018801D03*
X022077Y019401D03*
X023077Y019201D03*
X023577Y019201D03*
X024327Y021951D03*
X026427Y023501D03*
X025827Y023851D03*
X026427Y024257D03*
X024773Y025665D03*
X024827Y026701D03*
X026548Y027551D03*
X028714Y027551D03*
X029807Y030093D03*
X021827Y028301D03*
X021206Y028048D03*
X018291Y027345D03*
X016327Y028151D03*
X017577Y023901D03*
X017177Y022601D03*
X016677Y022501D03*
X017977Y021401D03*
X018177Y020951D03*
X017977Y019951D03*
X017177Y019601D03*
X016677Y019701D03*
X017977Y018901D03*
X017677Y018301D03*
X018277Y018301D03*
X018177Y017701D03*
X017177Y017401D03*
X016677Y017301D03*
X017877Y015701D03*
X017177Y014401D03*
X016677Y014501D03*
X017677Y013651D03*
X017677Y012901D03*
X017177Y012101D03*
X016677Y012001D03*
X017877Y010301D03*
X017877Y009401D03*
X017177Y009101D03*
X016677Y009201D03*
X018527Y007001D03*
X018977Y007001D03*
X019427Y007001D03*
X018177Y006701D03*
X017377Y006501D03*
X015277Y006551D03*
X015277Y006101D03*
X013877Y006251D03*
X013877Y006651D03*
X013877Y007051D03*
X014177Y007501D03*
X007962Y005151D03*
X004782Y005090D03*
X003682Y004010D03*
X004877Y008601D03*
X005877Y010601D03*
X004477Y011601D03*
X008177Y012801D03*
X006677Y015351D03*
X007977Y015901D03*
X007077Y018901D03*
X004477Y020101D03*
X003277Y023601D03*
X007377Y024801D03*
X010677Y021101D03*
X012377Y015901D03*
X019177Y013501D03*
X019227Y012651D03*
X019477Y012251D03*
X020627Y013401D03*
X021577Y013301D03*
X021427Y014601D03*
X021027Y014601D03*
X020427Y014751D03*
X020577Y015701D03*
X021177Y016201D03*
X020277Y016501D03*
X021777Y015401D03*
X021777Y014951D03*
X022577Y014701D03*
X023077Y014601D03*
X023777Y015001D03*
X024077Y014601D03*
X025077Y014901D03*
X024777Y015601D03*
X024477Y016401D03*
X025077Y016401D03*
X023777Y015601D03*
X025077Y013401D03*
X024877Y013001D03*
X024377Y012501D03*
X024077Y012051D03*
X023427Y011951D03*
X022977Y011951D03*
X022527Y011951D03*
X023727Y012651D03*
X023277Y012801D03*
X023877Y011601D03*
X022277Y010501D03*
X021977Y010001D03*
X021877Y009301D03*
X021877Y008701D03*
X022277Y007101D03*
X022777Y007101D03*
X022977Y006501D03*
X021727Y006501D03*
X021427Y007051D03*
X020877Y006951D03*
X020927Y003601D03*
X026677Y006201D03*
X027927Y006401D03*
X029577Y006001D03*
X030177Y006351D03*
X032727Y005951D03*
X032727Y007751D03*
X035027Y007751D03*
X036827Y008901D03*
X037227Y007751D03*
X039077Y008901D03*
X039527Y007751D03*
X039527Y005951D03*
X038327Y005301D03*
X037227Y005951D03*
X035027Y005951D03*
X030177Y003401D03*
X036827Y010151D03*
X038427Y010351D03*
X039327Y010351D03*
X039627Y011551D03*
X040127Y011851D03*
X041677Y013151D03*
X042127Y013151D03*
X042527Y012751D03*
X042527Y012301D03*
X041327Y014201D03*
X041377Y015201D03*
X040127Y015151D03*
X042673Y016172D03*
X043311Y017644D03*
X037277Y013151D03*
X036377Y012401D03*
X035727Y012401D03*
X034877Y012801D03*
X034277Y013601D03*
X033027Y014501D03*
X032477Y011401D03*
X032877Y011201D03*
X033277Y011101D03*
X033577Y010801D03*
X033877Y011101D03*
X034177Y010801D03*
X034477Y011101D03*
X034777Y010801D03*
X035177Y010601D03*
X034777Y010301D03*
X035177Y011051D03*
X036677Y011551D03*
X037277Y011551D03*
X042527Y008401D03*
X044394Y001756D03*
X021027Y022251D03*
X021577Y022351D03*
D33*
X039047Y030115D03*
X040630Y030136D03*
X042673Y030132D03*
X044327Y030124D03*
D34*
X044579Y028723D03*
X044122Y027361D03*
X041744Y027345D03*
X042445Y023904D03*
X043122Y020888D03*
X034933Y028250D03*
X033004Y028211D03*
X033004Y026124D03*
X030720Y026046D03*
X026271Y025809D03*
X025563Y027384D03*
X025051Y028447D03*
X026153Y028565D03*
X026153Y029077D03*
X022925Y026951D03*
X020681Y026400D03*
X020445Y027424D03*
X018161Y026282D03*
X015327Y028211D03*
X015090Y029550D03*
X013161Y029510D03*
X013319Y027935D03*
X013319Y025888D03*
X014775Y025967D03*
X018634Y029983D03*
X007531Y030022D03*
X006271Y027817D03*
X006350Y026282D03*
X006153Y025573D03*
X007531Y025573D03*
X003594Y028565D03*
X005484Y021321D03*
X005287Y017148D03*
X005287Y014392D03*
X005327Y012424D03*
X030642Y031361D03*
X034342Y031361D03*
M02*
