G75*
G70*
%OFA0B0*%
%FSLAX24Y24*%
%IPPOS*%
%LPD*%
%AMOC8*
5,1,8,0,0,1.08239X$1,22.5*
%
%ADD10C,0.0060*%
%ADD11C,0.0030*%
%ADD12C,0.0050*%
%ADD13C,0.0040*%
%ADD14C,0.0080*%
%ADD15C,0.0447*%
%ADD16C,0.0361*%
D10*
X027477Y005201D02*
X027577Y005201D01*
X027677Y005101D01*
X028177Y005101D02*
X028277Y005201D01*
X028377Y005201D01*
D11*
X040338Y010748D02*
X040338Y010872D01*
X040399Y010934D01*
X040399Y011055D02*
X040338Y011117D01*
X040338Y011240D01*
X040399Y011302D01*
X040646Y011302D01*
X040399Y011055D01*
X040646Y011055D01*
X040708Y011117D01*
X040708Y011240D01*
X040646Y011302D01*
X040523Y011423D02*
X040523Y011670D01*
X040338Y011608D02*
X040708Y011608D01*
X040523Y011423D01*
X040646Y010934D02*
X040708Y010872D01*
X040708Y010748D01*
X040646Y010687D01*
X040399Y010687D01*
X040338Y010748D01*
D12*
X040271Y010770D02*
X040271Y011332D01*
X039083Y011332D01*
X039083Y010770D01*
X040271Y010770D01*
X039775Y010646D02*
X039775Y008756D01*
X037976Y008756D01*
X037976Y010646D01*
X037779Y010646D01*
X037779Y008756D01*
X037976Y008756D01*
X036408Y009307D02*
X036408Y010495D01*
X035846Y010495D01*
X035846Y009307D01*
X036408Y009307D01*
X035708Y009370D02*
X035708Y010432D01*
X035146Y010432D01*
X035146Y009370D01*
X035708Y009370D01*
X037976Y010646D02*
X039775Y010646D01*
X038671Y011270D02*
X038671Y011832D01*
X037483Y011832D01*
X037483Y011270D01*
X038671Y011270D01*
X039296Y014420D02*
X039858Y014420D01*
X039858Y015482D01*
X039296Y015482D01*
X039296Y014420D01*
X037858Y014420D02*
X037858Y015482D01*
X037296Y015482D01*
X037296Y014420D01*
X037858Y014420D01*
X033858Y013995D02*
X033858Y012807D01*
X033296Y012807D01*
X033296Y013995D01*
X033858Y013995D01*
X031821Y020520D02*
X030633Y020520D01*
X030633Y021082D01*
X031821Y021082D01*
X031821Y020520D01*
X027158Y021670D02*
X026096Y021670D01*
X026096Y022232D01*
X027158Y022232D01*
X027158Y021670D01*
X024608Y022207D02*
X024046Y022207D01*
X024046Y023395D01*
X024608Y023395D01*
X024608Y022207D01*
X023958Y018195D02*
X023396Y018195D01*
X023396Y017007D01*
X023958Y017007D01*
X023958Y018195D01*
X023271Y018282D02*
X023271Y017720D01*
X022083Y017720D01*
X022083Y018282D01*
X023271Y018282D01*
X021958Y018195D02*
X021396Y018195D01*
X021396Y017007D01*
X021958Y017007D01*
X021958Y018195D01*
X021958Y016995D02*
X021396Y016995D01*
X021396Y015807D01*
X021958Y015807D01*
X021958Y016995D01*
X022083Y016282D02*
X022083Y015720D01*
X023271Y015720D01*
X023271Y016282D01*
X022083Y016282D01*
X023396Y015807D02*
X023958Y015807D01*
X023958Y016995D01*
X023396Y016995D01*
X023396Y015807D01*
X016146Y015853D02*
X016146Y016728D01*
X014208Y016728D01*
X014208Y015853D01*
X016146Y015853D01*
X016146Y015888D02*
X016146Y015013D01*
X014208Y015013D01*
X014208Y015888D01*
X016146Y015888D01*
X016146Y020263D02*
X014208Y020263D01*
X014208Y021138D01*
X016146Y021138D01*
X016146Y020263D01*
X016146Y021063D02*
X016146Y021938D01*
X014208Y021938D01*
X014208Y021063D01*
X016146Y021063D01*
X018571Y026977D02*
X018571Y027539D01*
X019758Y027539D01*
X019758Y026977D01*
X018571Y026977D01*
X016146Y011438D02*
X014208Y011438D01*
X014208Y010563D01*
X016146Y010563D01*
X016146Y011438D01*
X016146Y010638D02*
X016146Y009763D01*
X014208Y009763D01*
X014208Y010638D01*
X016146Y010638D01*
X012071Y007782D02*
X012071Y007220D01*
X010883Y007220D01*
X010883Y007782D01*
X012071Y007782D01*
X016733Y006232D02*
X016733Y005670D01*
X017921Y005670D01*
X017921Y006232D01*
X016733Y006232D01*
D13*
X006981Y003156D02*
X006352Y003156D01*
X006352Y004046D01*
X006991Y004046D01*
X006994Y004046D02*
X007573Y004046D01*
X007573Y003156D01*
X006981Y003156D01*
X006934Y003156D01*
X007693Y003108D02*
X008053Y003108D01*
X008053Y003288D01*
X007993Y003348D01*
X007873Y003348D01*
X007813Y003288D01*
X007813Y003108D01*
X007813Y003228D02*
X007693Y003348D01*
X007693Y003476D02*
X008053Y003476D01*
X007693Y003716D01*
X008053Y003716D01*
X008053Y003845D02*
X008053Y004085D01*
X007993Y004085D01*
X007753Y003845D01*
X007693Y003845D01*
X011057Y006711D02*
X011057Y007071D01*
X011237Y006891D01*
X010997Y006891D01*
X011365Y006831D02*
X011365Y006771D01*
X011425Y006711D01*
X011545Y006711D01*
X011605Y006771D01*
X011733Y006771D02*
X011793Y006711D01*
X011913Y006711D01*
X011973Y006771D01*
X011973Y007011D01*
X011913Y007071D01*
X011793Y007071D01*
X011733Y007011D01*
X011605Y007011D02*
X011545Y007071D01*
X011425Y007071D01*
X011365Y007011D01*
X011365Y006951D01*
X011425Y006891D01*
X011365Y006831D01*
X011425Y006891D02*
X011485Y006891D01*
X012251Y003705D02*
X012251Y003076D01*
X012251Y002485D01*
X013142Y002485D01*
X013142Y003063D01*
X013142Y003067D02*
X013142Y003705D01*
X012251Y003705D01*
X012251Y003123D02*
X012251Y003076D01*
X012300Y002325D02*
X012420Y002265D01*
X012540Y002145D01*
X012360Y002145D01*
X012300Y002085D01*
X012300Y002025D01*
X012360Y001965D01*
X012480Y001965D01*
X012540Y002025D01*
X012540Y002145D01*
X012668Y001965D02*
X012668Y002325D01*
X012908Y002325D02*
X012668Y001965D01*
X012908Y001965D02*
X012908Y002325D01*
X013036Y002265D02*
X013036Y002145D01*
X013097Y002085D01*
X013277Y002085D01*
X013277Y001965D02*
X013277Y002325D01*
X013097Y002325D01*
X013036Y002265D01*
X013157Y002085D02*
X013036Y001965D01*
X017129Y005170D02*
X017129Y005230D01*
X016889Y005471D01*
X016889Y005531D01*
X017129Y005531D01*
X017257Y005531D02*
X017497Y005531D01*
X017497Y005350D01*
X017377Y005410D01*
X017317Y005410D01*
X017257Y005350D01*
X017257Y005230D01*
X017317Y005170D01*
X017437Y005170D01*
X017497Y005230D01*
X017625Y005230D02*
X017686Y005170D01*
X017806Y005170D01*
X017866Y005230D01*
X017866Y005471D01*
X017806Y005531D01*
X017686Y005531D01*
X017625Y005471D01*
X018857Y004093D02*
X018797Y004033D01*
X018797Y003913D01*
X018857Y003852D01*
X018977Y003852D02*
X019037Y003973D01*
X019037Y004033D01*
X018977Y004093D01*
X018857Y004093D01*
X018977Y003852D02*
X019157Y003852D01*
X019157Y004093D01*
X019317Y004046D02*
X019317Y003156D01*
X019946Y003156D01*
X020537Y003156D01*
X020537Y004046D01*
X019959Y004046D01*
X019955Y004046D02*
X019317Y004046D01*
X019157Y003724D02*
X018797Y003724D01*
X019157Y003484D01*
X018797Y003484D01*
X018797Y003356D02*
X018917Y003236D01*
X018917Y003296D02*
X018917Y003116D01*
X018797Y003116D02*
X019157Y003116D01*
X019157Y003296D01*
X019097Y003356D01*
X018977Y003356D01*
X018917Y003296D01*
X019899Y003156D02*
X019946Y003156D01*
X023317Y003156D02*
X023946Y003156D01*
X024537Y003156D01*
X024537Y004046D01*
X023959Y004046D01*
X023955Y004046D02*
X023317Y004046D01*
X023317Y003156D01*
X023899Y003156D02*
X023946Y003156D01*
X024697Y003116D02*
X025057Y003116D01*
X025057Y003296D01*
X024997Y003356D01*
X024877Y003356D01*
X024817Y003296D01*
X024817Y003116D01*
X024817Y003236D02*
X024697Y003356D01*
X024697Y003484D02*
X025057Y003484D01*
X024697Y003724D01*
X025057Y003724D01*
X024997Y003852D02*
X025057Y003913D01*
X025057Y004033D01*
X024997Y004093D01*
X024937Y004093D01*
X024697Y003852D01*
X024697Y004093D01*
X026797Y004098D02*
X026797Y003857D01*
X026797Y003977D02*
X027157Y003977D01*
X027037Y003857D01*
X027157Y003729D02*
X026797Y003729D01*
X027157Y003489D01*
X026797Y003489D01*
X026797Y003361D02*
X026917Y003241D01*
X026917Y003301D02*
X026917Y003121D01*
X026797Y003121D02*
X027157Y003121D01*
X027157Y003301D01*
X027097Y003361D01*
X026977Y003361D01*
X026917Y003301D01*
X027317Y003156D02*
X027946Y003156D01*
X028537Y003156D01*
X028537Y004046D01*
X027959Y004046D01*
X027955Y004046D02*
X027317Y004046D01*
X027317Y003156D01*
X027899Y003156D02*
X027946Y003156D01*
X032317Y003156D02*
X032946Y003156D01*
X033537Y003156D01*
X033537Y004046D01*
X032959Y004046D01*
X032955Y004046D02*
X032317Y004046D01*
X032317Y003156D01*
X032899Y003156D02*
X032946Y003156D01*
X033697Y003116D02*
X034057Y003116D01*
X034057Y003296D01*
X033997Y003356D01*
X033877Y003356D01*
X033817Y003296D01*
X033817Y003116D01*
X033817Y003236D02*
X033697Y003356D01*
X033697Y003484D02*
X034057Y003484D01*
X033697Y003724D01*
X034057Y003724D01*
X033877Y003852D02*
X033877Y004093D01*
X033697Y004033D02*
X034057Y004033D01*
X033877Y003852D01*
X039559Y004083D02*
X039559Y003504D01*
X039559Y003501D02*
X039559Y002863D01*
X040449Y002863D01*
X040449Y003491D01*
X040449Y004083D01*
X039559Y004083D01*
X040449Y003491D02*
X040449Y003444D01*
X040484Y002753D02*
X040304Y002753D01*
X040244Y002693D01*
X040244Y002573D01*
X040304Y002513D01*
X040484Y002513D01*
X040484Y002393D02*
X040484Y002753D01*
X040364Y002513D02*
X040244Y002393D01*
X040115Y002393D02*
X040115Y002753D01*
X039875Y002393D01*
X039875Y002753D01*
X039747Y002693D02*
X039687Y002753D01*
X039567Y002753D01*
X039507Y002693D01*
X039507Y002633D01*
X039567Y002573D01*
X039507Y002513D01*
X039507Y002453D01*
X039567Y002393D01*
X039687Y002393D01*
X039747Y002453D01*
X039627Y002573D02*
X039567Y002573D01*
X039352Y008221D02*
X039232Y008221D01*
X039172Y008281D01*
X039172Y008581D01*
X039044Y008461D02*
X038924Y008581D01*
X038924Y008221D01*
X039044Y008221D02*
X038803Y008221D01*
X038675Y008281D02*
X038615Y008221D01*
X038495Y008221D01*
X038435Y008281D01*
X038435Y008401D01*
X038495Y008461D01*
X038555Y008461D01*
X038675Y008401D01*
X038675Y008581D01*
X038435Y008581D01*
X039412Y008581D02*
X039412Y008281D01*
X039352Y008221D01*
X036095Y008755D02*
X036095Y009115D01*
X035915Y009115D01*
X035855Y009055D01*
X035855Y008935D01*
X035915Y008875D01*
X036095Y008875D01*
X035975Y008875D02*
X035855Y008755D01*
X035727Y008815D02*
X035667Y008755D01*
X035547Y008755D01*
X035487Y008815D01*
X035487Y008875D01*
X035547Y008935D01*
X035727Y008935D01*
X035727Y008815D01*
X035727Y008935D02*
X035607Y009055D01*
X035487Y009115D01*
X035359Y008935D02*
X035179Y008935D01*
X035119Y008875D01*
X035119Y008815D01*
X035179Y008755D01*
X035299Y008755D01*
X035359Y008815D01*
X035359Y008935D01*
X035239Y009055D01*
X035119Y009115D01*
X035749Y010621D02*
X035869Y010621D01*
X035929Y010681D01*
X035929Y010802D02*
X035809Y010862D01*
X035749Y010862D01*
X035689Y010802D01*
X035689Y010681D01*
X035749Y010621D01*
X035929Y010802D02*
X035929Y010982D01*
X035689Y010982D01*
X036057Y010802D02*
X036297Y010802D01*
X036117Y010982D01*
X036117Y010621D01*
X036425Y010681D02*
X036486Y010621D01*
X036606Y010621D01*
X036666Y010681D01*
X036666Y010922D01*
X036606Y010982D01*
X036486Y010982D01*
X036425Y010922D01*
X037879Y011971D02*
X037879Y012031D01*
X037639Y012272D01*
X037639Y012332D01*
X037879Y012332D01*
X038067Y012332D02*
X038247Y012152D01*
X038007Y012152D01*
X038067Y012332D02*
X038067Y011971D01*
X038375Y012031D02*
X038436Y011971D01*
X038556Y011971D01*
X038616Y012031D01*
X038616Y012272D01*
X038556Y012332D01*
X038436Y012332D01*
X038375Y012272D01*
X039985Y014342D02*
X040345Y014342D01*
X040345Y014522D01*
X040285Y014582D01*
X040165Y014582D01*
X040105Y014522D01*
X040105Y014342D01*
X040105Y014462D02*
X039985Y014582D01*
X040045Y014710D02*
X039985Y014771D01*
X039985Y014891D01*
X040045Y014951D01*
X040165Y014951D01*
X040225Y014891D01*
X040225Y014831D01*
X040165Y014710D01*
X040345Y014710D01*
X040345Y014951D01*
X040165Y015079D02*
X040165Y015259D01*
X040105Y015319D01*
X040045Y015319D01*
X039985Y015259D01*
X039985Y015139D01*
X040045Y015079D01*
X040165Y015079D01*
X040285Y015199D01*
X040345Y015319D01*
X037170Y015311D02*
X037170Y015191D01*
X037110Y015131D01*
X037170Y015003D02*
X037170Y014763D01*
X036990Y014763D01*
X037050Y014883D01*
X037050Y014943D01*
X036990Y015003D01*
X036870Y015003D01*
X036809Y014943D01*
X036809Y014823D01*
X036870Y014763D01*
X036809Y014635D02*
X036930Y014515D01*
X036930Y014575D02*
X036930Y014394D01*
X036809Y014394D02*
X037170Y014394D01*
X037170Y014575D01*
X037110Y014635D01*
X036990Y014635D01*
X036930Y014575D01*
X036809Y015131D02*
X037050Y015371D01*
X037110Y015371D01*
X037170Y015311D01*
X036809Y015371D02*
X036809Y015131D01*
X034353Y014470D02*
X034353Y014230D01*
X034293Y014170D01*
X034173Y014170D01*
X034113Y014230D01*
X033985Y014170D02*
X033745Y014410D01*
X033745Y014470D01*
X033805Y014530D01*
X033925Y014530D01*
X033985Y014470D01*
X034113Y014470D02*
X034173Y014530D01*
X034293Y014530D01*
X034353Y014470D01*
X033985Y014170D02*
X033745Y014170D01*
X033617Y014170D02*
X033617Y014230D01*
X033376Y014470D01*
X033376Y014530D01*
X033617Y014530D01*
X025116Y017031D02*
X025056Y016971D01*
X024936Y016971D01*
X024875Y017031D01*
X024747Y016971D02*
X024507Y017212D01*
X024507Y017272D01*
X024567Y017332D01*
X024687Y017332D01*
X024747Y017272D01*
X024875Y017272D02*
X024936Y017332D01*
X025056Y017332D01*
X025116Y017272D01*
X025116Y017031D01*
X024747Y016971D02*
X024507Y016971D01*
X024379Y016971D02*
X024139Y017212D01*
X024139Y017272D01*
X024199Y017332D01*
X024319Y017332D01*
X024379Y017272D01*
X024379Y016971D02*
X024139Y016971D01*
X024108Y016039D02*
X024048Y015979D01*
X024048Y015859D01*
X024108Y015799D01*
X024348Y016039D01*
X024108Y016039D01*
X024348Y016039D02*
X024408Y015979D01*
X024408Y015859D01*
X024348Y015799D01*
X024108Y015799D01*
X024048Y015671D02*
X024048Y015430D01*
X024288Y015671D01*
X024348Y015671D01*
X024408Y015611D01*
X024408Y015491D01*
X024348Y015430D01*
X024348Y015302D02*
X024408Y015242D01*
X024408Y015122D01*
X024348Y015062D01*
X024108Y015062D01*
X024048Y015122D01*
X024048Y015242D01*
X024108Y015302D01*
X023316Y015231D02*
X023316Y015472D01*
X023256Y015532D01*
X023136Y015532D01*
X023075Y015472D01*
X022947Y015412D02*
X022827Y015532D01*
X022827Y015171D01*
X022947Y015171D02*
X022707Y015171D01*
X022579Y015231D02*
X022579Y015292D01*
X022519Y015352D01*
X022399Y015352D01*
X022339Y015292D01*
X022339Y015231D01*
X022399Y015171D01*
X022519Y015171D01*
X022579Y015231D01*
X022519Y015352D02*
X022579Y015412D01*
X022579Y015472D01*
X022519Y015532D01*
X022399Y015532D01*
X022339Y015472D01*
X022339Y015412D01*
X022399Y015352D01*
X023075Y015231D02*
X023136Y015171D01*
X023256Y015171D01*
X023316Y015231D01*
X021316Y016731D02*
X021316Y016972D01*
X021256Y017032D01*
X021136Y017032D01*
X021075Y016972D01*
X020947Y016912D02*
X020827Y017032D01*
X020827Y016671D01*
X020947Y016671D02*
X020707Y016671D01*
X020579Y016731D02*
X020519Y016671D01*
X020399Y016671D01*
X020339Y016731D01*
X020339Y016972D01*
X020399Y017032D01*
X020519Y017032D01*
X020579Y016972D01*
X020579Y016912D01*
X020519Y016852D01*
X020339Y016852D01*
X021075Y016731D02*
X021136Y016671D01*
X021256Y016671D01*
X021316Y016731D01*
X021148Y017562D02*
X020908Y017562D01*
X020848Y017622D01*
X020848Y017742D01*
X020908Y017802D01*
X020848Y017930D02*
X020848Y018171D01*
X020848Y018051D02*
X021208Y018051D01*
X021088Y017930D01*
X021148Y017802D02*
X021208Y017742D01*
X021208Y017622D01*
X021148Y017562D01*
X021208Y018299D02*
X021208Y018539D01*
X021148Y018539D01*
X020908Y018299D01*
X020848Y018299D01*
X022226Y018370D02*
X022467Y018370D01*
X022347Y018370D02*
X022347Y018730D01*
X022467Y018610D01*
X022595Y018610D02*
X022595Y018670D01*
X022655Y018730D01*
X022775Y018730D01*
X022835Y018670D01*
X022963Y018670D02*
X023023Y018730D01*
X023143Y018730D01*
X023203Y018670D01*
X023203Y018430D01*
X023143Y018370D01*
X023023Y018370D01*
X022963Y018430D01*
X022835Y018370D02*
X022595Y018610D01*
X022595Y018370D02*
X022835Y018370D01*
X027359Y021818D02*
X027419Y021758D01*
X027539Y021758D01*
X027599Y021818D01*
X027359Y022059D01*
X027359Y021818D01*
X027599Y021818D02*
X027599Y022059D01*
X027539Y022119D01*
X027419Y022119D01*
X027359Y022059D01*
X027727Y022119D02*
X027967Y022119D01*
X027967Y021938D01*
X027847Y021999D01*
X027787Y021999D01*
X027727Y021938D01*
X027727Y021818D01*
X027787Y021758D01*
X027907Y021758D01*
X027967Y021818D01*
X028095Y021758D02*
X028216Y021878D01*
X028156Y021878D02*
X028336Y021878D01*
X028336Y021758D02*
X028336Y022119D01*
X028156Y022119D01*
X028095Y022059D01*
X028095Y021938D01*
X028156Y021878D01*
X030379Y021654D02*
X030379Y021594D01*
X030439Y021534D01*
X030379Y021474D01*
X030379Y021414D01*
X030439Y021354D01*
X030559Y021354D01*
X030619Y021414D01*
X030748Y021354D02*
X030988Y021354D01*
X030868Y021354D02*
X030868Y021714D01*
X030988Y021594D01*
X031116Y021654D02*
X031176Y021714D01*
X031296Y021714D01*
X031356Y021654D01*
X031356Y021414D01*
X031296Y021354D01*
X031176Y021354D01*
X031116Y021414D01*
X030619Y021654D02*
X030559Y021714D01*
X030439Y021714D01*
X030379Y021654D01*
X030439Y021534D02*
X030499Y021534D01*
X023857Y022335D02*
X023797Y022274D01*
X023556Y022274D01*
X023496Y022335D01*
X023496Y022455D01*
X023556Y022515D01*
X023496Y022643D02*
X023496Y022883D01*
X023496Y022763D02*
X023857Y022763D01*
X023737Y022643D01*
X023797Y022515D02*
X023857Y022455D01*
X023857Y022335D01*
X023676Y023011D02*
X023676Y023251D01*
X023496Y023191D02*
X023857Y023191D01*
X023676Y023011D01*
X019637Y027676D02*
X019517Y027676D01*
X019457Y027736D01*
X019328Y027736D02*
X019268Y027676D01*
X019148Y027676D01*
X019088Y027736D01*
X019088Y027796D01*
X019148Y027856D01*
X019328Y027856D01*
X019328Y027736D01*
X019328Y027856D02*
X019208Y027976D01*
X019088Y028036D01*
X018960Y027856D02*
X018780Y027856D01*
X018720Y027796D01*
X018720Y027736D01*
X018780Y027676D01*
X018900Y027676D01*
X018960Y027736D01*
X018960Y027856D01*
X018840Y027976D01*
X018720Y028036D01*
X019457Y027976D02*
X019517Y028036D01*
X019637Y028036D01*
X019697Y027976D01*
X019697Y027736D01*
X019637Y027676D01*
X016903Y021730D02*
X016723Y021730D01*
X016663Y021670D01*
X016663Y021550D01*
X016723Y021490D01*
X016903Y021490D01*
X016783Y021490D02*
X016663Y021370D01*
X016535Y021370D02*
X016535Y021430D01*
X016295Y021670D01*
X016295Y021730D01*
X016535Y021730D01*
X016903Y021730D02*
X016903Y021370D01*
X016903Y020830D02*
X016723Y020830D01*
X016663Y020770D01*
X016663Y020650D01*
X016723Y020590D01*
X016903Y020590D01*
X016783Y020590D02*
X016663Y020470D01*
X016535Y020530D02*
X016535Y020590D01*
X016475Y020650D01*
X016355Y020650D01*
X016295Y020590D01*
X016295Y020530D01*
X016355Y020470D01*
X016475Y020470D01*
X016535Y020530D01*
X016475Y020650D02*
X016535Y020710D01*
X016535Y020770D01*
X016475Y020830D01*
X016355Y020830D01*
X016295Y020770D01*
X016295Y020710D01*
X016355Y020650D01*
X016903Y020470D02*
X016903Y020830D01*
X016903Y016520D02*
X016723Y016520D01*
X016663Y016460D01*
X016663Y016340D01*
X016723Y016280D01*
X016903Y016280D01*
X016783Y016280D02*
X016663Y016159D01*
X016535Y016220D02*
X016475Y016159D01*
X016355Y016159D01*
X016295Y016220D01*
X016295Y016460D01*
X016355Y016520D01*
X016475Y016520D01*
X016535Y016460D01*
X016535Y016400D01*
X016475Y016340D01*
X016295Y016340D01*
X016903Y016159D02*
X016903Y016520D01*
X016815Y015580D02*
X016815Y015220D01*
X016935Y015220D02*
X016695Y015220D01*
X016567Y015280D02*
X016326Y015520D01*
X016326Y015280D01*
X016387Y015220D01*
X016507Y015220D01*
X016567Y015280D01*
X016567Y015520D01*
X016507Y015580D01*
X016387Y015580D01*
X016326Y015520D01*
X016815Y015580D02*
X016935Y015460D01*
X017063Y015520D02*
X017063Y015400D01*
X017123Y015340D01*
X017303Y015340D01*
X017183Y015340D02*
X017063Y015220D01*
X017303Y015220D02*
X017303Y015580D01*
X017123Y015580D01*
X017063Y015520D01*
X017123Y011230D02*
X017063Y011170D01*
X017063Y011050D01*
X017123Y010990D01*
X017303Y010990D01*
X017183Y010990D02*
X017063Y010870D01*
X016935Y010870D02*
X016695Y010870D01*
X016815Y010870D02*
X016815Y011230D01*
X016935Y011110D01*
X017123Y011230D02*
X017303Y011230D01*
X017303Y010870D01*
X017303Y010330D02*
X017123Y010330D01*
X017063Y010270D01*
X017063Y010150D01*
X017123Y010090D01*
X017303Y010090D01*
X017183Y010090D02*
X017063Y009970D01*
X016935Y009970D02*
X016695Y009970D01*
X016815Y009970D02*
X016815Y010330D01*
X016935Y010210D01*
X016567Y010270D02*
X016507Y010330D01*
X016387Y010330D01*
X016326Y010270D01*
X016326Y010210D01*
X016567Y009970D01*
X016326Y009970D01*
X016326Y010870D02*
X016567Y010870D01*
X016447Y010870D02*
X016447Y011230D01*
X016567Y011110D01*
X017303Y010330D02*
X017303Y009970D01*
X019955Y007785D02*
X019955Y007425D01*
X020075Y007425D02*
X019835Y007425D01*
X020075Y007665D02*
X019955Y007785D01*
X020324Y007785D02*
X020324Y007425D01*
X020444Y007425D02*
X020203Y007425D01*
X020444Y007665D02*
X020324Y007785D01*
X020572Y007785D02*
X020572Y007485D01*
X020632Y007425D01*
X020752Y007425D01*
X020812Y007485D01*
X020812Y007785D01*
D14*
X020925Y008156D02*
X020925Y012046D01*
X019626Y012046D01*
X019429Y012046D01*
X019429Y008156D01*
X019626Y008156D01*
X019626Y012046D01*
X019626Y008156D02*
X020925Y008156D01*
D15*
X019177Y007801D03*
D16*
X037527Y008451D03*
M02*
