G75*
G70*
%OFA0B0*%
%FSLAX24Y24*%
%IPPOS*%
%LPD*%
%AMOC8*
5,1,8,0,0,1.08239X$1,22.5*
%
%ADD10R,0.0470X0.0510*%
%ADD11R,0.0600X0.0600*%
%ADD12OC8,0.0600*%
%ADD13R,0.0640X0.0640*%
%ADD14OC8,0.0640*%
%ADD15R,0.0680X0.0680*%
%ADD16OC8,0.0680*%
%ADD17R,0.0710X0.0790*%
%ADD18R,0.0316X0.0474*%
%ADD19R,0.0510X0.0470*%
%ADD20OC8,0.0848*%
%ADD21OC8,0.0634*%
%ADD22R,0.0474X0.0316*%
%ADD23R,0.0946X0.0316*%
%ADD24R,0.0595X0.0595*%
%ADD25OC8,0.0595*%
%ADD26C,0.0600*%
%ADD27R,0.0336X0.0277*%
%ADD28R,0.0277X0.0336*%
%ADD29C,0.0680*%
%ADD30OC8,0.1261*%
%ADD31OC8,0.0730*%
%ADD32OC8,0.0397*%
%ADD33OC8,0.0966*%
%ADD34OC8,0.0397*%
%ADD35C,0.0390*%
D10*
X011112Y007501D03*
X011761Y007501D03*
X016962Y005951D03*
X017611Y005951D03*
X022312Y016001D03*
X022961Y016001D03*
X022961Y018001D03*
X022312Y018001D03*
X030862Y020801D03*
X031511Y020801D03*
X019449Y027258D03*
X018800Y027258D03*
X037712Y011551D03*
X038361Y011551D03*
X039312Y011051D03*
X039961Y011051D03*
D11*
X040537Y013701D03*
X038387Y004601D03*
X029387Y004601D03*
X008422Y004601D03*
X003637Y005601D03*
X003637Y013351D03*
X003637Y021101D03*
X016137Y030851D03*
D12*
X017137Y030851D03*
X018137Y030851D03*
X019137Y030851D03*
X020137Y030851D03*
X021137Y030851D03*
X022137Y030851D03*
X023137Y030851D03*
X024137Y030851D03*
X025137Y030851D03*
X026137Y030851D03*
X027137Y030851D03*
X028137Y030851D03*
X029137Y030851D03*
X037537Y013701D03*
X038537Y013701D03*
X039537Y013701D03*
X037387Y004601D03*
X036387Y004601D03*
X035387Y004601D03*
X034387Y004601D03*
X033387Y004601D03*
X032387Y004601D03*
X031387Y004601D03*
X028387Y004601D03*
X027387Y004601D03*
X026387Y004601D03*
X025387Y004601D03*
X024387Y004601D03*
X023387Y004601D03*
X022387Y004601D03*
X021387Y004601D03*
X020387Y004601D03*
X019387Y004601D03*
X018387Y004601D03*
X017387Y004601D03*
X016387Y004601D03*
X015387Y004601D03*
X014387Y004601D03*
X007422Y004601D03*
X006422Y004601D03*
X005422Y004601D03*
X003637Y006601D03*
X003637Y007601D03*
X003637Y008601D03*
X003637Y009601D03*
X003637Y010601D03*
X003637Y014351D03*
X003637Y015351D03*
X003637Y016351D03*
X003637Y017351D03*
X003637Y018351D03*
X003637Y022101D03*
X003637Y023101D03*
X003637Y024101D03*
X003637Y025101D03*
X003637Y026101D03*
D13*
X005422Y002601D03*
X014387Y002601D03*
X031387Y002601D03*
D14*
X032387Y002601D03*
X033387Y002601D03*
X034387Y002601D03*
X035387Y002601D03*
X036387Y002601D03*
X037387Y002601D03*
X038387Y002601D03*
X038387Y001601D03*
X037387Y001601D03*
X036387Y001601D03*
X035387Y001601D03*
X034387Y001601D03*
X033387Y001601D03*
X032387Y001601D03*
X031387Y001601D03*
X029387Y001601D03*
X028387Y001601D03*
X027387Y001601D03*
X026387Y001601D03*
X025387Y001601D03*
X024387Y001601D03*
X023387Y001601D03*
X022387Y001601D03*
X021387Y001601D03*
X021387Y002601D03*
X022387Y002601D03*
X023387Y002601D03*
X024387Y002601D03*
X025387Y002601D03*
X026387Y002601D03*
X027387Y002601D03*
X028387Y002601D03*
X029387Y002601D03*
X020387Y002601D03*
X019387Y002601D03*
X018387Y002601D03*
X017387Y002601D03*
X016387Y002601D03*
X015387Y002601D03*
X015387Y001601D03*
X016387Y001601D03*
X017387Y001601D03*
X018387Y001601D03*
X019387Y001601D03*
X020387Y001601D03*
X014387Y001601D03*
X008422Y001601D03*
X007422Y001601D03*
X006422Y001601D03*
X005422Y001601D03*
X006422Y002601D03*
X007422Y002601D03*
X008422Y002601D03*
D15*
X009637Y025101D03*
X008637Y030101D03*
X044243Y019388D03*
D16*
X010637Y025101D03*
X010637Y026101D03*
X009637Y026101D03*
X008637Y026101D03*
X008637Y027101D03*
X009637Y027101D03*
X010637Y027101D03*
X010637Y028101D03*
X009637Y028101D03*
X008637Y028101D03*
X008637Y029101D03*
X009637Y029101D03*
X010637Y029101D03*
X010637Y030101D03*
X009637Y030101D03*
X008637Y025101D03*
D17*
X014577Y021501D03*
X014577Y020701D03*
X015697Y020701D03*
X015697Y021501D03*
X015697Y016290D03*
X015697Y015451D03*
X014577Y015451D03*
X014577Y016290D03*
X014577Y011001D03*
X014577Y010201D03*
X015697Y010201D03*
X015697Y011001D03*
D18*
X026252Y021951D03*
X026921Y021951D03*
D19*
X024287Y022476D03*
X024287Y023125D03*
X023637Y017925D03*
X023637Y017276D03*
X023637Y016725D03*
X023637Y016076D03*
X021637Y016076D03*
X021637Y016725D03*
X021637Y017276D03*
X021637Y017925D03*
X033537Y013725D03*
X033537Y013076D03*
X036087Y010225D03*
X036087Y009576D03*
D20*
X044137Y013593D03*
X044137Y017609D03*
D21*
X041774Y016585D03*
X041774Y014617D03*
D22*
X039537Y014616D03*
X039537Y015285D03*
X037537Y015285D03*
X037537Y014616D03*
X035387Y010235D03*
X035387Y009566D03*
D23*
X037463Y009451D03*
X037463Y008951D03*
X037463Y009951D03*
X037463Y010451D03*
X040010Y010451D03*
X040010Y009951D03*
X040010Y009451D03*
X040010Y008951D03*
X021160Y008851D03*
X021160Y008351D03*
X021160Y009351D03*
X021160Y009851D03*
X021160Y010351D03*
X021160Y010851D03*
X021160Y011351D03*
X021160Y011851D03*
X019113Y011851D03*
X019113Y011351D03*
X019113Y010851D03*
X019113Y010351D03*
X019113Y009851D03*
X019113Y009351D03*
X019113Y008851D03*
X019113Y008351D03*
D24*
X036430Y015282D03*
D25*
X035643Y015282D03*
X035643Y014494D03*
X036430Y014494D03*
X036430Y013707D03*
X035643Y013707D03*
X035643Y012920D03*
X036430Y012920D03*
D26*
X040211Y005231D02*
X040211Y004711D01*
X041211Y004711D02*
X041211Y005231D01*
X042211Y005231D02*
X042211Y004711D01*
X043211Y004711D02*
X043211Y005231D01*
X043211Y002231D02*
X043211Y001711D01*
X042211Y001711D02*
X042211Y002231D01*
X041211Y002231D02*
X041211Y001711D01*
X040211Y001711D02*
X040211Y002231D01*
X015637Y008841D02*
X015637Y009361D01*
X014637Y009361D02*
X014637Y008841D01*
X013637Y008841D02*
X013637Y009361D01*
X012637Y009361D02*
X012637Y008841D01*
X011637Y008841D02*
X011637Y009361D01*
X010637Y009361D02*
X010637Y008841D01*
X009637Y008841D02*
X009637Y009361D01*
X008637Y009361D02*
X008637Y008841D01*
X007637Y008841D02*
X007637Y009361D01*
X006637Y009361D02*
X006637Y008841D01*
X006637Y011841D02*
X006637Y012361D01*
X007637Y012361D02*
X007637Y011841D01*
X008637Y011841D02*
X008637Y012361D01*
X009637Y012361D02*
X009637Y011841D01*
X010637Y011841D02*
X010637Y012361D01*
X011637Y012361D02*
X011637Y011841D01*
X012637Y011841D02*
X012637Y012361D01*
X013637Y012361D02*
X013637Y011841D01*
X014637Y011841D02*
X014637Y012361D01*
X015637Y012361D02*
X015637Y011841D01*
X015637Y014091D02*
X015637Y014611D01*
X014637Y014611D02*
X014637Y014091D01*
X013637Y014091D02*
X013637Y014611D01*
X012637Y014611D02*
X012637Y014091D01*
X011637Y014091D02*
X011637Y014611D01*
X010637Y014611D02*
X010637Y014091D01*
X009637Y014091D02*
X009637Y014611D01*
X008637Y014611D02*
X008637Y014091D01*
X007637Y014091D02*
X007637Y014611D01*
X006637Y014611D02*
X006637Y014091D01*
X006637Y017091D02*
X006637Y017611D01*
X007637Y017611D02*
X007637Y017091D01*
X008637Y017091D02*
X008637Y017611D01*
X009637Y017611D02*
X009637Y017091D01*
X010637Y017091D02*
X010637Y017611D01*
X011637Y017611D02*
X011637Y017091D01*
X012637Y017091D02*
X012637Y017611D01*
X013637Y017611D02*
X013637Y017091D01*
X014637Y017091D02*
X014637Y017611D01*
X015637Y017611D02*
X015637Y017091D01*
X015637Y019341D02*
X015637Y019861D01*
X014637Y019861D02*
X014637Y019341D01*
X013637Y019341D02*
X013637Y019861D01*
X012637Y019861D02*
X012637Y019341D01*
X011637Y019341D02*
X011637Y019861D01*
X010637Y019861D02*
X010637Y019341D01*
X009637Y019341D02*
X009637Y019861D01*
X008637Y019861D02*
X008637Y019341D01*
X007637Y019341D02*
X007637Y019861D01*
X006637Y019861D02*
X006637Y019341D01*
X006637Y022341D02*
X006637Y022861D01*
X007637Y022861D02*
X007637Y022341D01*
X008637Y022341D02*
X008637Y022861D01*
X009637Y022861D02*
X009637Y022341D01*
X010637Y022341D02*
X010637Y022861D01*
X011637Y022861D02*
X011637Y022341D01*
X012637Y022341D02*
X012637Y022861D01*
X013637Y022861D02*
X013637Y022341D01*
X014637Y022341D02*
X014637Y022861D01*
X015637Y022861D02*
X015637Y022341D01*
X012912Y004837D02*
X012912Y004317D01*
X011912Y004317D02*
X011912Y004837D01*
X010912Y004837D02*
X010912Y004317D01*
X009912Y004317D02*
X009912Y004837D01*
X009912Y001837D02*
X009912Y001317D01*
X010912Y001317D02*
X010912Y001837D01*
X011912Y001837D02*
X011912Y001317D01*
X012912Y001317D02*
X012912Y001837D01*
D27*
X012902Y002622D03*
X012902Y002937D03*
X012902Y003252D03*
X012902Y003567D03*
X012410Y003567D03*
X012410Y003252D03*
X012410Y002937D03*
X012410Y002622D03*
X039717Y003000D03*
X039717Y003315D03*
X039717Y003630D03*
X039717Y003945D03*
X040210Y003945D03*
X040210Y003630D03*
X040210Y003315D03*
X040210Y003000D03*
D28*
X033359Y003355D03*
X033044Y003355D03*
X032729Y003355D03*
X032414Y003355D03*
X032414Y003847D03*
X032729Y003847D03*
X033044Y003847D03*
X033359Y003847D03*
X028359Y003847D03*
X028044Y003847D03*
X027729Y003847D03*
X027414Y003847D03*
X027414Y003355D03*
X027729Y003355D03*
X028044Y003355D03*
X028359Y003355D03*
X024359Y003355D03*
X024044Y003355D03*
X023729Y003355D03*
X023414Y003355D03*
X023414Y003847D03*
X023729Y003847D03*
X024044Y003847D03*
X024359Y003847D03*
X020359Y003847D03*
X020044Y003847D03*
X019729Y003847D03*
X019414Y003847D03*
X019414Y003355D03*
X019729Y003355D03*
X020044Y003355D03*
X020359Y003355D03*
X007395Y003355D03*
X007080Y003355D03*
X006765Y003355D03*
X006450Y003355D03*
X006450Y003847D03*
X006765Y003847D03*
X007080Y003847D03*
X007395Y003847D03*
D29*
X044243Y020388D03*
X044243Y021388D03*
X044243Y022388D03*
X044243Y023388D03*
X044243Y024388D03*
X044243Y025388D03*
X044243Y026388D03*
D30*
X035703Y026934D03*
X033893Y026934D03*
X032083Y026934D03*
X032083Y029654D03*
X033893Y029654D03*
X035703Y029654D03*
D31*
X038593Y027331D03*
X040593Y026531D03*
X043377Y028016D03*
X039377Y028886D03*
D32*
X003641Y004010D03*
X004492Y004790D03*
X007922Y005151D03*
X004837Y008601D03*
X005837Y010601D03*
X004437Y011601D03*
X008137Y012801D03*
X006637Y015351D03*
X007937Y015901D03*
X007037Y018901D03*
X004437Y020101D03*
X003237Y023601D03*
X007337Y024801D03*
X010637Y021101D03*
X016637Y022501D03*
X017137Y022601D03*
X017537Y023901D03*
X019337Y023601D03*
X019237Y022901D03*
X019237Y022501D03*
X019637Y022501D03*
X019187Y021501D03*
X019637Y021201D03*
X019937Y020901D03*
X021337Y020751D03*
X021737Y020751D03*
X022487Y021151D03*
X022987Y020701D03*
X023387Y020701D03*
X024137Y019401D03*
X024637Y019401D03*
X025337Y020101D03*
X026237Y019301D03*
X027137Y019901D03*
X026837Y020201D03*
X026537Y020501D03*
X027437Y020251D03*
X027737Y019851D03*
X028187Y018651D03*
X028637Y018651D03*
X029037Y018101D03*
X029487Y018101D03*
X028937Y017401D03*
X028637Y017801D03*
X028137Y017201D03*
X028537Y016801D03*
X028137Y016501D03*
X028137Y015601D03*
X028137Y015001D03*
X028537Y015001D03*
X029137Y014801D03*
X028137Y014501D03*
X027737Y013901D03*
X027337Y014201D03*
X026637Y013501D03*
X027037Y013201D03*
X026337Y013901D03*
X025037Y013401D03*
X024837Y013001D03*
X024337Y012501D03*
X024037Y012051D03*
X023387Y011951D03*
X022937Y011951D03*
X022487Y011951D03*
X023687Y012651D03*
X023237Y012801D03*
X021537Y013301D03*
X020587Y013401D03*
X020987Y014601D03*
X021387Y014601D03*
X021737Y014951D03*
X021737Y015401D03*
X022537Y014701D03*
X023037Y014601D03*
X023737Y015001D03*
X024037Y014601D03*
X025037Y014901D03*
X024737Y015601D03*
X025037Y016401D03*
X024437Y016401D03*
X023737Y015601D03*
X023137Y016701D03*
X022137Y016701D03*
X022137Y017301D03*
X020837Y017301D03*
X020537Y018101D03*
X020237Y018501D03*
X021037Y019101D03*
X021437Y018801D03*
X022037Y019401D03*
X023037Y019201D03*
X023537Y019201D03*
X024137Y018201D03*
X024137Y017701D03*
X024737Y018001D03*
X025037Y018401D03*
X026437Y018101D03*
X029187Y019501D03*
X029637Y019351D03*
X029937Y019051D03*
X030337Y019501D03*
X030737Y019501D03*
X031787Y019501D03*
X032137Y019251D03*
X032487Y019501D03*
X033187Y018451D03*
X032937Y018101D03*
X033187Y017751D03*
X032737Y016801D03*
X033037Y016501D03*
X032437Y016501D03*
X031637Y017101D03*
X031137Y017451D03*
X031137Y016751D03*
X030087Y016751D03*
X030137Y017451D03*
X032687Y015401D03*
X032987Y015701D03*
X032987Y015101D03*
X032687Y014801D03*
X032987Y014501D03*
X031937Y014501D03*
X031337Y014701D03*
X031537Y013201D03*
X031937Y013201D03*
X031637Y012401D03*
X032437Y011401D03*
X032837Y011201D03*
X033237Y011101D03*
X033537Y010801D03*
X033837Y011101D03*
X034137Y010801D03*
X034437Y011101D03*
X034737Y010801D03*
X035137Y010601D03*
X034737Y010301D03*
X035137Y011051D03*
X036637Y011551D03*
X037237Y011551D03*
X036337Y012401D03*
X035687Y012401D03*
X034837Y012801D03*
X034237Y013601D03*
X037237Y013151D03*
X039587Y011551D03*
X040087Y011851D03*
X039287Y010351D03*
X038387Y010351D03*
X036787Y010151D03*
X036787Y008901D03*
X037187Y007751D03*
X039037Y008901D03*
X039487Y007751D03*
X039487Y005951D03*
X038287Y005301D03*
X037187Y005951D03*
X034987Y005951D03*
X034987Y007751D03*
X032687Y007751D03*
X032687Y005951D03*
X030137Y006351D03*
X029537Y006001D03*
X027887Y006401D03*
X026637Y006201D03*
X026437Y008601D03*
X026937Y008601D03*
X027487Y008601D03*
X027737Y009151D03*
X028137Y009201D03*
X028537Y009001D03*
X026837Y010601D03*
X027037Y011001D03*
X027537Y011001D03*
X028037Y011001D03*
X028537Y011001D03*
X029037Y011001D03*
X029637Y011001D03*
X028437Y012401D03*
X025437Y009801D03*
X025037Y009801D03*
X024637Y009801D03*
X024237Y009801D03*
X024987Y008601D03*
X025437Y008601D03*
X025937Y008601D03*
X022737Y007101D03*
X022237Y007101D03*
X021387Y007051D03*
X020837Y006951D03*
X021687Y006501D03*
X022937Y006501D03*
X021837Y008701D03*
X021837Y009301D03*
X021937Y010001D03*
X022237Y010501D03*
X023837Y011601D03*
X019437Y012251D03*
X019187Y012651D03*
X019137Y013501D03*
X017637Y013651D03*
X017637Y012901D03*
X017137Y012101D03*
X016637Y012001D03*
X017837Y010301D03*
X017837Y009401D03*
X017137Y009101D03*
X016637Y009201D03*
X018487Y007001D03*
X018937Y007001D03*
X019387Y007001D03*
X018137Y006701D03*
X017337Y006501D03*
X015237Y006551D03*
X015237Y006101D03*
X013837Y006251D03*
X013837Y006651D03*
X013837Y007051D03*
X014137Y007501D03*
X020887Y003601D03*
X030137Y003401D03*
X042487Y008401D03*
X042487Y012301D03*
X042487Y012751D03*
X042087Y013151D03*
X041637Y013151D03*
X041287Y014201D03*
X041337Y015201D03*
X040087Y015151D03*
X040937Y016601D03*
X040887Y017751D03*
X041437Y017751D03*
X041437Y018951D03*
X040887Y018951D03*
X040887Y019951D03*
X041437Y019951D03*
X041437Y021151D03*
X040887Y021151D03*
X039587Y019901D03*
X038737Y019901D03*
X039487Y018951D03*
X038687Y018151D03*
X038687Y016951D03*
X036237Y017601D03*
X035487Y017051D03*
X035137Y017601D03*
X034487Y018051D03*
X034487Y018551D03*
X034487Y019051D03*
X035137Y019501D03*
X035137Y020101D03*
X036237Y020101D03*
X036237Y019501D03*
X036237Y018551D03*
X037137Y020101D03*
X036787Y021651D03*
X035687Y021651D03*
X034537Y021651D03*
X032887Y020801D03*
X032437Y020801D03*
X031987Y020801D03*
X031587Y021301D03*
X030137Y021201D03*
X030137Y020751D03*
X029687Y021201D03*
X029237Y021401D03*
X029387Y022851D03*
X030837Y023451D03*
X030813Y024265D03*
X029940Y024809D03*
X028713Y025267D03*
X028629Y024265D03*
X026887Y022851D03*
X027187Y022551D03*
X026587Y022551D03*
X025687Y021951D03*
X025137Y023101D03*
X024737Y023951D03*
X024157Y024226D03*
X023049Y024194D03*
X022637Y023601D03*
X021037Y023601D03*
X020737Y024001D03*
X020137Y023601D03*
X021537Y022351D03*
X020987Y022251D03*
X018137Y020951D03*
X017937Y021401D03*
X017937Y019951D03*
X017137Y019601D03*
X016637Y019701D03*
X017937Y018901D03*
X018237Y018301D03*
X017637Y018301D03*
X018137Y017701D03*
X017137Y017401D03*
X016637Y017301D03*
X017837Y015701D03*
X017137Y014401D03*
X016637Y014501D03*
X020387Y014751D03*
X020537Y015701D03*
X021137Y016201D03*
X020237Y016501D03*
X024287Y021951D03*
X026387Y023501D03*
X025787Y023851D03*
X026387Y024257D03*
X024733Y025665D03*
X024787Y026701D03*
X026508Y027551D03*
X028673Y027551D03*
X029767Y030093D03*
X033004Y025307D03*
X032382Y024265D03*
X033062Y023900D03*
X034487Y023351D03*
X035137Y023351D03*
X036437Y024301D03*
X037237Y024301D03*
X038537Y022901D03*
X039787Y023201D03*
X039787Y023901D03*
X040487Y023701D03*
X041757Y024785D03*
X041975Y022270D03*
X038537Y021851D03*
X034440Y024818D03*
X031887Y022851D03*
X021787Y028301D03*
X021165Y028048D03*
X018251Y027345D03*
X016287Y028151D03*
X012337Y015901D03*
X042633Y016172D03*
X043271Y017644D03*
X044353Y001756D03*
D33*
X044286Y030624D03*
X042633Y030632D03*
X040589Y030636D03*
X039007Y030715D03*
D34*
X034893Y028250D03*
X032963Y028211D03*
X032963Y026124D03*
X030680Y026046D03*
X026231Y025809D03*
X025523Y027384D03*
X025011Y028447D03*
X026113Y028565D03*
X026113Y029077D03*
X022885Y026951D03*
X020641Y026400D03*
X020404Y027424D03*
X018121Y026282D03*
X015286Y028211D03*
X015050Y029550D03*
X013121Y029510D03*
X013278Y027935D03*
X013278Y025888D03*
X014735Y025967D03*
X018593Y029983D03*
X007491Y030022D03*
X006231Y027817D03*
X006310Y026282D03*
X006113Y025573D03*
X007491Y025573D03*
X003554Y028565D03*
X005444Y021321D03*
X005247Y017148D03*
X005247Y014392D03*
X005286Y012424D03*
X030601Y031361D03*
X034302Y031361D03*
X041704Y027345D03*
X043082Y026361D03*
X042404Y023904D03*
X043082Y020888D03*
X044538Y028723D03*
D35*
X011137Y023101D03*
M02*
