G75*
G70*
%OFA0B0*%
%FSLAX24Y24*%
%IPPOS*%
%LPD*%
%AMOC8*
5,1,8,0,0,1.08239X$1,22.5*
%
%ADD10R,0.0789X0.0277*%
%ADD11R,0.0277X0.0789*%
%ADD12R,0.0198X0.0671*%
%ADD13R,0.0789X0.0552*%
%ADD14R,0.0510X0.0470*%
%ADD15R,0.0640X0.0360*%
%ADD16R,0.0600X0.0600*%
%ADD17OC8,0.0600*%
%ADD18R,0.0395X0.0395*%
%ADD19R,0.0640X0.0640*%
%ADD20OC8,0.0640*%
%ADD21R,0.0680X0.0680*%
%ADD22OC8,0.0680*%
%ADD23R,0.0470X0.0200*%
%ADD24R,0.0316X0.0474*%
%ADD25R,0.0474X0.0316*%
%ADD26R,0.0470X0.0510*%
%ADD27R,0.0710X0.0186*%
%ADD28R,0.0186X0.0710*%
%ADD29OC8,0.0848*%
%ADD30OC8,0.0634*%
%ADD31R,0.0330X0.0930*%
%ADD32R,0.0200X0.0470*%
%ADD33R,0.0595X0.0595*%
%ADD34OC8,0.0595*%
%ADD35R,0.1064X0.0848*%
%ADD36R,0.0316X0.0946*%
%ADD37R,0.0631X0.0474*%
%ADD38R,0.0867X0.0277*%
%ADD39R,0.0946X0.1064*%
%ADD40R,0.1458X0.0710*%
%ADD41R,0.1180X0.0630*%
%ADD42C,0.0600*%
%ADD43R,0.2080X0.0780*%
%ADD44R,0.1025X0.1025*%
%ADD45R,0.0297X0.0552*%
%ADD46R,0.0710X0.0789*%
%ADD47R,0.0430X0.0245*%
%ADD48R,0.0907X0.1182*%
%ADD49R,0.0671X0.1379*%
%ADD50R,0.0671X0.0474*%
%ADD51R,0.0789X0.0710*%
%ADD52R,0.0710X0.1458*%
%ADD53R,0.0552X0.0297*%
%ADD54R,0.1130X0.1080*%
%ADD55R,0.0380X0.0580*%
%ADD56R,0.0400X0.0400*%
%ADD57R,0.2560X0.0926*%
%ADD58R,0.0848X0.1064*%
%ADD59R,0.0946X0.0316*%
%ADD60R,0.1020X0.1370*%
%ADD61R,0.1222X0.2206*%
%ADD62R,0.0710X0.0790*%
%ADD63C,0.0680*%
%ADD64R,0.0580X0.0580*%
%ADD65OC8,0.1261*%
%ADD66OC8,0.0730*%
%ADD67OC8,0.0397*%
%ADD68OC8,0.1380*%
%ADD69OC8,0.0397*%
D10*
X027527Y014639D03*
X027527Y014954D03*
X027527Y015269D03*
X027527Y015583D03*
X027527Y015898D03*
X027527Y016213D03*
X027527Y016528D03*
X027527Y016843D03*
X027527Y017158D03*
X027527Y017473D03*
X027527Y017788D03*
X027527Y018103D03*
X027527Y018418D03*
X027527Y018733D03*
X027527Y019048D03*
X027527Y019363D03*
X033827Y019363D03*
X033827Y019048D03*
X033827Y018733D03*
X033827Y018418D03*
X033827Y018103D03*
X033827Y017788D03*
X033827Y017473D03*
X033827Y017158D03*
X033827Y016843D03*
X033827Y016528D03*
X033827Y016213D03*
X033827Y015898D03*
X033827Y015583D03*
X033827Y015269D03*
X033827Y014954D03*
X033827Y014639D03*
D11*
X033039Y013851D03*
X032724Y013851D03*
X032409Y013851D03*
X032094Y013851D03*
X031779Y013851D03*
X031464Y013851D03*
X031149Y013851D03*
X030834Y013851D03*
X030520Y013851D03*
X030205Y013851D03*
X029890Y013851D03*
X029575Y013851D03*
X029260Y013851D03*
X028945Y013851D03*
X028630Y013851D03*
X028315Y013851D03*
X028315Y020150D03*
X028630Y020150D03*
X028945Y020150D03*
X029260Y020150D03*
X029575Y020150D03*
X029890Y020150D03*
X030205Y020150D03*
X030520Y020150D03*
X030834Y020150D03*
X031149Y020150D03*
X031464Y020150D03*
X031779Y020150D03*
X032094Y020150D03*
X032409Y020150D03*
X032724Y020150D03*
X033039Y020150D03*
D12*
X037164Y012478D03*
X037420Y012478D03*
X037675Y012478D03*
X037931Y012478D03*
X038187Y012478D03*
X038443Y012478D03*
X038699Y012478D03*
X038955Y012478D03*
X039211Y012478D03*
X039467Y012478D03*
X039723Y012478D03*
X039979Y012478D03*
X040234Y012478D03*
X040490Y012478D03*
X040490Y009624D03*
X040234Y009624D03*
X039979Y009624D03*
X039723Y009624D03*
X039467Y009624D03*
X039211Y009624D03*
X038955Y009624D03*
X038699Y009624D03*
X038443Y009624D03*
X038187Y009624D03*
X037931Y009624D03*
X037675Y009624D03*
X037420Y009624D03*
X037164Y009624D03*
D13*
X034277Y012851D03*
X034277Y014150D03*
X041777Y012050D03*
X041777Y010751D03*
D14*
X004061Y001938D03*
X004061Y002587D03*
X017377Y009576D03*
X017377Y010225D03*
X017377Y010976D03*
X017377Y011625D03*
X021177Y009525D03*
X021177Y008876D03*
X017377Y014876D03*
X017377Y015525D03*
X017377Y016276D03*
X017377Y016925D03*
X017377Y020076D03*
X017377Y020725D03*
X017377Y021476D03*
X017377Y022125D03*
X008077Y023576D03*
X008077Y024225D03*
X016627Y029126D03*
X016627Y029775D03*
X022227Y029975D03*
X022227Y029326D03*
X024777Y029326D03*
X024777Y029975D03*
X040377Y024825D03*
X040377Y024176D03*
X035777Y011875D03*
X035777Y011226D03*
X035777Y010325D03*
X035777Y009676D03*
X040577Y008175D03*
X040577Y007526D03*
X030427Y002425D03*
X030427Y001776D03*
D15*
X023733Y021643D03*
X021765Y021643D03*
X021765Y023790D03*
X023733Y023790D03*
D16*
X016177Y030851D03*
X003677Y021101D03*
X003677Y013351D03*
X003677Y005601D03*
X007962Y004601D03*
X029427Y004601D03*
X038427Y004601D03*
X040577Y013701D03*
D17*
X039577Y013701D03*
X038577Y013701D03*
X037577Y013701D03*
X037427Y004601D03*
X036427Y004601D03*
X035427Y004601D03*
X034427Y004601D03*
X033427Y004601D03*
X032427Y004601D03*
X031427Y004601D03*
X028427Y004601D03*
X027427Y004601D03*
X026427Y004601D03*
X025427Y004601D03*
X024427Y004601D03*
X023427Y004601D03*
X022427Y004601D03*
X021427Y004601D03*
X020427Y004601D03*
X019427Y004601D03*
X018427Y004601D03*
X017427Y004601D03*
X016427Y004601D03*
X015427Y004601D03*
X014427Y004601D03*
X006962Y004601D03*
X005962Y004601D03*
X004962Y004601D03*
X003677Y006601D03*
X003677Y007601D03*
X003677Y008601D03*
X003677Y009601D03*
X003677Y010601D03*
X003677Y014351D03*
X003677Y015351D03*
X003677Y016351D03*
X003677Y017351D03*
X003677Y018351D03*
X003677Y022101D03*
X003677Y023101D03*
X003677Y024101D03*
X003677Y025101D03*
X003677Y026101D03*
X017177Y030851D03*
X018177Y030851D03*
X019177Y030851D03*
X020177Y030851D03*
X021177Y030851D03*
X022177Y030851D03*
X023177Y030851D03*
X024177Y030851D03*
X025177Y030851D03*
X026177Y030851D03*
X027177Y030851D03*
X028177Y030851D03*
X029177Y030851D03*
D18*
X004677Y026396D03*
X004677Y025806D03*
X004677Y025296D03*
X004677Y024706D03*
X004677Y022496D03*
X004677Y021906D03*
X004677Y021396D03*
X004677Y020806D03*
X004677Y018646D03*
X004677Y018056D03*
X004677Y017546D03*
X004677Y016956D03*
X004677Y014746D03*
X004677Y014156D03*
X004677Y013646D03*
X004677Y013056D03*
X004677Y010896D03*
X004677Y010306D03*
X004677Y009796D03*
X004677Y009206D03*
X004543Y007496D03*
X004543Y006906D03*
X004543Y006396D03*
X004543Y005806D03*
X043921Y001142D03*
X044512Y001142D03*
X044415Y002426D03*
X044415Y003016D03*
D19*
X031427Y002601D03*
X014427Y002601D03*
X004962Y002601D03*
D20*
X005962Y002601D03*
X006962Y002601D03*
X007962Y002601D03*
X007962Y001601D03*
X006962Y001601D03*
X005962Y001601D03*
X004962Y001601D03*
X014427Y001601D03*
X015427Y001601D03*
X016427Y001601D03*
X017427Y001601D03*
X018427Y001601D03*
X019427Y001601D03*
X019427Y002601D03*
X018427Y002601D03*
X017427Y002601D03*
X016427Y002601D03*
X015427Y002601D03*
X020427Y002601D03*
X021427Y002601D03*
X022427Y002601D03*
X023427Y002601D03*
X024427Y002601D03*
X025427Y002601D03*
X026427Y002601D03*
X027427Y002601D03*
X028427Y002601D03*
X029427Y002601D03*
X029427Y001601D03*
X028427Y001601D03*
X027427Y001601D03*
X026427Y001601D03*
X025427Y001601D03*
X024427Y001601D03*
X023427Y001601D03*
X022427Y001601D03*
X021427Y001601D03*
X020427Y001601D03*
X031427Y001601D03*
X032427Y001601D03*
X033427Y001601D03*
X034427Y001601D03*
X035427Y001601D03*
X036427Y001601D03*
X037427Y001601D03*
X038427Y001601D03*
X038427Y002601D03*
X037427Y002601D03*
X036427Y002601D03*
X035427Y002601D03*
X034427Y002601D03*
X033427Y002601D03*
X032427Y002601D03*
D21*
X044283Y019388D03*
X009677Y025101D03*
X008677Y030101D03*
D22*
X009677Y030101D03*
X010677Y030101D03*
X010677Y029101D03*
X009677Y029101D03*
X008677Y029101D03*
X008677Y028101D03*
X009677Y028101D03*
X010677Y028101D03*
X010677Y027101D03*
X009677Y027101D03*
X008677Y027101D03*
X008677Y026101D03*
X009677Y026101D03*
X010677Y026101D03*
X010677Y025101D03*
X008677Y025101D03*
D23*
X013428Y007346D03*
X013428Y007091D03*
X013428Y006835D03*
X013428Y006579D03*
X013428Y006323D03*
X013428Y006067D03*
X013428Y005811D03*
X013428Y005555D03*
X015726Y005555D03*
X015726Y005811D03*
X015726Y006067D03*
X015726Y006323D03*
X015726Y006579D03*
X015726Y006835D03*
X015726Y007091D03*
X015726Y007346D03*
D24*
X016342Y012601D03*
X017012Y012601D03*
X017012Y017901D03*
X016342Y017901D03*
X016342Y023101D03*
X017012Y023101D03*
X017342Y029951D03*
X018012Y029951D03*
X019242Y029951D03*
X019912Y029951D03*
X004012Y027601D03*
X003342Y027601D03*
X003342Y020101D03*
X004012Y020101D03*
X004012Y019351D03*
X003342Y019351D03*
X006842Y018301D03*
X007512Y018301D03*
X007512Y013101D03*
X006842Y013101D03*
X004012Y012351D03*
X003342Y012351D03*
X003342Y011601D03*
X004012Y011601D03*
X004012Y004601D03*
X003342Y004601D03*
X039142Y022001D03*
X039812Y022001D03*
D25*
X037577Y015285D03*
X037577Y014616D03*
X025677Y013635D03*
X025677Y012966D03*
X016677Y011535D03*
X016677Y010866D03*
X016677Y010335D03*
X016677Y009666D03*
X016677Y014966D03*
X016677Y015635D03*
X016677Y016166D03*
X016677Y016835D03*
X016677Y020166D03*
X016677Y020835D03*
X016677Y021366D03*
X016677Y022035D03*
X017947Y022766D03*
X018596Y022766D03*
X018596Y023435D03*
X017947Y023435D03*
X018577Y020635D03*
X019277Y020635D03*
X019277Y019966D03*
X018577Y019966D03*
X006677Y023616D03*
X006677Y024285D03*
X015927Y029216D03*
X015927Y029885D03*
X044448Y005510D03*
X044448Y004841D03*
X044441Y004294D03*
X044441Y003624D03*
D26*
X031401Y006201D03*
X030753Y006201D03*
X022301Y003601D03*
X021653Y003601D03*
X020551Y008651D03*
X019903Y008651D03*
X014001Y013101D03*
X013353Y013101D03*
X010401Y013101D03*
X009753Y013101D03*
X009753Y018301D03*
X010401Y018301D03*
X013353Y018301D03*
X014001Y018301D03*
X014353Y023601D03*
X015001Y023601D03*
X010401Y023601D03*
X009753Y023601D03*
X020553Y028601D03*
X021201Y028601D03*
X023703Y027501D03*
X024351Y027501D03*
X028953Y023451D03*
X029601Y023451D03*
X031853Y023451D03*
X032501Y023451D03*
X035853Y023501D03*
X036501Y023501D03*
X039153Y022701D03*
X039801Y022701D03*
X040103Y014651D03*
X040751Y014651D03*
X033101Y013101D03*
X032453Y013101D03*
X030601Y012901D03*
X029953Y012901D03*
D27*
X025669Y014639D03*
X025669Y014835D03*
X025669Y015032D03*
X025669Y015229D03*
X025669Y015426D03*
X025669Y015623D03*
X025669Y015820D03*
X025669Y016017D03*
X025669Y016213D03*
X025669Y016410D03*
X025669Y016607D03*
X025669Y016804D03*
X025669Y017001D03*
X025669Y017198D03*
X025669Y017394D03*
X025669Y017591D03*
X025669Y017788D03*
X025669Y017985D03*
X025669Y018182D03*
X025669Y018379D03*
X025669Y018576D03*
X025669Y018772D03*
X025669Y018969D03*
X025669Y019166D03*
X025669Y019363D03*
X019685Y019363D03*
X019685Y019166D03*
X019685Y018969D03*
X019685Y018772D03*
X019685Y018576D03*
X019685Y018379D03*
X019685Y018182D03*
X019685Y017985D03*
X019685Y017788D03*
X019685Y017591D03*
X019685Y017394D03*
X019685Y017198D03*
X019685Y017001D03*
X019685Y016804D03*
X019685Y016607D03*
X019685Y016410D03*
X019685Y016213D03*
X019685Y016017D03*
X019685Y015820D03*
X019685Y015623D03*
X019685Y015426D03*
X019685Y015229D03*
X019685Y015032D03*
X019685Y014835D03*
X019685Y014639D03*
D28*
X020315Y014009D03*
X020512Y014009D03*
X020709Y014009D03*
X020905Y014009D03*
X021102Y014009D03*
X021299Y014009D03*
X021496Y014009D03*
X021693Y014009D03*
X021890Y014009D03*
X022086Y014009D03*
X022283Y014009D03*
X022480Y014009D03*
X022677Y014009D03*
X022874Y014009D03*
X023071Y014009D03*
X023268Y014009D03*
X023464Y014009D03*
X023661Y014009D03*
X023858Y014009D03*
X024055Y014009D03*
X024252Y014009D03*
X024449Y014009D03*
X024646Y014009D03*
X024842Y014009D03*
X025039Y014009D03*
X025039Y019993D03*
X024842Y019993D03*
X024646Y019993D03*
X024449Y019993D03*
X024252Y019993D03*
X024055Y019993D03*
X023858Y019993D03*
X023661Y019993D03*
X023464Y019993D03*
X023268Y019993D03*
X023071Y019993D03*
X022874Y019993D03*
X022677Y019993D03*
X022480Y019993D03*
X022283Y019993D03*
X022086Y019993D03*
X021890Y019993D03*
X021693Y019993D03*
X021496Y019993D03*
X021299Y019993D03*
X021102Y019993D03*
X020905Y019993D03*
X020709Y019993D03*
X020512Y019993D03*
X020315Y019993D03*
D29*
X044177Y017609D03*
X044177Y013593D03*
D30*
X041815Y014617D03*
X041815Y016585D03*
D31*
X031527Y011731D03*
X031027Y011731D03*
X030527Y011731D03*
X030027Y011731D03*
X029527Y011731D03*
X029027Y011731D03*
X028527Y011731D03*
X028027Y011731D03*
X027527Y011731D03*
X027027Y011731D03*
X026527Y011731D03*
X026027Y011731D03*
X025527Y011731D03*
X025027Y011731D03*
X025027Y007471D03*
X025527Y007471D03*
X026027Y007471D03*
X026527Y007471D03*
X027027Y007471D03*
X027527Y007471D03*
X028027Y007471D03*
X028527Y007471D03*
X029027Y007471D03*
X029527Y007471D03*
X030027Y007471D03*
X030527Y007471D03*
X031027Y007471D03*
X031527Y007471D03*
D32*
X032470Y009752D03*
X032725Y009752D03*
X032981Y009752D03*
X033237Y009752D03*
X033493Y009752D03*
X033749Y009752D03*
X034005Y009752D03*
X034261Y009752D03*
X034517Y009752D03*
X034773Y009752D03*
X035029Y009752D03*
X035284Y009752D03*
X035284Y012050D03*
X035029Y012050D03*
X034773Y012050D03*
X034517Y012050D03*
X034261Y012050D03*
X034005Y012050D03*
X033749Y012050D03*
X033493Y012050D03*
X033237Y012050D03*
X032981Y012050D03*
X032725Y012050D03*
X032470Y012050D03*
D33*
X036471Y015282D03*
D34*
X035683Y015282D03*
X035683Y014494D03*
X036471Y014494D03*
X036471Y013707D03*
X035683Y013707D03*
X035683Y012920D03*
X036471Y012920D03*
D35*
X041177Y021850D03*
X041177Y023051D03*
D36*
X024277Y007824D03*
X023777Y007824D03*
X023277Y007824D03*
X022777Y007824D03*
X022277Y007824D03*
X021777Y007824D03*
X021277Y007824D03*
X020777Y007824D03*
X020027Y007824D03*
X019527Y007824D03*
X019027Y007824D03*
X018527Y007824D03*
X018027Y007824D03*
X017527Y007824D03*
X017027Y007824D03*
X016527Y007824D03*
X016527Y005777D03*
X017027Y005777D03*
X017527Y005777D03*
X018027Y005777D03*
X018527Y005777D03*
X019027Y005777D03*
X019527Y005777D03*
X020027Y005777D03*
X020777Y005777D03*
X021277Y005777D03*
X021777Y005777D03*
X022277Y005777D03*
X022777Y005777D03*
X023277Y005777D03*
X023777Y005777D03*
X024277Y005777D03*
D37*
X038544Y014677D03*
X039410Y015051D03*
X038544Y015425D03*
D38*
X041871Y008731D03*
X041871Y008416D03*
X041871Y008101D03*
X041871Y007786D03*
X041871Y007471D03*
D39*
X041990Y006447D03*
X044076Y006447D03*
X044076Y009754D03*
X041990Y009754D03*
D40*
X014390Y030601D03*
X012264Y030601D03*
D41*
X032696Y008287D03*
X032696Y006515D03*
X035058Y006515D03*
X035058Y008287D03*
X037196Y008287D03*
X037196Y006515D03*
X039558Y006515D03*
X039558Y008287D03*
D42*
X040252Y005231D02*
X040252Y004711D01*
X041252Y004711D02*
X041252Y005231D01*
X042252Y005231D02*
X042252Y004711D01*
X043252Y004711D02*
X043252Y005231D01*
X043252Y002231D02*
X043252Y001711D01*
X042252Y001711D02*
X042252Y002231D01*
X041252Y002231D02*
X041252Y001711D01*
X040252Y001711D02*
X040252Y002231D01*
X015677Y008841D02*
X015677Y009361D01*
X014677Y009361D02*
X014677Y008841D01*
X013677Y008841D02*
X013677Y009361D01*
X012677Y009361D02*
X012677Y008841D01*
X011677Y008841D02*
X011677Y009361D01*
X010677Y009361D02*
X010677Y008841D01*
X009677Y008841D02*
X009677Y009361D01*
X008677Y009361D02*
X008677Y008841D01*
X007677Y008841D02*
X007677Y009361D01*
X006677Y009361D02*
X006677Y008841D01*
X006677Y011841D02*
X006677Y012361D01*
X007677Y012361D02*
X007677Y011841D01*
X008677Y011841D02*
X008677Y012361D01*
X009677Y012361D02*
X009677Y011841D01*
X010677Y011841D02*
X010677Y012361D01*
X011677Y012361D02*
X011677Y011841D01*
X012677Y011841D02*
X012677Y012361D01*
X013677Y012361D02*
X013677Y011841D01*
X014677Y011841D02*
X014677Y012361D01*
X015677Y012361D02*
X015677Y011841D01*
X015677Y014091D02*
X015677Y014611D01*
X014677Y014611D02*
X014677Y014091D01*
X013677Y014091D02*
X013677Y014611D01*
X012677Y014611D02*
X012677Y014091D01*
X011677Y014091D02*
X011677Y014611D01*
X010677Y014611D02*
X010677Y014091D01*
X009677Y014091D02*
X009677Y014611D01*
X008677Y014611D02*
X008677Y014091D01*
X007677Y014091D02*
X007677Y014611D01*
X006677Y014611D02*
X006677Y014091D01*
X006677Y017091D02*
X006677Y017611D01*
X007677Y017611D02*
X007677Y017091D01*
X008677Y017091D02*
X008677Y017611D01*
X009677Y017611D02*
X009677Y017091D01*
X010677Y017091D02*
X010677Y017611D01*
X011677Y017611D02*
X011677Y017091D01*
X012677Y017091D02*
X012677Y017611D01*
X013677Y017611D02*
X013677Y017091D01*
X014677Y017091D02*
X014677Y017611D01*
X015677Y017611D02*
X015677Y017091D01*
X015677Y019341D02*
X015677Y019861D01*
X014677Y019861D02*
X014677Y019341D01*
X013677Y019341D02*
X013677Y019861D01*
X012677Y019861D02*
X012677Y019341D01*
X011677Y019341D02*
X011677Y019861D01*
X010677Y019861D02*
X010677Y019341D01*
X009677Y019341D02*
X009677Y019861D01*
X008677Y019861D02*
X008677Y019341D01*
X007677Y019341D02*
X007677Y019861D01*
X006677Y019861D02*
X006677Y019341D01*
X006677Y022341D02*
X006677Y022861D01*
X007677Y022861D02*
X007677Y022341D01*
X008677Y022341D02*
X008677Y022861D01*
X009677Y022861D02*
X009677Y022341D01*
X010677Y022341D02*
X010677Y022861D01*
X011677Y022861D02*
X011677Y022341D01*
X012677Y022341D02*
X012677Y022861D01*
X013677Y022861D02*
X013677Y022341D01*
X014677Y022341D02*
X014677Y022861D01*
X015677Y022861D02*
X015677Y022341D01*
X012703Y004837D02*
X012703Y004317D01*
X011703Y004317D02*
X011703Y004837D01*
X010703Y004837D02*
X010703Y004317D01*
X009703Y004317D02*
X009703Y004837D01*
X009703Y001837D02*
X009703Y001317D01*
X010703Y001317D02*
X010703Y001837D01*
X011703Y001837D02*
X011703Y001317D01*
X012703Y001317D02*
X012703Y001837D01*
D43*
X028777Y022101D03*
X032577Y022101D03*
D44*
X019043Y026301D03*
X017311Y026301D03*
D45*
X023653Y026713D03*
X024027Y026713D03*
X024401Y026713D03*
X024401Y025689D03*
X023653Y025689D03*
D46*
X022678Y025901D03*
X021576Y025901D03*
X022426Y028401D03*
X023528Y028401D03*
D47*
X037670Y024085D03*
X037670Y023829D03*
X037670Y023573D03*
X037670Y023317D03*
X039384Y023317D03*
X039384Y023573D03*
X039384Y023829D03*
X039384Y024085D03*
D48*
X038527Y023701D03*
D49*
X035167Y018551D03*
D50*
X037354Y018846D03*
X037354Y019437D03*
X037354Y018256D03*
X037354Y017665D03*
D51*
X038227Y017600D03*
X038227Y018702D03*
D52*
X027133Y026512D03*
X027133Y028638D03*
D53*
X023989Y029277D03*
X023989Y029651D03*
X023989Y030025D03*
X022965Y030025D03*
X022965Y029277D03*
D54*
X037627Y022401D03*
D55*
X038557Y022391D03*
D56*
X035860Y024251D03*
X034994Y024251D03*
X012010Y023651D03*
X011144Y023651D03*
X007377Y023518D03*
X007377Y024384D03*
D57*
X035727Y022478D03*
X035727Y020824D03*
D58*
X037527Y021051D03*
X038727Y021051D03*
D59*
X019601Y027851D03*
X019601Y028351D03*
X019601Y028851D03*
X019601Y029351D03*
X017553Y029351D03*
X017553Y028851D03*
X017553Y028351D03*
X017553Y027851D03*
D60*
X018577Y028601D03*
D61*
X015996Y026501D03*
X012059Y026501D03*
D62*
X040258Y000779D03*
X041377Y000779D03*
D63*
X044283Y020388D03*
X044283Y021388D03*
X044283Y022388D03*
X044283Y023388D03*
X044283Y024388D03*
X044283Y025388D03*
X044283Y026388D03*
D64*
X027126Y029680D03*
X026126Y029680D03*
D65*
X032123Y029654D03*
X033933Y029654D03*
X035743Y029654D03*
X035743Y026934D03*
X033933Y026934D03*
X032123Y026934D03*
D66*
X038634Y027331D03*
X040634Y026531D03*
X043417Y028016D03*
X039417Y028886D03*
D67*
X041797Y024785D03*
X040527Y023701D03*
X039827Y023901D03*
X039827Y023201D03*
X038577Y022901D03*
X038577Y021851D03*
X036827Y021651D03*
X035727Y021651D03*
X034577Y021651D03*
X032927Y020801D03*
X032477Y020801D03*
X032027Y020801D03*
X031627Y021301D03*
X030177Y021201D03*
X029727Y021201D03*
X029277Y021401D03*
X030177Y020751D03*
X030377Y019501D03*
X030777Y019501D03*
X029977Y019051D03*
X029677Y019351D03*
X029227Y019501D03*
X028677Y018651D03*
X028227Y018651D03*
X029077Y018101D03*
X029527Y018101D03*
X028977Y017401D03*
X028677Y017801D03*
X028177Y017201D03*
X028577Y016801D03*
X028177Y016501D03*
X028177Y015601D03*
X028177Y015001D03*
X028577Y015001D03*
X029177Y014801D03*
X028177Y014501D03*
X027777Y013901D03*
X027377Y014201D03*
X026677Y013501D03*
X026377Y013901D03*
X027077Y013201D03*
X028477Y012401D03*
X028577Y011001D03*
X028077Y011001D03*
X027577Y011001D03*
X027077Y011001D03*
X026877Y010601D03*
X025477Y009801D03*
X025077Y009801D03*
X024677Y009801D03*
X024277Y009801D03*
X025027Y008601D03*
X025477Y008601D03*
X025977Y008601D03*
X026477Y008601D03*
X026977Y008601D03*
X027527Y008601D03*
X027777Y009151D03*
X028177Y009201D03*
X028577Y009001D03*
X029077Y011001D03*
X029677Y011001D03*
X031677Y012401D03*
X031577Y013201D03*
X031977Y013201D03*
X031977Y014501D03*
X031377Y014701D03*
X032727Y014801D03*
X033027Y015101D03*
X032727Y015401D03*
X033027Y015701D03*
X033077Y016501D03*
X032777Y016801D03*
X032477Y016501D03*
X031677Y017101D03*
X031177Y017451D03*
X031177Y016751D03*
X030127Y016751D03*
X030177Y017451D03*
X031827Y019501D03*
X032177Y019251D03*
X032527Y019501D03*
X033227Y018451D03*
X032977Y018101D03*
X033227Y017751D03*
X034527Y018051D03*
X034527Y018551D03*
X034527Y019051D03*
X035177Y019501D03*
X035177Y020101D03*
X036277Y020101D03*
X036277Y019501D03*
X036277Y018551D03*
X036277Y017601D03*
X035527Y017051D03*
X035177Y017601D03*
X037177Y020101D03*
X038777Y019901D03*
X039627Y019901D03*
X039527Y018951D03*
X038727Y018151D03*
X038727Y016951D03*
X040977Y016601D03*
X040927Y017751D03*
X041477Y017751D03*
X041477Y018951D03*
X040927Y018951D03*
X040927Y019951D03*
X041477Y019951D03*
X041477Y021151D03*
X040927Y021151D03*
X042016Y022270D03*
X037277Y024301D03*
X036477Y024301D03*
X035177Y023351D03*
X034527Y023351D03*
X033102Y023900D03*
X032422Y024265D03*
X033044Y025307D03*
X034480Y024818D03*
X031927Y022851D03*
X030877Y023451D03*
X030853Y024265D03*
X029980Y024809D03*
X028753Y025267D03*
X028669Y024265D03*
X029427Y022851D03*
X027227Y022551D03*
X026927Y022851D03*
X026627Y022551D03*
X025727Y021951D03*
X025177Y023101D03*
X024777Y023951D03*
X024197Y024226D03*
X023089Y024194D03*
X022677Y023601D03*
X021077Y023601D03*
X020777Y024001D03*
X020177Y023601D03*
X019377Y023601D03*
X019277Y022901D03*
X019277Y022501D03*
X019677Y022501D03*
X019227Y021501D03*
X019677Y021201D03*
X019977Y020901D03*
X021377Y020751D03*
X021777Y020751D03*
X022527Y021151D03*
X023027Y020701D03*
X023427Y020701D03*
X024177Y019401D03*
X024677Y019401D03*
X025377Y020101D03*
X026277Y019301D03*
X027177Y019901D03*
X026877Y020201D03*
X026577Y020501D03*
X027477Y020251D03*
X027777Y019851D03*
X026477Y018101D03*
X025077Y018401D03*
X024777Y018001D03*
X024177Y018201D03*
X024177Y017701D03*
X023177Y016701D03*
X022177Y016701D03*
X022177Y017301D03*
X020877Y017301D03*
X020577Y018101D03*
X020277Y018501D03*
X021077Y019101D03*
X021477Y018801D03*
X022077Y019401D03*
X023077Y019201D03*
X023577Y019201D03*
X024327Y021951D03*
X026427Y023501D03*
X025827Y023851D03*
X026427Y024257D03*
X024773Y025665D03*
X024827Y026701D03*
X026548Y027551D03*
X028714Y027551D03*
X029807Y030093D03*
X021827Y028301D03*
X021206Y028048D03*
X018291Y027345D03*
X016327Y028151D03*
X017577Y023901D03*
X017177Y022601D03*
X016677Y022501D03*
X017977Y021401D03*
X018177Y020951D03*
X017977Y019951D03*
X017177Y019601D03*
X016677Y019701D03*
X017977Y018901D03*
X017677Y018301D03*
X018277Y018301D03*
X018177Y017701D03*
X017177Y017401D03*
X016677Y017301D03*
X017877Y015701D03*
X017177Y014401D03*
X016677Y014501D03*
X017677Y013651D03*
X017677Y012901D03*
X017177Y012101D03*
X016677Y012001D03*
X017877Y010301D03*
X017877Y009401D03*
X017177Y009101D03*
X016677Y009201D03*
X018527Y007001D03*
X018977Y007001D03*
X019427Y007001D03*
X018177Y006701D03*
X017377Y006501D03*
X015277Y006551D03*
X015277Y006101D03*
X013877Y006251D03*
X013877Y006651D03*
X013877Y007051D03*
X014177Y007501D03*
X007962Y005151D03*
X004782Y005090D03*
X003682Y004010D03*
X004877Y008601D03*
X005877Y010601D03*
X004477Y011601D03*
X008177Y012801D03*
X006677Y015351D03*
X007977Y015901D03*
X007077Y018901D03*
X004477Y020101D03*
X003277Y023601D03*
X007377Y024801D03*
X010677Y021101D03*
X012377Y015901D03*
X019177Y013501D03*
X019227Y012651D03*
X019477Y012251D03*
X020627Y013401D03*
X021577Y013301D03*
X021427Y014601D03*
X021027Y014601D03*
X020427Y014751D03*
X020577Y015701D03*
X021177Y016201D03*
X020277Y016501D03*
X021777Y015401D03*
X021777Y014951D03*
X022577Y014701D03*
X023077Y014601D03*
X023777Y015001D03*
X024077Y014601D03*
X025077Y014901D03*
X024777Y015601D03*
X024477Y016401D03*
X025077Y016401D03*
X023777Y015601D03*
X025077Y013401D03*
X024877Y013001D03*
X024377Y012501D03*
X024077Y012051D03*
X023427Y011951D03*
X022977Y011951D03*
X022527Y011951D03*
X023727Y012651D03*
X023277Y012801D03*
X023877Y011601D03*
X022277Y010501D03*
X021977Y010001D03*
X021877Y009301D03*
X021877Y008701D03*
X022277Y007101D03*
X022777Y007101D03*
X022977Y006501D03*
X021727Y006501D03*
X021427Y007051D03*
X020877Y006951D03*
X020927Y003601D03*
X026677Y006201D03*
X027927Y006401D03*
X029577Y006001D03*
X030177Y006351D03*
X032727Y005951D03*
X032727Y007751D03*
X035027Y007751D03*
X036827Y008901D03*
X037227Y007751D03*
X039077Y008901D03*
X039527Y007751D03*
X039527Y005951D03*
X038327Y005301D03*
X037227Y005951D03*
X035027Y005951D03*
X030177Y003401D03*
X036827Y010151D03*
X038427Y010351D03*
X039327Y010351D03*
X039627Y011551D03*
X040127Y011851D03*
X041677Y013151D03*
X042127Y013151D03*
X042527Y012751D03*
X042527Y012301D03*
X041327Y014201D03*
X041377Y015201D03*
X040127Y015151D03*
X042673Y016172D03*
X043311Y017644D03*
X037277Y013151D03*
X036377Y012401D03*
X035727Y012401D03*
X034877Y012801D03*
X034277Y013601D03*
X033027Y014501D03*
X032477Y011401D03*
X032877Y011201D03*
X033277Y011101D03*
X033577Y010801D03*
X033877Y011101D03*
X034177Y010801D03*
X034477Y011101D03*
X034777Y010801D03*
X035177Y010601D03*
X034777Y010301D03*
X035177Y011051D03*
X036677Y011551D03*
X037277Y011551D03*
X042527Y008401D03*
X044394Y001756D03*
X021027Y022251D03*
X021577Y022351D03*
D68*
X039047Y030115D03*
X040630Y030136D03*
X042673Y030132D03*
X044327Y030124D03*
D69*
X044579Y028723D03*
X044122Y027361D03*
X041744Y027345D03*
X042445Y023904D03*
X043122Y020888D03*
X034933Y028250D03*
X033004Y028211D03*
X033004Y026124D03*
X030720Y026046D03*
X026271Y025809D03*
X025563Y027384D03*
X025051Y028447D03*
X026153Y028565D03*
X026153Y029077D03*
X022925Y026951D03*
X020681Y026400D03*
X020445Y027424D03*
X018161Y026282D03*
X015327Y028211D03*
X015090Y029550D03*
X013161Y029510D03*
X013319Y027935D03*
X013319Y025888D03*
X014775Y025967D03*
X018634Y029983D03*
X007531Y030022D03*
X006271Y027817D03*
X006350Y026282D03*
X006153Y025573D03*
X007531Y025573D03*
X003594Y028565D03*
X005484Y021321D03*
X005287Y017148D03*
X005287Y014392D03*
X005327Y012424D03*
X030642Y031361D03*
X034342Y031361D03*
M02*
