G75*
G70*
%OFA0B0*%
%FSLAX24Y24*%
%IPPOS*%
%LPD*%
%AMOC8*
5,1,8,0,0,1.08239X$1,22.5*
%
%ADD10C,0.0040*%
%ADD11C,0.0080*%
%ADD12C,0.0394*%
%ADD13C,0.0050*%
%ADD14C,0.0400*%
%ADD15C,0.0361*%
%ADD16C,0.0060*%
%ADD17C,0.0300*%
%ADD18C,0.0316*%
%ADD19C,0.0447*%
%ADD20C,0.0020*%
%ADD21C,0.0200*%
%ADD22C,0.0283*%
%ADD23R,0.0400X0.0150*%
D10*
X003585Y001292D02*
X003645Y001232D01*
X003765Y001232D01*
X003825Y001292D01*
X003953Y001412D02*
X004193Y001412D01*
X004321Y001532D02*
X004381Y001592D01*
X004501Y001592D01*
X004561Y001532D01*
X004561Y001472D01*
X004321Y001232D01*
X004561Y001232D01*
X004133Y001232D02*
X004133Y001592D01*
X003953Y001412D01*
X003825Y001532D02*
X003765Y001592D01*
X003645Y001592D01*
X003585Y001532D01*
X003585Y001292D01*
X004709Y000683D02*
X004769Y000743D01*
X004889Y000743D01*
X004949Y000683D01*
X004949Y000623D01*
X004709Y000383D01*
X004949Y000383D01*
X005077Y000383D02*
X005077Y000443D01*
X005317Y000683D01*
X005317Y000743D01*
X005077Y000743D01*
X005709Y000683D02*
X005769Y000743D01*
X005889Y000743D01*
X005949Y000683D01*
X005949Y000623D01*
X005709Y000383D01*
X005949Y000383D01*
X006077Y000443D02*
X006137Y000383D01*
X006257Y000383D01*
X006317Y000443D01*
X006317Y000503D01*
X006257Y000563D01*
X006077Y000563D01*
X006077Y000443D01*
X006077Y000563D02*
X006197Y000683D01*
X006317Y000743D01*
X006709Y000683D02*
X006769Y000743D01*
X006889Y000743D01*
X006949Y000683D01*
X006949Y000623D01*
X006709Y000383D01*
X006949Y000383D01*
X007077Y000443D02*
X007137Y000383D01*
X007257Y000383D01*
X007317Y000443D01*
X007317Y000563D01*
X007257Y000623D01*
X007197Y000623D01*
X007077Y000563D01*
X007077Y000743D01*
X007317Y000743D01*
X007709Y000683D02*
X007769Y000743D01*
X007889Y000743D01*
X007949Y000683D01*
X007949Y000623D01*
X007709Y000383D01*
X007949Y000383D01*
X008077Y000563D02*
X008257Y000743D01*
X008257Y000383D01*
X008317Y000563D02*
X008077Y000563D01*
X009412Y000687D02*
X009472Y000747D01*
X009592Y000747D01*
X009652Y000687D01*
X009652Y000627D01*
X009412Y000387D01*
X009652Y000387D01*
X009780Y000447D02*
X009840Y000387D01*
X009960Y000387D01*
X010020Y000447D01*
X010020Y000507D01*
X009960Y000567D01*
X009900Y000567D01*
X009960Y000567D02*
X010020Y000627D01*
X010020Y000687D01*
X009960Y000747D01*
X009840Y000747D01*
X009780Y000687D01*
X010412Y000687D02*
X010472Y000747D01*
X010592Y000747D01*
X010652Y000687D01*
X010652Y000627D01*
X010412Y000387D01*
X010652Y000387D01*
X010780Y000387D02*
X011020Y000627D01*
X011020Y000687D01*
X010960Y000747D01*
X010840Y000747D01*
X010780Y000687D01*
X010780Y000387D02*
X011020Y000387D01*
X011412Y000387D02*
X011652Y000627D01*
X011652Y000687D01*
X011592Y000747D01*
X011472Y000747D01*
X011412Y000687D01*
X011412Y000387D02*
X011652Y000387D01*
X011780Y000387D02*
X012020Y000387D01*
X011900Y000387D02*
X011900Y000747D01*
X011780Y000627D01*
X012412Y000687D02*
X012472Y000747D01*
X012592Y000747D01*
X012652Y000687D01*
X012652Y000627D01*
X012412Y000387D01*
X012652Y000387D01*
X012780Y000447D02*
X013020Y000687D01*
X013020Y000447D01*
X012960Y000387D01*
X012840Y000387D01*
X012780Y000447D01*
X012780Y000687D01*
X012840Y000747D01*
X012960Y000747D01*
X013020Y000687D01*
X014197Y000671D02*
X014257Y000731D01*
X014377Y000731D01*
X014437Y000671D01*
X014437Y000611D01*
X014197Y000371D01*
X014437Y000371D01*
X014565Y000431D02*
X014625Y000371D01*
X014745Y000371D01*
X014806Y000431D01*
X014806Y000491D01*
X014745Y000551D01*
X014685Y000551D01*
X014745Y000551D02*
X014806Y000611D01*
X014806Y000671D01*
X014745Y000731D01*
X014625Y000731D01*
X014565Y000671D01*
X015197Y000671D02*
X015257Y000731D01*
X015377Y000731D01*
X015437Y000671D01*
X015437Y000611D01*
X015197Y000371D01*
X015437Y000371D01*
X015565Y000371D02*
X015806Y000611D01*
X015806Y000671D01*
X015745Y000731D01*
X015625Y000731D01*
X015565Y000671D01*
X015565Y000371D02*
X015806Y000371D01*
X016197Y000371D02*
X016437Y000611D01*
X016437Y000671D01*
X016377Y000731D01*
X016257Y000731D01*
X016197Y000671D01*
X016197Y000371D02*
X016437Y000371D01*
X016565Y000371D02*
X016806Y000371D01*
X016685Y000371D02*
X016685Y000731D01*
X016565Y000611D01*
X017197Y000671D02*
X017257Y000731D01*
X017377Y000731D01*
X017437Y000671D01*
X017437Y000611D01*
X017197Y000371D01*
X017437Y000371D01*
X017565Y000431D02*
X017806Y000671D01*
X017806Y000431D01*
X017745Y000371D01*
X017625Y000371D01*
X017565Y000431D01*
X017565Y000671D01*
X017625Y000731D01*
X017745Y000731D01*
X017806Y000671D01*
X018197Y000611D02*
X018317Y000731D01*
X018317Y000371D01*
X018197Y000371D02*
X018437Y000371D01*
X018565Y000431D02*
X018625Y000371D01*
X018745Y000371D01*
X018806Y000431D01*
X018806Y000671D01*
X018745Y000731D01*
X018625Y000731D01*
X018565Y000671D01*
X018565Y000611D01*
X018625Y000551D01*
X018806Y000551D01*
X019197Y000611D02*
X019317Y000731D01*
X019317Y000371D01*
X019197Y000371D02*
X019437Y000371D01*
X019565Y000431D02*
X019565Y000491D01*
X019625Y000551D01*
X019745Y000551D01*
X019806Y000491D01*
X019806Y000431D01*
X019745Y000371D01*
X019625Y000371D01*
X019565Y000431D01*
X019625Y000551D02*
X019565Y000611D01*
X019565Y000671D01*
X019625Y000731D01*
X019745Y000731D01*
X019806Y000671D01*
X019806Y000611D01*
X019745Y000551D01*
X020197Y000611D02*
X020317Y000731D01*
X020317Y000371D01*
X020197Y000371D02*
X020437Y000371D01*
X020565Y000371D02*
X020565Y000431D01*
X020806Y000671D01*
X020806Y000731D01*
X020565Y000731D01*
X021197Y000611D02*
X021317Y000731D01*
X021317Y000371D01*
X021197Y000371D02*
X021437Y000371D01*
X021565Y000431D02*
X021625Y000371D01*
X021745Y000371D01*
X021806Y000431D01*
X021806Y000491D01*
X021745Y000551D01*
X021565Y000551D01*
X021565Y000431D01*
X021565Y000551D02*
X021685Y000671D01*
X021806Y000731D01*
X022197Y000611D02*
X022317Y000731D01*
X022317Y000371D01*
X022197Y000371D02*
X022437Y000371D01*
X022565Y000431D02*
X022625Y000371D01*
X022745Y000371D01*
X022806Y000431D01*
X022806Y000551D01*
X022745Y000611D01*
X022685Y000611D01*
X022565Y000551D01*
X022565Y000731D01*
X022806Y000731D01*
X023197Y000611D02*
X023317Y000731D01*
X023317Y000371D01*
X023197Y000371D02*
X023437Y000371D01*
X023565Y000551D02*
X023806Y000551D01*
X023745Y000371D02*
X023745Y000731D01*
X023565Y000551D01*
X024197Y000611D02*
X024317Y000731D01*
X024317Y000371D01*
X024197Y000371D02*
X024437Y000371D01*
X024565Y000431D02*
X024625Y000371D01*
X024745Y000371D01*
X024806Y000431D01*
X024806Y000491D01*
X024745Y000551D01*
X024685Y000551D01*
X024745Y000551D02*
X024806Y000611D01*
X024806Y000671D01*
X024745Y000731D01*
X024625Y000731D01*
X024565Y000671D01*
X025197Y000611D02*
X025317Y000731D01*
X025317Y000371D01*
X025197Y000371D02*
X025437Y000371D01*
X025565Y000371D02*
X025806Y000611D01*
X025806Y000671D01*
X025745Y000731D01*
X025625Y000731D01*
X025565Y000671D01*
X025565Y000371D02*
X025806Y000371D01*
X026197Y000371D02*
X026437Y000371D01*
X026317Y000371D02*
X026317Y000731D01*
X026197Y000611D01*
X026565Y000611D02*
X026685Y000731D01*
X026685Y000371D01*
X026565Y000371D02*
X026806Y000371D01*
X027197Y000371D02*
X027437Y000371D01*
X027317Y000371D02*
X027317Y000731D01*
X027197Y000611D01*
X027565Y000671D02*
X027625Y000731D01*
X027745Y000731D01*
X027806Y000671D01*
X027565Y000431D01*
X027625Y000371D01*
X027745Y000371D01*
X027806Y000431D01*
X027806Y000671D01*
X027565Y000671D02*
X027565Y000431D01*
X028197Y000431D02*
X028257Y000371D01*
X028377Y000371D01*
X028437Y000431D01*
X028437Y000671D01*
X028377Y000731D01*
X028257Y000731D01*
X028197Y000671D01*
X028197Y000611D01*
X028257Y000551D01*
X028437Y000551D01*
X029197Y000611D02*
X029197Y000671D01*
X029257Y000731D01*
X029377Y000731D01*
X029437Y000671D01*
X029437Y000611D01*
X029377Y000551D01*
X029257Y000551D01*
X029197Y000611D01*
X029257Y000551D02*
X029197Y000491D01*
X029197Y000431D01*
X029257Y000371D01*
X029377Y000371D01*
X029437Y000431D01*
X029437Y000491D01*
X029377Y000551D01*
X029951Y001130D02*
X030011Y001070D01*
X030131Y001070D01*
X030191Y001130D01*
X030319Y001250D02*
X030559Y001250D01*
X030687Y001130D02*
X030747Y001070D01*
X030867Y001070D01*
X030928Y001130D01*
X030928Y001190D01*
X030867Y001250D01*
X030807Y001250D01*
X030867Y001250D02*
X030928Y001310D01*
X030928Y001370D01*
X030867Y001430D01*
X030747Y001430D01*
X030687Y001370D01*
X030499Y001430D02*
X030319Y001250D01*
X030191Y001370D02*
X030131Y001430D01*
X030011Y001430D01*
X029951Y001370D01*
X029951Y001130D01*
X030499Y001070D02*
X030499Y001430D01*
X031197Y000731D02*
X031437Y000731D01*
X031437Y000671D01*
X031197Y000431D01*
X031197Y000371D01*
X032197Y000431D02*
X032257Y000371D01*
X032377Y000371D01*
X032437Y000431D01*
X032437Y000491D01*
X032377Y000551D01*
X032197Y000551D01*
X032197Y000431D01*
X032197Y000551D02*
X032317Y000671D01*
X032437Y000731D01*
X033197Y000731D02*
X033197Y000551D01*
X033317Y000611D01*
X033377Y000611D01*
X033437Y000551D01*
X033437Y000431D01*
X033377Y000371D01*
X033257Y000371D01*
X033197Y000431D01*
X033197Y000731D02*
X033437Y000731D01*
X034197Y000551D02*
X034437Y000551D01*
X034377Y000731D02*
X034197Y000551D01*
X034377Y000371D02*
X034377Y000731D01*
X035197Y000671D02*
X035257Y000731D01*
X035377Y000731D01*
X035437Y000671D01*
X035437Y000611D01*
X035377Y000551D01*
X035437Y000491D01*
X035437Y000431D01*
X035377Y000371D01*
X035257Y000371D01*
X035197Y000431D01*
X035317Y000551D02*
X035377Y000551D01*
X036197Y000671D02*
X036257Y000731D01*
X036377Y000731D01*
X036437Y000671D01*
X036437Y000611D01*
X036197Y000371D01*
X036437Y000371D01*
X037197Y000371D02*
X037437Y000371D01*
X037317Y000371D02*
X037317Y000731D01*
X037197Y000611D01*
X038197Y000671D02*
X038257Y000731D01*
X038377Y000731D01*
X038437Y000671D01*
X038197Y000431D01*
X038257Y000371D01*
X038377Y000371D01*
X038437Y000431D01*
X038437Y000671D01*
X038197Y000671D02*
X038197Y000431D01*
X043529Y000443D02*
X043589Y000383D01*
X043709Y000383D01*
X043769Y000443D01*
X043897Y000443D02*
X043957Y000383D01*
X044077Y000383D01*
X044137Y000443D01*
X044137Y000683D01*
X044077Y000743D01*
X043957Y000743D01*
X043897Y000683D01*
X043897Y000443D01*
X043769Y000683D02*
X043709Y000743D01*
X043589Y000743D01*
X043529Y000683D01*
X043529Y000443D01*
X044265Y000383D02*
X044265Y000743D01*
X044385Y000623D01*
X044505Y000743D01*
X044505Y000383D01*
X044633Y000383D02*
X044633Y000743D01*
X044754Y000623D01*
X044874Y000743D01*
X044874Y000383D01*
X044826Y002257D02*
X044826Y002437D01*
X044886Y002497D01*
X045006Y002497D01*
X045066Y002437D01*
X045066Y002257D01*
X045187Y002257D02*
X044826Y002257D01*
X044826Y002625D02*
X045187Y002625D01*
X045066Y002745D01*
X045187Y002865D01*
X044826Y002865D01*
X044826Y002993D02*
X044826Y003173D01*
X044886Y003233D01*
X045006Y003233D01*
X045066Y003173D01*
X045066Y002993D01*
X045066Y003113D02*
X045187Y003233D01*
X045187Y002993D02*
X044826Y002993D01*
X044195Y003391D02*
X044195Y003571D01*
X044135Y003631D01*
X043895Y003631D01*
X043835Y003571D01*
X043835Y003391D01*
X044195Y003391D01*
X044195Y003759D02*
X044195Y003999D01*
X044195Y003879D02*
X043835Y003879D01*
X043955Y003759D01*
X044015Y004127D02*
X043955Y004248D01*
X043955Y004308D01*
X044015Y004368D01*
X044135Y004368D01*
X044195Y004308D01*
X044195Y004188D01*
X044135Y004127D01*
X044015Y004127D02*
X043835Y004127D01*
X043835Y004368D01*
X043879Y005833D02*
X043759Y005953D01*
X043819Y005953D02*
X043639Y005953D01*
X043639Y005833D02*
X043639Y006193D01*
X043819Y006193D01*
X043879Y006133D01*
X043879Y006013D01*
X043819Y005953D01*
X044008Y005893D02*
X044068Y005833D01*
X044188Y005833D01*
X044248Y005893D01*
X044248Y006013D01*
X044188Y006073D01*
X044128Y006073D01*
X044008Y006013D01*
X044008Y006193D01*
X044248Y006193D01*
X044376Y006013D02*
X044556Y006193D01*
X044556Y005833D01*
X044616Y006013D02*
X044376Y006013D01*
X040708Y006185D02*
X040648Y006124D01*
X040407Y006124D01*
X040347Y006185D01*
X040347Y006305D01*
X040407Y006365D01*
X040467Y006493D02*
X040347Y006613D01*
X040708Y006613D01*
X040708Y006493D02*
X040708Y006733D01*
X040648Y006861D02*
X040708Y006921D01*
X040708Y007041D01*
X040648Y007101D01*
X040588Y007101D01*
X040528Y007041D01*
X040528Y006861D01*
X040648Y006861D01*
X040528Y006861D02*
X040407Y006981D01*
X040347Y007101D01*
X040648Y006365D02*
X040708Y006305D01*
X040708Y006185D01*
X038452Y008821D02*
X038452Y009181D01*
X038632Y009181D01*
X038692Y009121D01*
X038692Y009001D01*
X038632Y008941D01*
X038452Y008941D01*
X038324Y008881D02*
X038324Y009121D01*
X038264Y009181D01*
X038144Y009181D01*
X038084Y009121D01*
X038084Y008881D01*
X038144Y008821D01*
X038264Y008821D01*
X038324Y008881D01*
X037956Y009181D02*
X037715Y009181D01*
X037835Y009181D02*
X037835Y008821D01*
X037587Y008881D02*
X037527Y008821D01*
X037407Y008821D01*
X037347Y008881D01*
X037407Y009001D02*
X037527Y009001D01*
X037587Y008941D01*
X037587Y008881D01*
X037407Y009001D02*
X037347Y009061D01*
X037347Y009121D01*
X037407Y009181D01*
X037527Y009181D01*
X037587Y009121D01*
X036446Y010462D02*
X036506Y010522D01*
X036506Y010642D01*
X036446Y010702D01*
X036326Y010830D02*
X036326Y011071D01*
X036326Y011199D02*
X036326Y011379D01*
X036386Y011439D01*
X036446Y011439D01*
X036506Y011379D01*
X036506Y011259D01*
X036446Y011199D01*
X036326Y011199D01*
X036206Y011319D01*
X036146Y011439D01*
X036146Y011011D02*
X036326Y010830D01*
X036206Y010702D02*
X036146Y010642D01*
X036146Y010522D01*
X036206Y010462D01*
X036446Y010462D01*
X036506Y011011D02*
X036146Y011011D01*
X035317Y009430D02*
X035378Y009370D01*
X035137Y009130D01*
X035197Y009070D01*
X035317Y009070D01*
X035378Y009130D01*
X035378Y009370D01*
X035317Y009430D02*
X035197Y009430D01*
X035137Y009370D01*
X035137Y009130D01*
X035009Y009130D02*
X034949Y009070D01*
X034829Y009070D01*
X034769Y009130D01*
X034641Y009130D02*
X034581Y009070D01*
X034461Y009070D01*
X034401Y009130D01*
X034401Y009370D01*
X034461Y009430D01*
X034581Y009430D01*
X034641Y009370D01*
X034769Y009370D02*
X034829Y009430D01*
X034949Y009430D01*
X035009Y009370D01*
X035009Y009310D01*
X034949Y009250D01*
X035009Y009190D01*
X035009Y009130D01*
X034949Y009250D02*
X034889Y009250D01*
X033556Y009121D02*
X033556Y008881D01*
X033495Y008821D01*
X033375Y008821D01*
X033315Y008881D01*
X033315Y009121D01*
X033375Y009181D01*
X033495Y009181D01*
X033556Y009121D01*
X033187Y009121D02*
X033127Y009181D01*
X033007Y009181D01*
X032947Y009121D01*
X032947Y008881D01*
X033007Y008821D01*
X033127Y008821D01*
X033187Y008881D01*
X033187Y009001D01*
X033067Y009001D01*
X031656Y007489D02*
X031656Y007249D01*
X031416Y007489D01*
X031356Y007489D01*
X031296Y007429D01*
X031296Y007309D01*
X031356Y007249D01*
X031356Y007121D02*
X031296Y007061D01*
X031296Y006941D01*
X031356Y006880D01*
X031356Y006752D02*
X031296Y006692D01*
X031296Y006572D01*
X031356Y006512D01*
X031596Y006512D01*
X031656Y006572D01*
X031656Y006692D01*
X031596Y006752D01*
X031596Y006880D02*
X031656Y006941D01*
X031656Y007061D01*
X031596Y007121D01*
X031536Y007121D01*
X031476Y007061D01*
X031476Y007001D01*
X031476Y007061D02*
X031416Y007121D01*
X031356Y007121D01*
X031415Y005731D02*
X031535Y005731D01*
X031475Y005731D02*
X031475Y005371D01*
X031415Y005371D02*
X031535Y005371D01*
X031661Y005431D02*
X031721Y005371D01*
X031841Y005371D01*
X031901Y005431D01*
X031901Y005551D01*
X031781Y005551D01*
X031901Y005671D02*
X031841Y005731D01*
X031721Y005731D01*
X031661Y005671D01*
X031661Y005431D01*
X032029Y005371D02*
X032149Y005371D01*
X032089Y005371D02*
X032089Y005731D01*
X032029Y005731D02*
X032149Y005731D01*
X032275Y005731D02*
X032515Y005731D01*
X032395Y005731D02*
X032395Y005371D01*
X032643Y005371D02*
X032643Y005611D01*
X032763Y005731D01*
X032883Y005611D01*
X032883Y005371D01*
X033011Y005371D02*
X033251Y005371D01*
X033011Y005371D02*
X033011Y005731D01*
X032883Y005551D02*
X032643Y005551D01*
X031287Y005431D02*
X031287Y005671D01*
X031227Y005731D01*
X031047Y005731D01*
X031047Y005371D01*
X031227Y005371D01*
X031287Y005431D01*
X030707Y004933D02*
X030707Y004813D01*
X030647Y004752D01*
X030587Y004752D01*
X030527Y004813D01*
X030527Y004933D01*
X030587Y004993D01*
X030647Y004993D01*
X030707Y004933D01*
X030527Y004933D02*
X030467Y004993D01*
X030407Y004993D01*
X030347Y004933D01*
X030347Y004813D01*
X030407Y004752D01*
X030467Y004752D01*
X030527Y004813D01*
X030347Y004624D02*
X030347Y004504D01*
X030347Y004564D02*
X030647Y004564D01*
X030707Y004504D01*
X030707Y004444D01*
X030647Y004384D01*
X030659Y003181D02*
X030539Y003181D01*
X030479Y003121D01*
X030479Y003061D01*
X030539Y003001D01*
X030719Y003001D01*
X030719Y002881D02*
X030719Y003121D01*
X030659Y003181D01*
X030719Y002881D02*
X030659Y002821D01*
X030539Y002821D01*
X030479Y002881D01*
X030291Y002881D02*
X030291Y003181D01*
X030351Y003181D02*
X030230Y003181D01*
X030291Y002881D02*
X030230Y002821D01*
X030170Y002821D01*
X030110Y002881D01*
X029719Y005371D02*
X029779Y005431D01*
X029779Y005551D01*
X029659Y005551D01*
X029779Y005671D02*
X029719Y005731D01*
X029599Y005731D01*
X029539Y005671D01*
X029539Y005431D01*
X029599Y005371D01*
X029719Y005371D01*
X029410Y005431D02*
X029410Y005671D01*
X029350Y005731D01*
X029230Y005731D01*
X029170Y005671D01*
X029170Y005431D01*
X029230Y005371D01*
X029350Y005371D01*
X029410Y005431D01*
X029042Y005371D02*
X028802Y005371D01*
X028802Y005731D01*
X028674Y005611D02*
X028674Y005371D01*
X028674Y005551D02*
X028434Y005551D01*
X028434Y005611D02*
X028554Y005731D01*
X028674Y005611D01*
X028434Y005611D02*
X028434Y005371D01*
X028306Y005371D02*
X028306Y005731D01*
X028065Y005731D02*
X028306Y005371D01*
X028065Y005371D02*
X028065Y005731D01*
X027937Y005611D02*
X027937Y005371D01*
X027937Y005551D02*
X027697Y005551D01*
X027697Y005611D02*
X027817Y005731D01*
X027937Y005611D01*
X027697Y005611D02*
X027697Y005371D01*
X024957Y005876D02*
X024897Y005816D01*
X024597Y005816D01*
X024597Y006056D02*
X024897Y006056D01*
X024957Y005996D01*
X024957Y005876D01*
X024957Y006184D02*
X024957Y006424D01*
X024957Y006304D02*
X024597Y006304D01*
X024717Y006184D01*
X024717Y006552D02*
X024657Y006552D01*
X024597Y006613D01*
X024597Y006733D01*
X024657Y006793D01*
X024717Y006793D01*
X024777Y006733D01*
X024777Y006613D01*
X024717Y006552D01*
X024777Y006613D02*
X024837Y006552D01*
X024897Y006552D01*
X024957Y006613D01*
X024957Y006733D01*
X024897Y006793D01*
X024837Y006793D01*
X024777Y006733D01*
X024517Y008661D02*
X024217Y008661D01*
X024217Y008901D02*
X024517Y008901D01*
X024577Y008841D01*
X024577Y008721D01*
X024517Y008661D01*
X024517Y009029D02*
X024457Y009029D01*
X024397Y009089D01*
X024397Y009209D01*
X024457Y009269D01*
X024517Y009269D01*
X024577Y009209D01*
X024577Y009089D01*
X024517Y009029D01*
X024397Y009089D02*
X024337Y009029D01*
X024277Y009029D01*
X024217Y009089D01*
X024217Y009209D01*
X024277Y009269D01*
X024337Y009269D01*
X024397Y009209D01*
X021628Y009980D02*
X021567Y009920D01*
X021447Y009920D01*
X021387Y009980D01*
X021259Y009980D02*
X021199Y009920D01*
X021079Y009920D01*
X021019Y009980D01*
X020891Y009980D02*
X020831Y009920D01*
X020711Y009920D01*
X020651Y009980D01*
X020651Y010220D01*
X020711Y010280D01*
X020831Y010280D01*
X020891Y010220D01*
X021019Y010220D02*
X021079Y010280D01*
X021199Y010280D01*
X021259Y010220D01*
X021259Y010160D01*
X021199Y010100D01*
X021259Y010040D01*
X021259Y009980D01*
X021199Y010100D02*
X021139Y010100D01*
X021387Y010220D02*
X021447Y010280D01*
X021567Y010280D01*
X021628Y010220D01*
X021628Y010160D01*
X021567Y010100D01*
X021628Y010040D01*
X021628Y009980D01*
X021567Y010100D02*
X021507Y010100D01*
X020715Y009322D02*
X020715Y009262D01*
X020655Y009202D01*
X020535Y009202D01*
X020475Y009262D01*
X020475Y009322D01*
X020535Y009382D01*
X020655Y009382D01*
X020715Y009322D01*
X020655Y009202D02*
X020715Y009142D01*
X020715Y009081D01*
X020655Y009021D01*
X020535Y009021D01*
X020475Y009081D01*
X020475Y009142D01*
X020535Y009202D01*
X020347Y009202D02*
X020287Y009262D01*
X020227Y009262D01*
X020107Y009202D01*
X020107Y009382D01*
X020347Y009382D01*
X020347Y009202D02*
X020347Y009081D01*
X020287Y009021D01*
X020167Y009021D01*
X020107Y009081D01*
X019979Y009081D02*
X019919Y009021D01*
X019798Y009021D01*
X019738Y009081D01*
X019738Y009322D01*
X019798Y009382D01*
X019919Y009382D01*
X019979Y009322D01*
X018409Y009970D02*
X018169Y009730D01*
X018169Y009670D01*
X018041Y009730D02*
X017981Y009670D01*
X017861Y009670D01*
X017801Y009730D01*
X017801Y009970D01*
X017861Y010030D01*
X017981Y010030D01*
X018041Y009970D01*
X018169Y010030D02*
X018409Y010030D01*
X018409Y009970D01*
X018349Y011120D02*
X018409Y011180D01*
X018409Y011240D01*
X018349Y011300D01*
X018169Y011300D01*
X018169Y011180D01*
X018229Y011120D01*
X018349Y011120D01*
X018169Y011300D02*
X018289Y011420D01*
X018409Y011480D01*
X018041Y011420D02*
X017981Y011480D01*
X017861Y011480D01*
X017801Y011420D01*
X017801Y011180D01*
X017861Y011120D01*
X017981Y011120D01*
X018041Y011180D01*
X018169Y012133D02*
X018169Y012494D01*
X017989Y012313D01*
X018229Y012313D01*
X018357Y012313D02*
X018477Y012373D01*
X018537Y012373D01*
X018598Y012313D01*
X018598Y012193D01*
X018537Y012133D01*
X018417Y012133D01*
X018357Y012193D01*
X018357Y012313D02*
X018357Y012494D01*
X018598Y012494D01*
X017861Y012434D02*
X017861Y012313D01*
X017801Y012253D01*
X017621Y012253D01*
X017621Y012133D02*
X017621Y012494D01*
X017801Y012494D01*
X017861Y012434D01*
X017741Y012253D02*
X017861Y012133D01*
X017245Y013008D02*
X017005Y013008D01*
X017245Y013249D01*
X017245Y013309D01*
X017185Y013369D01*
X017065Y013369D01*
X017005Y013309D01*
X016877Y013369D02*
X016757Y013309D01*
X016637Y013188D01*
X016817Y013188D01*
X016877Y013128D01*
X016877Y013068D01*
X016817Y013008D01*
X016697Y013008D01*
X016637Y013068D01*
X016637Y013188D01*
X016509Y013188D02*
X016449Y013128D01*
X016268Y013128D01*
X016268Y013008D02*
X016268Y013369D01*
X016449Y013369D01*
X016509Y013309D01*
X016509Y013188D01*
X016388Y013128D02*
X016509Y013008D01*
X015415Y013031D02*
X015355Y012971D01*
X015235Y012971D01*
X015175Y013031D01*
X015415Y013272D01*
X015415Y013031D01*
X015175Y013031D02*
X015175Y013272D01*
X015235Y013332D01*
X015355Y013332D01*
X015415Y013272D01*
X015047Y012971D02*
X014807Y012971D01*
X014927Y012971D02*
X014927Y013332D01*
X014807Y013212D01*
X014679Y013272D02*
X014619Y013332D01*
X014498Y013332D01*
X014438Y013272D01*
X014438Y013031D01*
X014498Y012971D01*
X014619Y012971D01*
X014679Y013031D01*
X016221Y013733D02*
X016221Y014094D01*
X016401Y014094D01*
X016461Y014034D01*
X016461Y013913D01*
X016401Y013853D01*
X016221Y013853D01*
X016341Y013853D02*
X016461Y013733D01*
X016589Y013913D02*
X016829Y013913D01*
X016957Y014034D02*
X017017Y014094D01*
X017137Y014094D01*
X017198Y014034D01*
X017198Y013973D01*
X016957Y013733D01*
X017198Y013733D01*
X016769Y013733D02*
X016769Y014094D01*
X016589Y013913D01*
X017746Y014891D02*
X017806Y014830D01*
X018046Y014830D01*
X018106Y014891D01*
X018106Y015011D01*
X018046Y015071D01*
X018046Y015199D02*
X018106Y015259D01*
X018106Y015379D01*
X018046Y015439D01*
X017926Y015439D01*
X017866Y015379D01*
X017866Y015319D01*
X017926Y015199D01*
X017746Y015199D01*
X017746Y015439D01*
X017806Y015071D02*
X017746Y015011D01*
X017746Y014891D01*
X017806Y016230D02*
X018046Y016230D01*
X018106Y016291D01*
X018106Y016411D01*
X018046Y016471D01*
X018046Y016599D02*
X018106Y016659D01*
X018106Y016779D01*
X018046Y016839D01*
X017986Y016839D01*
X017926Y016779D01*
X017926Y016719D01*
X017926Y016779D02*
X017866Y016839D01*
X017806Y016839D01*
X017746Y016779D01*
X017746Y016659D01*
X017806Y016599D01*
X017806Y016471D02*
X017746Y016411D01*
X017746Y016291D01*
X017806Y016230D01*
X017818Y017058D02*
X017818Y017419D01*
X017999Y017419D01*
X018059Y017359D01*
X018059Y017238D01*
X017999Y017178D01*
X017818Y017178D01*
X017938Y017178D02*
X018059Y017058D01*
X018187Y017238D02*
X018427Y017238D01*
X018555Y017118D02*
X018615Y017058D01*
X018735Y017058D01*
X018795Y017118D01*
X018795Y017178D01*
X018735Y017238D01*
X018675Y017238D01*
X018735Y017238D02*
X018795Y017299D01*
X018795Y017359D01*
X018735Y017419D01*
X018615Y017419D01*
X018555Y017359D01*
X018367Y017419D02*
X018367Y017058D01*
X018187Y017238D02*
X018367Y017419D01*
X017145Y018368D02*
X017085Y018308D01*
X016965Y018308D01*
X016905Y018368D01*
X017145Y018609D01*
X017145Y018368D01*
X016905Y018368D02*
X016905Y018609D01*
X016965Y018669D01*
X017085Y018669D01*
X017145Y018609D01*
X017117Y018933D02*
X017057Y018993D01*
X017298Y019234D01*
X017298Y018993D01*
X017237Y018933D01*
X017117Y018933D01*
X017057Y018993D02*
X017057Y019234D01*
X017117Y019294D01*
X017237Y019294D01*
X017298Y019234D01*
X016929Y019113D02*
X016689Y019113D01*
X016869Y019294D01*
X016869Y018933D01*
X016777Y018669D02*
X016657Y018609D01*
X016537Y018488D01*
X016717Y018488D01*
X016777Y018428D01*
X016777Y018368D01*
X016717Y018308D01*
X016597Y018308D01*
X016537Y018368D01*
X016537Y018488D01*
X016409Y018488D02*
X016349Y018428D01*
X016168Y018428D01*
X016168Y018308D02*
X016168Y018669D01*
X016349Y018669D01*
X016409Y018609D01*
X016409Y018488D01*
X016288Y018428D02*
X016409Y018308D01*
X016321Y018933D02*
X016321Y019294D01*
X016501Y019294D01*
X016561Y019234D01*
X016561Y019113D01*
X016501Y019053D01*
X016321Y019053D01*
X016441Y019053D02*
X016561Y018933D01*
X015015Y018472D02*
X015015Y018412D01*
X014955Y018352D01*
X014835Y018352D01*
X014775Y018412D01*
X014775Y018472D01*
X014835Y018532D01*
X014955Y018532D01*
X015015Y018472D01*
X014955Y018352D02*
X015015Y018292D01*
X015015Y018231D01*
X014955Y018171D01*
X014835Y018171D01*
X014775Y018231D01*
X014775Y018292D01*
X014835Y018352D01*
X014647Y018472D02*
X014587Y018532D01*
X014467Y018532D01*
X014407Y018472D01*
X014407Y018231D01*
X014467Y018171D01*
X014587Y018171D01*
X014647Y018231D01*
X011765Y018302D02*
X011525Y018302D01*
X011705Y018482D01*
X011705Y018121D01*
X011397Y018181D02*
X011337Y018121D01*
X011217Y018121D01*
X011157Y018181D01*
X011157Y018302D02*
X011277Y018362D01*
X011337Y018362D01*
X011397Y018302D01*
X011397Y018181D01*
X011157Y018302D02*
X011157Y018482D01*
X011397Y018482D01*
X011029Y018422D02*
X010969Y018482D01*
X010848Y018482D01*
X010788Y018422D01*
X010788Y018181D01*
X010848Y018121D01*
X010969Y018121D01*
X011029Y018181D01*
X008945Y018168D02*
X008885Y018108D01*
X008765Y018108D01*
X008705Y018168D01*
X008577Y018168D02*
X008517Y018108D01*
X008397Y018108D01*
X008337Y018168D01*
X008337Y018288D02*
X008457Y018349D01*
X008517Y018349D01*
X008577Y018288D01*
X008577Y018168D01*
X008705Y018349D02*
X008765Y018288D01*
X008945Y018288D01*
X008945Y018168D02*
X008945Y018409D01*
X008885Y018469D01*
X008765Y018469D01*
X008705Y018409D01*
X008705Y018349D01*
X008577Y018469D02*
X008337Y018469D01*
X008337Y018288D01*
X008209Y018288D02*
X008149Y018228D01*
X007968Y018228D01*
X007968Y018108D02*
X007968Y018469D01*
X008149Y018469D01*
X008209Y018409D01*
X008209Y018288D01*
X008088Y018228D02*
X008209Y018108D01*
X005457Y018189D02*
X005457Y018429D01*
X005457Y018309D02*
X005097Y018309D01*
X005217Y018189D01*
X005157Y018061D02*
X005097Y018001D01*
X005097Y017821D01*
X005457Y017821D01*
X005457Y018001D01*
X005397Y018061D01*
X005157Y018061D01*
X005157Y017529D02*
X005097Y017469D01*
X005097Y017349D01*
X005157Y017289D01*
X005217Y017289D01*
X005277Y017349D01*
X005277Y017529D01*
X005397Y017529D02*
X005157Y017529D01*
X005397Y017529D02*
X005457Y017469D01*
X005457Y017349D01*
X005397Y017289D01*
X005397Y017161D02*
X005157Y017161D01*
X005097Y017101D01*
X005097Y016921D01*
X005457Y016921D01*
X005457Y017101D01*
X005397Y017161D01*
X004956Y016031D02*
X004835Y015971D01*
X004715Y015851D01*
X004895Y015851D01*
X004956Y015791D01*
X004956Y015731D01*
X004895Y015671D01*
X004775Y015671D01*
X004715Y015731D01*
X004715Y015851D01*
X004587Y016031D02*
X004467Y016031D01*
X004527Y016031D02*
X004527Y015731D01*
X004467Y015671D01*
X004407Y015671D01*
X004347Y015731D01*
X005157Y014729D02*
X005217Y014729D01*
X005277Y014669D01*
X005277Y014549D01*
X005217Y014489D01*
X005157Y014489D01*
X005097Y014549D01*
X005097Y014669D01*
X005157Y014729D01*
X005277Y014669D02*
X005337Y014729D01*
X005397Y014729D01*
X005457Y014669D01*
X005457Y014549D01*
X005397Y014489D01*
X005337Y014489D01*
X005277Y014549D01*
X005397Y014361D02*
X005157Y014361D01*
X005097Y014301D01*
X005097Y014121D01*
X005457Y014121D01*
X005457Y014301D01*
X005397Y014361D01*
X005647Y014671D02*
X005947Y014671D01*
X006007Y014731D01*
X006007Y014851D01*
X005947Y014911D01*
X005647Y014911D01*
X005827Y015039D02*
X005827Y015219D01*
X005887Y015279D01*
X005947Y015279D01*
X006007Y015219D01*
X006007Y015099D01*
X005947Y015039D01*
X005827Y015039D01*
X005707Y015159D01*
X005647Y015279D01*
X005157Y013629D02*
X005397Y013389D01*
X005457Y013389D01*
X005397Y013261D02*
X005157Y013261D01*
X005097Y013201D01*
X005097Y013021D01*
X005457Y013021D01*
X005457Y013201D01*
X005397Y013261D01*
X005097Y013389D02*
X005097Y013629D01*
X005157Y013629D01*
X004885Y012519D02*
X004945Y012459D01*
X004945Y012399D01*
X004885Y012338D01*
X004945Y012278D01*
X004945Y012218D01*
X004885Y012158D01*
X004765Y012158D01*
X004705Y012218D01*
X004577Y012158D02*
X004457Y012278D01*
X004517Y012278D02*
X004337Y012278D01*
X004337Y012158D02*
X004337Y012519D01*
X004517Y012519D01*
X004577Y012459D01*
X004577Y012338D01*
X004517Y012278D01*
X004705Y012459D02*
X004765Y012519D01*
X004885Y012519D01*
X004885Y012338D02*
X004825Y012338D01*
X004737Y012069D02*
X004917Y012069D01*
X004977Y012009D01*
X004977Y011888D01*
X004917Y011828D01*
X004737Y011828D01*
X004737Y011708D02*
X004737Y012069D01*
X004857Y011828D02*
X004977Y011708D01*
X004927Y011581D02*
X004747Y011581D01*
X004747Y011221D01*
X004927Y011221D01*
X004987Y011281D01*
X004987Y011521D01*
X004927Y011581D01*
X005115Y011461D02*
X005235Y011581D01*
X005235Y011221D01*
X005115Y011221D02*
X005356Y011221D01*
X005484Y011401D02*
X005724Y011401D01*
X005664Y011221D02*
X005664Y011581D01*
X005484Y011401D01*
X005285Y011708D02*
X005165Y011708D01*
X005105Y011768D01*
X005105Y011888D01*
X005285Y011888D01*
X005345Y011828D01*
X005345Y011768D01*
X005285Y011708D01*
X005105Y011888D02*
X005225Y012009D01*
X005345Y012069D01*
X007868Y013208D02*
X007868Y013569D01*
X008049Y013569D01*
X008109Y013509D01*
X008109Y013388D01*
X008049Y013328D01*
X007868Y013328D01*
X007988Y013328D02*
X008109Y013208D01*
X008237Y013268D02*
X008297Y013208D01*
X008417Y013208D01*
X008477Y013268D01*
X008477Y013328D01*
X008417Y013388D01*
X008237Y013388D01*
X008237Y013268D01*
X008237Y013388D02*
X008357Y013509D01*
X008477Y013569D01*
X008605Y013449D02*
X008725Y013569D01*
X008725Y013208D01*
X008605Y013208D02*
X008845Y013208D01*
X010788Y013172D02*
X010788Y012931D01*
X010848Y012871D01*
X010969Y012871D01*
X011029Y012931D01*
X011157Y012931D02*
X011217Y012871D01*
X011337Y012871D01*
X011397Y012931D01*
X011397Y013052D01*
X011337Y013112D01*
X011277Y013112D01*
X011157Y013052D01*
X011157Y013232D01*
X011397Y013232D01*
X011525Y013232D02*
X011525Y013052D01*
X011645Y013112D01*
X011705Y013112D01*
X011765Y013052D01*
X011765Y012931D01*
X011705Y012871D01*
X011585Y012871D01*
X011525Y012931D01*
X011525Y013232D02*
X011765Y013232D01*
X011029Y013172D02*
X010969Y013232D01*
X010848Y013232D01*
X010788Y013172D01*
X006007Y009789D02*
X005947Y009789D01*
X005707Y010029D01*
X005647Y010029D01*
X005647Y009789D01*
X005647Y009661D02*
X005947Y009661D01*
X006007Y009601D01*
X006007Y009481D01*
X005947Y009421D01*
X005647Y009421D01*
X005457Y009351D02*
X005397Y009411D01*
X005157Y009411D01*
X005097Y009351D01*
X005097Y009171D01*
X005457Y009171D01*
X005457Y009351D01*
X005457Y009539D02*
X005457Y009779D01*
X005457Y009659D02*
X005097Y009659D01*
X005217Y009539D01*
X005157Y009907D02*
X005097Y009967D01*
X005097Y010088D01*
X005157Y010148D01*
X005217Y010148D01*
X005277Y010088D01*
X005337Y010148D01*
X005397Y010148D01*
X005457Y010088D01*
X005457Y009967D01*
X005397Y009907D01*
X005277Y010027D02*
X005277Y010088D01*
X005006Y008231D02*
X005006Y008171D01*
X004765Y007931D01*
X004765Y007871D01*
X004577Y007931D02*
X004577Y008231D01*
X004517Y008231D02*
X004637Y008231D01*
X004765Y008231D02*
X005006Y008231D01*
X004577Y007931D02*
X004517Y007871D01*
X004457Y007871D01*
X004397Y007931D01*
X002807Y007031D02*
X002687Y006911D01*
X002807Y006791D01*
X002447Y006791D01*
X002507Y006662D02*
X002447Y006602D01*
X002447Y006482D01*
X002507Y006422D01*
X002747Y006422D01*
X002807Y006482D01*
X002807Y006602D01*
X002747Y006662D01*
X002507Y006662D01*
X002447Y007031D02*
X002807Y007031D01*
X002807Y006294D02*
X002807Y006054D01*
X002807Y006174D02*
X002447Y006174D01*
X002507Y005926D02*
X002447Y005866D01*
X002447Y005746D01*
X002507Y005686D01*
X002627Y005686D01*
X002687Y005746D01*
X002687Y005806D01*
X002627Y005926D01*
X002807Y005926D01*
X002807Y005686D01*
X005837Y005731D02*
X005837Y005371D01*
X006077Y005371D01*
X006205Y005371D02*
X006205Y005731D01*
X006445Y005371D01*
X006445Y005731D01*
X006573Y005671D02*
X006573Y005431D01*
X006633Y005371D01*
X006754Y005371D01*
X006814Y005431D01*
X006942Y005431D02*
X007002Y005371D01*
X007122Y005371D01*
X007182Y005431D01*
X007182Y005671D01*
X007122Y005731D01*
X007002Y005731D01*
X006942Y005671D01*
X006942Y005431D01*
X006814Y005671D02*
X006754Y005731D01*
X006633Y005731D01*
X006573Y005671D01*
X006077Y005731D02*
X005837Y005731D01*
X005837Y005551D02*
X005957Y005551D01*
X007310Y005371D02*
X007490Y005371D01*
X007550Y005431D01*
X007550Y005671D01*
X007490Y005731D01*
X007310Y005731D01*
X007310Y005371D01*
X007678Y005371D02*
X007678Y005731D01*
X007919Y005731D01*
X008047Y005731D02*
X008227Y005731D01*
X008287Y005671D01*
X008287Y005551D01*
X008227Y005491D01*
X008047Y005491D01*
X008167Y005491D02*
X008287Y005371D01*
X008047Y005371D02*
X008047Y005731D01*
X007798Y005551D02*
X007678Y005551D01*
X007678Y005371D02*
X007919Y005371D01*
X010837Y005371D02*
X010837Y005731D01*
X011017Y005731D01*
X011077Y005671D01*
X011077Y005551D01*
X011017Y005491D01*
X010837Y005491D01*
X011205Y005431D02*
X011265Y005371D01*
X011385Y005371D01*
X011445Y005431D01*
X011445Y005731D01*
X011573Y005731D02*
X011573Y005371D01*
X011814Y005371D01*
X011942Y005371D02*
X011942Y005731D01*
X011942Y005371D02*
X012182Y005371D01*
X012310Y005431D02*
X012370Y005371D01*
X012490Y005371D01*
X012550Y005431D01*
X012550Y005731D01*
X012678Y005731D02*
X012858Y005731D01*
X012919Y005671D01*
X012919Y005551D01*
X012858Y005491D01*
X012678Y005491D01*
X012678Y005371D02*
X012678Y005731D01*
X012310Y005731D02*
X012310Y005431D01*
X011205Y005431D02*
X011205Y005731D01*
X012707Y006351D02*
X013007Y006351D01*
X013067Y006411D01*
X013067Y006531D01*
X013007Y006591D01*
X012707Y006591D01*
X012767Y006719D02*
X012827Y006719D01*
X012887Y006779D01*
X012887Y006959D01*
X013007Y006959D02*
X012767Y006959D01*
X012707Y006899D01*
X012707Y006779D01*
X012767Y006719D01*
X013007Y006719D02*
X013067Y006779D01*
X013067Y006899D01*
X013007Y006959D01*
X015242Y007781D02*
X015302Y007721D01*
X015422Y007721D01*
X015482Y007781D01*
X015482Y008081D01*
X015610Y007961D02*
X015730Y008081D01*
X015730Y007721D01*
X015610Y007721D02*
X015851Y007721D01*
X015979Y007781D02*
X016039Y007721D01*
X016159Y007721D01*
X016219Y007781D01*
X016219Y008021D01*
X016159Y008081D01*
X016039Y008081D01*
X015979Y008021D01*
X015979Y007961D01*
X016039Y007901D01*
X016219Y007901D01*
X016121Y008433D02*
X016121Y008794D01*
X016301Y008794D01*
X016361Y008734D01*
X016361Y008613D01*
X016301Y008553D01*
X016121Y008553D01*
X016241Y008553D02*
X016361Y008433D01*
X016489Y008613D02*
X016729Y008613D01*
X016857Y008613D02*
X017098Y008613D01*
X017037Y008433D02*
X017037Y008794D01*
X016857Y008613D01*
X016669Y008433D02*
X016669Y008794D01*
X016489Y008613D01*
X015242Y008081D02*
X015242Y007781D01*
X022738Y003672D02*
X022738Y003431D01*
X022798Y003371D01*
X022919Y003371D01*
X022979Y003431D01*
X023107Y003431D02*
X023167Y003371D01*
X023287Y003371D01*
X023347Y003431D01*
X023347Y003492D01*
X023287Y003552D01*
X023227Y003552D01*
X023287Y003552D02*
X023347Y003612D01*
X023347Y003672D01*
X023287Y003732D01*
X023167Y003732D01*
X023107Y003672D01*
X022979Y003672D02*
X022919Y003732D01*
X022798Y003732D01*
X022738Y003672D01*
X023475Y003732D02*
X023475Y003552D01*
X023595Y003612D01*
X023655Y003612D01*
X023715Y003552D01*
X023715Y003431D01*
X023655Y003371D01*
X023535Y003371D01*
X023475Y003431D01*
X023475Y003732D02*
X023715Y003732D01*
X026084Y012644D02*
X026084Y012825D01*
X026144Y012885D01*
X026264Y012885D01*
X026324Y012825D01*
X026324Y012644D01*
X026445Y012644D02*
X026084Y012644D01*
X026324Y012765D02*
X026445Y012885D01*
X026264Y013013D02*
X026084Y013193D01*
X026445Y013193D01*
X026264Y013253D02*
X026264Y013013D01*
X026264Y013381D02*
X026264Y013561D01*
X026324Y013621D01*
X026384Y013621D01*
X026445Y013561D01*
X026445Y013441D01*
X026384Y013381D01*
X026264Y013381D01*
X026144Y013501D01*
X026084Y013621D01*
X028551Y013170D02*
X028551Y012930D01*
X028611Y012870D01*
X028731Y012870D01*
X028791Y012930D01*
X028919Y012870D02*
X029159Y012870D01*
X029039Y012870D02*
X029039Y013230D01*
X028919Y013110D01*
X028791Y013170D02*
X028731Y013230D01*
X028611Y013230D01*
X028551Y013170D01*
X029287Y013170D02*
X029347Y013230D01*
X029467Y013230D01*
X029528Y013170D01*
X029528Y013110D01*
X029287Y012870D01*
X029528Y012870D01*
X032477Y012733D02*
X032477Y012433D01*
X032537Y012373D01*
X032657Y012373D01*
X032717Y012433D01*
X032717Y012733D01*
X032845Y012613D02*
X032965Y012733D01*
X032965Y012373D01*
X032845Y012373D02*
X033086Y012373D01*
X033214Y012433D02*
X033274Y012373D01*
X033394Y012373D01*
X033454Y012433D01*
X033454Y012493D01*
X033394Y012553D01*
X033334Y012553D01*
X033394Y012553D02*
X033454Y012613D01*
X033454Y012673D01*
X033394Y012733D01*
X033274Y012733D01*
X033214Y012673D01*
X033447Y012935D02*
X033447Y013055D01*
X033507Y013115D01*
X033567Y013243D02*
X033447Y013363D01*
X033808Y013363D01*
X033808Y013243D02*
X033808Y013483D01*
X033748Y013611D02*
X033808Y013671D01*
X033808Y013791D01*
X033748Y013851D01*
X033628Y013851D01*
X033567Y013791D01*
X033567Y013731D01*
X033628Y013611D01*
X033447Y013611D01*
X033447Y013851D01*
X033748Y013115D02*
X033808Y013055D01*
X033808Y012935D01*
X033748Y012874D01*
X033507Y012874D01*
X033447Y012935D01*
X034739Y013178D02*
X035100Y013178D01*
X035100Y013418D01*
X035100Y013546D02*
X034859Y013786D01*
X034799Y013786D01*
X034739Y013726D01*
X034739Y013606D01*
X034799Y013546D01*
X035100Y013546D02*
X035100Y013786D01*
X037071Y015633D02*
X037071Y015994D01*
X037251Y015994D01*
X037311Y015934D01*
X037311Y015813D01*
X037251Y015753D01*
X037071Y015753D01*
X037191Y015753D02*
X037311Y015633D01*
X037439Y015633D02*
X037439Y015693D01*
X037679Y015934D01*
X037679Y015994D01*
X037439Y015994D01*
X037807Y015873D02*
X037927Y015994D01*
X037927Y015633D01*
X037807Y015633D02*
X038048Y015633D01*
X038547Y015931D02*
X038607Y015871D01*
X038727Y015871D01*
X038787Y015931D01*
X038787Y016231D01*
X038915Y016171D02*
X038975Y016231D01*
X039095Y016231D01*
X039156Y016171D01*
X039156Y016111D01*
X038915Y015871D01*
X039156Y015871D01*
X039284Y015931D02*
X039524Y016171D01*
X039524Y015931D01*
X039464Y015871D01*
X039344Y015871D01*
X039284Y015931D01*
X039284Y016171D01*
X039344Y016231D01*
X039464Y016231D01*
X039524Y016171D01*
X039991Y015753D02*
X039991Y015513D01*
X040051Y015453D01*
X040171Y015453D01*
X040231Y015513D01*
X040359Y015513D02*
X040419Y015453D01*
X040539Y015453D01*
X040599Y015513D01*
X040599Y015573D01*
X040539Y015633D01*
X040359Y015633D01*
X040359Y015513D01*
X040359Y015633D02*
X040479Y015753D01*
X040599Y015813D01*
X040727Y015753D02*
X040787Y015813D01*
X040907Y015813D01*
X040968Y015753D01*
X040727Y015513D01*
X040787Y015453D01*
X040907Y015453D01*
X040968Y015513D01*
X040968Y015753D01*
X040727Y015753D02*
X040727Y015513D01*
X040231Y015753D02*
X040171Y015813D01*
X040051Y015813D01*
X039991Y015753D01*
X038547Y015931D02*
X038547Y016231D01*
X037049Y016853D02*
X037049Y016913D01*
X036989Y016973D01*
X036809Y016973D01*
X036809Y016853D01*
X036869Y016793D01*
X036989Y016793D01*
X037049Y016853D01*
X036929Y017093D02*
X037049Y017153D01*
X036929Y017093D02*
X036809Y016973D01*
X036681Y016793D02*
X036440Y016793D01*
X036560Y016793D02*
X036560Y017153D01*
X036440Y017033D01*
X036312Y017153D02*
X036312Y016853D01*
X036252Y016793D01*
X036132Y016793D01*
X036072Y016853D01*
X036072Y017153D01*
X035982Y016181D02*
X035742Y016181D01*
X035862Y016181D02*
X035862Y015821D01*
X036110Y015821D02*
X036110Y016061D01*
X036230Y016181D01*
X036351Y016061D01*
X036351Y015821D01*
X036479Y015881D02*
X036539Y015821D01*
X036659Y015821D01*
X036719Y015881D01*
X036719Y016001D01*
X036599Y016001D01*
X036719Y016121D02*
X036659Y016181D01*
X036539Y016181D01*
X036479Y016121D01*
X036479Y015881D01*
X036351Y016001D02*
X036110Y016001D01*
X035614Y016181D02*
X035494Y016181D01*
X035554Y016181D02*
X035554Y015881D01*
X035494Y015821D01*
X035434Y015821D01*
X035374Y015881D01*
X037857Y019321D02*
X037977Y019321D01*
X038037Y019381D01*
X038165Y019501D02*
X038406Y019501D01*
X038534Y019561D02*
X038654Y019681D01*
X038654Y019321D01*
X038534Y019321D02*
X038774Y019321D01*
X038345Y019321D02*
X038345Y019681D01*
X038165Y019501D01*
X038037Y019621D02*
X037977Y019681D01*
X037857Y019681D01*
X037797Y019621D01*
X037797Y019381D01*
X037857Y019321D01*
X037938Y020041D02*
X038058Y020041D01*
X038118Y020101D01*
X038118Y020161D01*
X038058Y020221D01*
X037878Y020221D01*
X037878Y020101D01*
X037938Y020041D01*
X037878Y020221D02*
X037998Y020341D01*
X038118Y020401D01*
X038246Y020341D02*
X038306Y020401D01*
X038427Y020401D01*
X038487Y020341D01*
X038487Y020281D01*
X038246Y020041D01*
X038487Y020041D01*
X037750Y020101D02*
X037690Y020041D01*
X037570Y020041D01*
X037510Y020101D01*
X037510Y020341D01*
X037570Y020401D01*
X037690Y020401D01*
X037750Y020341D01*
X039271Y021233D02*
X039271Y021594D01*
X039451Y021594D01*
X039511Y021534D01*
X039511Y021413D01*
X039451Y021353D01*
X039271Y021353D01*
X039391Y021353D02*
X039511Y021233D01*
X039639Y021233D02*
X039639Y021293D01*
X039879Y021534D01*
X039879Y021594D01*
X039639Y021594D01*
X040007Y021534D02*
X040067Y021594D01*
X040187Y021594D01*
X040248Y021534D01*
X040248Y021473D01*
X040007Y021233D01*
X040248Y021233D01*
X040207Y022124D02*
X040448Y022124D01*
X040508Y022185D01*
X040508Y022305D01*
X040448Y022365D01*
X040448Y022493D02*
X040508Y022553D01*
X040508Y022673D01*
X040448Y022733D01*
X040388Y022733D01*
X040328Y022673D01*
X040328Y022493D01*
X040448Y022493D01*
X040328Y022493D02*
X040207Y022613D01*
X040147Y022733D01*
X040267Y022861D02*
X040147Y022981D01*
X040508Y022981D01*
X040508Y022861D02*
X040508Y023101D01*
X040207Y022365D02*
X040147Y022305D01*
X040147Y022185D01*
X040207Y022124D01*
X041932Y022221D02*
X042052Y022221D01*
X041992Y022221D02*
X041992Y022581D01*
X042052Y022581D02*
X041932Y022581D01*
X042180Y022521D02*
X042240Y022581D01*
X042360Y022581D01*
X042420Y022521D01*
X042549Y022521D02*
X042549Y022281D01*
X042609Y022221D01*
X042729Y022221D01*
X042789Y022281D01*
X042789Y022521D01*
X042729Y022581D01*
X042609Y022581D01*
X042549Y022521D01*
X042420Y022341D02*
X042360Y022401D01*
X042240Y022401D01*
X042180Y022461D01*
X042180Y022521D01*
X042180Y022281D02*
X042240Y022221D01*
X042360Y022221D01*
X042420Y022281D01*
X042420Y022341D01*
X042917Y022221D02*
X042917Y022581D01*
X043157Y022581D02*
X043157Y022221D01*
X043037Y022341D01*
X042917Y022221D01*
X042917Y021581D02*
X042917Y021221D01*
X043037Y021341D01*
X043157Y021221D01*
X043157Y021581D01*
X042789Y021581D02*
X042669Y021581D01*
X042729Y021581D02*
X042729Y021221D01*
X042789Y021221D02*
X042669Y021221D01*
X042543Y021281D02*
X042483Y021221D01*
X042363Y021221D01*
X042303Y021281D01*
X042175Y021281D02*
X042115Y021221D01*
X041995Y021221D01*
X041935Y021281D01*
X041935Y021521D01*
X041995Y021581D01*
X042115Y021581D01*
X042175Y021521D01*
X042175Y021281D01*
X042303Y021461D02*
X042303Y021521D01*
X042363Y021581D01*
X042483Y021581D01*
X042543Y021521D01*
X042483Y021401D02*
X042363Y021401D01*
X042303Y021461D01*
X042483Y021401D02*
X042543Y021341D01*
X042543Y021281D01*
X042483Y020581D02*
X042543Y020521D01*
X042543Y020281D01*
X042483Y020221D01*
X042363Y020221D01*
X042303Y020281D01*
X042303Y020521D01*
X042363Y020581D01*
X042483Y020581D01*
X042423Y020461D02*
X042303Y020581D01*
X042671Y020581D02*
X042791Y020461D01*
X042731Y020461D02*
X042911Y020461D01*
X042911Y020581D02*
X042911Y020221D01*
X042731Y020221D01*
X042671Y020281D01*
X042671Y020401D01*
X042731Y020461D01*
X043037Y020581D02*
X043157Y020581D01*
X043097Y020581D02*
X043097Y020221D01*
X043157Y020221D02*
X043037Y020221D01*
X042977Y019581D02*
X042917Y019521D01*
X042917Y019401D01*
X043037Y019401D01*
X043157Y019281D02*
X043157Y019521D01*
X043097Y019581D01*
X042977Y019581D01*
X042789Y019581D02*
X042789Y019221D01*
X042549Y019581D01*
X042549Y019221D01*
X042420Y019221D02*
X042240Y019221D01*
X042180Y019281D01*
X042180Y019521D01*
X042240Y019581D01*
X042420Y019581D01*
X042420Y019221D01*
X042917Y019281D02*
X042977Y019221D01*
X043097Y019221D01*
X043157Y019281D01*
X043097Y023221D02*
X043157Y023281D01*
X043157Y023341D01*
X043097Y023401D01*
X042977Y023401D01*
X042917Y023461D01*
X042917Y023521D01*
X042977Y023581D01*
X043097Y023581D01*
X043157Y023521D01*
X043097Y023221D02*
X042977Y023221D01*
X042917Y023281D01*
X042789Y023281D02*
X042789Y023521D01*
X042729Y023581D01*
X042609Y023581D01*
X042549Y023521D01*
X042420Y023581D02*
X042420Y023221D01*
X042549Y023281D02*
X042609Y023221D01*
X042729Y023221D01*
X042789Y023281D01*
X042420Y023461D02*
X042180Y023221D01*
X042360Y023401D02*
X042180Y023581D01*
X041727Y023713D02*
X041727Y023833D01*
X041667Y023893D01*
X041667Y024021D02*
X041727Y024081D01*
X041727Y024201D01*
X041667Y024262D01*
X041547Y024262D01*
X041487Y024201D01*
X041487Y024141D01*
X041547Y024021D01*
X041367Y024021D01*
X041367Y024262D01*
X041427Y024390D02*
X041367Y024450D01*
X041367Y024570D01*
X041427Y024630D01*
X041487Y024630D01*
X041547Y024570D01*
X041607Y024630D01*
X041667Y024630D01*
X041727Y024570D01*
X041727Y024450D01*
X041667Y024390D01*
X041547Y024510D02*
X041547Y024570D01*
X041106Y024511D02*
X041106Y024391D01*
X041046Y024330D01*
X040926Y024330D02*
X040866Y024451D01*
X040866Y024511D01*
X040926Y024571D01*
X041046Y024571D01*
X041106Y024511D01*
X041046Y024699D02*
X041106Y024759D01*
X041106Y024879D01*
X041046Y024939D01*
X040986Y024939D01*
X040926Y024879D01*
X040926Y024699D01*
X041046Y024699D01*
X040926Y024699D02*
X040806Y024819D01*
X040746Y024939D01*
X040746Y024571D02*
X040746Y024330D01*
X040926Y024330D01*
X040806Y024202D02*
X040746Y024142D01*
X040746Y024022D01*
X040806Y023962D01*
X041046Y023962D01*
X041106Y024022D01*
X041106Y024142D01*
X041046Y024202D01*
X041367Y023833D02*
X041367Y023713D01*
X041427Y023653D01*
X041667Y023653D01*
X041727Y023713D01*
X041427Y023893D02*
X041367Y023833D01*
X042180Y024221D02*
X042180Y024581D01*
X042420Y024221D01*
X042420Y024581D01*
X042549Y024521D02*
X042609Y024581D01*
X042729Y024581D01*
X042789Y024521D01*
X042917Y024521D02*
X042977Y024581D01*
X043097Y024581D01*
X043157Y024521D01*
X043157Y024281D01*
X043097Y024221D01*
X042977Y024221D01*
X042917Y024281D01*
X042789Y024281D02*
X042789Y024341D01*
X042729Y024401D01*
X042609Y024401D01*
X042549Y024461D01*
X042549Y024521D01*
X042549Y024281D02*
X042609Y024221D01*
X042729Y024221D01*
X042789Y024281D01*
X042789Y025221D02*
X042549Y025221D01*
X042669Y025401D02*
X042789Y025401D01*
X042917Y025521D02*
X042977Y025581D01*
X043097Y025581D01*
X043157Y025521D01*
X043157Y025281D01*
X043097Y025221D01*
X042977Y025221D01*
X042917Y025281D01*
X042789Y025221D02*
X042789Y025581D01*
X042549Y025581D01*
X042609Y026221D02*
X042729Y026221D01*
X042789Y026281D01*
X042789Y026521D01*
X042729Y026581D01*
X042609Y026581D01*
X042549Y026521D01*
X042420Y026521D02*
X042360Y026581D01*
X042240Y026581D01*
X042180Y026521D01*
X042420Y026521D02*
X042420Y026281D01*
X042360Y026221D01*
X042240Y026221D01*
X042180Y026281D01*
X042549Y026281D02*
X042609Y026221D01*
X042917Y026221D02*
X042917Y026461D01*
X043037Y026581D01*
X043157Y026461D01*
X043157Y026221D01*
X043177Y027071D02*
X043484Y027378D01*
X043484Y027455D01*
X043407Y027532D01*
X043253Y027532D01*
X043177Y027455D01*
X043023Y027532D02*
X043023Y027148D01*
X042947Y027071D01*
X042793Y027071D01*
X042716Y027148D01*
X042716Y027532D01*
X042563Y027532D02*
X042256Y027532D01*
X042256Y027071D01*
X042256Y027301D02*
X042409Y027301D01*
X043177Y027071D02*
X043484Y027071D01*
X039700Y025651D02*
X039393Y025651D01*
X039547Y025651D02*
X039547Y026112D01*
X039393Y025958D01*
X039240Y026112D02*
X039240Y025728D01*
X039163Y025651D01*
X039010Y025651D01*
X038933Y025728D01*
X038933Y026112D01*
X038779Y026112D02*
X038473Y026112D01*
X038473Y025651D01*
X038473Y025882D02*
X038626Y025882D01*
X038585Y024781D02*
X038465Y024661D01*
X038585Y024781D02*
X038585Y024421D01*
X038465Y024421D02*
X038706Y024421D01*
X038834Y024421D02*
X039074Y024661D01*
X039074Y024721D01*
X039014Y024781D01*
X038894Y024781D01*
X038834Y024721D01*
X038834Y024421D02*
X039074Y024421D01*
X038337Y024481D02*
X038337Y024781D01*
X038097Y024781D02*
X038097Y024481D01*
X038157Y024421D01*
X038277Y024421D01*
X038337Y024481D01*
X037407Y024043D02*
X037407Y023802D01*
X037407Y023923D02*
X037047Y023923D01*
X037167Y023802D01*
X037167Y023674D02*
X037107Y023674D01*
X037047Y023614D01*
X037047Y023494D01*
X037107Y023434D01*
X037107Y023306D02*
X037047Y023246D01*
X037047Y023066D01*
X037407Y023066D01*
X037407Y023246D01*
X037347Y023306D01*
X037107Y023306D01*
X037407Y023434D02*
X037167Y023674D01*
X037407Y023674D02*
X037407Y023434D01*
X037217Y024620D02*
X037097Y024620D01*
X037037Y024680D01*
X037037Y024740D01*
X037097Y024800D01*
X037217Y024800D01*
X037278Y024740D01*
X037278Y024680D01*
X037217Y024620D01*
X037217Y024800D02*
X037278Y024860D01*
X037278Y024920D01*
X037217Y024980D01*
X037097Y024980D01*
X037037Y024920D01*
X037037Y024860D01*
X037097Y024800D01*
X036909Y024800D02*
X036669Y024800D01*
X036849Y024980D01*
X036849Y024620D01*
X036541Y024680D02*
X036481Y024620D01*
X036361Y024620D01*
X036301Y024680D01*
X036301Y024920D01*
X036361Y024980D01*
X036481Y024980D01*
X036541Y024920D01*
X035449Y023821D02*
X035449Y023761D01*
X035389Y023701D01*
X035269Y023701D01*
X035209Y023761D01*
X035209Y023821D01*
X035269Y023881D01*
X035389Y023881D01*
X035449Y023821D01*
X035389Y023701D02*
X035449Y023641D01*
X035449Y023581D01*
X035389Y023521D01*
X035269Y023521D01*
X035209Y023581D01*
X035209Y023641D01*
X035269Y023701D01*
X035081Y023521D02*
X034841Y023521D01*
X034961Y023521D02*
X034961Y023881D01*
X034841Y023761D01*
X034713Y023821D02*
X034653Y023881D01*
X034472Y023881D01*
X034472Y023521D01*
X034653Y023521D01*
X034713Y023581D01*
X034713Y023821D01*
X031924Y024644D02*
X031924Y025105D01*
X031771Y025105D02*
X032078Y025105D01*
X031618Y025028D02*
X031618Y024721D01*
X031541Y024644D01*
X031387Y024644D01*
X031311Y024721D01*
X031311Y025028D01*
X031387Y025105D01*
X031541Y025105D01*
X031618Y025028D01*
X031157Y025105D02*
X031004Y024951D01*
X030850Y025105D01*
X030850Y024644D01*
X030697Y024721D02*
X030620Y024644D01*
X030390Y024644D01*
X030390Y025105D01*
X030620Y025105D01*
X030697Y025028D01*
X030697Y024721D01*
X031157Y024644D02*
X031157Y025105D01*
X029865Y024122D02*
X029805Y024182D01*
X029685Y024182D01*
X029625Y024122D01*
X029625Y024062D01*
X029685Y024002D01*
X029865Y024002D01*
X029865Y024122D02*
X029865Y023881D01*
X029805Y023821D01*
X029685Y023821D01*
X029625Y023881D01*
X029497Y023881D02*
X029437Y023821D01*
X029317Y023821D01*
X029257Y023881D01*
X029129Y023881D02*
X029069Y023821D01*
X028948Y023821D01*
X028888Y023881D01*
X028888Y024122D01*
X028948Y024182D01*
X029069Y024182D01*
X029129Y024122D01*
X029257Y024122D02*
X029317Y024182D01*
X029437Y024182D01*
X029497Y024122D01*
X029497Y024062D01*
X029437Y024002D01*
X029497Y023942D01*
X029497Y023881D01*
X029437Y024002D02*
X029377Y024002D01*
X033160Y021421D02*
X033220Y021481D01*
X033341Y021481D01*
X033401Y021421D01*
X033401Y021181D01*
X033341Y021121D01*
X033220Y021121D01*
X033160Y021181D01*
X033160Y021421D01*
X033280Y021241D02*
X033401Y021121D01*
X033529Y021301D02*
X033769Y021301D01*
X033709Y021121D02*
X033709Y021481D01*
X033529Y021301D01*
X034160Y020231D02*
X034160Y019871D01*
X034401Y019871D01*
X034529Y019871D02*
X034529Y019931D01*
X034769Y020171D01*
X034769Y020231D01*
X034529Y020231D01*
X027909Y020719D02*
X027669Y020719D01*
X027909Y020959D01*
X027909Y021019D01*
X027849Y021079D01*
X027729Y021079D01*
X027669Y021019D01*
X027541Y021079D02*
X027541Y020779D01*
X027481Y020719D01*
X027361Y020719D01*
X027301Y020779D01*
X027301Y021079D01*
X024657Y022394D02*
X024597Y022334D01*
X024357Y022334D01*
X024297Y022394D01*
X024297Y022514D01*
X024357Y022574D01*
X024597Y022574D01*
X024657Y022514D01*
X024657Y022394D01*
X024537Y022454D02*
X024657Y022574D01*
X024657Y022702D02*
X024417Y022943D01*
X024357Y022943D01*
X024297Y022883D01*
X024297Y022763D01*
X024357Y022702D01*
X024657Y022702D02*
X024657Y022943D01*
X024309Y024821D02*
X024189Y024821D01*
X024129Y024881D01*
X024001Y024881D02*
X024001Y025181D01*
X024129Y025121D02*
X024189Y025181D01*
X024309Y025181D01*
X024369Y025121D01*
X024369Y025061D01*
X024309Y025001D01*
X024369Y024941D01*
X024369Y024881D01*
X024309Y024821D01*
X024309Y025001D02*
X024249Y025001D01*
X024001Y024881D02*
X023941Y024821D01*
X023820Y024821D01*
X023760Y024881D01*
X023760Y025181D01*
X023547Y025366D02*
X023607Y025426D01*
X023607Y025546D01*
X023547Y025606D01*
X023547Y025734D02*
X023607Y025794D01*
X023607Y025914D01*
X023547Y025974D01*
X023487Y025974D01*
X023427Y025914D01*
X023427Y025854D01*
X023427Y025914D02*
X023367Y025974D01*
X023307Y025974D01*
X023247Y025914D01*
X023247Y025794D01*
X023307Y025734D01*
X023307Y025606D02*
X023247Y025546D01*
X023247Y025426D01*
X023307Y025366D01*
X023547Y025366D01*
X023607Y026102D02*
X023607Y026343D01*
X023607Y026223D02*
X023247Y026223D01*
X023367Y026102D01*
X024107Y027921D02*
X024347Y027921D01*
X024407Y027981D01*
X024407Y028101D01*
X024347Y028161D01*
X024447Y028105D02*
X024447Y027985D01*
X024507Y027924D01*
X024748Y027924D01*
X024808Y027985D01*
X024808Y028105D01*
X024748Y028165D01*
X024808Y028293D02*
X024567Y028533D01*
X024507Y028533D01*
X024447Y028473D01*
X024447Y028353D01*
X024507Y028293D01*
X024407Y028289D02*
X024167Y028529D01*
X024107Y028529D01*
X024047Y028469D01*
X024047Y028349D01*
X024107Y028289D01*
X024107Y028161D02*
X024047Y028101D01*
X024047Y027981D01*
X024107Y027921D01*
X024447Y028105D02*
X024507Y028165D01*
X024407Y028289D02*
X024407Y028529D01*
X024347Y028657D02*
X024407Y028717D01*
X024407Y028838D01*
X024347Y028898D01*
X024287Y028898D01*
X024227Y028838D01*
X024227Y028657D01*
X024347Y028657D01*
X024447Y028721D02*
X024447Y028841D01*
X024507Y028901D01*
X024567Y028901D01*
X024628Y028841D01*
X024688Y028901D01*
X024748Y028901D01*
X024808Y028841D01*
X024808Y028721D01*
X024748Y028661D01*
X024808Y028533D02*
X024808Y028293D01*
X024507Y028661D02*
X024447Y028721D01*
X024628Y028781D02*
X024628Y028841D01*
X024227Y028657D02*
X024107Y028777D01*
X024047Y028898D01*
X025151Y029530D02*
X025211Y029470D01*
X025331Y029470D01*
X025391Y029530D01*
X025519Y029470D02*
X025759Y029710D01*
X025759Y029770D01*
X025699Y029830D01*
X025579Y029830D01*
X025519Y029770D01*
X025391Y029770D02*
X025331Y029830D01*
X025211Y029830D01*
X025151Y029770D01*
X025151Y029530D01*
X025519Y029470D02*
X025759Y029470D01*
X025887Y029650D02*
X026128Y029650D01*
X026067Y029470D02*
X026067Y029830D01*
X025887Y029650D01*
X025884Y029921D02*
X025884Y029981D01*
X026124Y030221D01*
X026124Y030281D01*
X025884Y030281D01*
X025635Y030281D02*
X025635Y029921D01*
X025515Y029921D02*
X025756Y029921D01*
X025515Y030161D02*
X025635Y030281D01*
X025387Y030281D02*
X025387Y029981D01*
X025327Y029921D01*
X025207Y029921D01*
X025147Y029981D01*
X025147Y030281D01*
X026519Y029875D02*
X026519Y029634D01*
X026579Y029574D01*
X026699Y029574D01*
X026759Y029634D01*
X026887Y029754D02*
X027127Y029754D01*
X027255Y029754D02*
X027495Y029754D01*
X027435Y029574D02*
X027435Y029935D01*
X027255Y029754D01*
X027067Y029574D02*
X027067Y029935D01*
X026887Y029754D01*
X026759Y029875D02*
X026699Y029935D01*
X026579Y029935D01*
X026519Y029875D01*
X029097Y029881D02*
X029157Y029821D01*
X029217Y029821D01*
X029277Y029881D01*
X029277Y030181D01*
X029217Y030181D02*
X029337Y030181D01*
X029465Y030061D02*
X029585Y030181D01*
X029585Y029821D01*
X029465Y029821D02*
X029706Y029821D01*
X021865Y029981D02*
X021805Y029921D01*
X021685Y029921D01*
X021625Y029981D01*
X021497Y029981D02*
X021497Y030042D01*
X021437Y030102D01*
X021257Y030102D01*
X021257Y029981D01*
X021317Y029921D01*
X021437Y029921D01*
X021497Y029981D01*
X021257Y030102D02*
X021377Y030222D01*
X021497Y030282D01*
X021625Y030222D02*
X021685Y030282D01*
X021805Y030282D01*
X021865Y030222D01*
X021865Y030162D01*
X021805Y030102D01*
X021865Y030042D01*
X021865Y029981D01*
X021805Y030102D02*
X021745Y030102D01*
X021555Y029682D02*
X021375Y029502D01*
X021615Y029502D01*
X021555Y029682D02*
X021555Y029321D01*
X021247Y029381D02*
X021247Y029442D01*
X021187Y029502D01*
X021007Y029502D01*
X021007Y029381D01*
X021067Y029321D01*
X021187Y029321D01*
X021247Y029381D01*
X021007Y029502D02*
X021127Y029622D01*
X021247Y029682D01*
X021069Y029921D02*
X021129Y029981D01*
X021069Y029921D02*
X020948Y029921D01*
X020888Y029981D01*
X020888Y030222D01*
X020948Y030282D01*
X021069Y030282D01*
X021129Y030222D01*
X020495Y030161D02*
X020495Y030041D01*
X020434Y029981D01*
X020495Y029853D02*
X020495Y029613D01*
X020495Y029733D02*
X020134Y029733D01*
X020254Y029613D01*
X020194Y029485D02*
X020314Y029485D01*
X020374Y029425D01*
X020374Y029244D01*
X020495Y029244D02*
X020134Y029244D01*
X020134Y029425D01*
X020194Y029485D01*
X020374Y029365D02*
X020495Y029485D01*
X020638Y029381D02*
X020638Y029622D01*
X020698Y029682D01*
X020819Y029682D01*
X020879Y029622D01*
X020879Y029381D02*
X020819Y029321D01*
X020698Y029321D01*
X020638Y029381D01*
X020194Y029981D02*
X020134Y030041D01*
X020134Y030161D01*
X020194Y030221D01*
X020254Y030221D01*
X020314Y030161D01*
X020374Y030221D01*
X020434Y030221D01*
X020495Y030161D01*
X020314Y030161D02*
X020314Y030101D01*
X019095Y030038D02*
X018855Y030038D01*
X019035Y030219D01*
X019035Y029858D01*
X018727Y029858D02*
X018487Y029858D01*
X018607Y029858D02*
X018607Y030219D01*
X018487Y030099D01*
X018359Y030159D02*
X018359Y030038D01*
X018299Y029978D01*
X018118Y029978D01*
X018118Y029858D02*
X018118Y030219D01*
X018299Y030219D01*
X018359Y030159D01*
X018238Y029978D02*
X018359Y029858D01*
X016958Y028691D02*
X016958Y028571D01*
X016898Y028511D01*
X016778Y028511D02*
X016717Y028631D01*
X016717Y028691D01*
X016778Y028751D01*
X016898Y028751D01*
X016958Y028691D01*
X016778Y028511D02*
X016597Y028511D01*
X016597Y028751D01*
X016597Y028383D02*
X016657Y028263D01*
X016778Y028143D01*
X016778Y028323D01*
X016838Y028383D01*
X016898Y028383D01*
X016958Y028323D01*
X016958Y028203D01*
X016898Y028143D01*
X016778Y028143D01*
X016898Y028015D02*
X016958Y027955D01*
X016958Y027835D01*
X016898Y027774D01*
X016657Y027774D01*
X016597Y027835D01*
X016597Y027955D01*
X016657Y028015D01*
X017287Y027051D02*
X019067Y027051D01*
X019051Y027121D02*
X018810Y027121D01*
X018930Y027121D02*
X018930Y027481D01*
X018810Y027361D01*
X018682Y027481D02*
X018682Y027181D01*
X018622Y027121D01*
X018502Y027121D01*
X018442Y027181D01*
X018442Y027481D01*
X019179Y027421D02*
X019179Y027181D01*
X019419Y027421D01*
X019419Y027181D01*
X019359Y027121D01*
X019239Y027121D01*
X019179Y027181D01*
X019179Y027421D02*
X019239Y027481D01*
X019359Y027481D01*
X019419Y027421D01*
X019067Y025551D02*
X017287Y025551D01*
X017385Y025381D02*
X017385Y025021D01*
X017265Y025021D02*
X017506Y025021D01*
X017634Y025081D02*
X017694Y025021D01*
X017814Y025021D01*
X017874Y025081D01*
X017874Y025321D01*
X017814Y025381D01*
X017694Y025381D01*
X017634Y025321D01*
X017634Y025261D01*
X017694Y025201D01*
X017874Y025201D01*
X017959Y024719D02*
X018080Y024719D01*
X018140Y024659D01*
X018140Y024539D01*
X018080Y024479D01*
X017959Y024479D02*
X017899Y024599D01*
X017899Y024659D01*
X017959Y024719D01*
X017779Y024719D02*
X017779Y024479D01*
X017959Y024479D01*
X017959Y024351D02*
X018080Y024351D01*
X018140Y024291D01*
X018140Y024171D01*
X018080Y024110D01*
X017959Y024110D02*
X017899Y024231D01*
X017899Y024291D01*
X017959Y024351D01*
X017779Y024351D02*
X017779Y024110D01*
X017959Y024110D01*
X017959Y023982D02*
X018019Y023922D01*
X018019Y023742D01*
X018019Y023862D02*
X018140Y023982D01*
X017959Y023982D02*
X017839Y023982D01*
X017779Y023922D01*
X017779Y023742D01*
X018140Y023742D01*
X018504Y023744D02*
X018504Y023925D01*
X018564Y023985D01*
X018684Y023985D01*
X018744Y023925D01*
X018744Y023744D01*
X018864Y023744D02*
X018504Y023744D01*
X018744Y023865D02*
X018864Y023985D01*
X018804Y024113D02*
X018864Y024173D01*
X018864Y024293D01*
X018804Y024353D01*
X018684Y024353D01*
X018624Y024293D01*
X018624Y024233D01*
X018684Y024113D01*
X018504Y024113D01*
X018504Y024353D01*
X018624Y024481D02*
X018504Y024601D01*
X018864Y024601D01*
X018864Y024481D02*
X018864Y024721D01*
X017385Y025381D02*
X017265Y025261D01*
X017137Y025321D02*
X017077Y025381D01*
X016897Y025381D01*
X016897Y025021D01*
X017077Y025021D01*
X017137Y025081D01*
X017137Y025321D01*
X017127Y024750D02*
X017006Y024750D01*
X016946Y024690D01*
X016946Y024630D01*
X017006Y024570D01*
X017127Y024570D01*
X017187Y024510D01*
X017187Y024450D01*
X017127Y024390D01*
X017006Y024390D01*
X016946Y024450D01*
X016946Y024510D01*
X017006Y024570D01*
X017127Y024570D02*
X017187Y024630D01*
X017187Y024690D01*
X017127Y024750D01*
X016818Y024390D02*
X016578Y024390D01*
X016578Y024750D01*
X016537Y023869D02*
X016537Y023688D01*
X016657Y023749D01*
X016717Y023749D01*
X016777Y023688D01*
X016777Y023568D01*
X016717Y023508D01*
X016597Y023508D01*
X016537Y023568D01*
X016409Y023508D02*
X016288Y023628D01*
X016349Y023628D02*
X016168Y023628D01*
X016168Y023508D02*
X016168Y023869D01*
X016349Y023869D01*
X016409Y023809D01*
X016409Y023688D01*
X016349Y023628D01*
X016537Y023869D02*
X016777Y023869D01*
X016905Y023809D02*
X016905Y023749D01*
X016965Y023688D01*
X017085Y023688D01*
X017145Y023628D01*
X017145Y023568D01*
X017085Y023508D01*
X016965Y023508D01*
X016905Y023568D01*
X016905Y023628D01*
X016965Y023688D01*
X017085Y023688D02*
X017145Y023749D01*
X017145Y023809D01*
X017085Y023869D01*
X016965Y023869D01*
X016905Y023809D01*
X017768Y022419D02*
X017949Y022419D01*
X018009Y022359D01*
X018009Y022238D01*
X017949Y022178D01*
X017768Y022178D01*
X017768Y022058D02*
X017768Y022419D01*
X017888Y022178D02*
X018009Y022058D01*
X017931Y021980D02*
X017811Y021980D01*
X017751Y021920D01*
X017751Y021680D01*
X017811Y021620D01*
X017931Y021620D01*
X017991Y021680D01*
X018119Y021620D02*
X018359Y021620D01*
X018239Y021620D02*
X018239Y021980D01*
X018119Y021860D01*
X017991Y021920D02*
X017931Y021980D01*
X018137Y022238D02*
X018317Y022419D01*
X018317Y022058D01*
X018505Y022058D02*
X018745Y022058D01*
X018625Y022058D02*
X018625Y022419D01*
X018505Y022299D01*
X018377Y022238D02*
X018137Y022238D01*
X018468Y021269D02*
X018649Y021269D01*
X018709Y021209D01*
X018709Y021088D01*
X018649Y021028D01*
X018468Y021028D01*
X018468Y020908D02*
X018468Y021269D01*
X018588Y021028D02*
X018709Y020908D01*
X018837Y021088D02*
X019077Y021088D01*
X019205Y021028D02*
X019265Y021088D01*
X019385Y021088D01*
X019445Y021028D01*
X019445Y020968D01*
X019385Y020908D01*
X019265Y020908D01*
X019205Y020968D01*
X019205Y021028D01*
X019265Y021088D02*
X019205Y021149D01*
X019205Y021209D01*
X019265Y021269D01*
X019385Y021269D01*
X019445Y021209D01*
X019445Y021149D01*
X019385Y021088D01*
X019017Y020908D02*
X019017Y021269D01*
X018837Y021088D01*
X018106Y020789D02*
X018106Y020549D01*
X017866Y020789D01*
X017806Y020789D01*
X017746Y020729D01*
X017746Y020609D01*
X017806Y020549D01*
X017806Y020421D02*
X017746Y020361D01*
X017746Y020241D01*
X017806Y020180D01*
X018046Y020180D01*
X018106Y020241D01*
X018106Y020361D01*
X018046Y020421D01*
X018321Y019644D02*
X018501Y019644D01*
X018561Y019584D01*
X018561Y019463D01*
X018501Y019403D01*
X018321Y019403D01*
X018321Y019283D02*
X018321Y019644D01*
X018441Y019403D02*
X018561Y019283D01*
X018689Y019463D02*
X018929Y019463D01*
X019057Y019343D02*
X019298Y019584D01*
X019298Y019644D01*
X019057Y019644D01*
X018869Y019644D02*
X018689Y019463D01*
X018869Y019283D02*
X018869Y019644D01*
X019057Y019343D02*
X019057Y019283D01*
X020310Y020531D02*
X020370Y020471D01*
X020491Y020471D01*
X020551Y020531D01*
X020551Y020831D01*
X020679Y020651D02*
X020919Y020651D01*
X020859Y020471D02*
X020859Y020831D01*
X020679Y020651D01*
X020310Y020531D02*
X020310Y020831D01*
X013865Y023431D02*
X013865Y023672D01*
X013805Y023732D01*
X013685Y023732D01*
X013625Y023672D01*
X013625Y023612D01*
X013685Y023552D01*
X013865Y023552D01*
X013865Y023431D02*
X013805Y023371D01*
X013685Y023371D01*
X013625Y023431D01*
X013497Y023431D02*
X013437Y023371D01*
X013317Y023371D01*
X013257Y023431D01*
X013257Y023672D01*
X013317Y023732D01*
X013437Y023732D01*
X013497Y023672D01*
X011772Y024064D02*
X011532Y024064D01*
X011772Y024305D01*
X011772Y024365D01*
X011712Y024425D01*
X011592Y024425D01*
X011532Y024365D01*
X011404Y024365D02*
X011344Y024425D01*
X011164Y024425D01*
X011164Y024064D01*
X011344Y024064D01*
X011404Y024125D01*
X011404Y024365D01*
X010528Y024380D02*
X010287Y024380D01*
X010287Y024200D01*
X010407Y024260D01*
X010467Y024260D01*
X010528Y024200D01*
X010528Y024080D01*
X010467Y024020D01*
X010347Y024020D01*
X010287Y024080D01*
X010159Y024020D02*
X009919Y024020D01*
X010159Y024260D01*
X010159Y024320D01*
X010099Y024380D01*
X009979Y024380D01*
X009919Y024320D01*
X009791Y024320D02*
X009731Y024380D01*
X009611Y024380D01*
X009551Y024320D01*
X009551Y024080D01*
X009611Y024020D01*
X009731Y024020D01*
X009791Y024080D01*
X008806Y024099D02*
X008806Y024339D01*
X008806Y024219D02*
X008446Y024219D01*
X008566Y024099D01*
X008806Y023971D02*
X008806Y023730D01*
X008806Y023851D02*
X008446Y023851D01*
X008566Y023730D01*
X008506Y023602D02*
X008446Y023542D01*
X008446Y023422D01*
X008506Y023362D01*
X008746Y023362D01*
X008806Y023422D01*
X008806Y023542D01*
X008746Y023602D01*
X007122Y024614D02*
X006882Y024614D01*
X007002Y024614D02*
X007002Y024975D01*
X006882Y024855D01*
X006754Y024915D02*
X006694Y024975D01*
X006514Y024975D01*
X006514Y024614D01*
X006694Y024614D01*
X006754Y024675D01*
X006754Y024915D01*
X007547Y025021D02*
X007727Y025021D01*
X007667Y025141D01*
X007667Y025201D01*
X007727Y025261D01*
X007847Y025261D01*
X007907Y025201D01*
X007907Y025081D01*
X007847Y025021D01*
X007547Y025021D02*
X007547Y025261D01*
X007727Y026021D02*
X007547Y026201D01*
X007907Y026201D01*
X007727Y026261D02*
X007727Y026021D01*
X007847Y027021D02*
X007907Y027081D01*
X007907Y027201D01*
X007847Y027261D01*
X007787Y027261D01*
X007727Y027201D01*
X007727Y027141D01*
X007727Y027201D02*
X007667Y027261D01*
X007607Y027261D01*
X007547Y027201D01*
X007547Y027081D01*
X007607Y027021D01*
X007607Y028021D02*
X007547Y028081D01*
X007547Y028201D01*
X007607Y028261D01*
X007667Y028261D01*
X007907Y028021D01*
X007907Y028261D01*
X007907Y029021D02*
X007907Y029261D01*
X007907Y029141D02*
X007547Y029141D01*
X007667Y029021D01*
X007607Y030021D02*
X007547Y030081D01*
X007547Y030201D01*
X007607Y030261D01*
X007847Y030021D01*
X007907Y030081D01*
X007907Y030201D01*
X007847Y030261D01*
X007607Y030261D01*
X007607Y030021D02*
X007847Y030021D01*
X008557Y030821D02*
X008497Y030881D01*
X008497Y031001D01*
X008557Y031061D01*
X008677Y031001D02*
X008737Y031061D01*
X008797Y031061D01*
X008857Y031001D01*
X008857Y030881D01*
X008797Y030821D01*
X008677Y030881D02*
X008677Y031001D01*
X008677Y030881D02*
X008617Y030821D01*
X008557Y030821D01*
X009007Y031421D02*
X008947Y031481D01*
X009007Y031421D02*
X009127Y031421D01*
X009187Y031481D01*
X009187Y031541D01*
X009127Y031601D01*
X009007Y031601D01*
X008947Y031661D01*
X008947Y031721D01*
X009007Y031781D01*
X009127Y031781D01*
X009187Y031721D01*
X009315Y031781D02*
X009315Y031421D01*
X009556Y031421D01*
X009684Y031421D02*
X009684Y031781D01*
X009864Y031781D01*
X009924Y031721D01*
X009924Y031601D01*
X009864Y031541D01*
X009684Y031541D01*
X009804Y031541D02*
X009924Y031421D01*
X010052Y031541D02*
X010172Y031421D01*
X010292Y031541D01*
X010292Y031781D01*
X010420Y031721D02*
X010420Y031481D01*
X010480Y031421D01*
X010600Y031421D01*
X010660Y031481D01*
X010660Y031721D01*
X010600Y031781D01*
X010480Y031781D01*
X010420Y031721D01*
X010052Y031781D02*
X010052Y031541D01*
X009556Y031781D02*
X009315Y031781D01*
X009315Y031601D02*
X009435Y031601D01*
X009677Y031061D02*
X009677Y030821D01*
X009557Y030941D02*
X009797Y030941D01*
X010677Y030821D02*
X010677Y031061D01*
X011297Y030548D02*
X011297Y030307D01*
X011477Y030307D01*
X011417Y030427D01*
X011417Y030488D01*
X011477Y030548D01*
X011597Y030548D01*
X011657Y030488D01*
X011657Y030367D01*
X011597Y030307D01*
X011657Y030179D02*
X011657Y029939D01*
X011657Y030059D02*
X011297Y030059D01*
X011417Y029939D01*
X011297Y029811D02*
X011297Y029691D01*
X011297Y029751D02*
X011597Y029751D01*
X011657Y029691D01*
X011657Y029631D01*
X011597Y029571D01*
X011607Y029438D02*
X011247Y029438D01*
X011427Y029257D01*
X011427Y029498D01*
X011607Y029129D02*
X011607Y028889D01*
X011607Y029009D02*
X011247Y029009D01*
X011367Y028889D01*
X011247Y028761D02*
X011247Y028641D01*
X011247Y028701D02*
X011547Y028701D01*
X011607Y028641D01*
X011607Y028581D01*
X011547Y028521D01*
X014734Y029044D02*
X014734Y029225D01*
X014794Y029285D01*
X014914Y029285D01*
X014974Y029225D01*
X014974Y029044D01*
X015095Y029044D02*
X014734Y029044D01*
X014974Y029165D02*
X015095Y029285D01*
X015095Y029413D02*
X015095Y029653D01*
X015095Y029533D02*
X014734Y029533D01*
X014854Y029413D01*
X014914Y029781D02*
X014854Y029901D01*
X014854Y029961D01*
X014914Y030021D01*
X015034Y030021D01*
X015095Y029961D01*
X015095Y029841D01*
X015034Y029781D01*
X014914Y029781D02*
X014734Y029781D01*
X014734Y030021D01*
X014857Y031471D02*
X014977Y031471D01*
X015037Y031531D01*
X015165Y031531D02*
X015225Y031471D01*
X015345Y031471D01*
X015406Y031531D01*
X015406Y031651D01*
X015345Y031711D01*
X015285Y031711D01*
X015165Y031651D01*
X015165Y031831D01*
X015406Y031831D01*
X015534Y031771D02*
X015534Y031711D01*
X015594Y031651D01*
X015774Y031651D01*
X015774Y031771D02*
X015714Y031831D01*
X015594Y031831D01*
X015534Y031771D01*
X015774Y031771D02*
X015774Y031531D01*
X015714Y031471D01*
X015594Y031471D01*
X015534Y031531D01*
X015037Y031771D02*
X014977Y031831D01*
X014857Y031831D01*
X014797Y031771D01*
X014797Y031531D01*
X014857Y031471D01*
X007073Y031241D02*
X007073Y031000D01*
X006893Y031000D01*
X006832Y031060D01*
X006832Y031241D01*
X006704Y031241D02*
X006524Y031241D01*
X006464Y031180D01*
X006464Y031060D01*
X006524Y031000D01*
X006704Y031000D01*
X006704Y031361D01*
X006336Y031180D02*
X006336Y031120D01*
X006096Y031120D01*
X006096Y031060D02*
X006096Y031180D01*
X006156Y031241D01*
X006276Y031241D01*
X006336Y031180D01*
X006276Y031000D02*
X006156Y031000D01*
X006096Y031060D01*
X005972Y031060D02*
X005972Y031000D01*
X005912Y031000D01*
X005912Y031060D01*
X005972Y031060D01*
X005786Y031000D02*
X005726Y031060D01*
X005726Y031301D01*
X005666Y031241D02*
X005786Y031241D01*
X005481Y031241D02*
X005481Y031000D01*
X005421Y031000D02*
X005541Y031000D01*
X005481Y031241D02*
X005421Y031241D01*
X005481Y031361D02*
X005481Y031421D01*
X005293Y031180D02*
X005293Y031000D01*
X005172Y031000D02*
X005172Y031180D01*
X005233Y031241D01*
X005293Y031180D01*
X005172Y031180D02*
X005112Y031241D01*
X005052Y031241D01*
X005052Y031000D01*
X004924Y031060D02*
X004864Y031000D01*
X004744Y031000D01*
X004684Y031060D01*
X004684Y031301D01*
X004744Y031361D01*
X004864Y031361D01*
X004924Y031301D01*
X004924Y031180D01*
X004864Y031120D01*
X004864Y031241D01*
X004744Y031241D01*
X004744Y031120D01*
X004864Y031120D01*
X004556Y031060D02*
X004556Y031301D01*
X004316Y031060D01*
X004376Y031000D01*
X004496Y031000D01*
X004556Y031060D01*
X004316Y031060D02*
X004316Y031301D01*
X004376Y031361D01*
X004496Y031361D01*
X004556Y031301D01*
X004188Y031301D02*
X003947Y031060D01*
X003947Y031000D01*
X003819Y031000D02*
X003579Y031000D01*
X003819Y031241D01*
X003819Y031301D01*
X003759Y031361D01*
X003639Y031361D01*
X003579Y031301D01*
X003455Y031060D02*
X003455Y031000D01*
X003395Y031000D01*
X003395Y031060D01*
X003455Y031060D01*
X003267Y031060D02*
X003267Y031120D01*
X003207Y031180D01*
X003027Y031180D01*
X003027Y031060D01*
X003087Y031000D01*
X003207Y031000D01*
X003267Y031060D01*
X003027Y031180D02*
X003147Y031301D01*
X003267Y031361D01*
X003947Y031361D02*
X004188Y031361D01*
X004188Y031301D01*
X004129Y030506D02*
X004309Y030506D01*
X004369Y030446D01*
X004369Y030326D01*
X004309Y030266D01*
X004129Y030266D01*
X004129Y030146D02*
X004129Y030506D01*
X004001Y030446D02*
X003941Y030506D01*
X003760Y030506D01*
X003760Y030146D01*
X003760Y030266D02*
X003941Y030266D01*
X004001Y030326D01*
X004001Y030446D01*
X003632Y030446D02*
X003572Y030506D01*
X003452Y030506D01*
X003452Y030386D02*
X003632Y030386D01*
X003632Y030446D02*
X003632Y030266D01*
X003452Y030266D01*
X003392Y030326D01*
X003452Y030386D01*
X003264Y030446D02*
X003024Y030446D01*
X003024Y030266D02*
X003024Y030626D01*
X003264Y030626D02*
X003264Y030266D01*
X003472Y029770D02*
X003592Y029770D01*
X003652Y029710D01*
X003412Y029470D01*
X003472Y029410D01*
X003592Y029410D01*
X003652Y029470D01*
X003652Y029710D01*
X003472Y029770D02*
X003412Y029710D01*
X003412Y029470D01*
X003284Y029650D02*
X003164Y029410D01*
X003043Y029650D01*
X003780Y029470D02*
X003780Y029410D01*
X003840Y029410D01*
X003840Y029470D01*
X003780Y029470D01*
X003964Y029470D02*
X004024Y029410D01*
X004144Y029410D01*
X004204Y029470D01*
X004204Y029530D01*
X004144Y029590D01*
X003964Y029590D01*
X003964Y029470D01*
X003964Y029590D02*
X004084Y029710D01*
X004204Y029770D01*
X004333Y029590D02*
X004513Y029590D01*
X004573Y029530D01*
X004573Y029470D01*
X004513Y029410D01*
X004393Y029410D01*
X004333Y029470D01*
X004333Y029590D01*
X004453Y029710D01*
X004573Y029770D01*
X004617Y030146D02*
X004677Y030146D01*
X004737Y030206D01*
X004737Y030506D01*
X004865Y030446D02*
X005045Y030446D01*
X005106Y030386D01*
X005106Y030326D01*
X005045Y030266D01*
X004865Y030266D01*
X004865Y030626D01*
X005045Y030626D01*
X005106Y030566D01*
X005106Y030506D01*
X005045Y030446D01*
X005234Y030446D02*
X005294Y030506D01*
X005414Y030506D01*
X005474Y030446D01*
X005474Y030326D01*
X005414Y030266D01*
X005294Y030266D01*
X005234Y030326D01*
X005234Y030446D01*
X005602Y030326D02*
X005662Y030386D01*
X005842Y030386D01*
X005842Y030446D02*
X005842Y030266D01*
X005662Y030266D01*
X005602Y030326D01*
X005662Y030506D02*
X005782Y030506D01*
X005842Y030446D01*
X005970Y030386D02*
X006090Y030506D01*
X006150Y030506D01*
X006277Y030446D02*
X006337Y030506D01*
X006517Y030506D01*
X006517Y030626D02*
X006517Y030266D01*
X006337Y030266D01*
X006277Y030326D01*
X006277Y030446D01*
X005970Y030506D02*
X005970Y030266D01*
X004737Y030266D02*
X004557Y030266D01*
X004497Y030326D01*
X004497Y030506D01*
X004285Y028369D02*
X004165Y028369D01*
X004105Y028309D01*
X003977Y028309D02*
X003977Y028188D01*
X003917Y028128D01*
X003737Y028128D01*
X003737Y028008D02*
X003737Y028369D01*
X003917Y028369D01*
X003977Y028309D01*
X003857Y028128D02*
X003977Y028008D01*
X004105Y028008D02*
X004345Y028249D01*
X004345Y028309D01*
X004285Y028369D01*
X004345Y028008D02*
X004105Y028008D01*
X004347Y027081D02*
X004527Y027081D01*
X004587Y027021D01*
X004587Y026781D01*
X004527Y026721D01*
X004347Y026721D01*
X004347Y027081D01*
X004715Y026901D02*
X004895Y026901D01*
X004956Y026841D01*
X004956Y026781D01*
X004895Y026721D01*
X004775Y026721D01*
X004715Y026781D01*
X004715Y026901D01*
X004835Y027021D01*
X004956Y027081D01*
X002807Y025781D02*
X002687Y025661D01*
X002807Y025541D01*
X002447Y025541D01*
X002507Y025412D02*
X002447Y025352D01*
X002447Y025232D01*
X002507Y025172D01*
X002747Y025172D01*
X002807Y025232D01*
X002807Y025352D01*
X002747Y025412D01*
X002507Y025412D01*
X002447Y025781D02*
X002807Y025781D01*
X002807Y025044D02*
X002807Y024804D01*
X002807Y024924D02*
X002447Y024924D01*
X002507Y024676D02*
X002747Y024436D01*
X002507Y024436D01*
X002447Y024496D01*
X002447Y024616D01*
X002507Y024676D01*
X002747Y024676D01*
X002807Y024616D01*
X002807Y024496D01*
X002747Y024436D01*
X004347Y024381D02*
X004347Y024021D01*
X004527Y024021D01*
X004587Y024081D01*
X004587Y024321D01*
X004527Y024381D01*
X004347Y024381D01*
X004715Y024381D02*
X004715Y024201D01*
X004835Y024261D01*
X004895Y024261D01*
X004956Y024201D01*
X004956Y024081D01*
X004895Y024021D01*
X004775Y024021D01*
X004715Y024081D01*
X004665Y023831D02*
X004665Y023651D01*
X004785Y023711D01*
X004845Y023711D01*
X004906Y023651D01*
X004906Y023531D01*
X004845Y023471D01*
X004725Y023471D01*
X004665Y023531D01*
X004477Y023531D02*
X004477Y023831D01*
X004417Y023831D02*
X004537Y023831D01*
X004665Y023831D02*
X004906Y023831D01*
X004477Y023531D02*
X004417Y023471D01*
X004357Y023471D01*
X004297Y023531D01*
X004715Y024381D02*
X004956Y024381D01*
X005884Y024471D02*
X005884Y024231D01*
X005884Y024103D02*
X005884Y023863D01*
X006064Y023863D01*
X006004Y023983D01*
X006004Y024043D01*
X006064Y024103D01*
X006184Y024103D01*
X006245Y024043D01*
X006245Y023923D01*
X006184Y023863D01*
X006245Y023735D02*
X006124Y023615D01*
X006124Y023675D02*
X006124Y023494D01*
X006245Y023494D02*
X005884Y023494D01*
X005884Y023675D01*
X005944Y023735D01*
X006064Y023735D01*
X006124Y023675D01*
X006184Y024231D02*
X006245Y024231D01*
X006184Y024231D02*
X005944Y024471D01*
X005884Y024471D01*
X005277Y022479D02*
X005277Y022239D01*
X005097Y022419D01*
X005457Y022419D01*
X005397Y022111D02*
X005157Y022111D01*
X005097Y022051D01*
X005097Y021871D01*
X005457Y021871D01*
X005457Y022051D01*
X005397Y022111D01*
X005397Y021379D02*
X005457Y021319D01*
X005457Y021199D01*
X005397Y021139D01*
X005397Y021011D02*
X005157Y021011D01*
X005097Y020951D01*
X005097Y020771D01*
X005457Y020771D01*
X005457Y020951D01*
X005397Y021011D01*
X005157Y021139D02*
X005097Y021199D01*
X005097Y021319D01*
X005157Y021379D01*
X005217Y021379D01*
X005277Y021319D01*
X005337Y021379D01*
X005397Y021379D01*
X005277Y021319D02*
X005277Y021259D01*
X005647Y020529D02*
X005647Y020289D01*
X005827Y020289D01*
X005767Y020409D01*
X005767Y020469D01*
X005827Y020529D01*
X005947Y020529D01*
X006007Y020469D01*
X006007Y020349D01*
X005947Y020289D01*
X005947Y020161D02*
X005647Y020161D01*
X005647Y019921D02*
X005947Y019921D01*
X006007Y019981D01*
X006007Y020101D01*
X005947Y020161D01*
X005445Y019908D02*
X005205Y019908D01*
X005325Y019908D02*
X005325Y020269D01*
X005205Y020149D01*
X005077Y020209D02*
X005077Y020088D01*
X005017Y020028D01*
X004837Y020028D01*
X004837Y019908D02*
X004837Y020269D01*
X005017Y020269D01*
X005077Y020209D01*
X004957Y020028D02*
X005077Y019908D01*
X004985Y019519D02*
X004805Y019338D01*
X005045Y019338D01*
X004985Y019158D02*
X004985Y019519D01*
X004677Y019459D02*
X004677Y019338D01*
X004617Y019278D01*
X004437Y019278D01*
X004437Y019158D02*
X004437Y019519D01*
X004617Y019519D01*
X004677Y019459D01*
X004557Y019278D02*
X004677Y019158D01*
X005097Y018738D02*
X005157Y018798D01*
X005397Y018557D01*
X005457Y018617D01*
X005457Y018738D01*
X005397Y018798D01*
X005157Y018798D01*
X005097Y018738D02*
X005097Y018617D01*
X005157Y018557D01*
X005397Y018557D01*
X002807Y018031D02*
X002687Y017911D01*
X002807Y017791D01*
X002447Y017791D01*
X002507Y017662D02*
X002447Y017602D01*
X002447Y017482D01*
X002507Y017422D01*
X002747Y017422D01*
X002807Y017482D01*
X002807Y017602D01*
X002747Y017662D01*
X002507Y017662D01*
X002447Y018031D02*
X002807Y018031D01*
X002807Y017294D02*
X002807Y017054D01*
X002807Y017174D02*
X002447Y017174D01*
X002447Y016926D02*
X002687Y016686D01*
X002747Y016686D01*
X002807Y016746D01*
X002807Y016866D01*
X002747Y016926D01*
X002447Y016926D02*
X002447Y016686D01*
X002447Y014781D02*
X002807Y014781D01*
X002687Y014661D01*
X002807Y014541D01*
X002447Y014541D01*
X002507Y014412D02*
X002447Y014352D01*
X002447Y014232D01*
X002507Y014172D01*
X002747Y014172D01*
X002807Y014232D01*
X002807Y014352D01*
X002747Y014412D01*
X002507Y014412D01*
X002807Y014044D02*
X002807Y013804D01*
X002807Y013924D02*
X002447Y013924D01*
X002507Y013676D02*
X002447Y013616D01*
X002447Y013496D01*
X002507Y013436D01*
X002567Y013436D01*
X002627Y013496D01*
X002627Y013556D01*
X002627Y013496D02*
X002687Y013436D01*
X002747Y013436D01*
X002807Y013496D01*
X002807Y013616D01*
X002747Y013676D01*
X002807Y010281D02*
X002687Y010161D01*
X002807Y010041D01*
X002447Y010041D01*
X002507Y009912D02*
X002447Y009852D01*
X002447Y009732D01*
X002507Y009672D01*
X002747Y009672D01*
X002807Y009732D01*
X002807Y009852D01*
X002747Y009912D01*
X002507Y009912D01*
X002807Y009544D02*
X002807Y009304D01*
X002807Y009424D02*
X002447Y009424D01*
X002627Y009176D02*
X002627Y008936D01*
X002447Y008996D02*
X002807Y008996D01*
X002627Y009176D01*
X002447Y010281D02*
X002807Y010281D01*
X002447Y021186D02*
X002447Y021426D01*
X002447Y021306D02*
X002807Y021306D01*
X002687Y021426D01*
X002807Y021554D02*
X002807Y021794D01*
X002807Y021674D02*
X002447Y021674D01*
X002507Y021922D02*
X002747Y021922D01*
X002807Y021982D01*
X002807Y022102D01*
X002747Y022162D01*
X002507Y022162D01*
X002447Y022102D01*
X002447Y021982D01*
X002507Y021922D01*
X002447Y022291D02*
X002807Y022291D01*
X002687Y022411D01*
X002807Y022531D01*
X002447Y022531D01*
X038417Y031013D02*
X038417Y031374D01*
X038597Y031374D01*
X038657Y031314D01*
X038657Y031194D01*
X038597Y031134D01*
X038417Y031134D01*
X038785Y031194D02*
X038785Y031374D01*
X038785Y031194D02*
X038845Y031134D01*
X039025Y031134D01*
X039025Y031374D01*
X039153Y031374D02*
X039334Y031374D01*
X039394Y031314D01*
X039394Y031194D01*
X039334Y031134D01*
X039153Y031134D01*
X039153Y031434D01*
X039214Y031494D01*
X039274Y031494D01*
X039522Y031194D02*
X039522Y031073D01*
X039582Y031013D01*
X039762Y031013D01*
X039762Y031374D01*
X039762Y031254D02*
X039582Y031254D01*
X039522Y031194D01*
X040258Y031194D02*
X040499Y031194D01*
X040627Y031194D02*
X040687Y031254D01*
X040867Y031254D01*
X040867Y031374D02*
X040867Y031013D01*
X040687Y031013D01*
X040627Y031073D01*
X040627Y031194D01*
X040378Y031073D02*
X040378Y031314D01*
X042196Y031272D02*
X042437Y031272D01*
X042565Y031332D02*
X042565Y031392D01*
X042625Y031452D01*
X042745Y031452D01*
X042805Y031392D01*
X042745Y031272D02*
X042625Y031272D01*
X042565Y031332D01*
X042565Y031152D02*
X042625Y031092D01*
X042745Y031092D01*
X042805Y031152D01*
X042805Y031212D01*
X042745Y031272D01*
X042316Y031152D02*
X042316Y031392D01*
X043301Y031452D02*
X043301Y031092D01*
X043301Y031212D02*
X043481Y031212D01*
X043541Y031272D01*
X043541Y031392D01*
X043481Y031452D01*
X043301Y031452D01*
X043670Y031452D02*
X043670Y031272D01*
X043730Y031212D01*
X043910Y031212D01*
X043910Y031452D01*
X044038Y031452D02*
X044218Y031452D01*
X044278Y031392D01*
X044278Y031272D01*
X044218Y031212D01*
X044038Y031212D01*
X044038Y031512D01*
X044098Y031573D01*
X044158Y031573D01*
X044406Y031392D02*
X044466Y031452D01*
X044586Y031452D01*
X044646Y031392D01*
X044586Y031272D02*
X044646Y031212D01*
X044646Y031152D01*
X044586Y031092D01*
X044466Y031092D01*
X044406Y031152D01*
X044466Y031272D02*
X044406Y031332D01*
X044406Y031392D01*
X044466Y031272D02*
X044586Y031272D01*
X046559Y015664D02*
X046559Y015357D01*
X046789Y015357D01*
X046712Y015511D01*
X046712Y015587D01*
X046789Y015664D01*
X046943Y015664D01*
X047019Y015587D01*
X047019Y015434D01*
X046943Y015357D01*
X045382Y012181D02*
X045442Y012121D01*
X045442Y012061D01*
X045382Y012001D01*
X045202Y012001D01*
X045074Y011881D02*
X045074Y012121D01*
X045014Y012181D01*
X044894Y012181D01*
X044834Y012121D01*
X044834Y011881D01*
X044894Y011821D01*
X045014Y011821D01*
X045074Y011881D01*
X045202Y011821D02*
X045202Y012181D01*
X045382Y012181D01*
X045382Y012001D02*
X045442Y011941D01*
X045442Y011881D01*
X045382Y011821D01*
X045202Y011821D01*
X044706Y011821D02*
X044585Y011941D01*
X044645Y011941D02*
X044465Y011941D01*
X044465Y011821D02*
X044465Y012181D01*
X044645Y012181D01*
X044706Y012121D01*
X044706Y012001D01*
X044645Y011941D01*
X044337Y012181D02*
X044097Y012181D01*
X044097Y011821D01*
X044097Y012001D02*
X044217Y012001D01*
X044397Y011081D02*
X044397Y010781D01*
X044457Y010721D01*
X044577Y010721D01*
X044637Y010781D01*
X044637Y011081D01*
X044765Y011021D02*
X044765Y010961D01*
X044825Y010901D01*
X044945Y010901D01*
X045006Y010841D01*
X045006Y010781D01*
X044945Y010721D01*
X044825Y010721D01*
X044765Y010781D01*
X044765Y011021D02*
X044825Y011081D01*
X044945Y011081D01*
X045006Y011021D01*
X045134Y011081D02*
X045134Y010721D01*
X045314Y010721D01*
X045374Y010781D01*
X045374Y010841D01*
X045314Y010901D01*
X045134Y010901D01*
X045314Y010901D02*
X045374Y010961D01*
X045374Y011021D01*
X045314Y011081D01*
X045134Y011081D01*
X042614Y011177D02*
X042614Y011417D01*
X042614Y011545D02*
X042614Y011786D01*
X042614Y011665D02*
X042254Y011665D01*
X042374Y011545D01*
X042254Y011177D02*
X042614Y011177D01*
X041313Y011180D02*
X041313Y011300D01*
X041253Y011360D01*
X040953Y011360D01*
X041073Y011488D02*
X040953Y011608D01*
X041313Y011608D01*
X041313Y011488D02*
X041313Y011728D01*
X041313Y011180D02*
X041253Y011120D01*
X040953Y011120D01*
X040943Y012621D02*
X041183Y012861D01*
X041183Y012921D01*
X041123Y012981D01*
X041003Y012981D01*
X040943Y012921D01*
X040927Y013031D02*
X040927Y012731D01*
X040867Y012671D01*
X040807Y012671D01*
X040747Y012731D01*
X040757Y012621D02*
X040757Y012981D01*
X040697Y012981D02*
X040817Y012981D01*
X040867Y013031D02*
X040987Y013031D01*
X041115Y012971D02*
X041175Y013031D01*
X041295Y013031D01*
X041356Y012971D01*
X041356Y012911D01*
X041115Y012671D01*
X041356Y012671D01*
X041311Y012681D02*
X041371Y012621D01*
X041491Y012621D01*
X041551Y012681D01*
X041551Y012921D02*
X041491Y012981D01*
X041371Y012981D01*
X041311Y012921D01*
X041311Y012681D01*
X041183Y012621D02*
X040943Y012621D01*
X040817Y012621D02*
X040697Y012621D01*
D11*
X041541Y011755D02*
X041541Y011046D01*
X042013Y011046D02*
X042013Y011755D01*
X034513Y013146D02*
X034513Y013855D01*
X034041Y013855D02*
X034041Y013146D01*
X024472Y007549D02*
X024472Y006250D01*
X024472Y006053D01*
X020582Y006053D01*
X020582Y006250D01*
X024472Y006250D01*
X024472Y007549D02*
X020582Y007549D01*
X020582Y006250D01*
X020222Y006250D02*
X020222Y006053D01*
X016332Y006053D01*
X016332Y006250D01*
X020222Y006250D01*
X020222Y007549D01*
X016332Y007549D01*
X016332Y006250D01*
X018253Y025907D02*
X018253Y026694D01*
X017850Y026301D01*
X018253Y025907D01*
X036728Y031280D02*
X036728Y031761D01*
X037048Y031280D01*
X037048Y031761D01*
X037243Y031681D02*
X037243Y031360D01*
X037323Y031280D01*
X037483Y031280D01*
X037563Y031360D01*
X037563Y031681D01*
X037483Y031761D01*
X037323Y031761D01*
X037243Y031681D01*
X043783Y026638D02*
X044033Y026888D01*
X044533Y026888D01*
X044783Y026638D01*
X044783Y026138D01*
X044533Y025888D01*
X044783Y025638D01*
X044783Y025138D01*
X044533Y024888D01*
X044783Y024638D01*
X044783Y024138D01*
X044533Y023888D01*
X044783Y023638D01*
X044783Y023138D01*
X044533Y022888D01*
X044783Y022638D01*
X044783Y022138D01*
X044533Y021888D01*
X044783Y021638D01*
X044783Y021138D01*
X044533Y020888D01*
X044783Y020638D01*
X044783Y020138D01*
X044533Y019888D01*
X044783Y019638D01*
X044783Y019138D01*
X044533Y018888D01*
X044033Y018888D01*
X043783Y019138D01*
X043783Y019638D01*
X044033Y019888D01*
X043783Y020138D01*
X043783Y020638D01*
X044033Y020888D01*
X043783Y021138D01*
X043783Y021638D01*
X044033Y021888D01*
X043783Y022138D01*
X043783Y022638D01*
X044033Y022888D01*
X043783Y023138D01*
X043783Y023638D01*
X044033Y023888D01*
X043783Y024138D01*
X043783Y024638D01*
X044033Y024888D01*
X043783Y025138D01*
X043783Y025638D01*
X044033Y025888D01*
X043783Y026138D01*
X043783Y026638D01*
D12*
X033610Y014127D03*
D13*
X033361Y014297D02*
X033361Y019705D01*
X032861Y019705D01*
X032861Y014297D01*
X027993Y014297D01*
X027993Y019705D01*
X032861Y019705D01*
X032827Y021151D02*
X028527Y021151D01*
X028510Y021153D01*
X028493Y021157D01*
X028477Y021164D01*
X028463Y021174D01*
X028450Y021187D01*
X028440Y021201D01*
X028433Y021217D01*
X028429Y021234D01*
X028427Y021251D01*
X028427Y021651D01*
X028427Y022551D02*
X028427Y022951D01*
X028429Y022968D01*
X028433Y022985D01*
X028440Y023001D01*
X028450Y023015D01*
X028463Y023028D01*
X028477Y023038D01*
X028493Y023045D01*
X028510Y023049D01*
X028527Y023051D01*
X032827Y023051D01*
X032844Y023049D01*
X032861Y023045D01*
X032877Y023038D01*
X032891Y023028D01*
X032904Y023015D01*
X032914Y023001D01*
X032921Y022985D01*
X032925Y022968D01*
X032927Y022951D01*
X032927Y022551D01*
X032771Y023170D02*
X032771Y023732D01*
X031583Y023732D01*
X031583Y023170D01*
X032771Y023170D01*
X034585Y022793D02*
X036357Y022793D01*
X036869Y022281D01*
X036869Y020509D01*
X035097Y020509D01*
X034585Y021021D01*
X034585Y022793D01*
X035583Y023220D02*
X035583Y023782D01*
X036771Y023782D01*
X036771Y023220D01*
X035583Y023220D01*
X035821Y023975D02*
X035033Y023975D01*
X035033Y024526D01*
X035821Y024526D01*
X035821Y023975D01*
X035574Y024251D02*
X035388Y024408D01*
X035574Y024251D02*
X035388Y024093D01*
X037027Y022951D02*
X037027Y021851D01*
X038777Y021851D01*
X038777Y022951D01*
X037027Y022951D01*
X037976Y023150D02*
X037976Y024252D01*
X039078Y024252D01*
X039078Y023150D01*
X037976Y023150D01*
X038327Y022501D02*
X038227Y022401D01*
X038327Y022301D01*
X038883Y022420D02*
X038883Y022982D01*
X040071Y022982D01*
X040071Y022420D01*
X038883Y022420D01*
X038946Y022282D02*
X040008Y022282D01*
X040008Y021720D01*
X038946Y021720D01*
X038946Y022282D01*
X039177Y021601D02*
X039177Y020501D01*
X037077Y020501D01*
X037077Y021601D01*
X039177Y021601D01*
X040627Y021401D02*
X041727Y021401D01*
X041727Y023501D01*
X040627Y023501D01*
X040627Y021401D01*
X040658Y023907D02*
X040096Y023907D01*
X040096Y025095D01*
X040658Y025095D01*
X040658Y023907D01*
X037933Y025544D02*
X029933Y025544D01*
X029933Y031044D01*
X037933Y031044D01*
X037933Y025544D01*
X038184Y026331D02*
X038184Y027131D01*
X038167Y027851D02*
X042917Y027851D01*
X043917Y027851D02*
X044667Y027851D01*
X044667Y029051D01*
X039917Y029051D01*
X038917Y029051D02*
X038167Y029051D01*
X038167Y027851D01*
X039134Y027531D02*
X041084Y027531D01*
X041084Y027081D01*
X040134Y026331D02*
X038184Y026331D01*
X032927Y021651D02*
X032927Y021251D01*
X032925Y021234D01*
X032921Y021217D01*
X032914Y021201D01*
X032904Y021187D01*
X032891Y021174D01*
X032877Y021164D01*
X032861Y021157D01*
X032844Y021153D01*
X032827Y021151D01*
X030927Y021851D02*
X030927Y022101D01*
X030927Y022351D01*
X030777Y022351D02*
X030577Y022351D01*
X030577Y021851D01*
X030777Y021851D01*
X030777Y022351D01*
X030427Y022351D02*
X030427Y022101D01*
X030427Y021851D01*
X029871Y023170D02*
X028683Y023170D01*
X028683Y023732D01*
X029871Y023732D01*
X029871Y023170D01*
X028078Y026276D02*
X027566Y026276D01*
X028078Y026276D02*
X028433Y026630D01*
X028433Y028874D01*
X027566Y028874D01*
X026700Y028874D02*
X025834Y028874D01*
X025834Y026630D01*
X026188Y026276D01*
X026700Y026276D01*
X024621Y027220D02*
X024621Y027782D01*
X023433Y027782D01*
X023433Y027220D01*
X024621Y027220D01*
X024496Y029057D02*
X025058Y029057D01*
X025058Y030245D01*
X024496Y030245D01*
X024496Y029057D01*
X022508Y029057D02*
X022508Y030245D01*
X021946Y030245D01*
X021946Y029057D01*
X022508Y029057D01*
X021471Y028882D02*
X021471Y028320D01*
X020283Y028320D01*
X020283Y028882D01*
X021471Y028882D01*
X020108Y029669D02*
X019046Y029669D01*
X019046Y030232D01*
X020108Y030232D01*
X020108Y029669D01*
X018208Y029670D02*
X017146Y029670D01*
X017146Y030232D01*
X018208Y030232D01*
X018208Y029670D01*
X016908Y030045D02*
X016908Y028857D01*
X016346Y028857D01*
X016346Y030045D01*
X016908Y030045D01*
X016208Y030082D02*
X016208Y029020D01*
X015646Y029020D01*
X015646Y030082D01*
X016208Y030082D01*
X015996Y028863D02*
X012059Y028863D01*
X011665Y028469D01*
X011665Y024532D01*
X012059Y024139D01*
X015996Y024139D01*
X016389Y024532D01*
X016389Y028469D01*
X015996Y028863D01*
X014626Y029302D02*
X012382Y029302D01*
X012028Y029656D01*
X012028Y030168D01*
X012028Y031034D02*
X012028Y031546D01*
X012382Y031900D01*
X014626Y031900D01*
X014626Y031034D01*
X014626Y030168D02*
X014626Y029302D01*
X008358Y024495D02*
X007796Y024495D01*
X007796Y023307D01*
X008358Y023307D01*
X008358Y024495D01*
X007653Y024344D02*
X007101Y024344D01*
X007101Y023557D01*
X007653Y023557D01*
X007653Y024344D01*
X007377Y024098D02*
X007220Y023911D01*
X007377Y024098D02*
X007534Y023911D01*
X006958Y023420D02*
X006958Y024482D01*
X006396Y024482D01*
X006396Y023420D01*
X006958Y023420D01*
X006177Y022251D02*
X006177Y021501D01*
X006216Y021499D01*
X006255Y021493D01*
X006293Y021484D01*
X006330Y021471D01*
X006366Y021454D01*
X006399Y021434D01*
X006431Y021410D01*
X006460Y021384D01*
X006486Y021355D01*
X006510Y021323D01*
X006530Y021290D01*
X006547Y021254D01*
X006560Y021217D01*
X006569Y021179D01*
X006575Y021140D01*
X006577Y021101D01*
X006575Y021062D01*
X006569Y021023D01*
X006560Y020985D01*
X006547Y020948D01*
X006530Y020912D01*
X006510Y020879D01*
X006486Y020847D01*
X006460Y020818D01*
X006431Y020792D01*
X006399Y020768D01*
X006366Y020748D01*
X006330Y020731D01*
X006293Y020718D01*
X006255Y020709D01*
X006216Y020703D01*
X006177Y020701D01*
X006177Y019951D01*
X016177Y019951D01*
X016177Y022251D01*
X006177Y022251D01*
X004927Y022701D02*
X004927Y021701D01*
X004427Y021701D01*
X004427Y022701D01*
X004927Y022701D01*
X004777Y022201D02*
X004677Y022101D01*
X004577Y022201D01*
X004427Y021601D02*
X004427Y020601D01*
X004927Y020601D01*
X004927Y021601D01*
X004427Y021601D01*
X004577Y021101D02*
X004677Y021001D01*
X004777Y021101D01*
X004208Y020382D02*
X004208Y019820D01*
X003146Y019820D01*
X003146Y020382D01*
X004208Y020382D01*
X004208Y019632D02*
X003146Y019632D01*
X003146Y019070D01*
X004208Y019070D01*
X004208Y019632D01*
X004427Y018851D02*
X004927Y018851D01*
X004927Y017851D01*
X004427Y017851D01*
X004427Y018851D01*
X004677Y018451D02*
X004777Y018351D01*
X004677Y018451D02*
X004577Y018351D01*
X004427Y017751D02*
X004927Y017751D01*
X004927Y016751D01*
X004427Y016751D01*
X004427Y017751D01*
X004677Y017351D02*
X004777Y017251D01*
X004677Y017351D02*
X004577Y017251D01*
X006177Y017001D02*
X006177Y016251D01*
X006216Y016249D01*
X006255Y016243D01*
X006293Y016234D01*
X006330Y016221D01*
X006366Y016204D01*
X006399Y016184D01*
X006431Y016160D01*
X006460Y016134D01*
X006486Y016105D01*
X006510Y016073D01*
X006530Y016040D01*
X006547Y016004D01*
X006560Y015967D01*
X006569Y015929D01*
X006575Y015890D01*
X006577Y015851D01*
X006575Y015812D01*
X006569Y015773D01*
X006560Y015735D01*
X006547Y015698D01*
X006530Y015662D01*
X006510Y015629D01*
X006486Y015597D01*
X006460Y015568D01*
X006431Y015542D01*
X006399Y015518D01*
X006366Y015498D01*
X006330Y015481D01*
X006293Y015468D01*
X006255Y015459D01*
X006216Y015453D01*
X006177Y015451D01*
X006177Y014701D01*
X016177Y014701D01*
X016177Y017001D01*
X006177Y017001D01*
X006646Y018020D02*
X007708Y018020D01*
X007708Y018582D01*
X006646Y018582D01*
X006646Y018020D01*
X009483Y018020D02*
X009483Y018582D01*
X010671Y018582D01*
X010671Y018020D01*
X009483Y018020D01*
X013083Y018020D02*
X013083Y018582D01*
X014271Y018582D01*
X014271Y018020D01*
X013083Y018020D01*
X016146Y018182D02*
X016146Y017620D01*
X017208Y017620D01*
X017208Y018182D01*
X016146Y018182D01*
X017096Y017195D02*
X017658Y017195D01*
X017658Y016007D01*
X017096Y016007D01*
X017096Y017195D01*
X016958Y017032D02*
X016958Y015970D01*
X016396Y015970D01*
X016396Y017032D01*
X016958Y017032D01*
X016958Y015832D02*
X016396Y015832D01*
X016396Y014770D01*
X016958Y014770D01*
X016958Y015832D01*
X017096Y015795D02*
X017658Y015795D01*
X017658Y014607D01*
X017096Y014607D01*
X017096Y015795D01*
X020035Y014355D02*
X025319Y014355D01*
X025319Y019643D01*
X020035Y019643D01*
X020035Y014355D01*
X017208Y012882D02*
X017208Y012320D01*
X016146Y012320D01*
X016146Y012882D01*
X017208Y012882D01*
X017096Y011895D02*
X017658Y011895D01*
X017658Y010707D01*
X017096Y010707D01*
X017096Y011895D01*
X016958Y011732D02*
X016958Y010670D01*
X016396Y010670D01*
X016396Y011732D01*
X016958Y011732D01*
X016177Y011751D02*
X016177Y009451D01*
X006177Y009451D01*
X006177Y010201D01*
X006216Y010203D01*
X006255Y010209D01*
X006293Y010218D01*
X006330Y010231D01*
X006366Y010248D01*
X006399Y010268D01*
X006431Y010292D01*
X006460Y010318D01*
X006486Y010347D01*
X006510Y010379D01*
X006530Y010412D01*
X006547Y010448D01*
X006560Y010485D01*
X006569Y010523D01*
X006575Y010562D01*
X006577Y010601D01*
X006575Y010640D01*
X006569Y010679D01*
X006560Y010717D01*
X006547Y010754D01*
X006530Y010790D01*
X006510Y010823D01*
X006486Y010855D01*
X006460Y010884D01*
X006431Y010910D01*
X006399Y010934D01*
X006366Y010954D01*
X006330Y010971D01*
X006293Y010984D01*
X006255Y010993D01*
X006216Y010999D01*
X006177Y011001D01*
X006177Y011751D01*
X016177Y011751D01*
X016396Y010532D02*
X016958Y010532D01*
X016958Y009470D01*
X016396Y009470D01*
X016396Y010532D01*
X017096Y010495D02*
X017658Y010495D01*
X017658Y009307D01*
X017096Y009307D01*
X017096Y010495D01*
X019633Y008932D02*
X020821Y008932D01*
X020821Y008370D01*
X019633Y008370D01*
X019633Y008932D01*
X020896Y008607D02*
X020896Y009795D01*
X021458Y009795D01*
X021458Y008607D01*
X020896Y008607D01*
X024687Y008021D02*
X024687Y011181D01*
X024887Y011181D01*
X024917Y011181D02*
X031907Y011181D01*
X031907Y008021D01*
X024917Y008021D01*
X024887Y008021D02*
X024687Y008021D01*
X024727Y010801D02*
X031877Y010801D01*
X032377Y011501D02*
X035377Y011501D01*
X035379Y011800D02*
X035379Y010002D01*
X032375Y010002D01*
X032375Y011800D01*
X035379Y011800D01*
X035496Y012145D02*
X036058Y012145D01*
X036058Y010957D01*
X035496Y010957D01*
X035496Y012145D01*
X035290Y012526D02*
X036864Y012526D01*
X036864Y015676D01*
X035290Y015676D01*
X035290Y012526D01*
X036827Y012071D02*
X036827Y010251D01*
X040827Y010251D01*
X040835Y010027D02*
X040835Y012074D01*
X036829Y012074D01*
X036058Y010595D02*
X035496Y010595D01*
X035496Y009407D01*
X036058Y009407D01*
X036058Y010595D01*
X036827Y010251D02*
X036827Y010031D01*
X036829Y010027D02*
X040835Y010027D01*
X041793Y010069D02*
X041793Y009282D01*
X042226Y008849D01*
X042226Y007274D01*
X041753Y006802D01*
X041753Y006132D01*
X042265Y006132D01*
X042265Y006605D01*
X043840Y006605D01*
X043840Y006132D01*
X044352Y006132D01*
X044352Y006605D01*
X045297Y006605D01*
X045297Y009597D01*
X044312Y009597D01*
X044312Y010030D01*
X043840Y010030D01*
X043840Y009636D01*
X042265Y009636D01*
X042265Y010069D01*
X041793Y010069D01*
X040858Y008445D02*
X040296Y008445D01*
X040296Y007257D01*
X040858Y007257D01*
X040858Y008445D01*
X039558Y008582D02*
X037196Y008582D01*
X037196Y006220D01*
X039558Y006220D01*
X039558Y008582D01*
X037688Y007401D02*
X037690Y007453D01*
X037696Y007505D01*
X037706Y007556D01*
X037719Y007606D01*
X037737Y007656D01*
X037758Y007703D01*
X037782Y007749D01*
X037811Y007793D01*
X037842Y007835D01*
X037876Y007874D01*
X037913Y007911D01*
X037953Y007944D01*
X037996Y007975D01*
X038040Y008002D01*
X038086Y008026D01*
X038135Y008046D01*
X038184Y008062D01*
X038235Y008075D01*
X038286Y008084D01*
X038338Y008089D01*
X038390Y008090D01*
X038442Y008087D01*
X038494Y008080D01*
X038545Y008069D01*
X038595Y008055D01*
X038644Y008036D01*
X038691Y008014D01*
X038736Y007989D01*
X038780Y007960D01*
X038821Y007928D01*
X038860Y007893D01*
X038895Y007855D01*
X038928Y007814D01*
X038958Y007772D01*
X038984Y007727D01*
X039007Y007680D01*
X039026Y007631D01*
X039042Y007581D01*
X039054Y007531D01*
X039062Y007479D01*
X039066Y007427D01*
X039066Y007375D01*
X039062Y007323D01*
X039054Y007271D01*
X039042Y007221D01*
X039026Y007171D01*
X039007Y007122D01*
X038984Y007075D01*
X038958Y007030D01*
X038928Y006988D01*
X038895Y006947D01*
X038860Y006909D01*
X038821Y006874D01*
X038780Y006842D01*
X038736Y006813D01*
X038691Y006788D01*
X038644Y006766D01*
X038595Y006747D01*
X038545Y006733D01*
X038494Y006722D01*
X038442Y006715D01*
X038390Y006712D01*
X038338Y006713D01*
X038286Y006718D01*
X038235Y006727D01*
X038184Y006740D01*
X038135Y006756D01*
X038086Y006776D01*
X038040Y006800D01*
X037996Y006827D01*
X037953Y006858D01*
X037913Y006891D01*
X037876Y006928D01*
X037842Y006967D01*
X037811Y007009D01*
X037782Y007053D01*
X037758Y007099D01*
X037737Y007146D01*
X037719Y007196D01*
X037706Y007246D01*
X037696Y007297D01*
X037690Y007349D01*
X037688Y007401D01*
X039477Y005971D02*
X039477Y005896D01*
X039552Y005821D01*
X039702Y005821D01*
X039777Y005746D01*
X039777Y005671D01*
X039702Y005596D01*
X039552Y005596D01*
X039477Y005671D01*
X039477Y005971D02*
X039552Y006046D01*
X039702Y006046D01*
X039777Y005971D01*
X039937Y006046D02*
X039937Y005596D01*
X040087Y005746D01*
X040237Y005596D01*
X040237Y006046D01*
X040398Y005896D02*
X040548Y006046D01*
X040548Y005596D01*
X040398Y005596D02*
X040698Y005596D01*
X044160Y004490D02*
X044160Y003428D01*
X044722Y003428D01*
X044722Y004490D01*
X044160Y004490D01*
X044167Y004644D02*
X044167Y005707D01*
X044729Y005707D01*
X044729Y004644D01*
X044167Y004644D01*
X044165Y003221D02*
X044165Y002221D01*
X044665Y002221D01*
X044665Y003221D01*
X044165Y003221D01*
X044315Y002721D02*
X044415Y002621D01*
X044515Y002721D01*
X044716Y001392D02*
X043716Y001392D01*
X043716Y000892D01*
X044716Y000892D01*
X044716Y001392D01*
X044316Y001142D02*
X044216Y001042D01*
X044316Y001142D02*
X044216Y001242D01*
X041786Y001216D02*
X041786Y000341D01*
X039849Y000341D01*
X039849Y001216D01*
X041786Y001216D01*
X035058Y006220D02*
X032696Y006220D01*
X032696Y008582D01*
X035058Y008582D01*
X035058Y006220D01*
X033188Y007401D02*
X033190Y007453D01*
X033196Y007505D01*
X033206Y007556D01*
X033219Y007606D01*
X033237Y007656D01*
X033258Y007703D01*
X033282Y007749D01*
X033311Y007793D01*
X033342Y007835D01*
X033376Y007874D01*
X033413Y007911D01*
X033453Y007944D01*
X033496Y007975D01*
X033540Y008002D01*
X033586Y008026D01*
X033635Y008046D01*
X033684Y008062D01*
X033735Y008075D01*
X033786Y008084D01*
X033838Y008089D01*
X033890Y008090D01*
X033942Y008087D01*
X033994Y008080D01*
X034045Y008069D01*
X034095Y008055D01*
X034144Y008036D01*
X034191Y008014D01*
X034236Y007989D01*
X034280Y007960D01*
X034321Y007928D01*
X034360Y007893D01*
X034395Y007855D01*
X034428Y007814D01*
X034458Y007772D01*
X034484Y007727D01*
X034507Y007680D01*
X034526Y007631D01*
X034542Y007581D01*
X034554Y007531D01*
X034562Y007479D01*
X034566Y007427D01*
X034566Y007375D01*
X034562Y007323D01*
X034554Y007271D01*
X034542Y007221D01*
X034526Y007171D01*
X034507Y007122D01*
X034484Y007075D01*
X034458Y007030D01*
X034428Y006988D01*
X034395Y006947D01*
X034360Y006909D01*
X034321Y006874D01*
X034280Y006842D01*
X034236Y006813D01*
X034191Y006788D01*
X034144Y006766D01*
X034095Y006747D01*
X034045Y006733D01*
X033994Y006722D01*
X033942Y006715D01*
X033890Y006712D01*
X033838Y006713D01*
X033786Y006718D01*
X033735Y006727D01*
X033684Y006740D01*
X033635Y006756D01*
X033586Y006776D01*
X033540Y006800D01*
X033496Y006827D01*
X033453Y006858D01*
X033413Y006891D01*
X033376Y006928D01*
X033342Y006967D01*
X033311Y007009D01*
X033282Y007053D01*
X033258Y007099D01*
X033237Y007146D01*
X033219Y007196D01*
X033206Y007246D01*
X033196Y007297D01*
X033190Y007349D01*
X033188Y007401D01*
X031671Y006482D02*
X031671Y005920D01*
X030483Y005920D01*
X030483Y006482D01*
X031671Y006482D01*
X030708Y002695D02*
X030146Y002695D01*
X030146Y001507D01*
X030708Y001507D01*
X030708Y002695D01*
X022571Y003320D02*
X022571Y003882D01*
X021383Y003882D01*
X021383Y003320D01*
X022571Y003320D01*
X015476Y005461D02*
X015476Y007441D01*
X013678Y007441D01*
X013678Y005461D01*
X015476Y005461D01*
X013927Y005451D02*
X013927Y007401D01*
X010149Y005577D02*
X010073Y005653D01*
X009923Y005653D01*
X009848Y005577D01*
X009688Y005653D02*
X009688Y005202D01*
X009538Y005352D01*
X009388Y005202D01*
X009388Y005653D01*
X009228Y005577D02*
X009153Y005653D01*
X009003Y005653D01*
X008928Y005577D01*
X008928Y005502D01*
X009003Y005427D01*
X009153Y005427D01*
X009228Y005352D01*
X009228Y005277D01*
X009153Y005202D01*
X009003Y005202D01*
X008928Y005277D01*
X009848Y005202D02*
X010149Y005502D01*
X010149Y005577D01*
X010149Y005202D02*
X009848Y005202D01*
X004793Y005601D02*
X004293Y005601D01*
X004293Y006601D01*
X004793Y006601D01*
X004793Y005601D01*
X004543Y006001D02*
X004443Y006101D01*
X004543Y006001D02*
X004643Y006101D01*
X004793Y006701D02*
X004293Y006701D01*
X004293Y007701D01*
X004793Y007701D01*
X004793Y006701D01*
X004543Y007101D02*
X004443Y007201D01*
X004543Y007101D02*
X004643Y007201D01*
X004427Y009001D02*
X004927Y009001D01*
X004927Y010001D01*
X004427Y010001D01*
X004427Y009001D01*
X004577Y009501D02*
X004677Y009601D01*
X004777Y009501D01*
X004927Y010101D02*
X004427Y010101D01*
X004427Y011101D01*
X004927Y011101D01*
X004927Y010101D01*
X004677Y010501D02*
X004577Y010601D01*
X004677Y010501D02*
X004777Y010601D01*
X004208Y011320D02*
X003146Y011320D01*
X003146Y011882D01*
X004208Y011882D01*
X004208Y011320D01*
X004208Y012070D02*
X003146Y012070D01*
X003146Y012632D01*
X004208Y012632D01*
X004208Y012070D01*
X004427Y012851D02*
X004927Y012851D01*
X004927Y013851D01*
X004427Y013851D01*
X004427Y012851D01*
X004577Y013351D02*
X004677Y013451D01*
X004777Y013351D01*
X004927Y013951D02*
X004427Y013951D01*
X004427Y014951D01*
X004927Y014951D01*
X004927Y013951D01*
X004677Y014351D02*
X004577Y014451D01*
X004677Y014351D02*
X004777Y014451D01*
X006646Y013382D02*
X007708Y013382D01*
X007708Y012820D01*
X006646Y012820D01*
X006646Y013382D01*
X009483Y013382D02*
X009483Y012820D01*
X010671Y012820D01*
X010671Y013382D01*
X009483Y013382D01*
X013083Y013382D02*
X013083Y012820D01*
X014271Y012820D01*
X014271Y013382D01*
X013083Y013382D01*
X017096Y019807D02*
X017096Y020995D01*
X017658Y020995D01*
X017658Y019807D01*
X017096Y019807D01*
X016958Y019970D02*
X016958Y021032D01*
X016396Y021032D01*
X016396Y019970D01*
X016958Y019970D01*
X016958Y021170D02*
X016396Y021170D01*
X016396Y022232D01*
X016958Y022232D01*
X016958Y021170D01*
X017096Y021207D02*
X017658Y021207D01*
X017658Y022395D01*
X017096Y022395D01*
X017096Y021207D01*
X018296Y020832D02*
X018858Y020832D01*
X018858Y019770D01*
X018296Y019770D01*
X018296Y020832D01*
X018996Y020832D02*
X018996Y019770D01*
X019558Y019770D01*
X019558Y020832D01*
X018996Y020832D01*
X018878Y022570D02*
X018315Y022570D01*
X018315Y023632D01*
X018878Y023632D01*
X018878Y022570D01*
X018228Y022570D02*
X017666Y022570D01*
X017666Y023632D01*
X018228Y023632D01*
X018228Y022570D01*
X017208Y022820D02*
X016146Y022820D01*
X016146Y023382D01*
X017208Y023382D01*
X017208Y022820D01*
X015271Y023320D02*
X015271Y023882D01*
X014083Y023882D01*
X014083Y023320D01*
X015271Y023320D01*
X011971Y023375D02*
X011183Y023375D01*
X011183Y023926D01*
X011971Y023926D01*
X011971Y023375D01*
X011616Y023493D02*
X011430Y023651D01*
X011616Y023808D01*
X010671Y023882D02*
X010671Y023320D01*
X009483Y023320D01*
X009483Y023882D01*
X010671Y023882D01*
X004927Y024501D02*
X004927Y025501D01*
X004427Y025501D01*
X004427Y024501D01*
X004927Y024501D01*
X004777Y025001D02*
X004677Y025101D01*
X004577Y025001D01*
X004427Y025601D02*
X004927Y025601D01*
X004927Y026601D01*
X004427Y026601D01*
X004427Y025601D01*
X004577Y026101D02*
X004677Y026201D01*
X004777Y026101D01*
X004208Y027320D02*
X003146Y027320D01*
X003146Y027882D01*
X004208Y027882D01*
X004208Y027320D01*
X021377Y023551D02*
X021377Y023201D01*
X024127Y023201D01*
X024127Y021929D01*
X024127Y021926D02*
X024127Y021876D01*
X024102Y021876D02*
X021377Y021876D01*
X021377Y023201D01*
X021377Y023551D02*
X024127Y023551D01*
X024127Y023501D01*
X024127Y023201D01*
X024127Y023501D02*
X024127Y023504D01*
X024877Y019601D02*
X024877Y014401D01*
X025396Y013832D02*
X025396Y012770D01*
X025958Y012770D01*
X025958Y013832D01*
X025396Y013832D01*
X029683Y013182D02*
X029683Y012620D01*
X030871Y012620D01*
X030871Y013182D01*
X029683Y013182D01*
X032183Y013382D02*
X032183Y012820D01*
X033371Y012820D01*
X033371Y013382D01*
X032183Y013382D01*
X032861Y014297D02*
X033361Y014297D01*
X037296Y014420D02*
X037296Y015482D01*
X037858Y015482D01*
X037858Y014420D01*
X037296Y014420D01*
X038167Y014391D02*
X038167Y015711D01*
X039787Y015711D01*
X039787Y014391D01*
X038167Y014391D01*
X039833Y014370D02*
X039833Y014932D01*
X041021Y014932D01*
X041021Y014370D01*
X039833Y014370D01*
X042266Y015601D02*
X042268Y015637D01*
X042274Y015673D01*
X042284Y015708D01*
X042297Y015742D01*
X042314Y015774D01*
X042335Y015804D01*
X042358Y015832D01*
X042384Y015857D01*
X042413Y015879D01*
X042445Y015898D01*
X042478Y015913D01*
X042512Y015925D01*
X042548Y015933D01*
X042584Y015937D01*
X042620Y015937D01*
X042656Y015933D01*
X042692Y015925D01*
X042726Y015913D01*
X042759Y015898D01*
X042791Y015879D01*
X042820Y015857D01*
X042846Y015832D01*
X042869Y015804D01*
X042890Y015774D01*
X042907Y015742D01*
X042920Y015708D01*
X042930Y015673D01*
X042936Y015637D01*
X042938Y015601D01*
X042936Y015565D01*
X042930Y015529D01*
X042920Y015494D01*
X042907Y015460D01*
X042890Y015428D01*
X042869Y015398D01*
X042846Y015370D01*
X042820Y015345D01*
X042791Y015323D01*
X042759Y015304D01*
X042726Y015289D01*
X042692Y015277D01*
X042656Y015269D01*
X042620Y015265D01*
X042584Y015265D01*
X042548Y015269D01*
X042512Y015277D01*
X042478Y015289D01*
X042445Y015304D01*
X042413Y015323D01*
X042384Y015345D01*
X042358Y015370D01*
X042335Y015398D01*
X042314Y015428D01*
X042297Y015460D01*
X042284Y015494D01*
X042274Y015529D01*
X042268Y015565D01*
X042266Y015601D01*
X043555Y015601D02*
X043557Y015650D01*
X043563Y015700D01*
X043573Y015748D01*
X043586Y015796D01*
X043604Y015842D01*
X043624Y015887D01*
X043649Y015930D01*
X043677Y015971D01*
X043708Y016009D01*
X043742Y016045D01*
X043778Y016078D01*
X043817Y016109D01*
X043859Y016135D01*
X043902Y016159D01*
X043948Y016179D01*
X043994Y016196D01*
X044042Y016208D01*
X044091Y016217D01*
X044140Y016222D01*
X044189Y016223D01*
X044239Y016220D01*
X044288Y016213D01*
X044336Y016202D01*
X044383Y016188D01*
X044429Y016170D01*
X044474Y016148D01*
X044516Y016122D01*
X044556Y016094D01*
X044594Y016062D01*
X044630Y016028D01*
X044662Y015990D01*
X044692Y015950D01*
X044718Y015908D01*
X044740Y015864D01*
X044760Y015819D01*
X044775Y015772D01*
X044787Y015724D01*
X044795Y015675D01*
X044799Y015626D01*
X044799Y015576D01*
X044795Y015527D01*
X044787Y015478D01*
X044775Y015430D01*
X044760Y015383D01*
X044740Y015338D01*
X044718Y015294D01*
X044692Y015252D01*
X044662Y015212D01*
X044630Y015174D01*
X044594Y015140D01*
X044556Y015108D01*
X044516Y015080D01*
X044474Y015054D01*
X044429Y015032D01*
X044383Y015014D01*
X044336Y015000D01*
X044288Y014989D01*
X044239Y014982D01*
X044189Y014979D01*
X044140Y014980D01*
X044091Y014985D01*
X044042Y014994D01*
X043994Y015006D01*
X043948Y015023D01*
X043902Y015043D01*
X043859Y015067D01*
X043817Y015093D01*
X043778Y015124D01*
X043742Y015157D01*
X043708Y015193D01*
X043677Y015231D01*
X043649Y015272D01*
X043624Y015315D01*
X043604Y015360D01*
X043586Y015406D01*
X043573Y015454D01*
X043563Y015502D01*
X043557Y015552D01*
X043555Y015601D01*
X041003Y015601D02*
X041007Y015757D01*
X041018Y015912D01*
X041037Y016067D01*
X041064Y016220D01*
X041098Y016372D01*
X041140Y016522D01*
X041189Y016670D01*
X041245Y016816D01*
X041308Y016958D01*
X041378Y017097D01*
X041455Y017233D01*
X041538Y017364D01*
X041628Y017492D01*
X041723Y017615D01*
X041825Y017733D01*
X041933Y017845D01*
X042045Y017953D01*
X042163Y018055D01*
X042286Y018150D01*
X042414Y018240D01*
X042545Y018323D01*
X042681Y018400D01*
X042820Y018470D01*
X042962Y018533D01*
X043108Y018589D01*
X043256Y018638D01*
X043406Y018680D01*
X043558Y018714D01*
X043711Y018741D01*
X043866Y018760D01*
X044021Y018771D01*
X044177Y018775D01*
X044333Y018771D01*
X044488Y018760D01*
X044643Y018741D01*
X044796Y018714D01*
X044948Y018680D01*
X045098Y018638D01*
X045246Y018589D01*
X045392Y018533D01*
X045534Y018470D01*
X045673Y018400D01*
X045809Y018323D01*
X045940Y018240D01*
X046068Y018150D01*
X046191Y018055D01*
X046309Y017953D01*
X046421Y017845D01*
X046529Y017733D01*
X046631Y017615D01*
X046726Y017492D01*
X046816Y017364D01*
X046899Y017233D01*
X046976Y017097D01*
X047046Y016958D01*
X047109Y016816D01*
X047165Y016670D01*
X047214Y016522D01*
X047256Y016372D01*
X047290Y016220D01*
X047317Y016067D01*
X047336Y015912D01*
X047347Y015757D01*
X047351Y015601D01*
X047347Y015445D01*
X047336Y015290D01*
X047317Y015135D01*
X047290Y014982D01*
X047256Y014830D01*
X047214Y014680D01*
X047165Y014532D01*
X047109Y014386D01*
X047046Y014244D01*
X046976Y014105D01*
X046899Y013969D01*
X046816Y013838D01*
X046726Y013710D01*
X046631Y013587D01*
X046529Y013469D01*
X046421Y013357D01*
X046309Y013249D01*
X046191Y013147D01*
X046068Y013052D01*
X045940Y012962D01*
X045809Y012879D01*
X045673Y012802D01*
X045534Y012732D01*
X045392Y012669D01*
X045246Y012613D01*
X045098Y012564D01*
X044948Y012522D01*
X044796Y012488D01*
X044643Y012461D01*
X044488Y012442D01*
X044333Y012431D01*
X044177Y012427D01*
X044021Y012431D01*
X043866Y012442D01*
X043711Y012461D01*
X043558Y012488D01*
X043406Y012522D01*
X043256Y012564D01*
X043108Y012613D01*
X042962Y012669D01*
X042820Y012732D01*
X042681Y012802D01*
X042545Y012879D01*
X042414Y012962D01*
X042286Y013052D01*
X042163Y013147D01*
X042045Y013249D01*
X041933Y013357D01*
X041825Y013469D01*
X041723Y013587D01*
X041628Y013710D01*
X041538Y013838D01*
X041455Y013969D01*
X041378Y014105D01*
X041308Y014244D01*
X041245Y014386D01*
X041189Y014532D01*
X041140Y014680D01*
X041098Y014830D01*
X041064Y014982D01*
X041037Y015135D01*
X041018Y015290D01*
X041007Y015445D01*
X041003Y015601D01*
X044021Y017439D02*
X044021Y017589D01*
X044096Y017664D01*
X044246Y017589D02*
X044246Y017439D01*
X044171Y017364D01*
X044096Y017364D01*
X044021Y017439D01*
X044246Y017589D02*
X044321Y017664D01*
X044396Y017664D01*
X044471Y017589D01*
X044471Y017439D01*
X044396Y017364D01*
X044321Y017824D02*
X044021Y017824D01*
X044021Y018124D02*
X044321Y018124D01*
X044471Y017974D01*
X044321Y017824D01*
X044171Y018284D02*
X044021Y018434D01*
X044471Y018434D01*
X044471Y018284D02*
X044471Y018584D01*
X043297Y015601D02*
X043299Y015660D01*
X043305Y015718D01*
X043315Y015776D01*
X043328Y015833D01*
X043346Y015890D01*
X043367Y015945D01*
X043392Y015998D01*
X043420Y016049D01*
X043451Y016099D01*
X043486Y016146D01*
X043524Y016191D01*
X043565Y016234D01*
X043609Y016273D01*
X043655Y016309D01*
X043703Y016343D01*
X043754Y016373D01*
X043807Y016399D01*
X043861Y016422D01*
X043916Y016441D01*
X043973Y016457D01*
X044031Y016469D01*
X044089Y016477D01*
X044148Y016481D01*
X044206Y016481D01*
X044265Y016477D01*
X044323Y016469D01*
X044381Y016457D01*
X044438Y016441D01*
X044493Y016422D01*
X044547Y016399D01*
X044600Y016373D01*
X044651Y016343D01*
X044699Y016309D01*
X044745Y016273D01*
X044789Y016234D01*
X044830Y016191D01*
X044868Y016146D01*
X044903Y016099D01*
X044934Y016049D01*
X044962Y015998D01*
X044987Y015945D01*
X045008Y015890D01*
X045026Y015833D01*
X045039Y015776D01*
X045049Y015718D01*
X045055Y015660D01*
X045057Y015601D01*
X045055Y015542D01*
X045049Y015484D01*
X045039Y015426D01*
X045026Y015369D01*
X045008Y015312D01*
X044987Y015257D01*
X044962Y015204D01*
X044934Y015153D01*
X044903Y015103D01*
X044868Y015056D01*
X044830Y015011D01*
X044789Y014968D01*
X044745Y014929D01*
X044699Y014893D01*
X044651Y014859D01*
X044600Y014829D01*
X044547Y014803D01*
X044493Y014780D01*
X044438Y014761D01*
X044381Y014745D01*
X044323Y014733D01*
X044265Y014725D01*
X044206Y014721D01*
X044148Y014721D01*
X044089Y014725D01*
X044031Y014733D01*
X043973Y014745D01*
X043916Y014761D01*
X043861Y014780D01*
X043807Y014803D01*
X043754Y014829D01*
X043703Y014859D01*
X043655Y014893D01*
X043609Y014929D01*
X043565Y014968D01*
X043524Y015011D01*
X043486Y015056D01*
X043451Y015103D01*
X043420Y015153D01*
X043392Y015204D01*
X043367Y015257D01*
X043346Y015312D01*
X043328Y015369D01*
X043315Y015426D01*
X043305Y015484D01*
X043299Y015542D01*
X043297Y015601D01*
X042057Y015601D02*
X042060Y015705D01*
X042067Y015809D01*
X042080Y015912D01*
X042098Y016015D01*
X042121Y016116D01*
X042148Y016216D01*
X042181Y016315D01*
X042218Y016412D01*
X042261Y016507D01*
X042307Y016600D01*
X042359Y016691D01*
X042414Y016779D01*
X042474Y016864D01*
X042538Y016946D01*
X042606Y017025D01*
X042678Y017100D01*
X042753Y017172D01*
X042832Y017240D01*
X042914Y017304D01*
X042999Y017364D01*
X043087Y017419D01*
X043178Y017471D01*
X043271Y017517D01*
X043366Y017560D01*
X043463Y017597D01*
X043562Y017630D01*
X043662Y017657D01*
X043763Y017680D01*
X043866Y017698D01*
X043969Y017711D01*
X044073Y017718D01*
X044177Y017721D01*
X044281Y017718D01*
X044385Y017711D01*
X044488Y017698D01*
X044591Y017680D01*
X044692Y017657D01*
X044792Y017630D01*
X044891Y017597D01*
X044988Y017560D01*
X045083Y017517D01*
X045176Y017471D01*
X045267Y017419D01*
X045355Y017364D01*
X045440Y017304D01*
X045522Y017240D01*
X045601Y017172D01*
X045676Y017100D01*
X045748Y017025D01*
X045816Y016946D01*
X045880Y016864D01*
X045940Y016779D01*
X045995Y016691D01*
X046047Y016600D01*
X046093Y016507D01*
X046136Y016412D01*
X046173Y016315D01*
X046206Y016216D01*
X046233Y016116D01*
X046256Y016015D01*
X046274Y015912D01*
X046287Y015809D01*
X046294Y015705D01*
X046297Y015601D01*
X046294Y015497D01*
X046287Y015393D01*
X046274Y015290D01*
X046256Y015187D01*
X046233Y015086D01*
X046206Y014986D01*
X046173Y014887D01*
X046136Y014790D01*
X046093Y014695D01*
X046047Y014602D01*
X045995Y014511D01*
X045940Y014423D01*
X045880Y014338D01*
X045816Y014256D01*
X045748Y014177D01*
X045676Y014102D01*
X045601Y014030D01*
X045522Y013962D01*
X045440Y013898D01*
X045355Y013838D01*
X045267Y013783D01*
X045176Y013731D01*
X045083Y013685D01*
X044988Y013642D01*
X044891Y013605D01*
X044792Y013572D01*
X044692Y013545D01*
X044591Y013522D01*
X044488Y013504D01*
X044385Y013491D01*
X044281Y013484D01*
X044177Y013481D01*
X044073Y013484D01*
X043969Y013491D01*
X043866Y013504D01*
X043763Y013522D01*
X043662Y013545D01*
X043562Y013572D01*
X043463Y013605D01*
X043366Y013642D01*
X043271Y013685D01*
X043178Y013731D01*
X043087Y013783D01*
X042999Y013838D01*
X042914Y013898D01*
X042832Y013962D01*
X042753Y014030D01*
X042678Y014102D01*
X042606Y014177D01*
X042538Y014256D01*
X042474Y014338D01*
X042414Y014423D01*
X042359Y014511D01*
X042307Y014602D01*
X042261Y014695D01*
X042218Y014790D01*
X042181Y014887D01*
X042148Y014986D01*
X042121Y015086D01*
X042098Y015187D01*
X042080Y015290D01*
X042067Y015393D01*
X042060Y015497D01*
X042057Y015601D01*
X036999Y017291D02*
X035621Y017291D01*
X035621Y019811D01*
X036999Y019811D01*
X036999Y017291D01*
X004342Y002856D02*
X004342Y001668D01*
X003780Y001668D01*
X003780Y002856D01*
X004342Y002856D01*
X004208Y004320D02*
X003146Y004320D01*
X003146Y004882D01*
X004208Y004882D01*
X004208Y004320D01*
D14*
X025577Y014101D03*
X036627Y009751D03*
D15*
X035627Y012051D03*
X024377Y023751D03*
D16*
X024627Y025351D02*
X023427Y025351D01*
X023427Y027051D01*
X024627Y027051D01*
X024627Y025351D01*
X023127Y025401D02*
X023127Y026401D01*
X021127Y026401D01*
X021127Y025401D01*
X023127Y025401D01*
X023977Y027901D02*
X021977Y027901D01*
X021977Y028901D01*
X023977Y028901D01*
X023977Y027901D01*
X024327Y029051D02*
X022627Y029051D01*
X022627Y030251D01*
X024327Y030251D01*
X024327Y029051D01*
X028777Y031351D02*
X028827Y031351D01*
X029677Y031351D01*
X029677Y030351D01*
X016827Y030351D01*
X016777Y030351D01*
X016827Y030351D02*
X015677Y030351D01*
X015677Y031351D01*
X028827Y031351D01*
X019325Y029546D02*
X019325Y027656D01*
X019128Y027656D01*
X019128Y029546D01*
X019325Y029546D01*
X019128Y029546D02*
X017829Y029546D01*
X017829Y027656D01*
X019128Y027656D01*
X011177Y030601D02*
X011177Y024601D01*
X009177Y024601D01*
X009177Y030601D01*
X011177Y030601D01*
X009177Y030601D02*
X009177Y024601D01*
X008177Y024601D01*
X008177Y030601D01*
X009177Y030601D01*
X004177Y026601D02*
X003177Y026601D01*
X003177Y025451D01*
X003177Y020601D01*
X004177Y020601D01*
X004177Y021451D01*
X004177Y026601D01*
X003177Y025501D02*
X003177Y025451D01*
X004177Y021501D02*
X004177Y021451D01*
X004177Y018851D02*
X003177Y018851D01*
X003177Y017701D01*
X003177Y012851D01*
X004177Y012851D01*
X004177Y013701D01*
X004177Y018851D01*
X003177Y017751D02*
X003177Y017701D01*
X004177Y013751D02*
X004177Y013701D01*
X004177Y011101D02*
X003177Y011101D01*
X003177Y009951D01*
X003177Y005101D01*
X004177Y005101D01*
X004177Y005951D01*
X004177Y011101D01*
X003177Y010001D02*
X003177Y009951D01*
X004177Y006001D02*
X004177Y005951D01*
X004462Y005101D02*
X004462Y004101D01*
X006612Y004101D01*
X008462Y004101D01*
X008462Y005101D01*
X006612Y005101D01*
X004462Y005101D01*
X006562Y005101D02*
X006612Y005101D01*
X006612Y004101D02*
X006562Y004101D01*
X008462Y003101D02*
X004462Y003101D01*
X004462Y001101D01*
X008462Y001101D01*
X008462Y003101D01*
X008903Y003727D02*
X008903Y002427D01*
X008903Y001127D01*
X013503Y001127D01*
X013503Y002427D01*
X013503Y003727D01*
X013503Y005027D01*
X008903Y005027D01*
X008903Y003727D01*
X009103Y003727D01*
X009103Y002427D01*
X008903Y002427D01*
X009403Y002327D02*
X010003Y002327D01*
X010003Y003827D01*
X009403Y003827D01*
X009403Y002327D01*
X010403Y002327D02*
X011003Y002327D01*
X011003Y003827D01*
X010403Y003827D01*
X010403Y002327D01*
X011403Y002327D02*
X012003Y002327D01*
X012003Y003827D01*
X011403Y003827D01*
X011403Y002327D01*
X012403Y002327D02*
X013003Y002327D01*
X013003Y003827D01*
X012403Y003827D01*
X012403Y002327D01*
X013303Y002427D02*
X013503Y002427D01*
X013303Y002427D02*
X013303Y003727D01*
X013503Y003727D01*
X013927Y004101D02*
X013927Y005101D01*
X021927Y005101D01*
X029927Y005101D01*
X029927Y004101D01*
X021927Y004101D01*
X013927Y004101D01*
X013927Y003101D02*
X021927Y003101D01*
X029927Y003101D01*
X029927Y001101D01*
X021927Y001101D01*
X013927Y001101D01*
X013927Y003101D01*
X030927Y003101D02*
X030927Y001101D01*
X038927Y001101D01*
X038927Y003101D01*
X030927Y003101D01*
X030927Y004101D02*
X030927Y005101D01*
X038927Y005101D01*
X038927Y004101D01*
X030927Y004101D01*
X039452Y004121D02*
X039452Y002821D01*
X039452Y001521D01*
X044052Y001521D01*
X044052Y002821D01*
X044052Y004121D01*
X044052Y005421D01*
X039452Y005421D01*
X039452Y004121D01*
X039652Y004121D01*
X039652Y002821D01*
X039452Y002821D01*
X039952Y002721D02*
X040552Y002721D01*
X040552Y004221D01*
X039952Y004221D01*
X039952Y002721D01*
X040952Y002721D02*
X041552Y002721D01*
X041552Y004221D01*
X040952Y004221D01*
X040952Y002721D01*
X041952Y002721D02*
X042552Y002721D01*
X042552Y004221D01*
X041952Y004221D01*
X041952Y002721D01*
X042952Y002721D02*
X043552Y002721D01*
X043552Y004221D01*
X042952Y004221D01*
X042952Y002721D01*
X043852Y002821D02*
X044052Y002821D01*
X043852Y002821D02*
X043852Y004121D01*
X044052Y004121D01*
X041077Y013201D02*
X039227Y013201D01*
X039177Y013201D01*
X039227Y013201D02*
X037077Y013201D01*
X037077Y014201D01*
X039227Y014201D01*
X039177Y014201D01*
X039227Y014201D02*
X041077Y014201D01*
X041077Y013201D01*
X038727Y017151D02*
X037727Y017151D01*
X037727Y019151D01*
X038727Y019151D01*
X038727Y017151D01*
D17*
X013477Y007651D03*
D18*
X032077Y011401D03*
D19*
X020227Y005801D03*
X015977Y005801D03*
D20*
X030227Y022101D02*
X030427Y022101D01*
X030927Y022101D02*
X031127Y022101D01*
D21*
X037827Y024401D03*
D22*
X019577Y027501D03*
D23*
X040252Y003396D03*
X040252Y003146D03*
X040252Y002896D03*
X041252Y002896D03*
X041252Y003146D03*
X041252Y003396D03*
X042252Y003396D03*
X042252Y003146D03*
X042252Y002896D03*
X043252Y002896D03*
X043252Y003146D03*
X043252Y003396D03*
X012703Y003002D03*
X012703Y002752D03*
X012703Y002502D03*
X011703Y002502D03*
X011703Y002752D03*
X011703Y003002D03*
X010703Y003002D03*
X010703Y002752D03*
X010703Y002502D03*
X009703Y002502D03*
X009703Y002752D03*
X009703Y003002D03*
M02*
