G75*
G70*
%OFA0B0*%
%FSLAX24Y24*%
%IPPOS*%
%LPD*%
%AMOC8*
5,1,8,0,0,1.08239X$1,22.5*
%
%ADD10C,0.0060*%
%ADD11C,0.0030*%
%ADD12C,0.0050*%
%ADD13C,0.0040*%
%ADD14C,0.0080*%
%ADD15C,0.0447*%
%ADD16C,0.0361*%
D10*
X027437Y005201D02*
X027537Y005201D01*
X027637Y005101D01*
X028137Y005101D02*
X028237Y005201D01*
X028337Y005201D01*
D11*
X040297Y010748D02*
X040297Y010872D01*
X040359Y010934D01*
X040359Y011055D02*
X040297Y011117D01*
X040297Y011240D01*
X040359Y011302D01*
X040606Y011302D01*
X040359Y011055D01*
X040606Y011055D01*
X040668Y011117D01*
X040668Y011240D01*
X040606Y011302D01*
X040483Y011423D02*
X040483Y011670D01*
X040668Y011608D02*
X040297Y011608D01*
X040483Y011423D02*
X040668Y011608D01*
X040606Y010934D02*
X040668Y010872D01*
X040668Y010748D01*
X040606Y010687D01*
X040359Y010687D01*
X040297Y010748D01*
D12*
X040230Y010770D02*
X040230Y011332D01*
X039043Y011332D01*
X039043Y010770D01*
X040230Y010770D01*
X039735Y010646D02*
X039735Y008756D01*
X037936Y008756D01*
X037936Y010646D01*
X037739Y010646D01*
X037739Y008756D01*
X037936Y008756D01*
X036368Y009307D02*
X036368Y010495D01*
X035805Y010495D01*
X035805Y009307D01*
X036368Y009307D01*
X035668Y009370D02*
X035668Y010432D01*
X035105Y010432D01*
X035105Y009370D01*
X035668Y009370D01*
X037936Y010646D02*
X039735Y010646D01*
X038630Y011270D02*
X038630Y011832D01*
X037443Y011832D01*
X037443Y011270D01*
X038630Y011270D01*
X039255Y014420D02*
X039818Y014420D01*
X039818Y015482D01*
X039255Y015482D01*
X039255Y014420D01*
X037818Y014420D02*
X037818Y015482D01*
X037255Y015482D01*
X037255Y014420D01*
X037818Y014420D01*
X033818Y013995D02*
X033818Y012807D01*
X033255Y012807D01*
X033255Y013995D01*
X033818Y013995D01*
X031780Y020520D02*
X030593Y020520D01*
X030593Y021082D01*
X031780Y021082D01*
X031780Y020520D01*
X027118Y021670D02*
X026055Y021670D01*
X026055Y022232D01*
X027118Y022232D01*
X027118Y021670D01*
X024568Y022207D02*
X024005Y022207D01*
X024005Y023395D01*
X024568Y023395D01*
X024568Y022207D01*
X023918Y018195D02*
X023355Y018195D01*
X023355Y017007D01*
X023918Y017007D01*
X023918Y018195D01*
X023230Y018282D02*
X023230Y017720D01*
X022043Y017720D01*
X022043Y018282D01*
X023230Y018282D01*
X021918Y018195D02*
X021355Y018195D01*
X021355Y017007D01*
X021918Y017007D01*
X021918Y018195D01*
X021918Y016995D02*
X021355Y016995D01*
X021355Y015807D01*
X021918Y015807D01*
X021918Y016995D01*
X022043Y016282D02*
X022043Y015720D01*
X023230Y015720D01*
X023230Y016282D01*
X022043Y016282D01*
X023355Y015807D02*
X023918Y015807D01*
X023918Y016995D01*
X023355Y016995D01*
X023355Y015807D01*
X016105Y015853D02*
X016105Y016728D01*
X014168Y016728D01*
X014168Y015853D01*
X016105Y015853D01*
X016105Y015888D02*
X016105Y015013D01*
X014168Y015013D01*
X014168Y015888D01*
X016105Y015888D01*
X016105Y020263D02*
X014168Y020263D01*
X014168Y021138D01*
X016105Y021138D01*
X016105Y020263D01*
X016105Y021063D02*
X016105Y021938D01*
X014168Y021938D01*
X014168Y021063D01*
X016105Y021063D01*
X018530Y026977D02*
X018530Y027539D01*
X019718Y027539D01*
X019718Y026977D01*
X018530Y026977D01*
X016105Y011438D02*
X014168Y011438D01*
X014168Y010563D01*
X016105Y010563D01*
X016105Y011438D01*
X016105Y010638D02*
X016105Y009763D01*
X014168Y009763D01*
X014168Y010638D01*
X016105Y010638D01*
X012030Y007782D02*
X012030Y007220D01*
X010843Y007220D01*
X010843Y007782D01*
X012030Y007782D01*
X016693Y006232D02*
X016693Y005670D01*
X017880Y005670D01*
X017880Y006232D01*
X016693Y006232D01*
D13*
X006941Y003156D02*
X006312Y003156D01*
X006312Y004046D01*
X006950Y004046D01*
X006954Y004046D02*
X007532Y004046D01*
X007532Y003156D01*
X006941Y003156D01*
X006894Y003156D01*
X007653Y003108D02*
X008013Y003108D01*
X008013Y003288D01*
X007953Y003348D01*
X007833Y003348D01*
X007773Y003288D01*
X007773Y003108D01*
X007773Y003228D02*
X007653Y003348D01*
X007653Y003476D02*
X008013Y003476D01*
X007653Y003716D01*
X008013Y003716D01*
X008013Y003845D02*
X008013Y004085D01*
X007953Y004085D01*
X007713Y003845D01*
X007653Y003845D01*
X011016Y006711D02*
X011016Y007071D01*
X011196Y006891D01*
X010956Y006891D01*
X011325Y006831D02*
X011385Y006891D01*
X011445Y006891D01*
X011385Y006891D02*
X011325Y006951D01*
X011325Y007011D01*
X011385Y007071D01*
X011505Y007071D01*
X011565Y007011D01*
X011693Y007011D02*
X011753Y007071D01*
X011873Y007071D01*
X011933Y007011D01*
X011933Y006771D01*
X011873Y006711D01*
X011753Y006711D01*
X011693Y006771D01*
X011565Y006771D02*
X011505Y006711D01*
X011385Y006711D01*
X011325Y006771D01*
X011325Y006831D01*
X012211Y003705D02*
X012211Y003076D01*
X012211Y002485D01*
X013102Y002485D01*
X013102Y003063D01*
X013102Y003067D02*
X013102Y003705D01*
X012211Y003705D01*
X012211Y003123D02*
X012211Y003076D01*
X012260Y002325D02*
X012380Y002265D01*
X012500Y002145D01*
X012320Y002145D01*
X012260Y002085D01*
X012260Y002025D01*
X012320Y001965D01*
X012440Y001965D01*
X012500Y002025D01*
X012500Y002145D01*
X012628Y001965D02*
X012628Y002325D01*
X012868Y002325D02*
X012628Y001965D01*
X012868Y001965D02*
X012868Y002325D01*
X012996Y002265D02*
X012996Y002145D01*
X013056Y002085D01*
X013236Y002085D01*
X013116Y002085D02*
X012996Y001965D01*
X013236Y001965D02*
X013236Y002325D01*
X013056Y002325D01*
X012996Y002265D01*
X016849Y005471D02*
X017089Y005230D01*
X017089Y005170D01*
X017217Y005230D02*
X017277Y005170D01*
X017397Y005170D01*
X017457Y005230D01*
X017457Y005350D02*
X017337Y005410D01*
X017277Y005410D01*
X017217Y005350D01*
X017217Y005230D01*
X017457Y005350D02*
X017457Y005531D01*
X017217Y005531D01*
X017089Y005531D02*
X016849Y005531D01*
X016849Y005471D01*
X017585Y005471D02*
X017645Y005531D01*
X017765Y005531D01*
X017825Y005471D01*
X017825Y005230D01*
X017765Y005170D01*
X017645Y005170D01*
X017585Y005230D01*
X018757Y004033D02*
X018757Y003913D01*
X018817Y003852D01*
X018937Y003852D02*
X018997Y003973D01*
X018997Y004033D01*
X018937Y004093D01*
X018817Y004093D01*
X018757Y004033D01*
X018937Y003852D02*
X019117Y003852D01*
X019117Y004093D01*
X019276Y004046D02*
X019276Y003156D01*
X019905Y003156D01*
X020497Y003156D01*
X020497Y004046D01*
X019918Y004046D01*
X019915Y004046D02*
X019276Y004046D01*
X019117Y003724D02*
X018757Y003724D01*
X019117Y003484D01*
X018757Y003484D01*
X018757Y003356D02*
X018877Y003236D01*
X018877Y003296D02*
X018877Y003116D01*
X018757Y003116D02*
X019117Y003116D01*
X019117Y003296D01*
X019057Y003356D01*
X018937Y003356D01*
X018877Y003296D01*
X019858Y003156D02*
X019905Y003156D01*
X023276Y003156D02*
X023905Y003156D01*
X024497Y003156D01*
X024497Y004046D01*
X023918Y004046D01*
X023915Y004046D02*
X023276Y004046D01*
X023276Y003156D01*
X023858Y003156D02*
X023905Y003156D01*
X024657Y003116D02*
X025017Y003116D01*
X025017Y003296D01*
X024957Y003356D01*
X024837Y003356D01*
X024777Y003296D01*
X024777Y003116D01*
X024777Y003236D02*
X024657Y003356D01*
X024657Y003484D02*
X025017Y003484D01*
X024657Y003724D01*
X025017Y003724D01*
X024957Y003852D02*
X025017Y003913D01*
X025017Y004033D01*
X024957Y004093D01*
X024897Y004093D01*
X024657Y003852D01*
X024657Y004093D01*
X026757Y004098D02*
X026757Y003857D01*
X026757Y003977D02*
X027117Y003977D01*
X026997Y003857D01*
X027117Y003729D02*
X026757Y003729D01*
X027117Y003489D01*
X026757Y003489D01*
X026757Y003361D02*
X026877Y003241D01*
X026877Y003301D02*
X026877Y003121D01*
X026757Y003121D02*
X027117Y003121D01*
X027117Y003301D01*
X027057Y003361D01*
X026937Y003361D01*
X026877Y003301D01*
X027276Y003156D02*
X027905Y003156D01*
X028497Y003156D01*
X028497Y004046D01*
X027918Y004046D01*
X027915Y004046D02*
X027276Y004046D01*
X027276Y003156D01*
X027858Y003156D02*
X027905Y003156D01*
X032276Y003156D02*
X032905Y003156D01*
X033497Y003156D01*
X033497Y004046D01*
X032918Y004046D01*
X032915Y004046D02*
X032276Y004046D01*
X032276Y003156D01*
X032858Y003156D02*
X032905Y003156D01*
X033657Y003116D02*
X034017Y003116D01*
X034017Y003296D01*
X033957Y003356D01*
X033837Y003356D01*
X033777Y003296D01*
X033777Y003116D01*
X033777Y003236D02*
X033657Y003356D01*
X033657Y003484D02*
X034017Y003484D01*
X033657Y003724D01*
X034017Y003724D01*
X033837Y003852D02*
X033837Y004093D01*
X034017Y004033D02*
X033837Y003852D01*
X033657Y004033D02*
X034017Y004033D01*
X039518Y004083D02*
X039518Y003504D01*
X039518Y003501D02*
X039518Y002863D01*
X040409Y002863D01*
X040409Y003491D01*
X040409Y004083D01*
X039518Y004083D01*
X040409Y003491D02*
X040409Y003444D01*
X040443Y002753D02*
X040263Y002753D01*
X040203Y002693D01*
X040203Y002573D01*
X040263Y002513D01*
X040443Y002513D01*
X040323Y002513D02*
X040203Y002393D01*
X040075Y002393D02*
X040075Y002753D01*
X039835Y002393D01*
X039835Y002753D01*
X039707Y002693D02*
X039647Y002753D01*
X039527Y002753D01*
X039467Y002693D01*
X039467Y002633D01*
X039527Y002573D01*
X039467Y002513D01*
X039467Y002453D01*
X039527Y002393D01*
X039647Y002393D01*
X039707Y002453D01*
X039587Y002573D02*
X039527Y002573D01*
X040443Y002393D02*
X040443Y002753D01*
X039312Y008221D02*
X039191Y008221D01*
X039131Y008281D01*
X039131Y008581D01*
X039003Y008461D02*
X038883Y008581D01*
X038883Y008221D01*
X039003Y008221D02*
X038763Y008221D01*
X038635Y008281D02*
X038575Y008221D01*
X038455Y008221D01*
X038395Y008281D01*
X038395Y008401D01*
X038455Y008461D01*
X038515Y008461D01*
X038635Y008401D01*
X038635Y008581D01*
X038395Y008581D01*
X039372Y008581D02*
X039372Y008281D01*
X039312Y008221D01*
X036055Y008755D02*
X036055Y009115D01*
X035875Y009115D01*
X035815Y009055D01*
X035815Y008935D01*
X035875Y008875D01*
X036055Y008875D01*
X035935Y008875D02*
X035815Y008755D01*
X035687Y008815D02*
X035627Y008755D01*
X035507Y008755D01*
X035447Y008815D01*
X035447Y008875D01*
X035507Y008935D01*
X035687Y008935D01*
X035687Y008815D01*
X035687Y008935D02*
X035567Y009055D01*
X035447Y009115D01*
X035319Y008935D02*
X035138Y008935D01*
X035078Y008875D01*
X035078Y008815D01*
X035138Y008755D01*
X035259Y008755D01*
X035319Y008815D01*
X035319Y008935D01*
X035198Y009055D01*
X035078Y009115D01*
X035709Y010621D02*
X035829Y010621D01*
X035889Y010681D01*
X035889Y010802D02*
X035769Y010862D01*
X035709Y010862D01*
X035649Y010802D01*
X035649Y010681D01*
X035709Y010621D01*
X035889Y010802D02*
X035889Y010982D01*
X035649Y010982D01*
X036017Y010802D02*
X036257Y010802D01*
X036077Y010982D01*
X036077Y010621D01*
X036385Y010681D02*
X036445Y010621D01*
X036565Y010621D01*
X036625Y010681D01*
X036625Y010922D01*
X036565Y010982D01*
X036445Y010982D01*
X036385Y010922D01*
X037839Y011971D02*
X037839Y012031D01*
X037599Y012272D01*
X037599Y012332D01*
X037839Y012332D01*
X038027Y012332D02*
X038207Y012152D01*
X037967Y012152D01*
X038027Y012332D02*
X038027Y011971D01*
X038335Y012031D02*
X038395Y011971D01*
X038515Y011971D01*
X038575Y012031D01*
X038575Y012272D01*
X038515Y012332D01*
X038395Y012332D01*
X038335Y012272D01*
X039944Y014342D02*
X040304Y014342D01*
X040304Y014522D01*
X040244Y014582D01*
X040124Y014582D01*
X040064Y014522D01*
X040064Y014342D01*
X040064Y014462D02*
X039944Y014582D01*
X040004Y014710D02*
X039944Y014771D01*
X039944Y014891D01*
X040004Y014951D01*
X040124Y014951D01*
X040184Y014891D01*
X040184Y014831D01*
X040124Y014710D01*
X040304Y014710D01*
X040304Y014951D01*
X040124Y015079D02*
X040124Y015259D01*
X040064Y015319D01*
X040004Y015319D01*
X039944Y015259D01*
X039944Y015139D01*
X040004Y015079D01*
X040124Y015079D01*
X040244Y015199D01*
X040304Y015319D01*
X037129Y015311D02*
X037129Y015191D01*
X037069Y015131D01*
X037129Y015003D02*
X037129Y014763D01*
X036949Y014763D01*
X037009Y014883D01*
X037009Y014943D01*
X036949Y015003D01*
X036829Y015003D01*
X036769Y014943D01*
X036769Y014823D01*
X036829Y014763D01*
X036769Y014635D02*
X036889Y014515D01*
X036889Y014575D02*
X036889Y014394D01*
X036769Y014394D02*
X037129Y014394D01*
X037129Y014575D01*
X037069Y014635D01*
X036949Y014635D01*
X036889Y014575D01*
X036769Y015131D02*
X037009Y015371D01*
X037069Y015371D01*
X037129Y015311D01*
X036769Y015371D02*
X036769Y015131D01*
X034313Y014470D02*
X034313Y014230D01*
X034253Y014170D01*
X034133Y014170D01*
X034073Y014230D01*
X033945Y014170D02*
X033704Y014410D01*
X033704Y014470D01*
X033765Y014530D01*
X033885Y014530D01*
X033945Y014470D01*
X034073Y014470D02*
X034133Y014530D01*
X034253Y014530D01*
X034313Y014470D01*
X033945Y014170D02*
X033704Y014170D01*
X033576Y014170D02*
X033576Y014230D01*
X033336Y014470D01*
X033336Y014530D01*
X033576Y014530D01*
X025075Y017031D02*
X025015Y016971D01*
X024895Y016971D01*
X024835Y017031D01*
X024707Y016971D02*
X024467Y017212D01*
X024467Y017272D01*
X024527Y017332D01*
X024647Y017332D01*
X024707Y017272D01*
X024835Y017272D02*
X024895Y017332D01*
X025015Y017332D01*
X025075Y017272D01*
X025075Y017031D01*
X024707Y016971D02*
X024467Y016971D01*
X024339Y016971D02*
X024099Y017212D01*
X024099Y017272D01*
X024159Y017332D01*
X024279Y017332D01*
X024339Y017272D01*
X024339Y016971D02*
X024099Y016971D01*
X024067Y016039D02*
X024007Y015979D01*
X024007Y015859D01*
X024067Y015799D01*
X024308Y016039D01*
X024067Y016039D01*
X024067Y015799D02*
X024308Y015799D01*
X024368Y015859D01*
X024368Y015979D01*
X024308Y016039D01*
X024308Y015671D02*
X024368Y015611D01*
X024368Y015491D01*
X024308Y015430D01*
X024308Y015302D02*
X024368Y015242D01*
X024368Y015122D01*
X024308Y015062D01*
X024067Y015062D01*
X024007Y015122D01*
X024007Y015242D01*
X024067Y015302D01*
X024007Y015430D02*
X024248Y015671D01*
X024308Y015671D01*
X024007Y015671D02*
X024007Y015430D01*
X023275Y015472D02*
X023275Y015231D01*
X023215Y015171D01*
X023095Y015171D01*
X023035Y015231D01*
X022907Y015171D02*
X022667Y015171D01*
X022787Y015171D02*
X022787Y015532D01*
X022907Y015412D01*
X023035Y015472D02*
X023095Y015532D01*
X023215Y015532D01*
X023275Y015472D01*
X022539Y015472D02*
X022539Y015412D01*
X022479Y015352D01*
X022359Y015352D01*
X022299Y015292D01*
X022299Y015231D01*
X022359Y015171D01*
X022479Y015171D01*
X022539Y015231D01*
X022539Y015292D01*
X022479Y015352D01*
X022359Y015352D02*
X022299Y015412D01*
X022299Y015472D01*
X022359Y015532D01*
X022479Y015532D01*
X022539Y015472D01*
X021275Y016731D02*
X021215Y016671D01*
X021095Y016671D01*
X021035Y016731D01*
X020907Y016671D02*
X020667Y016671D01*
X020787Y016671D02*
X020787Y017032D01*
X020907Y016912D01*
X021035Y016972D02*
X021095Y017032D01*
X021215Y017032D01*
X021275Y016972D01*
X021275Y016731D01*
X020539Y016731D02*
X020479Y016671D01*
X020359Y016671D01*
X020299Y016731D01*
X020299Y016972D01*
X020359Y017032D01*
X020479Y017032D01*
X020539Y016972D01*
X020539Y016912D01*
X020479Y016852D01*
X020299Y016852D01*
X020867Y017562D02*
X020807Y017622D01*
X020807Y017742D01*
X020867Y017802D01*
X020807Y017930D02*
X020807Y018171D01*
X020807Y018051D02*
X021168Y018051D01*
X021048Y017930D01*
X021108Y017802D02*
X021168Y017742D01*
X021168Y017622D01*
X021108Y017562D01*
X020867Y017562D01*
X020867Y018299D02*
X020807Y018299D01*
X020867Y018299D02*
X021108Y018539D01*
X021168Y018539D01*
X021168Y018299D01*
X022186Y018370D02*
X022426Y018370D01*
X022306Y018370D02*
X022306Y018730D01*
X022426Y018610D01*
X022554Y018610D02*
X022554Y018670D01*
X022615Y018730D01*
X022735Y018730D01*
X022795Y018670D01*
X022923Y018670D02*
X022983Y018730D01*
X023103Y018730D01*
X023163Y018670D01*
X023163Y018430D01*
X023103Y018370D01*
X022983Y018370D01*
X022923Y018430D01*
X022795Y018370D02*
X022554Y018610D01*
X022554Y018370D02*
X022795Y018370D01*
X027319Y021818D02*
X027379Y021758D01*
X027499Y021758D01*
X027559Y021818D01*
X027319Y022059D01*
X027319Y021818D01*
X027559Y021818D02*
X027559Y022059D01*
X027499Y022119D01*
X027379Y022119D01*
X027319Y022059D01*
X027687Y022119D02*
X027927Y022119D01*
X027927Y021938D01*
X027807Y021999D01*
X027747Y021999D01*
X027687Y021938D01*
X027687Y021818D01*
X027747Y021758D01*
X027867Y021758D01*
X027927Y021818D01*
X028055Y021758D02*
X028175Y021878D01*
X028115Y021878D02*
X028295Y021878D01*
X028295Y021758D02*
X028295Y022119D01*
X028115Y022119D01*
X028055Y022059D01*
X028055Y021938D01*
X028115Y021878D01*
X030339Y021654D02*
X030339Y021594D01*
X030399Y021534D01*
X030339Y021474D01*
X030339Y021414D01*
X030399Y021354D01*
X030519Y021354D01*
X030579Y021414D01*
X030707Y021354D02*
X030947Y021354D01*
X030827Y021354D02*
X030827Y021714D01*
X030947Y021594D01*
X031076Y021654D02*
X031136Y021714D01*
X031256Y021714D01*
X031316Y021654D01*
X031316Y021414D01*
X031256Y021354D01*
X031136Y021354D01*
X031076Y021414D01*
X030579Y021654D02*
X030519Y021714D01*
X030399Y021714D01*
X030339Y021654D01*
X030399Y021534D02*
X030459Y021534D01*
X023816Y022335D02*
X023756Y022274D01*
X023516Y022274D01*
X023456Y022335D01*
X023456Y022455D01*
X023516Y022515D01*
X023456Y022643D02*
X023456Y022883D01*
X023456Y022763D02*
X023816Y022763D01*
X023696Y022643D01*
X023756Y022515D02*
X023816Y022455D01*
X023816Y022335D01*
X023636Y023011D02*
X023636Y023251D01*
X023456Y023191D02*
X023816Y023191D01*
X023636Y023011D01*
X019596Y027676D02*
X019476Y027676D01*
X019416Y027736D01*
X019288Y027736D02*
X019228Y027676D01*
X019108Y027676D01*
X019048Y027736D01*
X019048Y027796D01*
X019108Y027856D01*
X019288Y027856D01*
X019288Y027736D01*
X019288Y027856D02*
X019168Y027976D01*
X019048Y028036D01*
X018920Y027856D02*
X018740Y027856D01*
X018680Y027796D01*
X018680Y027736D01*
X018740Y027676D01*
X018860Y027676D01*
X018920Y027736D01*
X018920Y027856D01*
X018800Y027976D01*
X018680Y028036D01*
X019416Y027976D02*
X019476Y028036D01*
X019596Y028036D01*
X019656Y027976D01*
X019656Y027736D01*
X019596Y027676D01*
X016863Y021730D02*
X016683Y021730D01*
X016623Y021670D01*
X016623Y021550D01*
X016683Y021490D01*
X016863Y021490D01*
X016863Y021370D02*
X016863Y021730D01*
X016743Y021490D02*
X016623Y021370D01*
X016495Y021370D02*
X016495Y021430D01*
X016254Y021670D01*
X016254Y021730D01*
X016495Y021730D01*
X016435Y020830D02*
X016315Y020830D01*
X016254Y020770D01*
X016254Y020710D01*
X016315Y020650D01*
X016435Y020650D01*
X016495Y020710D01*
X016495Y020770D01*
X016435Y020830D01*
X016435Y020650D02*
X016495Y020590D01*
X016495Y020530D01*
X016435Y020470D01*
X016315Y020470D01*
X016254Y020530D01*
X016254Y020590D01*
X016315Y020650D01*
X016623Y020650D02*
X016683Y020590D01*
X016863Y020590D01*
X016863Y020470D02*
X016863Y020830D01*
X016683Y020830D01*
X016623Y020770D01*
X016623Y020650D01*
X016743Y020590D02*
X016623Y020470D01*
X016683Y016520D02*
X016623Y016460D01*
X016623Y016340D01*
X016683Y016280D01*
X016863Y016280D01*
X016743Y016280D02*
X016623Y016159D01*
X016495Y016220D02*
X016435Y016159D01*
X016315Y016159D01*
X016254Y016220D01*
X016254Y016460D01*
X016315Y016520D01*
X016435Y016520D01*
X016495Y016460D01*
X016495Y016400D01*
X016435Y016340D01*
X016254Y016340D01*
X016683Y016520D02*
X016863Y016520D01*
X016863Y016159D01*
X016775Y015580D02*
X016775Y015220D01*
X016895Y015220D02*
X016654Y015220D01*
X016526Y015280D02*
X016286Y015520D01*
X016286Y015280D01*
X016346Y015220D01*
X016466Y015220D01*
X016526Y015280D01*
X016526Y015520D01*
X016466Y015580D01*
X016346Y015580D01*
X016286Y015520D01*
X016775Y015580D02*
X016895Y015460D01*
X017023Y015520D02*
X017023Y015400D01*
X017083Y015340D01*
X017263Y015340D01*
X017263Y015220D02*
X017263Y015580D01*
X017083Y015580D01*
X017023Y015520D01*
X017143Y015340D02*
X017023Y015220D01*
X017083Y011230D02*
X017023Y011170D01*
X017023Y011050D01*
X017083Y010990D01*
X017263Y010990D01*
X017263Y010870D02*
X017263Y011230D01*
X017083Y011230D01*
X016895Y011110D02*
X016775Y011230D01*
X016775Y010870D01*
X016895Y010870D02*
X016654Y010870D01*
X016526Y010870D02*
X016286Y010870D01*
X016406Y010870D02*
X016406Y011230D01*
X016526Y011110D01*
X017023Y010870D02*
X017143Y010990D01*
X017083Y010330D02*
X017023Y010270D01*
X017023Y010150D01*
X017083Y010090D01*
X017263Y010090D01*
X017263Y009970D02*
X017263Y010330D01*
X017083Y010330D01*
X016895Y010210D02*
X016775Y010330D01*
X016775Y009970D01*
X016895Y009970D02*
X016654Y009970D01*
X016526Y009970D02*
X016286Y010210D01*
X016286Y010270D01*
X016346Y010330D01*
X016466Y010330D01*
X016526Y010270D01*
X016526Y009970D02*
X016286Y009970D01*
X017023Y009970D02*
X017143Y010090D01*
X019915Y007785D02*
X019915Y007425D01*
X020035Y007425D02*
X019795Y007425D01*
X020035Y007665D02*
X019915Y007785D01*
X020283Y007785D02*
X020283Y007425D01*
X020403Y007425D02*
X020163Y007425D01*
X020403Y007665D02*
X020283Y007785D01*
X020531Y007785D02*
X020531Y007485D01*
X020591Y007425D01*
X020712Y007425D01*
X020772Y007485D01*
X020772Y007785D01*
D14*
X020885Y008156D02*
X020885Y012046D01*
X019586Y012046D01*
X019389Y012046D01*
X019389Y008156D01*
X019586Y008156D01*
X019586Y012046D01*
X019586Y008156D02*
X020885Y008156D01*
D15*
X019137Y007801D03*
D16*
X037487Y008451D03*
M02*
