G75*
G70*
%OFA0B0*%
%FSLAX24Y24*%
%IPPOS*%
%LPD*%
%AMOC8*
5,1,8,0,0,1.08239X$1,22.5*
%
%ADD10R,0.0789X0.0277*%
%ADD11R,0.0277X0.0789*%
%ADD12R,0.0198X0.0671*%
%ADD13R,0.0789X0.0552*%
%ADD14R,0.0510X0.0470*%
%ADD15R,0.0640X0.0360*%
%ADD16R,0.0600X0.0600*%
%ADD17OC8,0.0600*%
%ADD18R,0.0395X0.0395*%
%ADD19R,0.0640X0.0640*%
%ADD20OC8,0.0640*%
%ADD21R,0.0680X0.0680*%
%ADD22OC8,0.0680*%
%ADD23R,0.0470X0.0200*%
%ADD24C,0.0634*%
%ADD25C,0.2380*%
%ADD26R,0.0316X0.0474*%
%ADD27R,0.0474X0.0316*%
%ADD28R,0.0470X0.0510*%
%ADD29R,0.0710X0.0186*%
%ADD30R,0.0186X0.0710*%
%ADD31OC8,0.0848*%
%ADD32OC8,0.0634*%
%ADD33R,0.0330X0.0930*%
%ADD34R,0.0200X0.0470*%
%ADD35R,0.0595X0.0595*%
%ADD36OC8,0.0595*%
%ADD37R,0.1064X0.0848*%
%ADD38R,0.0316X0.0946*%
%ADD39R,0.0631X0.0474*%
%ADD40R,0.0867X0.0277*%
%ADD41R,0.0946X0.1064*%
%ADD42R,0.1458X0.0710*%
%ADD43R,0.1180X0.0630*%
%ADD44C,0.0600*%
%ADD45R,0.2080X0.0780*%
%ADD46R,0.1025X0.1025*%
%ADD47R,0.0297X0.0552*%
%ADD48R,0.0710X0.0789*%
%ADD49R,0.0430X0.0245*%
%ADD50R,0.0907X0.1182*%
%ADD51R,0.0671X0.1379*%
%ADD52R,0.0671X0.0474*%
%ADD53R,0.0789X0.0710*%
%ADD54R,0.0710X0.1458*%
%ADD55R,0.0552X0.0297*%
%ADD56R,0.1130X0.1080*%
%ADD57R,0.0380X0.0580*%
%ADD58R,0.0400X0.0400*%
%ADD59R,0.2560X0.0926*%
%ADD60R,0.0848X0.1064*%
%ADD61R,0.0946X0.0316*%
%ADD62R,0.1020X0.1370*%
%ADD63R,0.1222X0.2206*%
%ADD64R,0.0790X0.0710*%
%ADD65OC8,0.0730*%
%ADD66C,0.0680*%
%ADD67R,0.0474X0.0237*%
%ADD68R,0.0434X0.0356*%
%ADD69R,0.1143X0.0710*%
%ADD70R,0.2245X0.0808*%
%ADD71R,0.2206X0.2521*%
%ADD72R,0.0474X0.0710*%
%ADD73R,0.0741X0.1419*%
%ADD74R,0.2186X0.1832*%
%ADD75R,0.0293X0.0336*%
%ADD76C,0.1660*%
%ADD77OC8,0.0397*%
%ADD78OC8,0.0555*%
%ADD79C,0.0390*%
D10*
X027487Y015122D03*
X027487Y015437D03*
X027487Y015752D03*
X027487Y016067D03*
X027487Y016382D03*
X027487Y016697D03*
X027487Y017012D03*
X027487Y017327D03*
X027487Y017642D03*
X027487Y017957D03*
X027487Y018272D03*
X027487Y018587D03*
X027487Y018902D03*
X027487Y019217D03*
X027487Y019532D03*
X027487Y019847D03*
X033786Y019847D03*
X033786Y019532D03*
X033786Y019217D03*
X033786Y018902D03*
X033786Y018587D03*
X033786Y018272D03*
X033786Y017957D03*
X033786Y017642D03*
X033786Y017327D03*
X033786Y017012D03*
X033786Y016697D03*
X033786Y016382D03*
X033786Y016067D03*
X033786Y015752D03*
X033786Y015437D03*
X033786Y015122D03*
D11*
X032999Y014335D03*
X032684Y014335D03*
X032369Y014335D03*
X032054Y014335D03*
X031739Y014335D03*
X031424Y014335D03*
X031109Y014335D03*
X030794Y014335D03*
X030479Y014335D03*
X030164Y014335D03*
X029849Y014335D03*
X029534Y014335D03*
X029219Y014335D03*
X028904Y014335D03*
X028589Y014335D03*
X028274Y014335D03*
X028274Y020634D03*
X028589Y020634D03*
X028904Y020634D03*
X029219Y020634D03*
X029534Y020634D03*
X029849Y020634D03*
X030164Y020634D03*
X030479Y020634D03*
X030794Y020634D03*
X031109Y020634D03*
X031424Y020634D03*
X031739Y020634D03*
X032054Y020634D03*
X032369Y020634D03*
X032684Y020634D03*
X032999Y020634D03*
D12*
X037123Y012962D03*
X037379Y012962D03*
X037635Y012962D03*
X037891Y012962D03*
X038147Y012962D03*
X038403Y012962D03*
X038659Y012962D03*
X038915Y012962D03*
X039171Y012962D03*
X039426Y012962D03*
X039682Y012962D03*
X039938Y012962D03*
X040194Y012962D03*
X040450Y012962D03*
X040450Y010107D03*
X040194Y010107D03*
X039938Y010107D03*
X039682Y010107D03*
X039426Y010107D03*
X039171Y010107D03*
X038915Y010107D03*
X038659Y010107D03*
X038403Y010107D03*
X038147Y010107D03*
X037891Y010107D03*
X037635Y010107D03*
X037379Y010107D03*
X037123Y010107D03*
D13*
X034237Y013335D03*
X034237Y014634D03*
X041737Y012534D03*
X041737Y011235D03*
D14*
X040537Y008659D03*
X040537Y008010D03*
X035737Y010160D03*
X035737Y010809D03*
X035737Y011710D03*
X035737Y012359D03*
X030387Y002909D03*
X030387Y002260D03*
X021137Y009360D03*
X021137Y010009D03*
X017337Y010060D03*
X017337Y010709D03*
X017337Y011460D03*
X017337Y012109D03*
X017337Y015360D03*
X017337Y016009D03*
X017337Y016760D03*
X017337Y017409D03*
X017337Y020560D03*
X017337Y021209D03*
X017337Y021960D03*
X017337Y022609D03*
X016587Y029610D03*
X016587Y030259D03*
X022187Y030459D03*
X022187Y029810D03*
X024737Y029810D03*
X024737Y030459D03*
X033755Y026527D03*
X033755Y025878D03*
X038432Y026394D03*
X038432Y027043D03*
X040337Y025309D03*
X040337Y024660D03*
X013387Y002909D03*
X013387Y002260D03*
X008037Y024060D03*
X008037Y024709D03*
D15*
X021724Y024274D03*
X023693Y024274D03*
X023693Y022127D03*
X021724Y022127D03*
D16*
X016137Y031335D03*
X003637Y021585D03*
X003637Y013835D03*
X003637Y006085D03*
X012387Y005085D03*
X029387Y005085D03*
X038387Y005085D03*
X040537Y014185D03*
D17*
X039537Y014185D03*
X038537Y014185D03*
X037537Y014185D03*
X037387Y005085D03*
X036387Y005085D03*
X035387Y005085D03*
X034387Y005085D03*
X033387Y005085D03*
X032387Y005085D03*
X031387Y005085D03*
X028387Y005085D03*
X027387Y005085D03*
X026387Y005085D03*
X025387Y005085D03*
X024387Y005085D03*
X023387Y005085D03*
X022387Y005085D03*
X021387Y005085D03*
X020387Y005085D03*
X019387Y005085D03*
X018387Y005085D03*
X017387Y005085D03*
X016387Y005085D03*
X015387Y005085D03*
X014387Y005085D03*
X011387Y005085D03*
X010387Y005085D03*
X009387Y005085D03*
X003637Y007085D03*
X003637Y008085D03*
X003637Y009085D03*
X003637Y010085D03*
X003637Y011085D03*
X003637Y014835D03*
X003637Y015835D03*
X003637Y016835D03*
X003637Y017835D03*
X003637Y018835D03*
X003637Y022585D03*
X003637Y023585D03*
X003637Y024585D03*
X003637Y025585D03*
X003637Y026585D03*
X017137Y031335D03*
X018137Y031335D03*
X019137Y031335D03*
X020137Y031335D03*
X021137Y031335D03*
X022137Y031335D03*
X023137Y031335D03*
X024137Y031335D03*
X025137Y031335D03*
X026137Y031335D03*
X027137Y031335D03*
X028137Y031335D03*
X029137Y031335D03*
D18*
X004637Y026880D03*
X004637Y026289D03*
X004637Y025780D03*
X004637Y025189D03*
X004637Y022980D03*
X004637Y022389D03*
X004637Y021880D03*
X004637Y021289D03*
X004637Y019130D03*
X004637Y018539D03*
X004637Y018030D03*
X004637Y017439D03*
X004637Y015230D03*
X004637Y014639D03*
X004637Y014130D03*
X004637Y013539D03*
X004637Y011380D03*
X004637Y010789D03*
X004637Y010280D03*
X004637Y009689D03*
X004637Y007480D03*
X004637Y006889D03*
X004637Y006380D03*
X004637Y005789D03*
X040341Y001835D03*
X040932Y001835D03*
X042591Y001835D03*
X043182Y001835D03*
D19*
X031387Y003085D03*
X014387Y003085D03*
X009387Y003085D03*
D20*
X010387Y003085D03*
X011387Y003085D03*
X011387Y002085D03*
X010387Y002085D03*
X009387Y002085D03*
X012387Y002085D03*
X012387Y003085D03*
X014387Y002085D03*
X015387Y002085D03*
X015387Y003085D03*
X016387Y003085D03*
X017387Y003085D03*
X018387Y003085D03*
X019387Y003085D03*
X020387Y003085D03*
X020387Y002085D03*
X019387Y002085D03*
X018387Y002085D03*
X017387Y002085D03*
X016387Y002085D03*
X021387Y002085D03*
X021387Y003085D03*
X022387Y003085D03*
X023387Y003085D03*
X024387Y003085D03*
X025387Y003085D03*
X026387Y003085D03*
X027387Y003085D03*
X028387Y003085D03*
X029387Y003085D03*
X029387Y002085D03*
X028387Y002085D03*
X027387Y002085D03*
X026387Y002085D03*
X025387Y002085D03*
X024387Y002085D03*
X023387Y002085D03*
X022387Y002085D03*
X031387Y002085D03*
X032387Y002085D03*
X032387Y003085D03*
X033387Y003085D03*
X034387Y003085D03*
X035387Y003085D03*
X036387Y003085D03*
X037387Y003085D03*
X038387Y003085D03*
X038387Y002085D03*
X037387Y002085D03*
X036387Y002085D03*
X035387Y002085D03*
X034387Y002085D03*
X033387Y002085D03*
D21*
X009637Y025585D03*
X008637Y030585D03*
X038239Y031329D03*
D22*
X010637Y030585D03*
X009637Y030585D03*
X009637Y029585D03*
X010637Y029585D03*
X010637Y028585D03*
X009637Y028585D03*
X008637Y028585D03*
X008637Y029585D03*
X008637Y027585D03*
X009637Y027585D03*
X010637Y027585D03*
X010637Y026585D03*
X009637Y026585D03*
X008637Y026585D03*
X008637Y025585D03*
X010637Y025585D03*
D23*
X013388Y007830D03*
X013388Y007574D03*
X013388Y007318D03*
X013388Y007063D03*
X013388Y006807D03*
X013388Y006551D03*
X013388Y006295D03*
X013388Y006039D03*
X015685Y006039D03*
X015685Y006295D03*
X015685Y006551D03*
X015685Y006807D03*
X015685Y007063D03*
X015685Y007318D03*
X015685Y007574D03*
X015685Y007830D03*
D24*
X041337Y026985D03*
X043337Y026985D03*
D25*
X006137Y004085D03*
X006137Y029085D03*
X041637Y004085D03*
D26*
X016971Y013085D03*
X016302Y013085D03*
X016302Y018385D03*
X016971Y018385D03*
X016971Y023585D03*
X016302Y023585D03*
X007471Y018785D03*
X006802Y018785D03*
X003971Y019835D03*
X003302Y019835D03*
X003302Y020585D03*
X003971Y020585D03*
X003971Y027585D03*
X003302Y027585D03*
X017302Y030435D03*
X017971Y030435D03*
X019202Y030435D03*
X019871Y030435D03*
X039102Y022485D03*
X039771Y022485D03*
X007471Y013585D03*
X006802Y013585D03*
X003971Y012835D03*
X003302Y012835D03*
X003302Y012085D03*
X003971Y012085D03*
X003971Y005085D03*
X003302Y005085D03*
D27*
X016637Y010150D03*
X016637Y010819D03*
X016637Y011350D03*
X016637Y012019D03*
X016637Y015450D03*
X016637Y016119D03*
X016637Y016650D03*
X016637Y017319D03*
X018537Y020450D03*
X019237Y020450D03*
X019237Y021119D03*
X018537Y021119D03*
X016637Y021319D03*
X016637Y021850D03*
X016637Y022519D03*
X017887Y023250D03*
X018537Y023250D03*
X018537Y023919D03*
X017887Y023919D03*
X016637Y020650D03*
X025637Y014119D03*
X025637Y013450D03*
X037537Y015100D03*
X037537Y015769D03*
X043637Y003919D03*
X043637Y003250D03*
X044337Y003250D03*
X044337Y003919D03*
X015887Y029700D03*
X015887Y030369D03*
X006637Y024769D03*
X006637Y024100D03*
D28*
X009712Y024085D03*
X010361Y024085D03*
X014312Y024085D03*
X014961Y024085D03*
X020512Y029085D03*
X021161Y029085D03*
X023662Y027985D03*
X024311Y027985D03*
X028912Y023935D03*
X029561Y023935D03*
X031812Y023935D03*
X032461Y023935D03*
X035812Y023985D03*
X036461Y023985D03*
X039112Y023185D03*
X039761Y023185D03*
X040062Y015135D03*
X040711Y015135D03*
X033061Y013585D03*
X032412Y013585D03*
X030561Y013385D03*
X029912Y013385D03*
X030712Y006685D03*
X031361Y006685D03*
X022261Y004085D03*
X021612Y004085D03*
X020511Y009135D03*
X019862Y009135D03*
X013961Y013585D03*
X013312Y013585D03*
X010361Y013585D03*
X009712Y013585D03*
X009712Y018785D03*
X010361Y018785D03*
X013312Y018785D03*
X013961Y018785D03*
D29*
X019645Y018863D03*
X019645Y019059D03*
X019645Y019256D03*
X019645Y019453D03*
X019645Y019650D03*
X019645Y019847D03*
X019645Y018666D03*
X019645Y018469D03*
X019645Y018272D03*
X019645Y018075D03*
X019645Y017878D03*
X019645Y017681D03*
X019645Y017485D03*
X019645Y017288D03*
X019645Y017091D03*
X019645Y016894D03*
X019645Y016697D03*
X019645Y016500D03*
X019645Y016303D03*
X019645Y016107D03*
X019645Y015910D03*
X019645Y015713D03*
X019645Y015516D03*
X019645Y015319D03*
X019645Y015122D03*
X025629Y015122D03*
X025629Y015319D03*
X025629Y015516D03*
X025629Y015713D03*
X025629Y015910D03*
X025629Y016107D03*
X025629Y016303D03*
X025629Y016500D03*
X025629Y016697D03*
X025629Y016894D03*
X025629Y017091D03*
X025629Y017288D03*
X025629Y017485D03*
X025629Y017681D03*
X025629Y017878D03*
X025629Y018075D03*
X025629Y018272D03*
X025629Y018469D03*
X025629Y018666D03*
X025629Y018863D03*
X025629Y019059D03*
X025629Y019256D03*
X025629Y019453D03*
X025629Y019650D03*
X025629Y019847D03*
D30*
X024999Y020477D03*
X024802Y020477D03*
X024605Y020477D03*
X024408Y020477D03*
X024211Y020477D03*
X024015Y020477D03*
X023818Y020477D03*
X023621Y020477D03*
X023424Y020477D03*
X023227Y020477D03*
X023030Y020477D03*
X022834Y020477D03*
X022637Y020477D03*
X022440Y020477D03*
X022243Y020477D03*
X022046Y020477D03*
X021849Y020477D03*
X021652Y020477D03*
X021456Y020477D03*
X021259Y020477D03*
X021062Y020477D03*
X020865Y020477D03*
X020668Y020477D03*
X020471Y020477D03*
X020274Y020477D03*
X020274Y014492D03*
X020471Y014492D03*
X020668Y014492D03*
X020865Y014492D03*
X021062Y014492D03*
X021259Y014492D03*
X021456Y014492D03*
X021652Y014492D03*
X021849Y014492D03*
X022046Y014492D03*
X022243Y014492D03*
X022440Y014492D03*
X022637Y014492D03*
X022834Y014492D03*
X023030Y014492D03*
X023227Y014492D03*
X023424Y014492D03*
X023621Y014492D03*
X023818Y014492D03*
X024015Y014492D03*
X024211Y014492D03*
X024408Y014492D03*
X024605Y014492D03*
X024802Y014492D03*
X024999Y014492D03*
D31*
X044137Y014077D03*
X044137Y018092D03*
D32*
X041774Y017069D03*
X041774Y015100D03*
X042695Y021610D03*
X043679Y021610D03*
X043679Y023185D03*
X042695Y023185D03*
X042695Y024759D03*
X043679Y024759D03*
D33*
X031487Y012215D03*
X030987Y012215D03*
X030487Y012215D03*
X029987Y012215D03*
X029487Y012215D03*
X028987Y012215D03*
X028487Y012215D03*
X027987Y012215D03*
X027487Y012215D03*
X026987Y012215D03*
X026487Y012215D03*
X025987Y012215D03*
X025487Y012215D03*
X024987Y012215D03*
X024987Y007955D03*
X025487Y007955D03*
X025987Y007955D03*
X026487Y007955D03*
X026987Y007955D03*
X027487Y007955D03*
X027987Y007955D03*
X028487Y007955D03*
X028987Y007955D03*
X029487Y007955D03*
X029987Y007955D03*
X030487Y007955D03*
X030987Y007955D03*
X031487Y007955D03*
D34*
X032429Y010236D03*
X032685Y010236D03*
X032941Y010236D03*
X033197Y010236D03*
X033453Y010236D03*
X033709Y010236D03*
X033965Y010236D03*
X034221Y010236D03*
X034476Y010236D03*
X034732Y010236D03*
X034988Y010236D03*
X035244Y010236D03*
X035244Y012533D03*
X034988Y012533D03*
X034732Y012533D03*
X034476Y012533D03*
X034221Y012533D03*
X033965Y012533D03*
X033709Y012533D03*
X033453Y012533D03*
X033197Y012533D03*
X032941Y012533D03*
X032685Y012533D03*
X032429Y012533D03*
D35*
X036430Y015766D03*
D36*
X035643Y015766D03*
X035643Y014978D03*
X036430Y014978D03*
X036430Y014191D03*
X035643Y014191D03*
X035643Y013403D03*
X036430Y013403D03*
D37*
X041137Y022334D03*
X041137Y023535D03*
D38*
X024237Y008308D03*
X023737Y008308D03*
X023237Y008308D03*
X022737Y008308D03*
X022237Y008308D03*
X021737Y008308D03*
X021237Y008308D03*
X020737Y008308D03*
X019987Y008308D03*
X019487Y008308D03*
X018987Y008308D03*
X018487Y008308D03*
X017987Y008308D03*
X017487Y008308D03*
X016987Y008308D03*
X016487Y008308D03*
X016487Y006261D03*
X016987Y006261D03*
X017487Y006261D03*
X017987Y006261D03*
X018487Y006261D03*
X018987Y006261D03*
X019487Y006261D03*
X019987Y006261D03*
X020737Y006261D03*
X021237Y006261D03*
X021737Y006261D03*
X022237Y006261D03*
X022737Y006261D03*
X023237Y006261D03*
X023737Y006261D03*
X024237Y006261D03*
D39*
X038504Y015161D03*
X039370Y015535D03*
X038504Y015909D03*
D40*
X041831Y009214D03*
X041831Y008900D03*
X041831Y008585D03*
X041831Y008270D03*
X041831Y007955D03*
D41*
X041949Y006931D03*
X044036Y006931D03*
X044036Y010238D03*
X041949Y010238D03*
D42*
X014350Y031085D03*
X012224Y031085D03*
D43*
X032656Y008770D03*
X032656Y006999D03*
X035018Y006999D03*
X035018Y008770D03*
X037156Y008770D03*
X037156Y006999D03*
X039518Y006999D03*
X039518Y008770D03*
D44*
X015637Y009325D02*
X015637Y009845D01*
X014637Y009845D02*
X014637Y009325D01*
X013637Y009325D02*
X013637Y009845D01*
X012637Y009845D02*
X012637Y009325D01*
X011637Y009325D02*
X011637Y009845D01*
X010637Y009845D02*
X010637Y009325D01*
X009637Y009325D02*
X009637Y009845D01*
X008637Y009845D02*
X008637Y009325D01*
X007637Y009325D02*
X007637Y009845D01*
X006637Y009845D02*
X006637Y009325D01*
X006637Y012325D02*
X006637Y012845D01*
X007637Y012845D02*
X007637Y012325D01*
X008637Y012325D02*
X008637Y012845D01*
X009637Y012845D02*
X009637Y012325D01*
X010637Y012325D02*
X010637Y012845D01*
X011637Y012845D02*
X011637Y012325D01*
X012637Y012325D02*
X012637Y012845D01*
X013637Y012845D02*
X013637Y012325D01*
X014637Y012325D02*
X014637Y012845D01*
X015637Y012845D02*
X015637Y012325D01*
X015637Y014575D02*
X015637Y015095D01*
X014637Y015095D02*
X014637Y014575D01*
X013637Y014575D02*
X013637Y015095D01*
X012637Y015095D02*
X012637Y014575D01*
X011637Y014575D02*
X011637Y015095D01*
X010637Y015095D02*
X010637Y014575D01*
X009637Y014575D02*
X009637Y015095D01*
X008637Y015095D02*
X008637Y014575D01*
X007637Y014575D02*
X007637Y015095D01*
X006637Y015095D02*
X006637Y014575D01*
X006637Y017575D02*
X006637Y018095D01*
X007637Y018095D02*
X007637Y017575D01*
X008637Y017575D02*
X008637Y018095D01*
X009637Y018095D02*
X009637Y017575D01*
X010637Y017575D02*
X010637Y018095D01*
X011637Y018095D02*
X011637Y017575D01*
X012637Y017575D02*
X012637Y018095D01*
X013637Y018095D02*
X013637Y017575D01*
X014637Y017575D02*
X014637Y018095D01*
X015637Y018095D02*
X015637Y017575D01*
X015637Y019825D02*
X015637Y020345D01*
X014637Y020345D02*
X014637Y019825D01*
X013637Y019825D02*
X013637Y020345D01*
X012637Y020345D02*
X012637Y019825D01*
X011637Y019825D02*
X011637Y020345D01*
X010637Y020345D02*
X010637Y019825D01*
X009637Y019825D02*
X009637Y020345D01*
X008637Y020345D02*
X008637Y019825D01*
X007637Y019825D02*
X007637Y020345D01*
X006637Y020345D02*
X006637Y019825D01*
X006637Y022825D02*
X006637Y023345D01*
X007637Y023345D02*
X007637Y022825D01*
X008637Y022825D02*
X008637Y023345D01*
X009637Y023345D02*
X009637Y022825D01*
X010637Y022825D02*
X010637Y023345D01*
X011637Y023345D02*
X011637Y022825D01*
X012637Y022825D02*
X012637Y023345D01*
X013637Y023345D02*
X013637Y022825D01*
X014637Y022825D02*
X014637Y023345D01*
X015637Y023345D02*
X015637Y022825D01*
D45*
X028737Y022585D03*
X032537Y022585D03*
D46*
X019003Y026785D03*
X017271Y026785D03*
D47*
X023613Y027196D03*
X023987Y027196D03*
X024361Y027196D03*
X024361Y026173D03*
X023613Y026173D03*
D48*
X022638Y026385D03*
X021536Y026385D03*
X022386Y028885D03*
X023488Y028885D03*
D49*
X037630Y024568D03*
X037630Y024313D03*
X037630Y024057D03*
X037630Y023801D03*
X039344Y023801D03*
X039344Y024057D03*
X039344Y024313D03*
X039344Y024568D03*
D50*
X038487Y024185D03*
D51*
X035127Y019035D03*
D52*
X037313Y019330D03*
X037313Y019920D03*
X037313Y018739D03*
X037313Y018149D03*
D53*
X038187Y018083D03*
X038187Y019186D03*
D54*
X040287Y018772D03*
X040287Y020898D03*
D55*
X023949Y029761D03*
X023949Y030135D03*
X023949Y030509D03*
X022925Y030509D03*
X022925Y029761D03*
D56*
X037587Y022885D03*
D57*
X038517Y022875D03*
D58*
X035820Y024735D03*
X034954Y024735D03*
X011970Y024135D03*
X011104Y024135D03*
X007337Y024001D03*
X007337Y024868D03*
D59*
X035687Y022961D03*
X035687Y021308D03*
D60*
X037486Y021535D03*
X038687Y021535D03*
D61*
X019560Y028335D03*
X019560Y028835D03*
X019560Y029335D03*
X019560Y029835D03*
X017513Y029835D03*
X017513Y029335D03*
X017513Y028835D03*
X017513Y028335D03*
D62*
X018537Y029085D03*
D63*
X015955Y026985D03*
X012018Y026985D03*
D64*
X039437Y003094D03*
X039437Y001975D03*
D65*
X042006Y020822D03*
X044368Y020822D03*
X044368Y025547D03*
X042006Y025547D03*
D66*
X037239Y031329D03*
X036239Y031329D03*
X035239Y031329D03*
X034239Y031329D03*
X033239Y031329D03*
X032239Y031329D03*
X031239Y031329D03*
D67*
X036029Y026772D03*
X036029Y026516D03*
X036029Y026260D03*
X036029Y026004D03*
X037811Y026004D03*
X037811Y026260D03*
X037811Y026516D03*
X037811Y026772D03*
D68*
X035483Y026770D03*
X034944Y026770D03*
X034357Y026435D03*
X034944Y026258D03*
X035483Y026258D03*
X034357Y025923D03*
D69*
X039334Y027002D03*
X039334Y028104D03*
D70*
X028558Y027840D03*
X028558Y025833D03*
D71*
X031184Y026963D03*
D72*
X032082Y029837D03*
X030286Y029837D03*
D73*
X035369Y028872D03*
X038282Y028872D03*
D74*
X033822Y028915D03*
D75*
X034072Y027409D03*
X034572Y027409D03*
X033572Y027409D03*
X033072Y027409D03*
D76*
X040535Y029344D03*
X041786Y030845D03*
X043397Y029354D03*
D77*
X040168Y028246D03*
X039385Y028814D03*
X038971Y029229D03*
X038553Y030561D03*
X037885Y030555D03*
X037023Y030555D03*
X036219Y030544D03*
X036271Y029359D03*
X037334Y029331D03*
X037294Y028067D03*
X036200Y028059D03*
X035566Y027754D03*
X036023Y027092D03*
X037211Y026632D03*
X037223Y025955D03*
X037237Y024785D03*
X036437Y024785D03*
X035137Y023835D03*
X034487Y023835D03*
X033062Y024384D03*
X032382Y024749D03*
X032546Y025953D03*
X034440Y025514D03*
X032692Y027537D03*
X031865Y028635D03*
X030475Y028635D03*
X029767Y029159D03*
X029339Y028634D03*
X028687Y028735D03*
X028751Y029635D03*
X029255Y030371D03*
X030237Y030585D03*
X030235Y031440D03*
X032747Y030460D03*
X028999Y027154D03*
X029940Y025470D03*
X030813Y024749D03*
X030837Y023935D03*
X031887Y023335D03*
X031587Y021785D03*
X031987Y021285D03*
X032437Y021285D03*
X032887Y021285D03*
X034537Y022135D03*
X035687Y022135D03*
X036787Y022135D03*
X037137Y020585D03*
X036237Y020585D03*
X036237Y019985D03*
X035137Y019985D03*
X035137Y020585D03*
X034487Y019535D03*
X034487Y019035D03*
X034487Y018535D03*
X035137Y018085D03*
X035487Y017535D03*
X036237Y018085D03*
X036237Y019035D03*
X038687Y018635D03*
X039487Y019435D03*
X039587Y020385D03*
X038737Y020385D03*
X040887Y020435D03*
X041437Y020435D03*
X041437Y019435D03*
X040887Y019435D03*
X040887Y018235D03*
X041437Y018235D03*
X040937Y017085D03*
X041337Y015685D03*
X041287Y014685D03*
X041637Y013635D03*
X042087Y013635D03*
X042487Y013235D03*
X042487Y012785D03*
X040087Y012335D03*
X039587Y012035D03*
X039287Y010835D03*
X038387Y010835D03*
X036787Y010635D03*
X036787Y009385D03*
X037187Y008235D03*
X039037Y009385D03*
X039487Y008235D03*
X039487Y006435D03*
X038287Y005785D03*
X037187Y006435D03*
X034987Y006435D03*
X034987Y008235D03*
X032687Y008235D03*
X032687Y006435D03*
X030137Y006835D03*
X029537Y006485D03*
X027887Y006885D03*
X026637Y006685D03*
X026437Y009085D03*
X026937Y009085D03*
X027487Y009085D03*
X027737Y009635D03*
X028137Y009685D03*
X028537Y009485D03*
X026837Y011085D03*
X027037Y011485D03*
X027537Y011485D03*
X028037Y011485D03*
X028537Y011485D03*
X029037Y011485D03*
X029637Y011485D03*
X028437Y012885D03*
X027037Y013685D03*
X026637Y013985D03*
X026337Y014385D03*
X027337Y014685D03*
X027737Y014385D03*
X028137Y014985D03*
X028137Y015485D03*
X028537Y015485D03*
X029137Y015285D03*
X028137Y016085D03*
X028137Y016985D03*
X028537Y017285D03*
X028137Y017685D03*
X028937Y017885D03*
X028637Y018285D03*
X029037Y018585D03*
X029487Y018585D03*
X030137Y017935D03*
X030087Y017235D03*
X031137Y017235D03*
X031637Y017585D03*
X031137Y017935D03*
X032437Y016985D03*
X032737Y017285D03*
X033037Y016985D03*
X032987Y016185D03*
X032687Y015885D03*
X032987Y015585D03*
X032687Y015285D03*
X032987Y014985D03*
X031937Y014985D03*
X031337Y015185D03*
X031537Y013685D03*
X031937Y013685D03*
X031637Y012885D03*
X032437Y011885D03*
X032837Y011685D03*
X033237Y011585D03*
X033537Y011285D03*
X033837Y011585D03*
X034137Y011285D03*
X034437Y011585D03*
X034737Y011285D03*
X035137Y011085D03*
X034737Y010785D03*
X035137Y011535D03*
X036637Y012035D03*
X037237Y012035D03*
X036337Y012885D03*
X035687Y012885D03*
X034837Y013285D03*
X034237Y014085D03*
X037237Y013635D03*
X040087Y015635D03*
X038687Y017435D03*
X043271Y018128D03*
X043538Y017655D03*
X043786Y020463D03*
X041437Y021635D03*
X040887Y021635D03*
X042589Y022285D03*
X040487Y024185D03*
X039787Y024385D03*
X039787Y023685D03*
X038537Y023385D03*
X038537Y022335D03*
X033187Y018935D03*
X032937Y018585D03*
X033187Y018235D03*
X032137Y019735D03*
X032487Y019985D03*
X031787Y019985D03*
X030737Y019985D03*
X030337Y019985D03*
X029937Y019535D03*
X029637Y019835D03*
X029187Y019985D03*
X028637Y019135D03*
X028187Y019135D03*
X027737Y020335D03*
X027437Y020735D03*
X027137Y020385D03*
X026837Y020685D03*
X026537Y020985D03*
X025337Y020585D03*
X024637Y019885D03*
X024137Y019885D03*
X023537Y019685D03*
X023037Y019685D03*
X022037Y019885D03*
X021437Y019285D03*
X021037Y019585D03*
X020237Y018985D03*
X020537Y018585D03*
X020837Y017785D03*
X020237Y016985D03*
X020537Y016185D03*
X021137Y016685D03*
X022137Y017185D03*
X022137Y017785D03*
X023137Y017185D03*
X023737Y016085D03*
X023737Y015485D03*
X024037Y015085D03*
X023037Y015085D03*
X022537Y015185D03*
X021737Y015435D03*
X021737Y015885D03*
X021387Y015085D03*
X020987Y015085D03*
X020387Y015235D03*
X019137Y013985D03*
X019187Y013135D03*
X019437Y012735D03*
X020587Y013885D03*
X021537Y013785D03*
X023237Y013285D03*
X023687Y013135D03*
X024037Y012535D03*
X024337Y012985D03*
X024837Y013485D03*
X025037Y013885D03*
X023387Y012435D03*
X022937Y012435D03*
X022487Y012435D03*
X023837Y012085D03*
X022237Y010985D03*
X021937Y010485D03*
X021837Y009785D03*
X021837Y009185D03*
X022237Y007585D03*
X022737Y007585D03*
X022937Y006985D03*
X021687Y006985D03*
X021387Y007535D03*
X020837Y007435D03*
X019387Y007485D03*
X018937Y007485D03*
X018487Y007485D03*
X018137Y007185D03*
X017337Y006985D03*
X015237Y007035D03*
X015237Y006585D03*
X013837Y006735D03*
X013837Y007135D03*
X013837Y007535D03*
X014137Y007985D03*
X016637Y009685D03*
X017137Y009585D03*
X017837Y009885D03*
X017837Y010785D03*
X016637Y012485D03*
X017137Y012585D03*
X017637Y013385D03*
X017637Y014135D03*
X017137Y014885D03*
X016637Y014985D03*
X017837Y016185D03*
X017137Y017885D03*
X016637Y017785D03*
X017637Y018785D03*
X018237Y018785D03*
X017937Y019385D03*
X017137Y020085D03*
X016637Y020185D03*
X017937Y020435D03*
X018137Y021435D03*
X017937Y021885D03*
X019187Y021985D03*
X019637Y021685D03*
X019937Y021385D03*
X021337Y021235D03*
X021737Y021235D03*
X022487Y021635D03*
X022987Y021185D03*
X023387Y021185D03*
X024287Y022435D03*
X025687Y022435D03*
X026587Y023035D03*
X026887Y023335D03*
X027187Y023035D03*
X026387Y023985D03*
X025787Y024335D03*
X026387Y024741D03*
X024737Y024435D03*
X024157Y024710D03*
X023049Y024678D03*
X022637Y024085D03*
X021037Y024085D03*
X020737Y024485D03*
X020137Y024085D03*
X019337Y024085D03*
X019237Y023385D03*
X019237Y022985D03*
X019637Y022985D03*
X020987Y022735D03*
X021537Y022835D03*
X025137Y023585D03*
X024733Y026149D03*
X025137Y026585D03*
X024787Y027185D03*
X025137Y027785D03*
X025137Y028785D03*
X026070Y029127D03*
X026687Y028585D03*
X026137Y030085D03*
X026137Y026585D03*
X028629Y024749D03*
X029387Y023335D03*
X029237Y021885D03*
X029687Y021685D03*
X030137Y021685D03*
X030137Y021235D03*
X026237Y019785D03*
X026437Y018585D03*
X025037Y018885D03*
X024737Y018485D03*
X024137Y018685D03*
X024137Y018185D03*
X024437Y016885D03*
X025037Y016885D03*
X024737Y016085D03*
X025037Y015385D03*
X018137Y018185D03*
X012337Y016385D03*
X007937Y016385D03*
X006637Y015835D03*
X008137Y013285D03*
X005837Y011085D03*
X004437Y012085D03*
X004837Y009085D03*
X005937Y005585D03*
X004437Y005085D03*
X011887Y005635D03*
X020887Y004085D03*
X024987Y009085D03*
X025437Y009085D03*
X025937Y009085D03*
X025437Y010285D03*
X025037Y010285D03*
X024637Y010285D03*
X024237Y010285D03*
X030137Y003885D03*
X040387Y002335D03*
X042637Y002335D03*
X042487Y008885D03*
X019794Y026113D03*
X020887Y026835D03*
X021637Y027285D03*
X020567Y027611D03*
X021637Y028285D03*
X021237Y028485D03*
X021787Y028785D03*
X021637Y029285D03*
X021087Y029635D03*
X021187Y030285D03*
X021637Y030285D03*
X020687Y030285D03*
X018787Y030035D03*
X018337Y030035D03*
X018587Y030535D03*
X016287Y028635D03*
X016887Y027835D03*
X018251Y027829D03*
X018137Y027235D03*
X018137Y026145D03*
X017537Y024385D03*
X017137Y023085D03*
X016637Y022985D03*
X010637Y021585D03*
X007037Y019385D03*
X004437Y020585D03*
X003237Y024085D03*
X007337Y025285D03*
X003337Y028185D03*
X012587Y029735D03*
X012587Y030435D03*
X014037Y030435D03*
X014037Y029735D03*
X013987Y028835D03*
X015337Y029735D03*
X015337Y030435D03*
X015337Y031435D03*
X044387Y026435D03*
D78*
X031235Y029640D03*
D79*
X011137Y023585D03*
M02*
