G75*
G70*
%OFA0B0*%
%FSLAX24Y24*%
%IPPOS*%
%LPD*%
%AMOC8*
5,1,8,0,0,1.08239X$1,22.5*
%
%ADD10C,0.0000*%
%ADD11C,0.0060*%
%ADD12C,0.0050*%
%ADD13C,0.0040*%
%ADD14C,0.0030*%
%ADD15C,0.0080*%
%ADD16C,0.0447*%
%ADD17C,0.0361*%
D10*
X002137Y000585D02*
X045637Y000585D01*
X045637Y032585D01*
X002137Y032585D01*
X002137Y000585D01*
X010571Y004085D02*
X011202Y004085D01*
X010887Y004400D02*
X010887Y003769D01*
X015571Y004085D02*
X016202Y004085D01*
X015887Y004400D02*
X015887Y003769D01*
X017287Y006226D02*
X017287Y006643D01*
X017078Y006435D02*
X017495Y006435D01*
X019887Y004400D02*
X019887Y003769D01*
X019571Y004085D02*
X020202Y004085D01*
X023571Y004085D02*
X024202Y004085D01*
X023887Y004400D02*
X023887Y003769D01*
X027571Y004085D02*
X028202Y004085D01*
X027887Y004400D02*
X027887Y003769D01*
X032571Y004085D02*
X033202Y004085D01*
X032887Y004400D02*
X032887Y003769D01*
X036571Y004085D02*
X037202Y004085D01*
X036887Y004400D02*
X036887Y003769D01*
X038737Y009785D02*
X038737Y010585D01*
X038337Y010185D02*
X039137Y010185D01*
X039637Y011326D02*
X039637Y011743D01*
X039428Y011535D02*
X039845Y011535D01*
X038245Y012035D02*
X037828Y012035D01*
X038037Y012243D02*
X038037Y011826D01*
X036087Y010593D02*
X036087Y010176D01*
X036295Y010385D02*
X035878Y010385D01*
X035595Y010385D02*
X035178Y010385D01*
X035387Y010593D02*
X035387Y010176D01*
X033537Y013676D02*
X033537Y014093D01*
X033328Y013885D02*
X033745Y013885D01*
X037328Y015435D02*
X037745Y015435D01*
X037537Y015226D02*
X037537Y015643D01*
X039328Y015435D02*
X039745Y015435D01*
X039537Y015226D02*
X039537Y015643D01*
X031395Y021285D02*
X030978Y021285D01*
X031187Y021493D02*
X031187Y021076D01*
X026795Y022435D02*
X026378Y022435D01*
X026587Y022643D02*
X026587Y022226D01*
X024495Y023285D02*
X024078Y023285D01*
X024287Y023493D02*
X024287Y023076D01*
X022637Y018693D02*
X022637Y018276D01*
X022845Y018485D02*
X022428Y018485D01*
X021845Y018085D02*
X021428Y018085D01*
X021637Y018293D02*
X021637Y017876D01*
X021637Y017093D02*
X021637Y016676D01*
X021845Y016885D02*
X021428Y016885D01*
X022428Y016485D02*
X022845Y016485D01*
X022637Y016276D02*
X022637Y016693D01*
X023428Y016885D02*
X023845Y016885D01*
X023637Y016676D02*
X023637Y017093D01*
X023637Y017876D02*
X023637Y018293D01*
X023428Y018085D02*
X023845Y018085D01*
X015473Y016735D02*
X014801Y016735D01*
X015137Y016399D02*
X015137Y017071D01*
X015137Y016271D02*
X015137Y015599D01*
X014801Y015935D02*
X015473Y015935D01*
X015137Y011821D02*
X015137Y011149D01*
X015137Y011021D02*
X015137Y010349D01*
X014801Y010685D02*
X015473Y010685D01*
X015473Y011485D02*
X014801Y011485D01*
X011437Y008193D02*
X011437Y007776D01*
X011645Y007985D02*
X011228Y007985D01*
X019737Y010585D02*
X020537Y010585D01*
X020137Y010185D02*
X020137Y010985D01*
X015137Y020849D02*
X015137Y021521D01*
X015137Y021649D02*
X015137Y022321D01*
X014801Y021985D02*
X015473Y021985D01*
X015473Y021185D02*
X014801Y021185D01*
X019124Y027533D02*
X019124Y027950D01*
X018916Y027742D02*
X019332Y027742D01*
X033394Y028443D02*
X034194Y028443D01*
X033794Y028043D02*
X033794Y028843D01*
X034936Y027118D02*
X034936Y026318D01*
X034536Y026718D02*
X035336Y026718D01*
X035134Y026789D02*
X035934Y026789D01*
X035534Y026389D02*
X035534Y027189D01*
X036193Y026337D02*
X036993Y026337D01*
X036593Y025937D02*
X036593Y026737D01*
D11*
X028337Y005685D02*
X028237Y005685D01*
X028137Y005585D01*
X027637Y005585D02*
X027537Y005685D01*
X027437Y005685D01*
D12*
X035105Y009853D02*
X035105Y010916D01*
X035668Y010916D01*
X035668Y009853D01*
X035105Y009853D01*
X035805Y009791D02*
X036368Y009791D01*
X036368Y010978D01*
X035805Y010978D01*
X035805Y009791D01*
X037739Y009240D02*
X037739Y011129D01*
X037936Y011129D01*
X037936Y009240D01*
X039735Y009240D01*
X039735Y011129D01*
X037936Y011129D01*
X037443Y011753D02*
X038630Y011753D01*
X038630Y012316D01*
X037443Y012316D01*
X037443Y011753D01*
X039043Y011816D02*
X039043Y011253D01*
X040230Y011253D01*
X040230Y011816D01*
X039043Y011816D01*
X037936Y009240D02*
X037739Y009240D01*
X033818Y013291D02*
X033255Y013291D01*
X033255Y014478D01*
X033818Y014478D01*
X033818Y013291D01*
X037255Y014903D02*
X037255Y015966D01*
X037818Y015966D01*
X037818Y014903D01*
X037255Y014903D01*
X039255Y014903D02*
X039818Y014903D01*
X039818Y015966D01*
X039255Y015966D01*
X039255Y014903D01*
X031780Y021003D02*
X030593Y021003D01*
X030593Y021566D01*
X031780Y021566D01*
X031780Y021003D01*
X027118Y022153D02*
X026055Y022153D01*
X026055Y022716D01*
X027118Y022716D01*
X027118Y022153D01*
X024568Y022691D02*
X024005Y022691D01*
X024005Y023878D01*
X024568Y023878D01*
X024568Y022691D01*
X023230Y018766D02*
X022043Y018766D01*
X022043Y018203D01*
X023230Y018203D01*
X023230Y018766D01*
X023355Y018678D02*
X023918Y018678D01*
X023918Y017491D01*
X023355Y017491D01*
X023355Y018678D01*
X023355Y017478D02*
X023918Y017478D01*
X023918Y016291D01*
X023355Y016291D01*
X023355Y017478D01*
X023230Y016766D02*
X022043Y016766D01*
X022043Y016203D01*
X023230Y016203D01*
X023230Y016766D01*
X021918Y016291D02*
X021918Y017478D01*
X021355Y017478D01*
X021355Y016291D01*
X021918Y016291D01*
X021918Y017491D02*
X021355Y017491D01*
X021355Y018678D01*
X021918Y018678D01*
X021918Y017491D01*
X016105Y017172D02*
X016105Y016297D01*
X014168Y016297D01*
X014168Y017172D01*
X016105Y017172D01*
X016105Y016372D02*
X016105Y015497D01*
X014168Y015497D01*
X014168Y016372D01*
X016105Y016372D01*
X016105Y020747D02*
X014168Y020747D01*
X014168Y021622D01*
X016105Y021622D01*
X016105Y020747D01*
X016105Y021547D02*
X016105Y022422D01*
X014168Y022422D01*
X014168Y021547D01*
X016105Y021547D01*
X018530Y027460D02*
X018530Y028023D01*
X019718Y028023D01*
X019718Y027460D01*
X018530Y027460D01*
X034655Y027312D02*
X034655Y026125D01*
X035217Y026125D01*
X035217Y027312D01*
X034655Y027312D01*
X016105Y011922D02*
X014168Y011922D01*
X014168Y011047D01*
X016105Y011047D01*
X016105Y011922D01*
X016105Y011122D02*
X016105Y010247D01*
X014168Y010247D01*
X014168Y011122D01*
X016105Y011122D01*
X012030Y008266D02*
X012030Y007703D01*
X010843Y007703D01*
X010843Y008266D01*
X012030Y008266D01*
X016693Y006716D02*
X016693Y006153D01*
X017880Y006153D01*
X017880Y006716D01*
X016693Y006716D01*
D13*
X016849Y006066D02*
X016849Y006005D01*
X017089Y005765D01*
X017089Y005705D01*
X017217Y005765D02*
X017277Y005705D01*
X017397Y005705D01*
X017457Y005765D01*
X017457Y005885D02*
X017337Y005945D01*
X017277Y005945D01*
X017217Y005885D01*
X017217Y005765D01*
X017457Y005885D02*
X017457Y006066D01*
X017217Y006066D01*
X017089Y006066D02*
X016849Y006066D01*
X017585Y006005D02*
X017645Y006066D01*
X017765Y006066D01*
X017825Y006005D01*
X017825Y005765D01*
X017765Y005705D01*
X017645Y005705D01*
X017585Y005765D01*
X017017Y004576D02*
X016957Y004456D01*
X016837Y004336D01*
X016837Y004516D01*
X016777Y004576D01*
X016717Y004576D01*
X016657Y004516D01*
X016657Y004396D01*
X016717Y004336D01*
X016837Y004336D01*
X016657Y004208D02*
X017017Y004208D01*
X017017Y003968D02*
X016657Y004208D01*
X016657Y003968D02*
X017017Y003968D01*
X016957Y003840D02*
X016837Y003840D01*
X016777Y003780D01*
X016777Y003600D01*
X016777Y003720D02*
X016657Y003840D01*
X016657Y003600D02*
X017017Y003600D01*
X017017Y003780D01*
X016957Y003840D01*
X016497Y003639D02*
X016497Y004530D01*
X015918Y004530D01*
X015915Y004530D02*
X015276Y004530D01*
X015276Y003639D01*
X015905Y003639D01*
X016497Y003639D01*
X015905Y003639D02*
X015858Y003639D01*
X015880Y004605D02*
X015880Y004965D01*
X016008Y004965D02*
X016008Y004905D01*
X016248Y004665D01*
X016248Y004605D01*
X016437Y004605D02*
X016437Y004965D01*
X016617Y004785D01*
X016376Y004785D01*
X016248Y004965D02*
X016008Y004965D01*
X015820Y004785D02*
X015640Y004605D01*
X015880Y004725D02*
X015640Y004965D01*
X018757Y004516D02*
X018757Y004396D01*
X018817Y004336D01*
X018937Y004336D02*
X018997Y004456D01*
X018997Y004516D01*
X018937Y004576D01*
X018817Y004576D01*
X018757Y004516D01*
X018937Y004336D02*
X019117Y004336D01*
X019117Y004576D01*
X019276Y004530D02*
X019276Y003639D01*
X019905Y003639D01*
X020497Y003639D01*
X020497Y004530D01*
X019918Y004530D01*
X019915Y004530D02*
X019276Y004530D01*
X019117Y004208D02*
X018757Y004208D01*
X019117Y003968D01*
X018757Y003968D01*
X018757Y003840D02*
X018877Y003720D01*
X018877Y003780D02*
X018877Y003600D01*
X018757Y003600D02*
X019117Y003600D01*
X019117Y003780D01*
X019057Y003840D01*
X018937Y003840D01*
X018877Y003780D01*
X019858Y003639D02*
X019905Y003639D01*
X019880Y004605D02*
X019880Y004965D01*
X020008Y004965D02*
X020008Y004905D01*
X020248Y004665D01*
X020248Y004605D01*
X020437Y004605D02*
X020437Y004965D01*
X020617Y004785D01*
X020376Y004785D01*
X020248Y004965D02*
X020008Y004965D01*
X019820Y004785D02*
X019640Y004605D01*
X019880Y004725D02*
X019640Y004965D01*
X023276Y004530D02*
X023276Y003639D01*
X023905Y003639D01*
X024497Y003639D01*
X024497Y004530D01*
X023918Y004530D01*
X023915Y004530D02*
X023276Y004530D01*
X023640Y004605D02*
X023820Y004785D01*
X023880Y004725D02*
X023640Y004965D01*
X023880Y004965D02*
X023880Y004605D01*
X024008Y004905D02*
X024248Y004665D01*
X024248Y004605D01*
X024437Y004605D02*
X024437Y004965D01*
X024617Y004785D01*
X024376Y004785D01*
X024248Y004965D02*
X024008Y004965D01*
X024008Y004905D01*
X024657Y004576D02*
X024657Y004336D01*
X024897Y004576D01*
X024957Y004576D01*
X025017Y004516D01*
X025017Y004396D01*
X024957Y004336D01*
X025017Y004208D02*
X024657Y004208D01*
X025017Y003968D01*
X024657Y003968D01*
X024657Y003840D02*
X024777Y003720D01*
X024777Y003780D02*
X024777Y003600D01*
X024657Y003600D02*
X025017Y003600D01*
X025017Y003780D01*
X024957Y003840D01*
X024837Y003840D01*
X024777Y003780D01*
X023905Y003639D02*
X023858Y003639D01*
X026757Y003605D02*
X027117Y003605D01*
X027117Y003785D01*
X027057Y003845D01*
X026937Y003845D01*
X026877Y003785D01*
X026877Y003605D01*
X026877Y003725D02*
X026757Y003845D01*
X026757Y003973D02*
X027117Y003973D01*
X026757Y004213D01*
X027117Y004213D01*
X026997Y004341D02*
X027117Y004461D01*
X026757Y004461D01*
X026757Y004341D02*
X026757Y004581D01*
X027276Y004530D02*
X027276Y003639D01*
X027905Y003639D01*
X028497Y003639D01*
X028497Y004530D01*
X027918Y004530D01*
X027915Y004530D02*
X027276Y004530D01*
X027640Y004605D02*
X027820Y004785D01*
X027880Y004725D02*
X027640Y004965D01*
X027880Y004965D02*
X027880Y004605D01*
X028008Y004905D02*
X028248Y004665D01*
X028248Y004605D01*
X028437Y004605D02*
X028437Y004965D01*
X028617Y004785D01*
X028376Y004785D01*
X028248Y004965D02*
X028008Y004965D01*
X028008Y004905D01*
X027905Y003639D02*
X027858Y003639D01*
X032276Y003639D02*
X032905Y003639D01*
X033497Y003639D01*
X033497Y004530D01*
X032918Y004530D01*
X032915Y004530D02*
X032276Y004530D01*
X032276Y003639D01*
X032858Y003639D02*
X032905Y003639D01*
X033657Y003600D02*
X034017Y003600D01*
X034017Y003780D01*
X033957Y003840D01*
X033837Y003840D01*
X033777Y003780D01*
X033777Y003600D01*
X033777Y003720D02*
X033657Y003840D01*
X033657Y003968D02*
X034017Y003968D01*
X033657Y004208D01*
X034017Y004208D01*
X033837Y004336D02*
X033837Y004576D01*
X034017Y004516D02*
X033837Y004336D01*
X033657Y004516D02*
X034017Y004516D01*
X033617Y004785D02*
X033437Y004965D01*
X033437Y004605D01*
X033248Y004605D02*
X033248Y004665D01*
X033008Y004905D01*
X033008Y004965D01*
X033248Y004965D01*
X033376Y004785D02*
X033617Y004785D01*
X032880Y004725D02*
X032640Y004965D01*
X032880Y004965D02*
X032880Y004605D01*
X032820Y004785D02*
X032640Y004605D01*
X035807Y004521D02*
X035807Y004401D01*
X035867Y004341D01*
X035807Y004213D02*
X036167Y004213D01*
X036107Y004341D02*
X036167Y004401D01*
X036167Y004521D01*
X036107Y004581D01*
X036047Y004581D01*
X035987Y004521D01*
X035927Y004581D01*
X035867Y004581D01*
X035807Y004521D01*
X035987Y004521D02*
X035987Y004461D01*
X036276Y004530D02*
X036276Y003639D01*
X036905Y003639D01*
X037497Y003639D01*
X037497Y004530D01*
X036918Y004530D01*
X036915Y004530D02*
X036276Y004530D01*
X036640Y004605D02*
X036820Y004785D01*
X036880Y004725D02*
X036640Y004965D01*
X036880Y004965D02*
X036880Y004605D01*
X037008Y004905D02*
X037248Y004665D01*
X037248Y004605D01*
X037437Y004605D02*
X037437Y004965D01*
X037617Y004785D01*
X037376Y004785D01*
X037248Y004965D02*
X037008Y004965D01*
X037008Y004905D01*
X036167Y003973D02*
X035807Y004213D01*
X035807Y003973D02*
X036167Y003973D01*
X036107Y003845D02*
X035987Y003845D01*
X035927Y003785D01*
X035927Y003605D01*
X035927Y003725D02*
X035807Y003845D01*
X035807Y003605D02*
X036167Y003605D01*
X036167Y003785D01*
X036107Y003845D01*
X036858Y003639D02*
X036905Y003639D01*
X038455Y008705D02*
X038395Y008765D01*
X038395Y008885D01*
X038455Y008945D01*
X038515Y008945D01*
X038635Y008885D01*
X038635Y009065D01*
X038395Y009065D01*
X038455Y008705D02*
X038575Y008705D01*
X038635Y008765D01*
X038763Y008705D02*
X039003Y008705D01*
X038883Y008705D02*
X038883Y009065D01*
X039003Y008945D01*
X039131Y009065D02*
X039131Y008765D01*
X039191Y008705D01*
X039312Y008705D01*
X039372Y008765D01*
X039372Y009065D01*
X036625Y011165D02*
X036565Y011105D01*
X036445Y011105D01*
X036385Y011165D01*
X036257Y011285D02*
X036017Y011285D01*
X035889Y011285D02*
X035769Y011345D01*
X035709Y011345D01*
X035649Y011285D01*
X035649Y011165D01*
X035709Y011105D01*
X035829Y011105D01*
X035889Y011165D01*
X035889Y011285D02*
X035889Y011466D01*
X035649Y011466D01*
X036077Y011466D02*
X036257Y011285D01*
X036385Y011405D02*
X036445Y011466D01*
X036565Y011466D01*
X036625Y011405D01*
X036625Y011165D01*
X036077Y011105D02*
X036077Y011466D01*
X037599Y012755D02*
X037839Y012515D01*
X037839Y012455D01*
X038027Y012455D02*
X038027Y012816D01*
X038207Y012635D01*
X037967Y012635D01*
X037839Y012816D02*
X037599Y012816D01*
X037599Y012755D01*
X038335Y012755D02*
X038395Y012816D01*
X038515Y012816D01*
X038575Y012755D01*
X038575Y012515D01*
X038515Y012455D01*
X038395Y012455D01*
X038335Y012515D01*
X038335Y011665D02*
X038155Y011665D01*
X038095Y011605D01*
X038095Y011545D01*
X038155Y011485D01*
X038335Y011485D01*
X038335Y011305D02*
X038335Y011665D01*
X038583Y011665D02*
X038583Y011305D01*
X038703Y011305D02*
X038463Y011305D01*
X038335Y011305D02*
X038155Y011305D01*
X038095Y011365D01*
X038095Y011425D01*
X038155Y011485D01*
X038583Y011665D02*
X038703Y011545D01*
X038831Y011305D02*
X039072Y011305D01*
X038952Y011305D02*
X038952Y011665D01*
X039072Y011545D01*
X039200Y011605D02*
X039440Y011365D01*
X039380Y011305D01*
X039260Y011305D01*
X039200Y011365D01*
X039200Y011605D01*
X039260Y011665D01*
X039380Y011665D01*
X039440Y011605D01*
X039440Y011365D01*
X039568Y011365D02*
X039628Y011305D01*
X039808Y011305D01*
X039808Y011665D01*
X039628Y011665D01*
X039568Y011605D01*
X039568Y011545D01*
X039628Y011485D01*
X039808Y011485D01*
X039936Y011365D02*
X039936Y011605D01*
X039996Y011665D01*
X040177Y011665D01*
X040177Y011305D01*
X039996Y011305D01*
X039936Y011365D01*
X039628Y011485D02*
X039568Y011425D01*
X039568Y011365D01*
X040305Y011365D02*
X040305Y011485D01*
X040365Y011545D01*
X040425Y011545D01*
X040545Y011485D01*
X040545Y011665D01*
X040305Y011665D01*
X040415Y011714D02*
X040415Y011354D01*
X040365Y011305D02*
X040485Y011305D01*
X040545Y011365D01*
X040673Y011485D02*
X040913Y011485D01*
X040733Y011665D01*
X040733Y011305D01*
X040783Y011354D02*
X040723Y011414D01*
X040783Y011354D02*
X040903Y011354D01*
X040963Y011414D01*
X040963Y011654D01*
X040903Y011714D01*
X040783Y011714D01*
X040723Y011654D01*
X040595Y011534D02*
X040354Y011534D01*
X040305Y011365D02*
X040365Y011305D01*
X040595Y011534D02*
X040415Y011714D01*
X041041Y011665D02*
X041281Y011665D01*
X041161Y011665D02*
X041161Y011305D01*
X041410Y011305D02*
X041410Y011545D01*
X041530Y011665D01*
X041650Y011545D01*
X041650Y011305D01*
X041650Y011485D02*
X041410Y011485D01*
X040304Y014826D02*
X040304Y015006D01*
X040244Y015066D01*
X040124Y015066D01*
X040064Y015006D01*
X040064Y014826D01*
X039944Y014826D02*
X040304Y014826D01*
X040064Y014946D02*
X039944Y015066D01*
X040004Y015194D02*
X039944Y015254D01*
X039944Y015374D01*
X040004Y015434D01*
X040124Y015434D01*
X040184Y015374D01*
X040184Y015314D01*
X040124Y015194D01*
X040304Y015194D01*
X040304Y015434D01*
X040124Y015563D02*
X040124Y015743D01*
X040064Y015803D01*
X040004Y015803D01*
X039944Y015743D01*
X039944Y015623D01*
X040004Y015563D01*
X040124Y015563D01*
X040244Y015683D01*
X040304Y015803D01*
X037129Y015795D02*
X037129Y015675D01*
X037069Y015615D01*
X037129Y015487D02*
X037129Y015247D01*
X036949Y015247D01*
X037009Y015367D01*
X037009Y015427D01*
X036949Y015487D01*
X036829Y015487D01*
X036769Y015427D01*
X036769Y015307D01*
X036829Y015247D01*
X036769Y015118D02*
X036889Y014998D01*
X036889Y015058D02*
X036889Y014878D01*
X036769Y014878D02*
X037129Y014878D01*
X037129Y015058D01*
X037069Y015118D01*
X036949Y015118D01*
X036889Y015058D01*
X036769Y015615D02*
X037009Y015855D01*
X037069Y015855D01*
X037129Y015795D01*
X036769Y015855D02*
X036769Y015615D01*
X034313Y014954D02*
X034313Y014714D01*
X034253Y014654D01*
X034133Y014654D01*
X034073Y014714D01*
X033945Y014654D02*
X033704Y014894D01*
X033704Y014954D01*
X033765Y015014D01*
X033885Y015014D01*
X033945Y014954D01*
X034073Y014954D02*
X034133Y015014D01*
X034253Y015014D01*
X034313Y014954D01*
X033945Y014654D02*
X033704Y014654D01*
X033576Y014654D02*
X033576Y014714D01*
X033336Y014954D01*
X033336Y015014D01*
X033576Y015014D01*
X034819Y009752D02*
X034939Y009692D01*
X035059Y009572D01*
X034879Y009572D01*
X034819Y009512D01*
X034819Y009452D01*
X034879Y009392D01*
X034999Y009392D01*
X035059Y009452D01*
X035059Y009572D01*
X035187Y009512D02*
X035247Y009572D01*
X035427Y009572D01*
X035427Y009452D01*
X035367Y009392D01*
X035247Y009392D01*
X035187Y009452D01*
X035187Y009512D01*
X035307Y009692D02*
X035427Y009572D01*
X035555Y009572D02*
X035615Y009512D01*
X035795Y009512D01*
X035675Y009512D02*
X035555Y009392D01*
X035555Y009572D02*
X035555Y009692D01*
X035615Y009752D01*
X035795Y009752D01*
X035795Y009392D01*
X035307Y009692D02*
X035187Y009752D01*
X025075Y017515D02*
X025015Y017455D01*
X024895Y017455D01*
X024835Y017515D01*
X024707Y017455D02*
X024467Y017695D01*
X024467Y017755D01*
X024527Y017816D01*
X024647Y017816D01*
X024707Y017755D01*
X024835Y017755D02*
X024895Y017816D01*
X025015Y017816D01*
X025075Y017755D01*
X025075Y017515D01*
X024707Y017455D02*
X024467Y017455D01*
X024339Y017455D02*
X024099Y017695D01*
X024099Y017755D01*
X024159Y017816D01*
X024279Y017816D01*
X024339Y017755D01*
X024339Y017455D02*
X024099Y017455D01*
X024067Y016523D02*
X024007Y016463D01*
X024007Y016343D01*
X024067Y016283D01*
X024308Y016523D01*
X024067Y016523D01*
X024067Y016283D02*
X024308Y016283D01*
X024368Y016343D01*
X024368Y016463D01*
X024308Y016523D01*
X024308Y016154D02*
X024368Y016094D01*
X024368Y015974D01*
X024308Y015914D01*
X024308Y015786D02*
X024368Y015726D01*
X024368Y015606D01*
X024308Y015546D01*
X024067Y015546D01*
X024007Y015606D01*
X024007Y015726D01*
X024067Y015786D01*
X024007Y015914D02*
X024248Y016154D01*
X024308Y016154D01*
X024007Y016154D02*
X024007Y015914D01*
X023275Y015955D02*
X023275Y015715D01*
X023215Y015655D01*
X023095Y015655D01*
X023035Y015715D01*
X022907Y015655D02*
X022667Y015655D01*
X022787Y015655D02*
X022787Y016016D01*
X022907Y015895D01*
X023035Y015955D02*
X023095Y016016D01*
X023215Y016016D01*
X023275Y015955D01*
X022539Y015955D02*
X022539Y015895D01*
X022479Y015835D01*
X022359Y015835D01*
X022299Y015775D01*
X022299Y015715D01*
X022359Y015655D01*
X022479Y015655D01*
X022539Y015715D01*
X022539Y015775D01*
X022479Y015835D01*
X022359Y015835D02*
X022299Y015895D01*
X022299Y015955D01*
X022359Y016016D01*
X022479Y016016D01*
X022539Y015955D01*
X021275Y017215D02*
X021215Y017155D01*
X021095Y017155D01*
X021035Y017215D01*
X020907Y017155D02*
X020667Y017155D01*
X020787Y017155D02*
X020787Y017516D01*
X020907Y017395D01*
X021035Y017455D02*
X021095Y017516D01*
X021215Y017516D01*
X021275Y017455D01*
X021275Y017215D01*
X020539Y017215D02*
X020479Y017155D01*
X020359Y017155D01*
X020299Y017215D01*
X020299Y017455D01*
X020359Y017516D01*
X020479Y017516D01*
X020539Y017455D01*
X020539Y017395D01*
X020479Y017335D01*
X020299Y017335D01*
X020867Y018046D02*
X020807Y018106D01*
X020807Y018226D01*
X020867Y018286D01*
X020807Y018414D02*
X020807Y018654D01*
X020807Y018534D02*
X021168Y018534D01*
X021048Y018414D01*
X021108Y018286D02*
X021168Y018226D01*
X021168Y018106D01*
X021108Y018046D01*
X020867Y018046D01*
X020867Y018783D02*
X020807Y018783D01*
X020867Y018783D02*
X021108Y019023D01*
X021168Y019023D01*
X021168Y018783D01*
X022186Y018854D02*
X022426Y018854D01*
X022306Y018854D02*
X022306Y019214D01*
X022426Y019094D01*
X022554Y019094D02*
X022554Y019154D01*
X022615Y019214D01*
X022735Y019214D01*
X022795Y019154D01*
X022923Y019154D02*
X022983Y019214D01*
X023103Y019214D01*
X023163Y019154D01*
X023163Y018914D01*
X023103Y018854D01*
X022983Y018854D01*
X022923Y018914D01*
X022795Y018854D02*
X022554Y019094D01*
X022554Y018854D02*
X022795Y018854D01*
X027319Y022302D02*
X027379Y022242D01*
X027499Y022242D01*
X027559Y022302D01*
X027319Y022542D01*
X027319Y022302D01*
X027559Y022302D02*
X027559Y022542D01*
X027499Y022602D01*
X027379Y022602D01*
X027319Y022542D01*
X027687Y022602D02*
X027927Y022602D01*
X027927Y022422D01*
X027807Y022482D01*
X027747Y022482D01*
X027687Y022422D01*
X027687Y022302D01*
X027747Y022242D01*
X027867Y022242D01*
X027927Y022302D01*
X028055Y022242D02*
X028175Y022362D01*
X028115Y022362D02*
X028295Y022362D01*
X028295Y022242D02*
X028295Y022602D01*
X028115Y022602D01*
X028055Y022542D01*
X028055Y022422D01*
X028115Y022362D01*
X030386Y022004D02*
X030386Y021944D01*
X030446Y021884D01*
X030386Y021824D01*
X030386Y021764D01*
X030446Y021704D01*
X030566Y021704D01*
X030626Y021764D01*
X030754Y021704D02*
X030995Y021704D01*
X030875Y021704D02*
X030875Y022064D01*
X030995Y021944D01*
X031123Y022004D02*
X031183Y022064D01*
X031303Y022064D01*
X031363Y022004D01*
X031363Y021764D01*
X031303Y021704D01*
X031183Y021704D01*
X031123Y021764D01*
X030626Y022004D02*
X030566Y022064D01*
X030446Y022064D01*
X030386Y022004D01*
X030446Y021884D02*
X030506Y021884D01*
X034207Y025135D02*
X034207Y025255D01*
X034267Y025315D01*
X034267Y025443D02*
X034207Y025503D01*
X034207Y025623D01*
X034267Y025683D01*
X034327Y025683D01*
X034387Y025623D01*
X034387Y025503D01*
X034447Y025443D01*
X034507Y025443D01*
X034567Y025503D01*
X034567Y025623D01*
X034507Y025683D01*
X034567Y025811D02*
X034207Y025811D01*
X034207Y026052D01*
X034207Y026180D02*
X034567Y026180D01*
X034207Y026420D01*
X034567Y026420D01*
X034507Y026548D02*
X034447Y026548D01*
X034387Y026608D01*
X034387Y026728D01*
X034327Y026788D01*
X034267Y026788D01*
X034207Y026728D01*
X034207Y026608D01*
X034267Y026548D01*
X034507Y026548D02*
X034567Y026608D01*
X034567Y026728D01*
X034507Y026788D01*
X034567Y026916D02*
X034207Y026916D01*
X034207Y027157D01*
X034155Y027213D02*
X034155Y027673D01*
X033849Y027213D01*
X033849Y027673D01*
X033695Y027596D02*
X033695Y027520D01*
X033618Y027443D01*
X033465Y027443D01*
X033388Y027366D01*
X033388Y027290D01*
X033465Y027213D01*
X033618Y027213D01*
X033695Y027290D01*
X033695Y027596D02*
X033618Y027673D01*
X033465Y027673D01*
X033388Y027596D01*
X033235Y027673D02*
X033235Y027213D01*
X032928Y027213D01*
X033081Y027443D02*
X033235Y027443D01*
X033235Y027673D02*
X032928Y027673D01*
X034309Y027673D02*
X034616Y027673D01*
X034616Y027213D01*
X034309Y027213D01*
X034387Y027036D02*
X034387Y026916D01*
X034567Y026916D02*
X034567Y027157D01*
X034769Y027290D02*
X034846Y027213D01*
X034999Y027213D01*
X035076Y027290D01*
X034999Y027443D02*
X034846Y027443D01*
X034769Y027366D01*
X034769Y027290D01*
X034616Y027443D02*
X034462Y027443D01*
X034769Y027596D02*
X034846Y027673D01*
X034999Y027673D01*
X035076Y027596D01*
X035076Y027520D01*
X034999Y027443D01*
X035230Y027443D02*
X035306Y027366D01*
X035536Y027366D01*
X035383Y027366D02*
X035230Y027213D01*
X035230Y027443D02*
X035230Y027596D01*
X035306Y027673D01*
X035536Y027673D01*
X035536Y027213D01*
X035863Y027104D02*
X035863Y027027D01*
X035940Y027027D01*
X035940Y027104D01*
X035863Y027104D01*
X035940Y027257D02*
X035863Y027334D01*
X035863Y027488D01*
X035940Y027564D01*
X036017Y027564D01*
X036094Y027488D01*
X036094Y027411D01*
X036094Y027488D02*
X036170Y027564D01*
X036247Y027564D01*
X036324Y027488D01*
X036324Y027334D01*
X036247Y027257D01*
X036034Y026906D02*
X036034Y026599D01*
X036265Y026829D01*
X035804Y026829D01*
X035863Y026797D02*
X036324Y026797D01*
X036094Y026567D01*
X036094Y026874D01*
X036188Y026445D02*
X035881Y026445D01*
X035804Y026369D01*
X035804Y026215D01*
X035881Y026139D01*
X036188Y026445D01*
X036265Y026369D01*
X036265Y026215D01*
X036188Y026139D01*
X035881Y026139D01*
X035863Y026107D02*
X035863Y026413D01*
X035863Y026260D02*
X036324Y026260D01*
X036170Y026107D01*
X036265Y025985D02*
X036188Y025832D01*
X036034Y025678D01*
X036034Y025908D01*
X035958Y025985D01*
X035881Y025985D01*
X035804Y025908D01*
X035804Y025755D01*
X035881Y025678D01*
X036034Y025678D01*
X035265Y025678D02*
X035265Y025908D01*
X035188Y025985D01*
X035034Y025985D01*
X034958Y025908D01*
X034958Y025678D01*
X034958Y025832D02*
X034804Y025985D01*
X034881Y026139D02*
X034804Y026215D01*
X034804Y026369D01*
X034881Y026445D01*
X034958Y026445D01*
X035034Y026369D01*
X035034Y026215D01*
X035111Y026139D01*
X035188Y026139D01*
X035265Y026215D01*
X035265Y026369D01*
X035188Y026445D01*
X035111Y026599D02*
X035265Y026752D01*
X034804Y026752D01*
X034804Y026599D02*
X034804Y026906D01*
X034567Y026052D02*
X034567Y025811D01*
X034387Y025811D02*
X034387Y025932D01*
X034804Y025678D02*
X035265Y025678D01*
X034567Y025255D02*
X034567Y025135D01*
X034507Y025075D01*
X034267Y025075D01*
X034207Y025135D01*
X034507Y025315D02*
X034567Y025255D01*
X036863Y026107D02*
X037324Y026107D01*
X037324Y026337D01*
X037247Y026413D01*
X037094Y026413D01*
X037017Y026337D01*
X037017Y026107D01*
X037017Y026260D02*
X036863Y026413D01*
X036863Y026567D02*
X037324Y026567D01*
X037324Y026874D01*
X037170Y027027D02*
X037324Y027181D01*
X037170Y027334D01*
X036863Y027334D01*
X036863Y027488D02*
X036863Y027718D01*
X036940Y027794D01*
X037247Y027794D01*
X037324Y027718D01*
X037324Y027488D01*
X036863Y027488D01*
X037094Y027334D02*
X037094Y027027D01*
X037170Y027027D02*
X036863Y027027D01*
X037094Y026720D02*
X037094Y026567D01*
X036324Y027718D02*
X035863Y027718D01*
X036017Y027718D02*
X036170Y027948D01*
X036017Y027718D02*
X035863Y027948D01*
X036863Y028025D02*
X036863Y028101D01*
X036940Y028178D01*
X037324Y028178D01*
X037324Y028101D02*
X037324Y028255D01*
X036940Y027948D02*
X036863Y028025D01*
X034846Y029290D02*
X034539Y029596D01*
X034539Y029290D01*
X034616Y029213D01*
X034769Y029213D01*
X034846Y029290D01*
X034846Y029596D01*
X034769Y029673D01*
X034616Y029673D01*
X034539Y029596D01*
X034386Y029290D02*
X034309Y029290D01*
X034309Y029213D01*
X034386Y029213D01*
X034386Y029290D01*
X034155Y029290D02*
X033849Y029596D01*
X033849Y029290D01*
X033925Y029213D01*
X034079Y029213D01*
X034155Y029290D01*
X034155Y029596D01*
X034079Y029673D01*
X033925Y029673D01*
X033849Y029596D01*
X033695Y029520D02*
X033542Y029673D01*
X033542Y029213D01*
X033695Y029213D02*
X033388Y029213D01*
X033235Y029290D02*
X033158Y029213D01*
X033005Y029213D01*
X032928Y029290D01*
X032928Y029443D01*
X033005Y029520D01*
X033081Y029520D01*
X033235Y029443D01*
X033235Y029673D01*
X032928Y029673D01*
X023816Y023675D02*
X023636Y023495D01*
X023636Y023735D01*
X023456Y023675D02*
X023816Y023675D01*
X023456Y023367D02*
X023456Y023127D01*
X023456Y023247D02*
X023816Y023247D01*
X023696Y023127D01*
X023756Y022998D02*
X023816Y022938D01*
X023816Y022818D01*
X023756Y022758D01*
X023516Y022758D01*
X023456Y022818D01*
X023456Y022938D01*
X023516Y022998D01*
X019703Y028112D02*
X019583Y028112D01*
X019523Y028172D01*
X019394Y028172D02*
X019334Y028112D01*
X019214Y028112D01*
X019154Y028172D01*
X019154Y028232D01*
X019214Y028292D01*
X019394Y028292D01*
X019394Y028172D01*
X019394Y028292D02*
X019274Y028413D01*
X019154Y028473D01*
X019026Y028292D02*
X018846Y028292D01*
X018786Y028232D01*
X018786Y028172D01*
X018846Y028112D01*
X018966Y028112D01*
X019026Y028172D01*
X019026Y028292D01*
X018906Y028413D01*
X018786Y028473D01*
X019523Y028413D02*
X019583Y028473D01*
X019703Y028473D01*
X019763Y028413D01*
X019763Y028172D01*
X019703Y028112D01*
X016863Y022214D02*
X016683Y022214D01*
X016623Y022154D01*
X016623Y022034D01*
X016683Y021974D01*
X016863Y021974D01*
X016743Y021974D02*
X016623Y021854D01*
X016495Y021854D02*
X016495Y021914D01*
X016254Y022154D01*
X016254Y022214D01*
X016495Y022214D01*
X016863Y022214D02*
X016863Y021854D01*
X016863Y021314D02*
X016683Y021314D01*
X016623Y021254D01*
X016623Y021134D01*
X016683Y021074D01*
X016863Y021074D01*
X016743Y021074D02*
X016623Y020954D01*
X016495Y021014D02*
X016495Y021074D01*
X016435Y021134D01*
X016315Y021134D01*
X016254Y021074D01*
X016254Y021014D01*
X016315Y020954D01*
X016435Y020954D01*
X016495Y021014D01*
X016435Y021134D02*
X016495Y021194D01*
X016495Y021254D01*
X016435Y021314D01*
X016315Y021314D01*
X016254Y021254D01*
X016254Y021194D01*
X016315Y021134D01*
X016863Y020954D02*
X016863Y021314D01*
X016863Y016964D02*
X016683Y016964D01*
X016623Y016904D01*
X016623Y016784D01*
X016683Y016724D01*
X016863Y016724D01*
X016743Y016724D02*
X016623Y016604D01*
X016495Y016664D02*
X016435Y016604D01*
X016315Y016604D01*
X016254Y016664D01*
X016254Y016904D01*
X016315Y016964D01*
X016435Y016964D01*
X016495Y016904D01*
X016495Y016844D01*
X016435Y016784D01*
X016254Y016784D01*
X016863Y016604D02*
X016863Y016964D01*
X016775Y016064D02*
X016775Y015704D01*
X016895Y015704D02*
X016654Y015704D01*
X016526Y015764D02*
X016286Y016004D01*
X016286Y015764D01*
X016346Y015704D01*
X016466Y015704D01*
X016526Y015764D01*
X016526Y016004D01*
X016466Y016064D01*
X016346Y016064D01*
X016286Y016004D01*
X016775Y016064D02*
X016895Y015944D01*
X017023Y015884D02*
X017083Y015824D01*
X017263Y015824D01*
X017143Y015824D02*
X017023Y015704D01*
X017023Y015884D02*
X017023Y016004D01*
X017083Y016064D01*
X017263Y016064D01*
X017263Y015704D01*
X019983Y011924D02*
X019907Y011847D01*
X019907Y011693D01*
X019983Y011617D01*
X020060Y011617D01*
X020137Y011693D01*
X020137Y011847D01*
X020060Y011924D01*
X019983Y011924D01*
X020137Y011847D02*
X020214Y011924D01*
X020290Y011924D01*
X020367Y011847D01*
X020367Y011693D01*
X020290Y011617D01*
X020214Y011617D01*
X020137Y011693D01*
X020290Y011463D02*
X019983Y011156D01*
X019907Y011233D01*
X019907Y011386D01*
X019983Y011463D01*
X020290Y011463D01*
X020367Y011386D01*
X020367Y011233D01*
X020290Y011156D01*
X019983Y011156D01*
X019983Y011003D02*
X019907Y010926D01*
X019907Y010773D01*
X019983Y010696D01*
X020290Y011003D01*
X019983Y011003D01*
X019983Y010696D02*
X020290Y010696D01*
X020367Y010773D01*
X020367Y010926D01*
X020290Y011003D01*
X020290Y010543D02*
X020214Y010543D01*
X020137Y010466D01*
X020060Y010543D01*
X019983Y010543D01*
X019907Y010466D01*
X019907Y010312D01*
X019983Y010236D01*
X020137Y010389D02*
X020137Y010466D01*
X020290Y010543D02*
X020367Y010466D01*
X020367Y010312D01*
X020290Y010236D01*
X020290Y010082D02*
X020137Y010082D01*
X020060Y010005D01*
X020060Y009775D01*
X019907Y009775D02*
X020367Y009775D01*
X020367Y010005D01*
X020290Y010082D01*
X020290Y009622D02*
X020367Y009545D01*
X020367Y009392D01*
X020290Y009315D01*
X019983Y009315D01*
X019907Y009392D01*
X019907Y009545D01*
X019983Y009622D01*
X019907Y009161D02*
X020367Y009161D01*
X020214Y009008D01*
X020367Y008855D01*
X019907Y008855D01*
X019915Y008415D02*
X019915Y008055D01*
X020035Y008055D02*
X019795Y008055D01*
X020035Y008295D02*
X019915Y008415D01*
X020283Y008415D02*
X020283Y008055D01*
X020403Y008055D02*
X020163Y008055D01*
X020403Y008295D02*
X020283Y008415D01*
X020531Y008415D02*
X020531Y008115D01*
X020591Y008055D01*
X020712Y008055D01*
X020772Y008115D01*
X020772Y008415D01*
X017263Y010454D02*
X017263Y010814D01*
X017083Y010814D01*
X017023Y010754D01*
X017023Y010634D01*
X017083Y010574D01*
X017263Y010574D01*
X017143Y010574D02*
X017023Y010454D01*
X016895Y010454D02*
X016654Y010454D01*
X016775Y010454D02*
X016775Y010814D01*
X016895Y010694D01*
X016526Y010754D02*
X016466Y010814D01*
X016346Y010814D01*
X016286Y010754D01*
X016286Y010694D01*
X016526Y010454D01*
X016286Y010454D01*
X016286Y011354D02*
X016526Y011354D01*
X016406Y011354D02*
X016406Y011714D01*
X016526Y011594D01*
X016654Y011354D02*
X016895Y011354D01*
X016775Y011354D02*
X016775Y011714D01*
X016895Y011594D01*
X017023Y011534D02*
X017083Y011474D01*
X017263Y011474D01*
X017143Y011474D02*
X017023Y011354D01*
X017023Y011534D02*
X017023Y011654D01*
X017083Y011714D01*
X017263Y011714D01*
X017263Y011354D01*
X012063Y007554D02*
X012063Y007314D01*
X012003Y007254D01*
X011883Y007254D01*
X011823Y007314D01*
X011695Y007314D02*
X011635Y007254D01*
X011515Y007254D01*
X011454Y007314D01*
X011454Y007374D01*
X011515Y007434D01*
X011575Y007434D01*
X011515Y007434D02*
X011454Y007494D01*
X011454Y007554D01*
X011515Y007614D01*
X011635Y007614D01*
X011695Y007554D01*
X011823Y007554D02*
X011883Y007614D01*
X012003Y007614D01*
X012063Y007554D01*
X011326Y007434D02*
X011086Y007434D01*
X011146Y007254D02*
X011146Y007614D01*
X011326Y007434D01*
X011248Y004965D02*
X011008Y004965D01*
X011008Y004905D01*
X011248Y004665D01*
X011248Y004605D01*
X011437Y004605D02*
X011437Y004965D01*
X011617Y004785D01*
X011376Y004785D01*
X011497Y004530D02*
X010918Y004530D01*
X010915Y004530D02*
X010276Y004530D01*
X010276Y003639D01*
X010905Y003639D01*
X011497Y003639D01*
X011497Y004530D01*
X011657Y004336D02*
X011717Y004336D01*
X011957Y004576D01*
X012017Y004576D01*
X012017Y004336D01*
X012017Y004208D02*
X011657Y004208D01*
X012017Y003968D01*
X011657Y003968D01*
X011657Y003840D02*
X011777Y003720D01*
X011777Y003780D02*
X011777Y003600D01*
X011657Y003600D02*
X012017Y003600D01*
X012017Y003780D01*
X011957Y003840D01*
X011837Y003840D01*
X011777Y003780D01*
X010905Y003639D02*
X010858Y003639D01*
X010880Y004605D02*
X010880Y004965D01*
X010820Y004785D02*
X010640Y004605D01*
X010880Y004725D02*
X010640Y004965D01*
D14*
X010949Y007358D02*
X010949Y007648D01*
X010755Y007648D01*
X010852Y007503D02*
X010949Y007503D01*
X011050Y007551D02*
X011050Y007358D01*
X011195Y007358D01*
X011243Y007406D01*
X011243Y007551D01*
X011344Y007358D02*
X011538Y007358D01*
X011441Y007358D02*
X011441Y007648D01*
X011538Y007551D01*
X011637Y007406D02*
X011637Y007358D01*
X011685Y007358D01*
X011685Y007406D01*
X011637Y007406D01*
X011786Y007406D02*
X011835Y007358D01*
X011931Y007358D01*
X011980Y007406D01*
X011786Y007599D01*
X011786Y007406D01*
X011786Y007599D02*
X011835Y007648D01*
X011931Y007648D01*
X011980Y007599D01*
X011980Y007406D01*
X015297Y009883D02*
X015490Y009883D01*
X015297Y010076D01*
X015297Y010124D01*
X015345Y010173D01*
X015442Y010173D01*
X015490Y010124D01*
X015589Y009931D02*
X015589Y009883D01*
X015638Y009883D01*
X015638Y009931D01*
X015589Y009931D01*
X015739Y009931D02*
X015739Y010124D01*
X015932Y009931D01*
X015884Y009883D01*
X015787Y009883D01*
X015739Y009931D01*
X015932Y009931D02*
X015932Y010124D01*
X015884Y010173D01*
X015787Y010173D01*
X015739Y010124D01*
X015787Y010683D02*
X015884Y010683D01*
X015932Y010731D01*
X015739Y010924D01*
X015739Y010731D01*
X015787Y010683D01*
X015638Y010683D02*
X015589Y010683D01*
X015589Y010731D01*
X015638Y010731D01*
X015638Y010683D01*
X015490Y010683D02*
X015297Y010876D01*
X015297Y010924D01*
X015345Y010973D01*
X015442Y010973D01*
X015490Y010924D01*
X015490Y010683D02*
X015297Y010683D01*
X015739Y010924D02*
X015787Y010973D01*
X015884Y010973D01*
X015932Y010924D01*
X015932Y010731D01*
X016815Y007062D02*
X017008Y007062D01*
X017008Y006772D01*
X017109Y006772D02*
X017109Y006965D01*
X017008Y006917D02*
X016911Y006917D01*
X017109Y006772D02*
X017255Y006772D01*
X017303Y006820D01*
X017303Y006965D01*
X017404Y006772D02*
X017598Y006772D01*
X017501Y006772D02*
X017501Y007062D01*
X017598Y006965D01*
X017696Y006820D02*
X017696Y006772D01*
X017745Y006772D01*
X017745Y006820D01*
X017696Y006820D01*
X017846Y006820D02*
X017894Y006772D01*
X017991Y006772D01*
X018039Y006820D01*
X017846Y007013D01*
X017846Y006820D01*
X017846Y007013D02*
X017894Y007062D01*
X017991Y007062D01*
X018039Y007013D01*
X018039Y006820D01*
X015884Y015133D02*
X015932Y015181D01*
X015739Y015374D01*
X015739Y015181D01*
X015787Y015133D01*
X015884Y015133D01*
X015932Y015181D02*
X015932Y015374D01*
X015884Y015423D01*
X015787Y015423D01*
X015739Y015374D01*
X015638Y015181D02*
X015589Y015181D01*
X015589Y015133D01*
X015638Y015133D01*
X015638Y015181D01*
X015490Y015133D02*
X015297Y015326D01*
X015297Y015374D01*
X015345Y015423D01*
X015442Y015423D01*
X015490Y015374D01*
X015490Y015133D02*
X015297Y015133D01*
X015297Y015933D02*
X015490Y015933D01*
X015297Y016126D01*
X015297Y016174D01*
X015345Y016223D01*
X015442Y016223D01*
X015490Y016174D01*
X015589Y015981D02*
X015589Y015933D01*
X015638Y015933D01*
X015638Y015981D01*
X015589Y015981D01*
X015739Y015981D02*
X015787Y015933D01*
X015884Y015933D01*
X015932Y015981D01*
X015739Y016174D01*
X015739Y015981D01*
X015932Y015981D02*
X015932Y016174D01*
X015884Y016223D01*
X015787Y016223D01*
X015739Y016174D01*
X021010Y017590D02*
X021058Y017541D01*
X021251Y017735D01*
X021058Y017735D01*
X021010Y017687D01*
X021010Y017590D01*
X021058Y017541D02*
X021251Y017541D01*
X021300Y017590D01*
X021300Y017687D01*
X021251Y017735D01*
X021058Y017836D02*
X021058Y017884D01*
X021010Y017884D01*
X021010Y017836D01*
X021058Y017836D01*
X021010Y017983D02*
X021010Y018177D01*
X021010Y018080D02*
X021300Y018080D01*
X021203Y017983D01*
X021203Y018278D02*
X021058Y018278D01*
X021010Y018326D01*
X021010Y018472D01*
X021203Y018472D01*
X021155Y018573D02*
X021155Y018669D01*
X021300Y018573D02*
X021300Y018766D01*
X021300Y018573D02*
X021010Y018573D01*
X021955Y018148D02*
X022149Y018148D01*
X022149Y017858D01*
X022250Y017858D02*
X022250Y018051D01*
X022149Y018003D02*
X022052Y018003D01*
X022250Y017858D02*
X022395Y017858D01*
X022443Y017906D01*
X022443Y018051D01*
X022544Y017858D02*
X022738Y017858D01*
X022641Y017858D02*
X022641Y018148D01*
X022738Y018051D01*
X022837Y017906D02*
X022837Y017858D01*
X022885Y017858D01*
X022885Y017906D01*
X022837Y017906D01*
X022986Y017906D02*
X023035Y017858D01*
X023131Y017858D01*
X023180Y017906D01*
X022986Y018099D01*
X022986Y017906D01*
X022986Y018099D02*
X023035Y018148D01*
X023131Y018148D01*
X023180Y018099D01*
X023180Y017906D01*
X023974Y017870D02*
X024264Y017870D01*
X024167Y017774D01*
X024022Y017675D02*
X023974Y017675D01*
X023974Y017626D01*
X024022Y017626D01*
X024022Y017675D01*
X023974Y017774D02*
X023974Y017967D01*
X024022Y018068D02*
X023974Y018117D01*
X023974Y018262D01*
X024167Y018262D01*
X024119Y018363D02*
X024119Y018460D01*
X024264Y018556D02*
X024264Y018363D01*
X023974Y018363D01*
X024022Y018068D02*
X024167Y018068D01*
X024216Y017525D02*
X024022Y017525D01*
X023974Y017477D01*
X023974Y017380D01*
X024022Y017332D01*
X024216Y017525D01*
X024264Y017477D01*
X024264Y017380D01*
X024216Y017332D01*
X024022Y017332D01*
X024119Y017260D02*
X024119Y017163D01*
X024167Y017062D02*
X023974Y017062D01*
X023974Y016917D01*
X024022Y016868D01*
X024167Y016868D01*
X023974Y016767D02*
X023974Y016574D01*
X023974Y016670D02*
X024264Y016670D01*
X024167Y016574D01*
X024022Y016475D02*
X023974Y016475D01*
X023974Y016426D01*
X024022Y016426D01*
X024022Y016475D01*
X024022Y016325D02*
X023974Y016277D01*
X023974Y016180D01*
X024022Y016132D01*
X024216Y016325D01*
X024022Y016325D01*
X024022Y016132D02*
X024216Y016132D01*
X024264Y016180D01*
X024264Y016277D01*
X024216Y016325D01*
X024264Y017163D02*
X023974Y017163D01*
X024264Y017163D02*
X024264Y017356D01*
X023389Y017063D02*
X023389Y016870D01*
X023196Y017063D01*
X023196Y016870D01*
X023244Y016822D01*
X023341Y016822D01*
X023389Y016870D01*
X023389Y017063D02*
X023341Y017112D01*
X023244Y017112D01*
X023196Y017063D01*
X023095Y016870D02*
X023046Y016870D01*
X023046Y016822D01*
X023095Y016822D01*
X023095Y016870D01*
X022948Y016822D02*
X022754Y016822D01*
X022851Y016822D02*
X022851Y017112D01*
X022948Y017015D01*
X022653Y017015D02*
X022653Y016870D01*
X022605Y016822D01*
X022459Y016822D01*
X022459Y017015D01*
X022358Y016967D02*
X022261Y016967D01*
X022167Y017062D02*
X021974Y017062D01*
X021974Y016917D01*
X022022Y016868D01*
X022167Y016868D01*
X022358Y016822D02*
X022358Y017112D01*
X022165Y017112D01*
X022119Y017163D02*
X022119Y017260D01*
X022264Y017356D02*
X022264Y017163D01*
X021974Y017163D01*
X021974Y016767D02*
X021974Y016574D01*
X021974Y016670D02*
X022264Y016670D01*
X022167Y016574D01*
X022022Y016475D02*
X021974Y016475D01*
X021974Y016426D01*
X022022Y016426D01*
X022022Y016475D01*
X022022Y016325D02*
X021974Y016277D01*
X021974Y016180D01*
X022022Y016132D01*
X022216Y016325D01*
X022022Y016325D01*
X022022Y016132D02*
X022216Y016132D01*
X022264Y016180D01*
X022264Y016277D01*
X022216Y016325D01*
X015932Y020431D02*
X015739Y020624D01*
X015739Y020431D01*
X015787Y020383D01*
X015884Y020383D01*
X015932Y020431D01*
X015932Y020624D01*
X015884Y020673D01*
X015787Y020673D01*
X015739Y020624D01*
X015638Y020431D02*
X015589Y020431D01*
X015589Y020383D01*
X015638Y020383D01*
X015638Y020431D01*
X015490Y020383D02*
X015297Y020576D01*
X015297Y020624D01*
X015345Y020673D01*
X015442Y020673D01*
X015490Y020624D01*
X015490Y020383D02*
X015297Y020383D01*
X015297Y021183D02*
X015490Y021183D01*
X015297Y021376D01*
X015297Y021424D01*
X015345Y021473D01*
X015442Y021473D01*
X015490Y021424D01*
X015589Y021231D02*
X015589Y021183D01*
X015638Y021183D01*
X015638Y021231D01*
X015589Y021231D01*
X015739Y021231D02*
X015787Y021183D01*
X015884Y021183D01*
X015932Y021231D01*
X015739Y021424D01*
X015739Y021231D01*
X015932Y021231D02*
X015932Y021424D01*
X015884Y021473D01*
X015787Y021473D01*
X015739Y021424D01*
X023660Y022790D02*
X023708Y022741D01*
X023901Y022935D01*
X023708Y022935D01*
X023660Y022887D01*
X023660Y022790D01*
X023708Y022741D02*
X023901Y022741D01*
X023950Y022790D01*
X023950Y022887D01*
X023901Y022935D01*
X023708Y023036D02*
X023708Y023084D01*
X023660Y023084D01*
X023660Y023036D01*
X023708Y023036D01*
X023660Y023183D02*
X023660Y023377D01*
X023660Y023280D02*
X023950Y023280D01*
X023853Y023183D01*
X023853Y023478D02*
X023708Y023478D01*
X023660Y023526D01*
X023660Y023672D01*
X023853Y023672D01*
X023805Y023773D02*
X023805Y023869D01*
X023950Y023773D02*
X023950Y023966D01*
X023950Y023773D02*
X023660Y023773D01*
X026108Y023098D02*
X026301Y022904D01*
X026253Y022952D02*
X026108Y022807D01*
X026301Y022807D02*
X026301Y023098D01*
X026403Y023098D02*
X026403Y023049D01*
X026596Y022856D01*
X026596Y022807D01*
X026695Y022807D02*
X026743Y022807D01*
X026743Y022856D01*
X026695Y022856D01*
X026695Y022807D01*
X026893Y022807D02*
X026893Y023098D01*
X027038Y022952D01*
X026845Y022952D01*
X026596Y023098D02*
X026403Y023098D01*
X030505Y020948D02*
X030699Y020948D01*
X030699Y020658D01*
X030800Y020658D02*
X030800Y020851D01*
X030699Y020803D02*
X030602Y020803D01*
X030800Y020658D02*
X030945Y020658D01*
X030993Y020706D01*
X030993Y020851D01*
X031094Y020658D02*
X031288Y020658D01*
X031191Y020658D02*
X031191Y020948D01*
X031288Y020851D01*
X031387Y020706D02*
X031387Y020658D01*
X031435Y020658D01*
X031435Y020706D01*
X031387Y020706D01*
X031536Y020706D02*
X031585Y020658D01*
X031681Y020658D01*
X031730Y020706D01*
X031536Y020899D01*
X031536Y020706D01*
X031536Y020899D02*
X031585Y020948D01*
X031681Y020948D01*
X031730Y020899D01*
X031730Y020706D01*
X036874Y015667D02*
X037019Y015522D01*
X036971Y015474D02*
X037164Y015667D01*
X037164Y015474D02*
X036874Y015474D01*
X036922Y015373D02*
X036874Y015324D01*
X036874Y015228D01*
X036922Y015179D01*
X037116Y015373D01*
X036922Y015373D01*
X036922Y015179D02*
X037116Y015179D01*
X037164Y015228D01*
X037164Y015324D01*
X037116Y015373D01*
X036874Y015078D02*
X036874Y014885D01*
X036874Y014981D02*
X037164Y014981D01*
X037067Y014885D01*
X038874Y014885D02*
X038874Y015078D01*
X038874Y014981D02*
X039164Y014981D01*
X039067Y014885D01*
X039116Y015179D02*
X039164Y015228D01*
X039164Y015324D01*
X039116Y015373D01*
X038922Y015179D01*
X038874Y015228D01*
X038874Y015324D01*
X038922Y015373D01*
X039116Y015373D01*
X039164Y015474D02*
X038874Y015474D01*
X038971Y015474D02*
X039164Y015667D01*
X039019Y015522D02*
X038874Y015667D01*
X038922Y015179D02*
X039116Y015179D01*
X038531Y011698D02*
X038435Y011698D01*
X038386Y011649D01*
X038580Y011456D01*
X038531Y011408D01*
X038435Y011408D01*
X038386Y011456D01*
X038386Y011649D01*
X038531Y011698D02*
X038580Y011649D01*
X038580Y011456D01*
X038285Y011456D02*
X038237Y011456D01*
X038237Y011408D01*
X038285Y011408D01*
X038285Y011456D01*
X038138Y011408D02*
X037944Y011408D01*
X038041Y011408D02*
X038041Y011698D01*
X038138Y011601D01*
X037843Y011601D02*
X037843Y011456D01*
X037795Y011408D01*
X037650Y011408D01*
X037650Y011601D01*
X037549Y011553D02*
X037452Y011553D01*
X037549Y011698D02*
X037355Y011698D01*
X037549Y011698D02*
X037549Y011408D01*
X036714Y010856D02*
X036714Y010663D01*
X036424Y010663D01*
X036424Y010562D02*
X036617Y010562D01*
X036569Y010663D02*
X036569Y010760D01*
X036424Y010562D02*
X036424Y010417D01*
X036472Y010368D01*
X036617Y010368D01*
X036424Y010267D02*
X036424Y010074D01*
X036424Y010170D02*
X036714Y010170D01*
X036617Y010074D01*
X036472Y009975D02*
X036424Y009975D01*
X036424Y009926D01*
X036472Y009926D01*
X036472Y009975D01*
X036472Y009825D02*
X036424Y009777D01*
X036424Y009680D01*
X036472Y009632D01*
X036666Y009825D01*
X036472Y009825D01*
X036472Y009632D02*
X036666Y009632D01*
X036714Y009680D01*
X036714Y009777D01*
X036666Y009825D01*
X036050Y009834D02*
X036001Y009786D01*
X036050Y009834D02*
X036050Y009931D01*
X036001Y009979D01*
X035953Y009979D01*
X035759Y009786D01*
X035759Y009979D01*
X035808Y010081D02*
X036001Y010274D01*
X035808Y010274D01*
X035759Y010226D01*
X035759Y010129D01*
X035808Y010081D01*
X036001Y010081D01*
X036050Y010129D01*
X036050Y010226D01*
X036001Y010274D01*
X036001Y010375D02*
X036050Y010424D01*
X036050Y010520D01*
X036001Y010569D01*
X035808Y010375D01*
X035759Y010424D01*
X035759Y010520D01*
X035808Y010569D01*
X036001Y010569D01*
X036050Y010670D02*
X035759Y010670D01*
X035856Y010670D02*
X036050Y010863D01*
X035905Y010718D02*
X035759Y010863D01*
X035808Y010375D02*
X036001Y010375D01*
X038955Y011198D02*
X039149Y011198D01*
X039149Y010908D01*
X039250Y010908D02*
X039250Y011101D01*
X039149Y011053D02*
X039052Y011053D01*
X039250Y010908D02*
X039395Y010908D01*
X039443Y010956D01*
X039443Y011101D01*
X039544Y010908D02*
X039738Y010908D01*
X039641Y010908D02*
X039641Y011198D01*
X039738Y011101D01*
X039837Y010956D02*
X039837Y010908D01*
X039885Y010908D01*
X039885Y010956D01*
X039837Y010956D01*
X039986Y010956D02*
X039986Y011149D01*
X040180Y010956D01*
X040131Y010908D01*
X040035Y010908D01*
X039986Y010956D01*
X039986Y011149D02*
X040035Y011198D01*
X040131Y011198D01*
X040180Y011149D01*
X040180Y010956D01*
X034164Y013180D02*
X034164Y013277D01*
X034116Y013325D01*
X033922Y013132D01*
X033874Y013180D01*
X033874Y013277D01*
X033922Y013325D01*
X034116Y013325D01*
X034164Y013180D02*
X034116Y013132D01*
X033922Y013132D01*
X033922Y013426D02*
X033922Y013475D01*
X033874Y013475D01*
X033874Y013426D01*
X033922Y013426D01*
X033874Y013574D02*
X033874Y013767D01*
X033874Y013670D02*
X034164Y013670D01*
X034067Y013574D01*
X034067Y013868D02*
X033922Y013868D01*
X033874Y013917D01*
X033874Y014062D01*
X034067Y014062D01*
X034019Y014163D02*
X034019Y014260D01*
X034164Y014356D02*
X034164Y014163D01*
X033874Y014163D01*
X035273Y026113D02*
X035273Y026306D01*
X035273Y026210D02*
X035563Y026210D01*
X035466Y026113D01*
X035515Y026408D02*
X035563Y026456D01*
X035563Y026553D01*
X035515Y026601D01*
X035321Y026408D01*
X035273Y026456D01*
X035273Y026553D01*
X035321Y026601D01*
X035515Y026601D01*
X035466Y026702D02*
X035466Y026847D01*
X035418Y026896D01*
X035273Y026896D01*
X035273Y026997D02*
X035563Y026997D01*
X035563Y027190D01*
X035418Y027094D02*
X035418Y026997D01*
X035466Y026702D02*
X035273Y026702D01*
X035321Y026408D02*
X035515Y026408D01*
X020172Y028127D02*
X020123Y028079D01*
X020026Y028079D01*
X019978Y028127D01*
X019978Y028321D01*
X020172Y028127D01*
X020172Y028321D01*
X020123Y028369D01*
X020026Y028369D01*
X019978Y028321D01*
X019877Y028127D02*
X019877Y028079D01*
X019829Y028079D01*
X019829Y028127D01*
X019877Y028127D01*
X019730Y028079D02*
X019536Y028272D01*
X019536Y028321D01*
X019584Y028369D01*
X019681Y028369D01*
X019730Y028321D01*
X019730Y028079D02*
X019536Y028079D01*
X019435Y028079D02*
X019241Y028272D01*
X019241Y028321D01*
X019290Y028369D01*
X019387Y028369D01*
X019435Y028321D01*
X019435Y028079D02*
X019241Y028079D01*
X019140Y028127D02*
X019092Y028079D01*
X018947Y028079D01*
X018947Y028272D01*
X018846Y028224D02*
X018749Y028224D01*
X018846Y028369D02*
X018652Y028369D01*
X018846Y028369D02*
X018846Y028079D01*
X019140Y028127D02*
X019140Y028272D01*
D15*
X019389Y012529D02*
X019586Y012529D01*
X020885Y012529D01*
X020885Y008640D01*
X019586Y008640D01*
X019586Y012529D01*
X019389Y012529D02*
X019389Y008640D01*
X019586Y008640D01*
D16*
X019137Y008285D03*
D17*
X037487Y008935D03*
M02*
