%
M48
M72
T01C0.0150
T02C0.0157
T03C0.0315
T04C0.0320
T05C0.0354
T06C0.0360
T07C0.0400
T08C0.0433
T09C0.0512
T10C0.1180
T11C0.1417
%
T01
X11137Y23585
T02
X10637Y21585
X7037Y19385
X4437Y20585
X3237Y24085
X7337Y25285
X3337Y28185
X12587Y29735
X12587Y30435
X14037Y30435
X14037Y29735
X13987Y28835
X15337Y29735
X15337Y30435
X15337Y31435
X18337Y30035
X18787Y30035
X18587Y30535
X20687Y30285
X21187Y30285
X21637Y30285
X21087Y29635
X21637Y29285
X21787Y28785
X21637Y28285
X21237Y28485
X20567Y27611
X20887Y26835
X21637Y27285
X19794Y26113
X18137Y26145
X18137Y27235
X18251Y27829
X16887Y27835
X16287Y28635
X17537Y24385
X17137Y23085
X16637Y22985
X17937Y21885
X18137Y21435
X19187Y21985
X19637Y21685
X19937Y21385
X21337Y21235
X21737Y21235
X22487Y21635
X22987Y21185
X23387Y21185
X24287Y22435
X25687Y22435
X26587Y23035
X26887Y23335
X27187Y23035
X26387Y23985
X25787Y24335
X26387Y24741
X24737Y24435
X24157Y24710
X23049Y24678
X22637Y24085
X21037Y24085
X20737Y24485
X20137Y24085
X19337Y24085
X19237Y23385
X19237Y22985
X19637Y22985
X20987Y22735
X21537Y22835
X25137Y23585
X26537Y20985
X26837Y20685
X27137Y20385
X27437Y20735
X27737Y20335
X28187Y19135
X28637Y19135
X29037Y18585
X29487Y18585
X28937Y17885
X28637Y18285
X28137Y17685
X28537Y17285
X28137Y16985
X28137Y16085
X28137Y15485
X28537Y15485
X29137Y15285
X28137Y14985
X27737Y14385
X27337Y14685
X26637Y13985
X26337Y14385
X27037Y13685
X28437Y12885
X28537Y11485
X29037Y11485
X29637Y11485
X28037Y11485
X27537Y11485
X27037Y11485
X26837Y11085
X25437Y10285
X25037Y10285
X24637Y10285
X24237Y10285
X24987Y9085
X25437Y9085
X25937Y9085
X26437Y9085
X26937Y9085
X27487Y9085
X27737Y9635
X28137Y9685
X28537Y9485
X27887Y6885
X26637Y6685
X29537Y6485
X30137Y6835
X32687Y6435
X32687Y8235
X34987Y8235
X36787Y9385
X36787Y10635
X38387Y10835
X39287Y10835
X39587Y12035
X40087Y12335
X41637Y13635
X42087Y13635
X42487Y13235
X42487Y12785
X41287Y14685
X41337Y15685
X40087Y15635
X40937Y17085
X40887Y18235
X41437Y18235
X41437Y19435
X40887Y19435
X40887Y20435
X41437Y20435
X41437Y21635
X40887Y21635
X42589Y22285
X40487Y24185
X39787Y24385
X39787Y23685
X38537Y23385
X38537Y22335
X36787Y22135
X35687Y22135
X34537Y22135
X32887Y21285
X32437Y21285
X31987Y21285
X31587Y21785
X30137Y21685
X29687Y21685
X29237Y21885
X30137Y21235
X30337Y19985
X30737Y19985
X29937Y19535
X29637Y19835
X29187Y19985
X31787Y19985
X32137Y19735
X32487Y19985
X33187Y18935
X32937Y18585
X33187Y18235
X32737Y17285
X33037Y16985
X32437Y16985
X32987Y16185
X32687Y15885
X32987Y15585
X32687Y15285
X32987Y14985
X31937Y14985
X31337Y15185
X31537Y13685
X31937Y13685
X31637Y12885
X32437Y11885
X32837Y11685
X33237Y11585
X33537Y11285
X33837Y11585
X34137Y11285
X34437Y11585
X34737Y11285
X35137Y11085
X34737Y10785
X35137Y11535
X36637Y12035
X37237Y12035
X36337Y12885
X35687Y12885
X34837Y13285
X34237Y14085
X37237Y13635
X38687Y17435
X38687Y18635
X39487Y19435
X39587Y20385
X38737Y20385
X37137Y20585
X36237Y20585
X36237Y19985
X35137Y19985
X35137Y20585
X34487Y19535
X34487Y19035
X34487Y18535
X35137Y18085
X35487Y17535
X36237Y18085
X36237Y19035
X31637Y17585
X31137Y17935
X31137Y17235
X30087Y17235
X30137Y17935
X26437Y18585
X26237Y19785
X25337Y20585
X24637Y19885
X24137Y19885
X23537Y19685
X23037Y19685
X22037Y19885
X21437Y19285
X21037Y19585
X20237Y18985
X20537Y18585
X20837Y17785
X20237Y16985
X20537Y16185
X21137Y16685
X22137Y17185
X22137Y17785
X23137Y17185
X23737Y16085
X23737Y15485
X24037Y15085
X23037Y15085
X22537Y15185
X21737Y15435
X21737Y15885
X21387Y15085
X20987Y15085
X20387Y15235
X19137Y13985
X19187Y13135
X19437Y12735
X20587Y13885
X21537Y13785
X23237Y13285
X23687Y13135
X24037Y12535
X24337Y12985
X24837Y13485
X25037Y13885
X23387Y12435
X22937Y12435
X22487Y12435
X23837Y12085
X22237Y10985
X21937Y10485
X21837Y9785
X21837Y9185
X22237Y7585
X22737Y7585
X22937Y6985
X21687Y6985
X21387Y7535
X20837Y7435
X19387Y7485
X18937Y7485
X18487Y7485
X18137Y7185
X17337Y6985
X15237Y7035
X15237Y6585
X13837Y6735
X13837Y7135
X13837Y7535
X14137Y7985
X16637Y9685
X17137Y9585
X17837Y9885
X17837Y10785
X16637Y12485
X17137Y12585
X17637Y13385
X17637Y14135
X17137Y14885
X16637Y14985
X17837Y16185
X17137Y17885
X16637Y17785
X17637Y18785
X18237Y18785
X17937Y19385
X17137Y20085
X16637Y20185
X17937Y20435
X18137Y18185
X24137Y18185
X24137Y18685
X24737Y18485
X25037Y18885
X25037Y16885
X24437Y16885
X24737Y16085
X25037Y15385
X29387Y23335
X30837Y23935
X30813Y24749
X29940Y25470
X28629Y24749
X26137Y26585
X25137Y26585
X24733Y26149
X24787Y27185
X25137Y27785
X25137Y28785
X26070Y29127
X26687Y28585
X26137Y30085
X28751Y29635
X29255Y30371
X30237Y30585
X30235Y31440
X32747Y30460
X31865Y28635
X32692Y27537
X30475Y28635
X29767Y29159
X29339Y28634
X28687Y28735
X28999Y27154
X32546Y25953
X32382Y24749
X33062Y24384
X34487Y23835
X35137Y23835
X36437Y24785
X37237Y24785
X37223Y25955
X37211Y26632
X36023Y27092
X35566Y27754
X36200Y28059
X37294Y28067
X37334Y29331
X36271Y29359
X36219Y30544
X37023Y30555
X37885Y30555
X38553Y30561
X38971Y29229
X39385Y28814
X40168Y28246
X44387Y26435
X43786Y20463
X43271Y18128
X43538Y17655
X39037Y9385
X39487Y8235
X39487Y6435
X38287Y5785
X37187Y6435
X37187Y8235
X34987Y6435
X30137Y3885
X20887Y4085
X11887Y5635
X5937Y5585
X4437Y5085
X4837Y9085
X5837Y11085
X4437Y12085
X8137Y13285
X6637Y15835
X7937Y16385
X12337Y16385
X31887Y23335
X34440Y25514
X42487Y8885
X42637Y2335
X40387Y2335
T03
X36430Y13403
X35643Y13403
X35643Y14191
X36430Y14191
X36430Y14978
X35643Y14978
X35643Y15766
X36430Y15766
X31235Y29640
T04
X29137Y31335
X28137Y31335
X27137Y31335
X26137Y31335
X25137Y31335
X24137Y31335
X23137Y31335
X22137Y31335
X21137Y31335
X20137Y31335
X19137Y31335
X18137Y31335
X17137Y31335
X16137Y31335
X15637Y23085
X14637Y23085
X13637Y23085
X12637Y23085
X11637Y23085
X10637Y23085
X9637Y23085
X8637Y23085
X7637Y23085
X6637Y23085
X3637Y23585
X3637Y22585
X3637Y21585
X6637Y20085
X7637Y20085
X8637Y20085
X9637Y20085
X10637Y20085
X11637Y20085
X12637Y20085
X13637Y20085
X14637Y20085
X15637Y20085
X15637Y17835
X14637Y17835
X13637Y17835
X12637Y17835
X11637Y17835
X10637Y17835
X9637Y17835
X8637Y17835
X7637Y17835
X6637Y17835
X3637Y17835
X3637Y18835
X3637Y16835
X3637Y15835
X3637Y14835
X3637Y13835
X6637Y14835
X7637Y14835
X8637Y14835
X9637Y14835
X10637Y14835
X11637Y14835
X12637Y14835
X13637Y14835
X14637Y14835
X15637Y14835
X15637Y12585
X14637Y12585
X13637Y12585
X12637Y12585
X11637Y12585
X10637Y12585
X9637Y12585
X8637Y12585
X7637Y12585
X6637Y12585
X3637Y11085
X3637Y10085
X3637Y9085
X3637Y8085
X3637Y7085
X3637Y6085
X6637Y9585
X7637Y9585
X8637Y9585
X9637Y9585
X10637Y9585
X11637Y9585
X12637Y9585
X13637Y9585
X14637Y9585
X15637Y9585
X15387Y5085
X16387Y5085
X17387Y5085
X18387Y5085
X19387Y5085
X20387Y5085
X21387Y5085
X22387Y5085
X23387Y5085
X24387Y5085
X25387Y5085
X26387Y5085
X27387Y5085
X28387Y5085
X29387Y5085
X31387Y5085
X32387Y5085
X33387Y5085
X34387Y5085
X35387Y5085
X36387Y5085
X37387Y5085
X38387Y5085
X38537Y14185
X39537Y14185
X40537Y14185
X37537Y14185
X14387Y5085
X12387Y5085
X11387Y5085
X10387Y5085
X9387Y5085
X3637Y24585
X3637Y25585
X3637Y26585
T05
X41337Y26985
X43337Y26985
X43679Y24759
X42695Y24759
X42695Y23185
X43679Y23185
X43679Y21610
X42695Y21610
X41774Y17069
X41774Y15100
T06
X38387Y3085
X37387Y3085
X36387Y3085
X35387Y3085
X34387Y3085
X33387Y3085
X32387Y3085
X31387Y3085
X31387Y2085
X32387Y2085
X33387Y2085
X34387Y2085
X35387Y2085
X36387Y2085
X37387Y2085
X38387Y2085
X29387Y2085
X29387Y3085
X28387Y3085
X27387Y3085
X26387Y3085
X25387Y3085
X24387Y3085
X23387Y3085
X22387Y3085
X21387Y3085
X21387Y2085
X22387Y2085
X23387Y2085
X24387Y2085
X25387Y2085
X26387Y2085
X27387Y2085
X28387Y2085
X20387Y2085
X20387Y3085
X19387Y3085
X18387Y3085
X17387Y3085
X16387Y3085
X15387Y3085
X14387Y3085
X14387Y2085
X15387Y2085
X16387Y2085
X17387Y2085
X18387Y2085
X19387Y2085
X12387Y2085
X12387Y3085
X11387Y3085
X10387Y3085
X9387Y3085
X9387Y2085
X10387Y2085
X11387Y2085
T07
X10637Y25585
X9637Y25585
X8637Y25585
X8637Y26585
X9637Y26585
X10637Y26585
X10637Y27585
X9637Y27585
X8637Y27585
X8637Y28585
X9637Y28585
X10637Y28585
X10637Y29585
X9637Y29585
X8637Y29585
X8637Y30585
X9637Y30585
X10637Y30585
X31239Y31329
X32239Y31329
X33239Y31329
X34239Y31329
X35239Y31329
X36239Y31329
X37239Y31329
X38239Y31329
T08
X42006Y25547
X44368Y25547
X44368Y20822
X42006Y20822
T09
X44137Y18092
X44137Y14077
T10
X43397Y29354
X41786Y30845
X40535Y29344
T11
X6137Y4085
X6137Y29085
X41637Y4085
M30
