G75*
G70*
%OFA0B0*%
%FSLAX24Y24*%
%IPPOS*%
%LPD*%
%AMOC8*
5,1,8,0,0,1.08239X$1,22.5*
%
%ADD10R,0.0709X0.0197*%
%ADD11R,0.0197X0.0709*%
%ADD12R,0.0118X0.0591*%
%ADD13R,0.0709X0.0472*%
%ADD14R,0.0430X0.0390*%
%ADD15R,0.0560X0.0280*%
%ADD16R,0.0520X0.0520*%
%ADD17OC8,0.0520*%
%ADD18R,0.0315X0.0315*%
%ADD19R,0.0560X0.0560*%
%ADD20OC8,0.0560*%
%ADD21R,0.0600X0.0600*%
%ADD22OC8,0.0600*%
%ADD23R,0.0390X0.0120*%
%ADD24C,0.0554*%
%ADD25C,0.2300*%
%ADD26R,0.0236X0.0394*%
%ADD27R,0.0394X0.0236*%
%ADD28R,0.0390X0.0430*%
%ADD29R,0.0630X0.0106*%
%ADD30R,0.0106X0.0630*%
%ADD31OC8,0.0768*%
%ADD32OC8,0.0554*%
%ADD33R,0.0250X0.0850*%
%ADD34R,0.0120X0.0390*%
%ADD35R,0.0515X0.0515*%
%ADD36OC8,0.0515*%
%ADD37R,0.0984X0.0768*%
%ADD38R,0.0236X0.0866*%
%ADD39R,0.0551X0.0394*%
%ADD40R,0.0787X0.0197*%
%ADD41R,0.0866X0.0984*%
%ADD42R,0.1378X0.0630*%
%ADD43R,0.1100X0.0550*%
%ADD44C,0.0520*%
%ADD45R,0.2000X0.0700*%
%ADD46R,0.0945X0.0945*%
%ADD47R,0.0217X0.0472*%
%ADD48R,0.0630X0.0709*%
%ADD49R,0.0350X0.0165*%
%ADD50R,0.0827X0.1102*%
%ADD51R,0.0591X0.1299*%
%ADD52R,0.0591X0.0394*%
%ADD53R,0.0709X0.0630*%
%ADD54R,0.0630X0.1378*%
%ADD55R,0.0472X0.0217*%
%ADD56R,0.1050X0.1000*%
%ADD57R,0.0300X0.0500*%
%ADD58R,0.0320X0.0320*%
%ADD59R,0.2480X0.0846*%
%ADD60R,0.0768X0.0984*%
%ADD61R,0.0866X0.0236*%
%ADD62R,0.0940X0.1290*%
%ADD63R,0.1142X0.2126*%
%ADD64R,0.0710X0.0630*%
%ADD65OC8,0.0650*%
%ADD66C,0.0600*%
%ADD67R,0.0394X0.0157*%
%ADD68R,0.0354X0.0276*%
%ADD69R,0.1063X0.0630*%
%ADD70R,0.2165X0.0728*%
%ADD71R,0.2126X0.2441*%
%ADD72R,0.0394X0.0630*%
%ADD73R,0.0661X0.1339*%
%ADD74R,0.2106X0.1752*%
%ADD75R,0.0213X0.0256*%
%ADD76C,0.1580*%
%ADD77C,0.0100*%
%ADD78C,0.0060*%
%ADD79OC8,0.0317*%
%ADD80C,0.0240*%
%ADD81C,0.0700*%
%ADD82C,0.0160*%
%ADD83C,0.0760*%
%ADD84C,0.0500*%
%ADD85C,0.0120*%
%ADD86C,0.0400*%
%ADD87OC8,0.0475*%
%ADD88C,0.0320*%
%ADD89C,0.0310*%
%ADD90C,0.0000*%
%ADD91C,0.0161*%
%ADD92C,0.0660*%
D10*
X027487Y015122D03*
X027487Y015437D03*
X027487Y015752D03*
X027487Y016067D03*
X027487Y016382D03*
X027487Y016697D03*
X027487Y017012D03*
X027487Y017327D03*
X027487Y017642D03*
X027487Y017957D03*
X027487Y018272D03*
X027487Y018587D03*
X027487Y018902D03*
X027487Y019217D03*
X027487Y019532D03*
X027487Y019847D03*
X033786Y019847D03*
X033786Y019532D03*
X033786Y019217D03*
X033786Y018902D03*
X033786Y018587D03*
X033786Y018272D03*
X033786Y017957D03*
X033786Y017642D03*
X033786Y017327D03*
X033786Y017012D03*
X033786Y016697D03*
X033786Y016382D03*
X033786Y016067D03*
X033786Y015752D03*
X033786Y015437D03*
X033786Y015122D03*
D11*
X032999Y014335D03*
X032684Y014335D03*
X032369Y014335D03*
X032054Y014335D03*
X031739Y014335D03*
X031424Y014335D03*
X031109Y014335D03*
X030794Y014335D03*
X030479Y014335D03*
X030164Y014335D03*
X029849Y014335D03*
X029534Y014335D03*
X029219Y014335D03*
X028904Y014335D03*
X028589Y014335D03*
X028274Y014335D03*
X028274Y020634D03*
X028589Y020634D03*
X028904Y020634D03*
X029219Y020634D03*
X029534Y020634D03*
X029849Y020634D03*
X030164Y020634D03*
X030479Y020634D03*
X030794Y020634D03*
X031109Y020634D03*
X031424Y020634D03*
X031739Y020634D03*
X032054Y020634D03*
X032369Y020634D03*
X032684Y020634D03*
X032999Y020634D03*
D12*
X037123Y012962D03*
X037379Y012962D03*
X037635Y012962D03*
X037891Y012962D03*
X038147Y012962D03*
X038403Y012962D03*
X038659Y012962D03*
X038915Y012962D03*
X039171Y012962D03*
X039426Y012962D03*
X039682Y012962D03*
X039938Y012962D03*
X040194Y012962D03*
X040450Y012962D03*
X040450Y010107D03*
X040194Y010107D03*
X039938Y010107D03*
X039682Y010107D03*
X039426Y010107D03*
X039171Y010107D03*
X038915Y010107D03*
X038659Y010107D03*
X038403Y010107D03*
X038147Y010107D03*
X037891Y010107D03*
X037635Y010107D03*
X037379Y010107D03*
X037123Y010107D03*
D13*
X034237Y013335D03*
X034237Y014634D03*
X041737Y012534D03*
X041737Y011235D03*
D14*
X040537Y008659D03*
X040537Y008010D03*
X035737Y010160D03*
X035737Y010809D03*
X035737Y011710D03*
X035737Y012359D03*
X030387Y002909D03*
X030387Y002260D03*
X021137Y009360D03*
X021137Y010009D03*
X017337Y010060D03*
X017337Y010709D03*
X017337Y011460D03*
X017337Y012109D03*
X017337Y015360D03*
X017337Y016009D03*
X017337Y016760D03*
X017337Y017409D03*
X017337Y020560D03*
X017337Y021209D03*
X017337Y021960D03*
X017337Y022609D03*
X016587Y029610D03*
X016587Y030259D03*
X022187Y030459D03*
X022187Y029810D03*
X024737Y029810D03*
X024737Y030459D03*
X033755Y026527D03*
X033755Y025878D03*
X038432Y026394D03*
X038432Y027043D03*
X040337Y025309D03*
X040337Y024660D03*
X013387Y002909D03*
X013387Y002260D03*
X008037Y024060D03*
X008037Y024709D03*
D15*
X021724Y024274D03*
X023693Y024274D03*
X023693Y022127D03*
X021724Y022127D03*
D16*
X016137Y031335D03*
X003637Y021585D03*
X003637Y013835D03*
X003637Y006085D03*
X012387Y005085D03*
X029387Y005085D03*
X038387Y005085D03*
X040537Y014185D03*
D17*
X039537Y014185D03*
X038537Y014185D03*
X037537Y014185D03*
X037387Y005085D03*
X036387Y005085D03*
X035387Y005085D03*
X034387Y005085D03*
X033387Y005085D03*
X032387Y005085D03*
X031387Y005085D03*
X028387Y005085D03*
X027387Y005085D03*
X026387Y005085D03*
X025387Y005085D03*
X024387Y005085D03*
X023387Y005085D03*
X022387Y005085D03*
X021387Y005085D03*
X020387Y005085D03*
X019387Y005085D03*
X018387Y005085D03*
X017387Y005085D03*
X016387Y005085D03*
X015387Y005085D03*
X014387Y005085D03*
X011387Y005085D03*
X010387Y005085D03*
X009387Y005085D03*
X003637Y007085D03*
X003637Y008085D03*
X003637Y009085D03*
X003637Y010085D03*
X003637Y011085D03*
X003637Y014835D03*
X003637Y015835D03*
X003637Y016835D03*
X003637Y017835D03*
X003637Y018835D03*
X003637Y022585D03*
X003637Y023585D03*
X003637Y024585D03*
X003637Y025585D03*
X003637Y026585D03*
X017137Y031335D03*
X018137Y031335D03*
X019137Y031335D03*
X020137Y031335D03*
X021137Y031335D03*
X022137Y031335D03*
X023137Y031335D03*
X024137Y031335D03*
X025137Y031335D03*
X026137Y031335D03*
X027137Y031335D03*
X028137Y031335D03*
X029137Y031335D03*
D18*
X004637Y026880D03*
X004637Y026289D03*
X004637Y025780D03*
X004637Y025189D03*
X004637Y022980D03*
X004637Y022389D03*
X004637Y021880D03*
X004637Y021289D03*
X004637Y019130D03*
X004637Y018539D03*
X004637Y018030D03*
X004637Y017439D03*
X004637Y015230D03*
X004637Y014639D03*
X004637Y014130D03*
X004637Y013539D03*
X004637Y011380D03*
X004637Y010789D03*
X004637Y010280D03*
X004637Y009689D03*
X004637Y007480D03*
X004637Y006889D03*
X004637Y006380D03*
X004637Y005789D03*
X040341Y001835D03*
X040932Y001835D03*
X042591Y001835D03*
X043182Y001835D03*
D19*
X031387Y003085D03*
X014387Y003085D03*
X009387Y003085D03*
D20*
X010387Y003085D03*
X011387Y003085D03*
X011387Y002085D03*
X010387Y002085D03*
X009387Y002085D03*
X012387Y002085D03*
X012387Y003085D03*
X014387Y002085D03*
X015387Y002085D03*
X015387Y003085D03*
X016387Y003085D03*
X017387Y003085D03*
X018387Y003085D03*
X019387Y003085D03*
X020387Y003085D03*
X020387Y002085D03*
X019387Y002085D03*
X018387Y002085D03*
X017387Y002085D03*
X016387Y002085D03*
X021387Y002085D03*
X021387Y003085D03*
X022387Y003085D03*
X023387Y003085D03*
X024387Y003085D03*
X025387Y003085D03*
X026387Y003085D03*
X027387Y003085D03*
X028387Y003085D03*
X029387Y003085D03*
X029387Y002085D03*
X028387Y002085D03*
X027387Y002085D03*
X026387Y002085D03*
X025387Y002085D03*
X024387Y002085D03*
X023387Y002085D03*
X022387Y002085D03*
X031387Y002085D03*
X032387Y002085D03*
X032387Y003085D03*
X033387Y003085D03*
X034387Y003085D03*
X035387Y003085D03*
X036387Y003085D03*
X037387Y003085D03*
X038387Y003085D03*
X038387Y002085D03*
X037387Y002085D03*
X036387Y002085D03*
X035387Y002085D03*
X034387Y002085D03*
X033387Y002085D03*
D21*
X009637Y025585D03*
X008637Y030585D03*
X038239Y031329D03*
D22*
X010637Y030585D03*
X009637Y030585D03*
X009637Y029585D03*
X010637Y029585D03*
X010637Y028585D03*
X009637Y028585D03*
X008637Y028585D03*
X008637Y029585D03*
X008637Y027585D03*
X009637Y027585D03*
X010637Y027585D03*
X010637Y026585D03*
X009637Y026585D03*
X008637Y026585D03*
X008637Y025585D03*
X010637Y025585D03*
D23*
X013388Y007830D03*
X013388Y007574D03*
X013388Y007318D03*
X013388Y007063D03*
X013388Y006807D03*
X013388Y006551D03*
X013388Y006295D03*
X013388Y006039D03*
X015685Y006039D03*
X015685Y006295D03*
X015685Y006551D03*
X015685Y006807D03*
X015685Y007063D03*
X015685Y007318D03*
X015685Y007574D03*
X015685Y007830D03*
D24*
X041337Y026985D03*
X043337Y026985D03*
D25*
X006137Y004085D03*
X006137Y029085D03*
X041637Y004085D03*
D26*
X016971Y013085D03*
X016302Y013085D03*
X016302Y018385D03*
X016971Y018385D03*
X016971Y023585D03*
X016302Y023585D03*
X007471Y018785D03*
X006802Y018785D03*
X003971Y019835D03*
X003302Y019835D03*
X003302Y020585D03*
X003971Y020585D03*
X003971Y027585D03*
X003302Y027585D03*
X017302Y030435D03*
X017971Y030435D03*
X019202Y030435D03*
X019871Y030435D03*
X039102Y022485D03*
X039771Y022485D03*
X007471Y013585D03*
X006802Y013585D03*
X003971Y012835D03*
X003302Y012835D03*
X003302Y012085D03*
X003971Y012085D03*
X003971Y005085D03*
X003302Y005085D03*
D27*
X016637Y010150D03*
X016637Y010819D03*
X016637Y011350D03*
X016637Y012019D03*
X016637Y015450D03*
X016637Y016119D03*
X016637Y016650D03*
X016637Y017319D03*
X018537Y020450D03*
X019237Y020450D03*
X019237Y021119D03*
X018537Y021119D03*
X016637Y021319D03*
X016637Y021850D03*
X016637Y022519D03*
X017887Y023250D03*
X018537Y023250D03*
X018537Y023919D03*
X017887Y023919D03*
X016637Y020650D03*
X025637Y014119D03*
X025637Y013450D03*
X037537Y015100D03*
X037537Y015769D03*
X043637Y003919D03*
X043637Y003250D03*
X044337Y003250D03*
X044337Y003919D03*
X015887Y029700D03*
X015887Y030369D03*
X006637Y024769D03*
X006637Y024100D03*
D28*
X009712Y024085D03*
X010361Y024085D03*
X014312Y024085D03*
X014961Y024085D03*
X020512Y029085D03*
X021161Y029085D03*
X023662Y027985D03*
X024311Y027985D03*
X028912Y023935D03*
X029561Y023935D03*
X031812Y023935D03*
X032461Y023935D03*
X035812Y023985D03*
X036461Y023985D03*
X039112Y023185D03*
X039761Y023185D03*
X040062Y015135D03*
X040711Y015135D03*
X033061Y013585D03*
X032412Y013585D03*
X030561Y013385D03*
X029912Y013385D03*
X030712Y006685D03*
X031361Y006685D03*
X022261Y004085D03*
X021612Y004085D03*
X020511Y009135D03*
X019862Y009135D03*
X013961Y013585D03*
X013312Y013585D03*
X010361Y013585D03*
X009712Y013585D03*
X009712Y018785D03*
X010361Y018785D03*
X013312Y018785D03*
X013961Y018785D03*
D29*
X019645Y018863D03*
X019645Y019059D03*
X019645Y019256D03*
X019645Y019453D03*
X019645Y019650D03*
X019645Y019847D03*
X019645Y018666D03*
X019645Y018469D03*
X019645Y018272D03*
X019645Y018075D03*
X019645Y017878D03*
X019645Y017681D03*
X019645Y017485D03*
X019645Y017288D03*
X019645Y017091D03*
X019645Y016894D03*
X019645Y016697D03*
X019645Y016500D03*
X019645Y016303D03*
X019645Y016107D03*
X019645Y015910D03*
X019645Y015713D03*
X019645Y015516D03*
X019645Y015319D03*
X019645Y015122D03*
X025629Y015122D03*
X025629Y015319D03*
X025629Y015516D03*
X025629Y015713D03*
X025629Y015910D03*
X025629Y016107D03*
X025629Y016303D03*
X025629Y016500D03*
X025629Y016697D03*
X025629Y016894D03*
X025629Y017091D03*
X025629Y017288D03*
X025629Y017485D03*
X025629Y017681D03*
X025629Y017878D03*
X025629Y018075D03*
X025629Y018272D03*
X025629Y018469D03*
X025629Y018666D03*
X025629Y018863D03*
X025629Y019059D03*
X025629Y019256D03*
X025629Y019453D03*
X025629Y019650D03*
X025629Y019847D03*
D30*
X024999Y020477D03*
X024802Y020477D03*
X024605Y020477D03*
X024408Y020477D03*
X024211Y020477D03*
X024015Y020477D03*
X023818Y020477D03*
X023621Y020477D03*
X023424Y020477D03*
X023227Y020477D03*
X023030Y020477D03*
X022834Y020477D03*
X022637Y020477D03*
X022440Y020477D03*
X022243Y020477D03*
X022046Y020477D03*
X021849Y020477D03*
X021652Y020477D03*
X021456Y020477D03*
X021259Y020477D03*
X021062Y020477D03*
X020865Y020477D03*
X020668Y020477D03*
X020471Y020477D03*
X020274Y020477D03*
X020274Y014492D03*
X020471Y014492D03*
X020668Y014492D03*
X020865Y014492D03*
X021062Y014492D03*
X021259Y014492D03*
X021456Y014492D03*
X021652Y014492D03*
X021849Y014492D03*
X022046Y014492D03*
X022243Y014492D03*
X022440Y014492D03*
X022637Y014492D03*
X022834Y014492D03*
X023030Y014492D03*
X023227Y014492D03*
X023424Y014492D03*
X023621Y014492D03*
X023818Y014492D03*
X024015Y014492D03*
X024211Y014492D03*
X024408Y014492D03*
X024605Y014492D03*
X024802Y014492D03*
X024999Y014492D03*
D31*
X044137Y014077D03*
X044137Y018092D03*
D32*
X041774Y017069D03*
X041774Y015100D03*
X042695Y021610D03*
X043679Y021610D03*
X043679Y023185D03*
X042695Y023185D03*
X042695Y024759D03*
X043679Y024759D03*
D33*
X031487Y012215D03*
X030987Y012215D03*
X030487Y012215D03*
X029987Y012215D03*
X029487Y012215D03*
X028987Y012215D03*
X028487Y012215D03*
X027987Y012215D03*
X027487Y012215D03*
X026987Y012215D03*
X026487Y012215D03*
X025987Y012215D03*
X025487Y012215D03*
X024987Y012215D03*
X024987Y007955D03*
X025487Y007955D03*
X025987Y007955D03*
X026487Y007955D03*
X026987Y007955D03*
X027487Y007955D03*
X027987Y007955D03*
X028487Y007955D03*
X028987Y007955D03*
X029487Y007955D03*
X029987Y007955D03*
X030487Y007955D03*
X030987Y007955D03*
X031487Y007955D03*
D34*
X032429Y010236D03*
X032685Y010236D03*
X032941Y010236D03*
X033197Y010236D03*
X033453Y010236D03*
X033709Y010236D03*
X033965Y010236D03*
X034221Y010236D03*
X034476Y010236D03*
X034732Y010236D03*
X034988Y010236D03*
X035244Y010236D03*
X035244Y012533D03*
X034988Y012533D03*
X034732Y012533D03*
X034476Y012533D03*
X034221Y012533D03*
X033965Y012533D03*
X033709Y012533D03*
X033453Y012533D03*
X033197Y012533D03*
X032941Y012533D03*
X032685Y012533D03*
X032429Y012533D03*
D35*
X036430Y015766D03*
D36*
X035643Y015766D03*
X035643Y014978D03*
X036430Y014978D03*
X036430Y014191D03*
X035643Y014191D03*
X035643Y013403D03*
X036430Y013403D03*
D37*
X041137Y022334D03*
X041137Y023535D03*
D38*
X024237Y008308D03*
X023737Y008308D03*
X023237Y008308D03*
X022737Y008308D03*
X022237Y008308D03*
X021737Y008308D03*
X021237Y008308D03*
X020737Y008308D03*
X019987Y008308D03*
X019487Y008308D03*
X018987Y008308D03*
X018487Y008308D03*
X017987Y008308D03*
X017487Y008308D03*
X016987Y008308D03*
X016487Y008308D03*
X016487Y006261D03*
X016987Y006261D03*
X017487Y006261D03*
X017987Y006261D03*
X018487Y006261D03*
X018987Y006261D03*
X019487Y006261D03*
X019987Y006261D03*
X020737Y006261D03*
X021237Y006261D03*
X021737Y006261D03*
X022237Y006261D03*
X022737Y006261D03*
X023237Y006261D03*
X023737Y006261D03*
X024237Y006261D03*
D39*
X038504Y015161D03*
X039370Y015535D03*
X038504Y015909D03*
D40*
X041831Y009214D03*
X041831Y008900D03*
X041831Y008585D03*
X041831Y008270D03*
X041831Y007955D03*
D41*
X041949Y006931D03*
X044036Y006931D03*
X044036Y010238D03*
X041949Y010238D03*
D42*
X014350Y031085D03*
X012224Y031085D03*
D43*
X032656Y008770D03*
X032656Y006999D03*
X035018Y006999D03*
X035018Y008770D03*
X037156Y008770D03*
X037156Y006999D03*
X039518Y006999D03*
X039518Y008770D03*
D44*
X015637Y009325D02*
X015637Y009845D01*
X014637Y009845D02*
X014637Y009325D01*
X013637Y009325D02*
X013637Y009845D01*
X012637Y009845D02*
X012637Y009325D01*
X011637Y009325D02*
X011637Y009845D01*
X010637Y009845D02*
X010637Y009325D01*
X009637Y009325D02*
X009637Y009845D01*
X008637Y009845D02*
X008637Y009325D01*
X007637Y009325D02*
X007637Y009845D01*
X006637Y009845D02*
X006637Y009325D01*
X006637Y012325D02*
X006637Y012845D01*
X007637Y012845D02*
X007637Y012325D01*
X008637Y012325D02*
X008637Y012845D01*
X009637Y012845D02*
X009637Y012325D01*
X010637Y012325D02*
X010637Y012845D01*
X011637Y012845D02*
X011637Y012325D01*
X012637Y012325D02*
X012637Y012845D01*
X013637Y012845D02*
X013637Y012325D01*
X014637Y012325D02*
X014637Y012845D01*
X015637Y012845D02*
X015637Y012325D01*
X015637Y014575D02*
X015637Y015095D01*
X014637Y015095D02*
X014637Y014575D01*
X013637Y014575D02*
X013637Y015095D01*
X012637Y015095D02*
X012637Y014575D01*
X011637Y014575D02*
X011637Y015095D01*
X010637Y015095D02*
X010637Y014575D01*
X009637Y014575D02*
X009637Y015095D01*
X008637Y015095D02*
X008637Y014575D01*
X007637Y014575D02*
X007637Y015095D01*
X006637Y015095D02*
X006637Y014575D01*
X006637Y017575D02*
X006637Y018095D01*
X007637Y018095D02*
X007637Y017575D01*
X008637Y017575D02*
X008637Y018095D01*
X009637Y018095D02*
X009637Y017575D01*
X010637Y017575D02*
X010637Y018095D01*
X011637Y018095D02*
X011637Y017575D01*
X012637Y017575D02*
X012637Y018095D01*
X013637Y018095D02*
X013637Y017575D01*
X014637Y017575D02*
X014637Y018095D01*
X015637Y018095D02*
X015637Y017575D01*
X015637Y019825D02*
X015637Y020345D01*
X014637Y020345D02*
X014637Y019825D01*
X013637Y019825D02*
X013637Y020345D01*
X012637Y020345D02*
X012637Y019825D01*
X011637Y019825D02*
X011637Y020345D01*
X010637Y020345D02*
X010637Y019825D01*
X009637Y019825D02*
X009637Y020345D01*
X008637Y020345D02*
X008637Y019825D01*
X007637Y019825D02*
X007637Y020345D01*
X006637Y020345D02*
X006637Y019825D01*
X006637Y022825D02*
X006637Y023345D01*
X007637Y023345D02*
X007637Y022825D01*
X008637Y022825D02*
X008637Y023345D01*
X009637Y023345D02*
X009637Y022825D01*
X010637Y022825D02*
X010637Y023345D01*
X011637Y023345D02*
X011637Y022825D01*
X012637Y022825D02*
X012637Y023345D01*
X013637Y023345D02*
X013637Y022825D01*
X014637Y022825D02*
X014637Y023345D01*
X015637Y023345D02*
X015637Y022825D01*
D45*
X028737Y022585D03*
X032537Y022585D03*
D46*
X019003Y026785D03*
X017271Y026785D03*
D47*
X023613Y027196D03*
X023987Y027196D03*
X024361Y027196D03*
X024361Y026173D03*
X023613Y026173D03*
D48*
X022638Y026385D03*
X021536Y026385D03*
X022386Y028885D03*
X023488Y028885D03*
D49*
X037630Y024568D03*
X037630Y024313D03*
X037630Y024057D03*
X037630Y023801D03*
X039344Y023801D03*
X039344Y024057D03*
X039344Y024313D03*
X039344Y024568D03*
D50*
X038487Y024185D03*
D51*
X035127Y019035D03*
D52*
X037313Y019330D03*
X037313Y019920D03*
X037313Y018739D03*
X037313Y018149D03*
D53*
X038187Y018083D03*
X038187Y019186D03*
D54*
X040287Y018772D03*
X040287Y020898D03*
D55*
X023949Y029761D03*
X023949Y030135D03*
X023949Y030509D03*
X022925Y030509D03*
X022925Y029761D03*
D56*
X037587Y022885D03*
D57*
X038517Y022875D03*
D58*
X035820Y024735D03*
X034954Y024735D03*
X011970Y024135D03*
X011104Y024135D03*
X007337Y024001D03*
X007337Y024868D03*
D59*
X035687Y022961D03*
X035687Y021308D03*
D60*
X037486Y021535D03*
X038687Y021535D03*
D61*
X019560Y028335D03*
X019560Y028835D03*
X019560Y029335D03*
X019560Y029835D03*
X017513Y029835D03*
X017513Y029335D03*
X017513Y028835D03*
X017513Y028335D03*
D62*
X018537Y029085D03*
D63*
X015955Y026985D03*
X012018Y026985D03*
D64*
X039437Y003094D03*
X039437Y001975D03*
D65*
X042006Y020822D03*
X044368Y020822D03*
X044368Y025547D03*
X042006Y025547D03*
D66*
X037239Y031329D03*
X036239Y031329D03*
X035239Y031329D03*
X034239Y031329D03*
X033239Y031329D03*
X032239Y031329D03*
X031239Y031329D03*
D67*
X036029Y026772D03*
X036029Y026516D03*
X036029Y026260D03*
X036029Y026004D03*
X037811Y026004D03*
X037811Y026260D03*
X037811Y026516D03*
X037811Y026772D03*
D68*
X035483Y026770D03*
X034944Y026770D03*
X034357Y026435D03*
X034944Y026258D03*
X035483Y026258D03*
X034357Y025923D03*
D69*
X039334Y027002D03*
X039334Y028104D03*
D70*
X028558Y027840D03*
X028558Y025833D03*
D71*
X031184Y026963D03*
D72*
X032082Y029837D03*
X030286Y029837D03*
D73*
X035369Y028872D03*
X038282Y028872D03*
D74*
X033822Y028915D03*
D75*
X034072Y027409D03*
X034572Y027409D03*
X033572Y027409D03*
X033072Y027409D03*
D76*
X040535Y029344D03*
X041786Y030845D03*
X043397Y029354D03*
D77*
X037453Y024568D02*
X037237Y024785D01*
X037453Y024568D02*
X037630Y024568D01*
X037237Y024057D02*
X036559Y024057D01*
X036487Y023985D01*
X036461Y023985D01*
X035812Y023985D02*
X035812Y024660D01*
X035837Y024660D01*
X035887Y024735D01*
X035837Y024735D01*
X035820Y024735D01*
X035837Y024735D02*
X035887Y024785D01*
X036437Y024785D01*
X035887Y024735D02*
X035812Y024660D01*
X035172Y025300D02*
X035137Y025335D01*
X035137Y025385D01*
X035222Y025370D02*
X035237Y025385D01*
X035037Y025385D02*
X035037Y025335D01*
X034954Y025251D01*
X034954Y024735D01*
X032461Y023935D02*
X032461Y022660D01*
X032537Y022585D02*
X031487Y022585D01*
X031109Y022207D01*
X031109Y020634D01*
X030794Y020634D02*
X030794Y022227D01*
X030437Y022585D01*
X029087Y022585D01*
X028912Y022760D02*
X028912Y023935D01*
X029561Y023935D02*
X030837Y023935D01*
X031812Y023935D01*
X030837Y023935D01*
X030813Y024749D02*
X024157Y024710D01*
X024737Y024435D02*
X024737Y022235D01*
X023837Y021335D01*
X023537Y021335D01*
X023387Y021185D01*
X022237Y021085D02*
X022237Y021435D01*
X021937Y021735D01*
X021437Y021735D01*
X021187Y021985D01*
X021187Y022485D01*
X021537Y022835D01*
X021724Y023022D01*
X021724Y024274D01*
X020737Y024485D02*
X020637Y024385D01*
X020637Y021985D01*
X021037Y021585D01*
X021037Y021085D01*
X021259Y020863D01*
X021259Y020477D01*
X022046Y020477D02*
X022046Y020894D01*
X022237Y021085D01*
X022046Y020477D02*
X022046Y019894D01*
X022037Y019885D01*
X023037Y019685D02*
X023337Y019385D01*
X024037Y019385D01*
X024137Y019485D01*
X024137Y019885D01*
X025059Y018863D02*
X025629Y018863D01*
X026159Y018863D01*
X026437Y018585D01*
X029537Y014285D02*
X029537Y013885D01*
X029637Y013785D01*
X030937Y013785D01*
X030937Y013385D01*
X031937Y013385D01*
X032137Y013185D01*
X032837Y013185D01*
X033037Y013385D01*
X033037Y013485D01*
X033061Y013585D02*
X033437Y013585D01*
X033637Y013785D01*
X035037Y013785D01*
X035244Y013577D01*
X035244Y012533D01*
X035244Y011927D01*
X035437Y011735D01*
X035687Y011735D01*
X035737Y011685D02*
X035737Y010809D01*
X036637Y012035D02*
X036637Y013185D01*
X036430Y013391D01*
X037437Y012435D02*
X037237Y012235D01*
X037237Y012035D01*
X037437Y012435D02*
X037637Y012435D01*
X037641Y012430D02*
X037891Y012430D01*
X038937Y012430D01*
X039682Y012430D01*
X039687Y012435D02*
X039687Y012335D01*
X039587Y012235D01*
X039587Y012035D01*
X040437Y012035D01*
X040787Y011685D01*
X040787Y009235D01*
X040537Y008985D01*
X040537Y008635D01*
X040487Y008635D02*
X039937Y008085D01*
X039937Y007185D01*
X043637Y003285D02*
X043637Y003250D01*
X044337Y003250D02*
X044337Y003285D01*
X040387Y001835D02*
X040341Y001835D01*
X030387Y002260D02*
X029562Y002260D01*
X029387Y002085D01*
X030387Y002909D02*
X030387Y003085D01*
X030387Y003135D01*
X030287Y006485D02*
X029537Y006485D01*
X030287Y006485D02*
X030512Y006710D01*
X030712Y006685D01*
X024237Y008308D02*
X024237Y008835D01*
X024187Y008885D01*
X021787Y008885D01*
X021737Y008835D01*
X021737Y008308D01*
X021237Y008308D02*
X021237Y007835D01*
X021137Y007735D01*
X020687Y007735D01*
X020437Y007485D01*
X020437Y007035D01*
X020287Y006885D01*
X017437Y006885D01*
X017337Y006985D01*
X017337Y007335D01*
X016987Y007685D01*
X016887Y007585D01*
X016087Y007585D01*
X016037Y007535D01*
X015987Y007585D01*
X015687Y007585D01*
X015685Y007574D02*
X014176Y007574D01*
X014137Y007535D01*
X014137Y006535D01*
X013887Y006285D01*
X013387Y006285D01*
X013337Y006285D02*
X013137Y006285D01*
X012937Y006085D01*
X011437Y006085D01*
X010837Y005485D01*
X010837Y003085D01*
X012387Y002085D02*
X012562Y002260D01*
X013387Y002260D01*
X013387Y002909D02*
X013387Y003085D01*
X015685Y006039D02*
X015991Y006039D01*
X016037Y006085D01*
X016037Y007535D01*
X016510Y008308D02*
X016987Y008308D01*
X016987Y007685D01*
X017487Y007835D02*
X017487Y008308D01*
X017487Y007835D02*
X018137Y007185D01*
X018237Y007085D01*
X019937Y007085D01*
X019987Y007135D01*
X019987Y008308D01*
X019987Y008835D01*
X019862Y008959D01*
X019862Y009135D02*
X019862Y009460D01*
X019887Y009485D02*
X019137Y010235D01*
X019137Y013085D01*
X019187Y013135D01*
X019887Y009485D02*
X021037Y009485D01*
X021137Y009385D02*
X021437Y009385D01*
X021537Y009285D01*
X021537Y009035D01*
X021737Y008835D01*
X021237Y008308D02*
X020760Y008308D01*
X020563Y008308D02*
X020487Y008385D01*
X020487Y009135D01*
X014137Y007535D02*
X014097Y007574D01*
X013876Y007574D01*
X006802Y013585D02*
X006737Y013585D01*
X004637Y015185D02*
X004637Y015230D01*
X003337Y012885D02*
X003302Y012850D01*
X003302Y012835D01*
X003937Y012835D02*
X003971Y012835D01*
X003971Y012085D02*
X003937Y012085D01*
X003937Y011985D01*
X004537Y011385D02*
X004637Y011380D01*
X004637Y010789D02*
X004537Y010785D01*
X004537Y009685D02*
X004637Y009689D01*
X004637Y005789D02*
X004637Y005785D01*
X004637Y017439D02*
X004637Y017485D01*
X004637Y019130D02*
X004637Y019185D01*
X003937Y019785D02*
X003937Y019835D01*
X003971Y019835D01*
X003337Y019785D02*
X003302Y019819D01*
X003302Y019835D01*
X003302Y020585D02*
X003337Y020585D01*
X003937Y020585D02*
X003971Y020585D01*
X004537Y021285D02*
X004541Y021289D01*
X004637Y023585D02*
X005637Y023585D01*
X005587Y023535D01*
X004637Y026880D02*
X004637Y026885D01*
X016637Y022519D02*
X016637Y022485D01*
X022638Y026385D02*
X023187Y026385D01*
X023387Y026585D01*
X024287Y026585D01*
X024361Y026511D01*
X024361Y026173D01*
X024709Y026173D01*
X024733Y026149D01*
X022337Y028785D02*
X021787Y028785D01*
X022337Y028785D02*
X022437Y028885D01*
X022425Y028923D02*
X022387Y028885D01*
X022386Y028885D01*
X024737Y029685D02*
X024713Y029761D01*
X024737Y029785D01*
X036587Y019835D02*
X036587Y018235D01*
X036637Y018185D01*
X037037Y018185D01*
X037073Y018149D01*
X037313Y018149D01*
X037313Y019920D02*
X036673Y019920D01*
X036587Y019835D01*
X039771Y022485D02*
X039771Y023150D01*
X039737Y023185D01*
X039761Y023185D01*
X039687Y023585D02*
X039237Y023585D01*
X039137Y023485D01*
X039137Y023235D01*
X039112Y023210D01*
X039112Y023185D01*
X039687Y023585D02*
X039787Y023685D01*
X039370Y015535D02*
X039370Y014951D01*
X039537Y014785D01*
X040087Y014785D01*
X040087Y015135D01*
X040062Y015135D01*
X040087Y014785D02*
X040337Y014785D01*
X040537Y014585D01*
X040537Y014185D01*
X041287Y014185D01*
X041774Y014672D01*
X041774Y015100D01*
X033037Y013685D02*
X032937Y013685D01*
X032684Y013937D01*
X032684Y014335D01*
X032412Y013585D02*
X032437Y013485D01*
X031937Y013385D02*
X031937Y013685D01*
X030937Y013385D02*
X030561Y013385D01*
X030537Y013385D01*
D78*
X029912Y013385D02*
X029737Y013385D01*
X029837Y012885D02*
X028437Y012885D01*
X028487Y012215D02*
X028517Y012185D01*
X028537Y012185D01*
X028537Y011485D01*
X029037Y011485D02*
X029037Y012085D01*
X028987Y012215D01*
X029487Y012215D02*
X029507Y012215D01*
X029537Y012185D01*
X029537Y011585D01*
X029637Y011485D01*
X030137Y011185D02*
X027387Y011185D01*
X026987Y010785D01*
X026337Y010785D01*
X025937Y011185D01*
X023937Y011185D01*
X023237Y011885D01*
X022337Y011885D01*
X021587Y012635D01*
X021087Y012635D01*
X020687Y013035D01*
X020687Y013785D01*
X020587Y013885D01*
X020865Y014106D02*
X020887Y014085D01*
X020887Y013135D01*
X021187Y012835D01*
X021687Y012835D01*
X022487Y012035D01*
X023387Y012035D01*
X024037Y011385D01*
X026087Y011385D01*
X026387Y011085D01*
X026837Y011085D01*
X027037Y010585D02*
X026237Y010585D01*
X025837Y010985D01*
X023837Y010985D01*
X023137Y011685D01*
X022237Y011685D01*
X021537Y012385D01*
X020987Y012385D01*
X020537Y012835D01*
X020537Y013485D01*
X020037Y013985D01*
X020037Y014785D01*
X020187Y014935D01*
X020637Y014935D01*
X020687Y014985D01*
X020687Y015335D01*
X020308Y015713D01*
X019645Y015713D01*
X019645Y015910D02*
X020411Y015910D01*
X020987Y015335D01*
X020987Y015085D01*
X021387Y015085D02*
X021456Y015016D01*
X021456Y014492D01*
X021652Y014492D02*
X021652Y014900D01*
X021687Y014935D01*
X021687Y015385D01*
X021737Y015435D01*
X022037Y015185D02*
X022037Y015785D01*
X021937Y015885D01*
X021737Y015885D01*
X021137Y016185D02*
X020537Y016185D01*
X020415Y016107D01*
X019645Y016107D01*
X019645Y016303D02*
X020156Y016303D01*
X020537Y016685D01*
X021137Y016685D01*
X021137Y016185D02*
X022137Y017185D01*
X022137Y017785D02*
X020837Y017785D01*
X020387Y017785D01*
X020237Y017935D01*
X020237Y018385D01*
X020152Y018469D01*
X019645Y018469D01*
X019645Y018666D02*
X018856Y018666D01*
X018437Y019085D01*
X018037Y019085D01*
X017937Y018985D01*
X017937Y018585D01*
X017737Y018385D01*
X016971Y018385D01*
X016937Y018385D01*
X017137Y017885D02*
X017337Y017685D01*
X017337Y017409D01*
X017637Y017085D02*
X017687Y017135D01*
X017687Y018135D01*
X018037Y018485D01*
X018337Y018485D01*
X018746Y018075D01*
X019645Y018075D01*
X019645Y017878D02*
X018230Y017878D01*
X018037Y017685D01*
X018037Y016885D01*
X017537Y016385D01*
X015837Y016385D01*
X015637Y016185D01*
X015637Y014835D01*
X014637Y014835D02*
X014637Y016485D01*
X015237Y017085D01*
X017637Y017085D01*
X017837Y016985D02*
X017837Y017885D01*
X018137Y018185D01*
X018337Y018785D02*
X018849Y018272D01*
X019645Y018272D01*
X019645Y018666D02*
X020456Y018666D01*
X020537Y018585D01*
X020237Y018985D02*
X020115Y018863D01*
X019645Y018863D01*
X019645Y019059D02*
X018762Y019059D01*
X018137Y019685D01*
X017737Y019685D01*
X017237Y019185D01*
X015237Y019185D01*
X015037Y019385D01*
X008037Y019385D01*
X007637Y019785D01*
X007637Y020085D01*
X006837Y020085D02*
X007737Y019185D01*
X014937Y019185D01*
X015137Y018985D01*
X017337Y018985D01*
X017737Y019385D01*
X017937Y019385D01*
X017637Y019885D02*
X017137Y019385D01*
X015337Y019385D01*
X014637Y020085D01*
X015637Y020085D02*
X016037Y020085D01*
X016337Y019785D01*
X017237Y019785D01*
X017537Y020085D01*
X018337Y020085D01*
X018968Y019453D01*
X019645Y019453D01*
X019645Y019256D02*
X018865Y019256D01*
X018237Y019885D01*
X017637Y019885D01*
X017337Y020285D02*
X017137Y020085D01*
X017337Y020285D02*
X017337Y020560D01*
X017937Y020435D02*
X017937Y020835D01*
X017587Y021185D01*
X017337Y021185D01*
X017202Y021319D01*
X016637Y021319D01*
X016637Y021850D02*
X017302Y021850D01*
X017337Y021885D01*
X017937Y021885D01*
X018237Y021635D02*
X018237Y023250D01*
X018537Y023250D01*
X018237Y023250D02*
X017902Y023250D01*
X017887Y023235D01*
X017887Y023250D01*
X017337Y022885D02*
X017137Y023085D01*
X017337Y022885D02*
X017337Y022609D01*
X016637Y022519D02*
X016637Y022985D01*
X016971Y023585D02*
X018987Y023585D01*
X019087Y023685D01*
X019437Y023685D01*
X020437Y022685D01*
X020437Y021935D01*
X020837Y021535D01*
X020837Y021035D01*
X021062Y020809D01*
X021062Y020477D01*
X021062Y019610D01*
X021037Y019585D01*
X021259Y019863D02*
X021437Y019685D01*
X021437Y019285D01*
X021259Y019863D02*
X021259Y020477D01*
X021456Y020477D02*
X021456Y021103D01*
X021337Y021235D01*
X021337Y021535D02*
X020837Y022035D01*
X020837Y022585D01*
X020987Y022735D01*
X021235Y022714D02*
X023523Y022714D01*
X023523Y022772D02*
X021235Y022772D01*
X021235Y022831D02*
X023523Y022831D01*
X023523Y022890D02*
X021183Y022890D01*
X021235Y022837D02*
X021090Y022983D01*
X020884Y022983D01*
X020777Y022876D01*
X020777Y024236D01*
X020840Y024236D01*
X021314Y024236D01*
X021314Y024244D02*
X021314Y024080D01*
X021391Y024004D01*
X021695Y024004D01*
X021695Y024244D01*
X021754Y024244D01*
X021754Y024004D01*
X022058Y024004D01*
X022134Y024080D01*
X022134Y024244D01*
X021755Y024244D01*
X021755Y024304D01*
X022134Y024304D01*
X022134Y024468D01*
X022058Y024544D01*
X021754Y024544D01*
X021754Y024304D01*
X021695Y024304D01*
X021695Y024544D01*
X021391Y024544D01*
X021314Y024468D01*
X021314Y024304D01*
X021694Y024304D01*
X021694Y024244D01*
X021314Y024244D01*
X021314Y024178D02*
X020777Y024178D01*
X020777Y024119D02*
X021314Y024119D01*
X021334Y024060D02*
X020777Y024060D01*
X020777Y024002D02*
X023523Y024002D01*
X023523Y024044D02*
X023523Y022364D01*
X023523Y022357D01*
X023376Y022357D01*
X023323Y022304D01*
X023323Y021949D01*
X023376Y021897D01*
X023508Y021897D01*
X023416Y021805D01*
X023207Y021805D01*
X023066Y021805D01*
X022907Y021645D01*
X022907Y021785D01*
X022907Y021884D01*
X022544Y022247D01*
X022445Y022247D01*
X022094Y022247D01*
X022094Y022304D01*
X023323Y022304D01*
X023323Y022246D02*
X022545Y022246D01*
X022604Y022187D02*
X023323Y022187D01*
X023323Y022129D02*
X022662Y022129D01*
X022721Y022070D02*
X023323Y022070D01*
X023323Y022011D02*
X022779Y022011D01*
X022838Y021953D02*
X023323Y021953D01*
X023448Y021836D02*
X022907Y021836D01*
X022907Y021777D02*
X023039Y021777D01*
X022980Y021719D02*
X022907Y021719D01*
X022907Y021660D02*
X022922Y021660D01*
X022787Y021835D02*
X022495Y022127D01*
X021724Y022127D01*
X021354Y022129D02*
X020957Y022129D01*
X020957Y022084D02*
X020957Y022486D01*
X021090Y022486D01*
X021235Y022632D01*
X021235Y022837D01*
X021125Y022948D02*
X023523Y022948D01*
X023523Y023007D02*
X020777Y023007D01*
X020777Y023065D02*
X023523Y023065D01*
X023523Y023124D02*
X020777Y023124D01*
X020777Y023182D02*
X023523Y023182D01*
X023523Y023241D02*
X020777Y023241D01*
X020777Y023299D02*
X023523Y023299D01*
X023523Y023358D02*
X020777Y023358D01*
X020777Y023416D02*
X023523Y023416D01*
X023523Y023475D02*
X020777Y023475D01*
X020777Y023534D02*
X023523Y023534D01*
X023523Y023592D02*
X020777Y023592D01*
X020777Y023651D02*
X023523Y023651D01*
X023523Y023709D02*
X020777Y023709D01*
X020777Y023768D02*
X023523Y023768D01*
X023523Y023826D02*
X020777Y023826D01*
X020777Y023885D02*
X023523Y023885D01*
X023523Y023943D02*
X020777Y023943D01*
X020497Y023943D02*
X018637Y023943D01*
X018637Y023948D02*
X018864Y023948D01*
X018864Y024091D01*
X018787Y024167D01*
X018637Y024167D01*
X018637Y024500D01*
X019043Y024906D01*
X033737Y024906D01*
X033737Y024595D01*
X033203Y024595D01*
X033165Y024632D01*
X032959Y024632D01*
X032921Y024595D01*
X025750Y024595D01*
X025738Y024583D01*
X025684Y024583D01*
X025538Y024437D01*
X025538Y024383D01*
X025477Y024322D01*
X025477Y024148D01*
X025477Y022576D01*
X025438Y022537D01*
X025438Y022332D01*
X025584Y022186D01*
X025790Y022186D01*
X025935Y022332D01*
X025935Y022537D01*
X025897Y022576D01*
X025897Y024093D01*
X025978Y024175D01*
X028627Y024175D01*
X028627Y023682D01*
X028680Y023630D01*
X028772Y023630D01*
X028772Y023025D01*
X027699Y023025D01*
X027647Y022972D01*
X027647Y022197D01*
X027699Y022145D01*
X029774Y022145D01*
X029827Y022197D01*
X029827Y022445D01*
X030379Y022445D01*
X030654Y022169D01*
X030654Y021085D01*
X030338Y021085D01*
X030385Y021132D01*
X030385Y021337D01*
X030263Y021460D01*
X030385Y021582D01*
X030385Y021787D01*
X030240Y021933D01*
X030034Y021933D01*
X029912Y021811D01*
X029790Y021933D01*
X029584Y021933D01*
X029485Y021834D01*
X029485Y021987D01*
X029340Y022133D01*
X029134Y022133D01*
X028988Y021987D01*
X028988Y021806D01*
X028784Y021602D01*
X028784Y021503D01*
X028784Y021085D01*
X028606Y021085D01*
X027307Y022384D01*
X027307Y022803D01*
X027435Y022932D01*
X027435Y023137D01*
X027290Y023283D01*
X027135Y023283D01*
X027135Y023437D01*
X026990Y023583D01*
X026784Y023583D01*
X026638Y023437D01*
X026638Y023283D01*
X026484Y023283D01*
X026338Y023137D01*
X026338Y022932D01*
X026467Y022803D01*
X026467Y022285D01*
X026537Y022215D01*
X026947Y021805D01*
X026887Y021805D01*
X024505Y021805D01*
X024877Y022177D01*
X024877Y022293D01*
X024877Y024223D01*
X024985Y024332D01*
X024985Y024537D01*
X024840Y024683D01*
X024634Y024683D01*
X024488Y024537D01*
X024488Y024332D01*
X024597Y024223D01*
X024597Y022293D01*
X023779Y021475D01*
X023567Y021475D01*
X023757Y021665D01*
X023857Y021764D01*
X023857Y021897D01*
X024010Y021897D01*
X024063Y021949D01*
X024063Y022265D01*
X024105Y022265D01*
X024184Y022186D01*
X024390Y022186D01*
X024535Y022332D01*
X024535Y022537D01*
X024390Y022683D01*
X024184Y022683D01*
X024105Y022605D01*
X023863Y022605D01*
X023863Y024044D01*
X024010Y024044D01*
X024063Y024097D01*
X024063Y024451D01*
X024010Y024504D01*
X023376Y024504D01*
X023323Y024451D01*
X023323Y024097D01*
X023376Y024044D01*
X023523Y024044D01*
X023359Y024060D02*
X022115Y024060D01*
X022134Y024119D02*
X023323Y024119D01*
X023323Y024178D02*
X022134Y024178D01*
X022134Y024236D02*
X023323Y024236D01*
X023323Y024295D02*
X021755Y024295D01*
X021754Y024353D02*
X021695Y024353D01*
X021694Y024295D02*
X020898Y024295D01*
X020957Y024353D02*
X021314Y024353D01*
X021314Y024412D02*
X020985Y024412D01*
X020985Y024382D02*
X020985Y024587D01*
X024538Y024587D01*
X024488Y024529D02*
X022073Y024529D01*
X022132Y024470D02*
X023342Y024470D01*
X023323Y024412D02*
X022134Y024412D01*
X022134Y024353D02*
X023323Y024353D01*
X023687Y024285D02*
X023693Y024278D01*
X023693Y024274D01*
X023863Y024002D02*
X024597Y024002D01*
X024597Y024060D02*
X024027Y024060D01*
X024063Y024119D02*
X024597Y024119D01*
X024597Y024178D02*
X024063Y024178D01*
X024063Y024236D02*
X024584Y024236D01*
X024525Y024295D02*
X024063Y024295D01*
X024063Y024353D02*
X024488Y024353D01*
X024488Y024412D02*
X024063Y024412D01*
X024044Y024470D02*
X024488Y024470D01*
X024597Y024646D02*
X020927Y024646D01*
X020985Y024587D02*
X020840Y024733D01*
X020634Y024733D01*
X020488Y024587D01*
X018724Y024587D01*
X018666Y024529D02*
X020488Y024529D01*
X020488Y024587D02*
X020488Y024382D01*
X020497Y024373D01*
X020497Y022794D01*
X020486Y022805D01*
X019486Y023805D01*
X019387Y023805D01*
X019136Y023805D01*
X019037Y023805D01*
X018937Y023705D01*
X018821Y023705D01*
X018864Y023747D01*
X018864Y023890D01*
X018637Y023890D01*
X018637Y023948D01*
X018537Y023919D02*
X019171Y023919D01*
X019337Y024085D01*
X019523Y023768D02*
X020497Y023768D01*
X020497Y023826D02*
X018864Y023826D01*
X018864Y023768D02*
X019000Y023768D01*
X018942Y023709D02*
X018825Y023709D01*
X018864Y023885D02*
X020497Y023885D01*
X020497Y024002D02*
X018864Y024002D01*
X018864Y024060D02*
X020497Y024060D01*
X020497Y024119D02*
X018836Y024119D01*
X018637Y024178D02*
X020497Y024178D01*
X020497Y024236D02*
X018637Y024236D01*
X018637Y024295D02*
X020497Y024295D01*
X020497Y024353D02*
X018637Y024353D01*
X018637Y024412D02*
X020488Y024412D01*
X020488Y024470D02*
X018637Y024470D01*
X018783Y024646D02*
X020547Y024646D01*
X020605Y024704D02*
X018842Y024704D01*
X018900Y024763D02*
X033737Y024763D01*
X033737Y024821D02*
X018959Y024821D01*
X019017Y024880D02*
X033737Y024880D01*
X033737Y024704D02*
X020868Y024704D01*
X020985Y024529D02*
X021376Y024529D01*
X021317Y024470D02*
X020985Y024470D01*
X020985Y024382D02*
X020840Y024236D01*
X020497Y023709D02*
X019582Y023709D01*
X019640Y023651D02*
X020497Y023651D01*
X020497Y023592D02*
X019699Y023592D01*
X019757Y023534D02*
X020497Y023534D01*
X020497Y023475D02*
X019816Y023475D01*
X019874Y023416D02*
X020497Y023416D01*
X020497Y023358D02*
X019933Y023358D01*
X019992Y023299D02*
X020497Y023299D01*
X020497Y023241D02*
X020050Y023241D01*
X020109Y023182D02*
X020497Y023182D01*
X020497Y023124D02*
X020167Y023124D01*
X020226Y023065D02*
X020497Y023065D01*
X020497Y023007D02*
X020284Y023007D01*
X020343Y022948D02*
X020497Y022948D01*
X020497Y022890D02*
X020401Y022890D01*
X020460Y022831D02*
X020497Y022831D01*
X020486Y022805D02*
X020486Y022805D01*
X020777Y022890D02*
X020790Y022890D01*
X020777Y022948D02*
X020849Y022948D01*
X021235Y022655D02*
X023523Y022655D01*
X023523Y022597D02*
X021200Y022597D01*
X021142Y022538D02*
X023523Y022538D01*
X023523Y022480D02*
X020957Y022480D01*
X020957Y022421D02*
X023523Y022421D01*
X023523Y022363D02*
X020957Y022363D01*
X020957Y022304D02*
X021355Y022304D01*
X021354Y022304D02*
X021354Y021949D01*
X021407Y021897D01*
X022042Y021897D01*
X022094Y021949D01*
X022094Y022007D01*
X022445Y022007D01*
X022569Y021883D01*
X022384Y021883D01*
X022238Y021737D01*
X022238Y021532D01*
X022367Y021403D01*
X022367Y021134D01*
X022317Y021085D01*
X022156Y021085D01*
X022157Y021085D01*
X022157Y021335D01*
X022157Y021434D01*
X022007Y021584D01*
X021936Y021655D01*
X021386Y021655D01*
X020957Y022084D01*
X020971Y022070D02*
X021354Y022070D01*
X021354Y022011D02*
X021029Y022011D01*
X021088Y021953D02*
X021354Y021953D01*
X021205Y021836D02*
X022336Y021836D01*
X022278Y021777D02*
X021264Y021777D01*
X021322Y021719D02*
X022238Y021719D01*
X022238Y021660D02*
X021381Y021660D01*
X021337Y021535D02*
X021887Y021535D01*
X022037Y021385D01*
X022037Y021135D01*
X021849Y020947D01*
X021849Y020477D01*
X021652Y020477D02*
X021652Y021150D01*
X021737Y021235D01*
X022157Y021250D02*
X022367Y021250D01*
X022367Y021192D02*
X022157Y021192D01*
X022157Y021133D02*
X022366Y021133D01*
X022487Y021085D02*
X022243Y020841D01*
X022243Y020477D01*
X022440Y020477D02*
X022440Y019481D01*
X022937Y018985D01*
X024637Y018985D01*
X025137Y019485D01*
X025137Y019885D01*
X025337Y020085D01*
X026437Y020085D01*
X026989Y019532D01*
X027487Y019532D01*
X027989Y019532D01*
X028087Y019435D01*
X029837Y019435D01*
X029937Y019535D01*
X029637Y019835D02*
X029437Y019635D01*
X028187Y019635D01*
X027974Y019847D01*
X027487Y019847D01*
X026974Y019847D01*
X026537Y020285D01*
X025337Y020285D01*
X024937Y019885D01*
X024937Y019585D01*
X024537Y019185D01*
X023037Y019185D01*
X022637Y019585D01*
X022637Y020477D01*
X022834Y020477D02*
X022834Y020838D01*
X022687Y020985D01*
X022687Y021385D01*
X022787Y021485D01*
X022787Y021835D01*
X022897Y021894D02*
X023506Y021894D01*
X023687Y022085D02*
X023693Y022091D01*
X023693Y022127D01*
X023693Y022128D01*
X023687Y022135D01*
X023737Y022135D01*
X023729Y022127D01*
X023857Y021894D02*
X024198Y021894D01*
X024140Y021836D02*
X023857Y021836D01*
X023857Y021777D02*
X024081Y021777D01*
X024023Y021719D02*
X023811Y021719D01*
X023753Y021660D02*
X023964Y021660D01*
X023906Y021602D02*
X023694Y021602D01*
X023636Y021543D02*
X023847Y021543D01*
X023789Y021485D02*
X023577Y021485D01*
X023737Y021135D02*
X023424Y020822D01*
X023424Y020477D01*
X023621Y020477D02*
X023621Y019769D01*
X023537Y019685D01*
X024015Y020007D02*
X024137Y019885D01*
X024015Y020007D02*
X024015Y020477D01*
X024211Y020477D02*
X024211Y020809D01*
X024687Y021285D01*
X026737Y021285D01*
X026837Y021185D01*
X026837Y020685D01*
X026537Y020985D02*
X026437Y021085D01*
X024737Y021085D01*
X024605Y020953D01*
X024605Y020477D01*
X024408Y020477D02*
X024408Y020113D01*
X024637Y019885D01*
X024802Y020477D02*
X024802Y020850D01*
X024887Y020935D01*
X026187Y020935D01*
X027037Y020085D01*
X027287Y020085D01*
X027537Y020335D01*
X027737Y020335D01*
X028037Y020135D02*
X028037Y020885D01*
X026587Y022335D01*
X026587Y023035D01*
X026338Y023007D02*
X025897Y023007D01*
X025897Y023065D02*
X026338Y023065D01*
X026338Y023124D02*
X025897Y023124D01*
X025897Y023182D02*
X026383Y023182D01*
X026442Y023241D02*
X025897Y023241D01*
X025897Y023299D02*
X026638Y023299D01*
X026638Y023358D02*
X025897Y023358D01*
X025897Y023416D02*
X026638Y023416D01*
X026676Y023475D02*
X025897Y023475D01*
X025897Y023534D02*
X026734Y023534D01*
X026887Y023335D02*
X026887Y022335D01*
X028274Y020947D01*
X028274Y020634D01*
X028589Y020634D02*
X028589Y020932D01*
X027187Y022335D01*
X027187Y023035D01*
X027435Y023007D02*
X027682Y023007D01*
X027647Y022948D02*
X027435Y022948D01*
X027393Y022890D02*
X027647Y022890D01*
X027647Y022831D02*
X027335Y022831D01*
X027307Y022772D02*
X027647Y022772D01*
X027647Y022714D02*
X027307Y022714D01*
X027307Y022655D02*
X027647Y022655D01*
X027647Y022597D02*
X027307Y022597D01*
X027307Y022538D02*
X027647Y022538D01*
X027647Y022480D02*
X027307Y022480D01*
X027307Y022421D02*
X027647Y022421D01*
X027647Y022363D02*
X027328Y022363D01*
X027387Y022304D02*
X027647Y022304D01*
X027647Y022246D02*
X027445Y022246D01*
X027504Y022187D02*
X027657Y022187D01*
X027562Y022129D02*
X029129Y022129D01*
X029071Y022070D02*
X027621Y022070D01*
X027679Y022011D02*
X029012Y022011D01*
X028988Y021953D02*
X027738Y021953D01*
X027797Y021894D02*
X028988Y021894D01*
X028988Y021836D02*
X027855Y021836D01*
X027914Y021777D02*
X028960Y021777D01*
X028901Y021719D02*
X027972Y021719D01*
X028031Y021660D02*
X028843Y021660D01*
X028784Y021602D02*
X028089Y021602D01*
X028148Y021543D02*
X028784Y021543D01*
X028784Y021485D02*
X028206Y021485D01*
X028265Y021426D02*
X028784Y021426D01*
X028784Y021367D02*
X028323Y021367D01*
X028382Y021309D02*
X028784Y021309D01*
X028784Y021250D02*
X028441Y021250D01*
X028499Y021192D02*
X028784Y021192D01*
X028784Y021133D02*
X028558Y021133D01*
X028904Y021552D02*
X028904Y020634D01*
X029219Y020634D02*
X029219Y021217D01*
X029387Y021385D01*
X029587Y021385D01*
X029687Y021485D01*
X029687Y021685D01*
X029887Y021836D02*
X029936Y021836D01*
X029995Y021894D02*
X029828Y021894D01*
X029545Y021894D02*
X029485Y021894D01*
X029485Y021836D02*
X029487Y021836D01*
X029485Y021953D02*
X030654Y021953D01*
X030654Y022011D02*
X029461Y022011D01*
X029403Y022070D02*
X030654Y022070D01*
X030654Y022129D02*
X029344Y022129D01*
X029237Y021885D02*
X028904Y021552D01*
X029534Y021082D02*
X030137Y021685D01*
X030385Y021660D02*
X030654Y021660D01*
X030654Y021602D02*
X030385Y021602D01*
X030347Y021543D02*
X030654Y021543D01*
X030654Y021485D02*
X030288Y021485D01*
X030297Y021426D02*
X030654Y021426D01*
X030654Y021367D02*
X030355Y021367D01*
X030385Y021309D02*
X030654Y021309D01*
X030654Y021250D02*
X030385Y021250D01*
X030385Y021192D02*
X030654Y021192D01*
X030654Y021133D02*
X030385Y021133D01*
X030137Y021235D02*
X030037Y021235D01*
X029849Y021047D01*
X029849Y020634D01*
X029534Y020634D02*
X029534Y021082D01*
X030164Y020634D02*
X030164Y020157D01*
X030337Y019985D01*
X030479Y020242D02*
X030737Y019985D01*
X030479Y020242D02*
X030479Y020634D01*
X030934Y021085D02*
X030934Y022169D01*
X030934Y022285D01*
X030577Y022643D01*
X030495Y022725D01*
X029827Y022725D01*
X029827Y022972D01*
X029774Y023025D01*
X029052Y023025D01*
X029052Y023630D01*
X029144Y023630D01*
X029197Y023682D01*
X029197Y024175D01*
X029236Y024175D01*
X029236Y023964D01*
X029531Y023964D01*
X029531Y023905D01*
X029236Y023905D01*
X029236Y023666D01*
X029312Y023590D01*
X029531Y023590D01*
X029531Y023904D01*
X029591Y023904D01*
X029591Y023590D01*
X029810Y023590D01*
X029886Y023666D01*
X029886Y023905D01*
X029591Y023905D01*
X029591Y023964D01*
X029886Y023964D01*
X029886Y024175D01*
X031487Y024175D01*
X031487Y023964D01*
X031782Y023964D01*
X031782Y023905D01*
X031487Y023905D01*
X031487Y023666D01*
X031563Y023590D01*
X031782Y023590D01*
X031782Y023904D01*
X031842Y023904D01*
X031842Y023590D01*
X032061Y023590D01*
X032137Y023666D01*
X032137Y023905D01*
X031842Y023905D01*
X031842Y023964D01*
X032137Y023964D01*
X032137Y024175D01*
X032176Y024175D01*
X032176Y023682D01*
X032229Y023630D01*
X032321Y023630D01*
X032321Y023025D01*
X031499Y023025D01*
X031447Y022972D01*
X031447Y022725D01*
X031429Y022725D01*
X031347Y022643D01*
X030969Y022265D01*
X030969Y022149D01*
X030969Y021085D01*
X030934Y021085D01*
X030934Y021133D02*
X030969Y021133D01*
X030969Y021192D02*
X030934Y021192D01*
X030934Y021250D02*
X030969Y021250D01*
X030969Y021309D02*
X030934Y021309D01*
X030934Y021367D02*
X030969Y021367D01*
X030969Y021426D02*
X030934Y021426D01*
X030934Y021485D02*
X030969Y021485D01*
X030969Y021543D02*
X030934Y021543D01*
X030934Y021602D02*
X030969Y021602D01*
X030969Y021660D02*
X030934Y021660D01*
X030934Y021719D02*
X030969Y021719D01*
X030969Y021777D02*
X030934Y021777D01*
X030934Y021836D02*
X030969Y021836D01*
X030969Y021894D02*
X030934Y021894D01*
X030934Y021953D02*
X030969Y021953D01*
X030969Y022011D02*
X030934Y022011D01*
X030934Y022070D02*
X030969Y022070D01*
X030969Y022129D02*
X030934Y022129D01*
X030934Y022187D02*
X030969Y022187D01*
X030969Y022246D02*
X030934Y022246D01*
X030915Y022304D02*
X031008Y022304D01*
X031067Y022363D02*
X030857Y022363D01*
X030798Y022421D02*
X031125Y022421D01*
X031184Y022480D02*
X030739Y022480D01*
X030681Y022538D02*
X031242Y022538D01*
X031301Y022597D02*
X030622Y022597D01*
X030564Y022655D02*
X031360Y022655D01*
X031418Y022714D02*
X030505Y022714D01*
X030402Y022421D02*
X029827Y022421D01*
X029827Y022363D02*
X030461Y022363D01*
X030519Y022304D02*
X029827Y022304D01*
X029827Y022246D02*
X030578Y022246D01*
X030636Y022187D02*
X029816Y022187D01*
X030278Y021894D02*
X030654Y021894D01*
X030654Y021836D02*
X030337Y021836D01*
X030385Y021777D02*
X030654Y021777D01*
X030654Y021719D02*
X030385Y021719D01*
X031249Y021719D02*
X031824Y021719D01*
X031777Y021672D02*
X031900Y021795D01*
X032200Y022095D01*
X032374Y022095D01*
X033727Y022095D01*
X033727Y024175D01*
X033204Y024175D01*
X033165Y024135D01*
X032959Y024135D01*
X032920Y024175D01*
X032746Y024175D01*
X032746Y023682D01*
X032693Y023630D01*
X032601Y023630D01*
X032601Y023025D01*
X033574Y023025D01*
X033627Y022972D01*
X033627Y022197D01*
X033574Y022145D01*
X031499Y022145D01*
X031447Y022197D01*
X031447Y022347D01*
X031249Y022149D01*
X031249Y021096D01*
X031272Y021118D01*
X031405Y021118D01*
X031405Y021085D01*
X031443Y021085D01*
X031443Y021118D01*
X031569Y021118D01*
X031569Y021257D01*
X031766Y021455D01*
X031777Y021455D01*
X031777Y021672D01*
X031777Y021660D02*
X031249Y021660D01*
X031249Y021602D02*
X031777Y021602D01*
X031777Y021543D02*
X031249Y021543D01*
X031249Y021485D02*
X031777Y021485D01*
X031738Y021426D02*
X031249Y021426D01*
X031249Y021367D02*
X031679Y021367D01*
X031621Y021309D02*
X031249Y021309D01*
X031249Y021250D02*
X031569Y021250D01*
X031569Y021192D02*
X031249Y021192D01*
X031249Y021133D02*
X031569Y021133D01*
X031837Y021285D02*
X031987Y021285D01*
X032369Y021202D02*
X032437Y021285D01*
X032369Y021202D02*
X032369Y020634D01*
X032684Y020634D02*
X032684Y020187D01*
X032487Y019985D01*
X032137Y020085D02*
X032137Y019735D01*
X032137Y020085D02*
X032054Y020167D01*
X032054Y020634D01*
X032999Y020634D02*
X032999Y021172D01*
X032887Y021285D01*
X032117Y022011D02*
X031249Y022011D01*
X031249Y021953D02*
X032058Y021953D01*
X031999Y021894D02*
X031249Y021894D01*
X031249Y021836D02*
X031941Y021836D01*
X031882Y021777D02*
X031249Y021777D01*
X031249Y022070D02*
X032175Y022070D01*
X031457Y022187D02*
X031287Y022187D01*
X031249Y022129D02*
X033727Y022129D01*
X033727Y022187D02*
X033616Y022187D01*
X033627Y022246D02*
X033727Y022246D01*
X033727Y022304D02*
X033627Y022304D01*
X033627Y022363D02*
X033727Y022363D01*
X033727Y022421D02*
X033627Y022421D01*
X033627Y022480D02*
X033727Y022480D01*
X033727Y022538D02*
X033627Y022538D01*
X033627Y022597D02*
X033727Y022597D01*
X033727Y022655D02*
X033627Y022655D01*
X033627Y022714D02*
X033727Y022714D01*
X033727Y022772D02*
X033627Y022772D01*
X033627Y022831D02*
X033727Y022831D01*
X033727Y022890D02*
X033627Y022890D01*
X033627Y022948D02*
X033727Y022948D01*
X033727Y023007D02*
X033592Y023007D01*
X033727Y023065D02*
X032601Y023065D01*
X032601Y023124D02*
X033727Y023124D01*
X033727Y023182D02*
X032601Y023182D01*
X032601Y023241D02*
X033727Y023241D01*
X033727Y023299D02*
X032601Y023299D01*
X032601Y023358D02*
X033727Y023358D01*
X033727Y023416D02*
X032601Y023416D01*
X032601Y023475D02*
X033727Y023475D01*
X033727Y023534D02*
X032601Y023534D01*
X032601Y023592D02*
X033727Y023592D01*
X033727Y023651D02*
X032714Y023651D01*
X032746Y023709D02*
X033727Y023709D01*
X033727Y023768D02*
X032746Y023768D01*
X032746Y023826D02*
X033727Y023826D01*
X033727Y023885D02*
X032746Y023885D01*
X032746Y023943D02*
X033727Y023943D01*
X033727Y024002D02*
X032746Y024002D01*
X032746Y024060D02*
X033727Y024060D01*
X033727Y024119D02*
X032746Y024119D01*
X032487Y023935D02*
X032461Y023935D01*
X032176Y023943D02*
X031842Y023943D01*
X031842Y023885D02*
X031782Y023885D01*
X031782Y023943D02*
X029591Y023943D01*
X029591Y023885D02*
X029531Y023885D01*
X029531Y023943D02*
X029197Y023943D01*
X029197Y023885D02*
X029236Y023885D01*
X029236Y023826D02*
X029197Y023826D01*
X029197Y023768D02*
X029236Y023768D01*
X029236Y023709D02*
X029197Y023709D01*
X029166Y023651D02*
X029251Y023651D01*
X029310Y023592D02*
X029052Y023592D01*
X029052Y023534D02*
X032321Y023534D01*
X032321Y023592D02*
X032064Y023592D01*
X032122Y023651D02*
X032208Y023651D01*
X032176Y023709D02*
X032137Y023709D01*
X032137Y023768D02*
X032176Y023768D01*
X032176Y023826D02*
X032137Y023826D01*
X032137Y023885D02*
X032176Y023885D01*
X032176Y024002D02*
X032137Y024002D01*
X032137Y024060D02*
X032176Y024060D01*
X032176Y024119D02*
X032137Y024119D01*
X031842Y023826D02*
X031782Y023826D01*
X031782Y023768D02*
X031842Y023768D01*
X031842Y023709D02*
X031782Y023709D01*
X031782Y023651D02*
X031842Y023651D01*
X031842Y023592D02*
X031782Y023592D01*
X031561Y023592D02*
X029813Y023592D01*
X029871Y023651D02*
X031502Y023651D01*
X031487Y023709D02*
X029886Y023709D01*
X029886Y023768D02*
X031487Y023768D01*
X031487Y023826D02*
X029886Y023826D01*
X029886Y023885D02*
X031487Y023885D01*
X031487Y024002D02*
X029886Y024002D01*
X029886Y024060D02*
X031487Y024060D01*
X031487Y024119D02*
X029886Y024119D01*
X029591Y023826D02*
X029531Y023826D01*
X029531Y023768D02*
X029591Y023768D01*
X029591Y023709D02*
X029531Y023709D01*
X029531Y023651D02*
X029591Y023651D01*
X029591Y023592D02*
X029531Y023592D01*
X029052Y023475D02*
X032321Y023475D01*
X032321Y023416D02*
X029052Y023416D01*
X029052Y023358D02*
X032321Y023358D01*
X032321Y023299D02*
X029052Y023299D01*
X029052Y023241D02*
X032321Y023241D01*
X032321Y023182D02*
X029052Y023182D01*
X029052Y023124D02*
X032321Y023124D01*
X032321Y023065D02*
X029052Y023065D01*
X028772Y023065D02*
X027435Y023065D01*
X027435Y023124D02*
X028772Y023124D01*
X028772Y023182D02*
X027390Y023182D01*
X027332Y023241D02*
X028772Y023241D01*
X028772Y023299D02*
X027135Y023299D01*
X027135Y023358D02*
X028772Y023358D01*
X028772Y023416D02*
X027135Y023416D01*
X027098Y023475D02*
X028772Y023475D01*
X028772Y023534D02*
X027039Y023534D01*
X026338Y022948D02*
X025897Y022948D01*
X025897Y022890D02*
X026380Y022890D01*
X026439Y022831D02*
X025897Y022831D01*
X025897Y022772D02*
X026467Y022772D01*
X026467Y022714D02*
X025897Y022714D01*
X025897Y022655D02*
X026467Y022655D01*
X026467Y022597D02*
X025897Y022597D01*
X025934Y022538D02*
X026467Y022538D01*
X026467Y022480D02*
X025935Y022480D01*
X025935Y022421D02*
X026467Y022421D01*
X026467Y022363D02*
X025935Y022363D01*
X025908Y022304D02*
X026467Y022304D01*
X026506Y022246D02*
X025849Y022246D01*
X025791Y022187D02*
X026564Y022187D01*
X026623Y022129D02*
X024829Y022129D01*
X024877Y022187D02*
X025583Y022187D01*
X025524Y022246D02*
X024877Y022246D01*
X024877Y022304D02*
X025466Y022304D01*
X025438Y022363D02*
X024877Y022363D01*
X024877Y022421D02*
X025438Y022421D01*
X025438Y022480D02*
X024877Y022480D01*
X024877Y022538D02*
X025439Y022538D01*
X025477Y022597D02*
X024877Y022597D01*
X024877Y022655D02*
X025477Y022655D01*
X025477Y022714D02*
X024877Y022714D01*
X024877Y022772D02*
X025477Y022772D01*
X025477Y022831D02*
X024877Y022831D01*
X024877Y022890D02*
X025477Y022890D01*
X025477Y022948D02*
X024877Y022948D01*
X024877Y023007D02*
X025477Y023007D01*
X025477Y023065D02*
X024877Y023065D01*
X024877Y023124D02*
X025477Y023124D01*
X025477Y023182D02*
X024877Y023182D01*
X024877Y023241D02*
X025477Y023241D01*
X025477Y023299D02*
X024877Y023299D01*
X024877Y023358D02*
X025477Y023358D01*
X025477Y023416D02*
X024877Y023416D01*
X024877Y023475D02*
X025477Y023475D01*
X025477Y023534D02*
X024877Y023534D01*
X024877Y023592D02*
X025477Y023592D01*
X025477Y023651D02*
X024877Y023651D01*
X024877Y023709D02*
X025477Y023709D01*
X025477Y023768D02*
X024877Y023768D01*
X024877Y023826D02*
X025477Y023826D01*
X025477Y023885D02*
X024877Y023885D01*
X024877Y023943D02*
X025477Y023943D01*
X025477Y024002D02*
X024877Y024002D01*
X024877Y024060D02*
X025477Y024060D01*
X025477Y024119D02*
X024877Y024119D01*
X024877Y024178D02*
X025477Y024178D01*
X025477Y024236D02*
X024890Y024236D01*
X024948Y024295D02*
X025477Y024295D01*
X025508Y024353D02*
X024985Y024353D01*
X024985Y024412D02*
X025538Y024412D01*
X025571Y024470D02*
X024985Y024470D01*
X024985Y024529D02*
X025629Y024529D01*
X025743Y024587D02*
X024935Y024587D01*
X024877Y024646D02*
X033737Y024646D01*
X034287Y024646D02*
X034644Y024646D01*
X034644Y024704D02*
X034287Y024704D01*
X034287Y024763D02*
X034644Y024763D01*
X034644Y024821D02*
X034287Y024821D01*
X034287Y024846D02*
X034564Y024846D01*
X034644Y024846D01*
X034644Y024512D01*
X034731Y024425D01*
X035176Y024425D01*
X035264Y024512D01*
X035264Y024885D01*
X035510Y024885D01*
X035510Y024512D01*
X035598Y024425D01*
X035612Y024425D01*
X035612Y024350D01*
X035555Y024350D01*
X035467Y024262D01*
X035467Y023707D01*
X035555Y023620D01*
X036069Y023620D01*
X036137Y023687D01*
X036204Y023620D01*
X036718Y023620D01*
X036806Y023707D01*
X036806Y023857D01*
X036877Y023857D01*
X036877Y023535D01*
X034384Y023535D01*
X034297Y023447D01*
X034297Y022476D01*
X034384Y022388D01*
X036912Y022388D01*
X036912Y022322D01*
X037000Y022235D01*
X038174Y022235D01*
X038262Y022322D01*
X038262Y023447D01*
X038174Y023535D01*
X037497Y023535D01*
X037497Y023824D01*
X037867Y023824D01*
X037955Y023912D01*
X037955Y024201D01*
X037955Y024457D01*
X037955Y024713D01*
X037867Y024801D01*
X037545Y024801D01*
X037545Y024885D01*
X039203Y024885D01*
X039234Y024885D01*
X039587Y024885D01*
X040287Y024885D01*
X040580Y024885D01*
X040637Y024827D01*
X040637Y024069D01*
X040582Y024069D01*
X040495Y023981D01*
X040495Y023107D01*
X040467Y023107D01*
X040467Y023980D01*
X040332Y024115D01*
X040160Y024287D01*
X040095Y024287D01*
X040095Y024512D01*
X039914Y024693D01*
X039659Y024693D01*
X039511Y024545D01*
X039106Y024545D01*
X039019Y024457D01*
X039019Y024168D01*
X039019Y023912D01*
X039019Y023656D01*
X039022Y023653D01*
X038937Y023567D01*
X038937Y023550D01*
X038855Y023550D01*
X038767Y023462D01*
X038767Y022907D01*
X038855Y022820D01*
X039369Y022820D01*
X039437Y022887D01*
X039504Y022820D01*
X039571Y022820D01*
X039571Y022812D01*
X039503Y022744D01*
X039503Y022226D01*
X039553Y022176D01*
X039241Y021865D01*
X039107Y021730D01*
X039107Y021080D01*
X038991Y020965D01*
X038004Y020965D01*
X038020Y020980D01*
X038020Y022089D01*
X037932Y022177D01*
X037040Y022177D01*
X036952Y022089D01*
X036952Y021885D01*
X035956Y021885D01*
X035817Y021885D01*
X035809Y021881D01*
X034384Y021881D01*
X034297Y021793D01*
X034297Y021605D01*
X034287Y021605D01*
X034287Y024846D01*
X034287Y024587D02*
X034644Y024587D01*
X034644Y024529D02*
X034287Y024529D01*
X034287Y024470D02*
X034686Y024470D01*
X034287Y024412D02*
X035612Y024412D01*
X035612Y024353D02*
X034287Y024353D01*
X034287Y024295D02*
X035500Y024295D01*
X035467Y024236D02*
X034287Y024236D01*
X034287Y024178D02*
X035467Y024178D01*
X035467Y024119D02*
X034287Y024119D01*
X034287Y024060D02*
X035467Y024060D01*
X035467Y024002D02*
X034287Y024002D01*
X034287Y023943D02*
X035467Y023943D01*
X035467Y023885D02*
X034287Y023885D01*
X034287Y023826D02*
X035467Y023826D01*
X035467Y023768D02*
X034287Y023768D01*
X034287Y023709D02*
X035467Y023709D01*
X035524Y023651D02*
X034287Y023651D01*
X034287Y023592D02*
X036877Y023592D01*
X036877Y023651D02*
X036749Y023651D01*
X036806Y023709D02*
X036877Y023709D01*
X036877Y023768D02*
X036806Y023768D01*
X036806Y023826D02*
X036877Y023826D01*
X036173Y023651D02*
X036100Y023651D01*
X035552Y024470D02*
X035221Y024470D01*
X035264Y024529D02*
X035510Y024529D01*
X035510Y024587D02*
X035264Y024587D01*
X035264Y024646D02*
X035510Y024646D01*
X035510Y024704D02*
X035264Y024704D01*
X035264Y024763D02*
X035510Y024763D01*
X035510Y024821D02*
X035264Y024821D01*
X035264Y024880D02*
X035510Y024880D01*
X034954Y025251D02*
X034865Y025251D01*
X034639Y025026D01*
X018993Y025026D01*
X017887Y023919D01*
X017537Y024385D02*
X017237Y024085D01*
X014961Y024085D01*
X014937Y024085D01*
X014937Y023685D01*
X014637Y023385D01*
X014637Y023085D01*
X015637Y023085D02*
X015637Y023485D01*
X015737Y023585D01*
X016302Y023585D01*
X017337Y021960D02*
X017337Y021885D01*
X017337Y021209D02*
X017337Y021185D01*
X018137Y021435D02*
X018137Y021535D01*
X018237Y021635D01*
X018737Y021735D02*
X018737Y022485D01*
X019237Y022985D01*
X019237Y023385D02*
X018537Y022685D01*
X018537Y021119D01*
X018887Y020885D02*
X018887Y021585D01*
X018737Y021735D01*
X018887Y021885D02*
X018887Y022235D01*
X019637Y022985D01*
X019187Y021985D02*
X020087Y021985D01*
X020637Y021435D01*
X020637Y021035D01*
X020865Y020806D01*
X020865Y020477D01*
X020668Y020477D02*
X020668Y020066D01*
X020587Y019985D01*
X020237Y019985D01*
X020037Y020185D01*
X020037Y020885D01*
X019237Y021685D01*
X019087Y021685D01*
X018887Y021885D01*
X019637Y021685D02*
X020087Y021685D01*
X020471Y021300D01*
X020471Y020477D01*
X020274Y020477D02*
X020274Y021047D01*
X019937Y021385D01*
X019502Y021119D02*
X019887Y020735D01*
X019887Y020135D01*
X020837Y019185D01*
X020837Y017785D01*
X019645Y017681D02*
X018334Y017681D01*
X018237Y017585D01*
X018237Y016185D01*
X017737Y015685D01*
X017737Y014935D01*
X016987Y014185D01*
X008037Y014185D01*
X007637Y014585D01*
X007637Y014835D01*
X006837Y013985D02*
X017087Y013985D01*
X017937Y014835D01*
X017937Y015585D01*
X018437Y016085D01*
X018437Y017385D01*
X018537Y017485D01*
X019645Y017485D01*
X019645Y017288D02*
X018740Y017288D01*
X018637Y017185D01*
X018637Y015985D01*
X018137Y015485D01*
X018137Y014785D01*
X018137Y014135D01*
X017787Y013785D01*
X017587Y013785D01*
X017387Y013585D01*
X015487Y013585D01*
X015137Y013235D01*
X015137Y010085D01*
X015637Y009585D01*
X016237Y009285D02*
X015837Y008885D01*
X015037Y008885D01*
X014637Y009285D01*
X014637Y009585D01*
X015887Y008685D02*
X016287Y009085D01*
X018037Y009085D01*
X018537Y009585D01*
X018537Y015285D01*
X018987Y015735D01*
X018987Y016535D01*
X019149Y016697D01*
X019645Y016697D01*
X019645Y016500D02*
X019252Y016500D01*
X019187Y016435D01*
X019187Y015635D01*
X018737Y015185D01*
X018737Y009485D01*
X018137Y008885D01*
X016337Y008885D01*
X015937Y008485D01*
X007237Y008485D01*
X006637Y009085D01*
X006637Y009585D01*
X007637Y009585D02*
X007637Y008985D01*
X007937Y008685D01*
X015887Y008685D01*
X016237Y009285D02*
X017937Y009285D01*
X018337Y009685D01*
X018337Y014685D01*
X018337Y014635D01*
X018337Y014685D02*
X018337Y015385D01*
X018837Y015885D01*
X018837Y016985D01*
X018943Y017091D01*
X019645Y017091D01*
X019645Y016894D02*
X020146Y016894D01*
X020237Y016985D01*
X020205Y015516D02*
X019645Y015516D01*
X019645Y015319D02*
X020002Y015319D01*
X020087Y015235D01*
X020087Y015035D01*
X019837Y014785D01*
X019837Y013935D01*
X020337Y013435D01*
X020337Y012635D01*
X020837Y012135D01*
X021487Y012135D01*
X022137Y011485D01*
X023037Y011485D01*
X023737Y010785D01*
X025737Y010785D01*
X026137Y010385D01*
X027087Y010385D01*
X027487Y010785D01*
X030337Y010785D01*
X031487Y011935D01*
X031487Y012135D01*
X031437Y012185D01*
X031467Y012215D01*
X031487Y012215D01*
X031037Y012285D02*
X030987Y012235D01*
X030987Y011735D01*
X030237Y010985D01*
X027437Y010985D01*
X027037Y010585D01*
X027137Y010185D02*
X027537Y010585D01*
X030337Y010585D01*
X030487Y010435D01*
X030487Y007955D01*
X030987Y007955D02*
X030987Y010435D01*
X031737Y011185D01*
X031737Y012785D01*
X031637Y012885D01*
X032037Y012935D02*
X032087Y012935D01*
X032137Y012885D01*
X032137Y011285D01*
X031487Y010635D01*
X031487Y007955D01*
X031487Y007285D01*
X031361Y007159D01*
X031361Y006685D01*
X032656Y006466D02*
X032687Y006435D01*
X032656Y006466D02*
X032656Y006999D01*
X033737Y006335D02*
X032487Y005085D01*
X032387Y005085D01*
X031737Y005685D02*
X031737Y008985D01*
X032437Y009685D01*
X032437Y010185D01*
X032429Y010192D01*
X032429Y010236D01*
X032685Y010236D02*
X032685Y009736D01*
X033737Y008685D01*
X033737Y006335D01*
X034337Y006085D02*
X035337Y005085D01*
X035387Y005085D01*
X035937Y005585D02*
X036387Y005135D01*
X036387Y005085D01*
X035937Y005585D02*
X035937Y008985D01*
X035537Y009385D01*
X034237Y009385D01*
X033709Y009913D01*
X033709Y010236D01*
X033965Y010236D02*
X033965Y009957D01*
X034337Y009585D01*
X035637Y009585D01*
X036137Y009085D01*
X036137Y006285D01*
X037337Y005085D01*
X037387Y005085D01*
X037437Y005485D02*
X037937Y005485D01*
X038337Y005085D01*
X038387Y005085D01*
X038887Y005435D02*
X038887Y004635D01*
X038787Y004535D01*
X030137Y004535D01*
X029987Y004685D01*
X029987Y005785D01*
X029837Y005935D01*
X029537Y005935D01*
X029087Y006385D01*
X027837Y006385D01*
X027187Y007035D01*
X024187Y007035D01*
X023737Y007485D01*
X023737Y008308D01*
X023237Y008308D02*
X023237Y007685D01*
X023362Y007560D01*
X023087Y007285D01*
X022787Y007285D01*
X022637Y007135D01*
X021987Y007135D01*
X021837Y007285D01*
X021537Y007285D01*
X021437Y007185D01*
X021087Y007185D01*
X020837Y007435D01*
X021387Y007535D02*
X021837Y007535D01*
X022087Y007285D01*
X022537Y007285D01*
X022737Y007485D01*
X022737Y007585D01*
X022737Y008308D01*
X022237Y008308D02*
X022237Y007585D01*
X022087Y006985D02*
X021687Y006985D01*
X022087Y006985D02*
X022237Y006835D01*
X022237Y006261D01*
X022737Y006261D02*
X022737Y005935D01*
X022987Y005685D01*
X023787Y005685D01*
X023987Y005485D01*
X025587Y005485D01*
X025987Y005085D01*
X026387Y005085D01*
X027587Y006085D02*
X029037Y006085D01*
X029437Y005685D01*
X029737Y005685D01*
X029837Y005585D01*
X029837Y004385D01*
X029987Y004235D01*
X039037Y004235D01*
X039187Y004385D01*
X039187Y005585D01*
X038237Y006535D01*
X038237Y009285D01*
X038137Y009385D01*
X036787Y009385D01*
X036487Y009685D02*
X037837Y009685D01*
X037887Y009735D01*
X037887Y010085D01*
X037891Y010089D01*
X037891Y010107D01*
X037891Y010530D01*
X037787Y010635D01*
X036787Y010635D01*
X036337Y011085D01*
X036337Y012885D01*
X036037Y012685D02*
X036037Y013635D01*
X035887Y013785D01*
X035437Y013785D01*
X035037Y014185D01*
X035037Y014935D01*
X034534Y015437D01*
X033786Y015437D01*
X033786Y015752D02*
X034569Y015752D01*
X035237Y015085D01*
X035237Y014785D01*
X035437Y014585D01*
X035837Y014585D01*
X036037Y014385D01*
X036037Y013935D01*
X036187Y013785D01*
X036637Y013785D01*
X036887Y013535D01*
X036887Y012335D01*
X036937Y012285D01*
X036937Y011235D01*
X037037Y011135D01*
X037637Y011135D01*
X038147Y010624D01*
X038147Y010107D01*
X038659Y010107D02*
X038659Y009813D01*
X038787Y009685D01*
X039837Y009685D01*
X040537Y008985D01*
X040537Y008659D01*
X040537Y008635D02*
X040487Y008635D01*
X040987Y008585D02*
X040987Y012235D01*
X040737Y012485D01*
X040337Y012485D01*
X040194Y012627D01*
X040194Y012962D01*
X040437Y012935D02*
X040837Y012935D01*
X041187Y012585D01*
X041187Y008735D01*
X041337Y008585D01*
X041831Y008585D01*
X041831Y008270D02*
X041302Y008270D01*
X040987Y008585D01*
X040537Y008010D02*
X040537Y007985D01*
X040567Y007955D01*
X041831Y007955D01*
X042457Y007955D01*
X042787Y008285D01*
X042787Y010785D01*
X042337Y011235D01*
X041787Y011235D01*
X041786Y011235D01*
X041737Y011235D01*
X040087Y012335D02*
X039938Y012483D01*
X039938Y012962D01*
X039687Y012985D02*
X039682Y012980D01*
X039682Y012962D01*
X039682Y012939D01*
X039687Y012935D01*
X039687Y012435D01*
X039682Y012430D01*
X038937Y012435D02*
X038915Y012457D01*
X038915Y012962D01*
X039171Y012962D02*
X039171Y013368D01*
X039237Y013435D01*
X041187Y013435D01*
X041737Y012885D01*
X041737Y012534D01*
X042487Y012785D02*
X042637Y012785D01*
X042787Y012935D01*
X042787Y015485D01*
X042087Y016185D01*
X040287Y016185D01*
X039937Y016535D01*
X034737Y016535D01*
X034259Y017012D01*
X033786Y017012D01*
X033786Y016697D02*
X034174Y016697D01*
X034587Y016285D01*
X039887Y016285D01*
X040187Y015985D01*
X041937Y015985D01*
X042537Y015385D01*
X042537Y013285D01*
X042487Y013235D01*
X042087Y013635D02*
X042287Y013835D01*
X042287Y015285D01*
X041887Y015685D01*
X041337Y015685D01*
X041037Y015135D02*
X040711Y015135D01*
X040687Y015135D01*
X040711Y015135D02*
X040711Y015160D01*
X040687Y015185D01*
X040687Y015535D01*
X040587Y015635D01*
X040087Y015635D01*
X039837Y015885D01*
X038987Y015885D01*
X038937Y015835D01*
X038937Y015585D01*
X038837Y015485D01*
X038537Y015485D01*
X038487Y015435D01*
X038487Y015085D01*
X038504Y015101D01*
X038504Y015161D01*
X038504Y015151D01*
X038487Y015135D01*
X038487Y015085D01*
X038487Y014885D01*
X038837Y014885D01*
X039537Y014185D01*
X038487Y014885D02*
X038337Y014735D01*
X037537Y014735D01*
X037537Y015100D01*
X037537Y014735D02*
X036837Y014735D01*
X036430Y014328D01*
X036430Y014191D01*
X036430Y013403D02*
X036430Y013391D01*
X035687Y012885D02*
X035687Y012385D01*
X035737Y012359D01*
X036037Y012685D02*
X036137Y012585D01*
X036137Y010635D01*
X036664Y010107D01*
X037123Y010107D01*
X036487Y009685D02*
X036011Y010160D01*
X035737Y010160D01*
X035737Y009785D02*
X034437Y009785D01*
X034237Y009985D01*
X034237Y010185D01*
X034221Y010201D01*
X034221Y010236D01*
X034732Y010236D02*
X034732Y010780D01*
X034737Y010785D01*
X035137Y011085D02*
X035237Y010985D01*
X035237Y010285D01*
X035188Y010236D01*
X034988Y010236D01*
X035237Y010285D02*
X035244Y010277D01*
X035244Y010236D01*
X035737Y009785D02*
X036337Y009185D01*
X036337Y006585D01*
X037437Y005485D01*
X038287Y005785D02*
X038537Y005785D01*
X038887Y005435D01*
X039487Y005735D02*
X039487Y004235D01*
X039137Y003885D01*
X030137Y003885D01*
X029387Y005085D02*
X029387Y005435D01*
X028937Y005885D01*
X024337Y005885D01*
X024237Y005985D01*
X024237Y006261D01*
X023737Y006261D02*
X023737Y005985D01*
X024037Y005685D01*
X028237Y005685D01*
X028387Y005535D01*
X028387Y005085D01*
X027587Y006085D02*
X026987Y006685D01*
X026637Y006685D01*
X024637Y006685D01*
X024437Y006885D01*
X024037Y006885D01*
X023362Y007560D01*
X022937Y006985D02*
X023237Y006685D01*
X023237Y006261D01*
X022687Y005635D02*
X021987Y005635D01*
X021737Y005885D01*
X021737Y006261D01*
X021237Y006261D02*
X021237Y005835D01*
X021387Y005685D01*
X021637Y005685D01*
X021837Y005485D01*
X022587Y005485D01*
X022987Y005085D01*
X023387Y005085D01*
X023587Y005485D02*
X022837Y005485D01*
X022687Y005635D01*
X022387Y005085D02*
X021987Y005085D01*
X021537Y005535D01*
X020937Y005535D01*
X020737Y005735D01*
X020737Y006261D01*
X020387Y006085D02*
X020287Y006185D01*
X020037Y006185D01*
X019987Y006235D01*
X019987Y006261D01*
X020387Y006085D02*
X020387Y005685D01*
X020987Y005085D01*
X021387Y005085D01*
X020387Y005085D02*
X020087Y005385D01*
X019887Y005385D01*
X019487Y005785D01*
X019487Y006261D01*
X018987Y006261D02*
X018987Y005535D01*
X019387Y005135D01*
X019387Y005085D01*
X018487Y005235D02*
X018387Y005135D01*
X018387Y005085D01*
X018487Y005235D02*
X018487Y006261D01*
X017987Y006261D02*
X017987Y005735D01*
X017387Y005135D01*
X017387Y005085D01*
X017037Y005435D02*
X016737Y005435D01*
X016387Y005085D01*
X017037Y005435D02*
X017487Y005885D01*
X017487Y006261D01*
X016987Y006261D02*
X016987Y005735D01*
X016887Y005635D01*
X015937Y005635D01*
X015387Y005085D01*
X015087Y005785D02*
X014387Y005085D01*
X013837Y005685D02*
X014787Y006635D01*
X014787Y007235D01*
X014887Y007335D01*
X015637Y007335D01*
X015653Y007318D01*
X015685Y007318D01*
X015685Y007063D02*
X015265Y007063D01*
X015237Y007035D01*
X015685Y007574D02*
X015685Y007583D01*
X015687Y007585D01*
X015685Y007830D02*
X015685Y007833D01*
X015687Y007835D01*
X014687Y007835D01*
X014537Y007985D01*
X014137Y007985D01*
X013787Y007985D01*
X013737Y008035D01*
X012887Y008035D01*
X012787Y007935D01*
X012787Y006785D01*
X012687Y006685D01*
X008837Y006685D01*
X007937Y005785D01*
X006137Y005785D01*
X005937Y005585D01*
X004937Y005885D02*
X004837Y005785D01*
X004637Y005785D01*
X004237Y005785D01*
X003937Y005485D01*
X003437Y005485D01*
X003302Y005350D01*
X003302Y005085D01*
X003971Y005085D02*
X004437Y005085D01*
X004937Y005885D02*
X004937Y006785D01*
X004832Y006889D01*
X004637Y006889D01*
X004637Y006380D02*
X004432Y006380D01*
X004137Y006085D01*
X003637Y006085D01*
X004637Y007480D02*
X004637Y007885D01*
X004437Y008085D01*
X003637Y008085D01*
X003637Y009085D02*
X003637Y009485D01*
X003737Y009585D01*
X004237Y009585D01*
X004337Y009685D01*
X004537Y009685D01*
X004637Y010280D02*
X004637Y010789D01*
X004537Y010785D02*
X004237Y010785D01*
X004037Y010585D01*
X003337Y010585D01*
X003137Y010785D01*
X003137Y011585D01*
X003302Y011750D01*
X003302Y012085D01*
X003937Y012085D02*
X003937Y012835D01*
X003337Y012885D02*
X003337Y013085D01*
X003437Y013185D01*
X004937Y013185D01*
X005037Y013285D01*
X005037Y013985D01*
X004891Y014130D01*
X004637Y014130D01*
X004637Y014639D01*
X004637Y015230D02*
X004637Y015685D01*
X004487Y015835D01*
X003637Y015835D01*
X003637Y016835D02*
X004487Y016835D01*
X004637Y016985D01*
X004637Y017439D01*
X004637Y018030D02*
X004882Y018030D01*
X004937Y018085D01*
X004937Y019085D01*
X004837Y019185D01*
X004637Y019185D01*
X004637Y019130D02*
X004637Y019385D01*
X004537Y019485D01*
X003437Y019485D01*
X003337Y019585D01*
X003337Y019785D01*
X003937Y019835D02*
X003937Y020585D01*
X003971Y020585D02*
X004437Y020585D01*
X004537Y020985D02*
X003437Y020985D01*
X003337Y020885D01*
X003337Y020585D01*
X004237Y021385D02*
X004337Y021285D01*
X004537Y021285D01*
X004541Y021289D02*
X004637Y021289D01*
X004637Y021085D01*
X004537Y020985D01*
X004237Y021385D02*
X004237Y022285D01*
X004341Y022389D01*
X004637Y022389D01*
X004837Y022685D02*
X004237Y022685D01*
X004037Y022485D01*
X004037Y021885D01*
X003737Y021585D01*
X003637Y021585D01*
X004637Y021880D02*
X004832Y021880D01*
X004937Y021985D01*
X004937Y022585D01*
X004837Y022685D01*
X004637Y022980D02*
X004637Y023585D01*
X004437Y024585D02*
X003637Y024585D01*
X003237Y024085D02*
X006137Y024085D01*
X006237Y024185D01*
X006237Y024685D01*
X006337Y024785D01*
X006587Y024785D01*
X006602Y024769D01*
X006637Y024769D01*
X006637Y024100D02*
X006637Y023085D01*
X007637Y023085D02*
X007637Y023385D01*
X008037Y023785D01*
X008037Y024060D01*
X007937Y024385D02*
X007437Y024385D01*
X007337Y024285D01*
X007337Y024001D01*
X007937Y024385D02*
X008037Y024485D01*
X008037Y024735D01*
X008037Y024709D01*
X008037Y024685D01*
X008037Y024735D02*
X008037Y024935D01*
X008087Y024985D01*
X010887Y024985D01*
X011087Y024785D01*
X011087Y024135D01*
X011104Y024135D01*
X011267Y024485D02*
X011267Y024859D01*
X011161Y024965D01*
X010961Y025165D01*
X010812Y025165D01*
X010337Y025165D01*
X010337Y030985D01*
X010771Y030985D01*
X011029Y030727D01*
X011176Y030666D01*
X011335Y030666D01*
X011426Y030666D01*
X011473Y030620D01*
X011618Y030620D01*
X011618Y029414D01*
X011618Y028198D01*
X011385Y028198D01*
X011297Y028110D01*
X011297Y025859D01*
X011385Y025772D01*
X012651Y025772D01*
X012739Y025859D01*
X012739Y028110D01*
X012651Y028198D01*
X012418Y028198D01*
X012418Y029105D01*
X015791Y029105D01*
X015982Y029105D01*
X016262Y029105D01*
X015990Y028833D01*
X015788Y028631D01*
X015690Y028533D01*
X015637Y028404D01*
X015637Y028198D01*
X015322Y028198D01*
X015234Y028110D01*
X015234Y025974D01*
X015193Y025974D01*
X014994Y025974D01*
X014810Y025898D01*
X014031Y025119D01*
X013890Y024978D01*
X013814Y024794D01*
X013814Y024485D01*
X012170Y024485D01*
X012049Y024535D01*
X011890Y024535D01*
X011770Y024485D01*
X011267Y024485D01*
X011267Y024529D02*
X011876Y024529D01*
X012063Y024529D02*
X013814Y024529D01*
X013814Y024587D02*
X011267Y024587D01*
X011267Y024646D02*
X013814Y024646D01*
X013814Y024704D02*
X011267Y024704D01*
X011267Y024763D02*
X013814Y024763D01*
X013825Y024821D02*
X011267Y024821D01*
X011246Y024880D02*
X013849Y024880D01*
X013874Y024939D02*
X011187Y024939D01*
X011129Y024997D02*
X013909Y024997D01*
X013968Y025056D02*
X011070Y025056D01*
X011012Y025114D02*
X014026Y025114D01*
X014085Y025173D02*
X010337Y025173D01*
X010337Y025231D02*
X014143Y025231D01*
X014202Y025290D02*
X010337Y025290D01*
X010337Y025348D02*
X014260Y025348D01*
X014319Y025407D02*
X010337Y025407D01*
X010337Y025465D02*
X014377Y025465D01*
X014436Y025524D02*
X010337Y025524D01*
X010337Y025583D02*
X014495Y025583D01*
X014553Y025641D02*
X010337Y025641D01*
X010337Y025700D02*
X014612Y025700D01*
X014670Y025758D02*
X010337Y025758D01*
X010337Y025817D02*
X011340Y025817D01*
X011297Y025875D02*
X010337Y025875D01*
X010337Y025934D02*
X011297Y025934D01*
X011297Y025992D02*
X010337Y025992D01*
X010337Y026051D02*
X011297Y026051D01*
X011297Y026109D02*
X010337Y026109D01*
X010337Y026168D02*
X011297Y026168D01*
X011297Y026227D02*
X010337Y026227D01*
X010337Y026285D02*
X011297Y026285D01*
X011297Y026344D02*
X010337Y026344D01*
X010337Y026402D02*
X011297Y026402D01*
X011297Y026461D02*
X010337Y026461D01*
X010337Y026519D02*
X011297Y026519D01*
X011297Y026578D02*
X010337Y026578D01*
X010337Y026636D02*
X011297Y026636D01*
X011297Y026695D02*
X010337Y026695D01*
X010337Y026753D02*
X011297Y026753D01*
X011297Y026812D02*
X010337Y026812D01*
X010337Y026871D02*
X011297Y026871D01*
X011297Y026929D02*
X010337Y026929D01*
X010337Y026988D02*
X011297Y026988D01*
X011297Y027046D02*
X010337Y027046D01*
X010337Y027105D02*
X011297Y027105D01*
X011297Y027163D02*
X010337Y027163D01*
X010337Y027222D02*
X011297Y027222D01*
X011297Y027280D02*
X010337Y027280D01*
X010337Y027339D02*
X011297Y027339D01*
X011297Y027397D02*
X010337Y027397D01*
X010337Y027456D02*
X011297Y027456D01*
X011297Y027514D02*
X010337Y027514D01*
X010337Y027573D02*
X011297Y027573D01*
X011297Y027632D02*
X010337Y027632D01*
X010337Y027690D02*
X011297Y027690D01*
X011297Y027749D02*
X010337Y027749D01*
X010337Y027807D02*
X011297Y027807D01*
X011297Y027866D02*
X010337Y027866D01*
X010337Y027924D02*
X011297Y027924D01*
X011297Y027983D02*
X010337Y027983D01*
X010337Y028041D02*
X011297Y028041D01*
X011297Y028100D02*
X010337Y028100D01*
X010337Y028158D02*
X011346Y028158D01*
X011618Y028217D02*
X010337Y028217D01*
X010337Y028276D02*
X011618Y028276D01*
X011618Y028334D02*
X010337Y028334D01*
X010337Y028393D02*
X011618Y028393D01*
X011618Y028451D02*
X010337Y028451D01*
X010337Y028510D02*
X011618Y028510D01*
X011618Y028568D02*
X010337Y028568D01*
X010337Y028627D02*
X011618Y028627D01*
X011618Y028685D02*
X010337Y028685D01*
X010337Y028744D02*
X011618Y028744D01*
X011618Y028802D02*
X010337Y028802D01*
X010337Y028861D02*
X011618Y028861D01*
X011618Y028920D02*
X010337Y028920D01*
X010337Y028978D02*
X011618Y028978D01*
X011618Y029037D02*
X010337Y029037D01*
X010337Y029095D02*
X011618Y029095D01*
X011618Y029154D02*
X010337Y029154D01*
X010337Y029212D02*
X011618Y029212D01*
X011618Y029271D02*
X010337Y029271D01*
X010337Y029329D02*
X011618Y029329D01*
X011618Y029388D02*
X010337Y029388D01*
X010337Y029446D02*
X011618Y029446D01*
X011618Y029505D02*
X010337Y029505D01*
X010337Y029564D02*
X011618Y029564D01*
X011618Y029622D02*
X010337Y029622D01*
X010337Y029681D02*
X011618Y029681D01*
X011618Y029739D02*
X010337Y029739D01*
X010337Y029798D02*
X011618Y029798D01*
X011618Y029856D02*
X010337Y029856D01*
X010337Y029915D02*
X011618Y029915D01*
X011618Y029973D02*
X010337Y029973D01*
X010337Y030032D02*
X011618Y030032D01*
X011618Y030090D02*
X010337Y030090D01*
X010337Y030149D02*
X011618Y030149D01*
X011618Y030207D02*
X010337Y030207D01*
X010337Y030266D02*
X011618Y030266D01*
X011618Y030325D02*
X010337Y030325D01*
X010337Y030383D02*
X011618Y030383D01*
X011618Y030442D02*
X010337Y030442D01*
X010337Y030500D02*
X011618Y030500D01*
X011618Y030559D02*
X010337Y030559D01*
X010337Y030617D02*
X011618Y030617D01*
X011152Y030676D02*
X010337Y030676D01*
X010337Y030734D02*
X011021Y030734D01*
X010963Y030793D02*
X010337Y030793D01*
X010337Y030851D02*
X010904Y030851D01*
X010846Y030910D02*
X010337Y030910D01*
X010337Y030969D02*
X010787Y030969D01*
X011333Y031554D02*
X016776Y031554D01*
X016727Y031504D02*
X016727Y031165D01*
X016967Y030925D01*
X017306Y030925D01*
X017547Y031165D01*
X017547Y031504D01*
X017416Y031635D01*
X018857Y031635D01*
X018727Y031504D01*
X018727Y031165D01*
X018967Y030925D01*
X019306Y030925D01*
X019547Y031165D01*
X019547Y031504D01*
X019416Y031635D01*
X020857Y031635D01*
X020727Y031504D01*
X020727Y031165D01*
X020967Y030925D01*
X021306Y030925D01*
X021547Y031165D01*
X021547Y031504D01*
X021416Y031635D01*
X021857Y031635D01*
X021727Y031504D01*
X021727Y031165D01*
X021967Y030925D01*
X022306Y030925D01*
X022547Y031165D01*
X022547Y031504D01*
X022416Y031635D01*
X022857Y031635D01*
X022727Y031504D01*
X022727Y031165D01*
X022967Y030925D01*
X023306Y030925D01*
X023547Y031165D01*
X023547Y031504D01*
X023416Y031635D01*
X023857Y031635D01*
X023727Y031504D01*
X023727Y031165D01*
X023967Y030925D01*
X024306Y030925D01*
X024547Y031165D01*
X024547Y031504D01*
X024416Y031635D01*
X024857Y031635D01*
X024727Y031504D01*
X024727Y031165D01*
X024967Y030925D01*
X025306Y030925D01*
X025547Y031165D01*
X025547Y031504D01*
X025416Y031635D01*
X025857Y031635D01*
X025727Y031504D01*
X025727Y031165D01*
X025967Y030925D01*
X026306Y030925D01*
X026547Y031165D01*
X026547Y031504D01*
X026416Y031635D01*
X026637Y031635D01*
X026637Y028893D01*
X026559Y028893D01*
X026378Y028712D01*
X026378Y028457D01*
X026559Y028276D01*
X026637Y028276D01*
X026637Y025974D01*
X024995Y025974D01*
X025041Y026021D01*
X025041Y026276D01*
X024861Y026457D01*
X024619Y026457D01*
X024619Y026471D01*
X024561Y026529D01*
X024561Y026593D01*
X024487Y026667D01*
X024430Y026724D01*
X024467Y026760D01*
X024517Y026810D01*
X024531Y026810D01*
X024619Y026898D01*
X024619Y026916D01*
X024659Y026876D01*
X024914Y026876D01*
X025095Y027057D01*
X025095Y027312D01*
X024914Y027493D01*
X024659Y027493D01*
X024619Y027453D01*
X024619Y027495D01*
X024571Y027543D01*
X024571Y027622D01*
X024656Y027707D01*
X024656Y028262D01*
X024568Y028350D01*
X024497Y028350D01*
X024497Y028698D01*
X024497Y028872D01*
X024271Y029097D01*
X024271Y029527D01*
X024295Y029551D01*
X024374Y029551D01*
X024460Y029465D01*
X025014Y029465D01*
X025102Y029553D01*
X025102Y030067D01*
X025014Y030155D01*
X024460Y030155D01*
X024372Y030067D01*
X024372Y029971D01*
X024295Y029971D01*
X024247Y030019D01*
X023667Y030019D01*
X023667Y030250D01*
X024247Y030250D01*
X024335Y030338D01*
X024335Y030679D01*
X024247Y030767D01*
X023650Y030767D01*
X023562Y030679D01*
X023562Y030665D01*
X023512Y030665D01*
X023407Y030559D01*
X023311Y030463D01*
X023311Y030679D01*
X023223Y030767D01*
X022626Y030767D01*
X022552Y030692D01*
X022552Y030716D01*
X022464Y030804D01*
X021910Y030804D01*
X021822Y030716D01*
X021822Y030202D01*
X021910Y030114D01*
X022464Y030114D01*
X022552Y030202D01*
X022552Y030305D01*
X022572Y030305D01*
X022626Y030250D01*
X023223Y030250D01*
X023307Y030334D01*
X023307Y030310D01*
X023307Y029935D01*
X023223Y030019D01*
X022626Y030019D01*
X022539Y029931D01*
X022539Y029645D01*
X022500Y029645D01*
X022377Y029522D01*
X022277Y029422D01*
X022277Y029389D01*
X022008Y029389D01*
X021921Y029301D01*
X021921Y029087D01*
X021914Y029093D01*
X021659Y029093D01*
X021506Y028940D01*
X021506Y029362D01*
X021418Y029450D01*
X021341Y029450D01*
X021341Y029453D01*
X021395Y029507D01*
X021395Y029762D01*
X021214Y029943D01*
X020959Y029943D01*
X020778Y029762D01*
X020778Y029507D01*
X020870Y029415D01*
X020837Y029382D01*
X020769Y029450D01*
X020477Y029450D01*
X020517Y029489D01*
X020517Y030089D01*
X020517Y030280D01*
X020267Y030530D01*
X020139Y030657D01*
X020139Y030694D01*
X020052Y030781D01*
X019691Y030781D01*
X019603Y030694D01*
X019603Y030176D01*
X019691Y030088D01*
X020052Y030088D01*
X020055Y030091D01*
X020057Y030089D01*
X020057Y029680D01*
X019980Y029603D01*
X019065Y029603D01*
X018977Y029515D01*
X018977Y029154D01*
X019065Y029066D01*
X020014Y029066D01*
X020007Y029059D01*
X020007Y028910D01*
X020007Y028603D01*
X019065Y028603D01*
X018977Y028515D01*
X018977Y028154D01*
X019065Y028066D01*
X020056Y028066D01*
X020143Y028154D01*
X020143Y028187D01*
X020261Y028305D01*
X020367Y028410D01*
X020367Y028720D01*
X020769Y028720D01*
X020837Y028787D01*
X020904Y028720D01*
X021418Y028720D01*
X021478Y028779D01*
X021478Y028657D01*
X021659Y028476D01*
X021914Y028476D01*
X021921Y028482D01*
X021921Y028468D01*
X022008Y028380D01*
X022763Y028380D01*
X022850Y028468D01*
X022850Y029301D01*
X022874Y029325D01*
X022997Y029448D01*
X022997Y029502D01*
X023223Y029502D01*
X023311Y029590D01*
X023311Y029806D01*
X023412Y029705D01*
X023512Y029605D01*
X023562Y029605D01*
X023562Y029590D01*
X023650Y029502D01*
X023851Y029502D01*
X023851Y028923D01*
X023974Y028800D01*
X024077Y028698D01*
X024077Y028350D01*
X024054Y028350D01*
X023966Y028262D01*
X023966Y027707D01*
X024054Y027620D01*
X024151Y027620D01*
X024151Y027543D01*
X024102Y027495D01*
X024102Y027015D01*
X023871Y027015D01*
X023871Y027495D01*
X023783Y027583D01*
X023442Y027583D01*
X023354Y027495D01*
X023354Y026898D01*
X023407Y026846D01*
X023407Y026810D01*
X023432Y026785D01*
X023304Y026785D01*
X023104Y026585D01*
X023103Y026585D01*
X023103Y026801D01*
X023015Y026889D01*
X022261Y026889D01*
X022173Y026801D01*
X022173Y025974D01*
X021163Y025974D01*
X020266Y026871D01*
X020266Y027306D01*
X020266Y027446D01*
X020213Y027574D01*
X019914Y027873D01*
X019815Y027972D01*
X019687Y028025D01*
X018549Y028025D01*
X018449Y028125D01*
X018320Y028179D01*
X018181Y028179D01*
X018096Y028179D01*
X018096Y028515D01*
X018026Y028585D01*
X018096Y028654D01*
X018096Y029015D01*
X018026Y029085D01*
X018096Y029154D01*
X018096Y029515D01*
X018026Y029585D01*
X018096Y029654D01*
X018096Y030015D01*
X018008Y030103D01*
X017532Y030103D01*
X017532Y030137D01*
X017570Y030176D01*
X017570Y030694D01*
X017482Y030781D01*
X017122Y030781D01*
X017034Y030694D01*
X017034Y030665D01*
X016941Y030665D01*
X016872Y030595D01*
X016864Y030604D01*
X016310Y030604D01*
X016305Y030599D01*
X016184Y030599D01*
X016146Y030637D01*
X015628Y030637D01*
X015540Y030549D01*
X015540Y030189D01*
X015628Y030101D01*
X016146Y030101D01*
X016184Y030139D01*
X016222Y030139D01*
X016222Y030002D01*
X016289Y029935D01*
X016234Y029879D01*
X016234Y029880D01*
X016146Y029968D01*
X015628Y029968D01*
X015540Y029880D01*
X015540Y029565D01*
X012418Y029565D01*
X012418Y030620D01*
X012975Y030620D01*
X013063Y030707D01*
X013063Y031462D01*
X012975Y031549D01*
X011473Y031549D01*
X011405Y031482D01*
X011252Y031635D01*
X016857Y031635D01*
X016727Y031504D01*
X016727Y031495D02*
X013029Y031495D01*
X013063Y031437D02*
X016727Y031437D01*
X016727Y031378D02*
X013063Y031378D01*
X013063Y031320D02*
X016727Y031320D01*
X016727Y031261D02*
X013063Y031261D01*
X013063Y031203D02*
X016727Y031203D01*
X016747Y031144D02*
X013063Y031144D01*
X013063Y031086D02*
X016806Y031086D01*
X016864Y031027D02*
X013063Y031027D01*
X013063Y030969D02*
X016923Y030969D01*
X017075Y030734D02*
X013063Y030734D01*
X013063Y030793D02*
X021898Y030793D01*
X021840Y030734D02*
X020099Y030734D01*
X020139Y030676D02*
X021822Y030676D01*
X021822Y030617D02*
X020179Y030617D01*
X020238Y030559D02*
X021822Y030559D01*
X021822Y030500D02*
X020296Y030500D01*
X020355Y030442D02*
X021822Y030442D01*
X021822Y030383D02*
X020413Y030383D01*
X020472Y030325D02*
X021822Y030325D01*
X021822Y030266D02*
X020517Y030266D01*
X020517Y030207D02*
X021822Y030207D01*
X021875Y030149D02*
X020517Y030149D01*
X020517Y030090D02*
X023307Y030090D01*
X023307Y030032D02*
X020517Y030032D01*
X020517Y029973D02*
X022581Y029973D01*
X022539Y029915D02*
X021243Y029915D01*
X021301Y029856D02*
X022539Y029856D01*
X022539Y029798D02*
X021360Y029798D01*
X021395Y029739D02*
X022539Y029739D01*
X022539Y029681D02*
X021395Y029681D01*
X021395Y029622D02*
X022477Y029622D01*
X022419Y029564D02*
X021395Y029564D01*
X021393Y029505D02*
X022360Y029505D01*
X022302Y029446D02*
X021421Y029446D01*
X021480Y029388D02*
X022007Y029388D01*
X021949Y029329D02*
X021506Y029329D01*
X021506Y029271D02*
X021921Y029271D01*
X021921Y029212D02*
X021506Y029212D01*
X021506Y029154D02*
X021921Y029154D01*
X021921Y029095D02*
X021506Y029095D01*
X021506Y029037D02*
X021603Y029037D01*
X021544Y028978D02*
X021506Y028978D01*
X021478Y028744D02*
X021443Y028744D01*
X021478Y028685D02*
X020367Y028685D01*
X020367Y028627D02*
X021508Y028627D01*
X021567Y028568D02*
X020367Y028568D01*
X020367Y028510D02*
X021625Y028510D01*
X021937Y028451D02*
X020367Y028451D01*
X020349Y028393D02*
X021996Y028393D01*
X022775Y028393D02*
X024077Y028393D01*
X024077Y028451D02*
X022834Y028451D01*
X022850Y028510D02*
X024077Y028510D01*
X024077Y028568D02*
X022850Y028568D01*
X022850Y028627D02*
X024077Y028627D01*
X024077Y028685D02*
X022850Y028685D01*
X022850Y028744D02*
X024030Y028744D01*
X023972Y028802D02*
X022850Y028802D01*
X022850Y028861D02*
X023913Y028861D01*
X023855Y028920D02*
X022850Y028920D01*
X022850Y028978D02*
X023851Y028978D01*
X023851Y029037D02*
X022850Y029037D01*
X022850Y029095D02*
X023851Y029095D01*
X023851Y029154D02*
X022850Y029154D01*
X022850Y029212D02*
X023851Y029212D01*
X023851Y029271D02*
X022850Y029271D01*
X022850Y029301D02*
X022850Y029301D01*
X022878Y029329D02*
X023851Y029329D01*
X023851Y029388D02*
X022937Y029388D01*
X022996Y029446D02*
X023851Y029446D01*
X023647Y029505D02*
X023226Y029505D01*
X023284Y029564D02*
X023589Y029564D01*
X023495Y029622D02*
X023311Y029622D01*
X023311Y029681D02*
X023436Y029681D01*
X023378Y029739D02*
X023311Y029739D01*
X023311Y029798D02*
X023319Y029798D01*
X023307Y029973D02*
X023269Y029973D01*
X023307Y030149D02*
X022499Y030149D01*
X022552Y030207D02*
X023307Y030207D01*
X023307Y030266D02*
X023239Y030266D01*
X023297Y030325D02*
X023307Y030325D01*
X023311Y030500D02*
X023348Y030500D01*
X023311Y030559D02*
X023406Y030559D01*
X023465Y030617D02*
X023311Y030617D01*
X023311Y030676D02*
X023562Y030676D01*
X023618Y030734D02*
X023256Y030734D01*
X023350Y030969D02*
X023923Y030969D01*
X023864Y031027D02*
X023409Y031027D01*
X023468Y031086D02*
X023806Y031086D01*
X023747Y031144D02*
X023526Y031144D01*
X023547Y031203D02*
X023727Y031203D01*
X023727Y031261D02*
X023547Y031261D01*
X023547Y031320D02*
X023727Y031320D01*
X023727Y031378D02*
X023547Y031378D01*
X023547Y031437D02*
X023727Y031437D01*
X023727Y031495D02*
X023547Y031495D01*
X023497Y031554D02*
X023776Y031554D01*
X023835Y031613D02*
X023439Y031613D01*
X022835Y031613D02*
X022439Y031613D01*
X022497Y031554D02*
X022776Y031554D01*
X022727Y031495D02*
X022547Y031495D01*
X022547Y031437D02*
X022727Y031437D01*
X022727Y031378D02*
X022547Y031378D01*
X022547Y031320D02*
X022727Y031320D01*
X022727Y031261D02*
X022547Y031261D01*
X022547Y031203D02*
X022727Y031203D01*
X022747Y031144D02*
X022526Y031144D01*
X022468Y031086D02*
X022806Y031086D01*
X022864Y031027D02*
X022409Y031027D01*
X022350Y030969D02*
X022923Y030969D01*
X022594Y030734D02*
X022533Y030734D01*
X022475Y030793D02*
X026637Y030793D01*
X026637Y030851D02*
X013063Y030851D01*
X013063Y030910D02*
X026637Y030910D01*
X026637Y030969D02*
X026350Y030969D01*
X026409Y031027D02*
X026637Y031027D01*
X026637Y031086D02*
X026468Y031086D01*
X026526Y031144D02*
X026637Y031144D01*
X026637Y031203D02*
X026547Y031203D01*
X026547Y031261D02*
X026637Y031261D01*
X026637Y031320D02*
X026547Y031320D01*
X026547Y031378D02*
X026637Y031378D01*
X026637Y031437D02*
X026547Y031437D01*
X026547Y031495D02*
X026637Y031495D01*
X026637Y031554D02*
X026497Y031554D01*
X026439Y031613D02*
X026637Y031613D01*
X027332Y031635D02*
X027487Y031479D01*
X027487Y031190D01*
X027282Y030985D01*
X026992Y030985D01*
X026940Y031036D01*
X026940Y028705D01*
X028438Y028705D01*
X028438Y028837D01*
X028584Y028983D01*
X028790Y028983D01*
X028935Y028837D01*
X028935Y028632D01*
X028790Y028486D01*
X028608Y028486D01*
X028586Y028465D01*
X028487Y028465D01*
X026940Y028465D01*
X026940Y025914D01*
X027385Y025914D01*
X027385Y026234D01*
X027438Y026287D01*
X028115Y026287D01*
X028159Y026394D01*
X028292Y026526D01*
X028464Y026598D01*
X030031Y026598D01*
X030031Y028220D01*
X030084Y028273D01*
X032284Y028273D01*
X032337Y028220D01*
X032337Y027132D01*
X034054Y027132D01*
X034153Y027033D01*
X034246Y026940D01*
X034677Y026940D01*
X034677Y026945D01*
X034729Y026997D01*
X035158Y026997D01*
X035185Y026970D01*
X035252Y027037D01*
X035453Y027037D01*
X035453Y026800D01*
X035513Y026800D01*
X035513Y027037D01*
X035714Y027037D01*
X035790Y026961D01*
X035790Y026936D01*
X035795Y026941D01*
X035823Y026941D01*
X035774Y026989D01*
X035774Y027195D01*
X035816Y027237D01*
X034761Y027237D01*
X034715Y027191D01*
X034428Y027191D01*
X034375Y027244D01*
X034375Y027535D01*
X034322Y027535D01*
X034322Y027360D01*
X034284Y027268D01*
X034268Y027252D01*
X034268Y027244D01*
X034215Y027191D01*
X034199Y027191D01*
X034121Y027159D01*
X034022Y027159D01*
X033945Y027191D01*
X033928Y027191D01*
X033920Y027199D01*
X033723Y027199D01*
X033715Y027191D01*
X033428Y027191D01*
X033420Y027199D01*
X033223Y027199D01*
X033215Y027191D01*
X032928Y027191D01*
X032918Y027202D01*
X032815Y027203D01*
X032729Y027203D01*
X032727Y027205D01*
X032726Y027205D01*
X032666Y027266D01*
X032643Y027289D01*
X032589Y027289D01*
X032443Y027434D01*
X032443Y027640D01*
X032589Y027786D01*
X032795Y027786D01*
X032940Y027640D01*
X032940Y027627D01*
X033215Y027627D01*
X033223Y027619D01*
X033420Y027619D01*
X033428Y027627D01*
X033715Y027627D01*
X033723Y027619D01*
X033822Y027619D01*
X033822Y027736D01*
X033822Y027835D01*
X033860Y027927D01*
X033882Y027949D01*
X032731Y027949D01*
X032679Y028002D01*
X032679Y028743D01*
X032082Y029340D01*
X031454Y028713D01*
X031348Y028669D01*
X031233Y028669D01*
X031107Y028669D01*
X031000Y028713D01*
X030918Y028794D01*
X030281Y029432D01*
X030052Y029432D01*
X029999Y029484D01*
X029999Y029771D01*
X029996Y029779D01*
X029996Y029894D01*
X029999Y029902D01*
X029999Y030189D01*
X030052Y030241D01*
X030520Y030241D01*
X030573Y030189D01*
X030573Y029960D01*
X030908Y029625D01*
X030908Y029775D01*
X031029Y029897D01*
X031029Y030994D01*
X031018Y030998D01*
X030908Y031108D01*
X030849Y031251D01*
X030849Y031406D01*
X030908Y031550D01*
X030993Y031635D01*
X029937Y031635D01*
X029937Y029341D01*
X030015Y029262D01*
X030015Y029056D01*
X029870Y028911D01*
X029664Y028911D01*
X029518Y029056D01*
X029518Y029262D01*
X029597Y029341D01*
X029597Y031589D01*
X029551Y031635D01*
X029332Y031635D01*
X029487Y031479D01*
X029487Y031190D01*
X029282Y030985D01*
X028992Y030985D01*
X028787Y031190D01*
X028787Y031479D01*
X028942Y031635D01*
X028332Y031635D01*
X028487Y031479D01*
X028487Y031190D01*
X028282Y030985D01*
X027992Y030985D01*
X027787Y031190D01*
X027787Y031479D01*
X027942Y031635D01*
X027332Y031635D01*
X027354Y031613D02*
X027920Y031613D01*
X027861Y031554D02*
X027412Y031554D01*
X027471Y031495D02*
X027803Y031495D01*
X027787Y031437D02*
X027487Y031437D01*
X027487Y031378D02*
X027787Y031378D01*
X027787Y031320D02*
X027487Y031320D01*
X027487Y031261D02*
X027787Y031261D01*
X027787Y031203D02*
X027487Y031203D01*
X027441Y031144D02*
X027832Y031144D01*
X027891Y031086D02*
X027383Y031086D01*
X027324Y031027D02*
X027949Y031027D01*
X028324Y031027D02*
X028949Y031027D01*
X028891Y031086D02*
X028383Y031086D01*
X028441Y031144D02*
X028832Y031144D01*
X028787Y031203D02*
X028487Y031203D01*
X028487Y031261D02*
X028787Y031261D01*
X028787Y031320D02*
X028487Y031320D01*
X028487Y031378D02*
X028787Y031378D01*
X028787Y031437D02*
X028487Y031437D01*
X028471Y031495D02*
X028803Y031495D01*
X028861Y031554D02*
X028412Y031554D01*
X028354Y031613D02*
X028920Y031613D01*
X029354Y031613D02*
X029573Y031613D01*
X029597Y031554D02*
X029412Y031554D01*
X029471Y031495D02*
X029597Y031495D01*
X029597Y031437D02*
X029487Y031437D01*
X029487Y031378D02*
X029597Y031378D01*
X029597Y031320D02*
X029487Y031320D01*
X029487Y031261D02*
X029597Y031261D01*
X029597Y031203D02*
X029487Y031203D01*
X029441Y031144D02*
X029597Y031144D01*
X029597Y031086D02*
X029383Y031086D01*
X029324Y031027D02*
X029597Y031027D01*
X029597Y030969D02*
X026940Y030969D01*
X026940Y031027D02*
X026949Y031027D01*
X026940Y030910D02*
X029597Y030910D01*
X029597Y030851D02*
X026940Y030851D01*
X026940Y030793D02*
X029597Y030793D01*
X029597Y030734D02*
X026940Y030734D01*
X026940Y030676D02*
X029597Y030676D01*
X029597Y030617D02*
X026940Y030617D01*
X026940Y030559D02*
X029597Y030559D01*
X029597Y030500D02*
X026940Y030500D01*
X026940Y030442D02*
X029597Y030442D01*
X029597Y030383D02*
X026940Y030383D01*
X026940Y030325D02*
X029597Y030325D01*
X029597Y030266D02*
X026940Y030266D01*
X026940Y030207D02*
X029597Y030207D01*
X029597Y030149D02*
X026940Y030149D01*
X026940Y030090D02*
X029597Y030090D01*
X029597Y030032D02*
X026940Y030032D01*
X026940Y029973D02*
X029597Y029973D01*
X029597Y029915D02*
X026940Y029915D01*
X026940Y029856D02*
X029597Y029856D01*
X029597Y029798D02*
X026940Y029798D01*
X026940Y029739D02*
X029597Y029739D01*
X029597Y029681D02*
X026940Y029681D01*
X026940Y029622D02*
X029597Y029622D01*
X029597Y029564D02*
X026940Y029564D01*
X026940Y029505D02*
X029597Y029505D01*
X029597Y029446D02*
X026940Y029446D01*
X026940Y029388D02*
X029597Y029388D01*
X029585Y029329D02*
X026940Y029329D01*
X026940Y029271D02*
X029527Y029271D01*
X029518Y029212D02*
X026940Y029212D01*
X026940Y029154D02*
X029518Y029154D01*
X029518Y029095D02*
X026940Y029095D01*
X026940Y029037D02*
X029538Y029037D01*
X029596Y028978D02*
X028795Y028978D01*
X028853Y028920D02*
X029655Y028920D01*
X029878Y028920D02*
X030793Y028920D01*
X030735Y028978D02*
X029937Y028978D01*
X029995Y029037D02*
X030676Y029037D01*
X030618Y029095D02*
X030015Y029095D01*
X030015Y029154D02*
X030559Y029154D01*
X030500Y029212D02*
X030015Y029212D01*
X030007Y029271D02*
X030442Y029271D01*
X030383Y029329D02*
X029948Y029329D01*
X029937Y029388D02*
X030325Y029388D01*
X030037Y029446D02*
X029937Y029446D01*
X029937Y029505D02*
X029999Y029505D01*
X029999Y029564D02*
X029937Y029564D01*
X029937Y029622D02*
X029999Y029622D01*
X029999Y029681D02*
X029937Y029681D01*
X029937Y029739D02*
X029999Y029739D01*
X029996Y029798D02*
X029937Y029798D01*
X029937Y029856D02*
X029996Y029856D01*
X029999Y029915D02*
X029937Y029915D01*
X029937Y029973D02*
X029999Y029973D01*
X029999Y030032D02*
X029937Y030032D01*
X029937Y030090D02*
X029999Y030090D01*
X029999Y030149D02*
X029937Y030149D01*
X029937Y030207D02*
X030018Y030207D01*
X029937Y030266D02*
X031029Y030266D01*
X031029Y030207D02*
X030554Y030207D01*
X030573Y030149D02*
X031029Y030149D01*
X031029Y030090D02*
X030573Y030090D01*
X030573Y030032D02*
X031029Y030032D01*
X031029Y029973D02*
X030573Y029973D01*
X030618Y029915D02*
X031029Y029915D01*
X030989Y029856D02*
X030677Y029856D01*
X030735Y029798D02*
X030930Y029798D01*
X030908Y029739D02*
X030794Y029739D01*
X030852Y029681D02*
X030908Y029681D01*
X031449Y029889D02*
X031449Y030994D01*
X031460Y030998D01*
X031570Y031108D01*
X031629Y031251D01*
X031629Y031406D01*
X031570Y031550D01*
X031485Y031635D01*
X031993Y031635D01*
X031908Y031550D01*
X031849Y031406D01*
X031849Y031251D01*
X031908Y031108D01*
X032018Y030998D01*
X032161Y030939D01*
X032317Y030939D01*
X032460Y030998D01*
X032570Y031108D01*
X032629Y031251D01*
X032629Y031406D01*
X032570Y031550D01*
X032485Y031635D01*
X032993Y031635D01*
X032908Y031550D01*
X032849Y031406D01*
X032849Y031251D01*
X032908Y031108D01*
X033018Y030998D01*
X033161Y030939D01*
X033317Y030939D01*
X033460Y030998D01*
X033570Y031108D01*
X033629Y031251D01*
X033629Y031406D01*
X033570Y031550D01*
X033485Y031635D01*
X033993Y031635D01*
X033908Y031550D01*
X033849Y031406D01*
X033849Y031251D01*
X033908Y031108D01*
X034018Y030998D01*
X034161Y030939D01*
X034317Y030939D01*
X034460Y030998D01*
X034570Y031108D01*
X034629Y031251D01*
X034629Y031406D01*
X034570Y031550D01*
X034485Y031635D01*
X034993Y031635D01*
X034908Y031550D01*
X034849Y031406D01*
X034849Y031251D01*
X034908Y031108D01*
X035018Y030998D01*
X035161Y030939D01*
X035317Y030939D01*
X035460Y030998D01*
X035570Y031108D01*
X035629Y031251D01*
X035629Y031406D01*
X035570Y031550D01*
X035485Y031635D01*
X035993Y031635D01*
X035908Y031550D01*
X035849Y031406D01*
X035849Y031251D01*
X035908Y031108D01*
X036018Y030998D01*
X036161Y030939D01*
X036317Y030939D01*
X036460Y030998D01*
X036570Y031108D01*
X036629Y031251D01*
X036629Y031406D01*
X036570Y031550D01*
X036485Y031635D01*
X036993Y031635D01*
X036908Y031550D01*
X036849Y031406D01*
X036849Y031251D01*
X036908Y031108D01*
X037018Y030998D01*
X037161Y030939D01*
X037317Y030939D01*
X037460Y030998D01*
X037570Y031108D01*
X037629Y031251D01*
X037629Y031406D01*
X037570Y031550D01*
X037485Y031635D01*
X037809Y031635D01*
X037809Y031359D01*
X038209Y031359D01*
X038209Y031299D01*
X037809Y031299D01*
X037809Y030975D01*
X037885Y030899D01*
X038209Y030899D01*
X038209Y031298D01*
X038269Y031298D01*
X038269Y030899D01*
X038593Y030899D01*
X038669Y030975D01*
X038669Y031299D01*
X038269Y031299D01*
X038269Y031359D01*
X038669Y031359D01*
X038669Y031635D01*
X038937Y031635D01*
X038937Y029635D01*
X039689Y028887D01*
X039688Y028549D01*
X039363Y028549D01*
X039363Y028134D01*
X039304Y028134D01*
X039304Y028549D01*
X038748Y028549D01*
X038722Y028523D01*
X038722Y028780D01*
X038703Y028826D01*
X038703Y029579D01*
X038650Y029631D01*
X037914Y029631D01*
X037862Y029579D01*
X037862Y028165D01*
X037914Y028113D01*
X038142Y028113D01*
X038142Y027290D01*
X038127Y027275D01*
X038127Y027198D01*
X038096Y027166D01*
X038094Y027162D01*
X038090Y027158D01*
X038072Y027108D01*
X038051Y027060D01*
X038051Y027055D01*
X038050Y027050D01*
X038051Y026997D01*
X038051Y026952D01*
X038041Y026942D01*
X037740Y026942D01*
X037739Y026941D01*
X037577Y026941D01*
X037524Y026888D01*
X037524Y026687D01*
X037460Y026687D01*
X037460Y026735D01*
X037314Y026880D01*
X037109Y026880D01*
X036963Y026735D01*
X036963Y026529D01*
X037041Y026451D01*
X036754Y026451D01*
X036637Y026568D01*
X036637Y027175D01*
X036538Y027274D01*
X036235Y027577D01*
X036094Y027577D01*
X035743Y027577D01*
X035778Y027612D01*
X035779Y027616D01*
X035814Y027651D01*
X035814Y027701D01*
X035816Y027704D01*
X035816Y027804D01*
X035814Y027807D01*
X038142Y027807D01*
X038142Y027749D02*
X035816Y027749D01*
X035814Y027807D02*
X035814Y027857D01*
X035779Y027892D01*
X035778Y027895D01*
X035676Y027997D01*
X035672Y027999D01*
X035669Y028002D01*
X035664Y028002D01*
X035584Y028035D01*
X035485Y028035D01*
X034965Y028035D01*
X034965Y028149D01*
X035001Y028113D01*
X035737Y028113D01*
X035790Y028165D01*
X035790Y029579D01*
X035737Y029631D01*
X035001Y029631D01*
X034965Y029595D01*
X034965Y029829D01*
X034912Y029881D01*
X032731Y029881D01*
X032679Y029829D01*
X032679Y029563D01*
X032372Y029870D01*
X032372Y029894D01*
X032368Y029902D01*
X032368Y030189D01*
X032316Y030241D01*
X031847Y030241D01*
X031795Y030189D01*
X031795Y029902D01*
X031792Y029894D01*
X031792Y029870D01*
X031563Y029641D01*
X031563Y029775D01*
X031449Y029889D01*
X031449Y029915D02*
X031795Y029915D01*
X031795Y029973D02*
X031449Y029973D01*
X031449Y030032D02*
X031795Y030032D01*
X031795Y030090D02*
X031449Y030090D01*
X031449Y030149D02*
X031795Y030149D01*
X031813Y030207D02*
X031449Y030207D01*
X031449Y030266D02*
X038937Y030266D01*
X038937Y030207D02*
X032350Y030207D01*
X032368Y030149D02*
X038937Y030149D01*
X038937Y030090D02*
X032368Y030090D01*
X032368Y030032D02*
X038937Y030032D01*
X038937Y029973D02*
X032368Y029973D01*
X032368Y029915D02*
X038937Y029915D01*
X038937Y029856D02*
X034937Y029856D01*
X034965Y029798D02*
X038937Y029798D01*
X038937Y029739D02*
X034965Y029739D01*
X034965Y029681D02*
X038937Y029681D01*
X038949Y029622D02*
X038659Y029622D01*
X038703Y029564D02*
X039008Y029564D01*
X039067Y029505D02*
X038703Y029505D01*
X038703Y029446D02*
X039126Y029446D01*
X039185Y029388D02*
X038703Y029388D01*
X038703Y029329D02*
X039244Y029329D01*
X039302Y029271D02*
X038703Y029271D01*
X038703Y029212D02*
X039361Y029212D01*
X039420Y029154D02*
X038703Y029154D01*
X038703Y029095D02*
X039479Y029095D01*
X039538Y029037D02*
X038703Y029037D01*
X038703Y028978D02*
X039597Y028978D01*
X039655Y028920D02*
X038703Y028920D01*
X038703Y028861D02*
X039689Y028861D01*
X039689Y028802D02*
X038713Y028802D01*
X038722Y028744D02*
X039689Y028744D01*
X039688Y028685D02*
X038722Y028685D01*
X038722Y028627D02*
X039688Y028627D01*
X039688Y028568D02*
X038722Y028568D01*
X039304Y028510D02*
X039363Y028510D01*
X039363Y028451D02*
X039304Y028451D01*
X039304Y028393D02*
X039363Y028393D01*
X039363Y028334D02*
X039304Y028334D01*
X039304Y028276D02*
X039363Y028276D01*
X039363Y028217D02*
X039304Y028217D01*
X039304Y028158D02*
X039363Y028158D01*
X039363Y028074D02*
X039363Y027659D01*
X039687Y027659D01*
X039687Y027407D01*
X039506Y027407D01*
X039421Y027442D01*
X039246Y027442D01*
X039161Y027407D01*
X038765Y027407D01*
X038722Y027364D01*
X038722Y027686D01*
X038748Y027659D01*
X039304Y027659D01*
X039304Y028074D01*
X039363Y028074D01*
X039363Y028041D02*
X039304Y028041D01*
X039304Y027983D02*
X039363Y027983D01*
X039363Y027924D02*
X039304Y027924D01*
X039304Y027866D02*
X039363Y027866D01*
X039363Y027807D02*
X039304Y027807D01*
X039304Y027749D02*
X039363Y027749D01*
X039363Y027690D02*
X039304Y027690D01*
X039687Y027632D02*
X038722Y027632D01*
X038722Y027573D02*
X039687Y027573D01*
X039687Y027514D02*
X038722Y027514D01*
X038722Y027456D02*
X039687Y027456D01*
X040168Y028246D02*
X040168Y026663D01*
X042562Y024270D01*
X043263Y024270D01*
X044152Y023380D01*
X044152Y021329D01*
X043786Y020963D01*
X043786Y020463D01*
X041637Y020489D02*
X040752Y020489D01*
X040752Y020431D02*
X041637Y020431D01*
X041637Y020372D02*
X040752Y020372D01*
X040752Y020314D02*
X041637Y020314D01*
X041637Y020285D02*
X040752Y020285D01*
X040752Y021649D01*
X040664Y021736D01*
X039910Y021736D01*
X039822Y021649D01*
X039822Y020245D01*
X037694Y020245D01*
X037671Y020267D01*
X036956Y020267D01*
X036868Y020179D01*
X036868Y020154D01*
X036834Y020120D01*
X036755Y020120D01*
X036590Y020120D01*
X036504Y020035D01*
X036387Y019917D01*
X036387Y018317D01*
X036387Y018152D01*
X036437Y018102D01*
X036554Y017985D01*
X036868Y017985D01*
X036868Y017890D01*
X036956Y017802D01*
X037671Y017802D01*
X037759Y017890D01*
X037759Y018408D01*
X037722Y018444D01*
X037759Y018480D01*
X037759Y018732D01*
X037770Y018721D01*
X038603Y018721D01*
X038691Y018809D01*
X038691Y018876D01*
X038707Y018876D01*
X038877Y018706D01*
X038877Y017996D01*
X038877Y017873D01*
X038924Y017759D01*
X039124Y017559D01*
X039211Y017472D01*
X039325Y017425D01*
X041526Y017425D01*
X041347Y017246D01*
X041347Y016892D01*
X041475Y016765D01*
X040561Y016765D01*
X040111Y017215D01*
X039962Y017215D01*
X035011Y017215D01*
X034844Y017382D01*
X035203Y017382D01*
X035359Y017226D01*
X035614Y017226D01*
X035795Y017407D01*
X035795Y017662D01*
X035614Y017843D01*
X035359Y017843D01*
X035258Y017742D01*
X034834Y017742D01*
X034439Y018137D01*
X034291Y018137D01*
X034291Y018426D01*
X034291Y018741D01*
X034291Y019056D01*
X034291Y019371D01*
X034291Y019686D01*
X034291Y020007D01*
X034287Y020011D01*
X034287Y021065D01*
X034297Y021065D01*
X034297Y020822D01*
X034384Y020735D01*
X036989Y020735D01*
X037077Y020822D01*
X037077Y020892D01*
X037257Y020892D01*
X037257Y020739D01*
X037491Y020505D01*
X037682Y020505D01*
X039182Y020505D01*
X039317Y020639D01*
X039317Y020639D01*
X039567Y020889D01*
X039567Y021080D01*
X039567Y021539D01*
X039782Y021755D01*
X040232Y021755D01*
X040367Y021889D01*
X040467Y021989D01*
X040467Y022180D01*
X040467Y022747D01*
X041637Y022747D01*
X041637Y021125D01*
X041531Y021019D01*
X041531Y020626D01*
X041637Y020520D01*
X041637Y020285D01*
X041609Y020548D02*
X040752Y020548D01*
X040752Y020606D02*
X041550Y020606D01*
X041531Y020665D02*
X040752Y020665D01*
X040752Y020723D02*
X041531Y020723D01*
X041531Y020782D02*
X040752Y020782D01*
X040752Y020841D02*
X041531Y020841D01*
X041531Y020899D02*
X040752Y020899D01*
X040752Y020958D02*
X041531Y020958D01*
X041531Y021016D02*
X040752Y021016D01*
X040752Y021075D02*
X041587Y021075D01*
X041637Y021133D02*
X040752Y021133D01*
X040752Y021192D02*
X041637Y021192D01*
X041637Y021250D02*
X040752Y021250D01*
X040752Y021309D02*
X041637Y021309D01*
X041637Y021367D02*
X040752Y021367D01*
X040752Y021426D02*
X041637Y021426D01*
X041637Y021485D02*
X040752Y021485D01*
X040752Y021543D02*
X041637Y021543D01*
X041637Y021602D02*
X040752Y021602D01*
X040740Y021660D02*
X041637Y021660D01*
X041637Y021719D02*
X040682Y021719D01*
X040430Y021953D02*
X041637Y021953D01*
X041637Y022011D02*
X040467Y022011D01*
X040467Y022070D02*
X041637Y022070D01*
X041637Y022129D02*
X040467Y022129D01*
X040467Y022187D02*
X041637Y022187D01*
X041637Y022246D02*
X040467Y022246D01*
X040467Y022304D02*
X041637Y022304D01*
X041637Y022363D02*
X040467Y022363D01*
X040467Y022421D02*
X041637Y022421D01*
X041637Y022480D02*
X040467Y022480D01*
X040467Y022538D02*
X041637Y022538D01*
X041637Y022597D02*
X040467Y022597D01*
X040467Y022655D02*
X041637Y022655D01*
X041637Y022714D02*
X040467Y022714D01*
X040237Y022927D02*
X041948Y022927D01*
X042589Y022285D01*
X041637Y021894D02*
X040372Y021894D01*
X040313Y021836D02*
X041637Y021836D01*
X041637Y021777D02*
X040255Y021777D01*
X039892Y021719D02*
X039746Y021719D01*
X039688Y021660D02*
X039833Y021660D01*
X039822Y021602D02*
X039629Y021602D01*
X039570Y021543D02*
X039822Y021543D01*
X039822Y021485D02*
X039567Y021485D01*
X039567Y021426D02*
X039822Y021426D01*
X039822Y021367D02*
X039567Y021367D01*
X039567Y021309D02*
X039822Y021309D01*
X039822Y021250D02*
X039567Y021250D01*
X039567Y021192D02*
X039822Y021192D01*
X039822Y021133D02*
X039567Y021133D01*
X039567Y021075D02*
X039822Y021075D01*
X039822Y021016D02*
X039567Y021016D01*
X039567Y020958D02*
X039822Y020958D01*
X039822Y020899D02*
X039567Y020899D01*
X039518Y020841D02*
X039822Y020841D01*
X039822Y020782D02*
X039459Y020782D01*
X039401Y020723D02*
X039822Y020723D01*
X039822Y020665D02*
X039342Y020665D01*
X039284Y020606D02*
X039822Y020606D01*
X039822Y020548D02*
X039225Y020548D01*
X039043Y021016D02*
X038020Y021016D01*
X038020Y021075D02*
X039102Y021075D01*
X039107Y021133D02*
X038020Y021133D01*
X038020Y021192D02*
X039107Y021192D01*
X039107Y021250D02*
X038020Y021250D01*
X038020Y021309D02*
X039107Y021309D01*
X039107Y021367D02*
X038020Y021367D01*
X038020Y021426D02*
X039107Y021426D01*
X039107Y021485D02*
X038020Y021485D01*
X038020Y021543D02*
X039107Y021543D01*
X039107Y021602D02*
X038020Y021602D01*
X038020Y021660D02*
X039107Y021660D01*
X039107Y021719D02*
X038020Y021719D01*
X038020Y021777D02*
X039154Y021777D01*
X039213Y021836D02*
X038020Y021836D01*
X038020Y021894D02*
X039271Y021894D01*
X039330Y021953D02*
X038020Y021953D01*
X038020Y022011D02*
X039388Y022011D01*
X039447Y022070D02*
X038020Y022070D01*
X037980Y022129D02*
X039505Y022129D01*
X039542Y022187D02*
X034287Y022187D01*
X034287Y022129D02*
X036992Y022129D01*
X036952Y022070D02*
X034287Y022070D01*
X034287Y022011D02*
X036952Y022011D01*
X036952Y021953D02*
X034287Y021953D01*
X034287Y021894D02*
X036952Y021894D01*
X036989Y022246D02*
X034287Y022246D01*
X034287Y022304D02*
X036930Y022304D01*
X036912Y022363D02*
X034287Y022363D01*
X034287Y022421D02*
X034351Y022421D01*
X034297Y022480D02*
X034287Y022480D01*
X034287Y022538D02*
X034297Y022538D01*
X034287Y022597D02*
X034297Y022597D01*
X034287Y022655D02*
X034297Y022655D01*
X034287Y022714D02*
X034297Y022714D01*
X034287Y022772D02*
X034297Y022772D01*
X034287Y022831D02*
X034297Y022831D01*
X034287Y022890D02*
X034297Y022890D01*
X034287Y022948D02*
X034297Y022948D01*
X034287Y023007D02*
X034297Y023007D01*
X034287Y023065D02*
X034297Y023065D01*
X034287Y023124D02*
X034297Y023124D01*
X034287Y023182D02*
X034297Y023182D01*
X034287Y023241D02*
X034297Y023241D01*
X034287Y023299D02*
X034297Y023299D01*
X034287Y023358D02*
X034297Y023358D01*
X034287Y023416D02*
X034297Y023416D01*
X034287Y023475D02*
X034325Y023475D01*
X034287Y023534D02*
X034383Y023534D01*
X032537Y022585D02*
X032461Y022660D01*
X031447Y022772D02*
X029827Y022772D01*
X029827Y022831D02*
X031447Y022831D01*
X031447Y022890D02*
X029827Y022890D01*
X029827Y022948D02*
X031447Y022948D01*
X031482Y023007D02*
X029792Y023007D01*
X029087Y022585D02*
X028912Y022759D01*
X028912Y022760D01*
X028737Y022585D01*
X028772Y023592D02*
X025897Y023592D01*
X025897Y023651D02*
X028659Y023651D01*
X028627Y023709D02*
X025897Y023709D01*
X025897Y023768D02*
X028627Y023768D01*
X028627Y023826D02*
X025897Y023826D01*
X025897Y023885D02*
X028627Y023885D01*
X028627Y023943D02*
X025897Y023943D01*
X025897Y024002D02*
X028627Y024002D01*
X028627Y024060D02*
X025897Y024060D01*
X025923Y024119D02*
X028627Y024119D01*
X028887Y023935D02*
X028912Y023935D01*
X029197Y024002D02*
X029236Y024002D01*
X029236Y024060D02*
X029197Y024060D01*
X029197Y024119D02*
X029236Y024119D01*
X030121Y025640D02*
X030110Y025652D01*
X032284Y025652D01*
X032337Y025705D01*
X032337Y026793D01*
X033426Y026793D01*
X033410Y026776D01*
X033410Y026557D01*
X033725Y026557D01*
X033725Y026497D01*
X033785Y026497D01*
X033785Y026202D01*
X034024Y026202D01*
X034090Y026269D01*
X034090Y026260D01*
X034143Y026207D01*
X034572Y026207D01*
X034624Y026260D01*
X034624Y026394D01*
X034677Y026394D01*
X034677Y026083D01*
X034729Y026030D01*
X035158Y026030D01*
X035211Y026083D01*
X035211Y026088D01*
X035216Y026088D01*
X035216Y026083D01*
X035269Y026030D01*
X035698Y026030D01*
X035702Y026035D01*
X035702Y026014D01*
X036020Y026014D01*
X036020Y025995D01*
X035702Y025995D01*
X035702Y025872D01*
X035750Y025825D01*
X035149Y025825D01*
X035049Y025825D01*
X034949Y025825D01*
X034787Y025758D01*
X034668Y025638D01*
X034591Y025715D01*
X034624Y025748D01*
X034624Y026098D01*
X034572Y026151D01*
X034460Y026151D01*
X034407Y026173D01*
X033805Y026173D01*
X033705Y026173D01*
X033681Y026163D01*
X033503Y026163D01*
X033450Y026110D01*
X033450Y025646D01*
X033455Y025640D01*
X030121Y025640D01*
X030121Y025641D02*
X033455Y025641D01*
X033450Y025700D02*
X032332Y025700D01*
X032337Y025758D02*
X033450Y025758D01*
X033450Y025817D02*
X032337Y025817D01*
X032337Y025875D02*
X033450Y025875D01*
X033450Y025934D02*
X032337Y025934D01*
X032337Y025992D02*
X033450Y025992D01*
X033450Y026051D02*
X032337Y026051D01*
X032337Y026109D02*
X033450Y026109D01*
X033486Y026202D02*
X033725Y026202D01*
X033725Y026497D01*
X033410Y026497D01*
X033410Y026278D01*
X033486Y026202D01*
X033462Y026227D02*
X032337Y026227D01*
X032337Y026285D02*
X033410Y026285D01*
X033410Y026344D02*
X032337Y026344D01*
X032337Y026402D02*
X033410Y026402D01*
X033410Y026461D02*
X032337Y026461D01*
X032337Y026519D02*
X033725Y026519D01*
X033725Y026461D02*
X033785Y026461D01*
X033785Y026402D02*
X033725Y026402D01*
X033725Y026344D02*
X033785Y026344D01*
X033785Y026285D02*
X033725Y026285D01*
X033725Y026227D02*
X033785Y026227D01*
X033693Y026168D02*
X032337Y026168D01*
X032337Y026578D02*
X033410Y026578D01*
X033410Y026636D02*
X032337Y026636D01*
X032337Y026695D02*
X033410Y026695D01*
X033410Y026753D02*
X032337Y026753D01*
X032337Y027163D02*
X034013Y027163D01*
X034081Y027105D02*
X035774Y027105D01*
X035774Y027163D02*
X034131Y027163D01*
X034140Y027046D02*
X035774Y027046D01*
X035764Y026988D02*
X035776Y026988D01*
X035800Y027222D02*
X034746Y027222D01*
X034720Y026988D02*
X034198Y026988D01*
X034246Y027222D02*
X034398Y027222D01*
X034375Y027280D02*
X034289Y027280D01*
X034313Y027339D02*
X034375Y027339D01*
X034375Y027397D02*
X034322Y027397D01*
X034322Y027456D02*
X034375Y027456D01*
X034375Y027514D02*
X034322Y027514D01*
X033822Y027632D02*
X032940Y027632D01*
X032890Y027690D02*
X033822Y027690D01*
X033822Y027749D02*
X032832Y027749D01*
X032698Y027983D02*
X032337Y027983D01*
X032337Y028041D02*
X032679Y028041D01*
X032679Y028100D02*
X032337Y028100D01*
X032337Y028158D02*
X032679Y028158D01*
X032679Y028217D02*
X032337Y028217D01*
X032337Y027924D02*
X033859Y027924D01*
X033834Y027866D02*
X032337Y027866D01*
X032337Y027807D02*
X033822Y027807D01*
X034965Y028041D02*
X038142Y028041D01*
X038142Y027983D02*
X035690Y027983D01*
X035749Y027924D02*
X038142Y027924D01*
X038142Y027866D02*
X035805Y027866D01*
X035814Y027690D02*
X038142Y027690D01*
X038142Y027632D02*
X035795Y027632D01*
X036239Y027573D02*
X038142Y027573D01*
X038142Y027514D02*
X036298Y027514D01*
X036356Y027456D02*
X038142Y027456D01*
X038142Y027397D02*
X036415Y027397D01*
X036473Y027339D02*
X038142Y027339D01*
X038132Y027280D02*
X036532Y027280D01*
X036590Y027222D02*
X038127Y027222D01*
X038094Y027163D02*
X036637Y027163D01*
X036637Y027105D02*
X038070Y027105D01*
X038050Y027046D02*
X036637Y027046D01*
X036637Y026988D02*
X038051Y026988D01*
X037565Y026929D02*
X036637Y026929D01*
X036637Y026871D02*
X037099Y026871D01*
X037040Y026812D02*
X036637Y026812D01*
X036637Y026753D02*
X036982Y026753D01*
X036963Y026695D02*
X036637Y026695D01*
X036637Y026636D02*
X036963Y026636D01*
X036963Y026578D02*
X036637Y026578D01*
X036686Y026519D02*
X036973Y026519D01*
X037031Y026461D02*
X036745Y026461D01*
X036498Y026227D02*
X036316Y026227D01*
X036316Y026177D02*
X036316Y026376D01*
X036304Y026388D01*
X036316Y026400D01*
X036316Y026409D01*
X036514Y026211D01*
X036614Y026111D01*
X037484Y026111D01*
X037484Y026014D01*
X037801Y026014D01*
X037801Y025995D01*
X037484Y025995D01*
X037484Y025872D01*
X037531Y025825D01*
X036749Y025825D01*
X036309Y025825D01*
X036356Y025872D01*
X036356Y025995D01*
X036039Y025995D01*
X036039Y026014D01*
X036356Y026014D01*
X036356Y026137D01*
X036316Y026177D01*
X036325Y026168D02*
X036557Y026168D01*
X036440Y026285D02*
X036316Y026285D01*
X036316Y026344D02*
X036381Y026344D01*
X036323Y026402D02*
X036316Y026402D01*
X036356Y026109D02*
X037484Y026109D01*
X037484Y026051D02*
X036356Y026051D01*
X036356Y025992D02*
X037484Y025992D01*
X037484Y025934D02*
X036356Y025934D01*
X036356Y025875D02*
X037484Y025875D01*
X037820Y025995D02*
X037820Y026014D01*
X038138Y026014D01*
X038138Y026095D01*
X038163Y026069D01*
X038402Y026069D01*
X038402Y026364D01*
X038098Y026364D01*
X038098Y026376D01*
X038086Y026388D01*
X038098Y026400D01*
X038098Y026424D01*
X038402Y026424D01*
X038402Y026364D01*
X038462Y026364D01*
X038462Y026424D01*
X038777Y026424D01*
X038777Y026597D01*
X038894Y026597D01*
X038894Y025825D01*
X038090Y025825D01*
X038138Y025872D01*
X038138Y025995D01*
X037820Y025995D01*
X038138Y025992D02*
X038894Y025992D01*
X038894Y025934D02*
X038138Y025934D01*
X038138Y025875D02*
X038894Y025875D01*
X038894Y026051D02*
X038138Y026051D01*
X038402Y026109D02*
X038462Y026109D01*
X038462Y026069D02*
X038701Y026069D01*
X038777Y026145D01*
X038777Y026364D01*
X038462Y026364D01*
X038462Y026069D01*
X038462Y026168D02*
X038402Y026168D01*
X038402Y026227D02*
X038462Y026227D01*
X038462Y026285D02*
X038402Y026285D01*
X038402Y026344D02*
X038462Y026344D01*
X038462Y026402D02*
X038894Y026402D01*
X038894Y026344D02*
X038777Y026344D01*
X038777Y026285D02*
X038894Y026285D01*
X038894Y026227D02*
X038777Y026227D01*
X038777Y026168D02*
X038894Y026168D01*
X038894Y026109D02*
X038741Y026109D01*
X038777Y026461D02*
X038894Y026461D01*
X038894Y026519D02*
X038777Y026519D01*
X038777Y026578D02*
X038894Y026578D01*
X038402Y026402D02*
X038098Y026402D01*
X037524Y026695D02*
X037460Y026695D01*
X037441Y026753D02*
X037524Y026753D01*
X037524Y026812D02*
X037383Y026812D01*
X037324Y026871D02*
X037524Y026871D01*
X038722Y027397D02*
X038755Y027397D01*
X038142Y028100D02*
X034965Y028100D01*
X035783Y028158D02*
X037869Y028158D01*
X037862Y028217D02*
X035790Y028217D01*
X035790Y028276D02*
X037862Y028276D01*
X037862Y028334D02*
X035790Y028334D01*
X035790Y028393D02*
X037862Y028393D01*
X037862Y028451D02*
X035790Y028451D01*
X035790Y028510D02*
X037862Y028510D01*
X037862Y028568D02*
X035790Y028568D01*
X035790Y028627D02*
X037862Y028627D01*
X037862Y028685D02*
X035790Y028685D01*
X035790Y028744D02*
X037862Y028744D01*
X037862Y028802D02*
X035790Y028802D01*
X035790Y028861D02*
X037862Y028861D01*
X037862Y028920D02*
X035790Y028920D01*
X035790Y028978D02*
X037862Y028978D01*
X037862Y029037D02*
X035790Y029037D01*
X035790Y029095D02*
X037862Y029095D01*
X037862Y029154D02*
X035790Y029154D01*
X035790Y029212D02*
X037862Y029212D01*
X037862Y029271D02*
X035790Y029271D01*
X035790Y029329D02*
X037862Y029329D01*
X037862Y029388D02*
X035790Y029388D01*
X035790Y029446D02*
X037862Y029446D01*
X037862Y029505D02*
X035790Y029505D01*
X035790Y029564D02*
X037862Y029564D01*
X037905Y029622D02*
X035746Y029622D01*
X034992Y029622D02*
X034965Y029622D01*
X035089Y030969D02*
X034389Y030969D01*
X034489Y031027D02*
X034989Y031027D01*
X034931Y031086D02*
X034548Y031086D01*
X034585Y031144D02*
X034893Y031144D01*
X034869Y031203D02*
X034609Y031203D01*
X034629Y031261D02*
X034849Y031261D01*
X034849Y031320D02*
X034629Y031320D01*
X034629Y031378D02*
X034849Y031378D01*
X034862Y031437D02*
X034616Y031437D01*
X034592Y031495D02*
X034886Y031495D01*
X034913Y031554D02*
X034565Y031554D01*
X034507Y031613D02*
X034971Y031613D01*
X035507Y031613D02*
X035971Y031613D01*
X035913Y031554D02*
X035565Y031554D01*
X035592Y031495D02*
X035886Y031495D01*
X035862Y031437D02*
X035616Y031437D01*
X035629Y031378D02*
X035849Y031378D01*
X035849Y031320D02*
X035629Y031320D01*
X035629Y031261D02*
X035849Y031261D01*
X035869Y031203D02*
X035609Y031203D01*
X035585Y031144D02*
X035893Y031144D01*
X035931Y031086D02*
X035548Y031086D01*
X035489Y031027D02*
X035989Y031027D01*
X036089Y030969D02*
X035389Y030969D01*
X036389Y030969D02*
X037089Y030969D01*
X036989Y031027D02*
X036489Y031027D01*
X036548Y031086D02*
X036931Y031086D01*
X036893Y031144D02*
X036585Y031144D01*
X036609Y031203D02*
X036869Y031203D01*
X036849Y031261D02*
X036629Y031261D01*
X036629Y031320D02*
X036849Y031320D01*
X036849Y031378D02*
X036629Y031378D01*
X036616Y031437D02*
X036862Y031437D01*
X036886Y031495D02*
X036592Y031495D01*
X036565Y031554D02*
X036913Y031554D01*
X036971Y031613D02*
X036507Y031613D01*
X037389Y030969D02*
X037815Y030969D01*
X037809Y031027D02*
X037489Y031027D01*
X037548Y031086D02*
X037809Y031086D01*
X037809Y031144D02*
X037585Y031144D01*
X037609Y031203D02*
X037809Y031203D01*
X037809Y031261D02*
X037629Y031261D01*
X037629Y031320D02*
X038209Y031320D01*
X038209Y031261D02*
X038269Y031261D01*
X038269Y031203D02*
X038209Y031203D01*
X038209Y031144D02*
X038269Y031144D01*
X038269Y031086D02*
X038209Y031086D01*
X038209Y031027D02*
X038269Y031027D01*
X038269Y030969D02*
X038209Y030969D01*
X038209Y030910D02*
X038269Y030910D01*
X038604Y030910D02*
X038937Y030910D01*
X038937Y030969D02*
X038663Y030969D01*
X038669Y031027D02*
X038937Y031027D01*
X038937Y031086D02*
X038669Y031086D01*
X038669Y031144D02*
X038937Y031144D01*
X038937Y031203D02*
X038669Y031203D01*
X038669Y031261D02*
X038937Y031261D01*
X038937Y031320D02*
X038269Y031320D01*
X038669Y031378D02*
X038937Y031378D01*
X038937Y031437D02*
X038669Y031437D01*
X038669Y031495D02*
X038937Y031495D01*
X038937Y031554D02*
X038669Y031554D01*
X038669Y031613D02*
X038937Y031613D01*
X038937Y030851D02*
X031449Y030851D01*
X031449Y030793D02*
X038937Y030793D01*
X038937Y030734D02*
X031449Y030734D01*
X031449Y030676D02*
X038937Y030676D01*
X038937Y030617D02*
X031449Y030617D01*
X031449Y030559D02*
X038937Y030559D01*
X038937Y030500D02*
X031449Y030500D01*
X031449Y030442D02*
X038937Y030442D01*
X038937Y030383D02*
X031449Y030383D01*
X031449Y030325D02*
X038937Y030325D01*
X037874Y030910D02*
X031449Y030910D01*
X031449Y030969D02*
X032089Y030969D01*
X031989Y031027D02*
X031489Y031027D01*
X031548Y031086D02*
X031931Y031086D01*
X031893Y031144D02*
X031585Y031144D01*
X031609Y031203D02*
X031869Y031203D01*
X031849Y031261D02*
X031629Y031261D01*
X031629Y031320D02*
X031849Y031320D01*
X031849Y031378D02*
X031629Y031378D01*
X031616Y031437D02*
X031862Y031437D01*
X031886Y031495D02*
X031592Y031495D01*
X031565Y031554D02*
X031913Y031554D01*
X031971Y031613D02*
X031507Y031613D01*
X030971Y031613D02*
X029937Y031613D01*
X029937Y031554D02*
X030913Y031554D01*
X030886Y031495D02*
X029937Y031495D01*
X029937Y031437D02*
X030862Y031437D01*
X030849Y031378D02*
X029937Y031378D01*
X029937Y031320D02*
X030849Y031320D01*
X030849Y031261D02*
X029937Y031261D01*
X029937Y031203D02*
X030869Y031203D01*
X030893Y031144D02*
X029937Y031144D01*
X029937Y031086D02*
X030931Y031086D01*
X030989Y031027D02*
X029937Y031027D01*
X029937Y030969D02*
X031029Y030969D01*
X031029Y030910D02*
X029937Y030910D01*
X029937Y030851D02*
X031029Y030851D01*
X031029Y030793D02*
X029937Y030793D01*
X029937Y030734D02*
X031029Y030734D01*
X031029Y030676D02*
X029937Y030676D01*
X029937Y030617D02*
X031029Y030617D01*
X031029Y030559D02*
X029937Y030559D01*
X029937Y030500D02*
X031029Y030500D01*
X031029Y030442D02*
X029937Y030442D01*
X029937Y030383D02*
X031029Y030383D01*
X031029Y030325D02*
X029937Y030325D01*
X031482Y029856D02*
X031778Y029856D01*
X031719Y029798D02*
X031540Y029798D01*
X031563Y029739D02*
X031661Y029739D01*
X031602Y029681D02*
X031563Y029681D01*
X032013Y029271D02*
X032151Y029271D01*
X032209Y029212D02*
X031954Y029212D01*
X031895Y029154D02*
X032268Y029154D01*
X032326Y029095D02*
X031837Y029095D01*
X031778Y029037D02*
X032385Y029037D01*
X032443Y028978D02*
X031720Y028978D01*
X031661Y028920D02*
X032502Y028920D01*
X032560Y028861D02*
X031603Y028861D01*
X031544Y028802D02*
X032619Y028802D01*
X032677Y028744D02*
X031486Y028744D01*
X031388Y028685D02*
X032679Y028685D01*
X032679Y028627D02*
X028930Y028627D01*
X028935Y028685D02*
X031066Y028685D01*
X030969Y028744D02*
X028935Y028744D01*
X028935Y028802D02*
X030910Y028802D01*
X030852Y028861D02*
X028912Y028861D01*
X028687Y028735D02*
X028537Y028585D01*
X026687Y028585D01*
X026940Y028451D02*
X032679Y028451D01*
X032679Y028393D02*
X026940Y028393D01*
X026940Y028334D02*
X027421Y028334D01*
X027421Y028335D02*
X027345Y028258D01*
X027345Y027870D01*
X028528Y027870D01*
X028528Y027811D01*
X027345Y027811D01*
X027345Y027422D01*
X027421Y027346D01*
X028528Y027346D01*
X028528Y027810D01*
X028588Y027810D01*
X028588Y027346D01*
X029694Y027346D01*
X029771Y027422D01*
X029771Y027811D01*
X028588Y027811D01*
X028588Y027870D01*
X029771Y027870D01*
X029771Y028258D01*
X029694Y028335D01*
X028588Y028335D01*
X028588Y027871D01*
X028528Y027871D01*
X028528Y028335D01*
X027421Y028335D01*
X027362Y028276D02*
X026940Y028276D01*
X026940Y028217D02*
X027345Y028217D01*
X027345Y028158D02*
X026940Y028158D01*
X026940Y028100D02*
X027345Y028100D01*
X027345Y028041D02*
X026940Y028041D01*
X026940Y027983D02*
X027345Y027983D01*
X027345Y027924D02*
X026940Y027924D01*
X026940Y027866D02*
X028528Y027866D01*
X028528Y027924D02*
X028588Y027924D01*
X028588Y027866D02*
X030031Y027866D01*
X030031Y027924D02*
X029771Y027924D01*
X029771Y027983D02*
X030031Y027983D01*
X030031Y028041D02*
X029771Y028041D01*
X029771Y028100D02*
X030031Y028100D01*
X030031Y028158D02*
X029771Y028158D01*
X029771Y028217D02*
X030031Y028217D01*
X029754Y028276D02*
X032679Y028276D01*
X032679Y028334D02*
X029695Y028334D01*
X029771Y027807D02*
X030031Y027807D01*
X030031Y027749D02*
X029771Y027749D01*
X029771Y027690D02*
X030031Y027690D01*
X030031Y027632D02*
X029771Y027632D01*
X029771Y027573D02*
X030031Y027573D01*
X030031Y027514D02*
X029771Y027514D01*
X029771Y027456D02*
X030031Y027456D01*
X030031Y027397D02*
X029746Y027397D01*
X030031Y027339D02*
X026940Y027339D01*
X026940Y027397D02*
X027370Y027397D01*
X027345Y027456D02*
X026940Y027456D01*
X026940Y027514D02*
X027345Y027514D01*
X027345Y027573D02*
X026940Y027573D01*
X026940Y027632D02*
X027345Y027632D01*
X027345Y027690D02*
X026940Y027690D01*
X026940Y027749D02*
X027345Y027749D01*
X027345Y027807D02*
X026940Y027807D01*
X026637Y027807D02*
X024656Y027807D01*
X024656Y027749D02*
X026637Y027749D01*
X026637Y027690D02*
X024639Y027690D01*
X024580Y027632D02*
X026637Y027632D01*
X026637Y027573D02*
X024571Y027573D01*
X024599Y027514D02*
X026637Y027514D01*
X026637Y027456D02*
X024952Y027456D01*
X025010Y027397D02*
X026637Y027397D01*
X026637Y027339D02*
X025069Y027339D01*
X025095Y027280D02*
X026637Y027280D01*
X026637Y027222D02*
X025095Y027222D01*
X025095Y027163D02*
X026637Y027163D01*
X026637Y027105D02*
X025095Y027105D01*
X025085Y027046D02*
X026637Y027046D01*
X026637Y026988D02*
X025026Y026988D01*
X024967Y026929D02*
X026637Y026929D01*
X026637Y026871D02*
X024591Y026871D01*
X024533Y026812D02*
X026637Y026812D01*
X026637Y026753D02*
X024460Y026753D01*
X024459Y026695D02*
X026637Y026695D01*
X026637Y026636D02*
X024518Y026636D01*
X024561Y026578D02*
X026637Y026578D01*
X026637Y026519D02*
X024571Y026519D01*
X024619Y026461D02*
X026637Y026461D01*
X026637Y026402D02*
X024916Y026402D01*
X024974Y026344D02*
X026637Y026344D01*
X026637Y026285D02*
X025033Y026285D01*
X025041Y026227D02*
X026637Y026227D01*
X026637Y026168D02*
X025041Y026168D01*
X025041Y026109D02*
X026637Y026109D01*
X026637Y026051D02*
X025041Y026051D01*
X025013Y025992D02*
X026637Y025992D01*
X026940Y025992D02*
X027385Y025992D01*
X027385Y025934D02*
X026940Y025934D01*
X026940Y026051D02*
X027385Y026051D01*
X027385Y026109D02*
X026940Y026109D01*
X026940Y026168D02*
X027385Y026168D01*
X027385Y026227D02*
X026940Y026227D01*
X026940Y026285D02*
X027436Y026285D01*
X026940Y026344D02*
X028139Y026344D01*
X028168Y026402D02*
X026940Y026402D01*
X026940Y026461D02*
X028226Y026461D01*
X028285Y026519D02*
X026940Y026519D01*
X026940Y026578D02*
X028416Y026578D01*
X028528Y027397D02*
X028588Y027397D01*
X028588Y027456D02*
X028528Y027456D01*
X028528Y027514D02*
X028588Y027514D01*
X028588Y027573D02*
X028528Y027573D01*
X028528Y027632D02*
X028588Y027632D01*
X028588Y027690D02*
X028528Y027690D01*
X028528Y027749D02*
X028588Y027749D01*
X028588Y027807D02*
X028528Y027807D01*
X028528Y027983D02*
X028588Y027983D01*
X028588Y028041D02*
X028528Y028041D01*
X028528Y028100D02*
X028588Y028100D01*
X028588Y028158D02*
X028528Y028158D01*
X028528Y028217D02*
X028588Y028217D01*
X028588Y028276D02*
X028528Y028276D01*
X028528Y028334D02*
X028588Y028334D01*
X028813Y028510D02*
X032679Y028510D01*
X032679Y028568D02*
X028872Y028568D01*
X028438Y028744D02*
X026940Y028744D01*
X026940Y028802D02*
X028438Y028802D01*
X028462Y028861D02*
X026940Y028861D01*
X026940Y028920D02*
X028520Y028920D01*
X028579Y028978D02*
X026940Y028978D01*
X026637Y028978D02*
X024390Y028978D01*
X024332Y029037D02*
X026637Y029037D01*
X026637Y029095D02*
X024273Y029095D01*
X024271Y029154D02*
X026637Y029154D01*
X026637Y029212D02*
X024271Y029212D01*
X024271Y029271D02*
X026637Y029271D01*
X026637Y029329D02*
X024271Y029329D01*
X024271Y029388D02*
X026637Y029388D01*
X026637Y029446D02*
X024271Y029446D01*
X024271Y029505D02*
X024420Y029505D01*
X023937Y029785D02*
X023587Y029785D01*
X023487Y029885D01*
X023487Y030385D01*
X023587Y030485D01*
X023987Y030485D01*
X023963Y030509D02*
X023949Y030509D01*
X024335Y030500D02*
X026637Y030500D01*
X026637Y030442D02*
X024335Y030442D01*
X024335Y030383D02*
X026637Y030383D01*
X026637Y030325D02*
X024321Y030325D01*
X024263Y030266D02*
X026637Y030266D01*
X026637Y030207D02*
X023667Y030207D01*
X023667Y030149D02*
X024453Y030149D01*
X024395Y030090D02*
X023667Y030090D01*
X023667Y030032D02*
X024372Y030032D01*
X024372Y029973D02*
X024292Y029973D01*
X025020Y030149D02*
X026637Y030149D01*
X026637Y030090D02*
X025078Y030090D01*
X025102Y030032D02*
X026637Y030032D01*
X026637Y029973D02*
X025102Y029973D01*
X025102Y029915D02*
X026637Y029915D01*
X026637Y029856D02*
X025102Y029856D01*
X025102Y029798D02*
X026637Y029798D01*
X026637Y029739D02*
X025102Y029739D01*
X025102Y029681D02*
X026637Y029681D01*
X026637Y029622D02*
X025102Y029622D01*
X025102Y029564D02*
X026637Y029564D01*
X026637Y029505D02*
X025054Y029505D01*
X024449Y028920D02*
X026637Y028920D01*
X026527Y028861D02*
X024497Y028861D01*
X024497Y028802D02*
X026468Y028802D01*
X026410Y028744D02*
X024497Y028744D01*
X024497Y028685D02*
X026378Y028685D01*
X026378Y028627D02*
X024497Y028627D01*
X024497Y028568D02*
X026378Y028568D01*
X026378Y028510D02*
X024497Y028510D01*
X024497Y028451D02*
X026384Y028451D01*
X026442Y028393D02*
X024497Y028393D01*
X024584Y028334D02*
X026501Y028334D01*
X026637Y028276D02*
X024642Y028276D01*
X024656Y028217D02*
X026637Y028217D01*
X026637Y028158D02*
X024656Y028158D01*
X024656Y028100D02*
X026637Y028100D01*
X026637Y028041D02*
X024656Y028041D01*
X024656Y027983D02*
X026637Y027983D01*
X026637Y027924D02*
X024656Y027924D01*
X024656Y027866D02*
X026637Y027866D01*
X026940Y027280D02*
X030031Y027280D01*
X030031Y027222D02*
X026940Y027222D01*
X026940Y027163D02*
X030031Y027163D01*
X030031Y027105D02*
X026940Y027105D01*
X026940Y027046D02*
X030031Y027046D01*
X030031Y026988D02*
X026940Y026988D01*
X026940Y026929D02*
X030031Y026929D01*
X030031Y026871D02*
X026940Y026871D01*
X026940Y026812D02*
X030031Y026812D01*
X030031Y026753D02*
X026940Y026753D01*
X026940Y026695D02*
X030031Y026695D01*
X030031Y026636D02*
X026940Y026636D01*
X024517Y026810D02*
X024517Y026810D01*
X024337Y026885D02*
X024287Y026835D01*
X023637Y026835D01*
X023587Y026885D01*
X023587Y027246D01*
X023613Y027196D01*
X023871Y027222D02*
X024102Y027222D01*
X024102Y027280D02*
X023871Y027280D01*
X023871Y027339D02*
X024102Y027339D01*
X024102Y027397D02*
X023871Y027397D01*
X023871Y027456D02*
X024102Y027456D01*
X024122Y027514D02*
X023851Y027514D01*
X023793Y027573D02*
X024151Y027573D01*
X024042Y027632D02*
X020155Y027632D01*
X020097Y027690D02*
X023983Y027690D01*
X023966Y027749D02*
X020038Y027749D01*
X019980Y027807D02*
X023966Y027807D01*
X023966Y027866D02*
X019921Y027866D01*
X019863Y027924D02*
X023966Y027924D01*
X023966Y027983D02*
X019789Y027983D01*
X020089Y028100D02*
X023966Y028100D01*
X023966Y028158D02*
X020143Y028158D01*
X020174Y028217D02*
X023966Y028217D01*
X023980Y028276D02*
X020232Y028276D01*
X020291Y028334D02*
X024039Y028334D01*
X023966Y028041D02*
X018533Y028041D01*
X018475Y028100D02*
X019032Y028100D01*
X018977Y028158D02*
X018369Y028158D01*
X018096Y028217D02*
X018977Y028217D01*
X018977Y028276D02*
X018096Y028276D01*
X018096Y028334D02*
X018977Y028334D01*
X018977Y028393D02*
X018096Y028393D01*
X018096Y028451D02*
X018977Y028451D01*
X018977Y028510D02*
X018096Y028510D01*
X018043Y028568D02*
X019031Y028568D01*
X019036Y029095D02*
X018037Y029095D01*
X018074Y029037D02*
X020007Y029037D01*
X020007Y028978D02*
X018096Y028978D01*
X018096Y028920D02*
X020007Y028920D01*
X020007Y028861D02*
X018096Y028861D01*
X018096Y028802D02*
X020007Y028802D01*
X020007Y028744D02*
X018096Y028744D01*
X018096Y028685D02*
X020007Y028685D01*
X020007Y028627D02*
X018069Y028627D01*
X018096Y029154D02*
X018978Y029154D01*
X018977Y029212D02*
X018096Y029212D01*
X018096Y029271D02*
X018977Y029271D01*
X018977Y029329D02*
X018096Y029329D01*
X018096Y029388D02*
X018977Y029388D01*
X018977Y029446D02*
X018096Y029446D01*
X018096Y029505D02*
X018977Y029505D01*
X019026Y029564D02*
X018047Y029564D01*
X018064Y029622D02*
X019999Y029622D01*
X020057Y029681D02*
X018096Y029681D01*
X018096Y029739D02*
X020057Y029739D01*
X020057Y029798D02*
X018096Y029798D01*
X018096Y029856D02*
X020057Y029856D01*
X020057Y029915D02*
X018096Y029915D01*
X018096Y029973D02*
X020057Y029973D01*
X020057Y030032D02*
X018079Y030032D01*
X018021Y030090D02*
X019688Y030090D01*
X019630Y030149D02*
X017544Y030149D01*
X017570Y030207D02*
X019603Y030207D01*
X019603Y030266D02*
X017570Y030266D01*
X017570Y030325D02*
X019603Y030325D01*
X019603Y030383D02*
X017570Y030383D01*
X017570Y030442D02*
X019603Y030442D01*
X019603Y030500D02*
X017570Y030500D01*
X017570Y030559D02*
X019603Y030559D01*
X019603Y030617D02*
X017570Y030617D01*
X017570Y030676D02*
X019603Y030676D01*
X019644Y030734D02*
X017529Y030734D01*
X017350Y030969D02*
X018923Y030969D01*
X018864Y031027D02*
X017409Y031027D01*
X017468Y031086D02*
X018806Y031086D01*
X018747Y031144D02*
X017526Y031144D01*
X017547Y031203D02*
X018727Y031203D01*
X018727Y031261D02*
X017547Y031261D01*
X017547Y031320D02*
X018727Y031320D01*
X018727Y031378D02*
X017547Y031378D01*
X017547Y031437D02*
X018727Y031437D01*
X018727Y031495D02*
X017547Y031495D01*
X017497Y031554D02*
X018776Y031554D01*
X018835Y031613D02*
X017439Y031613D01*
X016835Y031613D02*
X011274Y031613D01*
X011391Y031495D02*
X011419Y031495D01*
X012418Y030617D02*
X015608Y030617D01*
X015549Y030559D02*
X012418Y030559D01*
X012418Y030500D02*
X015540Y030500D01*
X015540Y030442D02*
X012418Y030442D01*
X012418Y030383D02*
X015540Y030383D01*
X015540Y030325D02*
X012418Y030325D01*
X012418Y030266D02*
X015540Y030266D01*
X015540Y030207D02*
X012418Y030207D01*
X012418Y030149D02*
X015580Y030149D01*
X015574Y029915D02*
X012418Y029915D01*
X012418Y029973D02*
X016250Y029973D01*
X016269Y029915D02*
X016199Y029915D01*
X016222Y030032D02*
X012418Y030032D01*
X012418Y030090D02*
X016222Y030090D01*
X016166Y030617D02*
X016894Y030617D01*
X017034Y030676D02*
X013031Y030676D01*
X012418Y029856D02*
X015540Y029856D01*
X015540Y029798D02*
X012418Y029798D01*
X012418Y029739D02*
X015540Y029739D01*
X015540Y029681D02*
X012418Y029681D01*
X012418Y029622D02*
X015540Y029622D01*
X016135Y028978D02*
X012418Y028978D01*
X012418Y028920D02*
X016077Y028920D01*
X016018Y028861D02*
X012418Y028861D01*
X012418Y028802D02*
X015960Y028802D01*
X015901Y028744D02*
X012418Y028744D01*
X012418Y028685D02*
X015843Y028685D01*
X015788Y028631D02*
X015788Y028631D01*
X015784Y028627D02*
X012418Y028627D01*
X012418Y028568D02*
X015725Y028568D01*
X015680Y028510D02*
X012418Y028510D01*
X012418Y028451D02*
X015656Y028451D01*
X015637Y028393D02*
X012418Y028393D01*
X012418Y028334D02*
X015637Y028334D01*
X015637Y028276D02*
X012418Y028276D01*
X012418Y028217D02*
X015637Y028217D01*
X015283Y028158D02*
X012690Y028158D01*
X012739Y028100D02*
X015234Y028100D01*
X015234Y028041D02*
X012739Y028041D01*
X012739Y027983D02*
X015234Y027983D01*
X015234Y027924D02*
X012739Y027924D01*
X012739Y027866D02*
X015234Y027866D01*
X015234Y027807D02*
X012739Y027807D01*
X012739Y027749D02*
X015234Y027749D01*
X015234Y027690D02*
X012739Y027690D01*
X012739Y027632D02*
X015234Y027632D01*
X015234Y027573D02*
X012739Y027573D01*
X012739Y027514D02*
X015234Y027514D01*
X015234Y027456D02*
X012739Y027456D01*
X012739Y027397D02*
X015234Y027397D01*
X015234Y027339D02*
X012739Y027339D01*
X012739Y027280D02*
X015234Y027280D01*
X015234Y027222D02*
X012739Y027222D01*
X012739Y027163D02*
X015234Y027163D01*
X015234Y027105D02*
X012739Y027105D01*
X012739Y027046D02*
X015234Y027046D01*
X015234Y026988D02*
X012739Y026988D01*
X012739Y026929D02*
X015234Y026929D01*
X015234Y026871D02*
X012739Y026871D01*
X012739Y026812D02*
X015234Y026812D01*
X015234Y026753D02*
X012739Y026753D01*
X012739Y026695D02*
X015234Y026695D01*
X015234Y026636D02*
X012739Y026636D01*
X012739Y026578D02*
X015234Y026578D01*
X015234Y026519D02*
X012739Y026519D01*
X012739Y026461D02*
X015234Y026461D01*
X015234Y026402D02*
X012739Y026402D01*
X012739Y026344D02*
X015234Y026344D01*
X015234Y026285D02*
X012739Y026285D01*
X012739Y026227D02*
X015234Y026227D01*
X015234Y026168D02*
X012739Y026168D01*
X012739Y026109D02*
X015234Y026109D01*
X015234Y026051D02*
X012739Y026051D01*
X012739Y025992D02*
X015234Y025992D01*
X014896Y025934D02*
X012739Y025934D01*
X012739Y025875D02*
X014787Y025875D01*
X014729Y025817D02*
X012696Y025817D01*
X011970Y024135D02*
X011887Y024085D01*
X011937Y024135D01*
X011637Y024085D02*
X011137Y023585D01*
X011637Y024085D02*
X012637Y023085D01*
X009687Y024085D02*
X009652Y024050D01*
X007337Y024868D02*
X007337Y025285D01*
X004937Y025885D02*
X004937Y026785D01*
X004837Y026885D01*
X004637Y026885D01*
X004637Y027085D01*
X004537Y027185D01*
X003437Y027185D01*
X003302Y027319D01*
X003302Y027585D01*
X003337Y028185D02*
X003837Y028185D01*
X003971Y028050D01*
X003971Y027585D01*
X004137Y026585D02*
X003637Y026585D01*
X004137Y026585D02*
X004432Y026289D01*
X004637Y026289D01*
X004937Y025885D02*
X004832Y025780D01*
X004637Y025780D01*
X004637Y025189D02*
X004637Y024785D01*
X004437Y024585D01*
X006637Y020085D02*
X006837Y020085D01*
X007037Y019385D02*
X007237Y019385D01*
X007471Y019150D01*
X007471Y018785D01*
X006802Y018785D02*
X006737Y018785D01*
X006637Y018685D01*
X006637Y017835D01*
X004637Y018539D02*
X004382Y018539D01*
X004087Y018835D01*
X003637Y018835D01*
X006637Y014835D02*
X006637Y014185D01*
X006837Y013985D01*
X006737Y013585D02*
X006637Y013485D01*
X006637Y012585D01*
X007471Y013585D02*
X008037Y013585D01*
X008137Y013485D01*
X008137Y013285D01*
X004637Y013539D02*
X004382Y013539D01*
X004087Y013835D01*
X003637Y013835D01*
X003971Y012085D02*
X004437Y012085D01*
X004337Y011385D02*
X004537Y011385D01*
X004337Y011385D02*
X004037Y011085D01*
X003637Y011085D01*
X009387Y006235D02*
X009637Y006485D01*
X012837Y006485D01*
X012987Y006635D01*
X012987Y007185D01*
X013137Y007335D01*
X013337Y007335D01*
X013353Y007318D01*
X013388Y007318D01*
X013388Y007063D02*
X013765Y007063D01*
X013837Y007135D01*
X013765Y006807D02*
X013388Y006807D01*
X013388Y006551D02*
X013388Y006536D01*
X013387Y006535D01*
X013137Y006535D01*
X012887Y006285D01*
X010587Y006285D01*
X010387Y006085D01*
X010387Y005085D01*
X011387Y005085D02*
X011387Y004535D01*
X011537Y004385D01*
X013387Y004385D01*
X013537Y004535D01*
X013537Y005185D01*
X014637Y006285D01*
X015687Y006285D01*
X015685Y006286D01*
X015685Y006295D01*
X015685Y006551D02*
X015271Y006551D01*
X015237Y006585D01*
X015087Y005785D02*
X016137Y005785D01*
X016487Y006135D01*
X016487Y006261D01*
X017987Y007785D02*
X018287Y007485D01*
X018487Y007485D01*
X018937Y007485D02*
X018487Y007935D01*
X018487Y008308D01*
X017987Y008308D02*
X017987Y007785D01*
X018987Y007885D02*
X019387Y007485D01*
X018987Y007885D02*
X018987Y008308D01*
X019487Y008308D02*
X019487Y009335D01*
X018887Y009935D01*
X018887Y013285D01*
X019087Y013485D01*
X019287Y013485D01*
X019737Y013035D01*
X019737Y012235D01*
X021187Y010785D01*
X022037Y010785D01*
X022137Y010685D01*
X023087Y010685D01*
X024687Y009085D01*
X024687Y007485D01*
X024787Y007385D01*
X028137Y007385D01*
X028237Y007485D01*
X028237Y008985D01*
X027737Y009485D01*
X027737Y009635D01*
X027587Y009385D02*
X025137Y009385D01*
X024237Y010285D01*
X024637Y010285D02*
X025337Y009585D01*
X027287Y009585D01*
X027687Y009985D01*
X028937Y009985D01*
X028987Y009935D01*
X028987Y007955D01*
X029487Y007955D02*
X029487Y009985D01*
X029287Y010185D01*
X027637Y010185D01*
X027237Y009785D01*
X025537Y009785D01*
X025037Y010285D01*
X025437Y010285D02*
X025737Y009985D01*
X027187Y009985D01*
X027587Y010385D01*
X029837Y010385D01*
X029987Y010235D01*
X029987Y007955D01*
X030087Y006885D02*
X030137Y006835D01*
X030087Y006885D02*
X027887Y006885D01*
X028637Y007185D02*
X028737Y007285D01*
X028737Y009285D01*
X028537Y009485D01*
X028137Y009385D02*
X028487Y009035D01*
X028487Y007955D01*
X027987Y007955D02*
X027987Y008985D01*
X027587Y009385D01*
X027487Y009085D02*
X027487Y007955D01*
X026987Y007955D02*
X026967Y008355D01*
X026937Y008385D01*
X026937Y009085D01*
X026437Y009085D02*
X026437Y008585D01*
X026487Y008535D01*
X026487Y007955D01*
X025987Y007955D02*
X025967Y008355D01*
X025937Y008385D01*
X025937Y009085D01*
X025437Y009085D02*
X025437Y008485D01*
X025537Y008385D01*
X025507Y008355D01*
X025487Y007955D01*
X024987Y007955D02*
X024987Y008435D01*
X024937Y008485D01*
X024937Y009035D01*
X024987Y009085D01*
X024537Y008985D02*
X024537Y007385D01*
X024737Y007185D01*
X028637Y007185D01*
X031387Y005335D02*
X031387Y005085D01*
X031387Y005335D02*
X031737Y005685D01*
X033387Y005085D02*
X033437Y005085D01*
X033937Y005585D01*
X033937Y008785D01*
X032937Y009785D01*
X032937Y010285D01*
X032941Y010280D01*
X032941Y010236D01*
X033197Y010236D02*
X033197Y009824D01*
X034121Y008901D01*
X034121Y005301D01*
X034337Y005085D01*
X034387Y005085D01*
X034337Y006085D02*
X034337Y008985D01*
X033453Y009868D01*
X033453Y010236D01*
X033537Y011285D02*
X033537Y011785D01*
X033197Y012124D01*
X033197Y012533D01*
X033453Y012533D02*
X033453Y012168D01*
X033837Y011785D01*
X033837Y011585D01*
X034137Y011785D02*
X033709Y012213D01*
X033709Y012533D01*
X033965Y012533D02*
X033965Y012257D01*
X034437Y011785D01*
X034437Y011585D01*
X034737Y011785D02*
X034737Y011285D01*
X035137Y011535D02*
X035137Y011735D01*
X034732Y012139D01*
X034732Y012533D01*
X034988Y012533D02*
X034988Y012833D01*
X034887Y012935D01*
X034837Y012935D01*
X034837Y013285D02*
X034786Y013335D01*
X035237Y012535D02*
X035238Y012533D01*
X035244Y012533D01*
X034737Y011785D02*
X034221Y012301D01*
X034221Y012533D01*
X034137Y011785D02*
X034137Y011285D01*
X033237Y011585D02*
X033237Y011785D01*
X032937Y012085D01*
X032937Y012485D01*
X032941Y012489D01*
X032941Y012533D01*
X032685Y012533D02*
X032685Y012036D01*
X032837Y011885D01*
X032837Y011685D01*
X032437Y011885D02*
X032437Y012485D01*
X032429Y012492D01*
X032429Y012533D01*
X032437Y013485D02*
X032369Y013552D01*
X032369Y014335D01*
X032054Y014335D02*
X032054Y014867D01*
X031937Y014985D01*
X031739Y014782D02*
X031637Y014885D01*
X031637Y015185D01*
X031737Y015285D01*
X032237Y015285D01*
X032537Y014985D01*
X032987Y014985D01*
X032687Y015285D02*
X032537Y015285D01*
X032337Y015485D01*
X031137Y015485D01*
X030794Y015142D01*
X030794Y014335D01*
X030479Y014335D02*
X030479Y015127D01*
X031037Y015685D01*
X032437Y015685D01*
X032537Y015585D01*
X032987Y015585D01*
X032687Y015885D02*
X030937Y015885D01*
X030164Y015112D01*
X030164Y014335D01*
X029849Y014335D02*
X029849Y015097D01*
X030837Y016085D01*
X032437Y016085D01*
X032537Y016185D01*
X032987Y016185D01*
X033287Y016135D02*
X033287Y016335D01*
X033137Y016485D01*
X032537Y016485D01*
X032337Y016285D01*
X030637Y016285D01*
X030087Y016835D01*
X030087Y017235D01*
X030137Y017935D02*
X030137Y018585D01*
X030487Y018935D01*
X032437Y018935D01*
X033034Y019532D01*
X033786Y019532D01*
X033737Y019835D02*
X033037Y019835D01*
X032337Y019135D01*
X028637Y019135D01*
X028837Y018885D02*
X029187Y018885D01*
X029487Y018585D01*
X029037Y018585D02*
X029034Y018587D01*
X027487Y018587D01*
X026939Y018587D01*
X026937Y018585D01*
X026462Y019059D01*
X025629Y019059D01*
X025629Y019256D02*
X026565Y019256D01*
X026919Y018902D01*
X027487Y018902D01*
X027919Y018902D01*
X028037Y018785D01*
X028737Y018785D01*
X028837Y018885D01*
X028187Y019135D02*
X028104Y019217D01*
X027487Y019217D01*
X026904Y019217D01*
X026668Y019453D01*
X025629Y019453D01*
X025629Y019650D02*
X025629Y019677D01*
X025637Y019685D01*
X025629Y019692D01*
X025629Y019847D01*
X025637Y019847D01*
X025629Y019650D02*
X026102Y019650D01*
X026237Y019785D01*
X027137Y020385D02*
X027137Y021185D01*
X026837Y021485D01*
X024587Y021485D01*
X024037Y020935D01*
X023937Y020935D01*
X023818Y020816D01*
X023818Y020477D01*
X023737Y021135D02*
X023937Y021135D01*
X024487Y021685D01*
X026937Y021685D01*
X027437Y021185D01*
X027437Y020735D01*
X028037Y020135D02*
X028187Y019985D01*
X029187Y019985D01*
X028637Y018285D02*
X028624Y018272D01*
X027487Y018272D01*
X027624Y018272D01*
X027637Y018285D01*
X027487Y018272D02*
X025629Y018272D01*
X025629Y018469D02*
X025221Y018469D01*
X024937Y018185D01*
X024137Y018185D01*
X024137Y018685D02*
X024537Y018685D01*
X024737Y018485D01*
X025037Y018485D01*
X025218Y018666D01*
X025629Y018666D01*
X025629Y018075D02*
X026746Y018075D01*
X026864Y017957D01*
X027487Y017957D01*
X027909Y017957D01*
X027937Y017985D01*
X028837Y017985D01*
X028937Y017885D01*
X028137Y017685D02*
X028094Y017642D01*
X027487Y017642D01*
X026879Y017642D01*
X026637Y017885D01*
X025637Y017885D01*
X025630Y017878D01*
X025629Y017878D01*
X025629Y017681D02*
X026540Y017681D01*
X026894Y017327D01*
X027487Y017327D01*
X028494Y017327D01*
X028537Y017285D01*
X028137Y016985D02*
X027849Y016697D01*
X027487Y016697D01*
X027487Y016382D02*
X027439Y016382D01*
X027437Y016385D01*
X027037Y016385D01*
X028437Y016385D01*
X029237Y015585D01*
X029237Y015385D01*
X029137Y015285D01*
X028537Y015485D02*
X028237Y015785D01*
X027037Y015785D01*
X027437Y015785D01*
X027469Y015752D01*
X027487Y015752D01*
X027487Y015437D02*
X027084Y015437D01*
X028089Y015437D01*
X028137Y015485D01*
X027999Y015122D02*
X028137Y014985D01*
X027999Y015122D02*
X026999Y015122D01*
X026211Y015910D01*
X025629Y015910D01*
X025629Y016107D02*
X024759Y016107D01*
X024737Y016085D01*
X025018Y016303D02*
X024437Y016885D01*
X024137Y017185D01*
X023137Y017185D01*
X023737Y016085D02*
X023337Y015685D01*
X023337Y015185D01*
X023621Y014900D01*
X023621Y014492D01*
X023818Y014492D02*
X023818Y014903D01*
X023737Y014985D01*
X023737Y015485D01*
X024037Y015085D02*
X024537Y015085D01*
X024605Y015016D01*
X024605Y014492D01*
X024408Y014492D02*
X024408Y014113D01*
X024637Y013885D01*
X025037Y013885D01*
X024837Y013485D02*
X024737Y013485D01*
X024211Y014010D01*
X024211Y014492D01*
X024015Y014492D02*
X024015Y013907D01*
X024937Y012985D01*
X024937Y012385D01*
X025037Y012285D01*
X024987Y012235D01*
X024987Y012215D01*
X025487Y012215D02*
X025487Y012635D01*
X026637Y013785D01*
X026637Y013985D01*
X026337Y014385D02*
X026137Y014185D01*
X026137Y013685D01*
X025902Y013450D01*
X025637Y013450D01*
X025637Y014119D02*
X025637Y014485D01*
X025137Y014985D01*
X024837Y014985D01*
X024802Y014950D01*
X024802Y014492D01*
X024015Y014492D02*
X024015Y015063D01*
X024037Y015085D01*
X023424Y014492D02*
X023424Y014147D01*
X024337Y013235D01*
X024337Y012985D01*
X024037Y013235D02*
X024037Y012535D01*
X023737Y012585D02*
X023337Y012985D01*
X023137Y012985D01*
X022437Y013685D01*
X022337Y013685D01*
X022243Y013778D01*
X022243Y014492D01*
X022046Y014492D02*
X022046Y013575D01*
X022137Y013485D01*
X022337Y013485D01*
X023387Y012435D01*
X023737Y012385D02*
X023737Y012585D01*
X023737Y012385D02*
X023837Y012285D01*
X023837Y012085D01*
X022937Y012435D02*
X022937Y012585D01*
X022237Y013285D01*
X021337Y013285D01*
X021259Y013363D01*
X021259Y014492D01*
X021062Y014492D02*
X021062Y013259D01*
X021237Y013085D01*
X022137Y013085D01*
X022487Y012735D01*
X022487Y012435D01*
X021437Y011885D02*
X022037Y011285D01*
X022937Y011285D01*
X023637Y010585D01*
X025637Y010585D01*
X026037Y010185D01*
X027137Y010185D01*
X028137Y009685D02*
X028137Y009385D01*
X030137Y011185D02*
X030487Y011535D01*
X030487Y012135D01*
X030437Y012185D01*
X030467Y012215D01*
X030487Y012215D01*
X030987Y012235D02*
X030987Y012215D01*
X029987Y012215D02*
X029987Y012335D01*
X029937Y012385D01*
X029937Y012785D01*
X029837Y012885D01*
X028904Y013852D02*
X028637Y013585D01*
X027637Y013585D01*
X027537Y013685D01*
X026487Y012635D01*
X026487Y012215D01*
X026987Y012215D02*
X027007Y012215D01*
X027037Y012185D01*
X027037Y011485D01*
X027537Y011485D02*
X027537Y012085D01*
X027437Y012185D01*
X027467Y012215D01*
X027487Y012215D01*
X027987Y012215D02*
X028007Y012215D01*
X028037Y012185D01*
X028037Y011485D01*
X025987Y012215D02*
X025987Y012635D01*
X027037Y013685D01*
X027437Y014085D02*
X027737Y014385D01*
X027937Y014685D02*
X027337Y014685D01*
X027137Y014685D01*
X026108Y015713D01*
X025629Y015713D01*
X025629Y015516D02*
X025168Y015516D01*
X025037Y015385D01*
X025629Y015319D02*
X026202Y015319D01*
X027437Y014085D01*
X027737Y013785D01*
X028437Y013785D01*
X028589Y013937D01*
X028589Y014335D01*
X028274Y014322D02*
X028274Y014335D01*
X028274Y014447D01*
X028237Y014485D01*
X028237Y014585D02*
X028237Y014285D01*
X028274Y014322D01*
X028237Y014585D02*
X028037Y014585D01*
X027937Y014685D01*
X027487Y015122D02*
X026999Y015122D01*
X027084Y015437D02*
X026021Y016500D01*
X025629Y016500D01*
X025629Y016303D02*
X025018Y016303D01*
X025037Y016885D02*
X025046Y016894D01*
X025629Y016894D01*
X025629Y016697D02*
X026124Y016697D01*
X027037Y015785D01*
X027037Y016085D02*
X028137Y016085D01*
X027487Y016067D02*
X027454Y016067D01*
X027437Y016085D01*
X027037Y016085D01*
X026037Y017085D01*
X025737Y017085D01*
X025730Y017091D01*
X025629Y017091D01*
X025637Y017285D02*
X026137Y017285D01*
X027037Y016385D01*
X026909Y017012D02*
X026437Y017485D01*
X025629Y017485D01*
X025634Y017288D02*
X025629Y017288D01*
X025634Y017288D02*
X025637Y017285D01*
X026909Y017012D02*
X027487Y017012D01*
X026099Y015122D02*
X027537Y013685D01*
X028904Y013852D02*
X028904Y014335D01*
X029219Y014335D02*
X029219Y014367D01*
X029237Y014385D01*
X029219Y014335D02*
X029219Y014302D01*
X029237Y014285D01*
X029534Y014287D02*
X029534Y014335D01*
X029534Y014287D02*
X029537Y014285D01*
X031109Y014335D02*
X031109Y014957D01*
X031337Y015185D01*
X031739Y014782D02*
X031739Y014335D01*
X031424Y014335D02*
X031424Y013797D01*
X031537Y013685D01*
X033037Y013685D02*
X033037Y013485D01*
X033061Y013585D01*
X032999Y014335D02*
X032999Y014347D01*
X033037Y014385D01*
X033237Y014385D01*
X033486Y014634D01*
X034237Y014634D01*
X034237Y014085D01*
X036430Y015766D02*
X037506Y015766D01*
X037537Y015735D01*
X037537Y015769D01*
X037502Y015769D01*
X037487Y015785D01*
X037887Y015785D01*
X038011Y015909D01*
X038504Y015909D01*
X039987Y016785D02*
X040387Y016385D01*
X042237Y016385D01*
X043037Y015585D01*
X043037Y005735D01*
X043637Y005135D01*
X043637Y003919D01*
X043637Y003250D02*
X043637Y002885D01*
X043437Y002685D01*
X042537Y002685D01*
X041687Y001835D01*
X040932Y001835D01*
X040387Y002335D02*
X040341Y002289D01*
X040341Y001835D01*
X042591Y001835D02*
X042591Y002289D01*
X042637Y002335D01*
X043182Y001835D02*
X043987Y001835D01*
X044337Y002185D01*
X044337Y003250D01*
X044337Y003919D02*
X044337Y004835D01*
X043287Y005885D01*
X043287Y017404D01*
X043538Y017655D01*
X043271Y017884D02*
X043271Y018128D01*
X043271Y017884D02*
X041971Y016585D01*
X040487Y016585D01*
X040037Y017035D01*
X034937Y017035D01*
X034329Y017642D01*
X033786Y017642D01*
X033786Y017327D02*
X034294Y017327D01*
X034837Y016785D01*
X039987Y016785D01*
X040291Y017035D02*
X041347Y017035D01*
X041347Y016977D02*
X040349Y016977D01*
X040408Y016918D02*
X041347Y016918D01*
X041380Y016860D02*
X040466Y016860D01*
X040525Y016801D02*
X041438Y016801D01*
X041347Y017094D02*
X040232Y017094D01*
X040173Y017152D02*
X041347Y017152D01*
X041347Y017211D02*
X040115Y017211D01*
X039276Y017445D02*
X035795Y017445D01*
X035795Y017504D02*
X039179Y017504D01*
X039121Y017562D02*
X035795Y017562D01*
X035795Y017621D02*
X039062Y017621D01*
X039004Y017679D02*
X035778Y017679D01*
X035720Y017738D02*
X038945Y017738D01*
X038908Y017796D02*
X035661Y017796D01*
X035459Y017562D02*
X034759Y017562D01*
X034364Y017957D01*
X033786Y017957D01*
X033786Y018272D02*
X033224Y018272D01*
X033187Y018235D01*
X033089Y018587D02*
X032937Y018585D01*
X033089Y018587D02*
X033786Y018587D01*
X033786Y018902D02*
X033219Y018902D01*
X033187Y018935D01*
X033737Y019835D02*
X033749Y019847D01*
X033786Y019847D01*
X034291Y019845D02*
X036387Y019845D01*
X036387Y019787D02*
X034291Y019787D01*
X034291Y019728D02*
X036387Y019728D01*
X036387Y019670D02*
X034291Y019670D01*
X034291Y019611D02*
X036387Y019611D01*
X036387Y019553D02*
X034291Y019553D01*
X034291Y019494D02*
X036387Y019494D01*
X036387Y019436D02*
X034291Y019436D01*
X034291Y019377D02*
X036387Y019377D01*
X036387Y019318D02*
X034291Y019318D01*
X034291Y019260D02*
X036387Y019260D01*
X036387Y019201D02*
X034291Y019201D01*
X034291Y019143D02*
X036387Y019143D01*
X036387Y019084D02*
X034291Y019084D01*
X034291Y019026D02*
X036387Y019026D01*
X036387Y018967D02*
X034291Y018967D01*
X034291Y018909D02*
X036387Y018909D01*
X036387Y018850D02*
X034291Y018850D01*
X034291Y018792D02*
X036387Y018792D01*
X036387Y018733D02*
X034291Y018733D01*
X034291Y018674D02*
X036387Y018674D01*
X036387Y018616D02*
X034291Y018616D01*
X034291Y018557D02*
X036387Y018557D01*
X036387Y018499D02*
X034291Y018499D01*
X034291Y018440D02*
X036387Y018440D01*
X036387Y018382D02*
X034291Y018382D01*
X034291Y018323D02*
X036387Y018323D01*
X036387Y018265D02*
X034291Y018265D01*
X034291Y018206D02*
X036387Y018206D01*
X036391Y018148D02*
X034291Y018148D01*
X034487Y018089D02*
X036449Y018089D01*
X036508Y018030D02*
X034545Y018030D01*
X034604Y017972D02*
X036868Y017972D01*
X036868Y017913D02*
X034662Y017913D01*
X034721Y017855D02*
X036903Y017855D01*
X037724Y017855D02*
X038884Y017855D01*
X038877Y017913D02*
X037759Y017913D01*
X037759Y017972D02*
X038877Y017972D01*
X038877Y018030D02*
X037759Y018030D01*
X037759Y018089D02*
X038877Y018089D01*
X038877Y018148D02*
X037759Y018148D01*
X037759Y018206D02*
X038877Y018206D01*
X038877Y018265D02*
X037759Y018265D01*
X037759Y018323D02*
X038877Y018323D01*
X038877Y018382D02*
X037759Y018382D01*
X037726Y018440D02*
X038877Y018440D01*
X038877Y018499D02*
X037759Y018499D01*
X037759Y018557D02*
X038877Y018557D01*
X038877Y018616D02*
X037759Y018616D01*
X037759Y018674D02*
X038877Y018674D01*
X038850Y018733D02*
X038615Y018733D01*
X038674Y018792D02*
X038791Y018792D01*
X038733Y018850D02*
X038691Y018850D01*
X039141Y019318D02*
X041637Y019318D01*
X041637Y019260D02*
X039200Y019260D01*
X039258Y019201D02*
X041637Y019201D01*
X041637Y019143D02*
X039317Y019143D01*
X039362Y019097D02*
X039011Y019449D01*
X038897Y019496D01*
X038774Y019496D01*
X038691Y019496D01*
X038691Y019563D01*
X038629Y019625D01*
X040120Y019625D01*
X040217Y019585D01*
X040356Y019585D01*
X041637Y019585D01*
X041637Y018045D01*
X039515Y018045D01*
X039497Y018063D01*
X039497Y018896D01*
X039449Y019010D01*
X039362Y019097D01*
X039375Y019084D02*
X041637Y019084D01*
X041637Y019026D02*
X039434Y019026D01*
X039467Y018967D02*
X041637Y018967D01*
X041637Y018909D02*
X039492Y018909D01*
X039497Y018850D02*
X041637Y018850D01*
X041637Y018792D02*
X039497Y018792D01*
X039497Y018733D02*
X041637Y018733D01*
X041637Y018674D02*
X039497Y018674D01*
X039497Y018616D02*
X041637Y018616D01*
X041637Y018557D02*
X039497Y018557D01*
X039497Y018499D02*
X041637Y018499D01*
X041637Y018440D02*
X039497Y018440D01*
X039497Y018382D02*
X041637Y018382D01*
X041637Y018323D02*
X039497Y018323D01*
X039497Y018265D02*
X041637Y018265D01*
X041637Y018206D02*
X039497Y018206D01*
X039497Y018148D02*
X041637Y018148D01*
X041637Y018089D02*
X039497Y018089D01*
X039083Y019377D02*
X041637Y019377D01*
X041637Y019436D02*
X039024Y019436D01*
X038901Y019494D02*
X041637Y019494D01*
X041637Y019553D02*
X038691Y019553D01*
X038643Y019611D02*
X040153Y019611D01*
X039822Y020255D02*
X037683Y020255D01*
X037448Y020548D02*
X034287Y020548D01*
X034287Y020606D02*
X037390Y020606D01*
X037331Y020665D02*
X034287Y020665D01*
X034287Y020723D02*
X037273Y020723D01*
X037257Y020782D02*
X037036Y020782D01*
X037077Y020841D02*
X037257Y020841D01*
X036944Y020255D02*
X034287Y020255D01*
X034287Y020197D02*
X036885Y020197D01*
X036852Y020138D02*
X034287Y020138D01*
X034287Y020079D02*
X036549Y020079D01*
X036490Y020021D02*
X034287Y020021D01*
X034291Y019962D02*
X036432Y019962D01*
X036387Y019904D02*
X034291Y019904D01*
X034287Y020314D02*
X039822Y020314D01*
X039822Y020372D02*
X034287Y020372D01*
X034287Y020431D02*
X039822Y020431D01*
X039822Y020489D02*
X034287Y020489D01*
X034287Y020782D02*
X034337Y020782D01*
X034297Y020841D02*
X034287Y020841D01*
X034287Y020899D02*
X034297Y020899D01*
X034287Y020958D02*
X034297Y020958D01*
X034287Y021016D02*
X034297Y021016D01*
X034287Y021660D02*
X034297Y021660D01*
X034287Y021719D02*
X034297Y021719D01*
X034287Y021777D02*
X034297Y021777D01*
X034287Y021836D02*
X034339Y021836D01*
X031447Y022246D02*
X031346Y022246D01*
X031404Y022304D02*
X031447Y022304D01*
X034747Y025226D02*
X034747Y025251D01*
X034865Y025251D01*
X034671Y025641D02*
X034664Y025641D01*
X034606Y025700D02*
X034730Y025700D01*
X034789Y025758D02*
X034624Y025758D01*
X034624Y025817D02*
X034930Y025817D01*
X034624Y025875D02*
X035702Y025875D01*
X035702Y025934D02*
X034624Y025934D01*
X034624Y025992D02*
X035702Y025992D01*
X035248Y026051D02*
X035179Y026051D01*
X034708Y026051D02*
X034624Y026051D01*
X034613Y026109D02*
X034677Y026109D01*
X034677Y026168D02*
X034419Y026168D01*
X034591Y026227D02*
X034677Y026227D01*
X034677Y026285D02*
X034624Y026285D01*
X034624Y026344D02*
X034677Y026344D01*
X034357Y026435D02*
X034357Y026514D01*
X036027Y026514D01*
X036029Y026516D01*
X035513Y026812D02*
X035453Y026812D01*
X035453Y026871D02*
X035513Y026871D01*
X035513Y026929D02*
X035453Y026929D01*
X035453Y026988D02*
X035513Y026988D01*
X035202Y026988D02*
X035168Y026988D01*
X034123Y026227D02*
X034048Y026227D01*
X032709Y027222D02*
X032337Y027222D01*
X032337Y027280D02*
X032652Y027280D01*
X032539Y027339D02*
X032337Y027339D01*
X032337Y027397D02*
X032480Y027397D01*
X032443Y027456D02*
X032337Y027456D01*
X032337Y027514D02*
X032443Y027514D01*
X032443Y027573D02*
X032337Y027573D01*
X032337Y027632D02*
X032443Y027632D01*
X032493Y027690D02*
X032337Y027690D01*
X032337Y027749D02*
X032552Y027749D01*
X032092Y029329D02*
X032071Y029329D01*
X032502Y029739D02*
X032679Y029739D01*
X032679Y029681D02*
X032561Y029681D01*
X032620Y029622D02*
X032679Y029622D01*
X032678Y029564D02*
X032679Y029564D01*
X032679Y029798D02*
X032444Y029798D01*
X032385Y029856D02*
X032706Y029856D01*
X032389Y030969D02*
X033089Y030969D01*
X032989Y031027D02*
X032489Y031027D01*
X032548Y031086D02*
X032931Y031086D01*
X032893Y031144D02*
X032585Y031144D01*
X032609Y031203D02*
X032869Y031203D01*
X032849Y031261D02*
X032629Y031261D01*
X032629Y031320D02*
X032849Y031320D01*
X032849Y031378D02*
X032629Y031378D01*
X032616Y031437D02*
X032862Y031437D01*
X032886Y031495D02*
X032592Y031495D01*
X032565Y031554D02*
X032913Y031554D01*
X032971Y031613D02*
X032507Y031613D01*
X033507Y031613D02*
X033971Y031613D01*
X033913Y031554D02*
X033565Y031554D01*
X033592Y031495D02*
X033886Y031495D01*
X033862Y031437D02*
X033616Y031437D01*
X033629Y031378D02*
X033849Y031378D01*
X033849Y031320D02*
X033629Y031320D01*
X033629Y031261D02*
X033849Y031261D01*
X033869Y031203D02*
X033609Y031203D01*
X033585Y031144D02*
X033893Y031144D01*
X033931Y031086D02*
X033548Y031086D01*
X033489Y031027D02*
X033989Y031027D01*
X034089Y030969D02*
X033389Y030969D01*
X037507Y031613D02*
X037809Y031613D01*
X037809Y031554D02*
X037565Y031554D01*
X037592Y031495D02*
X037809Y031495D01*
X037809Y031437D02*
X037616Y031437D01*
X037629Y031378D02*
X037809Y031378D01*
X040387Y025385D02*
X040337Y025309D01*
X040584Y024880D02*
X037545Y024880D01*
X037545Y024821D02*
X040637Y024821D01*
X040637Y024763D02*
X037905Y024763D01*
X037955Y024704D02*
X040637Y024704D01*
X040637Y024646D02*
X039962Y024646D01*
X040020Y024587D02*
X040637Y024587D01*
X040637Y024529D02*
X040079Y024529D01*
X040095Y024470D02*
X040637Y024470D01*
X040637Y024412D02*
X040095Y024412D01*
X040095Y024353D02*
X040637Y024353D01*
X040637Y024295D02*
X040095Y024295D01*
X040210Y024236D02*
X040637Y024236D01*
X040637Y024178D02*
X040269Y024178D01*
X040327Y024119D02*
X040637Y024119D01*
X040574Y024060D02*
X040386Y024060D01*
X040332Y024115D02*
X040332Y024115D01*
X040445Y024002D02*
X040516Y024002D01*
X040495Y023943D02*
X040467Y023943D01*
X040467Y023885D02*
X040495Y023885D01*
X040495Y023826D02*
X040467Y023826D01*
X040467Y023768D02*
X040495Y023768D01*
X040495Y023709D02*
X040467Y023709D01*
X040467Y023651D02*
X040495Y023651D01*
X040495Y023592D02*
X040467Y023592D01*
X040467Y023534D02*
X040495Y023534D01*
X040495Y023475D02*
X040467Y023475D01*
X040467Y023416D02*
X040495Y023416D01*
X040495Y023358D02*
X040467Y023358D01*
X040467Y023299D02*
X040495Y023299D01*
X040495Y023241D02*
X040467Y023241D01*
X040467Y023182D02*
X040495Y023182D01*
X040495Y023124D02*
X040467Y023124D01*
X039532Y022772D02*
X038262Y022772D01*
X038262Y022714D02*
X039503Y022714D01*
X039503Y022655D02*
X038262Y022655D01*
X038262Y022597D02*
X039503Y022597D01*
X039503Y022538D02*
X038262Y022538D01*
X038262Y022480D02*
X039503Y022480D01*
X039503Y022421D02*
X038262Y022421D01*
X038262Y022363D02*
X039503Y022363D01*
X039503Y022304D02*
X038243Y022304D01*
X038185Y022246D02*
X039503Y022246D01*
X039493Y022831D02*
X039381Y022831D01*
X038844Y022831D02*
X038262Y022831D01*
X038262Y022890D02*
X038785Y022890D01*
X038767Y022948D02*
X038262Y022948D01*
X038262Y023007D02*
X038767Y023007D01*
X038767Y023065D02*
X038262Y023065D01*
X038262Y023124D02*
X038767Y023124D01*
X038767Y023182D02*
X038262Y023182D01*
X038262Y023241D02*
X038767Y023241D01*
X038767Y023299D02*
X038262Y023299D01*
X038262Y023358D02*
X038767Y023358D01*
X038767Y023416D02*
X038262Y023416D01*
X038233Y023475D02*
X038781Y023475D01*
X038839Y023534D02*
X038175Y023534D01*
X037869Y023826D02*
X039019Y023826D01*
X039019Y023768D02*
X037497Y023768D01*
X037497Y023709D02*
X039019Y023709D01*
X039020Y023651D02*
X037497Y023651D01*
X037497Y023592D02*
X038961Y023592D01*
X039019Y023885D02*
X037928Y023885D01*
X037955Y023943D02*
X039019Y023943D01*
X039019Y024002D02*
X037955Y024002D01*
X037955Y024060D02*
X039019Y024060D01*
X039019Y024119D02*
X037955Y024119D01*
X037955Y024178D02*
X039019Y024178D01*
X039019Y024236D02*
X037955Y024236D01*
X037955Y024295D02*
X039019Y024295D01*
X039019Y024353D02*
X037955Y024353D01*
X037955Y024412D02*
X039019Y024412D01*
X039031Y024470D02*
X037955Y024470D01*
X037955Y024529D02*
X039090Y024529D01*
X039553Y024587D02*
X037955Y024587D01*
X037955Y024646D02*
X039612Y024646D01*
X037937Y022935D02*
X037587Y022885D01*
X044137Y018092D02*
X044137Y014077D01*
X041637Y013635D02*
X037237Y013635D01*
X037635Y012962D02*
X037635Y012886D01*
X037637Y012885D01*
X037637Y012435D01*
X037641Y012430D01*
X037887Y012435D02*
X037891Y012430D01*
X037891Y012962D01*
X038937Y012435D02*
X038937Y012430D01*
X040437Y012935D02*
X040450Y012948D01*
X040450Y012962D01*
X041287Y014685D02*
X041287Y014885D01*
X041037Y015135D01*
X041371Y017269D02*
X035658Y017269D01*
X035716Y017328D02*
X041430Y017328D01*
X041488Y017386D02*
X035775Y017386D01*
X035487Y017535D02*
X035459Y017562D01*
X035312Y017796D02*
X034779Y017796D01*
X034898Y017328D02*
X035257Y017328D01*
X035316Y017269D02*
X034956Y017269D01*
X033786Y016382D02*
X033439Y016382D01*
X033137Y016685D01*
X032737Y016685D01*
X032437Y016985D01*
X032737Y017285D02*
X031187Y017285D01*
X031137Y017235D01*
X031137Y017935D02*
X032487Y017935D01*
X033037Y017385D01*
X033037Y016985D01*
X033287Y016135D02*
X033354Y016067D01*
X033786Y016067D01*
X035687Y011735D02*
X035737Y011685D01*
X035737Y011710D02*
X035687Y011685D01*
X035737Y011635D01*
X035737Y010809D01*
X035687Y011635D02*
X035687Y011685D01*
X038387Y010835D02*
X039287Y010835D01*
X039037Y009385D02*
X038837Y009385D01*
X038637Y009185D01*
X038637Y006585D01*
X039487Y005735D01*
X039487Y006435D02*
X039518Y006466D01*
X039518Y006999D01*
X039523Y006999D01*
X039537Y006985D01*
X039587Y007035D01*
X039787Y007035D01*
X039937Y007185D01*
X039487Y008235D02*
X039518Y008266D01*
X039518Y008770D01*
X041831Y009214D02*
X042307Y009214D01*
X042387Y009135D01*
X042387Y008985D01*
X042487Y008885D01*
X037156Y008770D02*
X037156Y008266D01*
X037187Y008235D01*
X037156Y006999D02*
X037156Y006466D01*
X037187Y006435D01*
X035018Y006466D02*
X034987Y006435D01*
X035018Y006466D02*
X035018Y006999D01*
X035018Y008310D02*
X035018Y008770D01*
X035018Y008310D02*
X035017Y008293D01*
X035013Y008277D01*
X035006Y008262D01*
X034998Y008248D01*
X034987Y008235D01*
X032687Y008235D02*
X032676Y008248D01*
X032668Y008262D01*
X032661Y008277D01*
X032657Y008293D01*
X032656Y008310D01*
X032656Y008770D01*
X024537Y008985D02*
X023037Y010485D01*
X021937Y010485D01*
X022037Y010085D02*
X021137Y010085D01*
X021137Y010535D01*
X019437Y012235D01*
X019437Y012735D01*
X019937Y012335D02*
X019937Y013185D01*
X019137Y013985D01*
X019637Y013885D02*
X020137Y013385D01*
X020137Y012485D01*
X020737Y011885D01*
X021437Y011885D01*
X021287Y010985D02*
X019937Y012335D01*
X019637Y013885D02*
X019637Y015135D01*
X019645Y015127D01*
X019645Y015122D01*
X020205Y015516D02*
X020387Y015335D01*
X020387Y015235D01*
X020865Y014492D02*
X020865Y014106D01*
X021537Y013785D02*
X021652Y013900D01*
X021652Y014492D01*
X021849Y014492D02*
X021849Y014997D01*
X022037Y015185D01*
X022537Y015185D02*
X022834Y014888D01*
X022834Y014492D01*
X023030Y014492D02*
X023030Y015078D01*
X023037Y015085D01*
X023227Y014492D02*
X023227Y014044D01*
X024037Y013235D01*
X023687Y013285D02*
X023687Y013135D01*
X023687Y013285D02*
X022937Y014035D01*
X022737Y014035D01*
X022637Y014135D01*
X022637Y014492D01*
X022440Y014492D02*
X022440Y014081D01*
X023237Y013285D01*
X025629Y015122D02*
X026099Y015122D01*
X025059Y018863D02*
X025037Y018885D01*
X024999Y020477D02*
X025229Y020477D01*
X025337Y020585D01*
X024887Y020935D02*
X024805Y020853D01*
X024536Y021836D02*
X026916Y021836D01*
X026857Y021894D02*
X024594Y021894D01*
X024653Y021953D02*
X026799Y021953D01*
X026740Y022011D02*
X024711Y022011D01*
X024770Y022070D02*
X026682Y022070D01*
X024597Y022304D02*
X024508Y022304D01*
X024535Y022363D02*
X024597Y022363D01*
X024597Y022421D02*
X024535Y022421D01*
X024535Y022480D02*
X024597Y022480D01*
X024597Y022538D02*
X024534Y022538D01*
X024476Y022597D02*
X024597Y022597D01*
X024597Y022655D02*
X024417Y022655D01*
X024597Y022714D02*
X023863Y022714D01*
X023863Y022772D02*
X024597Y022772D01*
X024597Y022831D02*
X023863Y022831D01*
X023863Y022890D02*
X024597Y022890D01*
X024597Y022948D02*
X023863Y022948D01*
X023863Y023007D02*
X024597Y023007D01*
X024597Y023065D02*
X023863Y023065D01*
X023863Y023124D02*
X024597Y023124D01*
X024597Y023182D02*
X023863Y023182D01*
X023863Y023241D02*
X024597Y023241D01*
X024597Y023299D02*
X023863Y023299D01*
X023863Y023358D02*
X024597Y023358D01*
X024597Y023416D02*
X023863Y023416D01*
X023863Y023475D02*
X024597Y023475D01*
X024597Y023534D02*
X023863Y023534D01*
X023863Y023592D02*
X024597Y023592D01*
X024597Y023651D02*
X023863Y023651D01*
X023863Y023709D02*
X024597Y023709D01*
X024597Y023768D02*
X023863Y023768D01*
X023863Y023826D02*
X024597Y023826D01*
X024597Y023885D02*
X023863Y023885D01*
X023863Y023943D02*
X024597Y023943D01*
X024156Y022655D02*
X023863Y022655D01*
X024063Y022246D02*
X024124Y022246D01*
X024183Y022187D02*
X024063Y022187D01*
X024063Y022129D02*
X024433Y022129D01*
X024391Y022187D02*
X024491Y022187D01*
X024449Y022246D02*
X024550Y022246D01*
X024374Y022070D02*
X024063Y022070D01*
X024063Y022011D02*
X024316Y022011D01*
X024257Y021953D02*
X024063Y021953D01*
X022557Y021894D02*
X021147Y021894D01*
X020957Y022187D02*
X021354Y022187D01*
X021354Y022246D02*
X020957Y022246D01*
X021354Y022304D02*
X021407Y022357D01*
X022042Y022357D01*
X022094Y022304D01*
X022094Y021953D02*
X022499Y021953D01*
X022487Y021635D02*
X022487Y021085D01*
X022367Y021309D02*
X022157Y021309D01*
X022157Y021367D02*
X022367Y021367D01*
X022344Y021426D02*
X022157Y021426D01*
X022106Y021485D02*
X022285Y021485D01*
X022238Y021543D02*
X022048Y021543D01*
X021989Y021602D02*
X022238Y021602D01*
X019502Y021119D02*
X019237Y021119D01*
X019137Y020785D02*
X018987Y020785D01*
X018887Y020885D01*
X019137Y020785D02*
X019237Y020685D01*
X019237Y019885D01*
X019274Y019847D01*
X019645Y019847D01*
X019645Y019650D02*
X019071Y019650D01*
X018537Y020185D01*
X018537Y020450D01*
X019237Y020450D02*
X019237Y019885D01*
X018337Y018785D02*
X018237Y018785D01*
X017637Y018785D02*
X014637Y018785D01*
X014637Y017835D01*
X015637Y017835D02*
X015637Y018285D01*
X015737Y018385D01*
X016302Y018385D01*
X016637Y017785D02*
X016637Y017319D01*
X017202Y016650D02*
X017337Y016785D01*
X017337Y016760D01*
X017612Y016760D01*
X017837Y016985D01*
X017202Y016650D02*
X016637Y016650D01*
X016637Y016119D02*
X017202Y016119D01*
X017312Y016009D01*
X017337Y016009D01*
X017661Y016009D01*
X017837Y016185D01*
X017337Y015360D02*
X017337Y015085D01*
X017137Y014885D01*
X016637Y014985D02*
X016637Y015450D01*
X016637Y015485D01*
X018137Y014785D02*
X018137Y014735D01*
X017637Y014135D02*
X017287Y013785D01*
X014837Y013785D01*
X014637Y013585D01*
X014637Y012585D01*
X015637Y012585D02*
X015637Y012985D01*
X015737Y013085D01*
X016302Y013085D01*
X016971Y013085D02*
X017337Y013085D01*
X017637Y013385D01*
X017137Y012585D02*
X017337Y012385D01*
X017337Y012109D01*
X017337Y011485D02*
X017637Y011485D01*
X017837Y011285D01*
X017837Y010785D01*
X017462Y010709D02*
X017837Y010335D01*
X017837Y009885D01*
X017337Y009785D02*
X017137Y009585D01*
X017337Y009785D02*
X017337Y010060D01*
X016637Y010150D02*
X016637Y009685D01*
X016637Y010150D02*
X016637Y010185D01*
X017202Y010819D02*
X017312Y010709D01*
X017337Y010709D01*
X017462Y010709D01*
X017202Y010819D02*
X016637Y010819D01*
X016637Y011350D02*
X017202Y011350D01*
X017337Y011485D01*
X017337Y011460D01*
X016637Y011985D02*
X016637Y012019D01*
X016637Y012485D01*
X014637Y013585D02*
X013961Y013585D01*
X013312Y013585D02*
X012737Y013585D01*
X012637Y013485D01*
X012637Y012585D01*
X014637Y014785D02*
X014637Y014835D01*
X012637Y017085D02*
X012437Y016985D01*
X012637Y017085D02*
X012637Y017835D01*
X012637Y018685D01*
X012737Y018785D01*
X013312Y018785D01*
X013961Y018785D02*
X014637Y018785D01*
X016637Y020185D02*
X016637Y020650D01*
X021695Y024060D02*
X021754Y024060D01*
X021754Y024119D02*
X021695Y024119D01*
X021695Y024178D02*
X021754Y024178D01*
X021754Y024236D02*
X021695Y024236D01*
X021695Y024412D02*
X021754Y024412D01*
X021754Y024470D02*
X021695Y024470D01*
X021695Y024529D02*
X021754Y024529D01*
X022173Y025992D02*
X021145Y025992D01*
X021087Y026051D02*
X022173Y026051D01*
X022173Y026109D02*
X021028Y026109D01*
X020969Y026168D02*
X022173Y026168D01*
X022173Y026227D02*
X020911Y026227D01*
X020852Y026285D02*
X022173Y026285D01*
X022173Y026344D02*
X020794Y026344D01*
X020735Y026402D02*
X022173Y026402D01*
X022173Y026461D02*
X020677Y026461D01*
X020618Y026519D02*
X022173Y026519D01*
X022173Y026578D02*
X020560Y026578D01*
X020501Y026636D02*
X022173Y026636D01*
X022173Y026695D02*
X020443Y026695D01*
X020384Y026753D02*
X022173Y026753D01*
X022184Y026812D02*
X020325Y026812D01*
X020267Y026871D02*
X022242Y026871D01*
X023033Y026871D02*
X023382Y026871D01*
X023407Y026812D02*
X023092Y026812D01*
X023103Y026753D02*
X023273Y026753D01*
X023214Y026695D02*
X023103Y026695D01*
X023103Y026636D02*
X023156Y026636D01*
X023354Y026929D02*
X020266Y026929D01*
X020266Y026988D02*
X023354Y026988D01*
X023354Y027046D02*
X020266Y027046D01*
X020266Y027105D02*
X023354Y027105D01*
X023354Y027163D02*
X020266Y027163D01*
X020266Y027222D02*
X023354Y027222D01*
X023354Y027280D02*
X020266Y027280D01*
X020266Y027339D02*
X023354Y027339D01*
X023354Y027397D02*
X020266Y027397D01*
X020262Y027456D02*
X023354Y027456D01*
X023374Y027514D02*
X020238Y027514D01*
X020213Y027573D02*
X023433Y027573D01*
X023871Y027163D02*
X024102Y027163D01*
X024102Y027105D02*
X023871Y027105D01*
X023871Y027046D02*
X024102Y027046D01*
X024337Y026885D02*
X024337Y027246D01*
X024361Y027196D01*
X024619Y027456D02*
X024622Y027456D01*
X021161Y029085D02*
X021161Y029560D01*
X021087Y029635D01*
X020872Y029856D02*
X020517Y029856D01*
X020517Y029798D02*
X020814Y029798D01*
X020778Y029739D02*
X020517Y029739D01*
X020517Y029681D02*
X020778Y029681D01*
X020778Y029622D02*
X020517Y029622D01*
X020517Y029564D02*
X020778Y029564D01*
X020780Y029505D02*
X020517Y029505D01*
X020772Y029446D02*
X020839Y029446D01*
X020831Y029388D02*
X020842Y029388D01*
X020512Y029085D02*
X020287Y029085D01*
X020187Y028985D01*
X020187Y028485D01*
X020037Y028335D01*
X019560Y028335D01*
X020794Y028744D02*
X020880Y028744D01*
X020931Y029915D02*
X020517Y029915D01*
X020056Y030090D02*
X020054Y030090D01*
X019350Y030969D02*
X020923Y030969D01*
X020864Y031027D02*
X019409Y031027D01*
X019468Y031086D02*
X020806Y031086D01*
X020747Y031144D02*
X019526Y031144D01*
X019547Y031203D02*
X020727Y031203D01*
X020727Y031261D02*
X019547Y031261D01*
X019547Y031320D02*
X020727Y031320D01*
X020727Y031378D02*
X019547Y031378D01*
X019547Y031437D02*
X020727Y031437D01*
X020727Y031495D02*
X019547Y031495D01*
X019497Y031554D02*
X020776Y031554D01*
X020835Y031613D02*
X019439Y031613D01*
X021350Y030969D02*
X021923Y030969D01*
X021864Y031027D02*
X021409Y031027D01*
X021468Y031086D02*
X021806Y031086D01*
X021747Y031144D02*
X021526Y031144D01*
X021547Y031203D02*
X021727Y031203D01*
X021727Y031261D02*
X021547Y031261D01*
X021547Y031320D02*
X021727Y031320D01*
X021727Y031378D02*
X021547Y031378D01*
X021547Y031437D02*
X021727Y031437D01*
X021727Y031495D02*
X021547Y031495D01*
X021497Y031554D02*
X021776Y031554D01*
X021835Y031613D02*
X021439Y031613D01*
X022187Y030485D02*
X022937Y030485D01*
X022937Y030509D01*
X022925Y030509D01*
X022937Y030509D02*
X022937Y030535D01*
X022611Y030266D02*
X022552Y030266D01*
X022187Y030459D02*
X022187Y030485D01*
X024279Y030734D02*
X026637Y030734D01*
X026637Y030676D02*
X024335Y030676D01*
X024335Y030617D02*
X026637Y030617D01*
X026637Y030559D02*
X024335Y030559D01*
X024350Y030969D02*
X024923Y030969D01*
X024864Y031027D02*
X024409Y031027D01*
X024468Y031086D02*
X024806Y031086D01*
X024747Y031144D02*
X024526Y031144D01*
X024547Y031203D02*
X024727Y031203D01*
X024727Y031261D02*
X024547Y031261D01*
X024547Y031320D02*
X024727Y031320D01*
X024727Y031378D02*
X024547Y031378D01*
X024547Y031437D02*
X024727Y031437D01*
X024727Y031495D02*
X024547Y031495D01*
X024497Y031554D02*
X024776Y031554D01*
X024835Y031613D02*
X024439Y031613D01*
X025439Y031613D02*
X025835Y031613D01*
X025776Y031554D02*
X025497Y031554D01*
X025547Y031495D02*
X025727Y031495D01*
X025727Y031437D02*
X025547Y031437D01*
X025547Y031378D02*
X025727Y031378D01*
X025727Y031320D02*
X025547Y031320D01*
X025547Y031261D02*
X025727Y031261D01*
X025727Y031203D02*
X025547Y031203D01*
X025526Y031144D02*
X025747Y031144D01*
X025806Y031086D02*
X025468Y031086D01*
X025409Y031027D02*
X025864Y031027D01*
X025923Y030969D02*
X025350Y030969D01*
X019566Y027231D02*
X019566Y026657D01*
X019619Y026528D01*
X019718Y026430D01*
X020173Y025974D01*
X016676Y025974D01*
X016676Y026222D01*
X016736Y026162D01*
X017805Y026162D01*
X017893Y026250D01*
X017893Y027319D01*
X017805Y027407D01*
X016736Y027407D01*
X016676Y027347D01*
X016676Y028110D01*
X016588Y028198D01*
X016345Y028198D01*
X016485Y028338D01*
X016632Y028485D01*
X016930Y028485D01*
X016930Y028154D01*
X017018Y028066D01*
X017163Y028066D01*
X017163Y027898D01*
X017163Y027759D01*
X017216Y027630D01*
X017315Y027532D01*
X017443Y027479D01*
X018106Y027479D01*
X018206Y027378D01*
X018335Y027325D01*
X018474Y027325D01*
X019472Y027325D01*
X019566Y027231D01*
X019566Y027222D02*
X017893Y027222D01*
X017893Y027280D02*
X019517Y027280D01*
X019566Y027163D02*
X017893Y027163D01*
X017893Y027105D02*
X019566Y027105D01*
X019566Y027046D02*
X017893Y027046D01*
X017893Y026988D02*
X019566Y026988D01*
X019566Y026929D02*
X017893Y026929D01*
X017893Y026871D02*
X019566Y026871D01*
X019566Y026812D02*
X017893Y026812D01*
X017893Y026753D02*
X019566Y026753D01*
X019566Y026695D02*
X017893Y026695D01*
X017893Y026636D02*
X019575Y026636D01*
X019599Y026578D02*
X017893Y026578D01*
X017893Y026519D02*
X019628Y026519D01*
X019687Y026461D02*
X017893Y026461D01*
X017893Y026402D02*
X019745Y026402D01*
X019804Y026344D02*
X017893Y026344D01*
X017893Y026285D02*
X019862Y026285D01*
X019921Y026227D02*
X017870Y026227D01*
X017811Y026168D02*
X019980Y026168D01*
X020038Y026109D02*
X016676Y026109D01*
X016676Y026051D02*
X020097Y026051D01*
X020155Y025992D02*
X016676Y025992D01*
X016676Y026168D02*
X016730Y026168D01*
X016726Y027397D02*
X016676Y027397D01*
X016676Y027456D02*
X018129Y027456D01*
X018187Y027397D02*
X017815Y027397D01*
X017873Y027339D02*
X018302Y027339D01*
X017357Y027514D02*
X016676Y027514D01*
X016676Y027573D02*
X017274Y027573D01*
X017216Y027632D02*
X016676Y027632D01*
X016676Y027690D02*
X017192Y027690D01*
X017167Y027749D02*
X016676Y027749D01*
X016676Y027807D02*
X017163Y027807D01*
X017163Y027866D02*
X016676Y027866D01*
X016676Y027924D02*
X017163Y027924D01*
X017163Y027983D02*
X016676Y027983D01*
X016676Y028041D02*
X017163Y028041D01*
X016984Y028100D02*
X016676Y028100D01*
X016627Y028158D02*
X016930Y028158D01*
X016930Y028217D02*
X016364Y028217D01*
X016423Y028276D02*
X016930Y028276D01*
X016930Y028334D02*
X016481Y028334D01*
X016540Y028393D02*
X016930Y028393D01*
X016930Y028451D02*
X016598Y028451D01*
X016194Y029037D02*
X012418Y029037D01*
X012418Y029095D02*
X016252Y029095D01*
X009637Y017835D02*
X009637Y016985D01*
X019837Y009535D02*
X019887Y009485D01*
X019862Y009460D01*
X019862Y009135D02*
X019862Y008959D01*
X020487Y009135D02*
X020511Y009135D01*
X021037Y009485D02*
X021137Y009385D01*
X021137Y009360D01*
X021437Y009385D02*
X021837Y009785D01*
X022037Y010085D02*
X022237Y009885D01*
X022237Y009485D01*
X021937Y009185D01*
X021837Y009185D01*
X021137Y010009D02*
X021137Y010085D01*
X021287Y010985D02*
X022237Y010985D01*
X021737Y008308D02*
X021737Y008285D01*
X020760Y008308D02*
X020737Y008285D01*
X020737Y008308D01*
X020563Y008308D01*
X023587Y005485D02*
X023987Y005085D01*
X024387Y005085D01*
X022737Y004085D02*
X022261Y004085D01*
X022737Y004085D02*
X022737Y003085D01*
X021612Y004085D02*
X020887Y004085D01*
X016510Y008308D02*
X016487Y008285D01*
X016487Y008308D01*
X013876Y007574D02*
X013837Y007535D01*
X013797Y007574D01*
X013388Y007574D01*
X013388Y007833D01*
X013387Y007835D01*
X013388Y007833D02*
X013388Y007830D01*
X013765Y006807D02*
X013837Y006735D01*
X013388Y006295D02*
X013388Y006286D01*
X013387Y006285D01*
X013388Y006295D02*
X013347Y006295D01*
X013337Y006285D01*
X013388Y006039D02*
X013141Y006039D01*
X012987Y005885D01*
X012137Y005885D01*
X011887Y005635D01*
X012387Y005535D02*
X012537Y005685D01*
X013837Y005685D01*
X012387Y005535D02*
X012387Y005085D01*
X009387Y005085D02*
X009387Y006235D01*
D79*
X011887Y005635D03*
X013837Y006735D03*
X013837Y007135D03*
X013837Y007535D03*
X014137Y007985D03*
X015237Y007035D03*
X015237Y006585D03*
X017337Y006985D03*
X018137Y007185D03*
X018487Y007485D03*
X018937Y007485D03*
X019387Y007485D03*
X020837Y007435D03*
X021387Y007535D03*
X021687Y006985D03*
X022237Y007585D03*
X022737Y007585D03*
X022937Y006985D03*
X021837Y009185D03*
X021837Y009785D03*
X021937Y010485D03*
X022237Y010985D03*
X022487Y012435D03*
X022937Y012435D03*
X023387Y012435D03*
X023837Y012085D03*
X024037Y012535D03*
X024337Y012985D03*
X024837Y013485D03*
X025037Y013885D03*
X026337Y014385D03*
X026637Y013985D03*
X027037Y013685D03*
X027737Y014385D03*
X027337Y014685D03*
X028137Y014985D03*
X028137Y015485D03*
X028537Y015485D03*
X029137Y015285D03*
X028137Y016085D03*
X028137Y016985D03*
X028537Y017285D03*
X028137Y017685D03*
X028937Y017885D03*
X028637Y018285D03*
X029037Y018585D03*
X029487Y018585D03*
X030137Y017935D03*
X030087Y017235D03*
X031137Y017235D03*
X031637Y017585D03*
X031137Y017935D03*
X032437Y016985D03*
X032737Y017285D03*
X033037Y016985D03*
X032987Y016185D03*
X032687Y015885D03*
X032987Y015585D03*
X032687Y015285D03*
X032987Y014985D03*
X031937Y014985D03*
X031337Y015185D03*
X031537Y013685D03*
X031937Y013685D03*
X031637Y012885D03*
X032437Y011885D03*
X032837Y011685D03*
X033237Y011585D03*
X033537Y011285D03*
X033837Y011585D03*
X034137Y011285D03*
X034437Y011585D03*
X034737Y011285D03*
X035137Y011085D03*
X034737Y010785D03*
X035137Y011535D03*
X036637Y012035D03*
X037237Y012035D03*
X036337Y012885D03*
X035687Y012885D03*
X034837Y013285D03*
X034237Y014085D03*
X037237Y013635D03*
X039587Y012035D03*
X040087Y012335D03*
X039287Y010835D03*
X038387Y010835D03*
X036787Y010635D03*
X036787Y009385D03*
X037187Y008235D03*
X039037Y009385D03*
X039487Y008235D03*
X039487Y006435D03*
X038287Y005785D03*
X037187Y006435D03*
X034987Y006435D03*
X034987Y008235D03*
X032687Y008235D03*
X032687Y006435D03*
X030137Y006835D03*
X029537Y006485D03*
X027887Y006885D03*
X026637Y006685D03*
X026437Y009085D03*
X026937Y009085D03*
X027487Y009085D03*
X027737Y009635D03*
X028137Y009685D03*
X028537Y009485D03*
X026837Y011085D03*
X027037Y011485D03*
X027537Y011485D03*
X028037Y011485D03*
X028537Y011485D03*
X029037Y011485D03*
X029637Y011485D03*
X028437Y012885D03*
X025037Y015385D03*
X024737Y016085D03*
X025037Y016885D03*
X024437Y016885D03*
X023737Y016085D03*
X023737Y015485D03*
X024037Y015085D03*
X023037Y015085D03*
X022537Y015185D03*
X021737Y015435D03*
X021737Y015885D03*
X021387Y015085D03*
X020987Y015085D03*
X020387Y015235D03*
X020537Y016185D03*
X021137Y016685D03*
X020237Y016985D03*
X020837Y017785D03*
X020537Y018585D03*
X020237Y018985D03*
X021037Y019585D03*
X021437Y019285D03*
X022037Y019885D03*
X023037Y019685D03*
X023537Y019685D03*
X024137Y019885D03*
X024637Y019885D03*
X025337Y020585D03*
X026537Y020985D03*
X026837Y020685D03*
X027137Y020385D03*
X027437Y020735D03*
X027737Y020335D03*
X028187Y019135D03*
X028637Y019135D03*
X029187Y019985D03*
X029637Y019835D03*
X029937Y019535D03*
X030337Y019985D03*
X030737Y019985D03*
X031787Y019985D03*
X032137Y019735D03*
X032487Y019985D03*
X033187Y018935D03*
X032937Y018585D03*
X033187Y018235D03*
X034487Y018535D03*
X034487Y019035D03*
X034487Y019535D03*
X035137Y019985D03*
X035137Y020585D03*
X036237Y020585D03*
X036237Y019985D03*
X037137Y020585D03*
X038737Y020385D03*
X039587Y020385D03*
X039487Y019435D03*
X038687Y018635D03*
X038687Y017435D03*
X040937Y017085D03*
X040887Y018235D03*
X041437Y018235D03*
X041437Y019435D03*
X040887Y019435D03*
X040887Y020435D03*
X041437Y020435D03*
X041437Y021635D03*
X040887Y021635D03*
X042589Y022285D03*
X040487Y024185D03*
X039787Y024385D03*
X039787Y023685D03*
X038537Y023385D03*
X038537Y022335D03*
X036787Y022135D03*
X035687Y022135D03*
X034537Y022135D03*
X032887Y021285D03*
X032437Y021285D03*
X031987Y021285D03*
X031587Y021785D03*
X030137Y021685D03*
X029687Y021685D03*
X029237Y021885D03*
X030137Y021235D03*
X029387Y023335D03*
X030837Y023935D03*
X030813Y024749D03*
X029940Y025470D03*
X028629Y024749D03*
X026887Y023335D03*
X027187Y023035D03*
X026587Y023035D03*
X025687Y022435D03*
X025137Y023585D03*
X024737Y024435D03*
X024157Y024710D03*
X023049Y024678D03*
X022637Y024085D03*
X021037Y024085D03*
X020737Y024485D03*
X020137Y024085D03*
X019337Y024085D03*
X019237Y023385D03*
X019237Y022985D03*
X019637Y022985D03*
X019187Y021985D03*
X019637Y021685D03*
X019937Y021385D03*
X021337Y021235D03*
X021737Y021235D03*
X022487Y021635D03*
X022987Y021185D03*
X023387Y021185D03*
X024287Y022435D03*
X026387Y023985D03*
X025787Y024335D03*
X026387Y024741D03*
X024733Y026149D03*
X025137Y026585D03*
X024787Y027185D03*
X025137Y027785D03*
X025137Y028785D03*
X026070Y029127D03*
X026687Y028585D03*
X026137Y030085D03*
X028751Y029635D03*
X029255Y030371D03*
X030237Y030585D03*
X030235Y031440D03*
X032747Y030460D03*
X031865Y028635D03*
X032692Y027537D03*
X030475Y028635D03*
X029767Y029159D03*
X029339Y028634D03*
X028687Y028735D03*
X028999Y027154D03*
X026137Y026585D03*
X021637Y027285D03*
X020887Y026835D03*
X020567Y027611D03*
X021637Y028285D03*
X021237Y028485D03*
X021787Y028785D03*
X021637Y029285D03*
X021087Y029635D03*
X021187Y030285D03*
X021637Y030285D03*
X020687Y030285D03*
X018787Y030035D03*
X018337Y030035D03*
X018587Y030535D03*
X016287Y028635D03*
X016887Y027835D03*
X018251Y027829D03*
X018137Y027235D03*
X018137Y026145D03*
X019794Y026113D03*
X017537Y024385D03*
X017137Y023085D03*
X016637Y022985D03*
X017937Y021885D03*
X018137Y021435D03*
X017937Y020435D03*
X017137Y020085D03*
X016637Y020185D03*
X017937Y019385D03*
X018237Y018785D03*
X017637Y018785D03*
X018137Y018185D03*
X017137Y017885D03*
X016637Y017785D03*
X017837Y016185D03*
X016637Y014985D03*
X017137Y014885D03*
X017637Y014135D03*
X017637Y013385D03*
X017137Y012585D03*
X016637Y012485D03*
X017837Y010785D03*
X017837Y009885D03*
X017137Y009585D03*
X016637Y009685D03*
X019437Y012735D03*
X019187Y013135D03*
X019137Y013985D03*
X020587Y013885D03*
X021537Y013785D03*
X023237Y013285D03*
X023687Y013135D03*
X024237Y010285D03*
X024637Y010285D03*
X025037Y010285D03*
X025437Y010285D03*
X025437Y009085D03*
X024987Y009085D03*
X025937Y009085D03*
X030137Y003885D03*
X020887Y004085D03*
X008137Y013285D03*
X006637Y015835D03*
X007937Y016385D03*
X007037Y019385D03*
X004437Y020585D03*
X003237Y024085D03*
X007337Y025285D03*
X003337Y028185D03*
X012587Y029735D03*
X012587Y030435D03*
X014037Y030435D03*
X014037Y029735D03*
X013987Y028835D03*
X015337Y029735D03*
X015337Y030435D03*
X015337Y031435D03*
X020987Y022735D03*
X021537Y022835D03*
X026237Y019785D03*
X026437Y018585D03*
X025037Y018885D03*
X024737Y018485D03*
X024137Y018685D03*
X024137Y018185D03*
X023137Y017185D03*
X022137Y017185D03*
X022137Y017785D03*
X012337Y016385D03*
X010637Y021585D03*
X004437Y012085D03*
X005837Y011085D03*
X004837Y009085D03*
X005937Y005585D03*
X004437Y005085D03*
X031887Y023335D03*
X033062Y024384D03*
X032382Y024749D03*
X032546Y025953D03*
X034440Y025514D03*
X036437Y024785D03*
X037237Y024785D03*
X037223Y025955D03*
X037211Y026632D03*
X036023Y027092D03*
X035566Y027754D03*
X036200Y028059D03*
X037294Y028067D03*
X037334Y029331D03*
X036271Y029359D03*
X036219Y030544D03*
X037023Y030555D03*
X037885Y030555D03*
X038553Y030561D03*
X038971Y029229D03*
X039385Y028814D03*
X040168Y028246D03*
X044387Y026435D03*
X043786Y020463D03*
X043271Y018128D03*
X043538Y017655D03*
X041337Y015685D03*
X041287Y014685D03*
X041637Y013635D03*
X042087Y013635D03*
X042487Y013235D03*
X042487Y012785D03*
X040087Y015635D03*
X036237Y018085D03*
X035487Y017535D03*
X035137Y018085D03*
X036237Y019035D03*
X035137Y023835D03*
X034487Y023835D03*
X042487Y008885D03*
X042637Y002335D03*
X040387Y002335D03*
D80*
X035637Y021285D02*
X035587Y021335D01*
X034037Y021335D01*
X033937Y021435D01*
X033937Y021885D01*
X033937Y024385D01*
X033062Y024385D01*
X025837Y024385D01*
X025787Y024335D02*
X025687Y024235D01*
X025687Y022435D01*
X031987Y021585D02*
X031987Y021285D01*
X031987Y021585D02*
X032287Y021885D01*
X033937Y021885D01*
X035637Y021285D02*
X035660Y021308D01*
X035687Y021308D01*
X034072Y027409D02*
X033572Y027409D01*
X033072Y027409D01*
X032816Y027413D01*
X032692Y027537D01*
X031235Y029640D02*
X031239Y029644D01*
X031239Y031329D01*
X010637Y023435D02*
X010637Y023085D01*
X010637Y023435D02*
X010387Y023685D01*
X010387Y024059D01*
X010361Y024085D01*
X009712Y024085D02*
X009687Y024085D01*
X009637Y024085D01*
X009637Y023085D01*
X009637Y018785D02*
X009637Y017835D01*
X010637Y017835D02*
X010637Y018535D01*
X010387Y018785D01*
X010361Y018785D01*
X009712Y018785D02*
X009637Y018785D01*
X009687Y013585D02*
X009712Y013585D01*
X009687Y013585D02*
X009637Y013535D01*
X009637Y012585D01*
X010637Y012585D02*
X010637Y013335D01*
X010387Y013585D01*
X010361Y013585D01*
D81*
X014312Y024085D02*
X014314Y024086D01*
X014314Y024695D01*
X015093Y025474D01*
X020629Y025474D01*
X028558Y025474D01*
X035037Y025385D02*
X035137Y025385D01*
X035237Y025385D01*
X036837Y025385D01*
X039487Y025385D01*
X039334Y025385D01*
X039334Y027002D01*
X039302Y025385D02*
X039487Y025385D01*
X040387Y025385D01*
X040787Y025385D01*
X041137Y025035D01*
X041137Y023535D01*
X041186Y023535D01*
X041187Y023535D01*
X043037Y023535D01*
X043187Y023385D01*
X043187Y023185D01*
X043187Y021635D01*
X043211Y021610D01*
X043679Y021610D01*
X043187Y021610D01*
X043187Y021585D01*
X043161Y021610D01*
X042695Y021610D01*
X043187Y021585D02*
X043187Y020485D01*
X042687Y019985D01*
X042695Y023185D02*
X043187Y023185D01*
X043679Y023185D01*
X043679Y024759D02*
X043187Y024759D01*
X043187Y025735D01*
X041937Y026985D01*
X041337Y026985D01*
X042695Y024759D02*
X043187Y024759D01*
X020629Y025474D02*
X020227Y025474D01*
X010637Y025585D02*
X010637Y026585D01*
X010637Y027585D01*
X010637Y028585D01*
X010637Y029585D01*
X010637Y030585D01*
X010837Y003085D02*
X010387Y003085D01*
X009387Y003085D01*
X010837Y003085D02*
X011387Y003085D01*
X012387Y003085D01*
X013387Y003085D01*
X014387Y003085D01*
X015387Y003085D01*
X016387Y003085D01*
X017637Y003085D01*
X017387Y003085D01*
X017637Y003085D02*
X018387Y003085D01*
X019637Y003085D01*
X019387Y003085D01*
X019637Y003085D02*
X020387Y003085D01*
X021387Y003085D01*
X022387Y003085D01*
X022737Y003085D01*
X023387Y003085D01*
X024387Y003085D01*
X025387Y003085D01*
X026387Y003085D01*
X027387Y003085D01*
X028387Y003085D01*
X029387Y003085D01*
X030387Y003085D01*
X031387Y003085D01*
X032387Y003085D01*
X033387Y003085D01*
X034387Y003085D01*
X035387Y003085D01*
X036387Y003085D01*
X037387Y003085D01*
X038387Y003085D01*
D82*
X034786Y013335D02*
X034237Y013335D01*
X029737Y013385D02*
X029237Y013885D01*
X029237Y014285D01*
X029237Y014385D02*
X029237Y014785D01*
X029637Y015185D01*
X029637Y017285D01*
X029937Y017585D01*
X031637Y017585D01*
X031787Y019985D02*
X031739Y020032D01*
X031739Y020634D01*
X031739Y021187D01*
X031837Y021285D01*
X031424Y021622D02*
X031587Y021785D01*
X031424Y021622D02*
X031424Y020634D01*
X035687Y021235D02*
X035687Y021308D01*
X035687Y021335D01*
X037486Y021535D02*
X037487Y021535D01*
X037487Y020835D01*
X037587Y020735D01*
X039087Y020735D01*
X039337Y020985D01*
X039337Y021635D01*
X039687Y021985D01*
X040137Y021985D01*
X040237Y022085D01*
X040237Y022927D01*
X040237Y023885D01*
X040065Y024057D01*
X039344Y024057D01*
X039344Y024313D02*
X039709Y024313D01*
X039787Y024385D01*
X039344Y024568D02*
X038571Y024568D01*
X038487Y024485D01*
X038487Y024185D01*
X038103Y023801D01*
X038121Y023801D01*
X038153Y023768D01*
X038103Y023801D02*
X037630Y023801D01*
X037630Y024057D02*
X037237Y024057D01*
X037187Y023985D01*
X037059Y024313D02*
X036987Y024385D01*
X037059Y024313D02*
X037630Y024313D01*
X037811Y026260D02*
X037789Y026281D01*
X036684Y026281D01*
X036467Y026498D01*
X036467Y027104D01*
X036164Y027407D01*
X034621Y027407D01*
X034572Y027409D01*
X033983Y026963D02*
X031184Y026963D01*
X029940Y025470D02*
X034396Y025470D01*
X034440Y025514D01*
X034944Y026258D02*
X035483Y026258D01*
X035486Y026260D01*
X036029Y026260D01*
X034944Y026770D02*
X034176Y026770D01*
X033983Y026963D01*
X033062Y024385D02*
X033062Y024384D01*
X037811Y026772D02*
X038111Y026772D01*
X038341Y027002D01*
X045137Y025885D02*
X045137Y020185D01*
X029767Y029159D02*
X029767Y031659D01*
X029487Y031939D01*
X026110Y031939D01*
X017387Y031935D01*
X017137Y031685D01*
X017137Y031335D01*
X017037Y030435D02*
X016937Y030335D01*
X016637Y030335D01*
X016587Y030285D01*
X016587Y030259D01*
X016587Y030335D01*
X016552Y030369D01*
X015887Y030369D01*
X015887Y029700D02*
X015887Y029335D01*
X016587Y029335D01*
X016587Y029610D01*
X016587Y029335D02*
X017513Y029335D01*
X017513Y029835D02*
X017337Y029835D01*
X017302Y029869D01*
X017302Y030435D01*
X017037Y030435D01*
X015887Y029335D02*
X012018Y029335D01*
X011987Y029335D01*
X019560Y029335D02*
X020037Y029335D01*
X020287Y029585D01*
X020287Y030185D01*
X020037Y030435D01*
X019871Y030435D01*
X025837Y024385D02*
X025787Y024335D01*
X023693Y024278D02*
X023693Y022435D01*
X024287Y022435D01*
X023693Y022435D02*
X023693Y022127D01*
X023687Y022085D02*
X023687Y021835D01*
X023487Y021635D01*
X023137Y021635D01*
X022987Y021485D01*
X022987Y021185D01*
D83*
X028558Y025833D02*
X028558Y026128D01*
X031255Y026128D01*
X031255Y026963D01*
X031184Y026963D01*
X040535Y029344D02*
X040977Y029344D01*
X043337Y026985D01*
D84*
X044387Y026435D02*
X044787Y026435D01*
X045137Y026085D01*
X045137Y025885D01*
X045137Y019085D01*
X045137Y001085D01*
X039437Y001085D01*
X039437Y001975D01*
X013637Y012285D02*
X013637Y012585D01*
X013637Y012285D02*
X012437Y011085D01*
X005837Y011085D01*
X006037Y010485D02*
X012537Y010485D01*
X012637Y010385D01*
X012637Y009585D01*
X012137Y011685D02*
X009637Y011685D01*
X009637Y012585D01*
X009637Y011685D02*
X005937Y011685D01*
X005937Y016985D01*
X005937Y020685D01*
X006837Y021585D01*
X008337Y021585D01*
X008937Y022185D01*
X012437Y022185D01*
X009537Y022185D01*
X009637Y022285D01*
X009337Y021585D02*
X010637Y021585D01*
X009337Y021585D02*
X008637Y020885D01*
X008637Y020085D01*
X007937Y022185D02*
X006137Y022185D01*
X005837Y022485D01*
X005837Y023285D01*
X005587Y023535D01*
X005537Y023585D01*
X004637Y023585D01*
X003637Y023585D01*
X007937Y022185D02*
X008637Y022885D01*
X008637Y023085D01*
X009637Y025585D02*
X009637Y026585D01*
X009637Y027585D01*
X009637Y028585D01*
X009637Y029585D01*
X009637Y030585D01*
X009637Y031385D01*
X010937Y031385D01*
X011255Y031066D01*
X012018Y031066D01*
X012037Y031085D01*
X012224Y031085D01*
X012018Y031066D02*
X012018Y029335D01*
X012018Y026985D01*
X011970Y024135D02*
X012637Y023468D01*
X012637Y023085D01*
X012637Y024085D01*
X014312Y024085D01*
X012637Y023085D02*
X012637Y022385D01*
X012437Y022185D01*
X012637Y017185D02*
X012437Y016985D01*
X009637Y016985D01*
X005937Y016985D01*
X006637Y015835D02*
X007387Y015835D01*
X007937Y016385D01*
X012337Y016385D02*
X012637Y016085D01*
X012637Y014835D01*
X012637Y014785D01*
X012637Y012585D02*
X012637Y012185D01*
X012137Y011685D01*
X006037Y010485D02*
X005837Y010285D01*
X005837Y010085D01*
X004837Y009085D01*
X016137Y026785D02*
X015955Y026966D01*
X015955Y026985D01*
X015955Y027053D01*
X015987Y027085D01*
X016137Y026785D02*
X017271Y026785D01*
X035687Y022961D02*
X037410Y022961D01*
X037487Y022885D01*
X037587Y022885D01*
D85*
X034837Y013285D02*
X034837Y012935D01*
X032037Y012935D01*
X031787Y013185D01*
X031037Y013185D01*
X030637Y012785D01*
X030237Y012785D01*
X029912Y013109D01*
X029912Y013385D01*
X024787Y027185D02*
X024775Y027196D01*
X024361Y027196D01*
X024361Y027961D01*
X024287Y028035D01*
X024311Y028010D01*
X024311Y027985D01*
X024287Y028035D02*
X024287Y028785D01*
X024061Y029010D01*
X024061Y029735D01*
X023949Y029735D01*
X023949Y029761D01*
X023949Y029773D01*
X023961Y029761D01*
X024713Y029761D01*
X024737Y029785D02*
X024737Y029810D01*
X023949Y029773D02*
X023937Y029785D01*
X023987Y030485D02*
X023963Y030509D01*
X022925Y029761D02*
X022787Y029735D01*
X022787Y029535D01*
X022687Y029435D01*
X022587Y029435D01*
X022487Y029335D01*
X022487Y028985D01*
X022425Y028896D01*
X022437Y028885D01*
X022386Y028885D01*
D86*
X019916Y027376D02*
X019617Y027675D01*
X018404Y027675D01*
X018251Y027829D01*
X017513Y027829D01*
X017513Y028335D01*
X017513Y028835D02*
X016487Y028835D01*
X016287Y028635D01*
X015987Y028335D01*
X015987Y027085D01*
X019916Y027376D02*
X019916Y026726D01*
X021023Y025620D01*
X020227Y025620D01*
X020227Y025474D01*
X021023Y025620D02*
X021070Y025573D01*
X030286Y029837D02*
X031164Y028959D01*
X031290Y028959D01*
X032082Y029750D01*
X033117Y028714D01*
X033822Y028915D01*
X033999Y028872D01*
X032082Y029750D02*
X032082Y029837D01*
X038282Y028872D02*
X038432Y028722D01*
X038432Y027043D01*
X038341Y027002D01*
X039334Y027002D01*
X037486Y021535D02*
X035887Y021535D01*
X035687Y021335D01*
X040287Y020898D02*
X040287Y019935D01*
X042687Y019935D01*
X042687Y019985D01*
X039437Y003094D02*
X039297Y003094D01*
X039287Y003085D01*
X038387Y003085D01*
D87*
X031235Y029640D03*
D88*
X034072Y027785D02*
X035534Y027785D01*
X035566Y027754D01*
X034072Y027785D02*
X034072Y027409D01*
X034357Y025923D02*
X033755Y025923D01*
X033755Y025878D01*
X036837Y025385D02*
X036837Y024535D01*
X036987Y024385D01*
X037187Y023985D02*
X037187Y022985D01*
X037287Y022885D01*
X037587Y022885D01*
X037313Y019920D02*
X037101Y019920D01*
X037087Y019935D01*
X040287Y019935D01*
X039187Y018835D02*
X039187Y017935D01*
X039387Y017735D01*
X042087Y017735D01*
X043437Y019085D01*
X045137Y019085D01*
X039187Y018835D02*
X039187Y017985D01*
X039187Y018835D02*
X038836Y019186D01*
X038187Y019186D01*
X038087Y019185D01*
X038137Y019135D01*
X038087Y019185D02*
X037941Y019330D01*
X037313Y019330D01*
D89*
X011137Y023585D03*
D90*
X028558Y025474D02*
X028558Y025833D01*
D91*
X036029Y026772D02*
X036029Y027086D01*
X036023Y027092D01*
X037211Y026632D02*
X037327Y026516D01*
X037811Y026516D01*
D92*
X035369Y028872D02*
X033999Y028872D01*
M02*
