G75*
G70*
%OFA0B0*%
%FSLAX24Y24*%
%IPPOS*%
%LPD*%
%AMOC8*
5,1,8,0,0,1.08239X$1,22.5*
%
%ADD10C,0.0000*%
%ADD11C,0.0040*%
%ADD12C,0.0394*%
%ADD13C,0.0050*%
%ADD14C,0.0400*%
%ADD15C,0.0080*%
%ADD16C,0.0361*%
%ADD17C,0.0060*%
%ADD18C,0.0300*%
%ADD19C,0.0316*%
%ADD20C,0.0447*%
%ADD21C,0.0020*%
%ADD22C,0.0200*%
%ADD23C,0.0283*%
%ADD24C,0.0030*%
%ADD25R,0.0340X0.0300*%
%ADD26C,0.0010*%
D10*
X002137Y000585D02*
X045637Y000585D01*
X045637Y032585D01*
X002137Y032585D01*
X002137Y000585D01*
D11*
X002717Y001105D02*
X002837Y001105D01*
X002897Y001165D01*
X002897Y001225D01*
X002837Y001285D01*
X002657Y001285D01*
X002657Y001165D01*
X002717Y001105D01*
X002657Y001285D02*
X002777Y001405D01*
X002897Y001465D01*
X003209Y001405D02*
X003269Y001465D01*
X003389Y001465D01*
X003449Y001405D01*
X003449Y001345D01*
X003209Y001105D01*
X003449Y001105D01*
X003577Y001105D02*
X003577Y001165D01*
X003818Y001405D01*
X003818Y001465D01*
X003577Y001465D01*
X003946Y001405D02*
X003946Y001165D01*
X004186Y001405D01*
X004186Y001165D01*
X004126Y001105D01*
X004006Y001105D01*
X003946Y001165D01*
X003946Y001405D02*
X004006Y001465D01*
X004126Y001465D01*
X004186Y001405D01*
X004314Y001405D02*
X004314Y001165D01*
X004374Y001105D01*
X004494Y001105D01*
X004554Y001165D01*
X004494Y001225D02*
X004494Y001345D01*
X004374Y001345D01*
X004374Y001225D01*
X004494Y001225D01*
X004554Y001285D01*
X004554Y001405D01*
X004494Y001465D01*
X004374Y001465D01*
X004314Y001405D01*
X004682Y001345D02*
X004742Y001345D01*
X004802Y001285D01*
X004862Y001345D01*
X004923Y001285D01*
X004923Y001105D01*
X004802Y001105D02*
X004802Y001285D01*
X004682Y001345D02*
X004682Y001105D01*
X005051Y001105D02*
X005171Y001105D01*
X005111Y001105D02*
X005111Y001345D01*
X005051Y001345D01*
X005111Y001465D02*
X005111Y001525D01*
X005296Y001345D02*
X005416Y001345D01*
X005356Y001405D02*
X005356Y001165D01*
X005416Y001105D01*
X005542Y001105D02*
X005602Y001105D01*
X005602Y001165D01*
X005542Y001165D01*
X005542Y001105D01*
X005726Y001165D02*
X005726Y001285D01*
X005786Y001345D01*
X005906Y001345D01*
X005966Y001285D01*
X005966Y001225D01*
X005726Y001225D01*
X005726Y001165D02*
X005786Y001105D01*
X005906Y001105D01*
X006094Y001165D02*
X006094Y001285D01*
X006154Y001345D01*
X006334Y001345D01*
X006334Y001465D02*
X006334Y001105D01*
X006154Y001105D01*
X006094Y001165D01*
X006462Y001165D02*
X006522Y001105D01*
X006703Y001105D01*
X006703Y001345D01*
X006462Y001345D02*
X006462Y001165D01*
X006150Y001955D02*
X005970Y001955D01*
X005910Y002015D01*
X005910Y002135D01*
X005970Y002195D01*
X006150Y002195D01*
X006150Y002315D02*
X006150Y001955D01*
X005783Y002195D02*
X005723Y002195D01*
X005603Y002075D01*
X005603Y001955D02*
X005603Y002195D01*
X005475Y002135D02*
X005475Y001955D01*
X005295Y001955D01*
X005235Y002015D01*
X005295Y002075D01*
X005475Y002075D01*
X005475Y002135D02*
X005415Y002195D01*
X005295Y002195D01*
X005107Y002135D02*
X005107Y002015D01*
X005047Y001955D01*
X004927Y001955D01*
X004867Y002015D01*
X004867Y002135D01*
X004927Y002195D01*
X005047Y002195D01*
X005107Y002135D01*
X004738Y002195D02*
X004678Y002135D01*
X004498Y002135D01*
X004370Y002195D02*
X004370Y001895D01*
X004310Y001834D01*
X004250Y001834D01*
X004190Y001955D02*
X004370Y001955D01*
X004498Y001955D02*
X004678Y001955D01*
X004738Y002015D01*
X004738Y002075D01*
X004678Y002135D01*
X004738Y002195D02*
X004738Y002255D01*
X004678Y002315D01*
X004498Y002315D01*
X004498Y001955D01*
X004190Y001955D02*
X004130Y002015D01*
X004130Y002195D01*
X004002Y002135D02*
X004002Y002015D01*
X003942Y001955D01*
X003762Y001955D01*
X003762Y001834D02*
X003762Y002195D01*
X003942Y002195D01*
X004002Y002135D01*
X003634Y002135D02*
X003634Y002015D01*
X003573Y001955D01*
X003393Y001955D01*
X003393Y001834D02*
X003393Y002195D01*
X003573Y002195D01*
X003634Y002135D01*
X003265Y002135D02*
X003265Y001955D01*
X003085Y001955D01*
X003025Y002015D01*
X003085Y002075D01*
X003265Y002075D01*
X003265Y002135D02*
X003205Y002195D01*
X003085Y002195D01*
X002897Y002135D02*
X002657Y002135D01*
X002657Y001955D02*
X002657Y002315D01*
X002897Y002315D02*
X002897Y001955D01*
X002777Y002705D02*
X002897Y002945D01*
X003025Y003005D02*
X003085Y003065D01*
X003205Y003065D01*
X003265Y003005D01*
X003025Y002765D01*
X003085Y002705D01*
X003205Y002705D01*
X003265Y002765D01*
X003265Y003005D01*
X003025Y003005D02*
X003025Y002765D01*
X002777Y002705D02*
X002657Y002945D01*
X003393Y002765D02*
X003453Y002765D01*
X003453Y002705D01*
X003393Y002705D01*
X003393Y002765D01*
X003577Y002765D02*
X003637Y002705D01*
X003758Y002705D01*
X003818Y002765D01*
X003818Y002825D01*
X003758Y002885D01*
X003577Y002885D01*
X003577Y002765D01*
X003577Y002885D02*
X003698Y003005D01*
X003818Y003065D01*
X003946Y003005D02*
X004006Y003065D01*
X004126Y003065D01*
X004186Y003005D01*
X004186Y002945D01*
X004126Y002885D01*
X004186Y002825D01*
X004186Y002765D01*
X004126Y002705D01*
X004006Y002705D01*
X003946Y002765D01*
X004066Y002885D02*
X004126Y002885D01*
X003945Y004292D02*
X003825Y004292D01*
X003765Y004352D01*
X003765Y004472D02*
X003885Y004532D01*
X003945Y004532D01*
X004005Y004472D01*
X004005Y004352D01*
X003945Y004292D01*
X003765Y004472D02*
X003765Y004652D01*
X004005Y004652D01*
X003637Y004592D02*
X003637Y004472D01*
X003576Y004412D01*
X003396Y004412D01*
X003396Y004292D02*
X003396Y004652D01*
X003576Y004652D01*
X003637Y004592D01*
X003516Y004412D02*
X003637Y004292D01*
X005056Y005655D02*
X005056Y005835D01*
X005116Y005895D01*
X005357Y005895D01*
X005417Y005835D01*
X005417Y005655D01*
X005056Y005655D01*
X005176Y006023D02*
X005056Y006143D01*
X005417Y006143D01*
X005417Y006023D02*
X005417Y006263D01*
X005417Y006391D02*
X005417Y006631D01*
X005417Y006511D02*
X005056Y006511D01*
X005176Y006391D01*
X005056Y006755D02*
X005056Y006935D01*
X005116Y006995D01*
X005357Y006995D01*
X005417Y006935D01*
X005417Y006755D01*
X005056Y006755D01*
X005176Y007123D02*
X005056Y007243D01*
X005417Y007243D01*
X005417Y007123D02*
X005417Y007363D01*
X005417Y007491D02*
X005176Y007731D01*
X005116Y007731D01*
X005056Y007671D01*
X005056Y007551D01*
X005116Y007491D01*
X005417Y007491D02*
X005417Y007731D01*
X004725Y008355D02*
X004725Y008415D01*
X004965Y008655D01*
X004965Y008715D01*
X004725Y008715D01*
X004597Y008715D02*
X004477Y008715D01*
X004537Y008715D02*
X004537Y008415D01*
X004477Y008355D01*
X004417Y008355D01*
X004357Y008415D01*
X005056Y009655D02*
X005056Y009835D01*
X005116Y009895D01*
X005357Y009895D01*
X005417Y009835D01*
X005417Y009655D01*
X005056Y009655D01*
X005176Y010023D02*
X005056Y010143D01*
X005417Y010143D01*
X005417Y010023D02*
X005417Y010263D01*
X005357Y010391D02*
X005417Y010451D01*
X005417Y010571D01*
X005357Y010631D01*
X005297Y010631D01*
X005237Y010571D01*
X005237Y010511D01*
X005237Y010571D02*
X005176Y010631D01*
X005116Y010631D01*
X005056Y010571D01*
X005056Y010451D01*
X005116Y010391D01*
X005606Y010273D02*
X005606Y010513D01*
X005666Y010513D01*
X005907Y010273D01*
X005967Y010273D01*
X005907Y010145D02*
X005606Y010145D01*
X005606Y009905D02*
X005907Y009905D01*
X005967Y009965D01*
X005967Y010085D01*
X005907Y010145D01*
X005623Y011705D02*
X005623Y012065D01*
X005443Y011885D01*
X005684Y011885D01*
X005315Y011705D02*
X005075Y011705D01*
X005195Y011705D02*
X005195Y012065D01*
X005075Y011945D01*
X004947Y012005D02*
X004887Y012065D01*
X004707Y012065D01*
X004707Y011705D01*
X004887Y011705D01*
X004947Y011765D01*
X004947Y012005D01*
X004937Y012192D02*
X004816Y012312D01*
X004876Y012312D02*
X004696Y012312D01*
X004696Y012192D02*
X004696Y012552D01*
X004876Y012552D01*
X004937Y012492D01*
X004937Y012372D01*
X004876Y012312D01*
X005065Y012252D02*
X005125Y012192D01*
X005245Y012192D01*
X005305Y012252D01*
X005305Y012312D01*
X005245Y012372D01*
X005065Y012372D01*
X005065Y012252D01*
X005065Y012372D02*
X005185Y012492D01*
X005305Y012552D01*
X004905Y012702D02*
X004845Y012642D01*
X004725Y012642D01*
X004665Y012702D01*
X004537Y012642D02*
X004416Y012762D01*
X004476Y012762D02*
X004296Y012762D01*
X004296Y012642D02*
X004296Y013002D01*
X004476Y013002D01*
X004537Y012942D01*
X004537Y012822D01*
X004476Y012762D01*
X004665Y012942D02*
X004725Y013002D01*
X004845Y013002D01*
X004905Y012942D01*
X004905Y012882D01*
X004845Y012822D01*
X004905Y012762D01*
X004905Y012702D01*
X004845Y012822D02*
X004785Y012822D01*
X005056Y013505D02*
X005056Y013685D01*
X005116Y013745D01*
X005357Y013745D01*
X005417Y013685D01*
X005417Y013505D01*
X005056Y013505D01*
X005056Y013873D02*
X005056Y014113D01*
X005116Y014113D01*
X005357Y013873D01*
X005417Y013873D01*
X005417Y014605D02*
X005056Y014605D01*
X005056Y014785D01*
X005116Y014845D01*
X005357Y014845D01*
X005417Y014785D01*
X005417Y014605D01*
X005357Y014973D02*
X005297Y014973D01*
X005237Y015033D01*
X005237Y015153D01*
X005297Y015213D01*
X005357Y015213D01*
X005417Y015153D01*
X005417Y015033D01*
X005357Y014973D01*
X005237Y015033D02*
X005176Y014973D01*
X005116Y014973D01*
X005056Y015033D01*
X005056Y015153D01*
X005116Y015213D01*
X005176Y015213D01*
X005237Y015153D01*
X005606Y015155D02*
X005907Y015155D01*
X005967Y015215D01*
X005967Y015335D01*
X005907Y015395D01*
X005606Y015395D01*
X005787Y015523D02*
X005666Y015643D01*
X005606Y015763D01*
X005787Y015703D02*
X005787Y015523D01*
X005907Y015523D01*
X005967Y015583D01*
X005967Y015703D01*
X005907Y015763D01*
X005847Y015763D01*
X005787Y015703D01*
X004915Y016215D02*
X004915Y016275D01*
X004855Y016335D01*
X004675Y016335D01*
X004675Y016215D01*
X004735Y016155D01*
X004855Y016155D01*
X004915Y016215D01*
X004795Y016455D02*
X004675Y016335D01*
X004795Y016455D02*
X004915Y016515D01*
X004547Y016515D02*
X004427Y016515D01*
X004487Y016515D02*
X004487Y016215D01*
X004427Y016155D01*
X004367Y016155D01*
X004307Y016215D01*
X005056Y017405D02*
X005056Y017585D01*
X005116Y017645D01*
X005357Y017645D01*
X005417Y017585D01*
X005417Y017405D01*
X005056Y017405D01*
X005116Y017773D02*
X005176Y017773D01*
X005237Y017833D01*
X005237Y018013D01*
X005357Y018013D02*
X005116Y018013D01*
X005056Y017953D01*
X005056Y017833D01*
X005116Y017773D01*
X005357Y017773D02*
X005417Y017833D01*
X005417Y017953D01*
X005357Y018013D01*
X005417Y018305D02*
X005056Y018305D01*
X005056Y018485D01*
X005116Y018545D01*
X005357Y018545D01*
X005417Y018485D01*
X005417Y018305D01*
X005417Y018673D02*
X005417Y018913D01*
X005417Y018793D02*
X005056Y018793D01*
X005176Y018673D01*
X005116Y019041D02*
X005056Y019101D01*
X005056Y019221D01*
X005116Y019281D01*
X005357Y019041D01*
X005417Y019101D01*
X005417Y019221D01*
X005357Y019281D01*
X005116Y019281D01*
X005116Y019041D02*
X005357Y019041D01*
X004945Y019642D02*
X004945Y020002D01*
X004765Y019822D01*
X005005Y019822D01*
X004637Y019822D02*
X004576Y019762D01*
X004396Y019762D01*
X004396Y019642D02*
X004396Y020002D01*
X004576Y020002D01*
X004637Y019942D01*
X004637Y019822D01*
X004516Y019762D02*
X004637Y019642D01*
X004796Y020392D02*
X004796Y020752D01*
X004976Y020752D01*
X005037Y020692D01*
X005037Y020572D01*
X004976Y020512D01*
X004796Y020512D01*
X004916Y020512D02*
X005037Y020392D01*
X005165Y020392D02*
X005405Y020392D01*
X005285Y020392D02*
X005285Y020752D01*
X005165Y020632D01*
X005606Y020645D02*
X005907Y020645D01*
X005967Y020585D01*
X005967Y020465D01*
X005907Y020405D01*
X005606Y020405D01*
X005606Y020773D02*
X005787Y020773D01*
X005726Y020893D01*
X005726Y020953D01*
X005787Y021013D01*
X005907Y021013D01*
X005967Y020953D01*
X005967Y020833D01*
X005907Y020773D01*
X005606Y020773D02*
X005606Y021013D01*
X005417Y021255D02*
X005056Y021255D01*
X005056Y021435D01*
X005116Y021495D01*
X005357Y021495D01*
X005417Y021435D01*
X005417Y021255D01*
X005357Y021623D02*
X005417Y021683D01*
X005417Y021803D01*
X005357Y021863D01*
X005297Y021863D01*
X005237Y021803D01*
X005237Y021743D01*
X005237Y021803D02*
X005176Y021863D01*
X005116Y021863D01*
X005056Y021803D01*
X005056Y021683D01*
X005116Y021623D01*
X005056Y022355D02*
X005056Y022535D01*
X005116Y022595D01*
X005357Y022595D01*
X005417Y022535D01*
X005417Y022355D01*
X005056Y022355D01*
X005237Y022723D02*
X005056Y022903D01*
X005417Y022903D01*
X005237Y022963D02*
X005237Y022723D01*
X004805Y023955D02*
X004685Y023955D01*
X004625Y024015D01*
X004625Y024135D02*
X004745Y024195D01*
X004805Y024195D01*
X004865Y024135D01*
X004865Y024015D01*
X004805Y023955D01*
X004625Y024135D02*
X004625Y024315D01*
X004865Y024315D01*
X004855Y024505D02*
X004735Y024505D01*
X004675Y024565D01*
X004675Y024685D02*
X004795Y024745D01*
X004855Y024745D01*
X004915Y024685D01*
X004915Y024565D01*
X004855Y024505D01*
X004675Y024685D02*
X004675Y024865D01*
X004915Y024865D01*
X004547Y024805D02*
X004547Y024565D01*
X004487Y024505D01*
X004307Y024505D01*
X004307Y024865D01*
X004487Y024865D01*
X004547Y024805D01*
X004497Y024315D02*
X004377Y024315D01*
X004437Y024315D02*
X004437Y024015D01*
X004377Y023955D01*
X004317Y023955D01*
X004257Y024015D01*
X002767Y024980D02*
X002767Y025100D01*
X002707Y025160D01*
X002467Y025160D01*
X002707Y024919D01*
X002467Y024919D01*
X002407Y024980D01*
X002407Y025100D01*
X002467Y025160D01*
X002407Y025408D02*
X002767Y025408D01*
X002767Y025528D02*
X002767Y025288D01*
X002767Y024980D02*
X002707Y024919D01*
X002707Y025656D02*
X002767Y025716D01*
X002767Y025836D01*
X002707Y025896D01*
X002467Y025896D01*
X002407Y025836D01*
X002407Y025716D01*
X002467Y025656D01*
X002707Y025656D01*
X002767Y026024D02*
X002407Y026024D01*
X002407Y026265D02*
X002767Y026265D01*
X002647Y026144D01*
X002767Y026024D01*
X004307Y027205D02*
X004487Y027205D01*
X004547Y027265D01*
X004547Y027505D01*
X004487Y027565D01*
X004307Y027565D01*
X004307Y027205D01*
X004675Y027265D02*
X004735Y027205D01*
X004855Y027205D01*
X004915Y027265D01*
X004915Y027325D01*
X004855Y027385D01*
X004675Y027385D01*
X004675Y027265D01*
X004675Y027385D02*
X004795Y027505D01*
X004915Y027565D01*
X004305Y027992D02*
X004065Y027992D01*
X004305Y028232D01*
X004305Y028292D01*
X004245Y028352D01*
X004125Y028352D01*
X004065Y028292D01*
X003937Y028292D02*
X003937Y028172D01*
X003876Y028112D01*
X003696Y028112D01*
X003696Y027992D02*
X003696Y028352D01*
X003876Y028352D01*
X003937Y028292D01*
X003816Y028112D02*
X003937Y027992D01*
X007506Y027685D02*
X007566Y027745D01*
X007626Y027745D01*
X007687Y027685D01*
X007747Y027745D01*
X007807Y027745D01*
X007867Y027685D01*
X007867Y027565D01*
X007807Y027505D01*
X007687Y027625D02*
X007687Y027685D01*
X007506Y027685D02*
X007506Y027565D01*
X007566Y027505D01*
X007687Y026745D02*
X007687Y026505D01*
X007506Y026685D01*
X007867Y026685D01*
X007807Y025745D02*
X007867Y025685D01*
X007867Y025565D01*
X007807Y025505D01*
X007687Y025505D02*
X007626Y025625D01*
X007626Y025685D01*
X007687Y025745D01*
X007807Y025745D01*
X007687Y025505D02*
X007506Y025505D01*
X007506Y025745D01*
X006962Y025459D02*
X006962Y025098D01*
X006842Y025098D02*
X007082Y025098D01*
X006842Y025338D02*
X006962Y025459D01*
X006714Y025399D02*
X006654Y025459D01*
X006474Y025459D01*
X006474Y025098D01*
X006654Y025098D01*
X006714Y025158D01*
X006714Y025399D01*
X006204Y024715D02*
X006144Y024715D01*
X005904Y024955D01*
X005844Y024955D01*
X005844Y024715D01*
X005844Y024587D02*
X005844Y024347D01*
X006024Y024347D01*
X005964Y024467D01*
X005964Y024527D01*
X006024Y024587D01*
X006144Y024587D01*
X006204Y024527D01*
X006204Y024407D01*
X006144Y024347D01*
X006204Y024218D02*
X006084Y024098D01*
X006084Y024158D02*
X006084Y023978D01*
X006204Y023978D02*
X005844Y023978D01*
X005844Y024158D01*
X005904Y024218D01*
X006024Y024218D01*
X006084Y024158D01*
X008406Y024026D02*
X008406Y023906D01*
X008466Y023846D01*
X008706Y023846D01*
X008766Y023906D01*
X008766Y024026D01*
X008706Y024086D01*
X008766Y024214D02*
X008766Y024454D01*
X008766Y024334D02*
X008406Y024334D01*
X008526Y024214D01*
X008466Y024086D02*
X008406Y024026D01*
X008526Y024583D02*
X008406Y024703D01*
X008766Y024703D01*
X008766Y024583D02*
X008766Y024823D01*
X009510Y024804D02*
X009510Y024564D01*
X009570Y024504D01*
X009691Y024504D01*
X009751Y024564D01*
X009879Y024504D02*
X010119Y024744D01*
X010119Y024804D01*
X010059Y024864D01*
X009939Y024864D01*
X009879Y024804D01*
X009751Y024804D02*
X009691Y024864D01*
X009570Y024864D01*
X009510Y024804D01*
X009879Y024504D02*
X010119Y024504D01*
X010247Y024564D02*
X010307Y024504D01*
X010427Y024504D01*
X010487Y024564D01*
X010487Y024684D01*
X010427Y024744D01*
X010367Y024744D01*
X010247Y024684D01*
X010247Y024864D01*
X010487Y024864D01*
X011124Y024909D02*
X011124Y024548D01*
X011304Y024548D01*
X011364Y024608D01*
X011364Y024849D01*
X011304Y024909D01*
X011124Y024909D01*
X011492Y024849D02*
X011552Y024909D01*
X011672Y024909D01*
X011732Y024849D01*
X011732Y024788D01*
X011492Y024548D01*
X011732Y024548D01*
X013216Y024155D02*
X013216Y023915D01*
X013276Y023855D01*
X013396Y023855D01*
X013457Y023915D01*
X013585Y023915D02*
X013645Y023855D01*
X013765Y023855D01*
X013825Y023915D01*
X013825Y024155D01*
X013765Y024216D01*
X013645Y024216D01*
X013585Y024155D01*
X013585Y024095D01*
X013645Y024035D01*
X013825Y024035D01*
X013457Y024155D02*
X013396Y024216D01*
X013276Y024216D01*
X013216Y024155D01*
X016128Y024112D02*
X016308Y024112D01*
X016368Y024172D01*
X016368Y024292D01*
X016308Y024352D01*
X016128Y024352D01*
X016128Y023992D01*
X016248Y024112D02*
X016368Y023992D01*
X016496Y024052D02*
X016556Y023992D01*
X016676Y023992D01*
X016737Y024052D01*
X016737Y024172D01*
X016676Y024232D01*
X016616Y024232D01*
X016496Y024172D01*
X016496Y024352D01*
X016737Y024352D01*
X016865Y024292D02*
X016925Y024352D01*
X017045Y024352D01*
X017105Y024292D01*
X017105Y024232D01*
X017045Y024172D01*
X016925Y024172D01*
X016865Y024232D01*
X016865Y024292D01*
X016925Y024172D02*
X016865Y024112D01*
X016865Y024052D01*
X016925Y023992D01*
X017045Y023992D01*
X017105Y024052D01*
X017105Y024112D01*
X017045Y024172D01*
X017086Y024874D02*
X016966Y024874D01*
X016906Y024934D01*
X016906Y024994D01*
X016966Y025054D01*
X017086Y025054D01*
X017146Y024994D01*
X017146Y024934D01*
X017086Y024874D01*
X017086Y025054D02*
X017146Y025114D01*
X017146Y025174D01*
X017086Y025234D01*
X016966Y025234D01*
X016906Y025174D01*
X016906Y025114D01*
X016966Y025054D01*
X016778Y024874D02*
X016538Y024874D01*
X016538Y025234D01*
X016857Y025505D02*
X017037Y025505D01*
X017097Y025565D01*
X017097Y025805D01*
X017037Y025865D01*
X016857Y025865D01*
X016857Y025505D01*
X017225Y025505D02*
X017465Y025505D01*
X017345Y025505D02*
X017345Y025865D01*
X017225Y025745D01*
X017247Y026035D02*
X019027Y026035D01*
X018669Y025203D02*
X018729Y025143D01*
X018729Y025023D01*
X018669Y024963D01*
X018549Y024963D02*
X018489Y025083D01*
X018489Y025143D01*
X018549Y025203D01*
X018669Y025203D01*
X018549Y024963D02*
X018369Y024963D01*
X018369Y025203D01*
X018154Y025205D02*
X018154Y024965D01*
X018154Y025085D02*
X017794Y025085D01*
X017914Y024965D01*
X017974Y024837D02*
X018094Y024837D01*
X018154Y024777D01*
X018154Y024657D01*
X018094Y024597D01*
X017974Y024597D02*
X017914Y024717D01*
X017914Y024777D01*
X017974Y024837D01*
X017794Y024837D02*
X017794Y024597D01*
X017974Y024597D01*
X017974Y024468D02*
X018034Y024408D01*
X018034Y024228D01*
X018154Y024228D02*
X017794Y024228D01*
X017794Y024408D01*
X017854Y024468D01*
X017974Y024468D01*
X018034Y024348D02*
X018154Y024468D01*
X018369Y024406D02*
X018429Y024466D01*
X018549Y024466D01*
X018609Y024406D01*
X018609Y024226D01*
X018609Y024346D02*
X018729Y024466D01*
X018669Y024594D02*
X018729Y024654D01*
X018729Y024774D01*
X018669Y024834D01*
X018549Y024834D01*
X018489Y024774D01*
X018489Y024714D01*
X018549Y024594D01*
X018369Y024594D01*
X018369Y024834D01*
X018369Y024406D02*
X018369Y024226D01*
X018729Y024226D01*
X018585Y022902D02*
X018465Y022782D01*
X018337Y022722D02*
X018096Y022722D01*
X018276Y022902D01*
X018276Y022542D01*
X018199Y022464D02*
X018199Y022104D01*
X018079Y022104D02*
X018319Y022104D01*
X018079Y022344D02*
X018199Y022464D01*
X017968Y022542D02*
X017848Y022662D01*
X017908Y022662D02*
X017728Y022662D01*
X017728Y022542D02*
X017728Y022902D01*
X017908Y022902D01*
X017968Y022842D01*
X017968Y022722D01*
X017908Y022662D01*
X017891Y022464D02*
X017770Y022464D01*
X017710Y022404D01*
X017710Y022164D01*
X017770Y022104D01*
X017891Y022104D01*
X017951Y022164D01*
X017951Y022404D02*
X017891Y022464D01*
X018465Y022542D02*
X018705Y022542D01*
X018585Y022542D02*
X018585Y022902D01*
X018608Y021752D02*
X018428Y021752D01*
X018428Y021392D01*
X018428Y021512D02*
X018608Y021512D01*
X018668Y021572D01*
X018668Y021692D01*
X018608Y021752D01*
X018548Y021512D02*
X018668Y021392D01*
X018796Y021572D02*
X019037Y021572D01*
X019165Y021512D02*
X019225Y021572D01*
X019345Y021572D01*
X019405Y021512D01*
X019405Y021452D01*
X019345Y021392D01*
X019225Y021392D01*
X019165Y021452D01*
X019165Y021512D01*
X019225Y021572D02*
X019165Y021632D01*
X019165Y021692D01*
X019225Y021752D01*
X019345Y021752D01*
X019405Y021692D01*
X019405Y021632D01*
X019345Y021572D01*
X018976Y021392D02*
X018976Y021752D01*
X018796Y021572D01*
X018066Y021273D02*
X018066Y021033D01*
X017826Y021273D01*
X017766Y021273D01*
X017706Y021213D01*
X017706Y021093D01*
X017766Y021033D01*
X017766Y020904D02*
X017706Y020844D01*
X017706Y020724D01*
X017766Y020664D01*
X018006Y020664D01*
X018066Y020724D01*
X018066Y020844D01*
X018006Y020904D01*
X018280Y020127D02*
X018461Y020127D01*
X018521Y020067D01*
X018521Y019947D01*
X018461Y019887D01*
X018280Y019887D01*
X018280Y019767D02*
X018280Y020127D01*
X018400Y019887D02*
X018521Y019767D01*
X018649Y019947D02*
X018889Y019947D01*
X019017Y019827D02*
X019017Y019767D01*
X019017Y019827D02*
X019257Y020067D01*
X019257Y020127D01*
X019017Y020127D01*
X018829Y020127D02*
X018829Y019767D01*
X018649Y019947D02*
X018829Y020127D01*
X017257Y019717D02*
X017017Y019477D01*
X017077Y019417D01*
X017197Y019417D01*
X017257Y019477D01*
X017257Y019717D01*
X017197Y019777D01*
X017077Y019777D01*
X017017Y019717D01*
X017017Y019477D01*
X016889Y019597D02*
X016649Y019597D01*
X016829Y019777D01*
X016829Y019417D01*
X016737Y019152D02*
X016616Y019092D01*
X016496Y018972D01*
X016676Y018972D01*
X016737Y018912D01*
X016737Y018852D01*
X016676Y018792D01*
X016556Y018792D01*
X016496Y018852D01*
X016496Y018972D01*
X016368Y018972D02*
X016308Y018912D01*
X016128Y018912D01*
X016128Y018792D02*
X016128Y019152D01*
X016308Y019152D01*
X016368Y019092D01*
X016368Y018972D01*
X016248Y018912D02*
X016368Y018792D01*
X016865Y018852D02*
X017105Y019092D01*
X017105Y018852D01*
X017045Y018792D01*
X016925Y018792D01*
X016865Y018852D01*
X016865Y019092D01*
X016925Y019152D01*
X017045Y019152D01*
X017105Y019092D01*
X016521Y019417D02*
X016400Y019537D01*
X016461Y019537D02*
X016280Y019537D01*
X016280Y019417D02*
X016280Y019777D01*
X016461Y019777D01*
X016521Y019717D01*
X016521Y019597D01*
X016461Y019537D01*
X014975Y018955D02*
X014975Y018895D01*
X014915Y018835D01*
X014795Y018835D01*
X014735Y018895D01*
X014735Y018955D01*
X014795Y019016D01*
X014915Y019016D01*
X014975Y018955D01*
X014915Y018835D02*
X014975Y018775D01*
X014975Y018715D01*
X014915Y018655D01*
X014795Y018655D01*
X014735Y018715D01*
X014735Y018775D01*
X014795Y018835D01*
X014607Y018715D02*
X014546Y018655D01*
X014426Y018655D01*
X014366Y018715D01*
X014366Y018955D01*
X014426Y019016D01*
X014546Y019016D01*
X014607Y018955D01*
X011725Y018785D02*
X011485Y018785D01*
X011665Y018966D01*
X011665Y018605D01*
X011357Y018665D02*
X011357Y018785D01*
X011296Y018845D01*
X011236Y018845D01*
X011116Y018785D01*
X011116Y018966D01*
X011357Y018966D01*
X011357Y018665D02*
X011296Y018605D01*
X011176Y018605D01*
X011116Y018665D01*
X010988Y018665D02*
X010928Y018605D01*
X010808Y018605D01*
X010748Y018665D01*
X010748Y018905D01*
X010808Y018966D01*
X010928Y018966D01*
X010988Y018905D01*
X008905Y018892D02*
X008905Y018652D01*
X008845Y018592D01*
X008725Y018592D01*
X008665Y018652D01*
X008537Y018652D02*
X008537Y018772D01*
X008476Y018832D01*
X008416Y018832D01*
X008296Y018772D01*
X008296Y018952D01*
X008537Y018952D01*
X008665Y018892D02*
X008665Y018832D01*
X008725Y018772D01*
X008905Y018772D01*
X008905Y018892D02*
X008845Y018952D01*
X008725Y018952D01*
X008665Y018892D01*
X008537Y018652D02*
X008476Y018592D01*
X008356Y018592D01*
X008296Y018652D01*
X008168Y018592D02*
X008048Y018712D01*
X008108Y018712D02*
X007928Y018712D01*
X007928Y018592D02*
X007928Y018952D01*
X008108Y018952D01*
X008168Y018892D01*
X008168Y018772D01*
X008108Y018712D01*
X002767Y018515D02*
X002647Y018394D01*
X002767Y018274D01*
X002407Y018274D01*
X002467Y018146D02*
X002407Y018086D01*
X002407Y017966D01*
X002467Y017906D01*
X002707Y017906D01*
X002767Y017966D01*
X002767Y018086D01*
X002707Y018146D01*
X002467Y018146D01*
X002407Y018515D02*
X002767Y018515D01*
X002767Y017778D02*
X002767Y017538D01*
X002767Y017658D02*
X002407Y017658D01*
X002407Y017410D02*
X002647Y017169D01*
X002707Y017169D01*
X002767Y017230D01*
X002767Y017350D01*
X002707Y017410D01*
X002407Y017410D02*
X002407Y017169D01*
X002407Y015265D02*
X002767Y015265D01*
X002647Y015144D01*
X002767Y015024D01*
X002407Y015024D01*
X002467Y014896D02*
X002407Y014836D01*
X002407Y014716D01*
X002467Y014656D01*
X002707Y014656D01*
X002767Y014716D01*
X002767Y014836D01*
X002707Y014896D01*
X002467Y014896D01*
X002767Y014528D02*
X002767Y014288D01*
X002767Y014408D02*
X002407Y014408D01*
X002467Y014160D02*
X002407Y014100D01*
X002407Y013980D01*
X002467Y013919D01*
X002527Y013919D01*
X002587Y013980D01*
X002587Y014040D01*
X002587Y013980D02*
X002647Y013919D01*
X002707Y013919D01*
X002767Y013980D01*
X002767Y014100D01*
X002707Y014160D01*
X002767Y010765D02*
X002647Y010644D01*
X002767Y010524D01*
X002407Y010524D01*
X002467Y010396D02*
X002407Y010336D01*
X002407Y010216D01*
X002467Y010156D01*
X002707Y010156D01*
X002767Y010216D01*
X002767Y010336D01*
X002707Y010396D01*
X002467Y010396D01*
X002767Y010028D02*
X002767Y009788D01*
X002767Y009908D02*
X002407Y009908D01*
X002587Y009660D02*
X002587Y009419D01*
X002767Y009480D02*
X002587Y009660D01*
X002407Y009480D02*
X002767Y009480D01*
X002767Y010765D02*
X002407Y010765D01*
X002407Y007515D02*
X002767Y007515D01*
X002647Y007394D01*
X002767Y007274D01*
X002407Y007274D01*
X002467Y007146D02*
X002407Y007086D01*
X002407Y006966D01*
X002467Y006906D01*
X002707Y006906D01*
X002767Y006966D01*
X002767Y007086D01*
X002707Y007146D01*
X002467Y007146D01*
X002767Y006778D02*
X002767Y006538D01*
X002767Y006658D02*
X002407Y006658D01*
X002467Y006410D02*
X002407Y006350D01*
X002407Y006230D01*
X002467Y006169D01*
X002587Y006169D01*
X002647Y006230D01*
X002647Y006290D01*
X002587Y006410D01*
X002767Y006410D01*
X002767Y006169D01*
X008306Y005416D02*
X008306Y005296D01*
X008366Y005236D01*
X008306Y005416D02*
X008366Y005476D01*
X008426Y005476D01*
X008667Y005236D01*
X008667Y005476D01*
X008667Y005108D02*
X008667Y004868D01*
X008667Y004988D02*
X008306Y004988D01*
X008426Y004868D01*
X008306Y004740D02*
X008306Y004620D01*
X008306Y004680D02*
X008607Y004680D01*
X008667Y004620D01*
X008667Y004560D01*
X008607Y004500D01*
X008647Y003081D02*
X008707Y003081D01*
X008767Y003021D01*
X008767Y002901D01*
X008707Y002841D01*
X008767Y002713D02*
X008767Y002473D01*
X008767Y002593D02*
X008406Y002593D01*
X008526Y002473D01*
X008406Y002345D02*
X008406Y002225D01*
X008406Y002285D02*
X008707Y002285D01*
X008767Y002225D01*
X008767Y002165D01*
X008707Y002105D01*
X008466Y002841D02*
X008406Y002901D01*
X008406Y003021D01*
X008466Y003081D01*
X008526Y003081D01*
X008587Y003021D01*
X008647Y003081D01*
X008587Y003021D02*
X008587Y002961D01*
X009217Y001215D02*
X009157Y001155D01*
X009217Y001215D02*
X009337Y001215D01*
X009397Y001155D01*
X009397Y001095D01*
X009157Y000855D01*
X009397Y000855D01*
X009525Y000855D02*
X009525Y000915D01*
X009765Y001155D01*
X009765Y001215D01*
X009525Y001215D01*
X010157Y001155D02*
X010217Y001215D01*
X010337Y001215D01*
X010397Y001155D01*
X010397Y001095D01*
X010157Y000855D01*
X010397Y000855D01*
X010525Y000915D02*
X010585Y000855D01*
X010705Y000855D01*
X010765Y000915D01*
X010765Y000975D01*
X010705Y001035D01*
X010525Y001035D01*
X010525Y000915D01*
X010525Y001035D02*
X010645Y001155D01*
X010765Y001215D01*
X011157Y001155D02*
X011217Y001215D01*
X011337Y001215D01*
X011397Y001155D01*
X011397Y001095D01*
X011157Y000855D01*
X011397Y000855D01*
X011525Y000915D02*
X011585Y000855D01*
X011705Y000855D01*
X011765Y000915D01*
X011765Y001035D01*
X011705Y001095D01*
X011645Y001095D01*
X011525Y001035D01*
X011525Y001215D01*
X011765Y001215D01*
X012157Y001155D02*
X012217Y001215D01*
X012337Y001215D01*
X012397Y001155D01*
X012397Y001095D01*
X012157Y000855D01*
X012397Y000855D01*
X012525Y001035D02*
X012765Y001035D01*
X012705Y001215D02*
X012525Y001035D01*
X012705Y000855D02*
X012705Y001215D01*
X012970Y001554D02*
X013091Y001554D01*
X013151Y001614D01*
X013279Y001734D02*
X013519Y001734D01*
X013647Y001854D02*
X013707Y001914D01*
X013827Y001914D01*
X013887Y001854D01*
X013887Y001794D01*
X013647Y001554D01*
X013887Y001554D01*
X013459Y001554D02*
X013459Y001914D01*
X013279Y001734D01*
X013151Y001854D02*
X013091Y001914D01*
X012970Y001914D01*
X012910Y001854D01*
X012910Y001614D01*
X012970Y001554D01*
X014157Y001155D02*
X014217Y001215D01*
X014337Y001215D01*
X014397Y001155D01*
X014397Y001095D01*
X014157Y000855D01*
X014397Y000855D01*
X014525Y000915D02*
X014585Y000855D01*
X014705Y000855D01*
X014765Y000915D01*
X014765Y000975D01*
X014705Y001035D01*
X014645Y001035D01*
X014705Y001035D02*
X014765Y001095D01*
X014765Y001155D01*
X014705Y001215D01*
X014585Y001215D01*
X014525Y001155D01*
X015157Y001155D02*
X015217Y001215D01*
X015337Y001215D01*
X015397Y001155D01*
X015397Y001095D01*
X015157Y000855D01*
X015397Y000855D01*
X015525Y000855D02*
X015765Y001095D01*
X015765Y001155D01*
X015705Y001215D01*
X015585Y001215D01*
X015525Y001155D01*
X015525Y000855D02*
X015765Y000855D01*
X016157Y000855D02*
X016397Y001095D01*
X016397Y001155D01*
X016337Y001215D01*
X016217Y001215D01*
X016157Y001155D01*
X016157Y000855D02*
X016397Y000855D01*
X016525Y000855D02*
X016765Y000855D01*
X016645Y000855D02*
X016645Y001215D01*
X016525Y001095D01*
X017157Y001155D02*
X017217Y001215D01*
X017337Y001215D01*
X017397Y001155D01*
X017397Y001095D01*
X017157Y000855D01*
X017397Y000855D01*
X017525Y000915D02*
X017765Y001155D01*
X017765Y000915D01*
X017705Y000855D01*
X017585Y000855D01*
X017525Y000915D01*
X017525Y001155D01*
X017585Y001215D01*
X017705Y001215D01*
X017765Y001155D01*
X018157Y001095D02*
X018277Y001215D01*
X018277Y000855D01*
X018157Y000855D02*
X018397Y000855D01*
X018525Y000915D02*
X018585Y000855D01*
X018705Y000855D01*
X018765Y000915D01*
X018765Y001155D01*
X018705Y001215D01*
X018585Y001215D01*
X018525Y001155D01*
X018525Y001095D01*
X018585Y001035D01*
X018765Y001035D01*
X019157Y001095D02*
X019277Y001215D01*
X019277Y000855D01*
X019157Y000855D02*
X019397Y000855D01*
X019525Y000915D02*
X019525Y000975D01*
X019585Y001035D01*
X019705Y001035D01*
X019765Y000975D01*
X019765Y000915D01*
X019705Y000855D01*
X019585Y000855D01*
X019525Y000915D01*
X019585Y001035D02*
X019525Y001095D01*
X019525Y001155D01*
X019585Y001215D01*
X019705Y001215D01*
X019765Y001155D01*
X019765Y001095D01*
X019705Y001035D01*
X020157Y001095D02*
X020277Y001215D01*
X020277Y000855D01*
X020157Y000855D02*
X020397Y000855D01*
X020525Y000855D02*
X020525Y000915D01*
X020765Y001155D01*
X020765Y001215D01*
X020525Y001215D01*
X021157Y001095D02*
X021277Y001215D01*
X021277Y000855D01*
X021157Y000855D02*
X021397Y000855D01*
X021525Y000915D02*
X021585Y000855D01*
X021705Y000855D01*
X021765Y000915D01*
X021765Y000975D01*
X021705Y001035D01*
X021525Y001035D01*
X021525Y000915D01*
X021525Y001035D02*
X021645Y001155D01*
X021765Y001215D01*
X022157Y001095D02*
X022277Y001215D01*
X022277Y000855D01*
X022157Y000855D02*
X022397Y000855D01*
X022525Y000915D02*
X022585Y000855D01*
X022705Y000855D01*
X022765Y000915D01*
X022765Y001035D01*
X022705Y001095D01*
X022645Y001095D01*
X022525Y001035D01*
X022525Y001215D01*
X022765Y001215D01*
X023157Y001095D02*
X023277Y001215D01*
X023277Y000855D01*
X023157Y000855D02*
X023397Y000855D01*
X023525Y001035D02*
X023765Y001035D01*
X023705Y001215D02*
X023525Y001035D01*
X023705Y000855D02*
X023705Y001215D01*
X024157Y001095D02*
X024277Y001215D01*
X024277Y000855D01*
X024157Y000855D02*
X024397Y000855D01*
X024525Y000915D02*
X024585Y000855D01*
X024705Y000855D01*
X024765Y000915D01*
X024765Y000975D01*
X024705Y001035D01*
X024645Y001035D01*
X024705Y001035D02*
X024765Y001095D01*
X024765Y001155D01*
X024705Y001215D01*
X024585Y001215D01*
X024525Y001155D01*
X025157Y001095D02*
X025277Y001215D01*
X025277Y000855D01*
X025157Y000855D02*
X025397Y000855D01*
X025525Y000855D02*
X025765Y001095D01*
X025765Y001155D01*
X025705Y001215D01*
X025585Y001215D01*
X025525Y001155D01*
X025525Y000855D02*
X025765Y000855D01*
X026157Y000855D02*
X026397Y000855D01*
X026277Y000855D02*
X026277Y001215D01*
X026157Y001095D01*
X026525Y001095D02*
X026645Y001215D01*
X026645Y000855D01*
X026525Y000855D02*
X026765Y000855D01*
X027157Y000855D02*
X027397Y000855D01*
X027277Y000855D02*
X027277Y001215D01*
X027157Y001095D01*
X027525Y001155D02*
X027585Y001215D01*
X027705Y001215D01*
X027765Y001155D01*
X027525Y000915D01*
X027585Y000855D01*
X027705Y000855D01*
X027765Y000915D01*
X027765Y001155D01*
X027525Y001155D02*
X027525Y000915D01*
X028157Y000915D02*
X028217Y000855D01*
X028337Y000855D01*
X028397Y000915D01*
X028397Y001155D01*
X028337Y001215D01*
X028217Y001215D01*
X028157Y001155D01*
X028157Y001095D01*
X028217Y001035D01*
X028397Y001035D01*
X029157Y001095D02*
X029217Y001035D01*
X029337Y001035D01*
X029397Y000975D01*
X029397Y000915D01*
X029337Y000855D01*
X029217Y000855D01*
X029157Y000915D01*
X029157Y000975D01*
X029217Y001035D01*
X029157Y001095D02*
X029157Y001155D01*
X029217Y001215D01*
X029337Y001215D01*
X029397Y001155D01*
X029397Y001095D01*
X029337Y001035D01*
X029910Y001614D02*
X029970Y001554D01*
X030091Y001554D01*
X030151Y001614D01*
X030279Y001734D02*
X030519Y001734D01*
X030647Y001614D02*
X030707Y001554D01*
X030827Y001554D01*
X030887Y001614D01*
X030887Y001674D01*
X030827Y001734D01*
X030767Y001734D01*
X030827Y001734D02*
X030887Y001794D01*
X030887Y001854D01*
X030827Y001914D01*
X030707Y001914D01*
X030647Y001854D01*
X030459Y001914D02*
X030279Y001734D01*
X030151Y001854D02*
X030091Y001914D01*
X029970Y001914D01*
X029910Y001854D01*
X029910Y001614D01*
X030459Y001554D02*
X030459Y001914D01*
X031157Y001215D02*
X031397Y001215D01*
X031397Y001155D01*
X031157Y000915D01*
X031157Y000855D01*
X032157Y000915D02*
X032217Y000855D01*
X032337Y000855D01*
X032397Y000915D01*
X032397Y000975D01*
X032337Y001035D01*
X032157Y001035D01*
X032157Y000915D01*
X032157Y001035D02*
X032277Y001155D01*
X032397Y001215D01*
X033157Y001215D02*
X033157Y001035D01*
X033277Y001095D01*
X033337Y001095D01*
X033397Y001035D01*
X033397Y000915D01*
X033337Y000855D01*
X033217Y000855D01*
X033157Y000915D01*
X033157Y001215D02*
X033397Y001215D01*
X034157Y001035D02*
X034397Y001035D01*
X034337Y000855D02*
X034337Y001215D01*
X034157Y001035D01*
X035157Y001155D02*
X035217Y001215D01*
X035337Y001215D01*
X035397Y001155D01*
X035397Y001095D01*
X035337Y001035D01*
X035397Y000975D01*
X035397Y000915D01*
X035337Y000855D01*
X035217Y000855D01*
X035157Y000915D01*
X035277Y001035D02*
X035337Y001035D01*
X036157Y001155D02*
X036217Y001215D01*
X036337Y001215D01*
X036397Y001155D01*
X036397Y001095D01*
X036157Y000855D01*
X036397Y000855D01*
X037157Y000855D02*
X037397Y000855D01*
X037277Y000855D02*
X037277Y001215D01*
X037157Y001095D01*
X038157Y001155D02*
X038157Y000915D01*
X038397Y001155D01*
X038397Y000915D01*
X038337Y000855D01*
X038217Y000855D01*
X038157Y000915D01*
X038157Y001155D02*
X038217Y001215D01*
X038337Y001215D01*
X038397Y001155D01*
X039957Y001155D02*
X039957Y000915D01*
X040017Y000855D01*
X040137Y000855D01*
X040197Y000915D01*
X040325Y000915D02*
X040385Y000855D01*
X040505Y000855D01*
X040565Y000915D01*
X040565Y001155D01*
X040505Y001215D01*
X040385Y001215D01*
X040325Y001155D01*
X040325Y000915D01*
X040197Y001155D02*
X040137Y001215D01*
X040017Y001215D01*
X039957Y001155D01*
X040693Y001215D02*
X040693Y000855D01*
X040934Y000855D02*
X040934Y001215D01*
X040813Y001095D01*
X040693Y001215D01*
X041062Y001215D02*
X041062Y000855D01*
X041302Y000855D02*
X041302Y001215D01*
X041182Y001095D01*
X041062Y001215D01*
X041307Y002055D02*
X041487Y002055D01*
X041547Y002115D01*
X041547Y002355D01*
X041487Y002415D01*
X041307Y002415D01*
X041307Y002055D01*
X041675Y002055D02*
X041915Y002055D01*
X041795Y002055D02*
X041795Y002415D01*
X041675Y002295D01*
X042043Y002235D02*
X042223Y002235D01*
X042284Y002175D01*
X042284Y002115D01*
X042223Y002055D01*
X042103Y002055D01*
X042043Y002115D01*
X042043Y002235D01*
X042163Y002355D01*
X042284Y002415D01*
X043528Y002592D02*
X043528Y002952D01*
X043708Y002952D01*
X043768Y002892D01*
X043768Y002772D01*
X043708Y002712D01*
X043528Y002712D01*
X043648Y002712D02*
X043768Y002592D01*
X043896Y002652D02*
X043956Y002592D01*
X044076Y002592D01*
X044137Y002652D01*
X044137Y002772D01*
X044076Y002832D01*
X044016Y002832D01*
X043896Y002772D01*
X043896Y002952D01*
X044137Y002952D01*
X044265Y002892D02*
X044325Y002952D01*
X044445Y002952D01*
X044505Y002892D01*
X044505Y002832D01*
X044445Y002772D01*
X044505Y002712D01*
X044505Y002652D01*
X044445Y002592D01*
X044325Y002592D01*
X044265Y002652D01*
X044385Y002772D02*
X044445Y002772D01*
X044534Y002415D02*
X044293Y002415D01*
X044293Y002235D01*
X044413Y002295D01*
X044473Y002295D01*
X044534Y002235D01*
X044534Y002115D01*
X044473Y002055D01*
X044353Y002055D01*
X044293Y002115D01*
X044165Y002055D02*
X043925Y002055D01*
X044045Y002055D02*
X044045Y002415D01*
X043925Y002295D01*
X043797Y002355D02*
X043737Y002415D01*
X043557Y002415D01*
X043557Y002055D01*
X043737Y002055D01*
X043797Y002115D01*
X043797Y002355D01*
X043323Y001215D02*
X043143Y001215D01*
X043143Y000855D01*
X043143Y000975D02*
X043323Y000975D01*
X043384Y001035D01*
X043384Y001155D01*
X043323Y001215D01*
X043263Y000975D02*
X043384Y000855D01*
X043015Y000855D02*
X043015Y001215D01*
X042775Y001215D02*
X042775Y000855D01*
X042895Y000975D01*
X043015Y000855D01*
X042647Y001035D02*
X042647Y001155D01*
X042587Y001215D01*
X042407Y001215D01*
X042407Y000855D01*
X042407Y000975D02*
X042587Y000975D01*
X042647Y001035D01*
X039725Y003665D02*
X039665Y003605D01*
X039545Y003605D01*
X039485Y003665D01*
X039357Y003605D02*
X039116Y003605D01*
X039116Y003966D01*
X039485Y003905D02*
X039545Y003966D01*
X039665Y003966D01*
X039725Y003905D01*
X039725Y003845D01*
X039665Y003785D01*
X039725Y003725D01*
X039725Y003665D01*
X039665Y003785D02*
X039605Y003785D01*
X043528Y004242D02*
X043528Y004602D01*
X043708Y004602D01*
X043768Y004542D01*
X043768Y004422D01*
X043708Y004362D01*
X043528Y004362D01*
X043648Y004362D02*
X043768Y004242D01*
X043896Y004302D02*
X043956Y004242D01*
X044076Y004242D01*
X044137Y004302D01*
X044137Y004422D01*
X044076Y004482D01*
X044016Y004482D01*
X043896Y004422D01*
X043896Y004602D01*
X044137Y004602D01*
X044265Y004422D02*
X044505Y004422D01*
X044445Y004242D02*
X044445Y004602D01*
X044265Y004422D01*
X040667Y006668D02*
X040667Y006788D01*
X040607Y006848D01*
X040667Y006977D02*
X040667Y007217D01*
X040667Y007097D02*
X040307Y007097D01*
X040427Y006977D01*
X040367Y006848D02*
X040307Y006788D01*
X040307Y006668D01*
X040367Y006608D01*
X040607Y006608D01*
X040667Y006668D01*
X040607Y007345D02*
X040667Y007405D01*
X040667Y007525D01*
X040607Y007585D01*
X040547Y007585D01*
X040487Y007525D01*
X040487Y007345D01*
X040607Y007345D01*
X040487Y007345D02*
X040367Y007465D01*
X040307Y007585D01*
X038412Y009305D02*
X038412Y009665D01*
X038592Y009665D01*
X038652Y009605D01*
X038652Y009485D01*
X038592Y009425D01*
X038412Y009425D01*
X038284Y009365D02*
X038284Y009605D01*
X038223Y009665D01*
X038103Y009665D01*
X038043Y009605D01*
X038043Y009365D01*
X038103Y009305D01*
X038223Y009305D01*
X038284Y009365D01*
X037915Y009665D02*
X037675Y009665D01*
X037795Y009665D02*
X037795Y009305D01*
X037547Y009365D02*
X037487Y009305D01*
X037367Y009305D01*
X037307Y009365D01*
X037367Y009485D02*
X037487Y009485D01*
X037547Y009425D01*
X037547Y009365D01*
X037367Y009485D02*
X037307Y009545D01*
X037307Y009605D01*
X037367Y009665D01*
X037487Y009665D01*
X037547Y009605D01*
X036406Y010946D02*
X036466Y011006D01*
X036466Y011126D01*
X036406Y011186D01*
X036286Y011314D02*
X036286Y011554D01*
X036286Y011683D02*
X036286Y011863D01*
X036346Y011923D01*
X036406Y011923D01*
X036466Y011863D01*
X036466Y011743D01*
X036406Y011683D01*
X036286Y011683D01*
X036166Y011803D01*
X036106Y011923D01*
X036106Y011494D02*
X036286Y011314D01*
X036166Y011186D02*
X036106Y011126D01*
X036106Y011006D01*
X036166Y010946D01*
X036406Y010946D01*
X036466Y011494D02*
X036106Y011494D01*
X035277Y009914D02*
X035337Y009854D01*
X035097Y009614D01*
X035157Y009554D01*
X035277Y009554D01*
X035337Y009614D01*
X035337Y009854D01*
X035277Y009914D02*
X035157Y009914D01*
X035097Y009854D01*
X035097Y009614D01*
X034969Y009614D02*
X034909Y009554D01*
X034789Y009554D01*
X034729Y009614D01*
X034601Y009614D02*
X034541Y009554D01*
X034420Y009554D01*
X034360Y009614D01*
X034360Y009854D01*
X034420Y009914D01*
X034541Y009914D01*
X034601Y009854D01*
X034729Y009854D02*
X034789Y009914D01*
X034909Y009914D01*
X034969Y009854D01*
X034969Y009794D01*
X034909Y009734D01*
X034969Y009674D01*
X034969Y009614D01*
X034909Y009734D02*
X034849Y009734D01*
X033515Y009605D02*
X033515Y009365D01*
X033455Y009305D01*
X033335Y009305D01*
X033275Y009365D01*
X033275Y009605D01*
X033335Y009665D01*
X033455Y009665D01*
X033515Y009605D01*
X033147Y009605D02*
X033087Y009665D01*
X032967Y009665D01*
X032907Y009605D01*
X032907Y009365D01*
X032967Y009305D01*
X033087Y009305D01*
X033147Y009365D01*
X033147Y009485D01*
X033027Y009485D01*
X031616Y007973D02*
X031616Y007733D01*
X031376Y007973D01*
X031316Y007973D01*
X031256Y007913D01*
X031256Y007793D01*
X031316Y007733D01*
X031316Y007604D02*
X031376Y007604D01*
X031436Y007544D01*
X031496Y007604D01*
X031556Y007604D01*
X031616Y007544D01*
X031616Y007424D01*
X031556Y007364D01*
X031556Y007236D02*
X031616Y007176D01*
X031616Y007056D01*
X031556Y006996D01*
X031316Y006996D01*
X031256Y007056D01*
X031256Y007176D01*
X031316Y007236D01*
X031316Y007364D02*
X031256Y007424D01*
X031256Y007544D01*
X031316Y007604D01*
X031436Y007544D02*
X031436Y007484D01*
X031435Y006215D02*
X031435Y005855D01*
X031375Y005855D02*
X031495Y005855D01*
X031621Y005915D02*
X031681Y005855D01*
X031801Y005855D01*
X031861Y005915D01*
X031861Y006035D01*
X031741Y006035D01*
X031861Y006155D02*
X031801Y006215D01*
X031681Y006215D01*
X031621Y006155D01*
X031621Y005915D01*
X031495Y006215D02*
X031375Y006215D01*
X031247Y006155D02*
X031187Y006215D01*
X031007Y006215D01*
X031007Y005855D01*
X031187Y005855D01*
X031247Y005915D01*
X031247Y006155D01*
X031989Y006215D02*
X032109Y006215D01*
X032049Y006215D02*
X032049Y005855D01*
X031989Y005855D02*
X032109Y005855D01*
X032354Y005855D02*
X032354Y006215D01*
X032234Y006215D02*
X032475Y006215D01*
X032603Y006095D02*
X032723Y006215D01*
X032843Y006095D01*
X032843Y005855D01*
X032971Y005855D02*
X033211Y005855D01*
X032971Y005855D02*
X032971Y006215D01*
X032843Y006035D02*
X032603Y006035D01*
X032603Y006095D02*
X032603Y005855D01*
X030667Y005416D02*
X030667Y005296D01*
X030607Y005236D01*
X030547Y005236D01*
X030487Y005296D01*
X030487Y005416D01*
X030547Y005476D01*
X030607Y005476D01*
X030667Y005416D01*
X030487Y005416D02*
X030426Y005476D01*
X030366Y005476D01*
X030306Y005416D01*
X030306Y005296D01*
X030366Y005236D01*
X030426Y005236D01*
X030487Y005296D01*
X030306Y005108D02*
X030306Y004988D01*
X030306Y005048D02*
X030607Y005048D01*
X030667Y004988D01*
X030667Y004928D01*
X030607Y004868D01*
X029678Y005855D02*
X029738Y005915D01*
X029738Y006035D01*
X029618Y006035D01*
X029498Y006155D02*
X029498Y005915D01*
X029558Y005855D01*
X029678Y005855D01*
X029738Y006155D02*
X029678Y006215D01*
X029558Y006215D01*
X029498Y006155D01*
X029370Y006155D02*
X029310Y006215D01*
X029190Y006215D01*
X029130Y006155D01*
X029130Y005915D01*
X029190Y005855D01*
X029310Y005855D01*
X029370Y005915D01*
X029370Y006155D01*
X029002Y005855D02*
X028762Y005855D01*
X028762Y006215D01*
X028634Y006095D02*
X028634Y005855D01*
X028634Y006035D02*
X028393Y006035D01*
X028393Y006095D02*
X028513Y006215D01*
X028634Y006095D01*
X028393Y006095D02*
X028393Y005855D01*
X028265Y005855D02*
X028265Y006215D01*
X028025Y006215D02*
X028265Y005855D01*
X028025Y005855D02*
X028025Y006215D01*
X027897Y006095D02*
X027897Y005855D01*
X027897Y006035D02*
X027657Y006035D01*
X027657Y006095D02*
X027777Y006215D01*
X027897Y006095D01*
X027657Y006095D02*
X027657Y005855D01*
X024917Y006360D02*
X024917Y006480D01*
X024857Y006540D01*
X024556Y006540D01*
X024676Y006668D02*
X024556Y006788D01*
X024917Y006788D01*
X024917Y006668D02*
X024917Y006908D01*
X024857Y007036D02*
X024797Y007036D01*
X024737Y007096D01*
X024737Y007216D01*
X024797Y007276D01*
X024857Y007276D01*
X024917Y007216D01*
X024917Y007096D01*
X024857Y007036D01*
X024737Y007096D02*
X024676Y007036D01*
X024616Y007036D01*
X024556Y007096D01*
X024556Y007216D01*
X024616Y007276D01*
X024676Y007276D01*
X024737Y007216D01*
X024917Y006360D02*
X024857Y006300D01*
X024556Y006300D01*
X023675Y004216D02*
X023435Y004216D01*
X023435Y004035D01*
X023555Y004095D01*
X023615Y004095D01*
X023675Y004035D01*
X023675Y003915D01*
X023615Y003855D01*
X023495Y003855D01*
X023435Y003915D01*
X023307Y003915D02*
X023246Y003855D01*
X023126Y003855D01*
X023066Y003915D01*
X022938Y003915D02*
X022878Y003855D01*
X022758Y003855D01*
X022698Y003915D01*
X022698Y004155D01*
X022758Y004216D01*
X022878Y004216D01*
X022938Y004155D01*
X023066Y004155D02*
X023126Y004216D01*
X023246Y004216D01*
X023307Y004155D01*
X023307Y004095D01*
X023246Y004035D01*
X023307Y003975D01*
X023307Y003915D01*
X023246Y004035D02*
X023186Y004035D01*
X016997Y008917D02*
X016997Y009277D01*
X016817Y009097D01*
X017057Y009097D01*
X016689Y009097D02*
X016449Y009097D01*
X016629Y009277D01*
X016629Y008917D01*
X016321Y008917D02*
X016200Y009037D01*
X016261Y009037D02*
X016080Y009037D01*
X016080Y008917D02*
X016080Y009277D01*
X016261Y009277D01*
X016321Y009217D01*
X016321Y009097D01*
X016261Y009037D01*
X016119Y008565D02*
X015998Y008565D01*
X015938Y008505D01*
X015938Y008445D01*
X015998Y008385D01*
X016179Y008385D01*
X016179Y008505D02*
X016119Y008565D01*
X016179Y008505D02*
X016179Y008265D01*
X016119Y008205D01*
X015998Y008205D01*
X015938Y008265D01*
X015810Y008205D02*
X015570Y008205D01*
X015690Y008205D02*
X015690Y008565D01*
X015570Y008445D01*
X015442Y008565D02*
X015442Y008265D01*
X015382Y008205D01*
X015262Y008205D01*
X015202Y008265D01*
X015202Y008565D01*
X013027Y007383D02*
X013027Y007263D01*
X012967Y007203D01*
X012967Y007075D02*
X012666Y007075D01*
X012726Y007203D02*
X012786Y007203D01*
X012847Y007263D01*
X012847Y007443D01*
X012967Y007443D02*
X012726Y007443D01*
X012666Y007383D01*
X012666Y007263D01*
X012726Y007203D01*
X012967Y007075D02*
X013027Y007015D01*
X013027Y006895D01*
X012967Y006835D01*
X012666Y006835D01*
X013027Y007383D02*
X012967Y007443D01*
X011797Y006215D02*
X011857Y006155D01*
X011857Y006035D01*
X011797Y005975D01*
X011617Y005975D01*
X011737Y005975D02*
X011857Y005855D01*
X011617Y005855D02*
X011617Y006215D01*
X011797Y006215D01*
X011488Y006215D02*
X011248Y006215D01*
X011248Y005855D01*
X011488Y005855D01*
X011368Y006035D02*
X011248Y006035D01*
X011120Y006155D02*
X011060Y006215D01*
X010880Y006215D01*
X010880Y005855D01*
X011060Y005855D01*
X011120Y005915D01*
X011120Y006155D01*
X010752Y006155D02*
X010692Y006215D01*
X010572Y006215D01*
X010512Y006155D01*
X010512Y005915D01*
X010572Y005855D01*
X010692Y005855D01*
X010752Y005915D01*
X010752Y006155D01*
X010384Y006155D02*
X010323Y006215D01*
X010203Y006215D01*
X010143Y006155D01*
X010143Y005915D01*
X010203Y005855D01*
X010323Y005855D01*
X010384Y005915D01*
X010015Y005855D02*
X010015Y006215D01*
X009775Y006215D02*
X009775Y005855D01*
X009647Y005855D02*
X009407Y005855D01*
X009407Y006215D01*
X009647Y006215D01*
X009775Y006215D02*
X010015Y005855D01*
X009527Y006035D02*
X009407Y006035D01*
X013022Y003665D02*
X013142Y003665D01*
X013082Y003665D02*
X013082Y003365D01*
X013022Y003305D01*
X012962Y003305D01*
X012902Y003365D01*
X013270Y003305D02*
X013510Y003305D01*
X013390Y003305D02*
X013390Y003665D01*
X013270Y003545D01*
X013638Y003545D02*
X013758Y003665D01*
X013758Y003305D01*
X013638Y003305D02*
X013879Y003305D01*
X013607Y004500D02*
X013667Y004560D01*
X013667Y004620D01*
X013607Y004680D01*
X013306Y004680D01*
X013306Y004620D02*
X013306Y004740D01*
X013426Y004868D02*
X013306Y004988D01*
X013667Y004988D01*
X013667Y004868D02*
X013667Y005108D01*
X013607Y005236D02*
X013366Y005476D01*
X013607Y005476D01*
X013667Y005416D01*
X013667Y005296D01*
X013607Y005236D01*
X013366Y005236D01*
X013306Y005296D01*
X013306Y005416D01*
X013366Y005476D01*
X019698Y009565D02*
X019698Y009805D01*
X019758Y009866D01*
X019878Y009866D01*
X019938Y009805D01*
X020066Y009866D02*
X020066Y009685D01*
X020186Y009745D01*
X020246Y009745D01*
X020307Y009685D01*
X020307Y009565D01*
X020246Y009505D01*
X020126Y009505D01*
X020066Y009565D01*
X019938Y009565D02*
X019878Y009505D01*
X019758Y009505D01*
X019698Y009565D01*
X020066Y009866D02*
X020307Y009866D01*
X020435Y009805D02*
X020435Y009745D01*
X020495Y009685D01*
X020615Y009685D01*
X020675Y009625D01*
X020675Y009565D01*
X020615Y009505D01*
X020495Y009505D01*
X020435Y009565D01*
X020435Y009625D01*
X020495Y009685D01*
X020615Y009685D02*
X020675Y009745D01*
X020675Y009805D01*
X020615Y009866D01*
X020495Y009866D01*
X020435Y009805D01*
X020670Y010404D02*
X020791Y010404D01*
X020851Y010464D01*
X020979Y010464D02*
X021039Y010404D01*
X021159Y010404D01*
X021219Y010464D01*
X021219Y010524D01*
X021159Y010584D01*
X021099Y010584D01*
X021159Y010584D02*
X021219Y010644D01*
X021219Y010704D01*
X021159Y010764D01*
X021039Y010764D01*
X020979Y010704D01*
X020851Y010704D02*
X020791Y010764D01*
X020670Y010764D01*
X020610Y010704D01*
X020610Y010464D01*
X020670Y010404D01*
X021347Y010464D02*
X021407Y010404D01*
X021527Y010404D01*
X021587Y010464D01*
X021587Y010524D01*
X021527Y010584D01*
X021467Y010584D01*
X021527Y010584D02*
X021587Y010644D01*
X021587Y010704D01*
X021527Y010764D01*
X021407Y010764D01*
X021347Y010704D01*
X018369Y010514D02*
X018369Y010454D01*
X018129Y010214D01*
X018129Y010154D01*
X018001Y010214D02*
X017941Y010154D01*
X017820Y010154D01*
X017760Y010214D01*
X017760Y010454D01*
X017820Y010514D01*
X017941Y010514D01*
X018001Y010454D01*
X018129Y010514D02*
X018369Y010514D01*
X018309Y011604D02*
X018369Y011664D01*
X018369Y011724D01*
X018309Y011784D01*
X018129Y011784D01*
X018129Y011664D01*
X018189Y011604D01*
X018309Y011604D01*
X018129Y011784D02*
X018249Y011904D01*
X018369Y011964D01*
X018001Y011904D02*
X017941Y011964D01*
X017820Y011964D01*
X017760Y011904D01*
X017760Y011664D01*
X017820Y011604D01*
X017941Y011604D01*
X018001Y011664D01*
X018129Y012617D02*
X018129Y012977D01*
X017949Y012797D01*
X018189Y012797D01*
X018317Y012797D02*
X018437Y012857D01*
X018497Y012857D01*
X018557Y012797D01*
X018557Y012677D01*
X018497Y012617D01*
X018377Y012617D01*
X018317Y012677D01*
X018317Y012797D02*
X018317Y012977D01*
X018557Y012977D01*
X017821Y012917D02*
X017821Y012797D01*
X017761Y012737D01*
X017580Y012737D01*
X017580Y012617D02*
X017580Y012977D01*
X017761Y012977D01*
X017821Y012917D01*
X017700Y012737D02*
X017821Y012617D01*
X017205Y013492D02*
X016965Y013492D01*
X017205Y013732D01*
X017205Y013792D01*
X017145Y013852D01*
X017025Y013852D01*
X016965Y013792D01*
X016837Y013852D02*
X016716Y013792D01*
X016596Y013672D01*
X016776Y013672D01*
X016837Y013612D01*
X016837Y013552D01*
X016776Y013492D01*
X016656Y013492D01*
X016596Y013552D01*
X016596Y013672D01*
X016468Y013672D02*
X016408Y013612D01*
X016228Y013612D01*
X016228Y013492D02*
X016228Y013852D01*
X016408Y013852D01*
X016468Y013792D01*
X016468Y013672D01*
X016348Y013612D02*
X016468Y013492D01*
X016421Y014217D02*
X016300Y014337D01*
X016361Y014337D02*
X016180Y014337D01*
X016180Y014217D02*
X016180Y014577D01*
X016361Y014577D01*
X016421Y014517D01*
X016421Y014397D01*
X016361Y014337D01*
X016549Y014397D02*
X016789Y014397D01*
X016917Y014517D02*
X016977Y014577D01*
X017097Y014577D01*
X017157Y014517D01*
X017157Y014457D01*
X016917Y014217D01*
X017157Y014217D01*
X016729Y014217D02*
X016729Y014577D01*
X016549Y014397D01*
X015375Y013755D02*
X015135Y013515D01*
X015195Y013455D01*
X015315Y013455D01*
X015375Y013515D01*
X015375Y013755D01*
X015315Y013816D01*
X015195Y013816D01*
X015135Y013755D01*
X015135Y013515D01*
X015007Y013455D02*
X014766Y013455D01*
X014886Y013455D02*
X014886Y013816D01*
X014766Y013695D01*
X014638Y013755D02*
X014578Y013816D01*
X014458Y013816D01*
X014398Y013755D01*
X014398Y013515D01*
X014458Y013455D01*
X014578Y013455D01*
X014638Y013515D01*
X011725Y013535D02*
X011725Y013415D01*
X011665Y013355D01*
X011545Y013355D01*
X011485Y013415D01*
X011485Y013535D02*
X011605Y013595D01*
X011665Y013595D01*
X011725Y013535D01*
X011725Y013716D02*
X011485Y013716D01*
X011485Y013535D01*
X011357Y013535D02*
X011296Y013595D01*
X011236Y013595D01*
X011116Y013535D01*
X011116Y013716D01*
X011357Y013716D01*
X011357Y013535D02*
X011357Y013415D01*
X011296Y013355D01*
X011176Y013355D01*
X011116Y013415D01*
X010988Y013415D02*
X010928Y013355D01*
X010808Y013355D01*
X010748Y013415D01*
X010748Y013655D01*
X010808Y013716D01*
X010928Y013716D01*
X010988Y013655D01*
X008805Y013692D02*
X008565Y013692D01*
X008685Y013692D02*
X008685Y014052D01*
X008565Y013932D01*
X008437Y013812D02*
X008376Y013872D01*
X008196Y013872D01*
X008196Y013752D01*
X008256Y013692D01*
X008376Y013692D01*
X008437Y013752D01*
X008437Y013812D01*
X008316Y013992D02*
X008196Y013872D01*
X008068Y013872D02*
X008068Y013992D01*
X008008Y014052D01*
X007828Y014052D01*
X007828Y013692D01*
X007828Y013812D02*
X008008Y013812D01*
X008068Y013872D01*
X007948Y013812D02*
X008068Y013692D01*
X008316Y013992D02*
X008437Y014052D01*
X017706Y015374D02*
X017766Y015314D01*
X018006Y015314D01*
X018066Y015374D01*
X018066Y015494D01*
X018006Y015554D01*
X018006Y015683D02*
X018066Y015743D01*
X018066Y015863D01*
X018006Y015923D01*
X017886Y015923D01*
X017826Y015863D01*
X017826Y015803D01*
X017886Y015683D01*
X017706Y015683D01*
X017706Y015923D01*
X017766Y015554D02*
X017706Y015494D01*
X017706Y015374D01*
X017766Y016714D02*
X018006Y016714D01*
X018066Y016774D01*
X018066Y016894D01*
X018006Y016954D01*
X018006Y017083D02*
X018066Y017143D01*
X018066Y017263D01*
X018006Y017323D01*
X017946Y017323D01*
X017886Y017263D01*
X017886Y017203D01*
X017886Y017263D02*
X017826Y017323D01*
X017766Y017323D01*
X017706Y017263D01*
X017706Y017143D01*
X017766Y017083D01*
X017766Y016954D02*
X017706Y016894D01*
X017706Y016774D01*
X017766Y016714D01*
X017778Y017542D02*
X017778Y017902D01*
X017958Y017902D01*
X018018Y017842D01*
X018018Y017722D01*
X017958Y017662D01*
X017778Y017662D01*
X017898Y017662D02*
X018018Y017542D01*
X018146Y017722D02*
X018387Y017722D01*
X018515Y017602D02*
X018575Y017542D01*
X018695Y017542D01*
X018755Y017602D01*
X018755Y017662D01*
X018695Y017722D01*
X018635Y017722D01*
X018695Y017722D02*
X018755Y017782D01*
X018755Y017842D01*
X018695Y017902D01*
X018575Y017902D01*
X018515Y017842D01*
X018326Y017902D02*
X018326Y017542D01*
X018146Y017722D02*
X018326Y017902D01*
X020330Y020955D02*
X020450Y020955D01*
X020510Y021015D01*
X020510Y021315D01*
X020638Y021135D02*
X020819Y021315D01*
X020819Y020955D01*
X020879Y021135D02*
X020638Y021135D01*
X020330Y020955D02*
X020270Y021015D01*
X020270Y021315D01*
X024256Y022878D02*
X024256Y022998D01*
X024316Y023058D01*
X024557Y023058D01*
X024617Y022998D01*
X024617Y022878D01*
X024557Y022818D01*
X024316Y022818D01*
X024256Y022878D01*
X024497Y022938D02*
X024617Y023058D01*
X024617Y023186D02*
X024376Y023426D01*
X024316Y023426D01*
X024256Y023366D01*
X024256Y023246D01*
X024316Y023186D01*
X024617Y023186D02*
X024617Y023426D01*
X024269Y025305D02*
X024148Y025305D01*
X024088Y025365D01*
X023960Y025365D02*
X023960Y025665D01*
X024088Y025605D02*
X024148Y025665D01*
X024269Y025665D01*
X024329Y025605D01*
X024329Y025545D01*
X024269Y025485D01*
X024329Y025425D01*
X024329Y025365D01*
X024269Y025305D01*
X024269Y025485D02*
X024208Y025485D01*
X023960Y025365D02*
X023900Y025305D01*
X023780Y025305D01*
X023720Y025365D01*
X023720Y025665D01*
X023507Y025850D02*
X023567Y025910D01*
X023567Y026030D01*
X023507Y026090D01*
X023507Y026218D02*
X023567Y026278D01*
X023567Y026398D01*
X023507Y026458D01*
X023447Y026458D01*
X023387Y026398D01*
X023387Y026338D01*
X023387Y026398D02*
X023326Y026458D01*
X023266Y026458D01*
X023206Y026398D01*
X023206Y026278D01*
X023266Y026218D01*
X023266Y026090D02*
X023206Y026030D01*
X023206Y025910D01*
X023266Y025850D01*
X023507Y025850D01*
X023567Y026586D02*
X023567Y026826D01*
X023567Y026706D02*
X023206Y026706D01*
X023326Y026586D01*
X024066Y028405D02*
X024307Y028405D01*
X024367Y028465D01*
X024367Y028585D01*
X024307Y028645D01*
X024407Y028588D02*
X024407Y028468D01*
X024467Y028408D01*
X024707Y028408D01*
X024767Y028468D01*
X024767Y028588D01*
X024707Y028648D01*
X024767Y028777D02*
X024527Y029017D01*
X024467Y029017D01*
X024407Y028957D01*
X024407Y028837D01*
X024467Y028777D01*
X024367Y028773D02*
X024126Y029013D01*
X024066Y029013D01*
X024006Y028953D01*
X024006Y028833D01*
X024066Y028773D01*
X024066Y028645D02*
X024006Y028585D01*
X024006Y028465D01*
X024066Y028405D01*
X024407Y028588D02*
X024467Y028648D01*
X024367Y028773D02*
X024367Y029013D01*
X024307Y029141D02*
X024367Y029201D01*
X024367Y029321D01*
X024307Y029381D01*
X024247Y029381D01*
X024187Y029321D01*
X024187Y029141D01*
X024307Y029141D01*
X024407Y029205D02*
X024467Y029145D01*
X024407Y029205D02*
X024407Y029325D01*
X024467Y029385D01*
X024527Y029385D01*
X024587Y029325D01*
X024647Y029385D01*
X024707Y029385D01*
X024767Y029325D01*
X024767Y029205D01*
X024707Y029145D01*
X024767Y029017D02*
X024767Y028777D01*
X024587Y029265D02*
X024587Y029325D01*
X024187Y029141D02*
X024066Y029261D01*
X024006Y029381D01*
X025110Y030014D02*
X025170Y029954D01*
X025291Y029954D01*
X025351Y030014D01*
X025479Y029954D02*
X025719Y030194D01*
X025719Y030254D01*
X025659Y030314D01*
X025539Y030314D01*
X025479Y030254D01*
X025351Y030254D02*
X025291Y030314D01*
X025170Y030314D01*
X025110Y030254D01*
X025110Y030014D01*
X025479Y029954D02*
X025719Y029954D01*
X025847Y030134D02*
X026087Y030134D01*
X026027Y029954D02*
X026027Y030314D01*
X025847Y030134D01*
X025843Y030405D02*
X025843Y030465D01*
X026084Y030705D01*
X026084Y030765D01*
X025843Y030765D01*
X025595Y030765D02*
X025595Y030405D01*
X025475Y030405D02*
X025715Y030405D01*
X025475Y030645D02*
X025595Y030765D01*
X025347Y030765D02*
X025347Y030465D01*
X025287Y030405D01*
X025167Y030405D01*
X025107Y030465D01*
X025107Y030765D01*
X021825Y030705D02*
X021825Y030645D01*
X021765Y030585D01*
X021825Y030525D01*
X021825Y030465D01*
X021765Y030405D01*
X021645Y030405D01*
X021585Y030465D01*
X021457Y030465D02*
X021457Y030525D01*
X021396Y030585D01*
X021216Y030585D01*
X021216Y030465D01*
X021276Y030405D01*
X021396Y030405D01*
X021457Y030465D01*
X021336Y030705D02*
X021216Y030585D01*
X021336Y030705D02*
X021457Y030766D01*
X021585Y030705D02*
X021645Y030766D01*
X021765Y030766D01*
X021825Y030705D01*
X021765Y030585D02*
X021705Y030585D01*
X021088Y030465D02*
X021028Y030405D01*
X020908Y030405D01*
X020848Y030465D01*
X020848Y030705D01*
X020908Y030766D01*
X021028Y030766D01*
X021088Y030705D01*
X020454Y030645D02*
X020454Y030525D01*
X020394Y030465D01*
X020454Y030337D02*
X020454Y030097D01*
X020454Y030217D02*
X020094Y030217D01*
X020214Y030097D01*
X020154Y029968D02*
X020274Y029968D01*
X020334Y029908D01*
X020334Y029728D01*
X020454Y029728D02*
X020094Y029728D01*
X020094Y029908D01*
X020154Y029968D01*
X020334Y029848D02*
X020454Y029968D01*
X020598Y029865D02*
X020658Y029805D01*
X020778Y029805D01*
X020838Y029865D01*
X020966Y029865D02*
X021026Y029805D01*
X021146Y029805D01*
X021207Y029865D01*
X021207Y029925D01*
X021146Y029985D01*
X020966Y029985D01*
X020966Y029865D01*
X020966Y029985D02*
X021086Y030105D01*
X021207Y030166D01*
X021335Y029985D02*
X021575Y029985D01*
X021515Y029805D02*
X021515Y030166D01*
X021335Y029985D01*
X020838Y030105D02*
X020778Y030166D01*
X020658Y030166D01*
X020598Y030105D01*
X020598Y029865D01*
X020154Y030465D02*
X020094Y030525D01*
X020094Y030645D01*
X020154Y030705D01*
X020214Y030705D01*
X020274Y030645D01*
X020334Y030705D01*
X020394Y030705D01*
X020454Y030645D01*
X020274Y030645D02*
X020274Y030585D01*
X019055Y030522D02*
X018815Y030522D01*
X018995Y030702D01*
X018995Y030342D01*
X018687Y030342D02*
X018446Y030342D01*
X018566Y030342D02*
X018566Y030702D01*
X018446Y030582D01*
X018318Y030642D02*
X018318Y030522D01*
X018258Y030462D01*
X018078Y030462D01*
X018078Y030342D02*
X018078Y030702D01*
X018258Y030702D01*
X018318Y030642D01*
X018198Y030462D02*
X018318Y030342D01*
X016917Y029175D02*
X016917Y029055D01*
X016857Y028995D01*
X016737Y028995D02*
X016677Y029115D01*
X016677Y029175D01*
X016737Y029235D01*
X016857Y029235D01*
X016917Y029175D01*
X016737Y028995D02*
X016557Y028995D01*
X016557Y029235D01*
X016557Y028867D02*
X016617Y028747D01*
X016737Y028627D01*
X016737Y028807D01*
X016797Y028867D01*
X016857Y028867D01*
X016917Y028807D01*
X016917Y028687D01*
X016857Y028627D01*
X016737Y028627D01*
X016617Y028498D02*
X016557Y028438D01*
X016557Y028318D01*
X016617Y028258D01*
X016857Y028258D01*
X016917Y028318D01*
X016917Y028438D01*
X016857Y028498D01*
X017247Y027535D02*
X019027Y027535D01*
X019010Y027605D02*
X018770Y027605D01*
X018890Y027605D02*
X018890Y027965D01*
X018770Y027845D01*
X018642Y027965D02*
X018642Y027665D01*
X018582Y027605D01*
X018462Y027605D01*
X018402Y027665D01*
X018402Y027965D01*
X019138Y027905D02*
X019138Y027665D01*
X019379Y027905D01*
X019379Y027665D01*
X019319Y027605D01*
X019198Y027605D01*
X019138Y027665D01*
X019138Y027905D02*
X019198Y027965D01*
X019319Y027965D01*
X019379Y027905D01*
X017773Y025865D02*
X017653Y025865D01*
X017593Y025805D01*
X017593Y025745D01*
X017653Y025685D01*
X017834Y025685D01*
X017834Y025565D02*
X017834Y025805D01*
X017773Y025865D01*
X017834Y025565D02*
X017773Y025505D01*
X017653Y025505D01*
X017593Y025565D01*
X015054Y029528D02*
X014694Y029528D01*
X014694Y029708D01*
X014754Y029768D01*
X014874Y029768D01*
X014934Y029708D01*
X014934Y029528D01*
X014934Y029648D02*
X015054Y029768D01*
X015054Y029897D02*
X015054Y030137D01*
X015054Y030017D02*
X014694Y030017D01*
X014814Y029897D01*
X014874Y030265D02*
X014694Y030265D01*
X014694Y030505D01*
X014814Y030445D02*
X014874Y030505D01*
X014994Y030505D01*
X015054Y030445D01*
X015054Y030325D01*
X014994Y030265D01*
X014874Y030265D02*
X014814Y030385D01*
X014814Y030445D01*
X014817Y031955D02*
X014937Y031955D01*
X014997Y032015D01*
X015125Y032015D02*
X015185Y031955D01*
X015305Y031955D01*
X015365Y032015D01*
X015365Y032135D01*
X015305Y032195D01*
X015245Y032195D01*
X015125Y032135D01*
X015125Y032315D01*
X015365Y032315D01*
X015493Y032255D02*
X015553Y032315D01*
X015673Y032315D01*
X015734Y032255D01*
X015734Y032015D01*
X015673Y031955D01*
X015553Y031955D01*
X015493Y032015D01*
X015553Y032135D02*
X015734Y032135D01*
X015553Y032135D02*
X015493Y032195D01*
X015493Y032255D01*
X014997Y032255D02*
X014937Y032315D01*
X014817Y032315D01*
X014757Y032255D01*
X014757Y032015D01*
X014817Y031955D01*
X011617Y030971D02*
X011617Y030851D01*
X011557Y030791D01*
X011437Y030791D02*
X011376Y030911D01*
X011376Y030971D01*
X011437Y031031D01*
X011557Y031031D01*
X011617Y030971D01*
X011437Y030791D02*
X011256Y030791D01*
X011256Y031031D01*
X011617Y030663D02*
X011617Y030423D01*
X011617Y030543D02*
X011256Y030543D01*
X011376Y030423D01*
X011256Y030295D02*
X011256Y030175D01*
X011256Y030235D02*
X011557Y030235D01*
X011617Y030175D01*
X011617Y030115D01*
X011557Y030055D01*
X011567Y029921D02*
X011206Y029921D01*
X011387Y029741D01*
X011387Y029981D01*
X011567Y029613D02*
X011567Y029373D01*
X011567Y029493D02*
X011206Y029493D01*
X011326Y029373D01*
X011206Y029245D02*
X011206Y029125D01*
X011206Y029185D02*
X011507Y029185D01*
X011567Y029125D01*
X011567Y029065D01*
X011507Y029005D01*
X010637Y031305D02*
X010637Y031545D01*
X010560Y031905D02*
X010440Y031905D01*
X010380Y031965D01*
X010380Y032205D01*
X010440Y032265D01*
X010560Y032265D01*
X010620Y032205D01*
X010620Y031965D01*
X010560Y031905D01*
X010252Y032025D02*
X010252Y032265D01*
X010252Y032025D02*
X010132Y031905D01*
X010012Y032025D01*
X010012Y032265D01*
X009884Y032205D02*
X009884Y032085D01*
X009823Y032025D01*
X009643Y032025D01*
X009763Y032025D02*
X009884Y031905D01*
X009643Y031905D02*
X009643Y032265D01*
X009823Y032265D01*
X009884Y032205D01*
X009515Y032265D02*
X009275Y032265D01*
X009275Y031905D01*
X009515Y031905D01*
X009395Y032085D02*
X009275Y032085D01*
X009147Y032025D02*
X009147Y031965D01*
X009087Y031905D01*
X008967Y031905D01*
X008907Y031965D01*
X008967Y032085D02*
X009087Y032085D01*
X009147Y032025D01*
X009147Y032205D02*
X009087Y032265D01*
X008967Y032265D01*
X008907Y032205D01*
X008907Y032145D01*
X008967Y032085D01*
X008757Y031545D02*
X008817Y031485D01*
X008817Y031365D01*
X008757Y031305D01*
X008637Y031365D02*
X008637Y031485D01*
X008697Y031545D01*
X008757Y031545D01*
X008637Y031365D02*
X008576Y031305D01*
X008516Y031305D01*
X008456Y031365D01*
X008456Y031485D01*
X008516Y031545D01*
X007807Y030745D02*
X007566Y030745D01*
X007807Y030505D01*
X007867Y030565D01*
X007867Y030685D01*
X007807Y030745D01*
X007807Y030505D02*
X007566Y030505D01*
X007506Y030565D01*
X007506Y030685D01*
X007566Y030745D01*
X007867Y029745D02*
X007867Y029505D01*
X007867Y029625D02*
X007506Y029625D01*
X007626Y029505D01*
X007626Y028745D02*
X007566Y028745D01*
X007506Y028685D01*
X007506Y028565D01*
X007566Y028505D01*
X007626Y028745D02*
X007867Y028505D01*
X007867Y028745D01*
X009637Y031305D02*
X009637Y031545D01*
X009757Y031425D02*
X009516Y031425D01*
X002767Y023015D02*
X002647Y022894D01*
X002767Y022774D01*
X002407Y022774D01*
X002467Y022646D02*
X002407Y022586D01*
X002407Y022466D01*
X002467Y022406D01*
X002707Y022406D01*
X002767Y022466D01*
X002767Y022586D01*
X002707Y022646D01*
X002467Y022646D01*
X002407Y023015D02*
X002767Y023015D01*
X002767Y022278D02*
X002767Y022038D01*
X002767Y022158D02*
X002407Y022158D01*
X002407Y021910D02*
X002407Y021669D01*
X002407Y021790D02*
X002767Y021790D01*
X002647Y021910D01*
X024176Y009693D02*
X024236Y009753D01*
X024296Y009753D01*
X024357Y009693D01*
X024357Y009573D01*
X024296Y009513D01*
X024236Y009513D01*
X024176Y009573D01*
X024176Y009693D01*
X024357Y009693D02*
X024417Y009753D01*
X024477Y009753D01*
X024537Y009693D01*
X024537Y009573D01*
X024477Y009513D01*
X024417Y009513D01*
X024357Y009573D01*
X024477Y009385D02*
X024176Y009385D01*
X024176Y009145D02*
X024477Y009145D01*
X024537Y009205D01*
X024537Y009325D01*
X024477Y009385D01*
X026044Y013128D02*
X026044Y013308D01*
X026104Y013368D01*
X026224Y013368D01*
X026284Y013308D01*
X026284Y013128D01*
X026404Y013128D02*
X026044Y013128D01*
X026284Y013248D02*
X026404Y013368D01*
X026224Y013497D02*
X026224Y013737D01*
X026224Y013865D02*
X026224Y014045D01*
X026284Y014105D01*
X026344Y014105D01*
X026404Y014045D01*
X026404Y013925D01*
X026344Y013865D01*
X026224Y013865D01*
X026104Y013985D01*
X026044Y014105D01*
X026044Y013677D02*
X026224Y013497D01*
X026404Y013677D02*
X026044Y013677D01*
X028510Y013654D02*
X028510Y013414D01*
X028570Y013354D01*
X028691Y013354D01*
X028751Y013414D01*
X028879Y013354D02*
X029119Y013354D01*
X028999Y013354D02*
X028999Y013714D01*
X028879Y013594D01*
X028751Y013654D02*
X028691Y013714D01*
X028570Y013714D01*
X028510Y013654D01*
X029247Y013654D02*
X029307Y013714D01*
X029427Y013714D01*
X029487Y013654D01*
X029487Y013594D01*
X029247Y013354D01*
X029487Y013354D01*
X032437Y013217D02*
X032437Y012916D01*
X032497Y012856D01*
X032617Y012856D01*
X032677Y012916D01*
X032677Y013217D01*
X032805Y013097D02*
X032925Y013217D01*
X032925Y012856D01*
X032805Y012856D02*
X033045Y012856D01*
X033173Y012916D02*
X033233Y012856D01*
X033353Y012856D01*
X033414Y012916D01*
X033414Y012976D01*
X033353Y013036D01*
X033293Y013036D01*
X033353Y013036D02*
X033414Y013097D01*
X033414Y013157D01*
X033353Y013217D01*
X033233Y013217D01*
X033173Y013157D01*
X033407Y013418D02*
X033467Y013358D01*
X033707Y013358D01*
X033767Y013418D01*
X033767Y013538D01*
X033707Y013598D01*
X033767Y013727D02*
X033767Y013967D01*
X033767Y013847D02*
X033407Y013847D01*
X033527Y013727D01*
X033467Y013598D02*
X033407Y013538D01*
X033407Y013418D01*
X033407Y014095D02*
X033587Y014095D01*
X033527Y014215D01*
X033527Y014275D01*
X033587Y014335D01*
X033707Y014335D01*
X033767Y014275D01*
X033767Y014155D01*
X033707Y014095D01*
X033407Y014095D02*
X033407Y014335D01*
X034699Y014210D02*
X034699Y014090D01*
X034759Y014030D01*
X034699Y014210D02*
X034759Y014270D01*
X034819Y014270D01*
X035059Y014030D01*
X035059Y014270D01*
X035059Y013902D02*
X035059Y013662D01*
X034699Y013662D01*
X035394Y016305D02*
X035454Y016305D01*
X035514Y016365D01*
X035514Y016665D01*
X035454Y016665D02*
X035574Y016665D01*
X035702Y016665D02*
X035942Y016665D01*
X035822Y016665D02*
X035822Y016305D01*
X036070Y016305D02*
X036070Y016545D01*
X036190Y016665D01*
X036310Y016545D01*
X036310Y016305D01*
X036438Y016365D02*
X036498Y016305D01*
X036619Y016305D01*
X036679Y016365D01*
X036679Y016485D01*
X036558Y016485D01*
X036438Y016605D02*
X036438Y016365D01*
X036310Y016485D02*
X036070Y016485D01*
X036438Y016605D02*
X036498Y016665D01*
X036619Y016665D01*
X036679Y016605D01*
X037030Y016477D02*
X037030Y016117D01*
X037030Y016237D02*
X037211Y016237D01*
X037271Y016297D01*
X037271Y016417D01*
X037211Y016477D01*
X037030Y016477D01*
X037150Y016237D02*
X037271Y016117D01*
X037399Y016117D02*
X037399Y016177D01*
X037639Y016417D01*
X037639Y016477D01*
X037399Y016477D01*
X037767Y016357D02*
X037887Y016477D01*
X037887Y016117D01*
X037767Y016117D02*
X038007Y016117D01*
X038507Y016415D02*
X038567Y016355D01*
X038687Y016355D01*
X038747Y016415D01*
X038747Y016715D01*
X038875Y016655D02*
X038935Y016715D01*
X039055Y016715D01*
X039115Y016655D01*
X039115Y016595D01*
X038875Y016355D01*
X039115Y016355D01*
X039243Y016415D02*
X039484Y016655D01*
X039484Y016415D01*
X039423Y016355D01*
X039303Y016355D01*
X039243Y016415D01*
X039243Y016655D01*
X039303Y016715D01*
X039423Y016715D01*
X039484Y016655D01*
X038507Y016715D02*
X038507Y016415D01*
X039836Y017535D02*
X039896Y017475D01*
X040017Y017475D01*
X040077Y017535D01*
X040205Y017656D02*
X040445Y017656D01*
X040573Y017656D02*
X040813Y017656D01*
X040753Y017836D02*
X040573Y017656D01*
X040753Y017836D02*
X040753Y017475D01*
X040385Y017475D02*
X040385Y017836D01*
X040205Y017656D01*
X040077Y017776D02*
X040017Y017836D01*
X039896Y017836D01*
X039836Y017776D01*
X039836Y017535D01*
X037009Y017637D02*
X036888Y017577D01*
X036768Y017457D01*
X036948Y017457D01*
X037009Y017397D01*
X037009Y017337D01*
X036948Y017277D01*
X036828Y017277D01*
X036768Y017337D01*
X036768Y017457D01*
X036640Y017277D02*
X036400Y017277D01*
X036520Y017277D02*
X036520Y017637D01*
X036400Y017517D01*
X036272Y017637D02*
X036272Y017337D01*
X036212Y017277D01*
X036092Y017277D01*
X036032Y017337D01*
X036032Y017637D01*
X035333Y016365D02*
X035394Y016305D01*
X039848Y014705D02*
X039848Y014465D01*
X039908Y014405D01*
X040028Y014405D01*
X040088Y014465D01*
X040216Y014465D02*
X040276Y014405D01*
X040396Y014405D01*
X040457Y014465D01*
X040457Y014525D01*
X040396Y014585D01*
X040216Y014585D01*
X040216Y014465D01*
X040216Y014585D02*
X040336Y014705D01*
X040457Y014766D01*
X040585Y014705D02*
X040645Y014766D01*
X040765Y014766D01*
X040825Y014705D01*
X040585Y014465D01*
X040645Y014405D01*
X040765Y014405D01*
X040825Y014465D01*
X040825Y014705D01*
X040585Y014705D02*
X040585Y014465D01*
X040088Y014705D02*
X040028Y014766D01*
X039908Y014766D01*
X039848Y014705D01*
X040657Y013465D02*
X040777Y013465D01*
X040717Y013465D02*
X040717Y013105D01*
X040657Y013105D02*
X040777Y013105D01*
X040767Y013155D02*
X040827Y013155D01*
X040887Y013215D01*
X040887Y013515D01*
X040827Y013515D02*
X040947Y013515D01*
X040962Y013465D02*
X040902Y013405D01*
X040962Y013465D02*
X041082Y013465D01*
X041142Y013405D01*
X041142Y013345D01*
X040902Y013105D01*
X041142Y013105D01*
X041075Y013155D02*
X041315Y013395D01*
X041315Y013455D01*
X041255Y013515D01*
X041135Y013515D01*
X041075Y013455D01*
X041271Y013405D02*
X041271Y013165D01*
X041331Y013105D01*
X041451Y013105D01*
X041511Y013165D01*
X041315Y013155D02*
X041075Y013155D01*
X040767Y013155D02*
X040707Y013215D01*
X041271Y013405D02*
X041331Y013465D01*
X041451Y013465D01*
X041511Y013405D01*
X041273Y012212D02*
X041273Y011972D01*
X041273Y012092D02*
X040912Y012092D01*
X041032Y011972D01*
X040912Y011844D02*
X041213Y011844D01*
X041273Y011783D01*
X041273Y011663D01*
X041213Y011603D01*
X040912Y011603D01*
X042214Y011661D02*
X042574Y011661D01*
X042574Y011901D01*
X042574Y012029D02*
X042574Y012269D01*
X042574Y012149D02*
X042214Y012149D01*
X042334Y012029D01*
X044057Y012305D02*
X044057Y012665D01*
X044297Y012665D01*
X044425Y012665D02*
X044605Y012665D01*
X044665Y012605D01*
X044665Y012485D01*
X044605Y012425D01*
X044425Y012425D01*
X044545Y012425D02*
X044665Y012305D01*
X044793Y012365D02*
X044853Y012305D01*
X044973Y012305D01*
X045034Y012365D01*
X045034Y012605D01*
X044973Y012665D01*
X044853Y012665D01*
X044793Y012605D01*
X044793Y012365D01*
X044425Y012305D02*
X044425Y012665D01*
X044177Y012485D02*
X044057Y012485D01*
X044357Y011565D02*
X044357Y011265D01*
X044417Y011205D01*
X044537Y011205D01*
X044597Y011265D01*
X044597Y011565D01*
X044725Y011505D02*
X044725Y011445D01*
X044785Y011385D01*
X044905Y011385D01*
X044965Y011325D01*
X044965Y011265D01*
X044905Y011205D01*
X044785Y011205D01*
X044725Y011265D01*
X044725Y011505D02*
X044785Y011565D01*
X044905Y011565D01*
X044965Y011505D01*
X045093Y011565D02*
X045093Y011205D01*
X045273Y011205D01*
X045334Y011265D01*
X045334Y011325D01*
X045273Y011385D01*
X045093Y011385D01*
X045093Y011565D02*
X045273Y011565D01*
X045334Y011505D01*
X045334Y011445D01*
X045273Y011385D01*
X045342Y012305D02*
X045162Y012305D01*
X045162Y012665D01*
X045342Y012665D01*
X045402Y012605D01*
X045402Y012545D01*
X045342Y012485D01*
X045162Y012485D01*
X045342Y012485D02*
X045402Y012425D01*
X045402Y012365D01*
X045342Y012305D01*
X046519Y015841D02*
X046749Y015841D01*
X046672Y015994D01*
X046672Y016071D01*
X046749Y016148D01*
X046902Y016148D01*
X046979Y016071D01*
X046979Y015918D01*
X046902Y015841D01*
X046519Y015841D02*
X046519Y016148D01*
X043115Y019955D02*
X042875Y019955D01*
X042995Y019955D02*
X042995Y020315D01*
X042875Y020195D01*
X042747Y020255D02*
X042687Y020315D01*
X042567Y020315D01*
X042507Y020255D01*
X042507Y020195D01*
X042567Y020135D01*
X042687Y020135D01*
X042747Y020075D01*
X042747Y020015D01*
X042687Y019955D01*
X042567Y019955D01*
X042507Y020015D01*
X040207Y021717D02*
X039967Y021717D01*
X040207Y021957D01*
X040207Y022017D01*
X040147Y022077D01*
X040027Y022077D01*
X039967Y022017D01*
X039839Y022017D02*
X039599Y021777D01*
X039599Y021717D01*
X039471Y021717D02*
X039350Y021837D01*
X039411Y021837D02*
X039230Y021837D01*
X039230Y021717D02*
X039230Y022077D01*
X039411Y022077D01*
X039471Y022017D01*
X039471Y021897D01*
X039411Y021837D01*
X039599Y022077D02*
X039839Y022077D01*
X039839Y022017D01*
X040167Y022608D02*
X040407Y022608D01*
X040467Y022668D01*
X040467Y022788D01*
X040407Y022848D01*
X040407Y022977D02*
X040287Y022977D01*
X040287Y023157D01*
X040347Y023217D01*
X040407Y023217D01*
X040467Y023157D01*
X040467Y023037D01*
X040407Y022977D01*
X040287Y022977D02*
X040167Y023097D01*
X040107Y023217D01*
X040227Y023345D02*
X040107Y023465D01*
X040467Y023465D01*
X040467Y023345D02*
X040467Y023585D01*
X040167Y022848D02*
X040107Y022788D01*
X040107Y022668D01*
X040167Y022608D01*
X041387Y024137D02*
X041627Y024137D01*
X041687Y024197D01*
X041687Y024317D01*
X041627Y024377D01*
X041627Y024505D02*
X041687Y024565D01*
X041687Y024685D01*
X041627Y024745D01*
X041507Y024745D01*
X041447Y024685D01*
X041447Y024625D01*
X041507Y024505D01*
X041326Y024505D01*
X041326Y024745D01*
X041387Y024873D02*
X041326Y024934D01*
X041326Y025054D01*
X041387Y025114D01*
X041447Y025114D01*
X041507Y025054D01*
X041567Y025114D01*
X041627Y025114D01*
X041687Y025054D01*
X041687Y024934D01*
X041627Y024873D01*
X041507Y024994D02*
X041507Y025054D01*
X041066Y024994D02*
X041066Y024874D01*
X041006Y024814D01*
X040886Y024814D02*
X040826Y024934D01*
X040826Y024994D01*
X040886Y025054D01*
X041006Y025054D01*
X041066Y024994D01*
X041006Y025183D02*
X041066Y025243D01*
X041066Y025363D01*
X041006Y025423D01*
X040946Y025423D01*
X040886Y025363D01*
X040886Y025183D01*
X041006Y025183D01*
X040886Y025183D02*
X040766Y025303D01*
X040706Y025423D01*
X040706Y025054D02*
X040706Y024814D01*
X040886Y024814D01*
X041006Y024686D02*
X041066Y024626D01*
X041066Y024506D01*
X041006Y024446D01*
X040766Y024446D01*
X040706Y024506D01*
X040706Y024626D01*
X040766Y024686D01*
X041326Y024317D02*
X041326Y024197D01*
X041387Y024137D01*
X041326Y024317D02*
X041387Y024377D01*
X039034Y024905D02*
X038793Y024905D01*
X039034Y025145D01*
X039034Y025205D01*
X038973Y025265D01*
X038853Y025265D01*
X038793Y025205D01*
X038545Y025265D02*
X038545Y024905D01*
X038425Y024905D02*
X038665Y024905D01*
X038425Y025145D02*
X038545Y025265D01*
X038297Y025265D02*
X038297Y024965D01*
X038237Y024905D01*
X038117Y024905D01*
X038057Y024965D01*
X038057Y025265D01*
X037237Y025224D02*
X037237Y025164D01*
X037177Y025104D01*
X037057Y025104D01*
X036997Y025164D01*
X036997Y025224D01*
X037057Y025284D01*
X037177Y025284D01*
X037237Y025224D01*
X037177Y025284D02*
X037237Y025344D01*
X037237Y025404D01*
X037177Y025464D01*
X037057Y025464D01*
X036997Y025404D01*
X036997Y025344D01*
X037057Y025284D01*
X036869Y025284D02*
X036629Y025284D01*
X036809Y025464D01*
X036809Y025104D01*
X036501Y025164D02*
X036441Y025104D01*
X036320Y025104D01*
X036260Y025164D01*
X036260Y025404D01*
X036320Y025464D01*
X036441Y025464D01*
X036501Y025404D01*
X036213Y025403D02*
X035753Y025403D01*
X035753Y025709D01*
X035753Y025863D02*
X035753Y026093D01*
X035830Y026170D01*
X035906Y026170D01*
X035983Y026093D01*
X035983Y025863D01*
X035983Y026093D02*
X036060Y026170D01*
X036136Y026170D01*
X036213Y026093D01*
X036213Y025863D01*
X035753Y025863D01*
X035983Y025556D02*
X035983Y025403D01*
X035862Y025411D02*
X035862Y025351D01*
X035802Y025291D01*
X035681Y025291D01*
X035621Y025351D01*
X035621Y025411D01*
X035681Y025471D01*
X035802Y025471D01*
X035862Y025411D01*
X035802Y025291D02*
X035862Y025231D01*
X035862Y025171D01*
X035802Y025111D01*
X035681Y025111D01*
X035621Y025171D01*
X035621Y025231D01*
X035681Y025291D01*
X035753Y025172D02*
X035830Y025249D01*
X035983Y025249D01*
X036060Y025172D01*
X036060Y024942D01*
X036213Y024942D02*
X035753Y024942D01*
X035753Y025172D01*
X035493Y025111D02*
X035253Y025111D01*
X035373Y025111D02*
X035373Y025471D01*
X035253Y025351D01*
X035125Y025411D02*
X035065Y025471D01*
X034885Y025471D01*
X034885Y025111D01*
X035065Y025111D01*
X035125Y025171D01*
X035125Y025411D01*
X036060Y025096D02*
X036213Y025249D01*
X037006Y024406D02*
X037367Y024406D01*
X037367Y024286D02*
X037367Y024526D01*
X037126Y024286D02*
X037006Y024406D01*
X037066Y024158D02*
X037006Y024098D01*
X037006Y023978D01*
X037066Y023918D01*
X037066Y023790D02*
X037006Y023730D01*
X037006Y023550D01*
X037367Y023550D01*
X037367Y023730D01*
X037307Y023790D01*
X037066Y023790D01*
X037367Y023918D02*
X037126Y024158D01*
X037066Y024158D01*
X037367Y024158D02*
X037367Y023918D01*
X038861Y025811D02*
X039101Y025811D01*
X039161Y025872D01*
X039161Y025992D01*
X039101Y026052D01*
X039161Y026180D02*
X039161Y026360D01*
X039101Y026420D01*
X039041Y026420D01*
X038981Y026360D01*
X038981Y026180D01*
X038861Y026052D02*
X038801Y025992D01*
X038801Y025872D01*
X038861Y025811D01*
X038801Y026180D02*
X038801Y026360D01*
X038861Y026420D01*
X038921Y026420D01*
X038981Y026360D01*
X038861Y026548D02*
X038981Y026668D01*
X039161Y026668D01*
X038981Y026668D02*
X038861Y026788D01*
X038801Y026788D01*
X038801Y026916D02*
X038801Y027097D01*
X038861Y027157D01*
X038981Y027157D01*
X039041Y027097D01*
X039041Y026916D01*
X039161Y026916D02*
X038801Y026916D01*
X038564Y026900D02*
X038564Y027053D01*
X038487Y027130D01*
X038564Y027283D02*
X038564Y027437D01*
X038564Y027360D02*
X038103Y027360D01*
X038103Y027283D02*
X038103Y027437D01*
X038103Y027590D02*
X038564Y027897D01*
X038103Y027897D01*
X038103Y027590D02*
X038564Y027590D01*
X038180Y027130D02*
X038103Y027053D01*
X038103Y026900D01*
X038180Y026823D01*
X038487Y026823D01*
X038564Y026900D01*
X038801Y026548D02*
X038861Y026548D01*
X038801Y026180D02*
X039161Y026180D01*
X036213Y026323D02*
X036213Y026630D01*
X036213Y026477D02*
X035753Y026477D01*
X035906Y026323D01*
X034674Y026284D02*
X034213Y026284D01*
X034213Y026514D01*
X034290Y026591D01*
X034444Y026591D01*
X034520Y026514D01*
X034520Y026284D01*
X034520Y026437D02*
X034674Y026591D01*
X034674Y026744D02*
X034213Y026744D01*
X034213Y027051D01*
X034087Y027100D02*
X034010Y027177D01*
X033704Y027177D01*
X033627Y027100D01*
X033627Y026946D01*
X033704Y026870D01*
X034010Y026870D01*
X034087Y026946D01*
X034087Y027100D01*
X034213Y027204D02*
X034213Y027435D01*
X034290Y027511D01*
X034367Y027511D01*
X034444Y027435D01*
X034444Y027204D01*
X034674Y027204D02*
X034213Y027204D01*
X034087Y027330D02*
X033627Y027330D01*
X033780Y027484D01*
X033627Y027637D01*
X034087Y027637D01*
X034087Y027790D02*
X033627Y027790D01*
X033627Y028021D01*
X033704Y028097D01*
X033857Y028097D01*
X033934Y028021D01*
X033934Y027790D01*
X034213Y027741D02*
X034290Y027665D01*
X034213Y027741D02*
X034213Y027895D01*
X034290Y027972D01*
X034367Y027972D01*
X034674Y027665D01*
X034674Y027972D01*
X034597Y027511D02*
X034674Y027435D01*
X034674Y027204D01*
X034597Y027511D02*
X034520Y027511D01*
X034444Y027435D01*
X034444Y026897D02*
X034444Y026744D01*
X034087Y026640D02*
X034010Y026716D01*
X034087Y026640D02*
X034087Y026486D01*
X034010Y026409D01*
X033704Y026409D01*
X033627Y026486D01*
X033627Y026640D01*
X033704Y026716D01*
X033385Y026781D02*
X033025Y026781D01*
X033145Y026901D01*
X033025Y027021D01*
X033385Y027021D01*
X033385Y027150D02*
X033025Y027150D01*
X033025Y027330D01*
X033085Y027390D01*
X033205Y027390D01*
X033265Y027330D01*
X033265Y027150D01*
X033164Y027202D02*
X033164Y027355D01*
X033087Y027432D01*
X032704Y027432D01*
X032780Y027586D02*
X032704Y027662D01*
X032704Y027816D01*
X032780Y027892D01*
X032934Y027816D02*
X032934Y027662D01*
X032857Y027586D01*
X032780Y027586D01*
X032627Y027739D02*
X033241Y027739D01*
X033164Y027816D02*
X033087Y027892D01*
X033011Y027892D01*
X032934Y027816D01*
X033164Y027816D02*
X033164Y027662D01*
X033087Y027586D01*
X033164Y027202D02*
X033087Y027125D01*
X032704Y027125D01*
X033085Y026653D02*
X033025Y026593D01*
X033025Y026473D01*
X033085Y026413D01*
X033325Y026413D01*
X033385Y026473D01*
X033385Y026593D01*
X033325Y026653D01*
X033085Y026653D01*
X033085Y026285D02*
X033025Y026225D01*
X033025Y026105D01*
X033085Y026045D01*
X033325Y026045D01*
X033385Y026105D01*
X033385Y026225D01*
X033325Y026285D01*
X033627Y026179D02*
X033704Y026256D01*
X033857Y026256D01*
X033934Y026179D01*
X033934Y025949D01*
X034087Y025949D02*
X033627Y025949D01*
X033627Y026179D01*
X033934Y026102D02*
X034087Y026256D01*
X033385Y025856D02*
X033325Y025917D01*
X033385Y025856D02*
X033385Y025736D01*
X033325Y025676D01*
X033085Y025676D01*
X033025Y025736D01*
X033025Y025856D01*
X033085Y025917D01*
X032215Y024666D02*
X032275Y024605D01*
X032035Y024365D01*
X032095Y024305D01*
X032215Y024305D01*
X032275Y024365D01*
X032275Y024605D01*
X032215Y024666D02*
X032095Y024666D01*
X032035Y024605D01*
X032035Y024365D01*
X031907Y024485D02*
X031666Y024485D01*
X031846Y024666D01*
X031846Y024305D01*
X031538Y024365D02*
X031478Y024305D01*
X031358Y024305D01*
X031298Y024365D01*
X031298Y024605D01*
X031358Y024666D01*
X031478Y024666D01*
X031538Y024605D01*
X029825Y024605D02*
X029765Y024666D01*
X029645Y024666D01*
X029585Y024605D01*
X029585Y024545D01*
X029645Y024485D01*
X029825Y024485D01*
X029825Y024365D02*
X029825Y024605D01*
X029825Y024365D02*
X029765Y024305D01*
X029645Y024305D01*
X029585Y024365D01*
X029457Y024365D02*
X029396Y024305D01*
X029276Y024305D01*
X029216Y024365D01*
X029088Y024365D02*
X029028Y024305D01*
X028908Y024305D01*
X028848Y024365D01*
X028848Y024605D01*
X028908Y024666D01*
X029028Y024666D01*
X029088Y024605D01*
X029216Y024605D02*
X029276Y024666D01*
X029396Y024666D01*
X029457Y024605D01*
X029457Y024545D01*
X029396Y024485D01*
X029457Y024425D01*
X029457Y024365D01*
X029396Y024485D02*
X029336Y024485D01*
X027809Y021563D02*
X027689Y021563D01*
X027629Y021503D01*
X027500Y021563D02*
X027500Y021263D01*
X027440Y021203D01*
X027320Y021203D01*
X027260Y021263D01*
X027260Y021563D01*
X027629Y021203D02*
X027869Y021443D01*
X027869Y021503D01*
X027809Y021563D01*
X027869Y021203D02*
X027629Y021203D01*
X033120Y021665D02*
X033180Y021605D01*
X033300Y021605D01*
X033360Y021665D01*
X033360Y021905D01*
X033300Y021965D01*
X033180Y021965D01*
X033120Y021905D01*
X033120Y021665D01*
X033240Y021725D02*
X033360Y021605D01*
X033488Y021785D02*
X033729Y021785D01*
X033669Y021965D02*
X033488Y021785D01*
X033669Y021605D02*
X033669Y021965D01*
X034120Y020715D02*
X034120Y020355D01*
X034360Y020355D01*
X034488Y020355D02*
X034488Y020415D01*
X034729Y020655D01*
X034729Y020715D01*
X034488Y020715D01*
X037469Y020825D02*
X037469Y020585D01*
X037530Y020525D01*
X037650Y020525D01*
X037710Y020585D01*
X037838Y020585D02*
X037898Y020525D01*
X038018Y020525D01*
X038078Y020585D01*
X038078Y020645D01*
X038018Y020705D01*
X037838Y020705D01*
X037838Y020585D01*
X037838Y020705D02*
X037958Y020825D01*
X038078Y020885D01*
X038206Y020825D02*
X038266Y020885D01*
X038386Y020885D01*
X038446Y020825D01*
X038446Y020765D01*
X038206Y020525D01*
X038446Y020525D01*
X038305Y020165D02*
X038125Y019985D01*
X038365Y019985D01*
X038493Y020045D02*
X038613Y020165D01*
X038613Y019805D01*
X038493Y019805D02*
X038734Y019805D01*
X038305Y019805D02*
X038305Y020165D01*
X037997Y020105D02*
X037937Y020165D01*
X037817Y020165D01*
X037757Y020105D01*
X037757Y019865D01*
X037817Y019805D01*
X037937Y019805D01*
X037997Y019865D01*
X037710Y020825D02*
X037650Y020885D01*
X037530Y020885D01*
X037469Y020825D01*
X044707Y026065D02*
X044767Y026005D01*
X044887Y026005D01*
X044947Y026065D01*
X044947Y026305D01*
X044887Y026365D01*
X044767Y026365D01*
X044707Y026305D01*
X044707Y026065D01*
X045075Y026005D02*
X045075Y026365D01*
X045315Y026005D01*
X045315Y026365D01*
X033164Y028046D02*
X033164Y028353D01*
X033164Y028199D02*
X032704Y028199D01*
X032857Y028046D01*
X032934Y028506D02*
X032934Y028736D01*
X033011Y028813D01*
X033087Y028813D01*
X033164Y028736D01*
X033164Y028583D01*
X033087Y028506D01*
X032934Y028506D01*
X032780Y028660D01*
X032704Y028813D01*
X029665Y030305D02*
X029425Y030305D01*
X029545Y030305D02*
X029545Y030665D01*
X029425Y030545D01*
X029297Y030665D02*
X029177Y030665D01*
X029237Y030665D02*
X029237Y030365D01*
X029177Y030305D01*
X029117Y030305D01*
X029057Y030365D01*
X030190Y003665D02*
X030310Y003665D01*
X030250Y003665D02*
X030250Y003365D01*
X030190Y003305D01*
X030130Y003305D01*
X030070Y003365D01*
X030438Y003365D02*
X030498Y003305D01*
X030619Y003305D01*
X030679Y003365D01*
X030679Y003605D01*
X030619Y003665D01*
X030498Y003665D01*
X030438Y003605D01*
X030438Y003545D01*
X030498Y003485D01*
X030679Y003485D01*
X003085Y001165D02*
X003085Y001105D01*
X003025Y001105D01*
X003025Y001165D01*
X003085Y001165D01*
D12*
X033570Y014611D03*
D13*
X033321Y014781D02*
X033321Y020188D01*
X032821Y020188D01*
X032821Y014781D01*
X027953Y014781D01*
X027953Y020188D01*
X032821Y020188D01*
X034545Y021505D02*
X034545Y023276D01*
X036317Y023276D01*
X036828Y022764D01*
X036828Y020993D01*
X035057Y020993D01*
X034545Y021505D01*
X035581Y020294D02*
X035581Y017775D01*
X036959Y017775D01*
X036959Y020294D01*
X035581Y020294D01*
X037037Y020985D02*
X037037Y022085D01*
X039137Y022085D01*
X039137Y020985D01*
X037037Y020985D01*
X038905Y022203D02*
X039968Y022203D01*
X039968Y022766D01*
X038905Y022766D01*
X038905Y022203D01*
X038737Y022335D02*
X036987Y022335D01*
X036987Y023435D01*
X038737Y023435D01*
X038737Y022335D01*
X038843Y022903D02*
X038843Y023466D01*
X040030Y023466D01*
X040030Y022903D01*
X038843Y022903D01*
X038287Y022985D02*
X038187Y022885D01*
X038287Y022785D01*
X037936Y023633D02*
X037936Y024736D01*
X039038Y024736D01*
X039038Y023633D01*
X037936Y023633D01*
X036730Y023703D02*
X036730Y024266D01*
X035543Y024266D01*
X035543Y023703D01*
X036730Y023703D01*
X035780Y024459D02*
X035780Y025010D01*
X034993Y025010D01*
X034993Y024459D01*
X035780Y024459D01*
X035534Y024735D02*
X035347Y024892D01*
X035534Y024735D02*
X035347Y024577D01*
X034036Y025609D02*
X033474Y025609D01*
X033474Y026796D01*
X034036Y026796D01*
X034036Y025609D01*
X032730Y024216D02*
X032730Y023653D01*
X031543Y023653D01*
X031543Y024216D01*
X032730Y024216D01*
X032787Y023535D02*
X028487Y023535D01*
X028470Y023533D01*
X028453Y023529D01*
X028437Y023522D01*
X028423Y023512D01*
X028410Y023499D01*
X028400Y023485D01*
X028393Y023469D01*
X028389Y023452D01*
X028387Y023435D01*
X028387Y023035D01*
X028643Y023653D02*
X028643Y024216D01*
X029830Y024216D01*
X029830Y023653D01*
X028643Y023653D01*
X030387Y022835D02*
X030387Y022585D01*
X030387Y022335D01*
X030537Y022335D02*
X030737Y022335D01*
X030737Y022835D01*
X030537Y022835D01*
X030537Y022335D01*
X030887Y022335D02*
X030887Y022585D01*
X030887Y022835D01*
X032787Y023535D02*
X032804Y023533D01*
X032821Y023529D01*
X032837Y023522D01*
X032851Y023512D01*
X032864Y023499D01*
X032874Y023485D01*
X032881Y023469D01*
X032885Y023452D01*
X032887Y023435D01*
X032887Y023035D01*
X032887Y022135D02*
X032887Y021735D01*
X032885Y021718D01*
X032881Y021701D01*
X032874Y021685D01*
X032864Y021671D01*
X032851Y021658D01*
X032837Y021648D01*
X032821Y021641D01*
X032804Y021637D01*
X032787Y021635D01*
X028487Y021635D01*
X028470Y021637D01*
X028453Y021641D01*
X028437Y021648D01*
X028423Y021658D01*
X028410Y021671D01*
X028400Y021685D01*
X028393Y021701D01*
X028389Y021718D01*
X028387Y021735D01*
X028387Y022135D01*
X025278Y020126D02*
X025278Y014839D01*
X019995Y014839D01*
X019995Y020126D01*
X025278Y020126D01*
X024837Y020085D02*
X024837Y014885D01*
X025355Y014316D02*
X025355Y013253D01*
X025918Y013253D01*
X025918Y014316D01*
X025355Y014316D01*
X024877Y011664D02*
X031867Y011664D01*
X031867Y008505D01*
X024877Y008505D01*
X024847Y008505D02*
X024647Y008505D01*
X024647Y011664D01*
X024847Y011664D01*
X024687Y011285D02*
X031837Y011285D01*
X032337Y011985D02*
X035337Y011985D01*
X035339Y012283D02*
X035339Y010486D01*
X032335Y010486D01*
X032335Y012283D01*
X035339Y012283D01*
X035455Y012628D02*
X036018Y012628D01*
X036018Y011441D01*
X035455Y011441D01*
X035455Y012628D01*
X035249Y013010D02*
X036824Y013010D01*
X036824Y016159D01*
X035249Y016159D01*
X035249Y013010D01*
X036787Y012555D02*
X036787Y010735D01*
X040787Y010735D01*
X040795Y010511D02*
X040795Y012558D01*
X036789Y012558D01*
X036018Y011078D02*
X035455Y011078D01*
X035455Y009891D01*
X036018Y009891D01*
X036018Y011078D01*
X036787Y010735D02*
X036787Y010515D01*
X036789Y010511D02*
X040795Y010511D01*
X041752Y010553D02*
X041752Y009766D01*
X042186Y009333D01*
X042186Y007758D01*
X041713Y007285D01*
X041713Y006616D01*
X042225Y006616D01*
X042225Y007089D01*
X043800Y007089D01*
X043800Y006616D01*
X044311Y006616D01*
X044311Y007089D01*
X045256Y007089D01*
X045256Y010081D01*
X044272Y010081D01*
X044272Y010514D01*
X043800Y010514D01*
X043800Y010120D01*
X042225Y010120D01*
X042225Y010553D01*
X041752Y010553D01*
X039518Y009066D02*
X037156Y009066D01*
X037156Y006703D01*
X039518Y006703D01*
X039518Y009066D01*
X040255Y008928D02*
X040818Y008928D01*
X040818Y007741D01*
X040255Y007741D01*
X040255Y008928D01*
X037648Y007885D02*
X037650Y007937D01*
X037656Y007989D01*
X037666Y008040D01*
X037679Y008090D01*
X037697Y008140D01*
X037718Y008187D01*
X037742Y008233D01*
X037771Y008277D01*
X037802Y008319D01*
X037836Y008358D01*
X037873Y008395D01*
X037913Y008428D01*
X037956Y008459D01*
X038000Y008486D01*
X038046Y008510D01*
X038095Y008530D01*
X038144Y008546D01*
X038195Y008559D01*
X038246Y008568D01*
X038298Y008573D01*
X038350Y008574D01*
X038402Y008571D01*
X038454Y008564D01*
X038505Y008553D01*
X038555Y008539D01*
X038604Y008520D01*
X038651Y008498D01*
X038696Y008473D01*
X038740Y008444D01*
X038781Y008412D01*
X038820Y008377D01*
X038855Y008339D01*
X038888Y008298D01*
X038918Y008256D01*
X038944Y008211D01*
X038967Y008164D01*
X038986Y008115D01*
X039002Y008065D01*
X039014Y008015D01*
X039022Y007963D01*
X039026Y007911D01*
X039026Y007859D01*
X039022Y007807D01*
X039014Y007755D01*
X039002Y007705D01*
X038986Y007655D01*
X038967Y007606D01*
X038944Y007559D01*
X038918Y007514D01*
X038888Y007472D01*
X038855Y007431D01*
X038820Y007393D01*
X038781Y007358D01*
X038740Y007326D01*
X038696Y007297D01*
X038651Y007272D01*
X038604Y007250D01*
X038555Y007231D01*
X038505Y007217D01*
X038454Y007206D01*
X038402Y007199D01*
X038350Y007196D01*
X038298Y007197D01*
X038246Y007202D01*
X038195Y007211D01*
X038144Y007224D01*
X038095Y007240D01*
X038046Y007260D01*
X038000Y007284D01*
X037956Y007311D01*
X037913Y007342D01*
X037873Y007375D01*
X037836Y007412D01*
X037802Y007451D01*
X037771Y007493D01*
X037742Y007537D01*
X037718Y007583D01*
X037697Y007630D01*
X037679Y007680D01*
X037666Y007730D01*
X037656Y007781D01*
X037650Y007833D01*
X037648Y007885D01*
X035018Y009066D02*
X035018Y006703D01*
X032656Y006703D01*
X032656Y009066D01*
X035018Y009066D01*
X033148Y007885D02*
X033150Y007937D01*
X033156Y007989D01*
X033166Y008040D01*
X033179Y008090D01*
X033197Y008140D01*
X033218Y008187D01*
X033242Y008233D01*
X033271Y008277D01*
X033302Y008319D01*
X033336Y008358D01*
X033373Y008395D01*
X033413Y008428D01*
X033456Y008459D01*
X033500Y008486D01*
X033546Y008510D01*
X033595Y008530D01*
X033644Y008546D01*
X033695Y008559D01*
X033746Y008568D01*
X033798Y008573D01*
X033850Y008574D01*
X033902Y008571D01*
X033954Y008564D01*
X034005Y008553D01*
X034055Y008539D01*
X034104Y008520D01*
X034151Y008498D01*
X034196Y008473D01*
X034240Y008444D01*
X034281Y008412D01*
X034320Y008377D01*
X034355Y008339D01*
X034388Y008298D01*
X034418Y008256D01*
X034444Y008211D01*
X034467Y008164D01*
X034486Y008115D01*
X034502Y008065D01*
X034514Y008015D01*
X034522Y007963D01*
X034526Y007911D01*
X034526Y007859D01*
X034522Y007807D01*
X034514Y007755D01*
X034502Y007705D01*
X034486Y007655D01*
X034467Y007606D01*
X034444Y007559D01*
X034418Y007514D01*
X034388Y007472D01*
X034355Y007431D01*
X034320Y007393D01*
X034281Y007358D01*
X034240Y007326D01*
X034196Y007297D01*
X034151Y007272D01*
X034104Y007250D01*
X034055Y007231D01*
X034005Y007217D01*
X033954Y007206D01*
X033902Y007199D01*
X033850Y007196D01*
X033798Y007197D01*
X033746Y007202D01*
X033695Y007211D01*
X033644Y007224D01*
X033595Y007240D01*
X033546Y007260D01*
X033500Y007284D01*
X033456Y007311D01*
X033413Y007342D01*
X033373Y007375D01*
X033336Y007412D01*
X033302Y007451D01*
X033271Y007493D01*
X033242Y007537D01*
X033218Y007583D01*
X033197Y007630D01*
X033179Y007680D01*
X033166Y007730D01*
X033156Y007781D01*
X033150Y007833D01*
X033148Y007885D01*
X031630Y006966D02*
X031630Y006403D01*
X030443Y006403D01*
X030443Y006966D01*
X031630Y006966D01*
X030668Y003178D02*
X030105Y003178D01*
X030105Y001991D01*
X030668Y001991D01*
X030668Y003178D01*
X022530Y003803D02*
X022530Y004366D01*
X021343Y004366D01*
X021343Y003803D01*
X022530Y003803D01*
X020780Y008853D02*
X019593Y008853D01*
X019593Y009416D01*
X020780Y009416D01*
X020780Y008853D01*
X020855Y009091D02*
X020855Y010278D01*
X021418Y010278D01*
X021418Y009091D01*
X020855Y009091D01*
X017618Y009791D02*
X017055Y009791D01*
X017055Y010978D01*
X017618Y010978D01*
X017618Y009791D01*
X016918Y009953D02*
X016918Y011016D01*
X016355Y011016D01*
X016355Y009953D01*
X016918Y009953D01*
X016137Y009935D02*
X016137Y012235D01*
X006137Y012235D01*
X006137Y011485D01*
X006176Y011483D01*
X006215Y011477D01*
X006253Y011468D01*
X006290Y011455D01*
X006326Y011438D01*
X006359Y011418D01*
X006391Y011394D01*
X006420Y011368D01*
X006446Y011339D01*
X006470Y011307D01*
X006490Y011274D01*
X006507Y011238D01*
X006520Y011201D01*
X006529Y011163D01*
X006535Y011124D01*
X006537Y011085D01*
X006535Y011046D01*
X006529Y011007D01*
X006520Y010969D01*
X006507Y010932D01*
X006490Y010896D01*
X006470Y010863D01*
X006446Y010831D01*
X006420Y010802D01*
X006391Y010776D01*
X006359Y010752D01*
X006326Y010732D01*
X006290Y010715D01*
X006253Y010702D01*
X006215Y010693D01*
X006176Y010687D01*
X006137Y010685D01*
X006137Y009935D01*
X016137Y009935D01*
X016355Y011153D02*
X016355Y012216D01*
X016918Y012216D01*
X016918Y011153D01*
X016355Y011153D01*
X017055Y011191D02*
X017618Y011191D01*
X017618Y012378D01*
X017055Y012378D01*
X017055Y011191D01*
X017168Y012803D02*
X016105Y012803D01*
X016105Y013366D01*
X017168Y013366D01*
X017168Y012803D01*
X017055Y015091D02*
X017055Y016278D01*
X017618Y016278D01*
X017618Y015091D01*
X017055Y015091D01*
X016918Y015253D02*
X016918Y016316D01*
X016355Y016316D01*
X016355Y015253D01*
X016918Y015253D01*
X016137Y015185D02*
X016137Y017485D01*
X006137Y017485D01*
X006137Y016735D01*
X006176Y016733D01*
X006215Y016727D01*
X006253Y016718D01*
X006290Y016705D01*
X006326Y016688D01*
X006359Y016668D01*
X006391Y016644D01*
X006420Y016618D01*
X006446Y016589D01*
X006470Y016557D01*
X006490Y016524D01*
X006507Y016488D01*
X006520Y016451D01*
X006529Y016413D01*
X006535Y016374D01*
X006537Y016335D01*
X006535Y016296D01*
X006529Y016257D01*
X006520Y016219D01*
X006507Y016182D01*
X006490Y016146D01*
X006470Y016113D01*
X006446Y016081D01*
X006420Y016052D01*
X006391Y016026D01*
X006359Y016002D01*
X006326Y015982D01*
X006290Y015965D01*
X006253Y015952D01*
X006215Y015943D01*
X006176Y015937D01*
X006137Y015935D01*
X006137Y015185D01*
X016137Y015185D01*
X016355Y016453D02*
X016355Y017516D01*
X016918Y017516D01*
X016918Y016453D01*
X016355Y016453D01*
X017055Y016491D02*
X017618Y016491D01*
X017618Y017678D01*
X017055Y017678D01*
X017055Y016491D01*
X017168Y018103D02*
X016105Y018103D01*
X016105Y018666D01*
X017168Y018666D01*
X017168Y018103D01*
X017055Y020291D02*
X017055Y021478D01*
X017618Y021478D01*
X017618Y020291D01*
X017055Y020291D01*
X016918Y020453D02*
X016918Y021516D01*
X016355Y021516D01*
X016355Y020453D01*
X016918Y020453D01*
X016137Y020435D02*
X016137Y022735D01*
X006137Y022735D01*
X006137Y021985D01*
X006176Y021983D01*
X006215Y021977D01*
X006253Y021968D01*
X006290Y021955D01*
X006326Y021938D01*
X006359Y021918D01*
X006391Y021894D01*
X006420Y021868D01*
X006446Y021839D01*
X006470Y021807D01*
X006490Y021774D01*
X006507Y021738D01*
X006520Y021701D01*
X006529Y021663D01*
X006535Y021624D01*
X006537Y021585D01*
X006535Y021546D01*
X006529Y021507D01*
X006520Y021469D01*
X006507Y021432D01*
X006490Y021396D01*
X006470Y021363D01*
X006446Y021331D01*
X006420Y021302D01*
X006391Y021276D01*
X006359Y021252D01*
X006326Y021232D01*
X006290Y021215D01*
X006253Y021202D01*
X006215Y021193D01*
X006176Y021187D01*
X006137Y021185D01*
X006137Y020435D01*
X016137Y020435D01*
X016355Y021653D02*
X016355Y022716D01*
X016918Y022716D01*
X016918Y021653D01*
X016355Y021653D01*
X017055Y021691D02*
X017618Y021691D01*
X017618Y022878D01*
X017055Y022878D01*
X017055Y021691D01*
X018255Y021316D02*
X018818Y021316D01*
X018818Y020253D01*
X018255Y020253D01*
X018255Y021316D01*
X018955Y021316D02*
X018955Y020253D01*
X019518Y020253D01*
X019518Y021316D01*
X018955Y021316D01*
X018818Y023053D02*
X018255Y023053D01*
X018255Y024116D01*
X018818Y024116D01*
X018818Y023053D01*
X018168Y023053D02*
X018168Y024116D01*
X017605Y024116D01*
X017605Y023053D01*
X018168Y023053D01*
X017168Y023303D02*
X017168Y023866D01*
X016105Y023866D01*
X016105Y023303D01*
X017168Y023303D01*
X015955Y024622D02*
X012018Y024622D01*
X011624Y025016D01*
X011624Y028953D01*
X012018Y029347D01*
X015955Y029347D01*
X016349Y028953D01*
X016349Y025016D01*
X015955Y024622D01*
X015230Y024366D02*
X015230Y023803D01*
X014043Y023803D01*
X014043Y024366D01*
X015230Y024366D01*
X011930Y024410D02*
X011930Y023859D01*
X011143Y023859D01*
X011143Y024410D01*
X011930Y024410D01*
X011576Y024292D02*
X011390Y024135D01*
X011576Y023977D01*
X010630Y023803D02*
X010630Y024366D01*
X009443Y024366D01*
X009443Y023803D01*
X010630Y023803D01*
X008318Y023791D02*
X007755Y023791D01*
X007755Y024978D01*
X008318Y024978D01*
X008318Y023791D01*
X007612Y024041D02*
X007061Y024041D01*
X007061Y024828D01*
X007612Y024828D01*
X007612Y024041D01*
X007494Y024395D02*
X007337Y024581D01*
X007179Y024395D01*
X006918Y023903D02*
X006918Y024966D01*
X006355Y024966D01*
X006355Y023903D01*
X006918Y023903D01*
X004887Y023185D02*
X004387Y023185D01*
X004387Y022185D01*
X004887Y022185D01*
X004887Y023185D01*
X004737Y022685D02*
X004637Y022585D01*
X004537Y022685D01*
X004387Y022085D02*
X004387Y021085D01*
X004887Y021085D01*
X004887Y022085D01*
X004387Y022085D01*
X004537Y021585D02*
X004637Y021485D01*
X004737Y021585D01*
X004168Y020866D02*
X004168Y020303D01*
X003105Y020303D01*
X003105Y020866D01*
X004168Y020866D01*
X004168Y020116D02*
X003105Y020116D01*
X003105Y019553D01*
X004168Y019553D01*
X004168Y020116D01*
X004387Y019335D02*
X004887Y019335D01*
X004887Y018335D01*
X004387Y018335D01*
X004387Y019335D01*
X004637Y018935D02*
X004737Y018835D01*
X004637Y018935D02*
X004537Y018835D01*
X004387Y018235D02*
X004887Y018235D01*
X004887Y017235D01*
X004387Y017235D01*
X004387Y018235D01*
X004637Y017835D02*
X004737Y017735D01*
X004637Y017835D02*
X004537Y017735D01*
X006605Y018503D02*
X007668Y018503D01*
X007668Y019066D01*
X006605Y019066D01*
X006605Y018503D01*
X009443Y018503D02*
X009443Y019066D01*
X010630Y019066D01*
X010630Y018503D01*
X009443Y018503D01*
X013043Y018503D02*
X013043Y019066D01*
X014230Y019066D01*
X014230Y018503D01*
X013043Y018503D01*
X013043Y013866D02*
X014230Y013866D01*
X014230Y013303D01*
X013043Y013303D01*
X013043Y013866D01*
X010630Y013866D02*
X010630Y013303D01*
X009443Y013303D01*
X009443Y013866D01*
X010630Y013866D01*
X007668Y013866D02*
X007668Y013303D01*
X006605Y013303D01*
X006605Y013866D01*
X007668Y013866D01*
X004887Y014335D02*
X004887Y013335D01*
X004387Y013335D01*
X004387Y014335D01*
X004887Y014335D01*
X004887Y014435D02*
X004387Y014435D01*
X004387Y015435D01*
X004887Y015435D01*
X004887Y014435D01*
X004637Y014835D02*
X004537Y014935D01*
X004637Y014835D02*
X004737Y014935D01*
X004637Y013935D02*
X004737Y013835D01*
X004637Y013935D02*
X004537Y013835D01*
X004168Y013116D02*
X004168Y012553D01*
X003105Y012553D01*
X003105Y013116D01*
X004168Y013116D01*
X004168Y012366D02*
X003105Y012366D01*
X003105Y011803D01*
X004168Y011803D01*
X004168Y012366D01*
X004387Y011585D02*
X004387Y010585D01*
X004887Y010585D01*
X004887Y011585D01*
X004387Y011585D01*
X004537Y011085D02*
X004637Y010985D01*
X004737Y011085D01*
X004887Y010485D02*
X004387Y010485D01*
X004387Y009485D01*
X004887Y009485D01*
X004887Y010485D01*
X004637Y010085D02*
X004737Y009985D01*
X004637Y010085D02*
X004537Y009985D01*
X004387Y007685D02*
X004387Y006685D01*
X004887Y006685D01*
X004887Y007685D01*
X004387Y007685D01*
X004537Y007185D02*
X004637Y007085D01*
X004737Y007185D01*
X004887Y006585D02*
X004387Y006585D01*
X004387Y005585D01*
X004887Y005585D01*
X004887Y006585D01*
X004737Y006085D02*
X004637Y005985D01*
X004537Y006085D01*
X004168Y005366D02*
X004168Y004803D01*
X003105Y004803D01*
X003105Y005366D01*
X004168Y005366D01*
X013105Y003178D02*
X013105Y001991D01*
X013668Y001991D01*
X013668Y003178D01*
X013105Y003178D01*
X013638Y005945D02*
X015435Y005945D01*
X015435Y007925D01*
X013638Y007925D01*
X013638Y005945D01*
X013887Y005935D02*
X013887Y007885D01*
X029643Y013103D02*
X029643Y013666D01*
X030830Y013666D01*
X030830Y013103D01*
X029643Y013103D01*
X032143Y013303D02*
X032143Y013866D01*
X033330Y013866D01*
X033330Y013303D01*
X032143Y013303D01*
X032821Y014781D02*
X033321Y014781D01*
X037255Y014903D02*
X037255Y015966D01*
X037818Y015966D01*
X037818Y014903D01*
X037255Y014903D01*
X038127Y014875D02*
X038127Y016195D01*
X039747Y016195D01*
X039747Y014875D01*
X038127Y014875D01*
X039793Y014853D02*
X039793Y015416D01*
X040980Y015416D01*
X040980Y014853D01*
X039793Y014853D01*
X042226Y016085D02*
X042228Y016121D01*
X042234Y016157D01*
X042244Y016192D01*
X042257Y016226D01*
X042274Y016258D01*
X042295Y016288D01*
X042318Y016316D01*
X042344Y016341D01*
X042373Y016363D01*
X042405Y016382D01*
X042438Y016397D01*
X042472Y016409D01*
X042508Y016417D01*
X042544Y016421D01*
X042580Y016421D01*
X042616Y016417D01*
X042652Y016409D01*
X042686Y016397D01*
X042719Y016382D01*
X042751Y016363D01*
X042780Y016341D01*
X042806Y016316D01*
X042829Y016288D01*
X042850Y016258D01*
X042867Y016226D01*
X042880Y016192D01*
X042890Y016157D01*
X042896Y016121D01*
X042898Y016085D01*
X042896Y016049D01*
X042890Y016013D01*
X042880Y015978D01*
X042867Y015944D01*
X042850Y015912D01*
X042829Y015882D01*
X042806Y015854D01*
X042780Y015829D01*
X042751Y015807D01*
X042719Y015788D01*
X042686Y015773D01*
X042652Y015761D01*
X042616Y015753D01*
X042580Y015749D01*
X042544Y015749D01*
X042508Y015753D01*
X042472Y015761D01*
X042438Y015773D01*
X042405Y015788D01*
X042373Y015807D01*
X042344Y015829D01*
X042318Y015854D01*
X042295Y015882D01*
X042274Y015912D01*
X042257Y015944D01*
X042244Y015978D01*
X042234Y016013D01*
X042228Y016049D01*
X042226Y016085D01*
X043515Y016085D02*
X043517Y016134D01*
X043523Y016184D01*
X043533Y016232D01*
X043546Y016280D01*
X043564Y016326D01*
X043584Y016371D01*
X043609Y016414D01*
X043637Y016455D01*
X043668Y016493D01*
X043702Y016529D01*
X043738Y016562D01*
X043777Y016593D01*
X043819Y016619D01*
X043862Y016643D01*
X043908Y016663D01*
X043954Y016680D01*
X044002Y016692D01*
X044051Y016701D01*
X044100Y016706D01*
X044149Y016707D01*
X044199Y016704D01*
X044248Y016697D01*
X044296Y016686D01*
X044343Y016672D01*
X044389Y016654D01*
X044434Y016632D01*
X044476Y016606D01*
X044516Y016578D01*
X044554Y016546D01*
X044590Y016512D01*
X044622Y016474D01*
X044652Y016434D01*
X044678Y016392D01*
X044700Y016348D01*
X044720Y016303D01*
X044735Y016256D01*
X044747Y016208D01*
X044755Y016159D01*
X044759Y016110D01*
X044759Y016060D01*
X044755Y016011D01*
X044747Y015962D01*
X044735Y015914D01*
X044720Y015867D01*
X044700Y015822D01*
X044678Y015778D01*
X044652Y015736D01*
X044622Y015696D01*
X044590Y015658D01*
X044554Y015624D01*
X044516Y015592D01*
X044476Y015564D01*
X044434Y015538D01*
X044389Y015516D01*
X044343Y015498D01*
X044296Y015484D01*
X044248Y015473D01*
X044199Y015466D01*
X044149Y015463D01*
X044100Y015464D01*
X044051Y015469D01*
X044002Y015478D01*
X043954Y015490D01*
X043908Y015507D01*
X043862Y015527D01*
X043819Y015551D01*
X043777Y015577D01*
X043738Y015608D01*
X043702Y015641D01*
X043668Y015677D01*
X043637Y015715D01*
X043609Y015756D01*
X043584Y015799D01*
X043564Y015844D01*
X043546Y015890D01*
X043533Y015938D01*
X043523Y015986D01*
X043517Y016036D01*
X043515Y016085D01*
X040963Y016085D02*
X040967Y016241D01*
X040978Y016396D01*
X040997Y016551D01*
X041024Y016704D01*
X041058Y016856D01*
X041100Y017006D01*
X041149Y017154D01*
X041205Y017300D01*
X041268Y017442D01*
X041338Y017581D01*
X041415Y017717D01*
X041498Y017848D01*
X041588Y017976D01*
X041683Y018099D01*
X041785Y018217D01*
X041893Y018329D01*
X042005Y018437D01*
X042123Y018539D01*
X042246Y018634D01*
X042374Y018724D01*
X042505Y018807D01*
X042641Y018884D01*
X042780Y018954D01*
X042922Y019017D01*
X043068Y019073D01*
X043216Y019122D01*
X043366Y019164D01*
X043518Y019198D01*
X043671Y019225D01*
X043826Y019244D01*
X043981Y019255D01*
X044137Y019259D01*
X044293Y019255D01*
X044448Y019244D01*
X044603Y019225D01*
X044756Y019198D01*
X044908Y019164D01*
X045058Y019122D01*
X045206Y019073D01*
X045352Y019017D01*
X045494Y018954D01*
X045633Y018884D01*
X045769Y018807D01*
X045900Y018724D01*
X046028Y018634D01*
X046151Y018539D01*
X046269Y018437D01*
X046381Y018329D01*
X046489Y018217D01*
X046591Y018099D01*
X046686Y017976D01*
X046776Y017848D01*
X046859Y017717D01*
X046936Y017581D01*
X047006Y017442D01*
X047069Y017300D01*
X047125Y017154D01*
X047174Y017006D01*
X047216Y016856D01*
X047250Y016704D01*
X047277Y016551D01*
X047296Y016396D01*
X047307Y016241D01*
X047311Y016085D01*
X047307Y015929D01*
X047296Y015774D01*
X047277Y015619D01*
X047250Y015466D01*
X047216Y015314D01*
X047174Y015164D01*
X047125Y015016D01*
X047069Y014870D01*
X047006Y014728D01*
X046936Y014589D01*
X046859Y014453D01*
X046776Y014322D01*
X046686Y014194D01*
X046591Y014071D01*
X046489Y013953D01*
X046381Y013841D01*
X046269Y013733D01*
X046151Y013631D01*
X046028Y013536D01*
X045900Y013446D01*
X045769Y013363D01*
X045633Y013286D01*
X045494Y013216D01*
X045352Y013153D01*
X045206Y013097D01*
X045058Y013048D01*
X044908Y013006D01*
X044756Y012972D01*
X044603Y012945D01*
X044448Y012926D01*
X044293Y012915D01*
X044137Y012911D01*
X043981Y012915D01*
X043826Y012926D01*
X043671Y012945D01*
X043518Y012972D01*
X043366Y013006D01*
X043216Y013048D01*
X043068Y013097D01*
X042922Y013153D01*
X042780Y013216D01*
X042641Y013286D01*
X042505Y013363D01*
X042374Y013446D01*
X042246Y013536D01*
X042123Y013631D01*
X042005Y013733D01*
X041893Y013841D01*
X041785Y013953D01*
X041683Y014071D01*
X041588Y014194D01*
X041498Y014322D01*
X041415Y014453D01*
X041338Y014589D01*
X041268Y014728D01*
X041205Y014870D01*
X041149Y015016D01*
X041100Y015164D01*
X041058Y015314D01*
X041024Y015466D01*
X040997Y015619D01*
X040978Y015774D01*
X040967Y015929D01*
X040963Y016085D01*
X043257Y016085D02*
X043259Y016144D01*
X043265Y016202D01*
X043275Y016260D01*
X043288Y016317D01*
X043306Y016374D01*
X043327Y016429D01*
X043352Y016482D01*
X043380Y016533D01*
X043411Y016583D01*
X043446Y016630D01*
X043484Y016675D01*
X043525Y016718D01*
X043569Y016757D01*
X043615Y016793D01*
X043663Y016827D01*
X043714Y016857D01*
X043767Y016883D01*
X043821Y016906D01*
X043876Y016925D01*
X043933Y016941D01*
X043991Y016953D01*
X044049Y016961D01*
X044108Y016965D01*
X044166Y016965D01*
X044225Y016961D01*
X044283Y016953D01*
X044341Y016941D01*
X044398Y016925D01*
X044453Y016906D01*
X044507Y016883D01*
X044560Y016857D01*
X044611Y016827D01*
X044659Y016793D01*
X044705Y016757D01*
X044749Y016718D01*
X044790Y016675D01*
X044828Y016630D01*
X044863Y016583D01*
X044894Y016533D01*
X044922Y016482D01*
X044947Y016429D01*
X044968Y016374D01*
X044986Y016317D01*
X044999Y016260D01*
X045009Y016202D01*
X045015Y016144D01*
X045017Y016085D01*
X045015Y016026D01*
X045009Y015968D01*
X044999Y015910D01*
X044986Y015853D01*
X044968Y015796D01*
X044947Y015741D01*
X044922Y015688D01*
X044894Y015637D01*
X044863Y015587D01*
X044828Y015540D01*
X044790Y015495D01*
X044749Y015452D01*
X044705Y015413D01*
X044659Y015377D01*
X044611Y015343D01*
X044560Y015313D01*
X044507Y015287D01*
X044453Y015264D01*
X044398Y015245D01*
X044341Y015229D01*
X044283Y015217D01*
X044225Y015209D01*
X044166Y015205D01*
X044108Y015205D01*
X044049Y015209D01*
X043991Y015217D01*
X043933Y015229D01*
X043876Y015245D01*
X043821Y015264D01*
X043767Y015287D01*
X043714Y015313D01*
X043663Y015343D01*
X043615Y015377D01*
X043569Y015413D01*
X043525Y015452D01*
X043484Y015495D01*
X043446Y015540D01*
X043411Y015587D01*
X043380Y015637D01*
X043352Y015688D01*
X043327Y015741D01*
X043306Y015796D01*
X043288Y015853D01*
X043275Y015910D01*
X043265Y015968D01*
X043259Y016026D01*
X043257Y016085D01*
X042017Y016085D02*
X042020Y016189D01*
X042027Y016293D01*
X042040Y016396D01*
X042058Y016499D01*
X042081Y016600D01*
X042108Y016700D01*
X042141Y016799D01*
X042178Y016896D01*
X042221Y016991D01*
X042267Y017084D01*
X042319Y017175D01*
X042374Y017263D01*
X042434Y017348D01*
X042498Y017430D01*
X042566Y017509D01*
X042638Y017584D01*
X042713Y017656D01*
X042792Y017724D01*
X042874Y017788D01*
X042959Y017848D01*
X043047Y017903D01*
X043138Y017955D01*
X043231Y018001D01*
X043326Y018044D01*
X043423Y018081D01*
X043522Y018114D01*
X043622Y018141D01*
X043723Y018164D01*
X043826Y018182D01*
X043929Y018195D01*
X044033Y018202D01*
X044137Y018205D01*
X044241Y018202D01*
X044345Y018195D01*
X044448Y018182D01*
X044551Y018164D01*
X044652Y018141D01*
X044752Y018114D01*
X044851Y018081D01*
X044948Y018044D01*
X045043Y018001D01*
X045136Y017955D01*
X045227Y017903D01*
X045315Y017848D01*
X045400Y017788D01*
X045482Y017724D01*
X045561Y017656D01*
X045636Y017584D01*
X045708Y017509D01*
X045776Y017430D01*
X045840Y017348D01*
X045900Y017263D01*
X045955Y017175D01*
X046007Y017084D01*
X046053Y016991D01*
X046096Y016896D01*
X046133Y016799D01*
X046166Y016700D01*
X046193Y016600D01*
X046216Y016499D01*
X046234Y016396D01*
X046247Y016293D01*
X046254Y016189D01*
X046257Y016085D01*
X046254Y015981D01*
X046247Y015877D01*
X046234Y015774D01*
X046216Y015671D01*
X046193Y015570D01*
X046166Y015470D01*
X046133Y015371D01*
X046096Y015274D01*
X046053Y015179D01*
X046007Y015086D01*
X045955Y014995D01*
X045900Y014907D01*
X045840Y014822D01*
X045776Y014740D01*
X045708Y014661D01*
X045636Y014586D01*
X045561Y014514D01*
X045482Y014446D01*
X045400Y014382D01*
X045315Y014322D01*
X045227Y014267D01*
X045136Y014215D01*
X045043Y014169D01*
X044948Y014126D01*
X044851Y014089D01*
X044752Y014056D01*
X044652Y014029D01*
X044551Y014006D01*
X044448Y013988D01*
X044345Y013975D01*
X044241Y013968D01*
X044137Y013965D01*
X044033Y013968D01*
X043929Y013975D01*
X043826Y013988D01*
X043723Y014006D01*
X043622Y014029D01*
X043522Y014056D01*
X043423Y014089D01*
X043326Y014126D01*
X043231Y014169D01*
X043138Y014215D01*
X043047Y014267D01*
X042959Y014322D01*
X042874Y014382D01*
X042792Y014446D01*
X042713Y014514D01*
X042638Y014586D01*
X042566Y014661D01*
X042498Y014740D01*
X042434Y014822D01*
X042374Y014907D01*
X042319Y014995D01*
X042267Y015086D01*
X042221Y015179D01*
X042178Y015274D01*
X042141Y015371D01*
X042108Y015470D01*
X042081Y015570D01*
X042058Y015671D01*
X042040Y015774D01*
X042027Y015877D01*
X042020Y015981D01*
X042017Y016085D01*
X041586Y018535D02*
X040720Y018535D01*
X041586Y018535D02*
X041586Y020779D01*
X041232Y021134D01*
X040720Y021134D01*
X039854Y021134D02*
X039342Y021134D01*
X038987Y020779D01*
X038987Y018535D01*
X039854Y018535D01*
X041927Y020507D02*
X041966Y020468D01*
X044447Y020468D01*
X044486Y020507D01*
X044486Y025862D01*
X044447Y025901D01*
X041966Y025901D01*
X041927Y025862D01*
X041927Y020507D01*
X041687Y021885D02*
X040587Y021885D01*
X040587Y023985D01*
X041687Y023985D01*
X041687Y021885D01*
X040618Y024391D02*
X040055Y024391D01*
X040055Y025578D01*
X040618Y025578D01*
X040618Y024391D01*
X038713Y026125D02*
X038151Y026125D01*
X038151Y027312D01*
X038713Y027312D01*
X038713Y026125D01*
X040087Y026735D02*
X040087Y027235D01*
X040337Y027485D01*
X044337Y027485D01*
X044587Y027235D01*
X044587Y026735D01*
X044337Y026485D01*
X040337Y026485D01*
X040087Y026735D01*
X038263Y027435D02*
X035389Y027435D01*
X034865Y027301D02*
X034865Y027970D01*
X035945Y027663D02*
X035945Y027288D01*
X036020Y027213D01*
X036170Y027213D01*
X036245Y027288D01*
X036245Y027663D01*
X036406Y027588D02*
X036481Y027663D01*
X036631Y027663D01*
X036706Y027588D01*
X036631Y027438D02*
X036481Y027438D01*
X036406Y027513D01*
X036406Y027588D01*
X036556Y027738D02*
X036556Y027138D01*
X036631Y027213D02*
X036706Y027288D01*
X036706Y027363D01*
X036631Y027438D01*
X036631Y027213D02*
X036481Y027213D01*
X036406Y027288D01*
X036866Y027213D02*
X037166Y027213D01*
X037016Y027213D02*
X037016Y027663D01*
X036866Y027513D01*
X037326Y027588D02*
X037326Y027288D01*
X037626Y027588D01*
X037626Y027288D01*
X037551Y027213D01*
X037401Y027213D01*
X037326Y027288D01*
X037326Y027588D02*
X037401Y027663D01*
X037551Y027663D01*
X037626Y027588D01*
X037638Y030134D02*
X037488Y030134D01*
X037413Y030209D01*
X037488Y030359D02*
X037638Y030359D01*
X037713Y030284D01*
X037713Y030209D01*
X037638Y030134D01*
X037488Y030359D02*
X037413Y030434D01*
X037413Y030509D01*
X037488Y030584D01*
X037638Y030584D01*
X037713Y030509D01*
X037873Y030584D02*
X037873Y030284D01*
X038023Y030134D01*
X038174Y030284D01*
X038174Y030584D01*
X038334Y030434D02*
X038484Y030584D01*
X038484Y030134D01*
X038334Y030134D02*
X038634Y030134D01*
X038263Y030309D02*
X035389Y030309D01*
X032990Y027793D02*
X032992Y027811D01*
X032998Y027828D01*
X033007Y027844D01*
X033020Y027857D01*
X033035Y027867D01*
X033052Y027874D01*
X033069Y027877D01*
X033088Y027876D01*
X033105Y027871D01*
X033121Y027863D01*
X033135Y027851D01*
X033146Y027836D01*
X033154Y027820D01*
X033158Y027802D01*
X033158Y027784D01*
X033154Y027766D01*
X033146Y027750D01*
X033135Y027735D01*
X033121Y027723D01*
X033105Y027715D01*
X033088Y027710D01*
X033069Y027709D01*
X033052Y027712D01*
X033035Y027719D01*
X033020Y027729D01*
X033007Y027742D01*
X032998Y027758D01*
X032992Y027775D01*
X032990Y027793D01*
X032778Y027970D02*
X032778Y027301D01*
X025018Y029541D02*
X024455Y029541D01*
X024455Y030728D01*
X025018Y030728D01*
X025018Y029541D01*
X024580Y028266D02*
X023393Y028266D01*
X023393Y027703D01*
X024580Y027703D01*
X024580Y028266D01*
X022468Y029541D02*
X021905Y029541D01*
X021905Y030728D01*
X022468Y030728D01*
X022468Y029541D01*
X021430Y029366D02*
X021430Y028803D01*
X020243Y028803D01*
X020243Y029366D01*
X021430Y029366D01*
X020068Y030153D02*
X019005Y030153D01*
X019005Y030716D01*
X020068Y030716D01*
X020068Y030153D01*
X018168Y030153D02*
X017105Y030153D01*
X017105Y030716D01*
X018168Y030716D01*
X018168Y030153D01*
X016868Y030528D02*
X016868Y029341D01*
X016305Y029341D01*
X016305Y030528D01*
X016868Y030528D01*
X016168Y030566D02*
X016168Y029503D01*
X015605Y029503D01*
X015605Y030566D01*
X016168Y030566D01*
X014586Y030651D02*
X014586Y029785D01*
X012342Y029785D01*
X011987Y030140D01*
X011987Y030651D01*
X011987Y031518D02*
X011987Y032029D01*
X012342Y032384D01*
X014586Y032384D01*
X014586Y031518D01*
X004887Y027085D02*
X004887Y026085D01*
X004387Y026085D01*
X004387Y027085D01*
X004887Y027085D01*
X004637Y026685D02*
X004737Y026585D01*
X004637Y026685D02*
X004537Y026585D01*
X004387Y025985D02*
X004887Y025985D01*
X004887Y024985D01*
X004387Y024985D01*
X004387Y025985D01*
X004637Y025585D02*
X004737Y025485D01*
X004637Y025585D02*
X004537Y025485D01*
X004168Y027303D02*
X003105Y027303D01*
X003105Y027866D01*
X004168Y027866D01*
X004168Y027303D01*
X021337Y024035D02*
X021337Y023685D01*
X024087Y023685D01*
X024087Y022413D01*
X024087Y022410D02*
X024087Y022360D01*
X024062Y022360D02*
X021337Y022360D01*
X021337Y023685D01*
X021337Y024035D02*
X024087Y024035D01*
X024087Y023985D01*
X024087Y023685D01*
X024087Y023985D02*
X024087Y023988D01*
X043355Y004116D02*
X043355Y003053D01*
X043918Y003053D01*
X043918Y004116D01*
X043355Y004116D01*
X044055Y004116D02*
X044055Y003053D01*
X044618Y003053D01*
X044618Y004116D01*
X044055Y004116D01*
X043387Y002085D02*
X042387Y002085D01*
X042387Y001585D01*
X043387Y001585D01*
X043387Y002085D01*
X042887Y001935D02*
X042787Y001835D01*
X042887Y001735D01*
X041137Y001585D02*
X041137Y002085D01*
X040137Y002085D01*
X040137Y001585D01*
X041137Y001585D01*
X040637Y001735D02*
X040537Y001835D01*
X040637Y001935D01*
X039874Y001566D02*
X038999Y001566D01*
X038999Y003503D01*
X039874Y003503D01*
X039874Y001566D01*
D14*
X036587Y010235D03*
X025537Y014585D03*
D15*
X034000Y014339D02*
X034000Y013630D01*
X034473Y013630D02*
X034473Y014339D01*
X041500Y012239D02*
X041500Y011530D01*
X041973Y011530D02*
X041973Y012239D01*
X040889Y004085D02*
X040891Y004140D01*
X040897Y004194D01*
X040907Y004248D01*
X040921Y004300D01*
X040938Y004352D01*
X040960Y004402D01*
X040985Y004451D01*
X041013Y004498D01*
X041045Y004542D01*
X041080Y004584D01*
X041118Y004623D01*
X041159Y004660D01*
X041202Y004693D01*
X041247Y004723D01*
X041295Y004750D01*
X041344Y004773D01*
X041395Y004793D01*
X041448Y004809D01*
X041501Y004821D01*
X041555Y004829D01*
X041610Y004833D01*
X041664Y004833D01*
X041719Y004829D01*
X041773Y004821D01*
X041826Y004809D01*
X041879Y004793D01*
X041930Y004773D01*
X041979Y004750D01*
X042027Y004723D01*
X042072Y004693D01*
X042115Y004660D01*
X042156Y004623D01*
X042194Y004584D01*
X042229Y004542D01*
X042261Y004498D01*
X042289Y004451D01*
X042314Y004402D01*
X042336Y004352D01*
X042353Y004300D01*
X042367Y004248D01*
X042377Y004194D01*
X042383Y004140D01*
X042385Y004085D01*
X042383Y004030D01*
X042377Y003976D01*
X042367Y003922D01*
X042353Y003870D01*
X042336Y003818D01*
X042314Y003768D01*
X042289Y003719D01*
X042261Y003672D01*
X042229Y003628D01*
X042194Y003586D01*
X042156Y003547D01*
X042115Y003510D01*
X042072Y003477D01*
X042027Y003447D01*
X041979Y003420D01*
X041930Y003397D01*
X041879Y003377D01*
X041826Y003361D01*
X041773Y003349D01*
X041719Y003341D01*
X041664Y003337D01*
X041610Y003337D01*
X041555Y003341D01*
X041501Y003349D01*
X041448Y003361D01*
X041395Y003377D01*
X041344Y003397D01*
X041295Y003420D01*
X041247Y003447D01*
X041202Y003477D01*
X041159Y003510D01*
X041118Y003547D01*
X041080Y003586D01*
X041045Y003628D01*
X041013Y003672D01*
X040985Y003719D01*
X040960Y003768D01*
X040938Y003818D01*
X040921Y003870D01*
X040907Y003922D01*
X040897Y003976D01*
X040891Y004030D01*
X040889Y004085D01*
X024432Y006537D02*
X024432Y006733D01*
X024432Y008033D01*
X020542Y008033D01*
X020542Y006733D01*
X024432Y006733D01*
X024432Y006537D02*
X020542Y006537D01*
X020542Y006733D01*
X020182Y006733D02*
X020182Y006537D01*
X016292Y006537D01*
X016292Y006733D01*
X020182Y006733D01*
X020182Y008033D01*
X016292Y008033D01*
X016292Y006733D01*
X005389Y004085D02*
X005391Y004140D01*
X005397Y004194D01*
X005407Y004248D01*
X005421Y004300D01*
X005438Y004352D01*
X005460Y004402D01*
X005485Y004451D01*
X005513Y004498D01*
X005545Y004542D01*
X005580Y004584D01*
X005618Y004623D01*
X005659Y004660D01*
X005702Y004693D01*
X005747Y004723D01*
X005795Y004750D01*
X005844Y004773D01*
X005895Y004793D01*
X005948Y004809D01*
X006001Y004821D01*
X006055Y004829D01*
X006110Y004833D01*
X006164Y004833D01*
X006219Y004829D01*
X006273Y004821D01*
X006326Y004809D01*
X006379Y004793D01*
X006430Y004773D01*
X006479Y004750D01*
X006527Y004723D01*
X006572Y004693D01*
X006615Y004660D01*
X006656Y004623D01*
X006694Y004584D01*
X006729Y004542D01*
X006761Y004498D01*
X006789Y004451D01*
X006814Y004402D01*
X006836Y004352D01*
X006853Y004300D01*
X006867Y004248D01*
X006877Y004194D01*
X006883Y004140D01*
X006885Y004085D01*
X006883Y004030D01*
X006877Y003976D01*
X006867Y003922D01*
X006853Y003870D01*
X006836Y003818D01*
X006814Y003768D01*
X006789Y003719D01*
X006761Y003672D01*
X006729Y003628D01*
X006694Y003586D01*
X006656Y003547D01*
X006615Y003510D01*
X006572Y003477D01*
X006527Y003447D01*
X006479Y003420D01*
X006430Y003397D01*
X006379Y003377D01*
X006326Y003361D01*
X006273Y003349D01*
X006219Y003341D01*
X006164Y003337D01*
X006110Y003337D01*
X006055Y003341D01*
X006001Y003349D01*
X005948Y003361D01*
X005895Y003377D01*
X005844Y003397D01*
X005795Y003420D01*
X005747Y003447D01*
X005702Y003477D01*
X005659Y003510D01*
X005618Y003547D01*
X005580Y003586D01*
X005545Y003628D01*
X005513Y003672D01*
X005485Y003719D01*
X005460Y003768D01*
X005438Y003818D01*
X005421Y003870D01*
X005407Y003922D01*
X005397Y003976D01*
X005391Y004030D01*
X005389Y004085D01*
X018213Y026391D02*
X018213Y027178D01*
X017810Y026785D01*
X018213Y026391D01*
X029895Y026638D02*
X029895Y028793D01*
X032473Y028793D01*
X032473Y026638D01*
X032276Y026441D01*
X030091Y026441D01*
X029895Y026638D01*
X030989Y030829D02*
X030739Y031079D01*
X030739Y031579D01*
X030989Y031829D01*
X031489Y031829D01*
X031739Y031579D01*
X031989Y031829D01*
X032489Y031829D01*
X032739Y031579D01*
X032989Y031829D01*
X033489Y031829D01*
X033739Y031579D01*
X033989Y031829D01*
X034489Y031829D01*
X034739Y031579D01*
X034989Y031829D01*
X035489Y031829D01*
X035739Y031579D01*
X035989Y031829D01*
X036489Y031829D01*
X036739Y031579D01*
X036989Y031829D01*
X037489Y031829D01*
X037739Y031579D01*
X037989Y031829D01*
X038489Y031829D01*
X038739Y031579D01*
X038739Y031079D01*
X038489Y030829D01*
X037989Y030829D01*
X037739Y031079D01*
X037489Y030829D01*
X036989Y030829D01*
X036739Y031079D01*
X036489Y030829D01*
X035989Y030829D01*
X035739Y031079D01*
X035489Y030829D01*
X034989Y030829D01*
X034739Y031079D01*
X034489Y030829D01*
X033989Y030829D01*
X033739Y031079D01*
X033489Y030829D01*
X032989Y030829D01*
X032739Y031079D01*
X032489Y030829D01*
X031989Y030829D01*
X031739Y031079D01*
X031489Y030829D01*
X030989Y030829D01*
X040385Y031056D02*
X040385Y030289D01*
X040385Y031056D02*
X040881Y031056D01*
X042731Y031056D02*
X044718Y031056D01*
X044718Y027633D01*
X040385Y027633D01*
X040385Y028400D01*
X005389Y029085D02*
X005391Y029140D01*
X005397Y029194D01*
X005407Y029248D01*
X005421Y029300D01*
X005438Y029352D01*
X005460Y029402D01*
X005485Y029451D01*
X005513Y029498D01*
X005545Y029542D01*
X005580Y029584D01*
X005618Y029623D01*
X005659Y029660D01*
X005702Y029693D01*
X005747Y029723D01*
X005795Y029750D01*
X005844Y029773D01*
X005895Y029793D01*
X005948Y029809D01*
X006001Y029821D01*
X006055Y029829D01*
X006110Y029833D01*
X006164Y029833D01*
X006219Y029829D01*
X006273Y029821D01*
X006326Y029809D01*
X006379Y029793D01*
X006430Y029773D01*
X006479Y029750D01*
X006527Y029723D01*
X006572Y029693D01*
X006615Y029660D01*
X006656Y029623D01*
X006694Y029584D01*
X006729Y029542D01*
X006761Y029498D01*
X006789Y029451D01*
X006814Y029402D01*
X006836Y029352D01*
X006853Y029300D01*
X006867Y029248D01*
X006877Y029194D01*
X006883Y029140D01*
X006885Y029085D01*
X006883Y029030D01*
X006877Y028976D01*
X006867Y028922D01*
X006853Y028870D01*
X006836Y028818D01*
X006814Y028768D01*
X006789Y028719D01*
X006761Y028672D01*
X006729Y028628D01*
X006694Y028586D01*
X006656Y028547D01*
X006615Y028510D01*
X006572Y028477D01*
X006527Y028447D01*
X006479Y028420D01*
X006430Y028397D01*
X006379Y028377D01*
X006326Y028361D01*
X006273Y028349D01*
X006219Y028341D01*
X006164Y028337D01*
X006110Y028337D01*
X006055Y028341D01*
X006001Y028349D01*
X005948Y028361D01*
X005895Y028377D01*
X005844Y028397D01*
X005795Y028420D01*
X005747Y028447D01*
X005702Y028477D01*
X005659Y028510D01*
X005618Y028547D01*
X005580Y028586D01*
X005545Y028628D01*
X005513Y028672D01*
X005485Y028719D01*
X005460Y028768D01*
X005438Y028818D01*
X005421Y028870D01*
X005407Y028922D01*
X005397Y028976D01*
X005391Y029030D01*
X005389Y029085D01*
D16*
X024337Y024235D03*
X035587Y012535D03*
D17*
X037037Y013685D02*
X039187Y013685D01*
X041037Y013685D01*
X041037Y014685D01*
X039187Y014685D01*
X037037Y014685D01*
X037037Y013685D01*
X039137Y013685D02*
X039187Y013685D01*
X039187Y014685D02*
X039137Y014685D01*
X038687Y017635D02*
X037687Y017635D01*
X037687Y019635D01*
X038687Y019635D01*
X038687Y017635D01*
X037432Y025748D02*
X036408Y025748D01*
X036388Y025750D01*
X036368Y025754D01*
X036350Y025762D01*
X036333Y025772D01*
X036317Y025785D01*
X036304Y025801D01*
X036294Y025818D01*
X036286Y025836D01*
X036282Y025856D01*
X036280Y025876D01*
X036280Y026916D01*
X036280Y026900D02*
X036282Y026920D01*
X036286Y026940D01*
X036294Y026958D01*
X036304Y026975D01*
X036317Y026991D01*
X036333Y027004D01*
X036350Y027014D01*
X036368Y027022D01*
X036388Y027026D01*
X036408Y027028D01*
X037432Y027028D01*
X037452Y027026D01*
X037472Y027022D01*
X037490Y027014D01*
X037507Y027004D01*
X037523Y026991D01*
X037536Y026975D01*
X037546Y026958D01*
X037554Y026940D01*
X037558Y026920D01*
X037560Y026900D01*
X037560Y025876D01*
X037558Y025856D01*
X037554Y025836D01*
X037546Y025818D01*
X037536Y025801D01*
X037523Y025785D01*
X037507Y025772D01*
X037490Y025762D01*
X037472Y025754D01*
X037452Y025750D01*
X037432Y025748D01*
X029637Y030835D02*
X029637Y031835D01*
X028787Y031835D01*
X028737Y031835D01*
X028787Y031835D02*
X015637Y031835D01*
X015637Y030835D01*
X016787Y030835D01*
X029637Y030835D01*
X024287Y030735D02*
X024287Y029535D01*
X022587Y029535D01*
X022587Y030735D01*
X024287Y030735D01*
X023937Y029385D02*
X021937Y029385D01*
X021937Y028385D01*
X023937Y028385D01*
X023937Y029385D01*
X023387Y027535D02*
X024587Y027535D01*
X024587Y025835D01*
X023387Y025835D01*
X023387Y027535D01*
X023087Y026885D02*
X021087Y026885D01*
X021087Y025885D01*
X023087Y025885D01*
X023087Y026885D01*
X019285Y028140D02*
X019088Y028140D01*
X019088Y030029D01*
X019285Y030029D01*
X019285Y028140D01*
X019088Y028140D02*
X017789Y028140D01*
X017789Y030029D01*
X019088Y030029D01*
X016787Y030835D02*
X016737Y030835D01*
X011137Y031085D02*
X011137Y025085D01*
X009137Y025085D01*
X009137Y031085D01*
X011137Y031085D01*
X009137Y031085D02*
X009137Y025085D01*
X008137Y025085D01*
X008137Y031085D01*
X009137Y031085D01*
X004787Y029085D02*
X004789Y029158D01*
X004795Y029231D01*
X004805Y029303D01*
X004819Y029375D01*
X004836Y029446D01*
X004858Y029516D01*
X004883Y029585D01*
X004912Y029652D01*
X004944Y029717D01*
X004980Y029781D01*
X005020Y029843D01*
X005062Y029902D01*
X005108Y029959D01*
X005157Y030013D01*
X005209Y030065D01*
X005263Y030114D01*
X005320Y030160D01*
X005379Y030202D01*
X005441Y030242D01*
X005505Y030278D01*
X005570Y030310D01*
X005637Y030339D01*
X005706Y030364D01*
X005776Y030386D01*
X005847Y030403D01*
X005919Y030417D01*
X005991Y030427D01*
X006064Y030433D01*
X006137Y030435D01*
X006210Y030433D01*
X006283Y030427D01*
X006355Y030417D01*
X006427Y030403D01*
X006498Y030386D01*
X006568Y030364D01*
X006637Y030339D01*
X006704Y030310D01*
X006769Y030278D01*
X006833Y030242D01*
X006895Y030202D01*
X006954Y030160D01*
X007011Y030114D01*
X007065Y030065D01*
X007117Y030013D01*
X007166Y029959D01*
X007212Y029902D01*
X007254Y029843D01*
X007294Y029781D01*
X007330Y029717D01*
X007362Y029652D01*
X007391Y029585D01*
X007416Y029516D01*
X007438Y029446D01*
X007455Y029375D01*
X007469Y029303D01*
X007479Y029231D01*
X007485Y029158D01*
X007487Y029085D01*
X007485Y029012D01*
X007479Y028939D01*
X007469Y028867D01*
X007455Y028795D01*
X007438Y028724D01*
X007416Y028654D01*
X007391Y028585D01*
X007362Y028518D01*
X007330Y028453D01*
X007294Y028389D01*
X007254Y028327D01*
X007212Y028268D01*
X007166Y028211D01*
X007117Y028157D01*
X007065Y028105D01*
X007011Y028056D01*
X006954Y028010D01*
X006895Y027968D01*
X006833Y027928D01*
X006769Y027892D01*
X006704Y027860D01*
X006637Y027831D01*
X006568Y027806D01*
X006498Y027784D01*
X006427Y027767D01*
X006355Y027753D01*
X006283Y027743D01*
X006210Y027737D01*
X006137Y027735D01*
X006064Y027737D01*
X005991Y027743D01*
X005919Y027753D01*
X005847Y027767D01*
X005776Y027784D01*
X005706Y027806D01*
X005637Y027831D01*
X005570Y027860D01*
X005505Y027892D01*
X005441Y027928D01*
X005379Y027968D01*
X005320Y028010D01*
X005263Y028056D01*
X005209Y028105D01*
X005157Y028157D01*
X005108Y028211D01*
X005062Y028268D01*
X005020Y028327D01*
X004980Y028389D01*
X004944Y028453D01*
X004912Y028518D01*
X004883Y028585D01*
X004858Y028654D01*
X004836Y028724D01*
X004819Y028795D01*
X004805Y028867D01*
X004795Y028939D01*
X004789Y029012D01*
X004787Y029085D01*
X004137Y027085D02*
X003137Y027085D01*
X003137Y025935D01*
X003137Y021085D01*
X004137Y021085D01*
X004137Y021935D01*
X004137Y027085D01*
X003137Y025985D02*
X003137Y025935D01*
X004137Y021985D02*
X004137Y021935D01*
X004137Y019335D02*
X003137Y019335D01*
X003137Y018185D01*
X003137Y013335D01*
X004137Y013335D01*
X004137Y014185D01*
X004137Y019335D01*
X003137Y018235D02*
X003137Y018185D01*
X004137Y014235D02*
X004137Y014185D01*
X004137Y011585D02*
X003137Y011585D01*
X003137Y010435D01*
X003137Y005585D01*
X004137Y005585D01*
X004137Y006435D01*
X004137Y011585D01*
X003137Y010485D02*
X003137Y010435D01*
X004137Y006485D02*
X004137Y006435D01*
X004787Y004085D02*
X004789Y004158D01*
X004795Y004231D01*
X004805Y004303D01*
X004819Y004375D01*
X004836Y004446D01*
X004858Y004516D01*
X004883Y004585D01*
X004912Y004652D01*
X004944Y004717D01*
X004980Y004781D01*
X005020Y004843D01*
X005062Y004902D01*
X005108Y004959D01*
X005157Y005013D01*
X005209Y005065D01*
X005263Y005114D01*
X005320Y005160D01*
X005379Y005202D01*
X005441Y005242D01*
X005505Y005278D01*
X005570Y005310D01*
X005637Y005339D01*
X005706Y005364D01*
X005776Y005386D01*
X005847Y005403D01*
X005919Y005417D01*
X005991Y005427D01*
X006064Y005433D01*
X006137Y005435D01*
X006210Y005433D01*
X006283Y005427D01*
X006355Y005417D01*
X006427Y005403D01*
X006498Y005386D01*
X006568Y005364D01*
X006637Y005339D01*
X006704Y005310D01*
X006769Y005278D01*
X006833Y005242D01*
X006895Y005202D01*
X006954Y005160D01*
X007011Y005114D01*
X007065Y005065D01*
X007117Y005013D01*
X007166Y004959D01*
X007212Y004902D01*
X007254Y004843D01*
X007294Y004781D01*
X007330Y004717D01*
X007362Y004652D01*
X007391Y004585D01*
X007416Y004516D01*
X007438Y004446D01*
X007455Y004375D01*
X007469Y004303D01*
X007479Y004231D01*
X007485Y004158D01*
X007487Y004085D01*
X007485Y004012D01*
X007479Y003939D01*
X007469Y003867D01*
X007455Y003795D01*
X007438Y003724D01*
X007416Y003654D01*
X007391Y003585D01*
X007362Y003518D01*
X007330Y003453D01*
X007294Y003389D01*
X007254Y003327D01*
X007212Y003268D01*
X007166Y003211D01*
X007117Y003157D01*
X007065Y003105D01*
X007011Y003056D01*
X006954Y003010D01*
X006895Y002968D01*
X006833Y002928D01*
X006769Y002892D01*
X006704Y002860D01*
X006637Y002831D01*
X006568Y002806D01*
X006498Y002784D01*
X006427Y002767D01*
X006355Y002753D01*
X006283Y002743D01*
X006210Y002737D01*
X006137Y002735D01*
X006064Y002737D01*
X005991Y002743D01*
X005919Y002753D01*
X005847Y002767D01*
X005776Y002784D01*
X005706Y002806D01*
X005637Y002831D01*
X005570Y002860D01*
X005505Y002892D01*
X005441Y002928D01*
X005379Y002968D01*
X005320Y003010D01*
X005263Y003056D01*
X005209Y003105D01*
X005157Y003157D01*
X005108Y003211D01*
X005062Y003268D01*
X005020Y003327D01*
X004980Y003389D01*
X004944Y003453D01*
X004912Y003518D01*
X004883Y003585D01*
X004858Y003654D01*
X004836Y003724D01*
X004819Y003795D01*
X004805Y003867D01*
X004795Y003939D01*
X004789Y004012D01*
X004787Y004085D01*
X008887Y004585D02*
X011037Y004585D01*
X012887Y004585D01*
X012887Y005585D01*
X011037Y005585D01*
X008887Y005585D01*
X008887Y004585D01*
X008887Y003585D02*
X008887Y001585D01*
X012887Y001585D01*
X012887Y003585D01*
X008887Y003585D01*
X010987Y004585D02*
X011037Y004585D01*
X011037Y005585D02*
X010987Y005585D01*
X013887Y005585D02*
X013887Y004585D01*
X021887Y004585D01*
X029887Y004585D01*
X029887Y005585D01*
X021887Y005585D01*
X013887Y005585D01*
X013887Y003585D02*
X021887Y003585D01*
X029887Y003585D01*
X029887Y001585D01*
X021887Y001585D01*
X013887Y001585D01*
X013887Y003585D01*
X030887Y003585D02*
X030887Y001585D01*
X038887Y001585D01*
X038887Y003585D01*
X030887Y003585D01*
X030887Y004585D02*
X030887Y005585D01*
X038887Y005585D01*
X038887Y004585D01*
X030887Y004585D01*
X040287Y004085D02*
X040289Y004158D01*
X040295Y004231D01*
X040305Y004303D01*
X040319Y004375D01*
X040336Y004446D01*
X040358Y004516D01*
X040383Y004585D01*
X040412Y004652D01*
X040444Y004717D01*
X040480Y004781D01*
X040520Y004843D01*
X040562Y004902D01*
X040608Y004959D01*
X040657Y005013D01*
X040709Y005065D01*
X040763Y005114D01*
X040820Y005160D01*
X040879Y005202D01*
X040941Y005242D01*
X041005Y005278D01*
X041070Y005310D01*
X041137Y005339D01*
X041206Y005364D01*
X041276Y005386D01*
X041347Y005403D01*
X041419Y005417D01*
X041491Y005427D01*
X041564Y005433D01*
X041637Y005435D01*
X041710Y005433D01*
X041783Y005427D01*
X041855Y005417D01*
X041927Y005403D01*
X041998Y005386D01*
X042068Y005364D01*
X042137Y005339D01*
X042204Y005310D01*
X042269Y005278D01*
X042333Y005242D01*
X042395Y005202D01*
X042454Y005160D01*
X042511Y005114D01*
X042565Y005065D01*
X042617Y005013D01*
X042666Y004959D01*
X042712Y004902D01*
X042754Y004843D01*
X042794Y004781D01*
X042830Y004717D01*
X042862Y004652D01*
X042891Y004585D01*
X042916Y004516D01*
X042938Y004446D01*
X042955Y004375D01*
X042969Y004303D01*
X042979Y004231D01*
X042985Y004158D01*
X042987Y004085D01*
X042985Y004012D01*
X042979Y003939D01*
X042969Y003867D01*
X042955Y003795D01*
X042938Y003724D01*
X042916Y003654D01*
X042891Y003585D01*
X042862Y003518D01*
X042830Y003453D01*
X042794Y003389D01*
X042754Y003327D01*
X042712Y003268D01*
X042666Y003211D01*
X042617Y003157D01*
X042565Y003105D01*
X042511Y003056D01*
X042454Y003010D01*
X042395Y002968D01*
X042333Y002928D01*
X042269Y002892D01*
X042204Y002860D01*
X042137Y002831D01*
X042068Y002806D01*
X041998Y002784D01*
X041927Y002767D01*
X041855Y002753D01*
X041783Y002743D01*
X041710Y002737D01*
X041637Y002735D01*
X041564Y002737D01*
X041491Y002743D01*
X041419Y002753D01*
X041347Y002767D01*
X041276Y002784D01*
X041206Y002806D01*
X041137Y002831D01*
X041070Y002860D01*
X041005Y002892D01*
X040941Y002928D01*
X040879Y002968D01*
X040820Y003010D01*
X040763Y003056D01*
X040709Y003105D01*
X040657Y003157D01*
X040608Y003211D01*
X040562Y003268D01*
X040520Y003327D01*
X040480Y003389D01*
X040444Y003453D01*
X040412Y003518D01*
X040383Y003585D01*
X040358Y003654D01*
X040336Y003724D01*
X040319Y003795D01*
X040305Y003867D01*
X040295Y003939D01*
X040289Y004012D01*
X040287Y004085D01*
D18*
X013437Y008135D03*
D19*
X032037Y011885D03*
D20*
X020187Y006285D03*
X015937Y006285D03*
D21*
X030187Y022585D02*
X030387Y022585D01*
X030887Y022585D02*
X031087Y022585D01*
X036414Y026799D02*
X036416Y026818D01*
X036422Y026837D01*
X036431Y026854D01*
X036444Y026869D01*
X036459Y026880D01*
X036477Y026889D01*
X036495Y026894D01*
X036515Y026895D01*
X036534Y026892D01*
X036552Y026885D01*
X036569Y026875D01*
X036583Y026862D01*
X036594Y026846D01*
X036602Y026828D01*
X036606Y026809D01*
X036606Y026789D01*
X036602Y026770D01*
X036594Y026752D01*
X036583Y026736D01*
X036569Y026723D01*
X036552Y026713D01*
X036534Y026706D01*
X036515Y026703D01*
X036495Y026704D01*
X036477Y026709D01*
X036459Y026718D01*
X036444Y026729D01*
X036431Y026744D01*
X036422Y026761D01*
X036416Y026780D01*
X036414Y026799D01*
D22*
X037787Y024885D03*
D23*
X019537Y027985D03*
D24*
X027011Y027101D02*
X027011Y026854D01*
X027011Y026733D02*
X027320Y026733D01*
X027382Y026671D01*
X027382Y026547D01*
X027320Y026486D01*
X027011Y026486D01*
X027073Y026364D02*
X027011Y026303D01*
X027011Y026179D01*
X027073Y026117D01*
X027320Y026117D01*
X027382Y026179D01*
X027382Y026303D01*
X027320Y026364D01*
X027073Y026364D01*
X027073Y025996D02*
X027011Y025934D01*
X027011Y025811D01*
X027073Y025749D01*
X027320Y025749D01*
X027382Y025811D01*
X027382Y025934D01*
X027320Y025996D01*
X027382Y026978D02*
X027011Y026978D01*
D25*
X031184Y028987D03*
D26*
X043844Y028244D02*
X043869Y028244D01*
X043969Y028144D01*
X043994Y028144D01*
X043994Y028097D02*
X043994Y027997D01*
X043994Y028047D02*
X043844Y028047D01*
X043894Y027997D01*
X043844Y027949D02*
X043844Y027899D01*
X043844Y027924D02*
X043969Y027924D01*
X043994Y027899D01*
X043994Y027874D01*
X043969Y027849D01*
X043844Y028144D02*
X043844Y028244D01*
M02*
